<svg width="120" height="120" viewBox="0 0 120 120" fill="none" xmlns="http://www.w3.org/2000/svg">
<circle cx="60" cy="60" r="60" fill="#EDF0F4"/>
<path d="M39.4521 64.1841L41.5023 48.7797L23.7188 36.4343L39.9674 41.9382L43.8048 36.0505L57.8168 27.3561L88.7023 44.3722L90.3031 70.3349L76.5433 89.4561L65.667 91.1227L71.2915 80.8275V70.916L67.202 63.1754L63.0466 60.4235L56.6546 67.0128V73.9859L51.666 78.6566L45.3288 79.4241L42.522 81.0139L37.9171 79.5447L35.9984 72.6374L39.4521 67.7803V64.1841Z" fill="white"/>
<path d="M67.8491 36.3028C64.4612 35.6011 60.7553 35.7874 60.7553 35.7874C60.7553 35.7874 59.5383 41.412 51.9951 42.8921C52.0499 42.8921 61.9614 46.28 67.8491 36.3028Z" fill="#94A6C3"/>
<path d="M70.9188 87.3401C75.0084 84.1386 78.0783 79.7311 79.4927 74.7425C79.5585 74.5561 80.1286 74.2271 80.5123 73.975C81.1482 73.5912 81.7951 73.2733 81.9157 72.758C82.1679 71.2888 82.2994 69.7538 82.2994 68.2189C82.2994 67.6488 81.7184 67.0677 81.1482 66.4975C80.6987 66.1138 80.2492 65.6643 80.2492 65.3463C79.6133 59.5244 76.9271 54.0863 72.6402 50.1283L72.1906 50.5778C76.346 54.481 79.0322 59.7876 79.6133 65.4121C79.6791 65.9274 80.1834 66.4317 80.6987 66.9471C81.1482 67.3308 81.6635 67.9119 81.6635 68.1641C81.6635 69.6332 81.532 71.1024 81.2798 72.5716C81.214 72.8238 80.6439 73.0869 80.1944 73.3391C79.5585 73.657 78.9774 73.975 78.8568 74.4903C77.3218 79.9284 73.8024 84.6649 69.1317 87.7348C69.965 85.9477 72.5854 80.1258 73.9887 77.1765L73.7366 67.7145L65.6122 59.8533L61.0074 60.4893L55.953 68.6794C55.953 68.6794 58.3212 71.6835 54.9881 75.2029C51.7318 78.6566 49.1663 79.4241 49.1663 79.4241L46.798 78.1413C47.4997 77.2422 48.9141 75.9046 49.9995 75.0056C51.8524 73.4706 53.7054 73.3391 53.7054 71.6835C53.7821 68.2189 50.0653 69.1727 50.0653 69.1727L48.7167 70.4555L48.1466 75.192L45.3398 78.7114L45.0219 78.6456L40.417 77.626C40.417 77.626 43.2347 76.1568 43.6843 74.4903C44.1338 72.8895 42.7852 67.583 42.7194 67.265C42.7852 67.3308 44.068 68.4162 44.6381 70.2034C45.6578 67.3856 47.0064 64.6994 47.3901 64.4473C47.7738 64.1951 52.9488 61.4431 52.9488 61.4431L51.2275 65.9822L52.5103 65.2805L55.5802 57.7373C55.5802 57.7373 58.5843 56.2681 60.821 56.2681C64.8448 56.2023 70.7982 51.2795 68.112 42.4535C68.8795 42.7714 82.1788 49.4266 84.4813 62.4737C86.2026 72.5058 80.5123 81.9019 70.9188 87.3401Z" fill="#94A6C3"/>
<path d="M55.7014 37.7061C57.1705 35.9738 56.6004 33.4192 56.6004 33.4192L52.3135 39.7564C52.2477 39.7564 53.8375 39.8222 55.7014 37.7061Z" fill="#1B314F"/>
<path d="M41.3048 72.3085L41.8201 69.7539C41.8201 69.7539 39.704 73.4597 39.5176 73.975C39.3203 74.5561 39.6492 75.5758 40.4715 75.51C41.3048 75.4442 42.3244 74.2272 42.3244 73.3391C42.3244 72.1879 41.3048 72.3085 41.3048 72.3085Z" fill="#1B314F"/>
<path fill-rule="evenodd" clip-rule="evenodd" d="M79.2954 31.632C79.2954 31.632 82.4969 31.7636 85.819 32.1474C78.3306 26.2597 71.2369 24.5383 65.4808 24.5383C57.7985 24.5383 52.5155 27.607 51.8973 27.9661L51.8525 27.992L54.3523 24.023C54.3523 24.023 44.3751 23.0582 40.8556 33.6165C39.9566 31.3799 39.1343 28.1126 39.1343 28.1126C39.1343 28.1126 33.9483 32.6627 36.3823 40.2059C30.4289 38.035 21.9318 35.0199 21.6029 34.9651C21.1533 34.8993 21.0218 35.0967 21.0218 35.0967C21.0218 35.0967 20.8902 35.2831 21.2739 35.612C21.9866 36.1711 35.4175 46.0936 38.3668 48.0123C37.7309 50.3147 37.7309 51.4001 38.3668 52.4856C39.2659 53.9547 39.3207 54.7222 39.2001 55.8077C39.0685 56.8931 37.9173 66.3002 37.6651 67.4514C37.5627 67.9187 37.0593 68.8702 36.5054 69.9172C35.6947 71.4494 34.7757 73.1862 34.8474 73.9092C34.9789 75.1262 36.6345 80.3012 38.1146 80.8823C39.2001 81.266 41.8863 82.0993 43.6734 82.0993C44.3093 82.0993 44.8904 81.9677 45.1426 81.7156C46.228 80.7617 46.5459 80.5644 47.3134 80.5644H47.4998C47.645 80.5644 47.804 80.5781 47.9766 80.593L47.9767 80.593C48.1821 80.6107 48.4069 80.6301 48.651 80.6301C49.6707 80.6301 51.0193 80.4328 51.9731 79.5447C52.6318 78.8861 53.5174 78.1139 54.3513 77.3869L54.3514 77.3869L54.3514 77.3868L54.3517 77.3866C55.2943 76.5647 56.1708 75.8006 56.578 75.3236C57.5428 74.1066 58.0472 72.451 57.795 70.7845C57.5977 69.2495 58.4309 67.9009 59.3957 66.5633C60.6128 64.9626 62.8494 62.09 62.8494 62.09C67.2679 65.4011 70.0199 70.4556 70.0199 76.0801C70.0199 86.0573 61.3254 94.1159 50.5807 94.1159C48.9142 94.1159 47.3244 93.9295 45.7236 93.5457C50.6465 95.2671 54.8018 95.8482 58.2007 95.8482C65.4259 95.8482 69.2633 93.2278 69.2633 93.2278C69.2633 93.2278 67.9257 94.9601 65.7439 96.9336H65.8097C77.7714 95.2671 83.5933 85.4214 83.5933 85.4214C83.5933 85.4214 83.1438 88.6229 82.5736 90.7938C98.1073 79.1141 95.9125 64.5702 95.7392 63.4214C95.735 63.3937 95.732 63.3737 95.7304 63.3618C95.7938 63.4517 96.1986 63.944 96.693 64.5453L96.6932 64.5456L96.6937 64.5462C97.2249 65.1923 97.8593 65.964 98.285 66.4976C100.851 40.1401 79.2954 31.632 79.2954 31.632ZM54.8018 73.7228C54.5973 73.9807 53.8447 74.6641 53.1581 75.2875C52.9981 75.4327 52.8418 75.5747 52.6967 75.7073C52.4462 75.9364 52.1886 76.1655 51.9332 76.3926L51.9331 76.3927L51.9329 76.3929C51.406 76.8615 50.8883 77.322 50.4601 77.7576C50.2079 78.0097 49.6926 78.1413 48.9251 78.1413H48.2234H47.8397H47.5875H47.0064C47.9713 76.8585 50.778 73.9202 51.7429 73.2843C52.8941 72.5168 53.4752 71.7493 52.7625 70.4117C52.0608 69.0631 50.2079 69.392 50.2079 69.392C50.2079 69.392 51.2934 68.9425 52.2582 68.9425C51.0412 68.6246 49.5062 68.9425 48.8045 69.6442C48.2932 70.1117 48.1809 71.3774 48.0689 72.6403C48.0128 73.273 47.9568 73.9049 47.8507 74.4355C47.5649 75.9333 46.6592 76.758 45.2688 78.024L45.2679 78.0248C45.1116 78.1672 44.9491 78.3151 44.7807 78.4702C43.8817 79.3035 43.2458 79.5557 42.7305 79.5557C41.645 79.3693 40.3623 79.0404 39.4632 78.7224C38.8273 77.8891 37.8625 75.1372 37.6103 73.986C37.7457 73.5239 38.1879 72.6857 38.5668 71.9674L38.5668 71.9674L38.5668 71.9674C38.7094 71.6971 38.843 71.4438 38.9479 71.234L39.058 71.0234C39.7585 69.6837 40.1713 68.8941 40.2965 68.1641C40.5486 67.0786 41.3819 60.3577 41.6999 57.5509C42.5331 58.6364 43.6843 60.4345 43.4212 61.5857C45.2741 58.9653 43.9365 56.3997 43.2896 55.3801C42.7195 54.3604 41.952 52.3101 42.5879 50.1393C43.2239 47.9684 45.5263 41.9492 45.5263 41.9492C45.5263 41.9492 46.2938 43.2977 47.3792 43.0346C48.4646 42.7824 57.2249 29.6037 57.2249 29.6037C57.2249 29.6037 59.5931 34.7787 57.0933 38.5613C54.5387 42.3329 52.0389 43.0346 52.0389 43.0346C52.0389 43.0346 55.5583 43.6705 58.8147 41.3023C60.1523 44.438 61.4351 47.6943 61.5008 48.1438C61.4551 48.2481 61.2824 48.6586 61.0411 49.2324L61.0402 49.2344C60.2411 51.1348 58.6903 54.8223 58.4967 55.1169C58.3651 55.2485 57.4771 55.5007 56.8302 55.6322C55.7447 55.9502 55.1088 56.1475 54.8457 56.3339C54.3962 56.7177 52.3459 62.3422 51.392 65.0942C50.2408 65.4121 49.0896 66.059 48.2563 67.3308C48.7059 67.0129 50.1092 66.8155 51.1399 66.6949C52.0389 66.6291 54.7799 68.0983 55.4926 70.8503V70.9818C55.6351 71.9905 55.3171 72.9553 54.8018 73.7228ZM49.3427 72.2114C49.3073 72.8309 49.2497 73.8362 48.7936 74.4903C48.9142 74.3587 49.8132 73.3939 50.2737 72.9553C50.4745 72.7719 50.7014 72.6278 50.9181 72.4902C51.3877 72.1921 51.8087 71.9248 51.8087 71.3546C51.8087 70.4665 50.5917 70.2692 50.0764 70.4007C49.5624 70.521 49.4411 71.3502 49.3752 71.8005L49.3747 71.8041C49.3605 71.9008 49.3524 72.0416 49.3427 72.2114ZM74.3068 62.2654C74.9427 59.0091 75.0085 56.1914 74.8221 53.889C77.3109 57.211 78.8459 61.2458 79.2954 65.4011C79.3612 65.9165 79.8655 66.4208 80.3808 66.9361C80.8304 67.3198 81.3457 67.8352 81.3457 68.1531C81.3457 69.6223 81.2141 71.0915 80.9619 72.5716C80.8961 72.758 80.326 73.0869 79.8765 73.3391C79.2406 73.657 78.6595 73.975 78.5389 74.4903C77.1355 79.4131 74.1204 83.7658 70.0966 86.8358C76.0391 80.6301 78.9117 70.3898 74.3068 62.2654ZM79.0432 74.6767C77.6398 79.7311 74.4383 84.2044 70.283 87.4059C79.109 83.1847 85.1831 74.1614 85.1831 63.8004C85.1831 50.3147 74.9427 39.1862 61.8298 37.7719C61.3912 38.4736 60.9417 39.1095 60.4921 39.6248L60.499 39.6419C61.458 42.0227 63.9458 48.1994 63.9458 48.5166C63.9458 48.9003 62.7288 52.0251 62.5972 52.1566C62.4766 52.2224 61.0075 52.354 60.4264 52.354C59.7905 53.889 59.1545 55.3581 59.023 55.5555C58.8256 55.8077 58.2555 56.005 57.0385 56.323C56.9361 56.3525 56.826 56.3836 56.7127 56.4157C56.1102 56.5862 55.4169 56.7824 55.3062 56.8931C54.9882 57.2768 53.2559 61.8159 52.1047 65.0174C53.6397 64.7543 54.9882 65.0722 55.3062 65.2038C57.806 60.4674 59.7795 57.9127 60.2948 57.9127C60.3473 57.9072 60.4576 57.9114 60.6159 57.9174C62.01 57.9706 67.1256 58.1659 69.2524 53.0557C71.5201 47.5159 68.3316 42.7845 68.1093 42.4546C68.1059 42.4495 68.1031 42.4455 68.1012 42.4425C68.1033 42.4436 68.1066 42.4452 68.1112 42.4475C68.3948 42.5853 73.3624 44.999 74.6247 52.5513C77.4973 56.2024 79.3502 60.6099 79.8655 65.2805C79.8655 65.5166 80.1495 65.8251 80.4259 66.1255C80.5219 66.2297 80.6169 66.3329 80.6988 66.4318C81.2689 67.0019 81.85 67.583 81.85 68.1531C81.85 69.6881 81.7184 71.223 81.4663 72.6922C81.3457 73.2075 80.6988 73.5913 80.0629 73.9092C79.9899 73.9571 79.9103 74.0078 79.8286 74.0598C79.4806 74.2813 79.0965 74.5257 79.0432 74.6767Z" fill="#1B314F"/>
<path d="M53.2665 52.8693C54.4835 51.4659 53.8476 48.8455 51.6 48.396C52.181 47.0584 53.0033 44.3722 53.0033 44.3722C53.0033 44.3722 46.4798 54.6016 45.9096 54.799C45.3286 54.9963 44.7584 52.7487 44.7584 52.7487C43.5414 57.4193 46.8087 58.0553 47.1924 56.5861C48.9796 56.1256 52.0495 54.2069 53.2665 52.8693Z" fill="#1B314F"/>
<path d="M47.6973 55.3582L51.0194 49.6678C51.0194 49.6678 52.9381 50.6327 51.9732 52.1676C50.7672 53.9548 47.6973 55.3582 47.6973 55.3582Z" fill="#FFD923"/>
<path d="M88.8231 81.7155C87.8582 82.9983 86.7728 84.3359 85.501 85.6187C93.7459 69.7538 85.8847 55.2375 85.5668 54.6674C86.1479 55.2485 86.718 55.8844 87.2333 56.4545C93.5595 63.4824 94.327 74.0407 88.8231 81.7155Z" fill="#D82122"/>
<path d="M96.4982 61.3116C93.6147 53.5711 89.5251 46.9817 80.5127 41.0392C71.8183 35.2831 62.477 35.7326 61.9616 35.7984C61.8959 35.7984 61.8301 35.7984 61.8301 35.7984C62.148 35.6669 62.466 35.6011 62.7839 35.5463C64.7684 34.9103 67.323 34.395 69.8886 34.0771C76.6753 33.1013 83.5169 35.4037 88.1875 40.3375C88.2533 40.4033 88.2533 40.4033 88.3191 40.4691C93.6257 46.0936 96.3776 53.1215 96.4982 61.3116Z" fill="#D82122"/>
<path d="M78.4617 29.6475C68.934 27.8604 62.7942 28.7485 58.3757 30.415C58.2441 29.8997 57.7946 28.8801 57.4109 28.0468C56.0842 29.6475 54.6699 31.5662 53.7818 32.7832C51.3478 34.4498 50.3281 36.0505 50.3281 36.0505C51.7315 31.2483 55.832 27.674 60.8207 26.775C62.2241 26.5228 63.759 26.3912 65.4255 26.3912C69.8331 26.457 74.2406 27.5425 78.4617 29.6475Z" fill="#D82122"/>
<path d="M43.2235 41.9273C35.7461 41.6751 38.2349 32.9697 38.3665 32.4653C38.3665 32.5311 38.8708 39.3069 43.2235 41.9273Z" fill="#D82122"/>
<path d="M50.5805 26.2596C44.8244 29.7133 45.9756 37.9582 45.9756 37.9582C40.4717 29.5927 50.1309 26.457 50.5805 26.2596Z" fill="#D82122"/>
<path d="M41.1191 44.2297C41.5029 44.5477 41.8866 45.1288 41.4371 45.962C41.1849 46.4116 40.8012 46.3458 40.2201 46.0936C39.4526 45.7099 34.8477 43.0237 30.6924 40.2717C35.4288 41.9383 40.2201 43.7254 40.9876 44.1091C40.9876 44.1091 41.0534 44.1749 41.1191 44.2297Z" fill="white"/>
</svg>
