<svg width="120" height="120" viewBox="0 0 120 120" fill="none" xmlns="http://www.w3.org/2000/svg">
<circle cx="60" cy="60" r="60" fill="url(#paint0_linear_1_7150)"/>
<path fill-rule="evenodd" clip-rule="evenodd" d="M101.765 59.2089C101.075 59.2089 100.507 59.7769 100.507 60.4665C100.507 61.3996 100.487 62.2718 100.426 63.1035C100.243 64.8479 99.6754 66.3895 98.9046 67.1805C98.215 67.9513 97.0182 68.0122 96.2474 67.3022C96.2325 67.2873 96.2164 67.2724 96.1999 67.2572C96.1493 67.2104 96.0955 67.1607 96.0649 67.0994C94.8681 65.7607 94.503 62.7992 94.7667 60.5882C94.8275 59.8986 94.3002 59.2901 93.6105 59.2495C92.9614 59.1887 92.3732 59.6552 92.2718 60.3043C92.1501 61.4605 92.1501 62.6166 92.2718 63.7525C92.2718 63.854 92.2515 63.9554 92.2312 64.0568C91.6835 68.4179 89.8174 69.3306 88.357 69.3306C87.8904 69.3104 87.4239 69.2292 86.9979 69.0669L87.0791 68.9858C88.4787 67.4037 89.3306 65.3347 89.3306 63.4889C89.3306 62.2921 88.9858 61.2576 88.3164 60.5071C87.789 59.8986 86.8357 59.1887 85.1724 59.1887C83.7931 59.1887 82.5355 59.8986 81.8255 61.0751C80.7099 62.8195 80.6085 65.3955 81.5618 67.5051C81.8255 68.0527 82.1501 68.5801 82.5557 69.0264C82.0284 69.2089 81.4807 69.3104 80.9127 69.3306C79.148 69.3306 76.6125 67.1805 75.1521 65.6187C76.7545 64.3408 78.1744 62.8601 79.3509 61.1765C79.7566 60.6085 79.6146 59.8377 79.0466 59.4321C78.4787 59.0264 77.7079 59.1684 77.3022 59.7363C76.1257 61.4402 74.645 62.9209 72.9614 64.1379V60.4665C72.9411 59.7769 72.3529 59.2292 71.6632 59.2698C71.0142 59.2901 70.4868 59.8175 70.4665 60.4665L70.4462 67.8093C70.4259 67.7891 70.5679 71.3185 70.7505 71.4807H70.7708C70.9533 71.6633 71.1967 71.7647 71.4401 71.8053C71.5213 71.8256 71.6227 71.8256 71.7038 71.8256C72.3935 71.8256 72.9614 71.2576 72.9614 70.568V66.8763C74.3407 68.4179 77.7282 71.8256 80.9127 71.8256C82.2718 71.8256 83.6308 71.4807 84.8073 70.8114C85.9026 71.4402 87.1196 71.785 88.3772 71.8256C90.7708 71.8256 92.6166 70.5071 93.7322 68.1339C93.8742 68.357 94.0365 68.5598 94.219 68.7627C95.0507 69.7363 96.2677 70.284 97.5456 70.284C97.7687 70.284 98.3164 70.2029 98.5598 69.9594C98.4254 70.0939 98.3266 70.4244 98.2398 70.7146L98.2398 70.7147C98.1956 70.8624 98.1546 70.9996 98.1136 71.0953L97.5659 72.2515C97.1805 73.0223 96.7545 73.7525 96.2677 74.4625C95.3144 75.9026 94.1785 77.2414 92.9006 78.3976C90.0811 80.9331 86.6937 82.353 83.002 83.0223C81.075 83.3671 79.1075 83.4686 77.1602 83.3469C75.1521 83.2252 73.1643 82.9412 71.1967 82.5152C67.2211 81.6836 63.286 80.3448 59.3914 78.8235C57.1399 77.9513 54.8884 76.998 52.6369 76.0243C53.8134 74.929 54.9695 73.7931 56.0649 72.6166C57.6267 70.9331 59.1075 69.1886 60.4665 67.3428C61.8661 65.4767 63.1237 63.5091 64.2393 61.4605C65.3955 59.3509 66.3488 57.14 67.0791 54.8682C67.8499 52.4747 68.2961 50 68.4178 47.4848C68.4584 46.1866 68.3975 44.8682 68.2353 43.57C68.0527 42.2515 67.7687 40.9736 67.3428 39.716C66.5314 37.2414 65.3346 34.9087 63.7728 32.8195C62.1501 30.6288 60.0811 28.8033 57.7079 27.4645C55.3144 26.1258 52.6774 25.3144 49.9391 25.0913C49.2697 25.0304 48.6207 24.9899 47.9716 24.9899C47.647 24.9899 47.3225 24.9899 46.9979 25.0102L46.5111 25.0304C46.3652 25.0304 46.2194 25.0468 46.0587 25.0649L46.004 25.071C44.6653 25.1724 43.3265 25.4158 42.0284 25.7809C39.4726 26.5315 37.0791 27.7282 34.9493 29.3509C32.9411 30.8925 31.1561 32.6775 29.6349 34.7059C28.8843 35.6795 28.215 36.6937 27.5862 37.7485C27.2616 38.2759 26.9776 38.8033 26.6937 39.3509C26.5517 39.6146 26.4097 39.8986 26.2677 40.1826L26.0649 40.6288L25.9635 40.8519L25.8417 41.1359C24.9493 43.2454 25.9635 45.6795 28.073 46.572C30.1217 47.4239 32.4746 46.5315 33.428 44.5233L33.5294 44.3205L33.6308 44.1177L33.7728 43.8337C33.8235 43.7323 33.8742 43.6359 33.9249 43.5396L33.925 43.5395C33.9757 43.4431 34.0264 43.3468 34.077 43.2454C34.2799 42.8398 34.5233 42.4544 34.7667 42.069C35.2535 41.2982 35.7606 40.5274 36.3286 39.8175C37.4036 38.4179 38.6409 37.1603 40.0405 36.0852C41.3387 35.0913 42.7992 34.3611 44.361 33.8945C45.1115 33.6714 45.9026 33.5497 46.6734 33.4889C46.7241 33.4889 46.7748 33.4838 46.8255 33.4787C46.8762 33.4736 46.9269 33.4686 46.9776 33.4686L47.3022 33.4483C47.3691 33.4483 47.4382 33.4461 47.508 33.4439C47.65 33.4393 47.795 33.4347 47.931 33.4483C48.357 33.4483 48.7626 33.4686 49.1683 33.5091C50.7302 33.6308 52.2312 34.0771 53.5902 34.8276C54.9493 35.5984 56.146 36.6329 57.0791 37.8702C58.0933 39.2292 58.8641 40.7302 59.3914 42.3327C59.6551 43.1035 59.8377 43.9148 59.9594 44.7262C60.0811 45.5578 60.1217 46.3895 60.1014 47.2211C60.0405 48.9858 59.7363 50.7505 59.2089 52.4341C58.6409 54.2394 57.931 55.9635 57.0385 57.6268C55.1724 61.0953 52.8803 64.3205 50.2231 67.2414C48.5192 69.1481 46.6734 70.9331 44.7261 72.5761C43.7322 72.1501 42.718 71.7241 41.6835 71.3185C39.574 70.4463 37.4239 69.716 35.2332 69.1075C34.0162 68.783 32.7992 68.5598 31.5415 68.4179C30.8316 68.357 30.1419 68.3367 29.432 68.357C28.6207 68.3976 27.8296 68.5396 27.0385 68.7627C26.146 69.0264 25.2941 69.4523 24.5436 70.0203C23.7728 70.6085 23.1237 71.3185 22.6166 72.1298C22.1703 72.8398 21.8255 73.6308 21.5821 74.4422C21.3793 75.1521 21.217 75.8621 21.1359 76.6126C21.0547 77.282 21.0142 77.931 20.9939 78.6004C20.9736 79.3306 21.0344 80.0609 21.1359 80.7911C21.2576 81.643 21.501 82.4544 21.8458 83.2454C22.2312 84.1582 22.7992 84.9899 23.5091 85.6795C24.2393 86.3895 25.0912 86.9371 26.0243 87.3225C26.8357 87.6471 27.7079 87.8702 28.5801 87.9513C30.0202 88.073 31.4807 87.9919 32.9006 87.6674C35.4969 87.1197 37.7282 86.1866 39.8377 85.1319C41.9067 84.0771 43.8945 82.8803 45.8012 81.5619C46.3083 81.217 46.8154 80.8519 47.3225 80.4665C50.6288 81.785 53.9756 83.1035 57.4239 84.2799C61.5618 85.6998 65.8215 86.9371 70.2637 87.6674C72.5152 88.0527 74.787 88.2556 77.0588 88.2759C79.3914 88.2962 81.7038 88.0527 83.9756 87.5254C88.6207 86.4706 92.7991 83.9554 95.9229 80.3651C97.4239 78.641 98.7018 76.7343 99.7566 74.7059C100.669 72.9412 101.501 71.1359 102.049 69.1684C102.557 67.3288 102.764 65.3194 102.96 63.4133L102.96 63.4131L102.982 63.2049C103.043 62.6978 103.063 62.1704 103.063 61.6633C103.083 61.2576 103.083 60.8519 103.083 60.426C103.022 59.7972 102.475 59.2292 101.765 59.2089ZM84.7464 67.7688C84.361 67.4037 84.0365 66.9777 83.8134 66.4909C83.2048 65.1724 83.2454 63.4686 83.9148 62.4544C84.1582 62.0081 84.645 61.7241 85.1521 61.7241C85.72 61.7241 86.146 61.8864 86.4097 62.1704C86.7342 62.5558 86.7951 63.1035 86.7951 63.5091C86.7951 65.2941 85.9229 66.7546 84.7464 67.7688ZM29.6349 80.7302C30.2028 80.7302 30.7708 80.6694 31.3184 80.568C33.9553 80.1014 36.288 78.6207 38.5192 77.2008C38.2555 77.0791 36.0446 76.3286 35.4158 76.1258C34.1176 75.6795 32.7586 75.355 31.3996 75.1521C31.3792 75.1495 31.3588 75.1468 31.3383 75.1441C30.4189 75.0238 29.3548 74.8845 28.6207 75.6187C28.073 76.2272 27.7079 76.998 27.6065 77.8093C27.4442 78.9047 28.0121 80.7302 29.6349 80.7302Z" fill="white"/>
<defs>
<linearGradient id="paint0_linear_1_7150" x1="255.998" y1="226.399" x2="230.097" y2="-140.275" gradientUnits="userSpaceOnUse">
<stop offset="0.3" stop-color="#17936F"/>
<stop offset="0.41" stop-color="#14A073"/>
<stop offset="0.63" stop-color="#0BC27E"/>
<stop offset="0.79" stop-color="#04E087"/>
</linearGradient>
</defs>
</svg>
