<svg width="120" height="120" viewBox="0 0 120 120" fill="none" xmlns="http://www.w3.org/2000/svg">
<circle cx="60" cy="60" r="60" fill="#EDF0F4"/>
<rect x="46.498" y="91.1697" width="27.0821" height="3.62956" fill="#681AF1"/>
<rect x="39.239" y="87.54" width="41.3211" height="3.62956" fill="#681AF1"/>
<rect x="35.8887" y="83.9105" width="48.0218" height="3.62956" fill="#681AF1"/>
<rect x="31.98" y="80.281" width="55.5602" height="3.62956" fill="#781CF2"/>
<rect x="28.9087" y="76.6514" width="62.2609" height="3.62956" fill="#781CF2"/>
<rect x="28.9087" y="73.0219" width="62.2609" height="3.62956" fill="#781CF2"/>
<rect x="25.2793" y="46.7773" width="69.2408" height="5.58394" fill="#E740EC"/>
<rect x="28.9087" y="39.5182" width="62.2609" height="7.25912" fill="#E740EC"/>
<rect x="32.259" y="35.8887" width="55.281" height="3.62956" fill="#E740EC"/>
<rect x="35.6094" y="32.2592" width="48.301" height="3.62956" fill="#E740EC"/>
<rect x="39.239" y="28.6295" width="41.3211" height="3.62956" fill="#E740EC"/>
<rect x="46.498" y="25" width="27.0821" height="3.62956" fill="#E740EC"/>
<rect x="25" y="62.6915" width="69.52" height="10.3303" fill="#9521F2"/>
<rect x="25" y="52.3613" width="69.52" height="10.3303" fill="#B828F3"/>
<rect x="37.0054" y="65.4835" width="7.25912" height="2.51277" fill="white"/>
<rect x="37.0054" y="53.1989" width="9.77189" height="2.51277" fill="white"/>
<rect x="49.011" y="53.1989" width="2.51277" height="14.7974" fill="white"/>
<rect x="57.666" y="53.1989" width="2.51277" height="14.7974" fill="white"/>
<rect x="39.239" y="59.062" width="7.53831" height="2.51277" fill="white"/>
<rect x="51.5237" y="59.062" width="6.14233" height="2.51277" fill="white"/>
<rect x="62.4124" y="65.4835" width="8.6551" height="2.51277" fill="white"/>
<rect x="80.8394" y="55.4325" width="2.51277" height="12.5639" fill="white"/>
<rect x="67.1587" y="67.9963" width="2.51277" height="2.51277" fill="white"/>
<rect x="71.0674" y="61.5748" width="2.51277" height="3.90876" fill="white"/>
<rect x="62.4124" y="55.4325" width="2.51277" height="3.90876" fill="white"/>
<rect x="64.925" y="59.3412" width="6.14233" height="2.23357" fill="white"/>
<rect x="64.925" y="53.1989" width="8.6551" height="2.23357" fill="white"/>
<rect x="76.093" y="53.1989" width="12.0055" height="2.23357" fill="white"/>
<rect x="67.438" y="50.6862" width="2.51277" height="2.51277" fill="white"/>
<rect x="44.2646" y="61.5748" width="2.51277" height="3.90876" fill="white"/>
<rect x="34.4927" y="55.7117" width="2.51277" height="9.77189" fill="white"/>
</svg>
