<svg width="120" height="120" viewBox="0 0 120 120" fill="none" xmlns="http://www.w3.org/2000/svg">
<circle cx="60" cy="60" r="60" fill="#EDF0F4"/>
<ellipse cx="60.173" cy="59.7854" rx="40.6504" ry="19.4228" transform="rotate(-70.7 60.173 59.7854)" fill="#5FBCD3"/>
<ellipse cx="60.1538" cy="59.7991" rx="40.6504" ry="19.4228" transform="rotate(-37 60.1538 59.7991)" fill="#2C89A0"/>
<ellipse cx="61.9159" cy="58.7369" rx="40.6504" ry="19.4228" transform="rotate(-5.7 61.9159 58.7369)" fill="#164450"/>
<path fill-rule="evenodd" clip-rule="evenodd" d="M64.7891 60.5581C65.1172 63.8123 67.4485 65.4326 71.7829 65.4189C74.3402 65.4461 76.8662 64.8551 79.1459 63.6961V68.6184C76.5617 69.7533 73.4374 70.3207 69.773 70.3207C65.3292 70.3207 62.0476 69.0218 59.9282 66.4239H59.8052C57.4807 69.0218 54.4931 70.3207 50.8424 70.3207C48.0941 70.3207 45.9474 69.7191 44.4023 68.5159C42.8573 67.3126 42.0847 65.6445 42.0847 63.5115C42.0847 61.3921 42.8846 59.6898 44.4844 58.4045C46.0841 57.1193 48.3676 56.3809 51.3346 56.1895L57.6927 55.7383C57.6927 52.9626 56.1681 51.5748 53.119 51.5748C50.2476 51.5748 47.4036 52.3542 44.5869 53.9129V48.7649C47.4932 47.5549 50.6068 46.9211 53.7548 46.8985C57.6243 46.8985 60.3043 47.8693 61.7946 49.8109H61.8972C64.0959 47.8653 66.8226 46.6161 69.7319 46.2217C73.0955 45.668 77.3411 45.709 79.3715 47.6369C80.5159 48.7452 81.2591 50.2027 81.484 51.7799C81.7262 53.6042 81.2057 55.4477 80.0452 56.876C78.8848 58.3042 77.1869 59.1911 75.3516 59.3275L64.7891 60.5581ZM57.6722 60.7427V59.7582L53.8163 60.0453C50.7672 60.2641 49.2426 61.2212 49.2426 62.9167C49.2544 63.638 49.6232 64.3064 50.2271 64.7011C50.8697 65.1796 51.7107 65.4257 52.7498 65.4394C54.1718 65.4394 55.3477 65.0019 56.2775 64.1268C57.2073 63.2517 57.6722 62.1237 57.6722 60.7427ZM65.4249 56.9484L65.4864 55.9639C65.5684 54.5966 66.1017 53.4959 67.0862 52.6618C68.0706 51.8277 69.2739 51.4381 70.6959 51.4927C71.7214 51.5474 72.5418 51.8209 73.1571 52.3131C73.7462 52.7381 74.0785 53.4337 74.039 54.159C73.9433 55.8545 72.3709 56.7433 69.3217 56.8253L65.4249 56.9484Z" fill="white"/>
</svg>
