<svg width="120" height="120" viewBox="0 0 120 120" fill="none" xmlns="http://www.w3.org/2000/svg">
<circle cx="60" cy="60" r="60" fill="#EDF0F4"/>
<path d="M29.0428 92.7055C28.9756 92.0339 28.5055 86.9568 33.3676 80.2281C37.7059 74.2242 48.236 70.262 57.7587 67.0116L58.6049 66.7296C65.0115 64.5403 74.0776 60.4438 76.1729 58.4559L82.7675 65.4133C78.4696 69.483 66.1129 74.2913 61.7209 75.7956L60.8613 76.0911C56.2678 77.6626 44.0454 81.8262 41.1443 85.8556C38.4581 89.5759 38.5924 92.6651 38.5924 92.6919L29.0428 92.7055Z" fill="url(#paint0_linear_1_6357)"/>
<path d="M73.7961 93.0145H64.2062C64.2062 89.1195 62.89 85.8419 61.8423 83.1961C61.6946 82.8336 61.5603 82.4841 61.426 82.1484C60.8484 80.6578 58.4308 77.0581 56.4967 74.1838C55.4088 72.5586 54.2671 70.8797 53.3404 69.3889C53.0315 68.9054 52.7091 68.4084 52.3868 67.898C49.5125 63.4791 45.5771 57.4217 45.5771 48.3422C45.5771 43.1577 47.6053 37.9733 51.1511 34.1051L58.2159 40.5924C56.3087 42.6742 55.167 45.5754 55.167 48.3422C55.167 54.5743 57.8398 58.6976 60.4321 62.6733C60.7947 63.224 61.1439 63.7612 61.4663 64.285C62.3259 65.655 63.3735 67.1996 64.4749 68.8382C67.0134 72.6258 69.4175 76.1985 70.3846 78.6833C70.5055 78.992 70.6263 79.3147 70.7607 79.6505C71.956 82.6856 73.7961 87.2795 73.7961 93.0145Z" fill="url(#paint1_linear_1_6357)"/>
<path d="M82.7677 65.3998L76.173 58.4425C78.7247 56.0249 80.5248 53.9162 80.5248 48.6646C80.5248 41.2102 74.3732 36.6033 68.6784 36.6033C64.1386 36.6033 60.6196 37.9465 58.202 40.579L51.1372 34.0917C54.1055 30.8548 59.5586 27 68.6918 27C74.7493 27 80.3234 29.4713 84.3795 33.944C88.0327 37.9867 90.1413 43.3458 90.1413 48.6511C90.1145 57.2605 86.582 61.7868 82.7677 65.3998Z" fill="url(#paint2_linear_1_6357)"/>
<defs>
<linearGradient id="paint0_linear_1_6357" x1="29" y1="58.4559" x2="29" y2="92.7055" gradientUnits="userSpaceOnUse">
<stop stop-color="#4D4D4D"/>
<stop offset="1" stop-color="#8F8F8F"/>
</linearGradient>
<linearGradient id="paint1_linear_1_6357" x1="45.5771" y1="34.1051" x2="45.5771" y2="93.0145" gradientUnits="userSpaceOnUse">
<stop stop-color="#393939"/>
<stop offset="1" stop-color="#B8B8B8"/>
</linearGradient>
<linearGradient id="paint2_linear_1_6357" x1="51.1372" y1="27" x2="51.1372" y2="65.3998" gradientUnits="userSpaceOnUse">
<stop stop-color="#FF21B3"/>
<stop offset="1" stop-color="#FF21B3"/>
</linearGradient>
</defs>
</svg>
