<svg width="120" height="120" viewBox="0 0 120 120" fill="none" xmlns="http://www.w3.org/2000/svg">
<circle cx="60" cy="60" r="60" fill="#EDF0F4"/>
<circle cx="60" cy="60" r="36" fill="#0092B5"/>
<path fill-rule="evenodd" clip-rule="evenodd" d="M48.3247 54.9443L41.3789 42.5693C46.1129 40.056 51.9877 38.7375 59.0077 38.625L49.6432 55.1085C49.2299 54.9234 48.7707 54.8661 48.3247 54.9443ZM60.0944 38.769L50.4599 55.7295H50.4577C51.1558 56.5719 51.1231 57.8009 50.3812 58.605L59.0954 74.1278C59.7101 73.8431 60.4198 73.848 61.0304 74.1413L69.4972 58.8682C68.9628 58.4605 68.6447 57.8304 68.6337 57.1584C68.6228 56.4863 68.9202 55.8462 69.4409 55.4212L60.2744 38.769C60.1484 38.7172 60.1124 38.7375 60.0944 38.769ZM58.2854 74.7622L49.5374 59.181V59.1833C49.1823 59.3197 48.7988 59.3661 48.4214 59.3183L42.8144 69.1867C43.3519 70.3185 43.9873 71.4011 44.7134 72.4222C46.4302 72.825 50.8177 73.8713 57.8804 75.5632C57.9587 75.2712 58.0966 74.9984 58.2854 74.7622ZM46.4682 57.1693C46.4529 56.4469 46.7937 55.7631 47.3797 55.3403L40.5014 43.0868C39.9936 43.493 39.715 44.1207 39.7544 44.7698L40.7962 61.3792C40.9386 63.6613 41.4476 65.9056 42.3037 68.0257L47.4562 58.9583C46.8528 58.5606 46.4835 57.8918 46.4682 57.1693ZM62.2297 75.5857C62.1545 75.2954 62.0204 75.0235 61.8359 74.787L70.4264 59.2913C70.7972 59.3656 71.1806 59.3471 71.5424 59.2372L77.1089 69.3487C76.6364 70.3207 76.0919 71.2567 75.4799 72.15L62.2297 75.5857ZM62.2432 76.623C62.0461 77.4526 61.394 78.0976 60.5624 78.2858V83.6003C60.7566 83.5451 60.9415 83.4617 61.1114 83.3528L69.2632 78.1463C71.2598 76.874 73.0352 75.284 74.5192 73.4393L62.2432 76.623ZM59.5409 78.288V83.625C59.3093 83.5726 59.0886 83.4804 58.8884 83.3527L50.7367 78.1462C48.8306 76.9314 47.1256 75.4269 45.6832 73.6867C47.9107 74.2155 51.9674 75.183 57.8534 76.5915C58.0334 77.4307 58.6949 78.0945 59.5409 78.288ZM70.3544 54.9713C70.7748 54.8713 71.215 54.8931 71.6234 55.0343L78.5534 42.5355C73.9162 40.0853 68.1832 38.7825 61.3612 38.6318L70.3544 54.9713ZM72.4852 55.5765L79.4377 43.0395C79.9831 43.442 80.2879 44.0931 80.2477 44.7698L79.2059 61.3815C79.0592 63.7215 78.527 66.0212 77.6309 68.1878L72.4244 58.731C72.8606 58.3263 73.1135 57.7616 73.125 57.1667C73.1364 56.5717 72.9055 55.9977 72.4852 55.5765ZM58.7827 50.478C58.8018 49.8164 59.3381 49.2871 59.9999 49.2765L60.0022 49.2787C60.6622 49.2904 61.1969 49.8182 61.2172 50.478V54.8745L67.7107 58.875L66.9164 60.477L61.2172 58.4745V62.871L62.8417 64.0702V65.2695L59.9999 64.4707L57.1582 65.2717V64.0725L58.7827 62.8732V58.4767L52.9844 60.3757L52.2892 58.875L58.7827 54.8745V50.478Z" fill="white"/>
</svg>
