<svg width="120" height="120" viewBox="0 0 120 120" fill="none" xmlns="http://www.w3.org/2000/svg">
<circle cx="60" cy="60" r="60" fill="#322A3F"/>
<path d="M59.2704 31.9621L36.1986 80.0677H74.5014C75.6109 80.0673 76.6139 80.7281 77.0514 81.7477L77.0916 81.8407C77.3791 82.51 77.3358 83.2756 76.9746 83.9083C76.3244 85.0411 75.1182 85.74 73.812 85.7407H33.1056C32.4777 85.7405 31.8639 85.5545 31.3416 85.2061L31.1268 85.0639C29.8071 84.1805 29.3387 82.4606 30.0282 81.0301L57.2514 25.0093C57.536 24.4245 57.9411 23.9066 58.44 23.4895C59.4145 22.6767 60.8268 22.6631 61.8168 23.4571C62.0323 23.6269 62.2068 23.843 62.3274 24.0895L89.94 80.4973C90.3144 81.2638 90.3924 82.1416 90.159 82.9621C89.8956 83.8898 89.0474 84.5291 88.083 84.5269H87.7668C86.479 84.527 85.307 83.7831 84.759 82.6177L60.945 31.9705C60.7947 31.6447 60.4694 31.4355 60.1107 31.4337C59.7519 31.4319 59.4246 31.6379 59.271 31.9621H59.2704Z" fill="#F4AE95"/>
</svg>
