<svg width="120" height="120" viewBox="0 0 120 120" fill="none" xmlns="http://www.w3.org/2000/svg">
<circle cx="60" cy="60" r="60" fill="#EDF0F4"/>
<path fill-rule="evenodd" clip-rule="evenodd" d="M74.4368 33.4915C73.5788 33.2546 72.7456 32.9357 71.9487 32.5393C71.7644 32.4778 71.3651 32.2628 72.6245 31.9249C73.7426 31.6249 74.4976 32.0271 74.9968 32.2931L74.9969 32.2931C75.0599 32.3267 75.1189 32.3581 75.174 32.3857C75.5118 32.5393 75.174 33.0614 74.9282 33.3379C74.7986 33.4651 74.6157 33.5222 74.4368 33.4915ZM64.761 33.1536C64.4845 33.1536 64.3924 33.4915 64.3924 33.4915C64.2695 33.7065 65.6211 33.7679 65.8668 33.7679C66.1125 33.7679 66.2047 33.3072 65.9897 33.1536C65.8375 33.0449 65.4237 33.0901 65.0968 33.1257C64.9619 33.1405 64.8418 33.1536 64.761 33.1536ZM32.447 51.9522C32.447 51.9522 31.7098 51.9829 31.8327 51.1229C31.9555 50.2628 32.9385 49.2184 33.5221 48.8191C34.1057 48.4198 34.4129 48.1126 34.4129 47.4983C34.4129 47.0735 34.8387 46.7075 35.1726 46.4205C35.3216 46.2924 35.4523 46.1801 35.5187 46.0853C35.7337 45.7782 36.5323 45.3788 36.4095 45.901C36.3621 46.1024 36.2872 46.2582 36.2132 46.4122C36.0953 46.6576 35.9794 46.8989 35.9794 47.314C35.9794 47.9898 36.1023 48.4505 36.4402 47.744C36.7781 47.0375 38.8668 43.7509 40.9862 42.0307C43.1057 40.3106 45.9316 38.4061 46.3002 38.3447C46.6688 38.2833 46.8839 38.529 46.8839 38.9283C46.8839 39.1836 46.4696 39.4389 46.0424 39.7021C45.8013 39.8507 45.556 40.0019 45.3787 40.157C45.3335 40.1966 45.2414 40.2728 45.1102 40.3816C43.8155 41.4541 38.7085 45.6846 37.1467 49.0034C36.7943 49.4935 36.3929 49.9463 35.9487 50.3549C35.6654 50.5935 35.4979 50.8827 35.3093 51.2085C35.1092 51.5539 34.8853 51.9405 34.4743 52.3515C34.0489 52.777 33.8588 53.2111 33.7137 53.5425C33.5864 53.8333 33.4937 54.045 33.3071 54.1024C32.9077 54.2253 32.3856 53.7338 32.6927 52.6894C32.915 51.9335 33.4753 51.3868 34.024 50.8513L34.0241 50.8513C34.2335 50.6469 34.4412 50.4442 34.6279 50.2321C35.3037 49.4642 35.5494 48.7884 35.3651 48.7884C35.1808 48.7884 34.1978 49.0034 33.9214 49.7713C33.8397 49.9984 33.7821 50.1879 33.7328 50.3501C33.6154 50.7364 33.545 50.968 33.3071 51.1843C33.1649 51.3155 33.0422 51.4545 32.9335 51.5777C32.7367 51.8007 32.5855 51.972 32.447 51.9522ZM47.0374 38.2526C47.0622 38.0912 47.1659 37.9529 47.3139 37.884C48.1125 37.4539 50.1091 36.9625 50.1091 36.9625C49.3908 37.3779 48.6936 37.8289 48.0204 38.314C47.7132 38.5904 47.2832 38.7747 47.0989 38.529C47.0497 38.4457 47.0282 38.3489 47.0374 38.2526Z" fill="black"/>
<path fill-rule="evenodd" clip-rule="evenodd" d="M59.9693 34.0751C61.3515 33.768 66.0819 33.0615 73.4539 35.9181C73.4539 35.9181 73.6996 36.1332 73.3925 36.5325C73.2817 36.7544 73.0568 36.8964 72.8089 36.9011C72.8089 36.9011 72.1331 36.6553 70.5358 36.041C68.9386 35.4267 66.2662 35.1195 65.2218 35.1502C64.5961 35.1686 63.8271 35.0547 62.9675 34.9274C62.3924 34.8422 61.7768 34.751 61.1365 34.6895C60.7302 34.6642 60.3283 34.592 59.9386 34.4745C59.8558 34.4384 59.8049 34.3539 59.8118 34.2639C59.8187 34.1738 59.8819 34.0981 59.9693 34.0751ZM33.6758 55.4847C34.0751 55.9147 34.3515 55.4847 34.3515 55.4847C34.8954 55.0827 35.603 53.9709 36.0401 53.2841C36.1709 53.0787 36.2774 52.9113 36.3481 52.8123C36.6553 52.3823 38.4061 49.9557 38.959 49.2799C39.0853 49.1256 39.1571 48.9841 39.2443 48.8123C39.5389 48.2316 40.0094 47.3044 43.3515 44.3652C47.6826 40.5564 52.5358 36.5939 58.4949 36.3789C64.4539 36.1639 71.3345 40.4642 71.3345 40.4642C71.7323 40.2853 71.9108 39.8185 71.7338 39.4199C65.0068 35.2424 59.5085 34.8123 56.8362 35.3345C54.1638 35.8567 51.645 37.239 49.802 38.2833C47.9891 39.3107 44.4523 42.151 42.4077 43.793L42.3072 43.8738C40.5229 45.3707 38.9429 47.0953 37.6075 49.0035C37.0853 49.8635 35.1502 52.9352 34.4744 53.5495C33.7986 54.1639 33.2764 55.0547 33.6758 55.4847Z" fill="black"/>
<path fill-rule="evenodd" clip-rule="evenodd" d="M67.6485 32.8772C67.5641 32.9072 67.5077 32.9872 67.5077 33.0768C67.5077 33.1664 67.5641 33.2464 67.6485 33.2765C68.1681 33.5087 68.7152 33.6739 69.2765 33.7679C70.1366 33.8294 72.4711 34.5666 73.5769 35.1502C74.2833 35.5188 74.652 34.2287 74.1912 34.0751C74.0576 34.0256 73.8913 33.9634 73.7036 33.8931L73.7036 33.8931L73.7035 33.8931C72.7262 33.5273 71.1692 32.9446 70.6281 32.8157C70.0444 32.6621 68.5086 32.57 67.6485 32.8772ZM72.6861 37.5461C72.6861 37.5461 72.9625 38.529 72.041 38.5905C71.5872 38.6207 70.4479 38.0848 69.236 37.5146C67.9871 36.9271 66.6611 36.3032 65.9284 36.2253C64.4847 36.0717 65.4676 35.1502 67.3414 35.6724C69.2151 36.1946 72.6861 37.5461 72.6861 37.5461ZM69.6284 41.5263C67.6159 40.364 62.7473 37.5523 54.9011 38.6212C54.2077 38.7052 53.6149 39.163 53.1621 39.5127C52.9529 39.6742 52.7736 39.8126 52.6281 39.8806C51.727 40.3085 50.8639 40.812 50.0479 41.3857C48.3976 42.5667 46.8649 43.9039 45.4711 45.3789C44.0888 46.9147 42.338 50.1092 41.9386 50.9079C41.5393 51.7065 39.9728 53.4574 39.5427 53.9181C39.1127 54.3789 38.0376 56.7133 37.3311 58.372C36.6246 60.0307 35.7031 59.8157 35.8567 58.5563C36.0103 57.2969 38.5598 53.7952 39.1434 53.0888C39.727 52.3823 42.8909 47.8055 43.0444 47.4062C43.198 47.0068 42.7373 46.9147 42.338 47.4062C42.1733 47.6088 41.7373 48.2551 41.2385 48.9943C40.5274 50.0483 39.6888 51.2913 39.3277 51.7065C38.7134 52.413 35.9796 56.8976 35.9796 56.8976C35.9796 56.8976 35.611 57.8806 35.0274 57.5734C34.4438 57.2662 34.6281 56.4983 35.3038 55.669C35.6056 55.2986 36.808 53.5621 38.0791 51.7261C39.6544 49.451 41.3353 47.0232 41.5393 46.8533C41.6715 46.7431 41.9223 46.6368 42.2307 46.5062C42.7821 46.2727 43.5176 45.9611 44.0888 45.4096C44.3996 45.1095 44.7141 44.7384 45.0402 44.3537C45.6487 43.6356 46.2976 42.8701 47.0376 42.4301C47.2782 42.287 47.604 42.0078 48.0219 41.6497C49.5784 40.3158 52.4113 37.888 56.867 37.3311C62.5188 36.6246 68.6008 39.0819 71.0888 41.1707C71.0888 41.1707 71.2731 41.8772 70.6281 42C70.4931 42.0257 70.1607 41.8337 69.6284 41.5263Z" fill="black"/>
<path d="M43.9966 48.604C43.9966 48.604 46.3925 44.9795 48.942 43.2286C51.4915 41.4778 52.9659 40.2491 53.7645 39.9419C54.5631 39.6348 57.2969 38.2218 63.5017 39.6348C69.7065 41.0477 70.4437 43.075 70.1672 43.4743C69.8908 43.8737 68.9078 43.2593 67.4949 42.4914C66.0819 41.7235 63.4096 40.5255 61.2594 40.587C59.1092 40.6484 54.8703 42.1228 54.5939 42.3685C54.3174 42.6143 54.2867 41.8771 55.0239 41.7235C55.7611 41.5699 56.2218 40.9863 56.6826 40.9249C57.1433 40.8634 57.8191 40.7098 57.8191 40.3412C57.8191 39.9726 56.2833 40.0341 55.5154 40.3412C54.7474 40.6484 51.7679 42.3378 51.215 42.645C50.6621 42.9522 49.9249 43.1672 49.802 43.6279C49.6792 44.0887 48.7577 45.1638 48.2969 45.4095C47.8362 45.6552 45.5324 47.4675 45.2867 47.8976C45.0689 48.4004 44.5376 48.6913 43.9966 48.604Z" fill="black"/>
<path fill-rule="evenodd" clip-rule="evenodd" d="M52.6586 44.3345C51.9521 44.8566 52.3207 44.9488 52.3207 44.9488C53.3641 45.1636 53.7943 44.8879 54.9899 44.1215L54.9931 44.1194C56.191 43.3515 59.1091 42.2457 61.9965 42.3379C64.4347 42.4157 67.7929 44.6839 68.8896 45.4246C69.0917 45.5611 69.217 45.6457 69.2456 45.6553C69.4299 45.7167 69.9214 44.5495 69.2456 43.9659C68.5699 43.3822 64.6995 41.4164 61.3514 41.2321C58.0033 41.0478 53.3651 43.8123 52.6586 44.3345ZM50.3548 45.2252C49.0647 46.2082 48.7576 45.7474 48.7576 45.7474C48.7797 45.4377 50.0447 44.6499 50.8426 44.1531C51.1525 43.9601 51.3919 43.811 51.4606 43.7508C51.7064 43.5358 52.0443 44.0273 51.9214 44.0273C51.856 44.0273 51.7818 44.0882 51.5321 44.2936C51.3128 44.4739 50.958 44.7657 50.3548 45.2252Z" fill="black"/>
<path d="M56.0684 44.7646C55.9977 44.7452 55.9444 44.687 55.9313 44.615C55.9182 44.5429 55.9476 44.4697 56.0069 44.4267C57.9974 43.0852 60.447 42.6086 62.7953 43.1059C66.9421 43.9966 68.6622 45.9625 68.7544 46.4233C68.8465 46.884 68.6929 47.9591 68.0786 47.7441C67.4643 47.5291 65.4677 44.4881 62.2424 44.2117C59.14 43.9352 58.4335 45.3175 56.0684 44.7646Z" fill="black"/>
<path fill-rule="evenodd" clip-rule="evenodd" d="M60.3379 45.5017L59.9693 45.3789C59.9079 45.3482 59.9386 45.2867 59.9693 45.2867C60.4915 45.1639 62.2423 44.826 63.8396 45.4096C64.9753 45.8786 66.0006 46.5796 66.8499 47.4676C66.8801 47.4975 66.8861 47.5442 66.8642 47.5806C66.8423 47.6171 66.7983 47.6339 66.7577 47.6212L60.3379 45.5017ZM37.9761 61.1673C37.9761 61.1673 37.7918 61.7509 37.2697 61.3209C36.7978 60.9323 37.0282 60.3431 37.213 59.8705L37.213 59.8705L37.213 59.8703C37.2327 59.82 37.2519 59.7709 37.2697 59.7236C37.454 59.2321 38.8669 56.3447 39.2048 56.0069C39.5427 55.669 40.8021 54.1639 40.8021 53.826C40.8021 53.4881 41.14 54.7782 39.8499 56.7441C39.2154 57.7592 39.0396 58.3894 38.8615 59.0279C38.6947 59.626 38.5258 60.2314 37.9761 61.1673ZM38.5598 63.1024C38.8976 63.5017 39.0819 63.1024 39.0819 63.1024C39.4679 62.4826 39.7871 61.8237 40.0342 61.1366C40.5063 59.9701 40.4762 58.6279 40.4661 58.177C40.465 58.1292 40.4642 58.0914 40.4642 58.0649C40.4642 57.7884 40.4335 56.8362 40.157 57.2662C40.0072 57.4993 39.7762 58.2376 39.5324 59.0166C39.3264 59.675 39.1113 60.3625 38.9284 60.7987C38.529 61.7509 38.2219 62.7031 38.5598 63.1024ZM40.6792 64.9761C40.6792 64.9761 40.3106 65.5905 39.8499 64.8533C39.5302 64.3466 39.5302 63.7013 39.8499 63.1946C39.9243 63.0606 40.0132 62.7823 40.099 62.5135C40.1902 62.2278 40.278 61.9529 40.3413 61.8738C40.4642 61.7202 40.6178 62.0888 40.6792 62.5495C40.7122 62.797 40.8072 63.0621 40.8881 63.2879C40.9578 63.4825 41.0171 63.6479 41.0171 63.7475C41.0171 63.9625 40.9557 64.669 40.6792 64.9761ZM41.3243 65.2219C41.4307 65.3722 41.5136 65.538 41.57 65.7133C41.6073 65.875 41.6073 66.0431 41.57 66.2048C41.5086 66.512 41.2628 66.8499 41.2321 66.5734C41.2181 66.4478 41.1407 66.3538 41.0633 66.2599C40.9704 66.1472 40.8775 66.0345 40.8942 65.8669C40.9249 65.5598 41.2321 65.1604 41.3243 65.2219ZM42.5222 56.4983C42.828 54.7745 43.568 53.1571 44.6724 51.7987C46.454 49.7099 47.2833 49.372 47.2833 49.372C47.2833 49.372 47.529 49.3106 47.4062 49.8021C47.3298 50.1076 46.9449 50.6622 46.6276 51.1194L46.6276 51.1194L46.6276 51.1195C46.4344 51.3978 46.2663 51.6401 46.2082 51.768C46.1341 51.931 45.8381 52.273 45.5518 52.6039C45.2448 52.9586 44.9488 53.3006 44.9488 53.3959C44.9488 53.5033 45.1155 53.496 45.2668 53.4894C45.3754 53.4847 45.4761 53.4803 45.5017 53.5188C45.5092 53.53 45.5189 53.5416 45.5297 53.5545C45.6081 53.6484 45.7447 53.812 45.5017 54.3789C45.4428 54.5164 45.3476 54.7279 45.2339 54.9803C44.8144 55.9121 44.1436 57.4017 44.1195 57.7884C44.0888 58.2799 42.4915 61.9659 42.3379 61.9659C42.1843 61.9659 41.8464 61.9352 41.8772 60.7987C41.9079 59.6621 43.5973 55.3925 44.058 54.686C44.1307 54.5746 44.1927 54.4807 44.2448 54.4018C44.4255 54.1282 44.4877 54.0339 44.4667 54.0085C44.4557 53.9952 44.4216 54.0009 44.3696 54.0095L44.3652 54.0103C44.1809 54.041 43.0444 55.2697 42.8908 56.1297C42.7372 56.9898 42.5222 56.4983 42.5222 56.4983ZM45.5017 57.1741C46.3925 57.2355 46.8226 56.2219 46.8226 56.2219C46.8226 56.2219 47.4062 53.9796 47.4983 53.3038C47.5738 52.75 48.2889 51.3709 48.7305 50.5192C48.8278 50.3317 48.9118 50.1698 48.9727 50.0478C49.115 49.7633 49.3117 49.5224 49.4803 49.3158C49.7122 49.0317 49.891 48.8127 49.8021 48.6348C49.6485 48.3277 48.727 48.6963 48.3891 49.0034C48.0512 49.3106 46.3925 52.9659 46.1775 53.9181C46.1109 54.213 45.9354 54.6315 45.7512 55.0706C45.3405 56.0498 44.8868 57.1317 45.5017 57.1741Z" fill="black"/>
<path d="M45.9624 58.372C46.0209 58.2215 46.0144 58.0536 45.9445 57.9081C45.8747 57.7626 45.7477 57.6526 45.5938 57.604C45.0102 57.3583 44.9795 57.5426 44.703 58.0034C44.4266 58.4641 42.645 62.7645 42.645 63.4095C42.645 64.0546 42.8293 65.2525 43.0443 65.4368C43.2594 65.6211 43.4744 65.2832 43.4744 64.8225C43.5473 64.2562 43.782 63.723 44.1501 63.2866C44.5207 62.7722 44.6547 62.1243 44.5187 61.5051C44.3959 60.7679 45.5631 59.5699 45.5631 59.5699C45.5681 60.4316 45.5271 61.2929 45.4402 62.1501C45.3174 62.918 44.5187 63.5324 44.3344 63.8703C44.1501 64.2081 44.058 65.529 43.9044 65.9283C43.7517 66.415 43.7201 66.9317 43.8123 67.4334C43.9044 67.8327 44.1501 68.8157 44.3037 68.1092C44.4573 67.4027 45.0102 65.3139 45.1638 65.3447C45.3174 65.3754 45.2867 67.6484 45.1945 68.1092C45.1024 68.5699 44.9795 70.8122 44.9795 71.0887C44.9795 71.3651 44.1501 72.6245 43.9966 73.0853C43.843 73.546 42.9215 75.2354 42.9215 75.3276C42.9215 75.4197 43.843 75.3276 44.4266 74.8668C44.8733 74.4782 45.14 73.9226 45.1638 73.331C45.1638 72.9624 45.1024 72.0716 45.3174 71.5494C45.5324 71.0273 46.0853 69.7986 46.1774 69.3071C46.2544 68.0489 46.2544 66.7872 46.1774 65.529C46.116 64.8225 46.2696 61.843 46.4846 61.2286C46.6996 60.6143 46.7303 60.3071 46.8839 60.3071C47.0375 60.3071 46.9454 62.1808 46.8839 62.7645C46.8225 63.3481 46.6689 65.2525 46.6689 65.529C46.4062 67.8773 46.7774 70.2532 47.744 72.4095C47.744 72.4095 47.8976 73.0853 48.6348 72.6245C49.372 72.1638 48.2969 70.1058 48.1126 69.5221C47.9283 68.9385 47.314 65.8976 47.529 65.4675C47.744 65.0375 48.9727 69.7064 49.0034 70.1672C49.0341 70.6279 49.1877 72.0716 49.4334 72.1023C49.6791 72.1331 50.6928 71.5187 50.6928 71.3959C50.6916 71.0684 50.5955 70.7484 50.4164 70.4744C50.1399 70.0136 48.6655 66.2354 48.389 63.1023C48.1126 59.9692 48.6041 54.6245 48.8498 54.0716C49.0955 53.5187 50.232 51 50.5085 50.6006C50.785 50.2013 51.5836 48.5426 51.7372 48.4812C51.8908 48.4197 52.0443 48.4197 52.0443 48.604C51.8565 49.2415 51.6309 49.8672 51.3686 50.4778C51.1843 51 50.2013 52.5665 50.017 53.0887C49.4556 54.7481 49.1047 56.4715 48.9727 58.2184C48.6962 60.9829 49.3413 65.6518 49.5256 66.5733C49.7099 67.4948 50.8771 70.6279 51.5222 70.9044C52.1672 71.1808 52.7201 70.3515 52.628 70.1979C52.5358 70.0443 51.1843 67.587 50.8771 66.5733C50.5699 65.5597 50.017 63.1331 50.1092 62.5802C50.2013 62.0273 50.9078 67.1877 53.3344 69.8907C53.3344 69.8907 53.6416 70.075 54.1945 69.7064C54.7474 69.3378 54.7167 69.0307 54.1945 68.4471C53.6723 67.8634 51.8908 64.4232 51.645 63.5324C51.3993 62.6416 50.3242 59.6928 50.2628 59.6006C50.1451 58.5561 50.1865 57.4997 50.3856 56.4675C50.6621 55.1774 51.0614 53.3651 51.0921 52.8737C51.1228 52.3822 51.9215 51.2764 52.1058 51.0307C52.2901 50.7849 52.7201 49.6177 52.9351 48.7883C53.1501 47.959 53.5802 47.4061 53.2116 47.3447C52.843 47.2832 51.4914 47.4982 51.2457 47.7747C51 48.0511 50.017 48.6348 47.9283 53.3959C47.9283 53.3959 47.3447 54.5017 47.3447 55.1467C47.3443 55.9821 47.087 56.7971 46.6075 57.4812C46.4324 57.8051 46.2156 58.1046 45.9624 58.372Z" fill="black"/>
<path fill-rule="evenodd" clip-rule="evenodd" d="M55.6382 47.4062C55.7611 47.5291 55.3004 48.082 55.3004 48.082C55.3004 48.082 54.2867 50.3243 54.041 50.7236C53.7952 51.1843 52.2594 54.3482 52.5973 55.6383C52.8901 56.7563 52.7677 57.9205 52.6698 58.8509C52.6548 58.9941 52.6403 59.1317 52.628 59.2628C52.5358 60.2458 53.8567 63.256 54.1024 63.6553C54.3481 64.0547 56.2526 67.4949 56.2526 67.4949L57.0205 68.3857C57.0205 68.3857 56.0376 69.5222 55.0239 68.3857C54.0103 67.2492 51.7065 61.8738 51.3379 59.2321C51.074 57.5512 51.0948 55.8379 51.3993 54.1639C51.4561 53.9083 51.7754 53.2132 52.1266 52.4484C52.5353 51.5584 52.9873 50.5741 53.1195 50.0785C53.4697 49.0503 53.9663 48.0778 54.5939 47.1912C54.8396 46.884 55.5154 47.2833 55.6382 47.4062ZM46.0356 71.0929C46.1567 71.0064 46.3072 70.9718 46.4539 70.9966C47.0376 70.9966 47.2219 71.7645 47.2219 72.2867C47.1835 72.847 46.9561 73.3777 46.5768 73.7919C46.2389 74.1912 45.5324 74.3755 45.4403 74.314C45.39 74.2805 45.477 74.0363 45.5715 73.7714C45.6499 73.5513 45.7335 73.3169 45.7475 73.1775C45.7258 72.6034 45.7463 72.0285 45.8089 71.4574C45.833 71.3106 45.9146 71.1794 46.0356 71.0929Z" fill="black"/>
<path d="M54.471 54.8396C54.4933 54.3476 54.5864 53.8614 54.7474 53.3959C54.9624 52.7816 55.2082 51.7679 54.7474 51.5222C54.2867 51.2764 53.488 51.4607 53.488 53.1809C53.488 54.901 53.0887 56.8669 53.488 59.4471C53.8873 62.0273 55.8225 66.5734 58.4027 68.9078C60.9829 71.2423 60.5222 70.4437 61.7815 71.5802C63.0409 72.7167 69.43 73.9147 71.2116 73.6997C72.9931 73.4846 73.4539 72.6246 73.546 72.3174C73.6382 72.0102 73.3925 71.4881 73.1467 71.7338C72.901 71.9795 71.5802 73.1775 67.2491 72.2253C62.9181 71.273 61.7815 70.198 61.5358 69.9829C61.2901 69.7679 58.8634 67.2799 58.587 67.0341C58.3105 66.7884 55.5153 62.9795 55.5153 62.4266C55.5153 61.8737 59.1399 68.785 63.9624 70.628C68.785 72.471 70.5665 72.1638 71.488 71.8567C72.4095 71.5495 73.3617 71.273 73.3617 70.9352C73.3617 70.5973 73.331 69.9522 73.0239 69.9522C72.7167 69.9522 70.9044 71.0273 70.0443 70.9352C69.1843 70.843 67.9249 70.2901 66.7576 70.2901C65.5904 70.2901 63.1331 68.8464 62.5187 68.2628C61.9044 67.6792 58.6484 66.0205 55.5153 59.2935C55.4846 59.3242 54.3174 55.8532 54.471 54.8396Z" fill="black"/>
<path d="M62.9489 72.8089C62.9489 72.8089 61.6588 71.9488 61.413 71.9796C61.1673 72.0103 61.198 72.4403 61.2287 72.9011C61.2594 73.3618 61.4437 73.8533 61.7509 73.9147C62.0581 73.9762 62.8874 73.7919 63.0717 73.9147C64.5536 74.6617 66.1754 75.0907 67.8328 75.1741C70.3209 75.2663 70.8123 75.3584 71.5188 75.297C72.2253 75.2355 73.4233 74.8055 73.5154 74.5291C73.6076 74.2526 73.5461 73.3925 73.3004 73.3925C73.0547 73.3925 72.7782 74.6212 68.0786 74.0683C63.4403 73.454 62.9489 72.8089 62.9489 72.8089Z" fill="black"/>
<path d="M63.5631 74.7133C63.5631 74.7133 62.6109 74.0375 62.3344 74.314C62.058 74.5904 61.9966 75.4198 62.9488 75.6348C63.901 75.8498 66.0512 76.4642 66.5426 76.5563C67.5056 76.7361 68.4814 76.8388 69.4607 76.8635C70.5051 76.8635 71.5495 76.372 71.9795 76.372C72.4095 76.372 73.6996 76.372 73.7611 76.0956C73.7679 75.7715 73.7159 75.4488 73.6075 75.1433C73.5768 75.0205 73.2082 75.0512 72.9624 75.1741C72.1702 75.4875 71.3462 75.7141 70.5051 75.8498C69.095 75.9328 67.68 75.8295 66.2969 75.5427C65.3686 75.3259 64.4554 75.0489 63.5631 74.7133Z" fill="black"/>
<path d="M72.809 77.3857C72.809 77.3857 70.8431 78.7372 65.3755 77.8771C59.9079 77.0171 61.3209 74.8669 61.4438 74.959C61.5666 75.0512 62.0274 75.6962 62.3653 75.8191C62.7032 75.942 66.7885 77.2935 67.925 77.3242C69.0615 77.355 70.5359 77.2935 71.181 77.0785C71.826 76.8635 72.6861 76.3106 73.024 76.7713C73.3619 77.1707 72.809 77.3857 72.809 77.3857Z" fill="black"/>
<path d="M62.1502 77.4471C62.1502 77.4471 61.6587 77.1092 61.6587 77.4471C61.7075 77.9396 62.0104 78.3708 62.4573 78.5836C62.8864 78.7997 63.3591 78.9153 63.8396 78.9215C64.4207 78.9679 64.9857 79.1353 65.4983 79.4129C65.959 79.628 67.587 80.273 70.413 79.7508C73.2389 79.2286 73.9454 78.5529 74.0682 78.3686C74.1606 78.0893 74.1606 77.7878 74.0682 77.5085C74.0068 77.2013 73.7918 77.0785 73.5461 77.3242C73.3003 77.5699 71.6416 79.0443 67.587 78.7679C63.5324 78.4914 62.1502 77.4471 62.1502 77.4471Z" fill="black"/>
<path d="M64.9147 79.6587C64.9147 79.6587 64.5768 79.1673 63.6553 79.413C62.7338 79.6587 66.0205 81.4096 66.2048 81.5632C66.3891 81.7167 66.6041 81.8089 67.4028 81.7167C68.2014 81.6246 70.4744 81.5017 71.2731 81.3174C72.0717 81.1331 73.669 80.6724 74.1604 80.058C74.6519 79.4437 74.4676 79.0444 74.0069 79.1058C73.5461 79.1673 70.7202 80.9181 67.8942 80.6724C65.0683 80.4266 64.9147 79.6587 64.9147 79.6587Z" fill="black"/>
<path fill-rule="evenodd" clip-rule="evenodd" d="M58.1877 47.7747C58.037 47.9983 57.8618 48.2043 57.6655 48.3891C57.1433 49.0034 56.4675 50.7542 56.4061 51.1843C56.3447 51.6143 56.529 52.8123 56.7133 53.5495C56.7956 53.8789 56.9639 54.834 57.1467 55.872C57.373 57.1569 57.6217 58.5688 57.7576 59.0785C57.9009 59.6158 58.3262 60.4979 58.6681 61.2069C58.9125 61.7138 59.1143 62.1322 59.1399 62.273C59.2013 62.6109 61.9658 65.4676 62.3344 65.6211C62.4748 65.6796 62.9002 66.041 63.4327 66.4933C64.2984 67.2286 65.4469 68.2042 66.1126 68.5085C67.1877 69 70.4129 69.5836 71.0273 69.6143C71.6416 69.645 71.2116 70.0443 71.2116 70.0443C68.2637 70.6416 65.2029 69.8989 62.8566 68.017C56.8361 63.2867 55.7303 58.8942 55.2389 54.6246C54.7474 50.3549 56.3139 47.2833 56.7747 47.1911C57.2354 47.099 58.1877 47.6826 58.1877 47.7747ZM67.5255 82.4539C67.4641 82.1775 68.8464 82.1467 68.8464 82.1467C70.7663 82.3741 73.1226 81.1263 74.0697 80.6248C74.2742 80.5165 74.413 80.443 74.4675 80.4266C74.7747 80.3344 74.8976 80.8259 74.8976 81.256C74.8976 81.5683 74.5896 81.7024 74.1503 81.8937C73.9848 81.9657 73.8007 82.0459 73.6075 82.1467C73.0369 82.4444 70.6831 82.8624 69.475 83.0768C69.1873 83.1279 68.9645 83.1675 68.8464 83.1911C68.2956 83.244 67.7696 82.9504 67.5255 82.4539ZM70.075 84.0205C70.075 83.8669 71.5802 83.3754 71.5802 83.3754C72.0716 83.3447 74.1604 82.2082 74.3754 82.0853C74.5803 81.9923 74.8155 81.9923 75.0204 82.0853C75.2078 82.4217 75.2831 82.809 75.2354 83.1911C75.1909 83.4583 74.4846 83.6287 73.8887 83.7724C73.6626 83.8269 73.4524 83.8776 73.3003 83.9283C73.0776 84.0025 72.7703 84.1614 72.4504 84.3268C71.9761 84.5721 71.4744 84.8315 71.1808 84.8498C70.6894 84.8805 70.075 84.174 70.075 84.0205ZM73.0238 85.7099C72.6845 85.875 72.2881 85.875 71.9488 85.7099C71.3651 85.4334 71.5802 85.0955 72.0716 84.8498C72.3762 84.6975 72.846 84.5098 73.2396 84.3526C73.4811 84.2561 73.694 84.171 73.8225 84.1126C74.1604 83.959 75.0819 83.6211 75.2354 83.744C75.3973 83.9132 75.5043 84.1273 75.5426 84.3583C75.5426 84.5119 73.0238 85.7099 73.0238 85.7099ZM72.9317 86.4778C72.9317 86.6007 73.8532 87.0921 73.8532 87.0921C74.2218 87.1536 76.2184 86.6314 76.2184 86.1706C76.2184 85.7099 75.7269 85.2491 75.7269 85.2491C75.7269 85.2491 73.8532 86.017 73.5767 86.017C73.2981 86.0529 73.056 86.2259 72.9317 86.4778ZM76.2184 88.1058C75.9545 88.1557 75.6836 88.1557 75.4197 88.1058C75.2726 88.0567 75.0993 87.9207 74.9509 87.8041C74.8205 87.7017 74.7093 87.6143 74.6518 87.6143C74.529 87.6143 74.9283 87.3686 75.2354 87.3379C75.4251 87.3189 75.6966 87.2414 75.9201 87.1776L75.9201 87.1776C76.0586 87.1381 76.1786 87.1039 76.2491 87.0921C76.4334 87.0614 76.6791 87.3071 76.6791 87.6143C76.6791 87.9215 76.2184 88.1058 76.2184 88.1058Z" fill="black"/>
<path d="M59.7851 48.8498C59.7851 48.8498 60.338 48.6962 60.3687 48.5119C60.3994 48.3276 60.3073 47.8976 59.5701 47.7747C58.8329 47.6519 58.1264 48.1741 57.6349 49.4949C57.1434 50.8157 57.3585 53.6109 58.0035 55.3311C58.6486 57.0512 58.28 58.4334 59.4779 60.7372C60.6759 63.041 60.6451 63.041 61.1059 63.4096C61.5667 63.7782 63.7783 65.9283 64.1161 66.2662C64.454 66.6041 66.4199 67.8942 66.7885 67.8942C67.1571 67.8942 67.3414 67.2799 67.3107 66.9727C67.28 66.6655 67.2492 66.5119 66.7271 66.4812C66.2049 66.4505 65.4677 65.5904 65.4677 65.5904C65.4677 65.5904 62.6725 62.9488 62.4574 62.8259C62.2424 62.7031 59.9694 60.1229 59.9694 59.8157C59.9694 59.5085 60.0001 59.0785 60.1844 59.3242C60.3687 59.57 61.6895 61.4744 62.5496 62.273C63.4097 63.0717 66.1434 65.3754 66.7885 65.6519C67.4335 65.9283 67.7407 65.959 67.8021 65.4369C67.8636 64.9147 68.1707 64.6689 68.4472 64.8225C68.7236 64.9761 70.7817 66.1741 71.4267 66.0819C72.0718 65.9898 73.024 65.0375 73.3312 65.099C73.6383 65.1604 72.7783 66.1126 72.5018 66.2662C72.2254 66.4198 72.7168 66.7577 72.809 66.8191C73.1575 67.0083 73.5872 66.9592 73.8841 66.6962C74.3755 66.2662 74.437 65.6826 74.0991 64.9147C73.7612 64.1468 73.669 62.8567 73.5769 62.6109C73.4847 62.3652 73.3619 61.9966 73.1161 62.6109C72.8704 63.2253 72.4097 64.4846 70.8124 64.5461C68.9172 64.7007 67.0273 64.1902 65.4677 63.1024C63.5018 61.8123 61.1366 60.0307 59.2936 54.7782C57.4506 49.5256 59.7851 48.8498 59.7851 48.8498Z" fill="black"/>
<path fill-rule="evenodd" clip-rule="evenodd" d="M72.8703 60.0307C72.7039 59.9512 72.5052 59.9885 72.3789 60.1228C72.2867 60.2764 72.1639 59.5699 72.3482 58.8942C72.5325 58.2184 72.3789 57.2048 72.1639 57.2662C72.1219 57.2782 72.0248 57.3886 71.8821 57.5509C71.294 58.22 69.9302 59.7713 68.4471 58.9556C66.6041 57.942 64.3004 55.0546 63.6553 53.7645C63.5971 53.6481 63.5377 53.5303 63.4778 53.4115L63.4778 53.4114C62.8737 52.2134 62.2227 50.9224 62.3345 50.1399C62.3345 50.1399 62.4267 49.4641 62.4574 49.2798C62.4881 49.0955 62.0888 48.3583 61.5973 48.5426C61.1058 48.7269 59.9079 49.4027 59.7543 49.8942C59.7192 50.0064 59.6665 50.1171 59.609 50.2379C59.4147 50.6458 59.1654 51.1691 59.355 52.2594C59.5438 53.3452 60.0229 54.6669 60.3601 55.5971C60.4617 55.8773 60.5504 56.122 60.6144 56.314C60.8908 57.1433 61.7509 59.017 62.6724 59.8464C63.5939 60.6757 65.4062 62.3037 66.2048 62.6723C66.3381 62.7338 66.4961 62.8201 66.6771 62.919L66.6771 62.919C67.5809 63.4125 69.0568 64.2183 70.8738 63.8088C73.0546 63.3174 73.0854 61.1365 73.0854 60.9215C73.0648 60.6145 72.9921 60.3133 72.8703 60.0307ZM63.001 58.9597L63.001 58.9597L63.001 58.9597C62.646 58.4248 62.0835 57.5771 61.9966 57.5119C62.58 57.9452 63.1247 58.4282 63.6246 58.9556C64.2389 59.6621 64.7918 60.4914 64.7918 60.7372C64.7918 60.7372 63.3789 59.5085 63.2867 59.3856C63.2597 59.3496 63.1482 59.1816 63.001 58.9597ZM67.2001 61.0627C67.6561 61.4029 68.344 61.9161 69.7372 61.9658C71.4574 62.0273 71.8874 61.1672 71.7953 61.0443C71.7031 60.9215 71.3652 60.9215 71.0581 61.0443C71.0381 61.0523 71.0142 61.0627 70.9864 61.0747C70.5882 61.247 69.4002 61.761 67.6485 60.5836C65.7748 59.3242 63.6553 57.0205 63.4096 56.4983C63.3598 56.3924 63.2442 56.1967 63.0922 55.9393C62.4946 54.9276 61.3333 52.9615 61.3823 51.7372C61.3144 51.4135 61.2733 51.0847 61.2594 50.7542C61.2594 50.5699 60.6758 50.8771 60.768 51.2457C60.8601 51.6143 61.7509 54.7781 62.0888 55.4232C62.4267 56.0682 63.2253 56.959 64.2389 58.0034C64.6467 58.4235 65.0842 58.9231 65.4916 59.3883C66.097 60.0795 66.6359 60.6948 66.9113 60.86C66.9989 60.9126 67.0931 60.9829 67.2001 61.0627Z" fill="black"/>
<path fill-rule="evenodd" clip-rule="evenodd" d="M71.9489 55.7919C71.8426 55.7919 71.6863 55.9008 71.5291 56.0105C71.2772 56.1862 71.0226 56.3637 70.9659 56.099C70.9217 55.8926 71.019 55.573 71.1321 55.2013C71.2547 54.7985 71.3959 54.3347 71.3959 53.8874C71.3959 53.0274 71.2116 51.3994 70.8123 50.6007C70.413 49.8021 70.0137 49.0956 69.3072 49.5256C68.6626 49.918 68.913 50.2337 69.1952 50.5893C69.2222 50.6234 69.2496 50.6579 69.2765 50.6929C69.3005 50.7241 69.3274 50.7584 69.3565 50.7955C69.6992 51.2326 70.3516 52.0647 70.3516 53.0274C70.3516 54.0717 70.198 55.4233 69.7987 55.5154C69.3994 55.6076 68.4471 55.3004 67.5871 54.6246C66.6684 53.9366 65.8149 53.1654 65.0376 52.3209C64.7611 51.9216 64.2082 51.0001 64.3618 50.8465C64.5154 50.6929 64.7611 50.6315 65.0069 51.0615C65.2526 51.4915 66.4506 52.7509 66.7577 53.0581C67.2711 53.5713 67.8148 54.0534 68.3857 54.5018C68.429 54.5306 68.4736 54.5621 68.5191 54.5941C68.8609 54.835 69.2548 55.1126 69.5529 54.6246C69.8908 54.0717 69.9523 52.7509 69.6758 52.2594C69.5981 52.1213 69.5059 51.9541 69.41 51.7802L69.4099 51.7801L69.4099 51.7801C69.1646 51.3354 68.8954 50.8475 68.785 50.6929L68.7737 50.6769C68.6193 50.4603 68.373 50.1145 67.8635 50.3243C67.3413 50.5393 67.3721 50.9693 67.5564 51.1229C67.5834 51.1455 67.6244 51.1773 67.6749 51.2165L67.6749 51.2165C67.9678 51.444 68.579 51.9188 68.6314 52.2594C68.6426 52.3319 68.6578 52.4145 68.6734 52.4991C68.7436 52.8808 68.8214 53.3039 68.57 53.0274C68.4557 52.9016 68.2732 52.6694 68.0781 52.421C67.7491 52.0024 67.3842 51.5379 67.2492 51.4608C67.0342 51.3379 65.5598 50.4164 65.5598 50.4164C65.5598 50.4164 63.7782 49.6792 63.6553 49.4949C63.5325 49.3106 63.1639 49.2799 63.4403 50.3243C63.4899 50.5117 63.5366 50.706 63.5841 50.9043L63.5841 50.9043L63.5841 50.9043C63.8017 51.8108 64.0389 52.7989 64.669 53.5803C65.0995 54.0785 65.4143 54.6659 65.5905 55.3004C65.7441 55.7611 67.2799 58.0342 69.2458 58.5257C71.0448 58.9754 71.7891 57.1101 71.9731 56.6489C71.9902 56.6061 72.0025 56.5754 72.0103 56.5598C72.1024 56.3755 72.2253 55.7919 71.9489 55.7919ZM70.0751 57.1741C70.0349 57.4757 69.6527 57.3694 69.29 57.2685C69.0985 57.2152 68.9124 57.1635 68.785 57.1741C68.4164 57.2048 67.7407 56.5905 67.3106 56.099C66.8806 55.6076 66.5427 55.0854 66.6656 55.0239C66.7256 54.994 66.888 55.1396 67.1029 55.3324C67.3283 55.5344 67.6112 55.7882 67.8942 55.9454L67.9849 55.9959L67.9849 55.9959C68.5256 56.2974 69.2107 56.6793 69.6758 56.6212C70.1673 56.5598 70.0751 57.1741 70.0751 57.1741ZM73.884 67.5257C73.884 67.3414 74.2833 66.8806 74.2833 66.8806C74.6125 66.8046 74.6286 67.1252 74.6413 67.3778C74.644 67.4317 74.6465 67.4825 74.6519 67.5257C74.6826 67.7714 74.6826 67.9557 74.4676 68.1093C74.2526 68.2629 74.099 68.1707 74.099 67.9864C74.099 67.8943 74.0453 67.8251 73.9915 67.756C73.9378 67.6869 73.884 67.6178 73.884 67.5257ZM74.6826 68.5086C74.6826 68.5086 74.2833 68.7543 74.2833 69.0615C74.2678 69.3172 74.2678 69.5737 74.2833 69.8294C74.3206 69.9331 74.4189 70.0023 74.5291 70.0023C74.6392 70.0023 74.7376 69.9331 74.7748 69.8294C74.7976 69.7839 74.8214 69.7415 74.8443 69.7007L74.8443 69.7007C74.9451 69.5215 75.0285 69.3732 74.9284 69.1229C74.8807 69.0276 74.87 68.8816 74.8605 68.7509C74.8454 68.5447 74.8331 68.3769 74.6826 68.5086ZM74.4676 71.6724C74.4369 71.8874 74.9898 71.4881 74.9898 71.4881L75.0318 71.4631C75.3157 71.2943 75.4978 71.1861 75.2048 70.6588C74.9894 70.271 74.925 70.3365 74.8423 70.4208C74.807 70.4567 74.7684 70.496 74.7134 70.5052C74.5673 70.5295 74.5177 71.1134 74.4881 71.4616L74.4881 71.4617L74.4881 71.4618C74.4804 71.5529 74.474 71.6278 74.4676 71.6724ZM75.4506 72.1946C75.4506 72.1946 75.6041 71.611 75.1741 71.9796C74.9939 72.134 74.8676 72.2022 74.784 72.2473C74.6681 72.3099 74.6341 72.3283 74.6519 72.471C74.6826 72.7168 74.7748 73.1468 75.0205 73.0854C75.048 73.0762 75.081 73.0705 75.1165 73.0643C75.3194 73.0289 75.6074 72.9787 75.4506 72.1946ZM75.0512 74.1605C74.9898 73.7611 75.6963 73.4233 75.6963 73.4233C75.853 73.3253 75.8598 73.5273 75.8681 73.7741C75.8728 73.9143 75.8779 74.0688 75.9113 74.1912C76.0035 74.5291 75.7577 74.9591 75.6041 74.9591C75.4506 74.9591 75.1127 74.5598 75.0512 74.1605Z" fill="black"/>
<path fill-rule="evenodd" clip-rule="evenodd" d="M21.3584 60C21.3584 38.6588 38.6588 21.3584 60 21.3584C70.2492 21.356 80.0793 25.4263 87.3265 32.6736C94.5737 39.9208 98.6441 49.7509 98.6417 60C98.6417 81.3412 81.3412 98.6417 60 98.6417C38.6588 98.6417 21.3584 81.3412 21.3584 60ZM23.9079 60C23.9164 79.9247 40.0754 96.07 60 96.0615C69.5692 96.0607 78.7457 92.2569 85.5093 85.4876C92.2728 78.7183 96.0688 69.5385 96.0615 59.9693C96.053 40.0447 79.894 23.8994 59.9693 23.9079C40.0447 23.9164 23.8994 40.0754 23.9079 60Z" fill="black"/>
<path fill-rule="evenodd" clip-rule="evenodd" d="M15 60C15 35.1472 35.1472 15 60 15C84.8521 15.0017 104.998 35.1479 105 60C105 84.8528 84.8528 105 60 105C35.1472 105 15 84.8528 15 60ZM19.2082 60C19.2082 82.5287 37.4713 100.792 60 100.792C82.5245 100.782 100.782 82.5245 100.792 60C100.792 37.4713 82.5287 19.2082 60 19.2082C37.4713 19.2082 19.2082 37.4713 19.2082 60Z" fill="#151515"/>
</svg>
