<svg width="120" height="120" viewBox="0 0 120 120" fill="none" xmlns="http://www.w3.org/2000/svg">
<circle cx="60" cy="60" r="60" fill="#00688C"/>
<path fill-rule="evenodd" clip-rule="evenodd" d="M101 37.7631V85.2781L100.996 85.2819L59.9385 109L59.9347 108.996L19 85.2931V37.7894L59.9012 14.03L59.9571 14L101 37.7631ZM82.8326 77.6802L75.8349 73.6478L60.2145 82.7623C60.1224 82.8167 60.0082 82.8167 59.9161 82.7623L41.9943 72.3205L41.9869 54.1551L26.2433 45.0818L59.8042 25.3042C59.8317 25.2873 59.8662 25.2873 59.8937 25.3042L91.0638 43.2184L85.5511 46.424L59.9086 31.5918L37.1679 45.0105L45.0565 49.5659L59.9235 40.875L59.931 40.8675L78.0952 51.3094L78.0877 68.5937L93.5702 77.5058L93.5665 77.7683L59.9385 97.5046L28.7647 79.6129L34.2214 76.3998L59.8862 91.1983L82.8326 77.6802Z" fill="white"/>
<path d="M64.8805 57.0609V56.9334L64.8768 56.8509L64.8731 56.8059L64.8656 56.7122V56.6822L64.8544 56.581V56.5547L64.8395 56.4497V56.431L64.8246 56.3223V56.3073L64.8059 56.1948L64.8022 56.1873L64.7798 56.0748L64.7761 56.0636L64.75 55.9511V55.9436C64.7429 55.9057 64.7342 55.8682 64.7239 55.8311V55.8236L64.6903 55.7111V55.7074L64.6567 55.5874C64.6368 55.5108 64.6119 55.4357 64.5821 55.3624V55.3587L64.5374 55.2462C64.5237 55.2082 64.5088 55.1707 64.4926 55.1337L64.4441 55.0212L64.3957 54.9163L64.3434 54.8038L64.2912 54.6988L64.2315 54.5938C64.2112 54.5604 64.1913 54.5266 64.1719 54.4926V54.4888L64.1122 54.3914L64.1085 54.3876C64.0883 54.3557 64.0672 54.3244 64.0451 54.2939V54.2864L63.9816 54.1964C63.9816 54.1964 63.9816 54.1889 63.9742 54.1889L63.9108 54.0989L63.9033 54.0914C63.8809 54.0614 63.866 54.0314 63.8399 54.0014L63.8362 53.9939L63.7653 53.9077L63.7579 53.9002L63.6907 53.8177L63.6833 53.8102L63.6087 53.7315C63.6055 53.7282 63.603 53.7244 63.6012 53.7202L63.5303 53.6415C63.5272 53.6382 63.5247 53.6344 63.5229 53.6302L63.452 53.5553C63.4234 53.5265 63.3948 53.4978 63.3662 53.469L63.355 53.4578L63.2804 53.3828C63.2518 53.3578 63.2232 53.3328 63.1947 53.3078L63.1835 53.2966C63.158 53.2721 63.1319 53.2484 63.1051 53.2253L63.0939 53.2141C63.0685 53.192 63.0424 53.1708 63.0156 53.1503L63.0044 53.1428L62.9224 53.0754L62.9112 53.0679L62.8254 53.0041L62.8142 52.9966L62.7284 52.9329L62.7172 52.9254L62.6315 52.8654L62.6203 52.8616L62.5307 52.8017L62.5233 52.7942L62.43 52.7379H62.4226L62.3256 52.6779H62.3181L62.2174 52.6179H62.2137C59.7401 51.5678 56.8828 52.6668 55.7384 55.1086C54.5939 57.5504 55.57 60.4649 57.9505 61.7138L55.7872 71.6569H63.9705L61.7885 61.7213C63.6609 60.9339 64.8805 59.0967 64.8805 57.0609Z" fill="white"/>
</svg>
