<svg width="120" height="120" viewBox="0 0 120 120" fill="none" xmlns="http://www.w3.org/2000/svg">
<rect width="120" height="120" rx="60" fill="#1E1E1E"/>
<path opacity="0.4" d="M94.1353 72.5304C96.2144 76.0978 96.2235 80.5056 94.1589 84.0815C92.0944 87.6574 88.2727 89.8535 84.1437 89.8367C80.0147 89.8198 76.211 87.5926 74.1757 84L50.0197 42.1632C46.8521 36.6515 48.7524 29.6156 54.2641 26.448C59.7758 23.2805 66.8117 25.1807 69.9793 30.6924L94.1353 72.5304Z" fill="#4BDB4B"/>
<path opacity="0.8" d="M45.8291 84C42.6407 89.4679 35.6363 91.3364 30.1481 88.1831C24.6599 85.0298 22.7466 78.0375 25.8647 72.5292L50.0183 30.6936C52.0447 27.0827 55.8543 24.8384 59.9948 24.816C64.1354 24.7936 67.969 26.9966 70.0344 30.5853C72.0997 34.1741 72.0786 38.5956 69.9791 42.1644L45.8291 84Z" fill="#4BDB4B"/>
<path d="M69.9107 30.5772C69.7775 30.3504 69.6335 30.1332 69.4871 29.9184C69.4163 29.8152 69.3491 29.7096 69.2747 29.6088C69.1319 29.4132 68.9783 29.2284 68.8247 29.0448C68.7311 28.932 68.6411 28.8168 68.5427 28.7076C68.4035 28.554 68.2571 28.4112 68.1119 28.266C67.9667 28.1208 67.8575 28.0092 67.7231 27.8868C67.5887 27.7644 67.4615 27.666 67.3295 27.5568C67.1639 27.42 66.9995 27.282 66.8243 27.1536C66.7043 27.0648 66.5783 26.9844 66.4547 26.9016C66.2603 26.7696 66.0647 26.6388 65.8547 26.5176C65.8115 26.4924 65.7731 26.4624 65.7347 26.4372C65.6435 26.3844 65.5475 26.3448 65.4539 26.2944C65.2595 26.19 65.0639 26.088 64.8659 25.9956C64.6991 25.9164 64.5287 25.8456 64.3571 25.776C64.1855 25.7064 64.0223 25.6404 63.8531 25.5804C63.6539 25.51 63.4539 25.4452 63.2531 25.386C63.1043 25.3416 62.9567 25.2996 62.8067 25.266C62.5919 25.212 62.3747 25.1652 62.1575 25.1232C62.0099 25.0956 61.8611 25.0692 61.7135 25.0464C61.5011 25.0152 61.2887 24.99 61.0739 24.9696C60.9091 24.9536 60.7447 24.9416 60.5807 24.9336C60.3879 24.924 60.1947 24.9192 60.0011 24.9192C59.8103 24.9192 59.6207 24.9192 59.4299 24.9336C59.2631 24.942 59.0951 24.954 58.9271 24.9696C58.7171 24.99 58.5059 25.014 58.2971 25.0464C58.1459 25.0692 57.9947 25.0956 57.8447 25.1244C57.6287 25.1652 57.4147 25.212 57.2027 25.2648C57.0503 25.3032 56.8991 25.3464 56.7479 25.3908C56.5479 25.45 56.3479 25.514 56.1479 25.5828C55.9751 25.644 55.8035 25.7124 55.6331 25.782C55.4627 25.8516 55.2995 25.92 55.1363 25.9968C54.9335 26.0916 54.7331 26.196 54.5363 26.3028C54.4463 26.352 54.3539 26.3904 54.2651 26.442C54.2231 26.466 54.1859 26.4948 54.1451 26.5188C53.9339 26.6388 53.7311 26.778 53.5319 26.9136C53.4119 26.9928 53.2919 27.0696 53.1803 27.1536C52.9967 27.2892 52.8203 27.4332 52.6475 27.5784C52.5275 27.6792 52.4075 27.7764 52.2875 27.8832C52.1399 28.0164 52.0019 28.158 51.8627 28.2972C51.7235 28.4364 51.5891 28.56 51.4691 28.6968C51.3491 28.8336 51.2519 28.9536 51.1439 29.0832C51.0071 29.25 50.8679 29.4168 50.7395 29.592C50.6483 29.712 50.5667 29.8428 50.4815 29.9688C50.3519 30.1596 50.2235 30.3528 50.1047 30.5544C47.9872 34.123 47.956 38.5555 50.0231 42.1536L60.0035 59.4408L69.9827 42.1536C72.0454 38.5635 72.0179 34.1414 69.9107 30.5772Z" fill="#4BDB4B"/>
</svg>
