<svg width="120" height="120" viewBox="0 0 120 120" fill="none" xmlns="http://www.w3.org/2000/svg">
<circle cx="60" cy="60" r="60" fill="#EDF0F4"/>
<path d="M91.0522 52.8788C91.3154 47.3622 87.4622 43.7004 83.1063 41.1874L80.2822 57.809C81.4621 57.6451 82.6549 58.0033 83.5491 58.7903C84.5984 59.8198 84.6917 61.4788 83.7645 62.6196C86.4929 62.1649 90.741 59.5442 91.0522 52.8788Z" fill="url(#paint0_linear_1_3827)"/>
<path fill-rule="evenodd" clip-rule="evenodd" d="M53.9557 33.5526L50.6051 30.1661C55.6789 29.5438 69.0696 30.3336 82.0294 38.459C82.148 39.1841 82.148 39.9237 82.0294 40.6488L83.1184 41.1993C84.877 44.1164 85.386 47.6192 84.5304 50.9162C83.4056 55.4156 81.4789 57.4021 80.6173 57.809C78.8822 57.809 75.9264 58.8142 74.9691 63.2657C74.0118 67.7173 72.1689 68.6866 71.3791 68.6148L52.2325 68.8422L39.5958 61.399L37.7769 45.9979L41.3668 41.2113L47.7809 35.9699L52.3522 34.1031L53.9557 33.5526ZM76.5846 39.859C76.044 40.4321 75.4134 40.9131 74.7178 41.2831C69.7995 40.23 68.0165 37.6931 68.0165 37.6931C72.1988 37.5682 76.336 38.5859 79.9831 40.6369C78.8726 40.2884 77.7362 40.0283 76.5846 39.859Z" fill="url(#paint1_linear_1_3827)"/>
<path fill-rule="evenodd" clip-rule="evenodd" d="M74.8014 63.2657C71.1588 65.0176 67.164 65.914 63.122 65.8864C51.0477 65.8864 41.271 58.2996 41.271 48.9537C41.271 42.037 46.6081 36.1015 54.2548 33.4689C39.7033 34.3065 28 45.9979 28 60.4297C28 77.0872 42.8506 90.8488 61.1356 90.8488C74.0744 90.7417 85.9459 83.6527 92.177 72.3125C83.9798 74.1554 74.2988 70.6491 74.8014 63.2657Z" fill="url(#paint2_linear_1_3827)"/>
<defs>
<linearGradient id="paint0_linear_1_3827" x1="79.8408" y1="47.7346" x2="86.0602" y2="66.5477" gradientUnits="userSpaceOnUse">
<stop stop-color="#01E8F7"/>
<stop offset="1" stop-color="#00C2FF"/>
</linearGradient>
<linearGradient id="paint1_linear_1_3827" x1="32.4986" y1="43.2537" x2="46.8563" y2="76.8504" gradientUnits="userSpaceOnUse">
<stop stop-color="#01E8F7"/>
<stop offset="1" stop-color="#00B3EC"/>
</linearGradient>
<linearGradient id="paint2_linear_1_3827" x1="87.7501" y1="64.2915" x2="89.1565" y2="13.7586" gradientUnits="userSpaceOnUse">
<stop stop-color="#01E8F7"/>
<stop offset="1" stop-color="#00C2FF"/>
</linearGradient>
</defs>
</svg>
