<svg width="120" height="120" viewBox="0 0 120 120" fill="none" xmlns="http://www.w3.org/2000/svg">
<path fill-rule="evenodd" clip-rule="evenodd" d="M60 0C93.132 0 120 26.868 120 60C120 93.132 93.132 120 60 120C26.868 120 0 93.132 0 60C0 26.868 26.868 0 60 0Z" fill="#263145"/>
<path fill-rule="evenodd" clip-rule="evenodd" d="M63.6836 21.24H55.2956L20.6396 81.6H82.2356H82.4156L77.9996 74.4H33.1196L63.6836 21.24Z" fill="#CCD9E2"/>
<path fill-rule="evenodd" clip-rule="evenodd" d="M94.236 88.68L98.52 81.42L63.564 21.24L33 74.4H41.4L63.684 35.58L94.236 88.68Z" fill="#AAAAAA"/>
<path fill-rule="evenodd" clip-rule="evenodd" d="M20.6396 81.6L24.9236 88.68H94.2356L63.6836 35.412L59.4596 42.852L82.1276 81.6H20.6396Z" fill="#5A5967"/>
</svg>
