<svg width="120" height="120" viewBox="0 0 120 120" fill="none" xmlns="http://www.w3.org/2000/svg">
<circle cx="60" cy="60" r="60" fill="#EDF0F4"/>
<path d="M30.6052 34.6455C30.6052 34.7101 30.6125 34.7736 30.6149 34.8382V34.4637C30.6113 34.5247 30.6052 34.5845 30.6052 34.6455Z" fill="#008C98"/>
<path d="M90.4691 34.4625C90.4691 34.4259 90.4691 34.3893 90.463 34.3539C90.3528 31.3462 87.8674 28.9733 84.8578 29.0024H84.8237H84.7883H65.1639L84.5162 75.1693H80.4654L64.9943 38.9074H56.1545L44.6451 66.0831H40.5943L53.7692 35.1665H63.5301L60.941 29.0085L36.5789 29.0159C36.4728 29.0098 36.3654 29 36.258 29C36.1507 29 36.0396 29.0098 35.931 29.0159C33.0625 29.1326 30.7578 31.4204 30.6199 34.288V34.654L30.6809 70.1204C30.5172 73.199 31.9146 76.1531 34.3986 77.9792L35.3991 78.5417L38.3017 71.4321H48.613L51.7438 64.3054H57.4527L54.6892 57.3507L60.5823 43.2754L74.3001 75.1717H70.1517L60.6677 53.0766L58.8266 57.347L63.1543 68.0401H54.1352L51.0971 75.2559H40.9701L38.6983 80.3804L39.6549 80.9161L56.6145 90.2585C58.9467 91.5472 61.7775 91.5472 64.1097 90.2585L87.3444 77.3252C90.5375 75.5854 90.4277 70.1485 90.4277 70.1485L90.4655 34.5637C90.463 34.5393 90.4691 34.5015 90.4691 34.4625Z" fill="#008C98"/>
</svg>
