<svg width="120" height="120" viewBox="0 0 120 120" fill="none" xmlns="http://www.w3.org/2000/svg">
<circle cx="60" cy="60" r="60" fill="#E41B23"/>
<path d="M43.9665 74.7065C46.9268 72.1847 49.5857 69.1694 51.2852 65.6334C52.3268 63.4131 53.1492 61.1106 53.5603 58.6984C54.136 55.2172 54.3553 51.6812 54.5471 48.1451C54.6568 45.7055 54.7116 43.266 54.7116 40.799V32H50.9563C50.9563 33.4528 50.9563 34.9056 50.9563 36.3584C50.8466 40.6619 50.5999 44.9654 49.9421 49.2142C49.4213 52.5583 48.6812 55.9025 47.2832 58.9725C46.0771 61.6588 44.5147 64.208 42.5411 66.3735C40.6223 68.5116 38.3472 70.2933 35.8254 71.6364C33.6873 72.7603 31.3848 73.61 29 73.9664V81.34C30.9736 81.0658 32.9198 80.5724 34.8112 79.9146C38.1005 78.7633 41.3076 77.0638 43.9665 74.7065Z" fill="white"/>
<path d="M56.1643 65.6335C56.1643 70.869 56.1369 76.1319 56.1917 81.3674C58.4669 81.34 60.7694 81.3674 63.0719 81.3674V32.0275C60.7694 32.0275 58.4669 32.0275 56.1643 32.0275C56.1643 43.2112 56.1643 54.4223 56.1643 65.6335Z" fill="white"/>
<path d="M87.3308 73.2811C83.877 72.1572 80.6973 70.2659 78.0658 67.7441C75.3247 65.14 73.2141 61.8781 71.7613 58.3969C70.2263 54.7786 69.541 50.8862 69.0476 47.0213C68.4445 42.0325 68.2801 37.0162 68.3075 32H64.5796V40.0863C64.5522 44.8558 64.7166 49.6253 65.1278 54.3674C65.3471 56.5603 65.5938 58.7806 66.1694 60.9187C66.7451 63.0568 67.5948 65.1126 68.6912 67.0588C70.0892 69.5258 71.9532 71.7187 74.0364 73.6648C75.2973 74.8161 76.613 75.94 78.0658 76.8719C80.0394 78.1603 82.2049 79.1745 84.4526 79.942C86.344 80.5724 88.2628 81.0933 90.2364 81.34C90.2364 78.873 90.2364 76.4334 90.2364 73.9664C89.277 73.8293 88.2902 73.5826 87.3308 73.2811Z" fill="white"/>
</svg>
