<svg width="120" height="120" viewBox="0 0 120 120" fill="none" xmlns="http://www.w3.org/2000/svg">
<circle cx="60" cy="60" r="60" fill="#EDF0F4"/>
<path d="M94.5729 68.8214L61.1158 93.5595C60.6725 93.8847 60.0222 93.9142 59.5789 93.5891L25.5898 69.5603C24.9396 69.0874 24.7918 68.1416 25.3238 67.5209L58.7514 27.4433C59.2242 26.8522 60.1109 26.8522 60.6134 27.4433L94.7503 67.2845C95.1345 67.7574 95.0754 68.4667 94.5729 68.8214Z" fill="#FFF4FC"/>
<path d="M92.77 67.9938L60.968 91.4906L60.7906 67.5505L60.5542 29.9556L92.0311 67.1071L92.77 67.9938Z" fill="url(#paint0_linear_1_7327)"/>
<path d="M26.8903 68.4963L59.5198 91.4906L58.7809 29.9556L26.8903 68.4963Z" fill="url(#paint1_linear_1_7327)"/>
<path d="M59.2538 67.6096L27.1267 68.2303L26.8903 68.4963L59.5198 91.4907L59.2538 67.6096Z" fill="url(#paint2_linear_1_7327)"/>
<path d="M60.7906 67.5505L92.0311 67.1072L92.77 67.9939L60.968 91.4907L60.7906 67.5505Z" fill="url(#paint3_linear_1_7327)"/>
<path d="M48.1704 51.5904L47.5405 50.8136L47.5302 50.8222L48.1704 51.5904ZM51.8649 74.5552L52.5376 75.2952L52.5421 75.291L51.8649 74.5552ZM42.7026 76.5059L42.7948 77.5017L42.7993 77.5012L42.7026 76.5059ZM55.1751 43.2557L56.0818 42.8339L56.0811 42.8323L55.1751 43.2557ZM85.9131 64.0629L84.999 64.4683L84.9995 64.4696L85.9131 64.0629ZM80.1497 58.8611L79.747 59.7764L79.7543 59.7797L79.7617 59.7828L80.1497 58.8611ZM75.9233 57.5016L75.603 58.449L75.6143 58.4526L75.9233 57.5016ZM71.8446 56.1124L72.2056 55.1798L72.1957 55.1761L71.8446 56.1124ZM64.5443 52.5066L65.0843 51.6649L65.0765 51.66L64.5443 52.5066ZM60.8049 68.2549L92.0453 67.8115L92.017 65.8117L60.7765 66.2551L60.8049 68.2549ZM59.2345 66.3142L27.1074 66.9349L27.146 68.9345L59.2731 68.3139L59.2345 66.3142ZM59.7136 56.0275C56.2359 53.3672 53.6995 51.7794 51.8553 50.9734C50.9339 50.5706 50.1303 50.3381 49.434 50.292C48.7246 50.2449 48.0633 50.3899 47.5406 50.8136L48.8002 52.3672C48.8243 52.3476 48.9388 52.2635 49.3017 52.2876C49.6778 52.3125 50.243 52.4513 51.0543 52.8059C52.6755 53.5146 55.0601 54.9858 58.4985 57.616L59.7136 56.0275ZM47.5302 50.8222C46.8077 51.4243 46.6372 52.3357 46.6467 53.1418C46.6566 53.9703 46.8569 54.9318 47.1415 55.934C47.7105 57.9378 48.7114 60.4114 49.6254 62.8281C50.5566 65.2903 51.4068 67.7145 51.7612 69.7579C52.1292 71.8801 51.888 73.1748 51.1876 73.8195L52.5421 75.291C54.0732 73.8815 54.1091 71.5926 53.7318 69.4162C53.3407 67.1612 52.4232 64.572 51.4961 62.1206C50.5517 59.6235 49.6038 57.2833 49.0654 55.3876C48.7963 54.44 48.6533 53.6803 48.6466 53.1181C48.6396 52.5335 48.7794 52.3846 48.8106 52.3586L47.5302 50.8222ZM51.1922 73.8153C50.7589 74.2092 49.9984 74.532 48.5518 74.8025C47.1239 75.0696 45.2102 75.2576 42.6059 75.5106L42.7993 77.5012C45.3672 77.2518 47.3845 77.0555 48.9195 76.7684C50.4359 76.4848 51.6704 76.0835 52.5375 75.2952L51.1922 73.8153ZM42.6104 75.5102C41.0368 75.6559 39.7385 75.7128 38.9195 75.7128V77.7128C39.8146 77.7128 41.1763 77.6515 42.7948 77.5016L42.6104 75.5102ZM72.0005 66.3545L61.39 57.074L60.0732 58.5794L70.6838 67.8599L72.0005 66.3545ZM52.7288 35.717C52.6338 37.2673 52.6976 40.3159 54.2691 43.679L56.0811 42.8323C54.697 39.8705 54.6426 37.1853 54.725 35.8392L52.7288 35.717ZM54.2684 43.6774C55.5288 46.3872 57.2604 48.1485 58.3543 49.1174L59.6804 47.6202C58.7054 46.7567 57.1859 45.2077 56.0818 42.834L54.2684 43.6774ZM85.1984 74.4742C85.3561 74.2464 86.3102 72.8408 86.959 70.8706C87.6056 68.9069 87.9869 66.2625 86.8267 63.6562L84.9995 64.4696C85.8787 66.4445 85.6245 68.529 85.0593 70.245C84.4964 71.9545 83.6623 73.1793 83.554 73.3358L85.1984 74.4742ZM86.8272 63.6575C85.1445 59.8632 81.0903 58.1721 80.5378 57.9395L79.7617 59.7828C80.3322 60.023 83.667 61.4648 84.999 64.4683L86.8272 63.6575ZM80.5525 57.9458C80.1223 57.7565 79.8794 57.6828 79.3423 57.5224C78.8146 57.3648 77.9509 57.1087 76.2322 56.5505L75.6143 58.4526C77.3536 59.0175 78.2338 59.2786 78.77 59.4388C79.2969 59.5961 79.4383 59.6406 79.747 59.7764L80.5525 57.9458ZM76.2435 56.5542C74.1065 55.8318 73.0953 55.5243 72.2056 55.1799L71.4836 57.045C72.4262 57.4099 73.5431 57.7526 75.603 58.4489L76.2435 56.5542ZM72.1957 55.1761C70.8008 54.653 68.129 53.6182 65.0842 51.6649L64.0043 53.3483C67.2254 55.4147 70.0509 56.5078 71.4934 57.0488L72.1957 55.1761ZM65.0765 51.66C64.0822 51.035 62.7866 50.1149 61.3082 48.8973L60.0368 50.4412C61.573 51.7064 62.9375 52.6778 64.0121 53.3533L65.0765 51.66Z" fill="#98C9C0"/>
<defs>
<linearGradient id="paint0_linear_1_7327" x1="60.5492" y1="91.5039" x2="92.7773" y2="91.5039" gradientUnits="userSpaceOnUse">
<stop stop-color="#3B8270"/>
<stop offset="1" stop-color="#305C6E"/>
</linearGradient>
<linearGradient id="paint1_linear_1_7327" x1="26.9028" y1="91.4872" x2="59.5271" y2="91.4872" gradientUnits="userSpaceOnUse">
<stop stop-color="#4E7F98"/>
<stop offset="1" stop-color="#3BC0B5"/>
</linearGradient>
<linearGradient id="paint2_linear_1_7327" x1="26.9028" y1="91.486" x2="59.5271" y2="91.486" gradientUnits="userSpaceOnUse">
<stop stop-color="#30435C"/>
<stop offset="1" stop-color="#299AA9"/>
</linearGradient>
<linearGradient id="paint3_linear_1_7327" x1="60.7975" y1="91.501" x2="92.7773" y2="91.501" gradientUnits="userSpaceOnUse">
<stop stop-color="#2E2C29"/>
<stop offset="1" stop-color="#323232"/>
</linearGradient>
</defs>
</svg>
