<svg width="120" height="120" viewBox="0 0 120 120" fill="none" xmlns="http://www.w3.org/2000/svg">
<path fill-rule="evenodd" clip-rule="evenodd" d="M60 0C93.132 0 120 26.868 120 60C120 93.132 93.132 120 60 120C26.868 120 0 93.132 0 60C0 26.868 26.868 0 60 0Z" fill="#0055D5"/>
<path fill-rule="evenodd" clip-rule="evenodd" d="M32.64 39.696C32.64 39.696 26.184 34.536 25.74 47.28C25.296 57.156 25.308 76.332 29.88 85.392C31.812 88.8 34.392 87.756 39.192 84.36C43.368 81.276 58.476 67.356 64.872 61.248C71.268 55.14 84.24 37.62 86.94 49.524C88.008 54.528 89.328 58.776 88.32 69.876C88.008 73.296 86.544 75.888 79.872 71.256C74.832 68.016 70.044 64.536 70.044 64.536C70.044 64.536 69.12 62.88 66.936 65.568C65.22 67.716 64.356 68.244 67.104 69.876C69.864 71.508 83.82 81.132 89.172 82.632C93.588 83.916 96.108 83.892 96.24 75.216C96.216 68.328 95.82 48.612 93.312 40.212C91.416 34.98 88.632 32.604 82.62 38.484C76.608 44.364 57.648 62.748 47.28 71.076C40.404 76.236 37.464 80.892 34.872 72.288C33.048 65.772 30.684 45.492 38.148 49.356C42.816 51.588 45.144 51.576 43.32 52.98C41.496 54.372 36.252 59.184 36.252 59.184C36.252 59.184 34.632 60.492 35.388 63.324C36.144 65.304 36.144 66.288 40.212 62.46C44.28 58.632 47.28 55.74 47.28 55.74C47.28 55.74 47.928 54.72 49.86 56.604C51.792 58.488 52.104 59.016 52.104 59.016C52.104 59.016 52.62 60.42 54.684 57.984C56.76 55.548 58.092 54.06 54.168 51.78C50.256 49.476 32.64 39.696 32.64 39.696Z" fill="white"/>
</svg>
