<svg width="120" height="120" viewBox="0 0 120 120" fill="none" xmlns="http://www.w3.org/2000/svg">
<path fill-rule="evenodd" clip-rule="evenodd" d="M60 0C93.132 0 120 26.868 120 60C120 93.132 93.132 120 60 120C26.868 120 0 93.132 0 60C0 26.868 26.868 0 60 0Z" fill="#1E1E1E"/>
<path d="M60.9002 85.08C41.7122 85.08 26.1602 79.536 26.1602 72.108C26.1602 68.232 30.3962 64.74 37.1762 62.28C42.4682 65.676 51.3482 67.416 61.4162 67.416C71.2442 67.416 79.9322 65.292 85.2722 62.04C91.6682 64.476 95.6402 67.872 95.6402 71.616C95.6402 79.056 80.0882 85.08 60.9002 85.08Z" fill="white"/>
<path d="M61.1037 65.7481C46.5597 65.7481 34.7637 61.1881 34.7637 55.5601C34.7637 52.4401 38.3997 49.6441 44.0997 47.7841C48.1677 49.9081 54.2637 51.2641 61.1037 51.2641C67.9437 51.2641 74.0397 49.9081 78.1077 47.7841C83.8197 49.6561 87.4437 52.4401 87.4437 55.5601C87.4557 61.1881 75.6597 65.7481 61.1037 65.7481Z" fill="white"/>
<path d="M61.0076 49.572C49.7636 49.572 40.6436 45.804 40.6436 41.172C40.6436 36.54 49.7636 32.772 61.0076 32.772C72.2516 32.772 81.3716 36.54 81.3716 41.172C81.3716 45.804 72.2516 49.572 61.0076 49.572Z" fill="white"/>
</svg>
