<svg width="120" height="120" viewBox="0 0 120 120" fill="none" xmlns="http://www.w3.org/2000/svg">
<circle cx="60" cy="60" r="60" fill="#EDF0F4"/>
<circle cx="60" cy="60" r="45" fill="black"/>
<circle cx="60.375" cy="60.375" r="40.875" fill="black" stroke="white"/>
<path d="M59.626 68.8621H74.6592L59.6298 42.7962V42.7993V27L89.085 77.25H59.626V68.8621Z" fill="#0B76FF"/>
<path d="M59.6244 68.8621L59.6263 77.25H30.1646L59.6205 27L59.6224 42.7993L59.6205 42.7962L44.5911 68.8621H59.6244Z" fill="#24C1FF"/>
<path d="M59.626 49.2662V65.7992L50.3062 65.8164L59.626 49.2662Z" fill="#39FFF2"/>
<path d="M59.626 49.2662L68.9439 65.8164L59.626 65.7992V49.2662Z" fill="#00E2C2"/>
<path d="M23.25 44.1515L59.626 59.1971V61.3022L23.25 52.2757V44.1515Z" fill="url(#paint0_linear_1_6304)"/>
<path d="M95.9999 37.842L59.626 59.197V59.7744L95.9999 44.7531V37.842Z" fill="url(#paint1_linear_1_6304)"/>
<path d="M95.9713 58.5947L59.626 61.3002V60.7017L95.9713 51.6733V58.5947Z" fill="url(#paint2_linear_1_6304)"/>
<path d="M95.9999 45.043L59.626 59.8088V60.7017L95.9999 51.3732V45.043Z" fill="url(#paint3_linear_1_6304)"/>
<defs>
<linearGradient id="paint0_linear_1_6304" x1="23.25" y1="58.7231" x2="48.6856" y2="58.7231" gradientUnits="userSpaceOnUse">
<stop stop-color="white" stop-opacity="0.01"/>
<stop offset="1" stop-color="white"/>
</linearGradient>
<linearGradient id="paint1_linear_1_6304" x1="93.2321" y1="30.5708" x2="70.4082" y2="35.7639" gradientUnits="userSpaceOnUse">
<stop stop-color="#FD76FD" stop-opacity="0.01"/>
<stop offset="1" stop-color="#FF51FF"/>
</linearGradient>
<linearGradient id="paint2_linear_1_6304" x1="94.4986" y1="53.4997" x2="75.9919" y2="53.4997" gradientUnits="userSpaceOnUse">
<stop stop-color="#5300FF" stop-opacity="0.01"/>
<stop offset="1" stop-color="#9D6EFF"/>
</linearGradient>
<linearGradient id="paint3_linear_1_6304" x1="88.1094" y1="36.3856" x2="80.3117" y2="49.1835" gradientUnits="userSpaceOnUse">
<stop stop-color="#AE60D6" stop-opacity="0.01"/>
<stop offset="1" stop-color="#AB38E6"/>
</linearGradient>
</defs>
</svg>
