<svg width="120" height="120" viewBox="0 0 120 120" fill="none" xmlns="http://www.w3.org/2000/svg">
<circle cx="60" cy="60" r="60" fill="black"/>
<path fill-rule="evenodd" clip-rule="evenodd" d="M63.8571 93.145C63.8571 92.6199 63.7513 92.1212 63.5549 91.6637L87.1207 78.3775C87.8741 79.1923 88.938 79.655 90.0522 79.6525C92.232 79.6525 94 77.9275 94 75.7975C94 73.9712 92.7004 72.4412 90.9589 72.04L91.0269 45.715C92.7344 45.2913 94 43.7763 94 41.9763C94 39.8463 92.232 38.1213 90.0522 38.1213C88.7187 38.1213 87.5438 38.7663 86.826 39.7563L63.7513 26.7438C64.0139 25.5877 63.7309 24.3758 62.9829 23.4522C62.2348 22.5285 61.1032 21.9939 59.9093 22.0001C57.7333 22.0001 55.9616 23.725 55.9616 25.855C55.9606 26.1623 55.9987 26.4685 56.0749 26.7663L33.1362 39.7038C32.4147 38.7438 31.2549 38.1213 29.9478 38.1213C27.768 38.1213 26 39.8463 26 41.9763C26.01 43.7473 27.2298 45.2857 28.9618 45.7113V72.0625C27.258 72.49 26 73.9975 26 75.7975C26 77.9275 27.768 79.6525 29.9478 79.6525C31.0158 79.6556 32.04 79.2311 32.7887 78.475L56.2487 91.7012C56.0636 92.1475 55.9616 92.6349 55.9616 93.145C55.9616 95.2749 57.7296 96.9999 59.9093 96.9999C62.0891 96.9999 63.8571 95.2749 63.8571 93.145ZM86.2518 76.8437L62.5009 90.2387V90.235C61.8096 89.6462 60.9029 89.29 59.9093 89.29C58.9451 89.2878 58.013 89.6344 57.2876 90.265L33.7067 76.9712C33.9532 76.2215 33.9584 75.4141 33.7218 74.6612L56.3016 59.56C57.1921 60.6877 58.5566 61.3448 60 61.3412C61.2918 61.3444 62.5275 60.8179 63.4151 59.8862L86.3273 74.5112C86.0562 75.2616 86.0298 76.0776 86.2518 76.8437ZM62.9504 28.315C62.4132 28.9444 61.6904 29.3904 60.884 29.59L60.8236 52.3C63.0311 52.6713 64.6512 54.5625 64.6656 56.785C64.6656 57.3513 64.5598 57.8988 64.3633 58.3975L87.2944 73.0375C87.8044 72.55 88.4467 72.2012 89.1644 72.04L89.2324 45.7488C87.206 45.3387 85.8538 43.4305 86.1498 41.3988L62.9504 28.315ZM33.8389 41.3275L56.8871 28.3338C57.4565 28.9954 58.2313 29.4505 59.0896 29.6275L59.0291 52.33C57.788 52.5823 56.7063 53.3305 56.0381 54.3989C55.3699 55.4672 55.1742 56.7615 55.4969 57.9775L32.8113 73.1462C32.2673 72.5837 31.5571 72.1862 30.7562 72.0212V45.7525C32.8163 45.3419 34.179 43.3858 33.8389 41.3275Z" fill="white"/>
</svg>
