<svg width="120" height="120" viewBox="0 0 120 120" fill="none" xmlns="http://www.w3.org/2000/svg">
<path d="M118.191 74.5143C110.178 106.657 77.6222 126.219 45.4752 118.204C13.3417 110.19 -6.22004 77.6324 1.79691 45.4918C9.80683 13.3451 42.3626 -6.21803 74.4997 1.79541C106.644 9.80884 126.205 42.3702 118.191 74.5149L118.191 74.5143H118.191Z" fill="#F3BA2F"/>
<path fill-rule="evenodd" clip-rule="evenodd" d="M60 38.08L44.4634 53.6166L44.4637 53.616L35.424 44.576L60 20L84.584 44.5834L75.544 53.6234L60 38.08ZM29.0403 50.9584L20 60L29.0397 69.0384L38.08 59.9981L29.0403 50.9584ZM44.4634 66.3843L60 81.92L75.5437 66.377L84.5885 75.4122L84.584 75.417L60 100L35.424 75.424L35.4112 75.4112L44.4634 66.3843ZM90.9603 50.9635L81.92 60.0038L90.96 69.0435L100 60.0032L90.9603 50.9635Z" fill="white"/>
<path d="M69.1688 59.9951H69.1727L60.0002 50.822L53.2203 57.5999L52.4415 58.3791L50.8351 59.9859L50.8223 59.9983L50.8351 60.0115L60.0002 69.1779L69.1733 60.0047L69.1778 59.9996L69.1695 59.9951" fill="white"/>
</svg>
