<svg width="120" height="120" viewBox="0 0 120 120" fill="none" xmlns="http://www.w3.org/2000/svg">
<circle cx="60" cy="60" r="60" fill="#E7EFF3"/>
<path fill-rule="evenodd" clip-rule="evenodd" d="M62.3049 15H57.6159C49.156 15.5265 40.8085 18.33 33.9236 23.3114C24.7301 29.8049 18.1377 39.8803 15.9237 50.9233C13.8537 60.8862 15.2847 71.5601 19.9962 80.5916C23.6682 87.7825 29.3381 93.9205 36.1871 98.1865C45.07 103.798 55.9644 106.034 66.3459 104.554C77.4068 103.055 87.7702 97.165 94.8172 88.516C105.23 76.0916 107.908 57.8802 101.671 42.9493C97.1392 31.7354 87.8557 22.56 76.6058 18.1365C72.0608 16.3005 67.1964 15.324 62.3049 15ZM22.0302 39.3538C28.5551 27.2309 41.137 18.609 54.826 17.0385C64.7574 15.81 75.0848 18.1905 83.4503 23.6804C91.8652 29.0804 98.2777 37.5089 101.27 47.0443C103.367 53.6007 103.754 60.6657 102.611 67.4472C100.627 78.9536 93.7192 89.4925 83.9858 95.9365C76.0478 101.323 66.2559 103.874 56.6934 103.114C48.2515 102.484 40.03 99.2665 33.3836 94.024C24.6536 87.238 18.6912 76.9826 17.1837 66.0207C15.8517 56.9172 17.6157 47.4133 22.0302 39.3538Z" fill="#00206B"/>
<path fill-rule="evenodd" clip-rule="evenodd" d="M77.7578 41.6308C72.1284 36.0149 63.7359 33.4499 55.9105 34.7594C46.537 36.1769 38.3291 43.2823 35.6111 52.3722C33.2891 59.7567 34.5221 68.1896 38.9951 74.5256C43.0361 80.4431 49.6915 84.484 56.8015 85.339C64.3479 86.3335 72.3084 83.764 77.7218 78.3821C82.6943 73.7066 85.6238 66.9072 85.5248 60.0717C85.6688 53.2002 82.7528 46.3468 77.7578 41.6308ZM57.472 36.3178L57.472 36.3164C58.588 36.2399 59.7084 36.1859 60.8244 36.1499C60.8334 38.4403 60.8289 40.7353 60.8244 43.0303C59.7084 43.0258 58.5925 43.0258 57.4765 43.0258C57.481 40.7898 57.4765 38.5538 57.472 36.3178ZM65.5224 43.1338C68.4609 43.5298 71.6199 43.9798 73.9644 45.9643C77.5418 49.1773 77.0783 55.9227 72.6999 58.2537C75.3233 58.8657 77.9198 60.6162 78.5678 63.3702C79.4093 66.9837 78.7388 71.3216 75.8363 73.8686C73.0374 76.1726 69.275 76.5281 65.7981 76.8566H65.7981L65.5134 76.8836C65.5288 78.6759 65.5244 80.4683 65.52 82.2634V82.2637V82.2641V82.2644V82.2647V82.2656L65.5179 83.1656C73.0014 81.3341 79.4588 75.7631 82.2038 68.5541C84.8093 61.9032 84.1928 54.0777 80.5163 47.9533C77.2673 42.4273 71.7414 38.3683 65.5359 36.8113C65.5179 38.9173 65.5179 41.0233 65.5224 43.1338ZM51.5552 43.1639H51.5552H51.5552H51.5552H51.5551C48.765 43.1716 45.9754 43.1793 43.189 43.0438C46.042 40.5328 49.2775 38.4178 52.909 37.2388C52.9198 38.8192 52.9191 40.3966 52.9183 41.9758C52.9182 42.3706 52.918 42.7656 52.918 43.1608C52.4637 43.1614 52.0095 43.1627 51.5552 43.1639ZM42.8021 43.3048C41.9426 44.3623 40.3496 46.3603 39.4046 48.1288C35.5931 54.6222 35.1611 62.9562 38.3426 69.7871C41.0876 75.9116 46.5325 80.6771 52.909 82.729C52.9157 81.251 52.9149 79.7729 52.914 78.2967V78.2962V78.2958V78.2953V78.2947V78.294C52.9138 77.8026 52.9135 77.3115 52.9135 76.8206C51.8182 76.81 50.7219 76.8162 49.6254 76.8224H49.6252H49.625H49.6248C47.4645 76.8347 45.3036 76.847 43.1486 76.7306C43.1845 74.9171 43.612 73.1441 44.2285 71.4341C44.6728 71.4253 45.1223 71.4407 45.573 71.4561C46.7383 71.4959 47.9112 71.536 49.021 71.1596C49.7333 70.5613 49.7212 69.6531 49.7097 68.7871C49.7067 68.5589 49.7037 68.3336 49.714 68.1176C49.6897 65.2126 49.6947 62.3076 49.6997 59.4031C49.7048 56.3912 49.71 53.3799 49.6825 50.3698C49.741 49.4158 49.1425 48.3853 48.1525 48.1963C46.9087 47.9461 45.6362 47.9621 44.3707 47.978H44.3707H44.3707H44.3707H44.3707C43.9742 47.983 43.5785 47.988 43.1845 47.9848C42.9911 46.6528 42.9686 45.3073 42.9506 43.9618C42.9506 43.9618 42.9731 43.5388 42.8291 43.2643L42.8021 43.3048ZM57.6115 57.1107V48.3898C58.1985 48.4066 58.7977 48.4015 59.4017 48.3963C61.7052 48.3767 64.0769 48.3564 66.0984 49.5508C68.2809 50.7973 68.4159 54.3027 66.3009 55.6887C64.1557 57.1138 61.5254 57.1088 59.0094 57.104C58.5381 57.1031 58.0708 57.1022 57.6115 57.1107ZM57.6115 61.8042V71.4791C58.4881 71.4089 59.3907 71.3917 60.2998 71.3743C63.1193 71.3204 66.0014 71.2653 68.3664 69.6251C70.6029 68.1401 70.3329 64.4637 68.0289 63.1767C65.5788 61.7122 62.7156 61.7569 59.9198 61.8006C59.1417 61.8127 58.3688 61.8248 57.6115 61.8042ZM57.472 83.665C57.4765 81.4286 57.481 79.1876 57.481 76.9511H60.9684C60.9684 77.5237 60.9687 78.0963 60.969 78.6689C60.9698 80.3868 60.9707 82.1047 60.9639 83.8225C59.7984 83.7865 58.6375 83.7415 57.472 83.665Z" fill="#00206B"/>
<path fill-rule="evenodd" clip-rule="evenodd" d="M78.2166 23.3654C71.1336 19.7295 62.9707 18.528 55.0867 19.374C42.8558 20.7645 31.4664 28.0544 25.1079 38.6023C19.906 47.0128 17.9845 57.3492 19.699 67.0782C21.3775 76.9016 26.8179 86.041 34.6839 92.1565C42.0593 98.0155 51.5363 101.183 60.9547 100.841C76.9926 100.819 92.225 90.1 97.994 75.1916C101.787 65.7327 101.868 54.8607 98.2055 45.3568C94.6145 35.8664 87.329 27.8339 78.2166 23.3654ZM37.5188 43.0753C41.4473 37.8058 47.3063 34.0214 53.7142 32.5769C60.8287 30.9524 68.5686 32.1899 74.7696 36.0509C81.3936 40.0918 86.1545 47.0173 87.599 54.6402C88.733 60.9267 87.887 67.6227 84.7955 73.2566C80.6691 81.1541 72.5376 86.7835 63.6952 87.8635C56.5402 88.8445 49.0253 86.9365 43.2428 82.5896C37.0644 78.0851 32.9109 70.9121 32.0784 63.3072C31.1919 56.2017 33.1809 48.7813 37.5188 43.0753Z" fill="#EBA809"/>
</svg>
