<svg width="120" height="120" viewBox="0 0 120 120" fill="none" xmlns="http://www.w3.org/2000/svg">
<path d="M119.986 60.0024C119.986 93.1333 93.1237 119.995 59.9784 120C26.8571 120 -0.00479762 93.1333 2.57257e-06 59.9976C-0.00959781 26.8619 26.8523 0 59.988 0C93.1237 0 119.986 26.8667 119.986 60.0024Z" fill="#EAB300"/>
<path fill-rule="evenodd" clip-rule="evenodd" d="M83.5954 45.3042C82.8225 37.2687 75.8863 34.5758 67.1211 33.8078V22.6569H60.3384V33.5102C58.5576 33.5102 56.7335 33.5438 54.9238 33.5822V22.6569H48.1412L48.1364 33.7982L48.0636 33.7996H48.0636C46.6198 33.8279 45.1994 33.8558 43.8162 33.8558V33.8222L34.4606 33.8174V41.0657C34.4606 41.0657 39.472 40.9697 39.3856 41.0609C42.1361 41.0609 43.029 42.6545 43.2882 44.0322V56.7335C43.4802 56.7335 43.725 56.7431 44.0034 56.7815H43.2882L43.2834 74.5758C43.1634 75.4398 42.6545 76.8175 40.7345 76.8223C40.8209 76.8991 35.8047 76.8223 35.8047 76.8223L34.4558 84.925H43.2882C44.2841 84.925 45.2712 84.9356 46.2474 84.9461H46.2475L46.2499 84.9461C46.8819 84.9529 47.5093 84.9596 48.1316 84.9634L48.1364 96.2391H54.9142V85.0834C56.7719 85.1218 58.572 85.1362 60.3336 85.1362L60.3288 96.2391H67.1115V84.9874C78.5168 84.3346 86.5091 81.4593 87.4979 70.7452C88.2996 62.1193 84.2434 58.2647 77.7679 56.7095C81.7089 54.7126 84.1714 51.1845 83.5954 45.3042ZM74.1006 69.4108C74.1006 77.1486 61.9312 76.9733 56.3806 76.8933C55.8882 76.8862 55.4478 76.8799 55.0726 76.8799V61.9369C55.5415 61.9379 56.1122 61.9251 56.7593 61.9105C62.4647 61.7824 74.1006 61.5211 74.1006 69.4108ZM56.2072 55.1186C60.8517 55.192 70.9421 55.3513 70.9421 48.3331C70.9464 41.1503 61.223 41.4076 56.4694 41.5334C55.9337 41.5476 55.4611 41.5601 55.0726 41.5601V55.1062C55.3963 55.1058 55.7786 55.1119 56.2072 55.1186Z" fill="white"/>
<path d="M43.2979 56.4359H44.3059V57.1799H43.2979V56.4359Z" fill="white"/>
</svg>
