<svg width="120" height="120" viewBox="0 0 120 120" fill="none" xmlns="http://www.w3.org/2000/svg">
<path d="M118.191 74.5143C110.178 106.657 77.6222 126.219 45.4752 118.204C13.3417 110.19 -6.22004 77.6324 1.79691 45.4918C9.80683 13.3451 42.3626 -6.21803 74.4997 1.79541C106.644 9.80884 126.205 42.3702 118.191 74.5149L118.191 74.5143H118.191Z" fill="#F7931A"/>
<path fill-rule="evenodd" clip-rule="evenodd" d="M77.9023 38.1726C74.9442 30.6606 67.5336 29.983 58.903 31.6597L55.8304 20.9444L49.3082 22.8157L52.3004 33.2485C50.5856 33.7401 48.8428 34.2766 47.1112 34.8107L44.1007 24.3081L37.5821 26.1773L40.6516 36.8902C39.2481 37.324 37.8686 37.7483 36.5168 38.1366L36.5064 38.1033L27.5096 40.6795L29.5089 47.6453C29.5089 47.6453 34.2991 46.1726 34.2444 46.2837C36.8861 45.5269 38.1861 46.8143 38.8163 48.0659L42.317 60.2729C42.4993 60.2214 42.7393 60.1608 43.0196 60.1208L42.8304 60.175L42.8302 60.1751C42.6692 60.2211 42.5018 60.269 42.3309 60.3197L47.2328 77.4212C47.3556 78.2856 47.2472 79.7519 45.402 80.2841C45.507 80.3339 40.6607 81.6426 40.6607 81.6426L41.5981 89.8039L50.0862 87.3696C51.0163 87.1043 51.9401 86.85 52.8545 86.5983L52.8563 86.5978C53.4948 86.4221 54.1287 86.2476 54.757 86.0715L57.8675 96.9081L64.3831 95.0407L61.3078 84.3179C63.1076 83.8419 64.8425 83.3598 66.5327 82.8736L69.5903 93.5477L76.1128 91.6763L73.0123 80.8577C83.7977 77.0842 90.6803 72.1214 88.6801 61.5503C87.0718 53.0381 82.1108 50.457 75.4579 50.747C78.6875 47.7367 80.079 43.6661 77.9048 38.1722L77.9022 38.172L77.9023 38.1726ZM75.4218 63.9621C77.5556 71.3917 65.8367 74.5767 60.475 76.0339C59.9926 76.165 59.5618 76.2821 59.197 76.3871L55.0813 62.0275C55.5261 61.9001 56.0627 61.7324 56.6706 61.5425L56.6707 61.5424C62.1065 59.844 73.2437 56.3642 75.422 63.9619L75.4218 63.9621ZM54.2726 55.1596C58.749 53.9554 68.5141 51.3284 66.5789 44.5734L66.5794 44.5731C64.5978 37.6658 55.3236 40.5928 50.7942 42.0223C50.2846 42.1832 49.8351 42.325 49.4628 42.4318L53.1964 55.4546C53.503 55.3666 53.866 55.269 54.2726 55.1596Z" fill="white"/>
</svg>
