<svg width="120" height="120" viewBox="0 0 120 120" fill="none" xmlns="http://www.w3.org/2000/svg">
<circle cx="60" cy="60" r="60" fill="#EDF0F4"/>
<circle cx="60" cy="60" r="50" fill="#FB2EA3"/>
<path fill-rule="evenodd" clip-rule="evenodd" d="M80.8836 53.4587C80.1782 58.2676 77.5336 60.5953 74.0251 61.4098C78.8419 63.938 81.2969 67.8196 78.96 74.5426C76.0606 82.8948 69.1741 83.5965 60.0159 81.8515L57.7877 90.8334L52.4177 89.4831L54.6117 80.6235C53.1803 80.2652 51.7528 79.8913 50.3294 79.5019L48.1292 88.4054L42.7623 87.0583L44.9874 78.0577C44.4534 77.9204 43.9161 77.7792 43.3747 77.637C42.6431 77.4447 41.904 77.2505 41.1557 77.0614L34.1667 75.3071L36.833 69.104C36.833 69.104 40.7921 70.1692 40.7362 70.0878C42.2589 70.4668 42.9333 69.4675 43.2005 68.8033L46.7121 54.6053L47.2808 54.7463C47.0985 54.6744 46.9116 54.6148 46.7215 54.5677L49.2262 44.433C49.2915 43.2801 48.8999 41.8327 46.7246 41.2814C46.8085 41.225 42.8214 40.3039 42.8214 40.3039L44.2509 34.5207L51.6595 36.3848L51.6533 36.4161C52.7658 36.6918 53.9156 36.9581 55.0841 37.2275L57.2874 28.3334L62.6574 29.6805L60.5007 38.4023L60.833 38.479L60.833 38.479C62.1626 38.7856 63.4993 39.0939 64.8016 39.4236L66.9459 30.7613L72.3159 32.1084L70.1157 41.0057C76.8996 43.3616 81.8594 46.8923 80.8836 53.4587ZM68.6085 70.8083C70.1732 64.5042 60.8894 62.4019 56.3533 61.3747L56.3532 61.3746C55.8445 61.2595 55.3954 61.1578 55.0281 61.0652L52.079 72.9856C52.38 73.061 52.7329 73.1549 53.1278 73.2601L53.1285 73.2603L53.1287 73.2604L53.1288 73.2604L53.1288 73.2604C57.5136 74.4281 67.0894 76.9782 68.6116 70.8083H68.6085ZM60.1689 45.0547C63.9559 45.9012 71.689 47.6296 70.271 53.3616C68.8825 58.9753 60.8987 56.8221 57.2507 55.8383C56.9228 55.7499 56.6299 55.6709 56.38 55.6078L59.0525 44.7964C59.3612 44.8742 59.7397 44.9588 60.1688 45.0547L60.1689 45.0547ZM85.9024 77.2619C85.3765 77.191 84.8441 77.3342 84.4232 77.6598C84.0193 78.0089 83.7453 78.4862 83.6463 79.0132C83.5825 79.3062 83.5616 79.607 83.5841 79.9061C83.6108 80.2469 83.7196 80.5759 83.9011 80.8647C84.0876 81.178 84.3859 81.4725 84.7899 81.7482C85.1939 82.0207 85.7532 82.24 86.468 82.4061C86.8533 82.5 87.2511 82.5439 87.6582 82.5408C88.0684 82.5408 88.4475 82.475 88.7956 82.3434C89.5444 82.0769 90.0991 81.4332 90.2562 80.6485C90.4043 80.093 90.326 79.5008 90.0387 79.0038C89.7528 78.5213 89.2835 78.1517 88.6278 77.8948L89.1064 75.8083C90.2873 76.2876 91.1139 76.9737 91.5925 77.8603C92.071 78.75 92.1705 79.8058 91.8908 81.0276C91.7492 81.7052 91.4687 82.3454 91.0673 82.9073C90.3375 83.9101 89.2112 84.5436 87.9814 84.6429C87.3129 84.7039 86.6389 84.6541 85.9863 84.4957C85.315 84.3446 84.6705 84.0911 84.0751 83.7438C83.5263 83.4268 83.0473 83.0004 82.6674 82.4906C82.2978 81.9841 82.0451 81.4008 81.9277 80.7832C81.8023 80.0747 81.8288 79.3472 82.0054 78.6498C82.1244 78.1202 82.3158 77.6099 82.5741 77.1335C82.8259 76.6698 83.1335 76.2782 83.5033 75.9587C83.87 75.6391 84.2927 75.4073 84.7712 75.2632C85.2529 75.116 85.7874 75.0878 86.381 75.1723L85.9024 77.2619ZM93.4322 72.5815C93.8373 71.9983 94.1217 71.3388 94.2681 70.6423C94.4397 69.9519 94.4714 69.2337 94.3614 68.5307C94.2464 67.8822 94.0195 67.3027 93.6777 66.792C93.3358 66.2814 92.8883 65.849 92.329 65.4919C91.7349 65.1237 91.0835 64.8589 90.4022 64.7087C89.6875 64.5426 89.0038 64.4957 88.3512 64.5677C87.7257 64.6307 87.1202 64.8249 86.5737 65.1379C86.0422 65.4449 85.5885 65.8678 85.2032 66.4004C84.798 66.9836 84.5137 67.6431 84.3672 68.3396C84.1961 69.029 84.1644 69.7461 84.274 70.448C84.3761 71.0711 84.6092 71.665 84.9577 72.1899C85.3127 72.7123 85.7721 73.154 86.3064 73.4869C86.8939 73.8549 87.5391 74.1197 88.2145 74.2701C88.8924 74.4354 89.5932 74.4842 90.2873 74.4142C90.9128 74.3512 91.5182 74.157 92.0648 73.844C92.5931 73.5339 93.0499 73.1141 93.4322 72.5815ZM86.1137 61.8766L86.5643 59.9186L88.3792 60.3415L88.3885 60.3039C88.135 60.1724 87.91 59.9913 87.7266 59.7713C87.3049 59.277 87.0254 58.6757 86.9186 58.0326C86.8665 57.7078 86.8771 57.3759 86.9497 57.0552C87.0059 56.7908 87.085 56.5319 87.1859 56.2814L89.1841 56.745C89.1259 56.8889 89.0709 57.0341 89.0194 57.1805C88.9672 57.325 88.9236 57.4725 88.8888 57.6222C88.7149 58.3186 88.8659 59.057 89.299 59.6272C89.5411 59.9425 89.8407 60.2084 90.1816 60.4104C90.5514 60.6391 90.9958 60.8146 91.5179 60.9368L95.9866 61.9769L95.5081 64.0633L86.1137 61.8766ZM94.2868 55.1097C93.9232 55.1316 93.5596 55.1034 93.1991 55.0157L93.196 55.0188L94.7902 48.0577C94.1065 47.8102 93.4166 47.6974 92.7143 47.7225C92.0425 47.7377 91.3803 47.8868 90.7658 48.1611C90.165 48.4384 89.6315 48.8447 89.2027 49.3515C88.745 49.8983 88.428 50.5504 88.2797 51.25C88.1212 51.9612 88.1057 52.6254 88.2456 53.2457C88.376 53.8559 88.631 54.432 88.9945 54.9374C89.3678 55.4492 89.8338 55.885 90.3681 56.2218C91.5365 56.9345 92.8975 57.2589 94.2588 57.1492C95.5075 57.0667 96.6531 56.4225 97.3789 55.3948C97.7518 54.8779 98.0252 54.245 98.1962 53.4994C98.3111 52.9856 98.3547 52.4781 98.3236 51.9769C98.2588 50.4561 97.3519 49.1011 95.9773 48.4712L95.5267 50.448C95.961 50.7028 96.3038 51.09 96.5056 51.5539C96.6842 52.0578 96.7027 52.6054 96.5584 53.1203C96.4794 53.5127 96.3137 53.8822 96.0737 54.2012C95.8609 54.4735 95.5901 54.6941 95.2812 54.8465C94.9698 54.9985 94.6321 55.0878 94.2868 55.1097ZM92.6335 70.2632C92.8418 69.4474 92.6213 68.5809 92.0493 67.9668C91.7775 67.668 91.4556 67.4198 91.0984 67.2337C90.3569 66.8404 89.5275 66.6462 88.6899 66.6698C88.2881 66.6776 87.891 66.7593 87.5184 66.9111C86.7407 67.2134 86.17 67.8951 86.005 68.7187C85.7946 69.5314 86.0102 70.3961 86.5768 71.0119C86.8347 71.3064 87.1517 71.5477 87.5277 71.745C88.2697 72.1368 89.0988 72.3309 89.9361 72.3089C90.3387 72.2989 90.7364 72.2172 91.1108 72.0677C91.8913 71.7686 92.4657 71.0878 92.6335 70.2632ZM91.9561 49.8183C92.2862 49.7727 92.6212 49.7759 92.9505 49.8277L91.8349 54.7024C91.1818 54.5289 90.6119 54.1255 90.2282 53.5652C90.0542 53.2989 89.9392 53.0013 89.8771 52.6723C89.7633 51.984 89.9315 51.2785 90.3432 50.7175C90.7409 50.2135 91.3212 49.8899 91.9561 49.8183Z" fill="white"/>
</svg>
