<svg width="120" height="120" viewBox="0 0 120 120" fill="none" xmlns="http://www.w3.org/2000/svg">
<path fill-rule="evenodd" clip-rule="evenodd" d="M60 120C27 120 0 93.0006 0 59.7012C0.3 26.7019 27 -0.297518 60.3 0.00247602C93.3 0.30247 120 27.0019 120 60.6012C119.7 93.3006 93 120 60 120Z" fill="#EDF0F4"/>
<path fill-rule="evenodd" clip-rule="evenodd" d="M60 98C80.9868 98 98 80.9868 98 60C98 39.0132 80.9868 22 60 22V26.6233C78.4334 26.6233 93.3767 41.5666 93.3767 60C93.3767 78.4334 78.4334 93.3767 60 93.3767V98Z" fill="#FFBC00"/>
<path fill-rule="evenodd" clip-rule="evenodd" d="M26.6233 60H22C22 80.9868 39.0132 98 60 98V93.3767C41.5714 93.365 26.635 78.4286 26.6233 60" fill="#FFBC00"/>
<path fill-rule="evenodd" clip-rule="evenodd" d="M35.5533 60C35.5533 73.5015 46.4984 84.4467 59.9999 84.4467C73.5015 84.4467 84.4466 73.5015 84.4466 60H89.0699C89.0699 76.0549 76.0548 89.07 59.9999 89.07C43.945 89.07 30.9299 76.0549 30.9299 60L35.5533 60Z" fill="#FFBC00"/>
<path opacity="0.3" fill-rule="evenodd" clip-rule="evenodd" d="M59.9999 35.5534V30.9301C43.9547 30.9533 30.9532 43.9548 30.9299 60.0001H35.5533C35.5649 46.5034 46.5032 35.565 59.9999 35.5534Z" fill="#FFBC00"/>
<path fill-rule="evenodd" clip-rule="evenodd" d="M60 44.4622C51.4187 44.4622 44.4622 51.4187 44.4622 60C44.4622 68.5813 51.4187 75.5378 60 75.5378V80.1611C48.8653 80.1611 39.8389 71.1347 39.8389 60C39.8389 48.8653 48.8653 39.8389 60 39.8389" fill="#FFBC00"/>
<path opacity="0.3" fill-rule="evenodd" clip-rule="evenodd" d="M60 39.8389V44.4622C68.5765 44.4738 75.5261 51.4235 75.5378 60H80.1611C80.1379 48.8749 71.125 39.8621 60 39.8389Z" fill="#FFBC00"/>
<path fill-rule="evenodd" clip-rule="evenodd" d="M60 48.7689C66.2028 48.7689 71.2311 53.7973 71.2311 60C71.2311 66.2028 66.2028 71.2311 60 71.2311V66.6078C63.6494 66.6078 66.6078 63.6494 66.6078 60C66.6078 56.3507 63.6494 53.3923 60 53.3923" fill="#FFBC00"/>
<path opacity="0.3" fill-rule="evenodd" clip-rule="evenodd" d="M59.9999 48.7689C53.802 48.7805 48.7804 53.8021 48.7688 60H53.3921C53.3921 58.2475 54.0883 56.5668 55.3275 55.3276C56.5667 54.0884 58.2474 53.3923 59.9999 53.3923V48.7689Z" fill="#FFBC00"/>
<path fill-rule="evenodd" clip-rule="evenodd" d="M74.1655 74.2922L70.8933 71.02C69.5728 72.3264 68.0282 73.3847 66.3333 74.1445L68.2755 78.3667C70.438 77.3635 72.4096 75.992 74.1021 74.3134" fill="#FFBC00"/>
<path fill-rule="evenodd" clip-rule="evenodd" d="M43.9977 25.5255C39.919 27.3993 36.2084 29.9874 33.041 33.1677L36.2077 36.5455C39.0099 33.6994 42.308 31.3886 45.9399 29.7266L43.9977 25.5255Z" fill="#FFBC00"/>
<path fill-rule="evenodd" clip-rule="evenodd" d="M86.3044 47.8611C84.881 44.7162 82.8998 41.8553 80.4566 39.4166L77.1211 42.6888C79.208 44.7314 80.8974 47.1438 82.1033 49.8033L86.3044 47.8611Z" fill="#FFBC00"/>
</svg>
