<svg width="120" height="120" viewBox="0 0 120 120" fill="none" xmlns="http://www.w3.org/2000/svg">
<circle cx="60" cy="60" r="60" fill="#EDF0F4"/>
<path d="M36.5155 74.9833C38.8257 72.6852 42.5606 72.6925 44.8618 74.9997C47.1629 77.3068 47.1605 81.0418 44.8563 83.346C42.5522 85.6501 38.8172 85.6525 36.5101 83.3514C34.2029 81.0503 34.1956 77.3153 36.4937 75.0051L36.5155 74.9833Z" fill="#FDBA4D"/>
<path d="M76.9456 36.6001C78.6362 34.9094 81.1788 34.4036 83.3878 35.3185C85.5968 36.2335 87.0371 38.389 87.0371 40.78C87.0371 43.1709 85.5968 45.3265 83.3878 46.2414C81.1788 47.1563 78.6362 46.6505 76.9456 44.9598C74.6408 42.6561 74.6375 38.9209 76.9383 36.6132H76.9456" fill="#FDBA4D"/>
<path d="M44.0957 70.4357L50.3327 76.6728L56.0464 70.9591C53.1971 69.8151 50.9388 67.5568 49.7948 64.7075L44.0957 70.4357Z" fill="#FDBA4D"/>
<path d="M72.1423 55.1746L77.856 49.4609L71.6189 43.2239L65.9053 48.9375C67.3155 49.5033 68.5964 50.349 69.6708 51.4236C70.7439 52.4906 71.5853 53.7675 72.1423 55.1746Z" fill="#FDBA4D"/>
<path d="M76.7464 83.0478C75.0556 81.3572 74.5498 78.8146 75.4648 76.6056C76.3797 74.3966 78.5352 72.9563 80.9262 72.9563C83.3172 72.9563 85.4727 74.3966 86.3876 76.6056C87.3026 78.8146 86.7968 81.3572 85.106 83.0478C83.9995 84.1565 82.4978 84.7801 80.9313 84.7815C79.3649 84.7828 77.8621 84.1618 76.7536 83.0551L76.7464 83.0478Z" fill="#5DA9DD"/>
<path d="M37.1087 44.4334C35.4179 42.7428 34.9121 40.2002 35.8271 37.9912C36.742 35.7822 38.8975 34.3419 41.2885 34.3419C43.6795 34.3419 45.835 35.7822 46.7499 37.9912C47.6649 40.2002 47.1591 42.7428 45.4683 44.4334C44.3608 45.5411 42.8586 46.1634 41.2921 46.1634C39.7257 46.1634 38.2235 45.5411 37.1159 44.4334" fill="#5DA9DD"/>
<path d="M71.1476 76.4241L77.3847 70.187L71.671 64.4734C70.527 67.3227 68.2687 69.581 65.4194 70.725" fill="#5DA9DD"/>
<path d="M56.5234 48.6133L50.8098 42.8997L44.5728 49.1367L50.2864 54.8504C50.8522 53.4401 51.6979 52.1592 52.7725 51.0849C53.8394 50.0117 55.1164 49.1703 56.5234 48.6133Z" fill="#5DA9DD"/>
<path d="M66.9692 31.9172C66.9668 35.1819 64.3189 37.8269 61.0542 37.8257C57.7895 37.8245 55.1436 35.1775 55.1436 31.9128C55.1436 28.6481 57.7895 26.0012 61.0542 26C64.3189 25.9988 66.9668 28.6438 66.9692 31.9085V31.9172Z" fill="#18568C"/>
<path d="M66.9692 88.4344C66.9668 91.6991 64.3189 94.3441 61.0542 94.3429C57.7895 94.3417 55.1436 91.6948 55.1436 88.43C55.1436 85.1653 57.7895 82.5184 61.0542 82.5172C64.3189 82.516 66.9668 85.161 66.9692 88.4257V88.4344Z" fill="#18568C"/>
<path d="M63.2009 40.9312H59.479V48.2586C60.7104 48.0449 61.9695 48.0449 63.2009 48.2586" fill="#18568C"/>
<path d="M63.2009 72.4158C61.9695 72.6295 60.7104 72.6295 59.479 72.4158V79.7432H63.2009" fill="#18568C"/>
<path d="M87.2332 64.4734C83.9685 64.471 81.3235 61.8231 81.3247 58.5584C81.3259 55.2936 83.9728 52.6477 87.2375 52.6477C90.5023 52.6477 93.1492 55.2936 93.1504 58.5584C93.1516 61.8231 90.5066 64.471 87.2419 64.4734H87.2332Z" fill="#18578C"/>
<path d="M32.9172 65.4779C29.6494 65.4779 27.0003 62.829 27 59.5612C26.9997 56.2934 29.6484 53.6441 32.9162 53.6436C36.184 53.643 38.8336 56.2915 38.8344 59.5593C38.8348 61.1289 38.2115 62.6343 37.1018 63.7443C35.9921 64.8543 34.4868 65.4779 32.9172 65.4779Z" fill="#18578C"/>
<path d="M72.1875 61.4218H79.5149V57.6941H72.1875C72.4012 58.9255 72.4012 60.1845 72.1875 61.416V61.4218Z" fill="#18578C"/>
<path d="M49.4197 61.4217C49.206 60.1903 49.206 58.9312 49.4197 57.6998H42.0923V61.4217" fill="#18578C"/>
<path d="M69.2638 59.997C69.2638 64.63 65.5081 68.3858 60.8751 68.3858C56.2421 68.3858 52.4863 64.63 52.4863 59.997C52.4863 55.364 56.2421 51.6083 60.8751 51.6083C65.5074 51.6099 69.2622 55.3647 69.2638 59.997Z" fill="#18568B"/>
</svg>
