<svg width="120" height="120" viewBox="0 0 120 120" fill="none" xmlns="http://www.w3.org/2000/svg">
<circle cx="60" cy="60" r="60" fill="#1B2B57"/>
<path d="M69.4416 65.7948L60.3838 71.0648L69.4416 54.1021V65.7948Z" fill="#DF3121"/>
<path d="M59.5605 74.688V53.7727L83.6048 37.7981L70.5946 21L96.1211 39.939L70.5946 63.8186V55.749L59.5605 74.688Z" fill="#EFBF43"/>
<path d="M59.5605 98.5675V79.1344L95.1329 44.3855L59.5605 98.5675Z" fill="#EFBF43"/>
<path d="M49.6797 65.7948L58.7375 71.0648L49.6797 54.1021V65.7948Z" fill="#DF3121"/>
<path d="M59.5605 74.688V53.7727L35.5162 37.7981L48.5265 21L23 39.939L48.5265 63.8186V55.749L59.5605 74.688Z" fill="#F8D749"/>
<path d="M59.5607 98.5675V79.1344L23.9883 44.3855L59.5607 98.5675Z" fill="#F8D749"/>
<path fill-rule="evenodd" clip-rule="evenodd" d="M63.3876 47.4762C65.4834 46.4035 65.6609 46.0389 64.8477 44.474C64.0286 42.8979 61.3959 39.864 60.3719 39.3159C59.6331 38.9206 59.5527 38.9574 58.1476 40.3336C56.482 41.9656 54.4129 44.9139 54.4129 45.6558C54.4129 45.9313 54.6523 46.3731 54.9445 46.6379C56.9681 48.469 60.72 48.8417 63.3876 47.4762ZM53.5512 44.1485C53.5604 43.1939 54.5241 41.2248 56.148 38.8419L57.5791 36.7423L56.5936 35.8774C54.636 34.1586 53.8191 34.4083 52.6573 37.0797C51.8294 38.9829 51.7602 41.5405 52.4851 43.4251C53.0479 44.8878 53.5407 45.2223 53.5512 44.1485ZM67.1533 43.5698C68.0239 41.6522 67.9251 38.7042 66.9238 36.7267C65.683 34.2758 65.099 34.1688 62.9897 36.0045L62.1617 36.7253L63.351 38.4203C64.6807 40.3162 66.2769 43.5195 66.2772 44.2932C66.2775 45.113 66.5578 44.8818 67.1533 43.5698ZM61.1093 34.0996C61.803 33.7848 62.6966 33.5191 63.0945 33.5093C63.8118 33.4913 63.8109 33.4873 62.9495 33.0099C62.356 32.6805 61.3949 32.5281 59.9111 32.5281C58.4276 32.5281 57.4661 32.6805 56.8726 33.0099C56.008 33.4893 56.0073 33.4913 56.728 33.5243C57.282 33.5498 58.7059 34.0704 59.8073 34.6505C59.8294 34.6624 60.4157 34.4144 61.1093 34.0996Z" fill="#F5BB43"/>
</svg>
