<svg width="120" height="120" viewBox="0 0 120 120" fill="none" xmlns="http://www.w3.org/2000/svg">
<circle cx="60" cy="60" r="60" fill="#EDF0F4"/>
<path d="M41.9318 59.6949C41.7612 62.6601 44.0437 65.1986 47.0089 65.3693C47.1156 65.3693 47.2223 65.3693 47.3289 65.3693C50.3155 65.3693 52.726 62.9587 52.7047 59.9722C52.7047 56.9857 50.2941 54.5751 47.3076 54.5965C44.4491 54.5965 42.0812 56.8364 41.9318 59.6949Z" fill="#0033AD"/>
<path d="M21.8364 58.3083C20.8764 58.2443 20.0445 58.9909 20.0018 59.9509C19.9591 60.9108 20.6844 61.7428 21.6444 61.7854C22.6043 61.8494 23.415 61.1028 23.479 60.1429C23.543 59.1829 22.7963 58.3723 21.8364 58.3083Z" fill="#0033AD"/>
<path d="M41.5898 28.4216C42.4431 27.9949 42.7844 26.9283 42.3578 26.075C41.9311 25.2217 40.8645 24.8804 40.0112 25.307C39.1579 25.7337 38.8166 26.779 39.2432 27.6323C39.6699 28.5069 40.7152 28.8695 41.5898 28.4216C41.5898 28.4216 41.5685 28.4216 41.5898 28.4216Z" fill="#0033AD"/>
<path d="M47.0511 37.9571C48.3737 37.2958 48.907 35.6746 48.2457 34.352C47.5844 33.0294 45.9632 32.4961 44.6405 33.1574C43.3179 33.8187 42.7846 35.4399 43.4459 36.7625C44.1072 38.0851 45.7285 38.6184 47.0511 37.9571Z" fill="#0033AD"/>
<path d="M28.663 44.5062C29.6869 45.1675 31.0522 44.8902 31.7348 43.8662C32.3961 42.8423 32.1188 41.477 31.0949 40.7944C30.0709 40.1331 28.7056 40.4104 28.023 41.4343C27.3404 42.4583 27.639 43.8449 28.663 44.5062Z" fill="#0033AD"/>
<path d="M31.9267 57.3483C30.4334 57.2629 29.1748 58.3936 29.0895 59.8868C29.0042 61.3801 30.1348 62.6387 31.628 62.724C33.1213 62.8094 34.3799 61.6788 34.4652 60.1855C34.5506 58.7136 33.42 57.4336 31.9267 57.3483Z" fill="#0033AD"/>
<path d="M28.9609 75.4168C27.873 75.9714 27.425 77.294 27.9796 78.4033C28.5343 79.4913 29.8569 79.9392 30.9662 79.3846C32.0541 78.83 32.5021 77.5074 31.9475 76.3981C31.3928 75.3101 30.0489 74.8621 28.9609 75.4168Z" fill="#0033AD"/>
<path d="M39.4139 51.7805C40.8858 52.7405 42.8484 52.3352 43.787 50.8632C44.747 49.3913 44.3417 47.4287 42.8697 46.4901C41.3978 45.5302 39.4352 45.9355 38.4966 47.4074C37.5366 48.858 37.9419 50.8206 39.4139 51.7805Z" fill="#0033AD"/>
<path d="M72.5858 37.7438C73.8231 38.5544 75.5084 38.2131 76.319 36.9758C77.1296 35.7386 76.7883 34.0533 75.551 33.2427C74.3137 32.432 72.6285 32.7734 71.8179 34.0106C70.9859 35.2692 71.3272 36.9332 72.5858 37.7438Z" fill="#0033AD"/>
<path d="M78.0902 28.2509C78.9009 28.7842 79.9675 28.5496 80.5008 27.7389C81.0341 26.9283 80.7994 25.8617 79.9888 25.3284C79.1782 24.7951 78.1116 25.0297 77.5782 25.819C77.0663 26.6296 77.3009 27.7176 78.0902 28.2509Z" fill="#0033AD"/>
<path d="M72.991 54.5538C70.0258 54.3831 67.4659 56.6657 67.3166 59.6309C67.1459 62.5961 69.4285 65.156 72.3937 65.3053C72.5004 65.3053 72.607 65.3053 72.6924 65.3053C75.6576 65.3053 78.0681 62.8947 78.0681 59.9082C78.0894 57.071 75.8495 54.7031 72.991 54.5538Z" fill="#0033AD"/>
<path d="M48.8221 51.3965C49.7394 53.2098 51.5953 54.3617 53.6432 54.3617C56.6084 54.3617 59.019 51.9512 59.019 48.9646C59.019 48.1327 58.827 47.3007 58.443 46.5327C57.0991 43.8662 53.8565 42.7996 51.2113 44.1435C48.5448 45.5088 47.4782 48.7513 48.8221 51.3965Z" fill="#0033AD"/>
<path d="M91.0387 44.5062C92.1266 43.9515 92.5533 42.6076 91.9986 41.5196C91.444 40.4317 90.1001 40.005 89.0121 40.5597C87.9242 41.1143 87.4975 42.4369 88.0308 43.5249C88.6068 44.6128 89.9294 45.0608 91.0387 44.5062Z" fill="#0033AD"/>
<path d="M77.3862 46.2128C75.8289 47.0021 75.1889 48.9006 75.9782 50.4579C76.7675 52.0152 78.6661 52.6551 80.2234 51.8658C81.7806 51.0765 82.4206 49.178 81.6313 47.6207C80.842 46.0634 78.9434 45.4448 77.3862 46.2128Z" fill="#0033AD"/>
<path d="M59.787 27.4403C61.003 27.5043 62.0483 26.5657 62.1336 25.3497C62.2189 24.1338 61.259 23.0885 60.043 23.0032C58.8271 22.9392 57.7818 23.8564 57.6964 25.0724C57.6324 26.3097 58.5711 27.355 59.787 27.4403Z" fill="#0033AD"/>
<path d="M59.7658 41.3703C61.5151 41.477 63.0084 40.133 63.0937 38.3838C63.2003 36.6345 61.8564 35.1413 60.1071 35.0559C58.3579 34.9493 56.8646 36.2932 56.7793 38.0425C56.694 39.7917 58.0166 41.285 59.7658 41.3703Z" fill="#0033AD"/>
<path d="M42.614 73.7102C44.1713 72.9209 44.8112 71.0223 44.0219 69.465C43.2326 67.9078 41.3341 67.2678 39.7768 68.0571C38.2195 68.8464 37.5796 70.745 38.3689 72.3022C39.1581 73.8595 41.0567 74.4995 42.614 73.7102Z" fill="#0033AD"/>
<path d="M61.8129 45.9995C60.1916 48.4954 60.8743 51.8233 63.3702 53.4445C65.8661 55.0658 69.1939 54.3831 70.8152 51.8873C72.4364 49.3914 71.7538 46.0635 69.2579 44.4423C68.3833 43.8663 67.3593 43.5676 66.314 43.5676C64.5008 43.5676 62.8155 44.4849 61.8129 45.9995Z" fill="#0033AD"/>
<path d="M71.1783 68.5265C69.8344 65.86 66.5919 64.7933 63.9467 66.1373C61.2801 67.4812 60.2135 70.7237 61.5574 73.369C62.9014 76.0355 66.1439 77.1021 68.7891 75.7582C71.4343 74.4356 72.5223 71.2357 71.1997 68.5692C71.1997 68.5478 71.1997 68.5478 71.1783 68.5265Z" fill="#0033AD"/>
<path d="M80.5855 68.1425C79.1136 67.1825 77.151 67.5878 76.2124 69.0597C75.2524 70.5317 75.6578 72.4943 77.1297 73.4329C78.6016 74.3928 80.5642 73.9875 81.5028 72.5156C82.4628 71.065 82.0575 69.1024 80.5855 68.1425Z" fill="#0033AD"/>
<path d="M90.9106 60.0576C90.9959 58.5643 89.8653 57.3057 88.372 57.2203C86.8787 57.135 85.6201 58.2656 85.5348 59.7589C85.4495 61.2522 86.5801 62.5108 88.0734 62.5961C89.5453 62.6814 90.8252 61.5295 90.9106 60.0576Z" fill="#0033AD"/>
<path d="M98.3559 58.1376C97.3959 58.0736 96.564 58.8203 96.5213 59.7802C96.4787 60.7402 97.204 61.5721 98.1639 61.6148C99.1239 61.6788 99.9345 60.9322 99.9985 59.9722C100.041 59.0122 99.3159 58.2016 98.3559 58.1376Z" fill="#0033AD"/>
<path d="M91.3374 75.4168C90.3135 74.7555 88.9482 75.0328 88.2655 76.0568C87.6042 77.0807 87.8816 78.446 88.9055 79.1286C89.9295 79.7899 91.2947 79.5126 91.9774 78.4887C92.66 77.4647 92.3614 76.0781 91.3374 75.4168Z" fill="#0033AD"/>
<path d="M41.8884 91.6721C41.0778 91.1387 40.0112 91.3734 39.4778 92.1627C38.9445 92.9733 39.1792 94.0399 39.9685 94.5733C40.7791 95.1066 41.8457 94.8719 42.379 94.0826C42.9337 93.2933 42.699 92.2054 41.8884 91.6721Z" fill="#0033AD"/>
<path d="M78.4097 91.5015C77.5564 91.9281 77.215 92.9947 77.6417 93.848C78.0683 94.7013 79.135 95.0426 79.9882 94.616C80.8415 94.1894 81.1829 93.1441 80.7562 92.2908C80.3296 91.4161 79.2843 91.0535 78.4097 91.5015C78.431 91.5015 78.4097 91.5015 78.4097 91.5015Z" fill="#0033AD"/>
<path d="M58.1867 73.9235C59.808 71.4276 59.1254 68.0998 56.6295 66.4572C54.1336 64.8359 50.8057 65.5186 49.1631 68.0145C47.5205 70.5103 48.2245 73.8382 50.7204 75.4808C51.595 76.0568 52.619 76.3554 53.6643 76.3554C55.4989 76.3768 57.1841 75.4595 58.1867 73.9235Z" fill="#0033AD"/>
<path d="M47.4141 82.1792C46.1768 81.3686 44.4915 81.7099 43.6809 82.9472C42.8703 84.1844 43.2116 85.8697 44.4489 86.6803C45.6861 87.491 47.3714 87.1496 48.182 85.9124C49.014 84.6751 48.6727 82.9898 47.4141 82.1792Z" fill="#0033AD"/>
<path d="M59.9788 92.4827C58.7628 92.4187 57.7176 93.3573 57.6322 94.5733C57.5469 95.7892 58.5069 96.8345 59.7228 96.9198C60.9388 96.9838 61.984 96.0665 62.0694 94.8506C62.1334 93.6133 61.1947 92.568 59.9788 92.4827Z" fill="#0033AD"/>
<path d="M59.9998 78.5527C58.2505 78.446 56.7573 79.79 56.672 81.5392C56.5653 83.2885 57.9092 84.7817 59.6585 84.8671C61.4077 84.9524 62.901 83.6298 62.9863 81.8805C63.093 80.1526 61.7491 78.638 59.9998 78.5527Z" fill="#0033AD"/>
<path d="M72.9485 81.9658C71.6258 82.6484 71.0925 84.2697 71.7752 85.5923C72.4578 86.9149 74.0791 87.4482 75.4017 86.7656C76.7243 86.1043 77.2576 84.483 76.5963 83.1604C75.9137 81.8378 74.2924 81.2832 72.9485 81.9658Z" fill="#0033AD"/>
</svg>
