<svg width="120" height="120" viewBox="0 0 120 120" fill="none" xmlns="http://www.w3.org/2000/svg">
<circle opacity="0.98" cx="60" cy="60" r="60" fill="#243F8D"/>
<rect x="80.7197" y="30.2109" width="5.95312" height="5.95312" fill="white"/>
<rect x="92.626" y="30.2109" width="5.95312" height="5.95312" fill="#8DDB2E"/>
<rect x="86.6729" y="36.1641" width="5.95312" height="5.95312" fill="#8DDB2E"/>
<rect x="92.626" y="77.8828" width="5.95312" height="5.95312" fill="#8DDB2E"/>
<rect x="86.6729" y="65.9766" width="5.95312" height="5.95312" fill="#8DDB2E"/>
<rect x="74.7666" y="54.0703" width="5.95312" height="5.95312" fill="#8DDB2E"/>
<rect x="80.7197" y="48.1172" width="5.95312" height="5.95312" fill="#8DDB2E"/>
<rect x="92.626" y="54.0703" width="5.95312" height="5.95312" fill="#8DDB2E"/>
<path fill-rule="evenodd" clip-rule="evenodd" d="M86.6729 77.8828V83.8359H92.626V89.7891H87.1416H86.6729H80.7197H78.9854H77.8135H69.6572L59.0635 72.9609L48.4229 89.7891H40.2666H39.0947H30.9385L50.251 59.7422L31.4072 30.2109H39.5635H40.6416H48.7979L59.0635 46.6172L69.2822 30.2578H86.6729V36.2109H80.7197V48.1172H74.7666V42.1641H68.8135V48.1172H74.7666V54.0703H68.8135V60.0234H74.7666V65.9766H80.7197V77.8828H74.7666V83.8359H80.7197V77.8828H86.6729ZM68.7666 65.9766V71.9297H74.7197V65.9766H68.7666ZM62.8135 60.0234V65.9766H68.7666V60.0234H62.8135ZM62.8135 60.0234V54.0703H56.8604V60.0234H62.8135Z" fill="#8DDB2E"/>
</svg>
