<svg width="120" height="120" viewBox="0 0 120 120" fill="none" xmlns="http://www.w3.org/2000/svg">
<path fill-rule="evenodd" clip-rule="evenodd" d="M60 0C26.88 0 0 26.88 0 60C0 93.12 26.88 120 60 120C93.12 120 120 93.12 120 60C120 26.88 93.12 0 60 0Z" fill="black"/>
<path d="M40.198 48.3012L61.4278 25L70.1694 48.3643" stroke="white" stroke-width="2" stroke-linecap="round" stroke-linejoin="round"/>
<path d="M69.8727 81.6006L57.4694 95.1562L48.7278 71.7708" stroke="white" stroke-width="2" stroke-linecap="round" stroke-linejoin="round"/>
<path d="M78.8898 71.7708L69.873 81.6006" stroke="white" stroke-width="2"/>
<path d="M70.1263 48.3644H85.366L94.1077 71.7709H63.9247L55.183 48.3644H25L33.7416 71.7709H48.7273" stroke="white" stroke-width="2" stroke-linecap="round" stroke-linejoin="round"/>
<path d="M70.1487 48.3644L48.7073 71.7709" stroke="white" stroke-width="2"/>
</svg>
