<svg width="120" height="120" viewBox="0 0 120 120" fill="none" xmlns="http://www.w3.org/2000/svg">
<circle cx="60" cy="60" r="60" fill="#E7EFF3"/>
<path fill-rule="evenodd" clip-rule="evenodd" d="M25 67.3684C25 82.6284 37.3716 95 52.6316 95C67.8916 95 80.2632 82.6284 80.2632 67.3684C80.2632 52.1084 67.8916 39.7368 52.6316 39.7368C37.3716 39.7368 25 52.1084 25 67.3684ZM72.8947 67.3684C72.8947 78.561 63.8242 87.6316 52.6316 87.6316C41.4389 87.6316 32.3684 78.561 32.3684 67.3684C32.3684 56.1758 41.4389 47.1052 52.6316 47.1052C63.8242 47.1052 72.8947 56.1758 72.8947 67.3684Z" fill="#FBCC5C"/>
<path fill-rule="evenodd" clip-rule="evenodd" d="M39.7368 52.6316C39.7368 67.8916 52.1084 80.2632 67.3684 80.2632C82.6284 80.2632 95 67.8916 95 52.6316C95 37.3716 82.6284 25 67.3684 25C52.1084 25 39.7368 37.3716 39.7368 52.6316ZM87.6316 52.6316C87.6316 63.8242 78.561 72.8947 67.3684 72.8947C56.1758 72.8947 47.1052 63.8242 47.1052 52.6316C47.1052 41.4389 56.1758 32.3684 67.3684 32.3684C78.561 32.3684 87.6316 41.4389 87.6316 52.6316Z" fill="#35D07F"/>
<path fill-rule="evenodd" clip-rule="evenodd" d="M39.7368 51.7179C42.0652 49.8021 44.7842 48.4316 47.7021 47.7021C48.4316 44.7768 49.8021 42.0579 51.7179 39.7368C48.3431 39.8473 45.0052 40.5768 41.8884 41.8884C40.5694 45.0052 39.84 48.3358 39.7368 51.7179ZM72.2979 72.2979C71.5684 75.2231 70.1979 77.9421 68.2821 80.2631C71.6642 80.16 74.9947 79.4305 78.1116 78.1189C79.4305 74.9947 80.16 71.6642 80.2631 68.2821C77.9347 70.1979 75.2158 71.5684 72.2979 72.2979Z" fill="#5EA33B"/>
</svg>
