<svg width="120" height="120" viewBox="0 0 120 120" fill="none" xmlns="http://www.w3.org/2000/svg">
<circle cx="60" cy="60" r="60" fill="#000D17"/>
<path d="M71.5399 68.2963C69.3413 72.4634 64.984 75.3057 59.9592 75.3057C52.7244 75.3057 46.8596 69.4178 46.8596 62.1546C46.8596 54.8917 52.7244 49.0038 59.9592 49.0038C64.984 49.0038 69.3413 51.846 71.5399 56.0131H85.177C82.441 44.5641 72.2043 36.0438 59.9592 36.0438C45.6221 36.0438 34 47.7117 34 62.1037C34 76.4965 45.6221 88.1632 59.9592 88.1632C72.1671 88.1632 82.3786 79.6934 85.1512 68.2963H71.5399Z" fill="#FFB0C2"/>
<path d="M80.483 46.2124C83.4107 43.815 85.2806 40.1642 85.2806 36.0755C85.2806 28.8539 79.4491 23 72.2557 23C65.0617 23 59.2302 28.8539 59.2302 36.0755V36.0854C59.4721 36.0788 59.7142 36.075 59.9576 36.075C68.3184 36.075 75.7429 40.0477 80.483 46.2124Z" fill="#CC91F0"/>
<path d="M72.2645 49.1656C75.3852 49.165 78.2495 48.0637 80.4924 46.2264C75.7533 40.0621 68.3289 36.0901 59.9675 36.0912C59.7243 36.0909 59.4823 36.0946 59.241 36.1014C59.2452 43.3182 65.0743 49.1662 72.2645 49.1656Z" fill="#CC66B8"/>
</svg>
