<svg width="120" height="120" viewBox="0 0 120 120" fill="none" xmlns="http://www.w3.org/2000/svg">
<path d="M60 120C93.138 120 120 93.138 120 60C120 26.862 93.138 0 60 0C26.862 0 0 26.862 0 60C0 93.138 26.862 120 60 120Z" fill="#EDF0F4"/>
<path fill-rule="evenodd" clip-rule="evenodd" d="M67.6265 28.1508C63.9372 26.8991 60.0502 26.0756 56.0315 26.0097C51.7822 25.9109 47.8293 26.5697 44.1729 27.9202C40.3848 29.3037 35.9378 32.0707 32.4791 36.0236C28.2298 40.8658 25.1993 47.2233 25.0345 52.9549C24.8698 58.7854 25.1334 64.0888 29.4815 72.851C32.3473 78.6814 37.6178 83.3919 41.2083 86.0601C45.5564 89.2882 54.1539 94.0975 63.0807 94.0975C74.1817 94.0975 80.1439 91.7917 87.6213 84.9072C93.2212 79.7684 94.8024 73.4439 95 63.5947C95 63.4135 94.9835 63.2488 94.9671 63.0841C94.9506 62.9194 94.9341 62.7547 94.9341 62.5736C94.7035 58.7525 93.7483 54.8655 92.1342 51.0444C90.586 47.2892 88.4449 43.9293 86.0402 40.9976C83.6026 38.0659 80.7368 35.4306 77.7392 33.2895C74.6099 31.1484 71.217 29.4025 67.6265 28.1508ZM68.0547 29.0731C71.4147 30.259 74.6428 31.939 77.5745 33.9154C80.5062 35.9906 83.1414 38.4612 85.4143 41.1293C87.786 43.9622 89.6637 47.1245 91.146 50.6491C92.6942 54.3384 93.4847 57.9948 93.7153 61.5853C93.9459 65.3405 93.4189 68.9969 92.3318 72.4557C91.0801 76.145 89.1695 79.5049 86.4684 82.3707C83.6026 85.4013 79.9462 87.8718 75.5322 89.3541C70.8547 90.9682 65.8477 91.3964 60.8737 90.6717C55.735 89.947 50.761 88.0365 46.2152 85.1707C41.6036 82.239 37.6507 78.4179 34.5543 73.8721C31.5238 69.491 29.5474 64.4841 28.8227 59.2136C28.098 54.1408 28.658 49.4633 30.1403 45.2798C31.5238 41.327 33.7308 37.9012 36.5966 35.1012C39.2319 32.4331 42.46 30.3908 46.0505 29.0731C49.4105 27.8214 53.1657 27.1626 57.0526 27.2285C60.8737 27.2285 64.596 27.8873 68.0547 29.0731Z" fill="#338FFF"/>
<path fill-rule="evenodd" clip-rule="evenodd" d="M59.6221 28.7767C58.8974 28.7108 58.1398 28.7108 57.3492 28.7108C56.6245 28.7108 55.834 28.7767 55.0763 28.8755C55.4138 30.0145 55.7378 31.1671 56.0656 32.3331L56.0658 32.3337L56.0659 32.3342C56.2499 32.9888 56.4351 33.6476 56.6245 34.3107C57.4151 34.146 58.1727 34.0801 58.9633 34.0801C59.7539 34.0801 60.5115 34.0801 61.3021 34.146C61.053 33.3711 60.8214 32.6078 60.5925 31.8537C60.2766 30.8127 59.966 29.7891 59.6221 28.7767ZM78.9252 37.0777C75.1041 33.7178 70.4925 31.2143 65.5843 29.8308C66.0946 31.4817 66.7143 33.2148 67.3188 34.9052L67.3189 34.9054L67.319 34.9056L67.4949 35.3977C69.636 36.1554 71.6124 37.1765 73.523 38.4941C76.1582 40.24 78.497 42.6117 80.3417 45.3128C79.3908 45.4338 78.4309 45.5276 77.4572 45.6227L77.4572 45.6227L77.4571 45.6227C76.5755 45.7089 75.6826 45.7961 74.7747 45.9057C73.6547 44.5881 72.403 43.5011 71.0195 42.5458C68.0219 40.4047 64.3326 39.2188 60.6762 39.4494C56.7892 39.7459 53.5611 41.4258 51.5188 44.0611C49.3118 46.861 48.3565 50.748 49.3777 54.9314C50.3329 59.3454 53.1658 63.1006 56.921 65.5053C60.6103 67.9429 64.9914 68.964 69.109 68.0746C73.0618 67.1852 75.9276 64.7147 77.4758 61.5524C78.1346 60.103 78.497 58.5548 78.5629 56.9408C79.7219 56.7669 80.8582 56.5704 81.9719 56.3778L81.9721 56.3778L81.9722 56.3778C82.7576 56.2419 83.5317 56.1081 84.2945 55.9855C84.6568 59.2795 84.2286 62.4418 83.0428 65.3076C82.1534 67.4158 80.9016 69.3264 79.2876 70.8746C80.1769 73.5757 81.0334 76.2109 81.9228 79.0108C86.1721 75.4203 88.8073 70.5781 89.7626 65.3076C90.652 60.3995 90.0591 54.9643 88.0168 49.8256C85.9745 44.7199 82.8122 40.5364 78.9252 37.0777ZM76.1912 82.6343C75.3018 82.9966 74.5112 83.2931 73.6218 83.5896C72.7324 83.886 71.7771 84.1166 70.9207 84.3142L70.6385 83.2908L70.6383 83.29C69.9484 80.787 69.2779 78.3544 68.5819 75.9474C69.5372 75.8815 70.4266 75.7168 71.283 75.4203C71.8989 75.2607 72.4674 75.0694 73.0323 74.8794L73.0324 74.8793C73.2832 74.7949 73.5333 74.7108 73.7865 74.6298C74.2224 75.9896 74.6305 77.3864 75.0452 78.8055C75.414 80.0676 75.788 81.3473 76.1912 82.6343ZM43.646 76.0791C49.213 81.0861 56.0975 84.1495 63.2126 84.7425C62.764 82.9479 62.3366 81.1852 61.9183 79.4604C61.5996 78.1457 61.2861 76.8531 60.9727 75.585C58.1069 74.9262 55.4058 73.7404 52.9023 72.1263C47.2365 68.437 42.9872 62.6394 41.6696 56.0514C40.4179 49.7597 42.0978 44.094 45.5566 40.1411C47.0059 38.4612 48.7847 37.1436 50.7612 36.1224C50.2341 33.9813 49.74 32.0049 49.1471 29.9626C44.0413 31.6425 39.6273 34.9366 36.6956 39.3506C33.5333 44.1928 31.9851 50.188 33.171 57.2372C34.258 64.3523 38.145 71.1051 43.646 76.0791Z" fill="#338FFF"/>
</svg>
