<svg width="120" height="120" viewBox="0 0 120 120" fill="none" xmlns="http://www.w3.org/2000/svg">
<path d="M60 120C93.138 120 120 93.138 120 60C120 26.862 93.138 0 60 0C26.862 0 0 26.862 0 60C0 93.138 26.862 120 60 120Z" fill="#EDF0F4"/>
<path d="M60.5 15C85.5459 15 106 35.2711 106 60.124C106 84.9769 85.5459 105.248 60.5 105.248C35.315 105.248 15 85.1157 15 60.124C15 35.1322 35.315 15 60.5 15Z" fill="#32407B"/>
<path d="M60.5 21.7686C81.8931 21.7686 99.2314 38.8927 99.2314 60.0543C99.2314 81.2159 81.7533 98.4793 60.5 98.4793C39.1068 98.4793 21.7686 81.2159 21.7686 60.0543C21.7686 38.8927 39.1068 21.7686 60.5 21.7686Z" fill="#32407B"/>
<path fill-rule="evenodd" clip-rule="evenodd" d="M21.0166 60.1239C21.0166 81.6956 38.7353 99.2314 60.5001 99.2314C82.1253 99.2314 99.9835 81.6956 99.9835 60.1239C99.9835 38.5522 82.2648 21.0165 60.5001 21.0165C38.7353 21.0165 21.0166 38.5522 21.0166 60.1239ZM22.8303 60.1239C22.8303 39.5264 39.712 22.6865 60.5001 22.6865C81.2882 22.6865 98.1698 39.5264 98.1698 60.1239C98.1698 80.7214 81.2882 97.5613 60.5001 97.5613C39.712 97.5613 22.8303 80.7214 22.8303 60.1239Z" fill="white"/>
<path fill-rule="evenodd" clip-rule="evenodd" d="M43.6649 75.1653H77.1958C77.7546 75.1653 78.0341 74.7529 78.1738 74.3405V45.4708C78.1738 40.6592 74.1221 36.8099 69.2322 36.8099H51.7682C46.7386 36.8099 42.8267 40.6592 42.8267 45.4708V74.3405C42.8267 74.7529 43.2458 75.1653 43.6649 75.1653ZM76.3575 73.5156H44.6429V45.6083C44.6429 41.759 47.8563 38.5971 51.7682 38.5971H69.2322C73.1441 38.5971 76.3575 41.759 76.3575 45.6083V73.5156Z" fill="white"/>
<path fill-rule="evenodd" clip-rule="evenodd" d="M55.5097 43.7071H65.5673C66.1184 43.7071 66.394 43.2989 66.394 42.8907C66.394 42.4825 65.9806 42.0743 65.5673 42.0743H55.5097C55.0964 42.0743 54.6831 42.4825 54.6831 42.8907C54.6831 43.2989 55.0964 43.7071 55.5097 43.7071ZM51.7898 70.5118C49.8609 70.5118 48.3454 69.0151 48.3454 67.1102C48.3454 65.2053 49.8609 63.7086 51.7898 63.7086C53.7186 63.7086 55.2342 65.2053 55.2342 67.1102C55.2342 69.0151 53.5808 70.5118 51.7898 70.5118ZM51.7898 65.3414C50.8253 65.3414 49.9987 66.1578 49.9987 67.1102C49.9987 68.0627 50.8253 68.8791 51.7898 68.8791C52.7542 68.8791 53.5808 68.0627 53.5808 67.1102C53.4431 66.0217 52.7542 65.3414 51.7898 65.3414ZM65.9806 67.1102C65.9806 69.0151 67.4962 70.5118 69.425 70.5118C71.3539 70.5118 72.8694 69.0151 72.8694 67.1102C72.8694 65.2053 71.3539 63.7086 69.425 63.7086C67.4962 63.7086 65.9806 65.2053 65.9806 67.1102ZM69.425 65.3414C68.4606 65.3414 67.6339 66.1578 67.6339 67.1102C67.6339 68.0627 68.4606 68.8791 69.425 68.8791C70.3895 68.8791 71.2161 68.0627 71.2161 67.1102C71.2161 66.0217 70.3895 65.3414 69.425 65.3414ZM76.5894 83.438C76.3138 83.438 76.0383 83.3019 75.9005 83.1658L70.5272 75.6823C70.2517 75.2741 70.3895 74.8659 70.8028 74.5938C71.2161 74.3217 71.6294 74.4577 71.905 74.8659L77.2782 82.3495C77.5538 82.7577 77.416 83.1658 77.0027 83.438H76.5894ZM43.9366 83.3019C44.2121 83.438 44.3499 83.438 44.4877 83.438C44.7632 83.438 45.0388 83.3019 45.0388 83.0298L50.412 75.5462C50.6876 75.2741 50.412 74.7298 50.1365 74.4577C49.8609 74.1856 49.3098 74.3216 49.0343 74.7298L43.661 82.2134C43.5232 82.4855 43.5232 83.0298 43.9366 83.3019Z" fill="white"/>
<path fill-rule="evenodd" clip-rule="evenodd" d="M77.35 50.5006H44.4023C43.9905 50.5006 43.5786 50.0862 43.5786 49.6718C43.5786 49.2574 43.9905 48.843 44.4023 48.843H77.35C77.7618 48.843 78.1737 49.2574 78.1737 49.6718C78.1737 50.0862 77.8991 50.5006 77.35 50.5006ZM46.3243 82.686C46.187 82.686 46.0497 82.686 45.7751 82.5479C45.3633 82.2716 45.3633 81.7191 45.5006 81.4428L49.4817 75.7793C49.7563 75.3649 50.3054 75.2267 50.58 75.503C50.8546 75.7793 51.1291 76.3318 50.8546 76.6081L46.8734 82.2716C46.8734 82.5479 46.5988 82.686 46.3243 82.686ZM44.4023 61.137H77.35C77.8991 61.137 78.1737 60.7226 78.1737 60.3082C78.1737 59.8938 77.7618 59.4794 77.35 59.4794H44.4023C43.9905 59.4794 43.5786 59.8938 43.5786 60.3082C43.5786 60.7226 43.9905 61.137 44.4023 61.137Z" fill="white"/>
<path fill-rule="evenodd" clip-rule="evenodd" d="M56.1735 60.3192C56.3104 60.5928 56.4473 60.5928 56.7212 60.5928C56.995 60.5928 57.1319 60.456 57.2689 60.3192L64.9367 51.7006C65.3475 51.427 65.2105 50.8798 64.9367 50.6062C64.6628 50.1958 64.1151 50.3326 63.8413 50.6062L56.1735 59.2247C55.7627 59.4983 55.8996 60.0456 56.1735 60.3192ZM51.2442 60.3192C51.3811 60.5928 51.518 60.5928 51.7919 60.5928C51.9288 60.5928 52.2026 60.456 52.2026 60.3192L56.0365 56.0783C56.4473 55.8047 56.3104 55.2575 56.0365 54.9839C55.7627 54.5735 55.215 54.7103 54.9411 54.9839L51.1072 59.2247C50.8334 59.4983 50.8334 60.0456 51.2442 60.3192ZM72.4676 78.3771H48.5056C48.0949 78.3771 47.6841 77.9667 47.6841 77.5563C47.6841 77.1459 48.0949 76.7355 48.5056 76.7355H72.4676C72.8783 76.7355 73.2891 77.1459 73.2891 77.5563C73.2891 77.9667 73.0153 78.3771 72.4676 78.3771ZM45.9041 81.9339H75.0691C75.6168 81.9339 76.0276 81.5235 75.8907 81.1131C75.8907 80.7027 75.4799 80.2923 75.0691 80.2923H45.9041C45.4933 80.2923 45.0825 80.7027 45.0825 81.1131C45.0825 81.5235 45.4933 81.9339 45.9041 81.9339Z" fill="white"/>
<path fill-rule="evenodd" clip-rule="evenodd" d="M26.2808 60.124C26.2808 78.8486 41.4756 93.967 60.2619 93.967C78.91 93.967 93.9667 78.8486 93.9667 60.124C93.9667 41.3994 78.7719 26.281 60.1237 26.281C41.4756 26.281 26.2808 41.5381 26.2808 60.124ZM28.0765 60.124C28.0765 42.3703 42.4425 27.9454 60.2619 27.9454C77.9431 27.9454 92.4472 42.3703 92.4472 60.124C92.4472 77.8777 77.9431 92.3025 60.2619 92.3025C42.5806 92.3025 28.0765 77.8777 28.0765 60.124Z" fill="white"/>
</svg>
