<svg width="120" height="120" viewBox="0 0 120 120" fill="none" xmlns="http://www.w3.org/2000/svg">
<circle cx="60" cy="60" r="60" fill="#77C3B0"/>
<path fill-rule="evenodd" clip-rule="evenodd" d="M95.9664 49.9281L89.6527 43.6194C87.7364 41.6949 85.1282 40.618 82.4113 40.6294H81.4388V39.6203C81.4388 37.8525 81.0199 36.1707 80.1372 34.6571C79.6828 33.7792 79.0849 32.9834 78.368 32.3025L72.0543 25.99C70.137 24.0647 67.5273 22.9877 64.8092 23.0001H35.7166C32.9787 23.0001 30.4128 24.0541 28.4753 25.99L22.1615 32.2988C20.2297 34.1927 19.1498 36.789 19.1692 39.4933L19.0009 66.7576C18.9635 69.4897 20.0557 72.1395 21.9932 74.0755L28.307 80.3879C30.2237 82.3113 32.8319 83.3869 35.5483 83.3741H36.6854V84.3832C36.6854 86.151 37.108 87.8328 37.9908 89.3465C38.4546 90.2323 39.0418 91.0283 39.76 91.701L46.0737 98.0173C47.9922 99.9375 50.5996 101.011 53.315 101H82.4525C85.1904 101 87.7563 99.9495 89.6938 98.0135L96.0113 91.7048C97.9341 89.7882 99.0102 87.1829 98.9999 84.4692V57.1226C98.9854 54.4177 97.8955 51.8295 95.9702 49.9281H95.9664ZM35.5483 74.1166C35.2811 74.1169 35.0245 74.0122 34.8339 73.8251L31.677 70.6669L28.5164 67.5126C28.3808 67.3533 28.2802 67.1674 28.2209 66.9669V39.5381C28.2209 39.2391 28.3481 38.9887 28.5202 38.8205L34.8339 32.5118C34.913 32.4291 34.9956 32.388 35.075 32.3484L35.0845 32.3436C35.2405 32.2623 35.4135 32.2188 35.5894 32.2165H64.7269C64.8952 32.2165 65.0224 32.2577 65.1907 32.3436C65.3081 32.3816 65.3872 32.4577 65.4664 32.5339L65.4862 32.5529L71.7999 38.8654C71.8922 38.9443 71.964 39.0443 72.0094 39.1569C72.0543 39.2017 72.0543 39.2429 72.0543 39.284C72.0543 39.3045 72.0636 39.326 72.073 39.3475C72.0823 39.369 72.0917 39.3905 72.0917 39.411C72.0917 39.4281 72.0994 39.4598 72.1084 39.497L72.1084 39.4971C72.1212 39.5497 72.1366 39.6133 72.1366 39.6614V41.0069C72.1366 41.5974 71.6728 42.016 71.1267 42.016H66.0772C65.8087 42.0173 65.5505 41.9126 65.359 41.7245L62.4939 38.8654H37.8224L36.7714 39.9119L35.3388 41.347V65.0309L37.8224 67.5126H62.4528L65.3179 64.6124L65.3553 64.5675C65.3997 64.5463 65.4441 64.5131 65.488 64.4803C65.5291 64.4496 65.5698 64.4192 65.6096 64.3993C65.7368 64.3171 65.9088 64.3171 66.0323 64.3171H71.0818C71.4184 64.3171 71.7176 64.4853 71.9271 64.7357C72.0581 64.9052 72.1315 65.1121 72.1366 65.3262V66.7576C72.1359 67.0252 72.0297 67.2816 71.8411 67.4715L68.6842 70.6258L65.5273 73.7802C65.5055 73.804 65.4712 73.8267 65.4375 73.8489L65.4375 73.8489C65.4076 73.8686 65.3784 73.8879 65.359 73.9073C65.359 73.9073 65.3179 73.9484 65.273 73.9484C65.2318 73.9932 65.1907 73.9932 65.1458 73.9932C65.1084 73.9932 65.1084 73.9932 65.0635 74.0343C65.043 74.0343 65.0214 74.0446 64.9999 74.0549C64.9784 74.0652 64.9569 74.0755 64.9364 74.0755H35.5483V74.1166ZM89.4806 85.0971C89.6707 84.9078 89.7782 84.6513 89.7799 84.3832C89.7799 84.3832 89.7799 57.1226 89.735 57.2048V56.9955C89.6979 56.862 89.6412 56.7348 89.5667 56.618C89.5313 56.5442 89.4932 56.5034 89.4594 56.4673C89.4539 56.4614 89.4485 56.4556 89.4432 56.4499L86.2826 53.2955L83.1257 50.1411C82.9574 49.9692 82.7031 49.8421 82.4113 49.8421H53.0644C53.0439 49.8421 53.0224 49.8533 53.0008 49.8646C52.9793 49.8758 52.9578 49.887 52.9373 49.887C52.9101 49.9119 52.8993 49.9217 52.8868 49.9256C52.8786 49.9281 52.8697 49.9281 52.855 49.9281C52.8101 49.9281 52.7689 49.9281 52.7278 49.9729C52.6867 49.9729 52.6418 50.0103 52.6418 50.0103C52.6189 50.0352 52.5834 50.059 52.5486 50.0822C52.5208 50.1008 52.4934 50.1191 52.4735 50.1374L49.3166 53.2955L46.1597 56.4499C45.9704 56.6392 45.8641 56.896 45.8642 57.1637V58.5951C45.8701 58.808 45.9435 59.0134 46.0737 59.1819C46.2775 59.4427 46.588 59.5978 46.919 59.6042H51.9685C52.0957 59.6042 52.264 59.6042 52.3912 59.5183C52.4344 59.4967 52.4787 59.4637 52.5229 59.4308C52.5629 59.4011 52.6027 59.3714 52.6418 59.3501L52.6867 59.309L55.548 56.405H80.1372L82.6208 58.8904V82.5743L81.1882 84.0057L80.1372 85.0559H55.5069L52.6418 82.1968C52.4735 82.0287 52.2229 81.9016 51.9236 81.9016H46.8741C46.328 81.9016 45.8642 82.3239 45.8642 82.9107V84.2561C45.8642 84.307 45.8799 84.3721 45.8927 84.4254C45.9016 84.4623 45.9091 84.4935 45.9091 84.5103C45.9091 84.5304 45.9181 84.5505 45.9272 84.571C45.9368 84.5925 45.9465 84.6144 45.9465 84.6374C45.9465 84.6785 45.9465 84.7233 45.9914 84.7607C46.0325 84.8878 46.1186 84.9737 46.2009 85.0559L52.5183 91.3684C52.5973 91.4606 52.6974 91.5324 52.8101 91.5777C52.9514 91.6587 53.111 91.7024 53.2739 91.7048H82.4113C82.5873 91.7026 82.7603 91.659 82.9163 91.5777C83.0088 91.5363 83.0935 91.4794 83.1669 91.4095L89.4806 85.0971Z" fill="white"/>
</svg>
