<svg width="120" height="120" viewBox="0 0 120 120" fill="none" xmlns="http://www.w3.org/2000/svg">
<path d="M60 120C93.138 120 120 93.138 120 60C120 26.862 93.138 0 60 0C26.862 0 0 26.862 0 60C0 93.138 26.862 120 60 120Z" fill="#070A0E"/>
<path fill-rule="evenodd" clip-rule="evenodd" d="M34.662 80.118C32.868 79.02 31.77 77.07 31.77 74.97V63.246C31.77 61.854 32.904 60.726 34.296 60.732C34.74 60.732 35.178 60.852 35.562 61.074L62.016 76.5C63.564 77.4 64.518 79.056 64.518 80.85V92.994C64.524 94.662 63.174 96.018 61.506 96.018C60.948 96.018 60.396 95.862 59.922 95.574L34.662 80.118ZM74.094 57.864C75.642 58.764 76.59 60.426 76.596 62.214V86.862C76.596 87.588 76.206 88.26 75.57 88.614L69.78 91.872C69.708 91.914 69.63 91.944 69.546 91.968V78.282C69.546 76.512 68.616 74.868 67.092 73.956L43.86 60.06V44.61C43.86 43.218 44.994 42.09 46.386 42.096C46.83 42.096 47.268 42.216 47.652 42.438L74.094 57.864ZM85.674 39.66C87.228 40.56 88.182 42.222 88.182 44.016V80.016C88.176 80.754 87.768 81.432 87.12 81.786L81.63 84.75V59.688C81.63 57.918 80.7 56.28 79.188 55.368L55.44 41.124V26.472C55.44 26.028 55.56 25.59 55.776 25.206C56.478 24.006 58.02 23.598 59.22 24.294L85.674 39.66Z" fill="#00D395"/>
</svg>
