<svg width="120" height="120" viewBox="0 0 120 120" fill="none" xmlns="http://www.w3.org/2000/svg">
<circle cx="60" cy="60" r="60" fill="#EDF0F2"/>
<circle cx="59.9832" cy="60.0158" r="44.9734" fill="#C8D2D9"/>
<path d="M88.5355 94.7216C81.6787 100.383 73.2748 103.864 64.4137 104.708C52.5638 105.868 40.7139 102.282 31.466 94.7216C22.2533 87.1615 16.4163 76.261 15.2208 64.3759C14.3417 55.5149 16.0998 46.6187 20.2842 38.7773C24.4686 30.936 30.9034 24.5012 38.7448 20.3168C46.5861 16.1324 55.4823 14.3391 64.3434 15.2181C73.2044 16.0972 81.5732 19.5432 88.4652 25.2044L79.3931 36.2807C74.7165 32.448 68.9849 30.0569 62.9369 29.4943C56.8888 28.8965 50.8408 30.1272 45.496 32.9754C40.1513 35.8236 35.7911 40.219 32.9077 45.5638C30.0595 50.9085 28.864 56.9917 29.4617 63.0046C30.2705 71.0921 34.2439 78.5466 40.5381 83.6804C46.8322 88.8493 54.9197 91.2756 63.0072 90.4669C69.0552 89.8691 74.7516 87.478 79.4283 83.6452L88.5355 94.7216Z" fill="url(#paint0_linear_1_8010)"/>
<path d="M60.1237 96.8314C80.4127 96.8314 96.8338 80.3751 96.8338 60.1213C96.8338 39.8322 80.4127 23.376 60.1237 23.376C39.8347 23.376 23.3784 39.8322 23.3784 60.1213C23.3784 80.4103 39.8347 96.8314 60.1237 96.8314Z" fill="white"/>
<path d="M66.2423 63.0398C66.2423 59.5938 64.1325 58.4334 60.0184 57.906C56.9944 57.484 56.3967 56.7808 56.3967 55.3742C56.3967 53.9677 57.4164 53.1238 59.3855 53.1238C61.1788 53.1238 62.1986 53.7216 62.6205 55.1633C62.6557 55.3039 62.7612 55.4446 62.9018 55.5501C63.0425 55.6556 63.1831 55.6907 63.3589 55.6907H64.9413C65.0467 55.6907 65.1522 55.6556 65.2226 55.6204C65.3281 55.5852 65.3984 55.5149 65.4687 55.4446C65.539 55.3742 65.5742 55.2688 65.6094 55.1984C65.6445 55.0929 65.6445 54.9875 65.6094 54.882C65.1171 52.6315 63.5699 51.2953 61.1788 50.8734V48.5175C61.1788 48.3065 61.1085 48.1307 60.9678 47.99C60.8272 47.8494 60.6514 47.7791 60.4404 47.7791H58.9284C58.7174 47.7791 58.5416 47.8494 58.401 47.99C58.2603 48.1307 58.19 48.3065 58.19 48.5175V50.8031C55.2011 51.225 53.3023 53.159 53.3023 55.6556C53.3023 58.8905 55.3066 60.1212 59.4558 60.6839C62.304 61.141 63.1128 61.7387 63.1128 63.3211C63.1128 64.9034 61.7414 65.9583 59.8075 65.9583C57.2054 65.9583 56.3263 64.8331 56.0099 63.3914C55.9747 63.2156 55.8692 63.0749 55.7637 62.9694C55.6231 62.864 55.4473 62.7936 55.3066 62.7936H53.5836C53.4781 62.7936 53.3727 62.8288 53.3023 62.864C53.1968 62.8991 53.1265 62.9694 53.0562 63.0398C52.9859 63.1101 52.9507 63.2156 52.9155 63.2859C52.8804 63.3914 52.8804 63.4969 52.9155 63.5672C53.3375 66.0286 54.955 67.8219 58.2251 68.2439V70.5646C58.2251 70.7756 58.2955 70.9514 58.4361 71.0921C58.5768 71.2327 58.7526 71.3031 58.9636 71.3031H60.4756C60.6865 71.3031 60.8624 71.2327 61.003 71.0921C61.1437 70.9514 61.214 70.7756 61.214 70.5646V68.2439C64.2732 67.7516 66.2423 65.677 66.2423 63.0398Z" fill="#283947"/>
<path d="M54.8848 73.5886C52.0366 72.5689 49.5752 70.6701 47.817 68.2087C46.0589 65.7473 45.1446 62.7936 45.1446 59.8047C45.1446 56.8159 46.094 53.8622 47.817 51.4008C49.5752 48.9394 52.0366 47.0406 54.8848 46.0209C55.0606 45.9505 55.2364 45.8099 55.3419 45.6341C55.4474 45.4582 55.5177 45.2824 55.5177 45.0715V43.7001C55.5177 43.5946 55.5177 43.454 55.4474 43.3485C55.4122 43.243 55.3067 43.1375 55.2012 43.0672C55.0957 42.9968 54.9902 42.9617 54.8496 42.9265C54.7089 42.8914 54.6035 42.9265 54.498 42.9968C50.9113 44.1221 47.7818 46.3725 45.5314 49.3965C43.3161 52.4205 42.1206 56.0423 42.1206 59.8047C42.1206 63.532 43.3161 67.1889 45.5314 70.213C47.7467 73.237 50.8762 75.4522 54.498 76.6126C54.6035 76.6478 54.7441 76.6829 54.8496 76.6829C54.9551 76.6829 55.0957 76.6126 55.2012 76.5423C55.3067 76.472 55.377 76.3665 55.4474 76.261C55.4825 76.1555 55.5177 76.0148 55.5177 75.9094V74.538C55.5177 74.327 55.4474 74.1512 55.3419 73.9754C55.2364 73.7996 55.0957 73.6589 54.8848 73.5886Z" fill="#657786"/>
<path d="M65.0817 43.032C64.9762 42.9968 64.8356 42.9617 64.7301 42.9617C64.6246 42.9617 64.484 43.032 64.3785 43.1023C64.273 43.1726 64.2027 43.2781 64.1323 43.3836C64.0972 43.4891 64.062 43.6298 64.062 43.7353V45.1066C64.062 45.3176 64.1323 45.4934 64.2378 45.6692C64.3433 45.845 64.5191 45.9505 64.6949 46.056C67.5431 47.0757 70.0045 48.9745 71.7627 51.4359C73.5208 53.8973 74.4351 56.851 74.4351 59.8399C74.4351 62.8287 73.4857 65.7824 71.7627 68.2438C70.0045 70.7052 67.5431 72.604 64.6949 73.6238C64.5191 73.6941 64.3433 73.8347 64.2378 73.9754C64.1323 74.1512 64.062 74.327 64.062 74.538V75.9094C64.062 76.0148 64.062 76.1555 64.1323 76.261C64.1675 76.3665 64.273 76.472 64.3785 76.5423C64.484 76.6126 64.5895 76.6478 64.7301 76.6829C64.8356 76.6829 64.9762 76.6829 65.0817 76.6126C68.6684 75.4874 71.7979 73.237 74.0483 70.213C76.2636 67.1889 77.4591 63.5672 77.4591 59.8047C77.4591 56.0774 76.2636 52.4205 74.0483 49.3965C71.7979 46.4076 68.6684 44.1572 65.0817 43.032Z" fill="#657786"/>
<defs>
<linearGradient id="paint0_linear_1_8010" x1="15.362" y1="28.6011" x2="35.9701" y2="105.01" gradientUnits="userSpaceOnUse">
<stop stop-color="#27D3A2"/>
<stop offset="1" stop-color="#9388FD"/>
</linearGradient>
</defs>
</svg>
