<svg width="120" height="120" viewBox="0 0 120 120" fill="none" xmlns="http://www.w3.org/2000/svg">
<circle cx="60" cy="60" r="60" fill="#EDF0F2"/>
<circle cx="59.9832" cy="60.0158" r="44.9734" fill="#C8D2D9"/>
<path d="M88.5355 94.7216C81.6787 100.383 73.2748 103.864 64.4137 104.708C52.5638 105.868 40.7139 102.282 31.466 94.7216C22.2533 87.1615 16.4163 76.261 15.2208 64.3759C14.3417 55.5149 16.0998 46.6187 20.2842 38.7773C24.4686 30.936 30.9034 24.5012 38.7448 20.3168C46.5861 16.1324 55.4823 14.3391 64.3434 15.2181C73.2044 16.0972 81.5732 19.5432 88.4652 25.2044L79.3931 36.2807C74.7165 32.448 68.9849 30.0569 62.9369 29.4943C56.8888 28.8965 50.8408 30.1272 45.496 32.9754C40.1513 35.8236 35.7911 40.219 32.9077 45.5638C30.0595 50.9085 28.864 56.9917 29.4617 63.0046C30.2705 71.0921 34.2439 78.5466 40.5381 83.6804C46.8322 88.8493 54.9197 91.2756 63.0072 90.4669C69.0552 89.8691 74.7516 87.478 79.4283 83.6452L88.5355 94.7216Z" fill="url(#paint0_linear_1_8021)"/>
<path d="M60.1237 96.8314C80.4127 96.8314 96.8338 80.3751 96.8338 60.1213C96.8338 39.8322 80.4127 23.376 60.1237 23.376C39.8347 23.376 23.3784 39.8322 23.3784 60.1213C23.3784 80.4103 39.8347 96.8314 60.1237 96.8314Z" fill="white"/>
<path fill-rule="evenodd" clip-rule="evenodd" d="M63.4292 61.1057C63.2182 61.1057 62.2337 61.1761 59.9833 61.1761C58.1899 61.1761 56.9241 61.1057 56.467 61.1057C49.5399 60.7893 44.4061 59.6289 44.4061 58.1872C44.4061 56.7455 49.575 55.5851 56.467 55.2687V59.9454C56.9241 59.9805 58.2251 60.0508 60.0184 60.0508C62.1634 60.0508 63.2534 59.9454 63.4292 59.9454V55.3038C70.3212 55.6203 75.4901 56.7807 75.4901 58.2224C75.4901 59.6289 70.3563 60.8244 63.4292 61.1057ZM63.4292 54.8116V50.6623H73.0639V44.333H46.8675V50.6623H56.5021V54.8116C48.6608 55.1632 42.7886 56.7104 42.7886 58.5388C42.7886 60.3673 48.6608 61.9145 56.5021 62.2661V75.5929H63.4644V62.2661C71.2706 61.9145 77.1428 60.3673 77.1428 58.5388C77.1428 56.7104 71.2706 55.1632 63.4292 54.8116Z" fill="#283947"/>
<defs>
<linearGradient id="paint0_linear_1_8021" x1="15.362" y1="28.6011" x2="35.9701" y2="105.01" gradientUnits="userSpaceOnUse">
<stop stop-color="#27D3A2"/>
<stop offset="1" stop-color="#9388FD"/>
</linearGradient>
</defs>
</svg>
