<svg width="120" height="120" viewBox="0 0 120 120" fill="none" xmlns="http://www.w3.org/2000/svg">
<circle cx="60" cy="60" r="60" fill="black"/>
<path d="M60.1114 16.4942C59.5606 15.2555 61.5526 14.3772 62.1034 15.5558C75.0514 37.7472 87.9994 59.9499 100.947 82.1751C100.257 82.1751 99.593 81.9498 98.929 81.8447L64.3709 74.9906C63.239 74.9343 62.99 73.1138 64.0954 72.8436L77.6546 69.1275C77.9818 69.045 78.2549 68.8215 78.3994 68.518C78.5439 68.2145 78.5447 67.8626 78.4016 67.5585L60.1114 16.4642V16.4905V16.4942Z" fill="white"/>
<path d="M58.1232 16.6068C58.2477 16.787 58.3571 16.9822 58.4514 17.1849C62.5486 28.746 66.7514 40.3072 70.8184 51.8683C71.1806 52.8292 69.8224 53.6288 69.1584 52.9118C65.6724 49.2783 62.3524 45.536 58.923 41.9025C58.3684 41.407 57.5648 41.7373 57.2064 42.259L21.573 83.9092C21.158 84.3484 20.7996 85.009 20.1054 85.0916C19.6074 85.0916 19.2754 84.705 19 84.3221V83.684C32.0574 61.3349 45.0997 38.9784 58.1232 16.6068Z" fill="white"/>
<path d="M47.2198 56.2713C47.8838 56.0799 48.7666 56.5453 48.5478 57.3448C47.1632 62.1344 45.6994 66.8978 44.2582 71.6574C44.0394 72.2655 44.5902 72.8135 45.1712 72.8435C63.8198 76.5596 82.4684 80.4108 101.113 84.1269C101.475 84.1832 101.724 84.4572 102 84.6787V85.4482L101.472 86H22.3198C30.6198 76.0904 38.8934 66.1245 47.2198 56.2713Z" fill="white"/>
</svg>
