<svg width="120" height="120" viewBox="0 0 120 120" fill="none" xmlns="http://www.w3.org/2000/svg">
<circle cx="60" cy="60" r="60" fill="#EDF0F4"/>
<path d="M87.6975 76.0344C82.1595 85.5799 71.8298 92 60.0001 92C42.327 92 28 77.6727 28 60C28 42.3265 42.327 28 60.0001 28C71.8413 28 82.1797 34.432 87.7137 43.9929L94.6376 39.983C87.7188 28.0367 74.7983 20 60.0001 20C37.9086 20 20 37.9085 20 60C20 82.0915 37.9086 100 60.0001 100C74.7908 100 87.7054 91.9712 94.6265 80.0352L87.6975 76.0344Z" fill="#202020"/>
<path d="M100 55.9999L66.9211 55.9999C65.5372 53.6109 62.9594 51.9999 60 51.9999C55.5816 51.9999 52 55.5815 52 59.9999C52 64.4182 55.5816 67.9999 60 67.9999C62.9594 67.9999 65.5372 66.3888 66.9211 63.9999L100 63.9999V55.9999Z" fill="#202020"/>
</svg>
