<svg width="120" height="120" viewBox="0 0 120 120" fill="none" xmlns="http://www.w3.org/2000/svg">
<circle cx="60" cy="60" r="60" fill="#2992FB"/>
<path fill-rule="evenodd" clip-rule="evenodd" d="M72.2802 46.57L71.1302 47.72C68.283 45.3619 64.6971 44.0804 61.0002 44.1C52.6281 44.1007 45.6832 50.5782 45.1002 58.93H43.4502C44.0068 49.6531 51.7066 42.4227 61.0002 42.45C65.1277 42.4713 69.1192 43.9279 72.2902 46.57H72.2802ZM61.0002 48.3C64.7803 48.2996 68.333 50.1057 70.5602 53.16L71.7102 52C68.2518 47.3898 62.2315 45.5096 56.7641 47.3323C51.2967 49.1551 47.609 54.2718 47.609 60.035C47.609 65.7983 51.2967 70.9149 56.7641 72.7377C62.2315 74.5604 68.2518 72.6803 71.7102 68.07L70.5602 66.92C67.319 71.4489 61.3472 73.0862 56.2494 70.8436C51.1516 68.601 48.3234 63.0925 49.4718 57.6429C50.6203 52.1934 55.431 48.2947 61.0002 48.3ZM73.6102 47.81L72.4502 49C72.8302 49.3926 73.1874 49.8067 73.5202 50.24L74.6702 49C74.3376 48.5665 73.9803 48.1525 73.6002 47.76L73.6102 47.81ZM43.3602 61.15C43.7721 67.7709 47.8778 73.5954 53.9751 76.2085C60.0725 78.8216 67.1217 77.7779 72.2002 73.51L71.0002 72.36C68.1664 74.7166 64.5958 76.0046 60.9102 76C52.527 76.0039 45.5735 69.5136 45.0002 61.15H43.3602ZM72.4402 71.15L73.5902 72.3C73.9755 71.8883 74.3361 71.4542 74.6702 71L73.5202 69.85C73.1875 70.2834 72.8302 70.6974 72.4502 71.09L72.4402 71.15ZM61.0002 79.94C49.9876 79.94 41.0602 71.0126 41.0602 60C41.0602 48.9875 49.9876 40.06 61.0002 40.06C66.9357 40.057 72.5592 42.7182 76.3202 47.31L77.4702 46.16C71.0405 38.5082 60.1949 36.2786 51.2681 40.7733C42.3413 45.268 37.6738 55.3085 39.9919 65.0305C42.3099 74.7525 51.0057 81.6068 61.0002 81.59C67.3776 81.6079 73.4265 78.7633 77.4802 73.84L76.3302 72.69C72.5907 77.3149 66.9476 79.9837 61.0002 79.94Z" fill="white"/>
</svg>
