<svg width="120" height="120" viewBox="0 0 120 120" fill="none" xmlns="http://www.w3.org/2000/svg">
<path d="M60 0C93.132 0 120 26.868 120 60C120 93.132 93.132 120 60 120C26.868 120 0 93.132 0 60C0 26.868 26.868 0 60 0Z" fill="#1E0B49"/>
<path d="M38.952 48C41.604 43.488 45.852 40.812 49.584 40.884L51.096 38.328C53.7 33.9 52.8 28.5 49.08 26.316C45.36 24.132 40.212 25.98 37.596 30.384L36.096 32.94C37.968 36.168 37.68 41.16 35.028 45.696C32.376 50.232 28.128 52.884 24.396 52.812L22.884 55.368C20.28 59.796 21.18 65.196 24.9 67.38C28.608 69.564 33.768 67.728 36.384 63.312L37.884 60.756C36.012 57.528 36.3 52.512 38.952 48Z" fill="#1E90FF"/>
<path d="M35.0398 73.908C32.3878 69.396 28.1398 66.72 24.4078 66.792L22.8958 64.236C20.2918 59.808 21.1918 54.408 24.9118 52.224C28.6318 50.04 33.7798 51.864 36.3958 56.292L37.8958 58.848C36.0238 62.076 36.3118 67.068 38.9638 71.604C41.6278 76.14 45.8638 78.792 49.5958 78.72L51.1078 81.276C53.7118 85.704 52.8118 91.104 49.0918 93.288C45.3838 95.472 40.2238 93.648 37.6078 89.22L36.1078 86.664C37.9678 83.436 37.6798 78.42 35.0398 73.908Z" fill="url(#paint0_linear_1_8092)"/>
<path d="M65.2439 73.908C62.5919 69.396 58.3439 66.72 54.6119 66.792L53.0999 64.236C50.4959 59.808 51.3959 54.408 55.1159 52.224C58.8359 50.04 63.9839 51.864 66.5879 56.292L68.0999 58.848C66.2279 62.076 66.5159 67.068 69.1679 71.604C71.8319 76.14 76.0679 78.792 79.7999 78.72L81.3119 81.276C83.9159 85.704 83.0159 91.104 79.2959 93.288C75.5879 95.472 70.4279 93.648 67.8119 89.22L66.3119 86.664C68.1959 83.436 67.9199 78.42 65.2439 73.908Z" fill="url(#paint1_linear_1_8092)"/>
<path d="M84.1317 74.3519C86.7837 69.8519 91.0317 67.1639 94.7637 67.2359L96.2757 64.6799C98.8797 60.2519 97.9797 54.8519 94.2597 52.6679C90.5397 50.4839 85.3917 52.3199 82.7757 56.7359L81.2757 59.2919C83.1477 62.5199 82.8597 67.5119 80.2077 72.0479C77.5437 76.5839 73.3077 79.2359 69.5757 79.1639L68.0637 81.7199C65.4597 86.1479 66.3597 91.5479 70.0797 93.7319C73.7997 95.9159 78.9477 94.0799 81.5637 89.6639L83.0637 87.1079C81.1677 83.8679 81.4797 78.8519 84.1317 74.3519Z" fill="url(#paint2_linear_1_8092)"/>
<path d="M44.628 24.6C39.6 24.6 35.532 28.74 35.652 33.792C35.76 38.556 39.648 42.432 44.412 42.552C49.464 42.672 53.604 38.604 53.604 33.576C53.604 28.62 49.584 24.6 44.628 24.6Z" fill="#1E90FF"/>
<path d="M44.6277 77.28C39.5997 77.28 35.5437 81.42 35.6637 86.484C35.7837 91.344 39.8157 95.256 44.6757 95.232C49.6077 95.208 53.6037 91.212 53.6157 86.268C53.6157 81.312 49.5957 77.28 44.6277 77.28Z" fill="#4B0082"/>
<path d="M74.712 24.6C69.684 24.6 65.616 28.74 65.736 33.792C65.844 38.556 69.732 42.432 74.496 42.552C79.548 42.672 83.688 38.604 83.688 33.576C83.688 28.62 79.668 24.6 74.712 24.6Z" fill="#1E90FF"/>
<path d="M74.712 77.28C69.684 77.28 65.616 81.42 65.736 86.472C65.844 91.332 69.888 95.256 74.748 95.232C79.68 95.208 83.676 91.212 83.688 86.268C83.688 81.312 79.68 77.292 74.712 77.28Z" fill="#4B0082"/>
<path d="M59.46 50.9399C54.432 50.9399 50.364 55.0799 50.484 60.1319C50.592 64.8959 54.48 68.7719 59.244 68.8919C64.296 69.0119 68.436 64.9439 68.436 59.9159C68.436 54.9599 64.416 50.9399 59.46 50.9399Z" fill="#8B008B"/>
<path d="M89.88 50.9399C84.852 50.9399 80.784 55.0679 80.904 60.1319C81.012 64.8959 84.9 68.7839 89.652 68.8919C94.704 69.0119 98.844 64.9559 98.844 59.9279C98.844 54.9599 94.836 50.9519 89.88 50.9399Z" fill="#8B008B"/>
<path d="M29.0401 50.9399C24.0121 50.9399 19.9441 55.0799 20.0641 60.1319C20.1721 64.8959 24.0601 68.7719 28.8241 68.8919C33.8761 69.0119 38.0161 64.9439 38.0161 59.9159C38.0161 54.9599 33.9961 50.9399 29.0401 50.9399Z" fill="#1E90FF"/>
<defs>
<linearGradient id="paint0_linear_1_8092" x1="29.5985" y1="71.7812" x2="38.9526" y2="80.2374" gradientUnits="userSpaceOnUse">
<stop offset="0.21" stop-color="#1E90FF"/>
<stop offset="1" stop-color="#4B0082"/>
</linearGradient>
<linearGradient id="paint1_linear_1_8092" x1="60.0602" y1="71.4828" x2="68.8293" y2="79.437" gradientUnits="userSpaceOnUse">
<stop stop-color="#8B008B"/>
<stop offset="1" stop-color="#4B0082"/>
</linearGradient>
<linearGradient id="paint2_linear_1_8092" x1="81.9887" y1="63.3357" x2="72.6435" y2="70.4219" gradientUnits="userSpaceOnUse">
<stop stop-color="#8B008B"/>
<stop offset="1" stop-color="#4B0082"/>
</linearGradient>
</defs>
</svg>
