<svg width="120" height="120" viewBox="0 0 120 120" fill="none" xmlns="http://www.w3.org/2000/svg">
<circle cx="60" cy="60" r="60" fill="#2A2463"/>
<path fill-rule="evenodd" clip-rule="evenodd" d="M50.8797 119.311C49.0106 109.751 48.9342 99.9213 52.6258 91.8202C56.0205 84.3713 59.9718 78.5917 63.4783 73.4633C71.2576 62.0849 76.8485 53.908 69.3173 37.7999C67.281 33.4449 65.1715 29.4271 63.1881 25.6504C58.2242 16.1984 54.0535 8.25617 53.8163 0.314889C55.8492 0.106762 57.9122 0.00012207 60 0.00012207C93.1369 0.00012207 120 26.863 120 60C120 93.1369 93.1369 120 60 120C56.8995 120 53.8535 119.765 50.8797 119.311Z" fill="#954C5D"/>
<path fill-rule="evenodd" clip-rule="evenodd" d="M54.5349 0.245654C55.1658 8.28826 57.8305 17.0936 64.4614 24.4472C81.1534 42.9598 90.8649 54.1888 90.8649 70.5772C90.8649 83.9389 79.1636 106.38 58.0638 119.969C58.7066 119.99 59.3518 120 60 120C93.1369 120 120 93.1369 120 60C120 26.863 93.1369 0.00012207 60 0.00012207C58.1579 0.00012207 56.335 0.0831443 54.5349 0.245654Z" fill="#ED7B69"/>
<path fill-rule="evenodd" clip-rule="evenodd" d="M112.069 89.8329C112.212 88.3102 112.328 86.7468 112.413 85.1443C113.619 62.4622 100.629 48.6057 89.763 37.0149C86.9626 34.0275 84.3028 31.1906 82.064 28.392C76.6192 21.5859 72.9328 10.5793 70.6831 0.947998C98.7233 5.98708 120 30.5087 120 59.9996C120 70.8595 117.115 81.0454 112.069 89.8329Z" fill="#EC877B"/>
</svg>
