<svg width="120" height="120" viewBox="0 0 120 120" fill="none" xmlns="http://www.w3.org/2000/svg">
<circle cx="60" cy="60" r="60" fill="#EDF0F4"/>
<path d="M56.0173 65.502H71.7341C77.5735 65.502 82.3568 60.7807 82.3568 54.8792C82.3568 48.9777 77.6356 44.3185 71.7962 44.3185H66.7643L56.0173 35.0003H71.7341C82.7296 34.9382 91.6751 43.8216 91.6751 54.8171C91.7372 62.955 86.7675 70.2853 79.1886 73.3293L91.6129 84.0763H77.4492L56.0173 65.502Z" fill="url(#paint0_linear_1_843)"/>
<path d="M63.7204 53.6367H48.0037C42.1643 53.6367 37.3809 58.358 37.3809 64.2595C37.3809 70.1611 42.1021 74.8823 48.0037 74.8823H53.0355L63.7204 84.2005H48.0037C37.0082 84.2005 28.0627 75.3171 28.0006 64.3838C27.9385 56.1837 32.9082 48.8534 40.487 45.8094L28.0627 35.0003H42.2885L63.7204 53.6367Z" fill="#4971FA"/>
<path d="M63.7204 53.6367H48.0037C42.1643 53.6367 37.3809 58.358 37.3809 64.2595C37.3809 70.1611 42.1021 74.8823 48.0037 74.8823H53.0355L63.7204 84.2005H48.0037C37.0082 84.2005 28.0627 75.3171 28.0006 64.3838C27.9385 56.1837 32.9082 48.8534 40.487 45.8094L28.0627 35.0003H42.2885L63.7204 53.6367Z" fill="url(#paint1_linear_1_843)"/>
<defs>
<linearGradient id="paint0_linear_1_843" x1="56.0477" y1="84.0491" x2="91.6617" y2="84.0491" gradientUnits="userSpaceOnUse">
<stop stop-color="#62D0C9"/>
<stop offset="1" stop-color="#7DE2AC"/>
</linearGradient>
<linearGradient id="paint1_linear_1_843" x1="28.1119" y1="84.0967" x2="63.7262" y2="84.0967" gradientUnits="userSpaceOnUse">
<stop stop-color="#3268FB"/>
<stop offset="1" stop-color="#4795FA"/>
</linearGradient>
</defs>
</svg>
