<svg width="120" height="120" viewBox="0 0 120 120" fill="none" xmlns="http://www.w3.org/2000/svg">
<circle cx="60" cy="60" r="60" fill="#3C80F1"/>
<path d="M60 15C39.5772 15.0149 23.0224 31.546 23 51.9449C23.0187 53.9367 23.2427 55.921 23.6646 57.8681C23.7082 58.0552 23.8426 58.2081 24.0227 58.2755C24.2027 58.343 24.4046 58.316 24.5606 58.2037C25.9741 57.1926 27.6684 56.6476 29.4069 56.6446C29.577 56.6503 29.7407 56.5794 29.8528 56.4515C29.9649 56.3236 30.0137 56.1521 29.9856 55.9844C29.7397 54.6656 29.6123 53.3275 29.6047 51.986C29.6047 35.2177 43.2115 21.6244 59.9963 21.6244C76.781 21.6244 90.3878 35.2177 90.3878 51.986C90.3878 68.7333 68.942 90.1245 61.2657 97.6776C60.5628 98.3666 59.4372 98.3666 58.7343 97.6776C55.4845 94.5092 52.3307 91.244 49.2771 87.8865H49.1278C46.1909 87.5981 43.3078 86.9079 40.5591 85.835L40.0514 85.6299C39.8091 85.5183 39.5217 85.5904 39.361 85.8031C39.2002 86.0158 39.2094 86.3116 39.383 86.5139C44.1357 92.1877 49.1791 97.6121 54.4929 102.765C57.5513 105.745 62.4301 105.745 65.4884 102.765C79.004 89.427 97 69.6956 97 51.9449C96.9776 31.5422 80.4228 15.0149 60 15" fill="white"/>
<path fill-rule="evenodd" clip-rule="evenodd" d="M81.487 49.9494C81.767 51.2639 81.9282 52.6008 81.9687 53.9441H81.9761C81.9772 54.0344 81.9796 54.1282 81.9821 54.2227C81.9885 54.4719 81.9951 54.725 81.9761 54.9251V55.8613C81.9537 56.4954 81.9201 57.0959 81.8679 57.7599C81.6857 60.4083 81.0741 63.0096 80.0571 65.4622C78.9842 67.8705 77.5488 70.1007 75.8008 72.0753L75.7597 72.0417C72.5913 75.7764 68.5757 78.701 64.0474 80.5721C59.501 82.506 54.5447 83.2801 49.6245 82.825C47.146 82.5811 44.7126 81.9987 42.3925 81.0943C40.0809 80.1887 37.9011 78.9781 35.911 77.4949C32.0522 74.5578 28.8543 70.8433 26.5247 66.5923C25.7533 65.1741 26.1231 63.4064 27.3984 62.4155C28.6738 61.4245 30.4797 61.5016 31.6658 62.5976C33.6655 64.4343 36.2093 65.5708 38.9128 65.8351C39.6707 65.906 40.4286 65.8463 41.1641 65.6598C41.6567 65.5478 42.1041 65.2905 42.4485 64.9213C42.5894 64.751 42.7028 64.5597 42.7845 64.3544C42.8891 64.0784 42.96 63.7949 42.9973 63.5039C43.0571 63.075 43.0869 62.6423 43.0869 62.2097V37.4802C43.2761 34.7331 44.8674 32.2767 47.2984 30.979C48.1684 30.5165 49.1167 30.2181 50.0912 30.1062C50.3339 30.054 50.5803 30.054 50.8192 30.054H58.279C58.6523 30.0913 58.9809 30.0913 59.3206 30.0913C62.0191 30.2975 64.6567 30.998 67.1015 32.1576C71.8861 34.4065 75.8873 38.0348 78.5898 42.5753C79.9531 44.8583 80.9319 47.3495 81.487 49.9494ZM75.293 57.2227C75.3415 56.7155 75.3826 56.2045 75.3826 55.6823L75.3789 55.686V54.1717C75.3527 53.2131 75.2407 52.2582 75.0428 51.3183C74.845 50.3783 74.5687 49.4458 74.2214 48.5507C73.8593 47.648 73.4262 46.7752 72.9334 45.9397C70.9077 42.5415 67.9141 39.8235 64.3349 38.133C62.6174 37.3124 60.7618 36.8163 58.8651 36.6671H50.864C50.2602 36.7473 49.7766 37.2064 49.6655 37.8047V37.9316C49.6638 37.9552 49.6638 37.9788 49.6655 38.0024V62.2097C49.6917 62.9258 49.673 63.6457 49.5983 64.3544C49.4789 65.2048 49.2586 66.0328 48.9338 66.8273C48.2384 68.5669 46.9893 70.0297 45.3794 70.9899C44.6347 71.4345 43.8335 71.777 42.9973 72.0082C42.0714 72.2655 41.1193 72.411 40.1598 72.4408C43.1307 74.5875 46.6181 75.9092 50.2667 76.2715C54.0953 76.609 57.948 75.9912 61.4787 74.4737C65.0439 72.9683 68.2315 70.6934 70.8127 67.812L70.7753 67.7784C72.0784 66.3126 73.1536 64.6602 73.9601 62.8699C74.7085 61.0723 75.1587 59.1649 75.293 57.2227Z" fill="white"/>
</svg>
