<svg width="120" height="120" viewBox="0 0 120 120" fill="none" xmlns="http://www.w3.org/2000/svg">
<circle cx="60" cy="60" r="60" fill="#EDF0F4"/>
<path d="M33.0512 28.3779L44.2205 21V80.1254C55.1848 79.4593 71.6313 76.2827 73.3221 60.0924C73.3221 60.0924 75.8838 70.032 69.9918 77.9735C63.6899 86.4785 49.0878 92.2169 33 92.2169V28.3779H33.0512Z" fill="url(#paint0_linear_1_5841)"/>
<path d="M55.5435 34.8335V44.6706C60.1034 45.9003 70.6066 49.9479 73.4245 60.1949C73.4245 60.1949 73.4758 60.3486 73.527 60.656C73.527 60.7585 73.5783 60.8097 73.5783 60.9122C74.0394 63.269 75.0641 71.2617 70.0943 78.0247C63.9973 86.4273 48.9854 92.2681 33.1025 92.2681L46.936 98.3139C46.936 98.3139 76.3962 97.904 85.3623 71.979C86.1821 69.7246 86.6432 67.3678 86.7457 64.9598C85.8747 46.6176 70.8628 36.473 55.5435 34.8335V34.8335Z" fill="url(#paint1_linear_1_5841)"/>
<path d="M80.29 35.7045C73.9881 27.4556 60.0009 21 44.2717 21V80.1254C46.2699 80.0229 48.473 79.818 50.7786 79.4593C51.8545 79.3056 52.9305 79.1007 54.0064 78.8445C54.5188 78.742 55.0823 78.5883 55.5435 78.4858V34.8335C70.8628 36.473 86.0284 46.6688 86.6944 65.0622C86.6944 65.0622 90.3321 48.9232 80.29 35.7045Z" fill="url(#paint2_linear_1_5841)"/>
<defs>
<linearGradient id="paint0_linear_1_5841" x1="33.0634" y1="92.2756" x2="73.9195" y2="92.2756" gradientUnits="userSpaceOnUse">
<stop stop-color="#665AFE"/>
<stop offset="1" stop-color="#F1B184"/>
</linearGradient>
<linearGradient id="paint1_linear_1_5841" x1="56.8806" y1="28.0978" x2="19.7853" y2="67.3793" gradientUnits="userSpaceOnUse">
<stop stop-color="#5C3598"/>
<stop offset="0.995" stop-color="#CCE0F4"/>
</linearGradient>
<linearGradient id="paint2_linear_1_5841" x1="34.2579" y1="96.5073" x2="91.86" y2="85.3763" gradientUnits="userSpaceOnUse">
<stop stop-color="#B7FEA8"/>
<stop offset="0.16" stop-color="#B5F9AA"/>
<stop offset="0.321" stop-color="#B0EDB0"/>
<stop offset="0.481" stop-color="#A7D9BC"/>
<stop offset="0.642" stop-color="#9CBDCB"/>
<stop offset="0.803" stop-color="#8D99E0"/>
<stop offset="0.962" stop-color="#7A6DF8"/>
<stop offset="1" stop-color="#7662FF"/>
</linearGradient>
</defs>
</svg>
