<svg width="120" height="120" viewBox="0 0 120 120" fill="none" xmlns="http://www.w3.org/2000/svg">
<circle cx="60" cy="60" r="60" fill="#EDF0F4"/>
<path opacity="0.25" d="M54.9941 57.158L46.877 43.1148L38.6241 28.9316C38.1522 28.1312 37.4978 27.4537 36.7142 26.9545H36.6459C35.8091 27.439 35.124 28.1473 34.6677 28.9998L28.5292 39.6359C27.6426 41.1521 27.6426 43.0286 28.5292 44.5449L35.8955 57.2942C36.4412 58.1804 36.6459 59.2031 36.6459 60.2257C36.64 61.2497 36.3823 62.2565 35.8955 63.1573L28.5974 75.7694C27.7109 77.2857 27.7109 79.1622 28.5974 80.6784L34.736 91.3144C35.2134 92.1327 35.8955 92.8824 36.7142 93.3598H36.7842C37.6028 92.8824 38.2167 92.2006 38.6941 91.3827L46.8791 77.2016L54.9941 63.0212C56.0169 61.2006 56.0169 58.9786 54.9941 57.158Z" fill="url(#paint0_linear_1_8171)"/>
<path opacity="0.25" d="M94.1455 56.7489L85.9605 42.6356L77.5711 28.1136C77.184 27.4552 76.6747 26.8767 76.0707 26.4091C75.7294 26.1365 75.3882 26 74.9791 26C70.6818 26 67.7488 26.1365 65.5663 26.1365C65.2254 26.1365 65.0206 26.5456 65.0889 26.8865L67.2032 38.7514C67.2032 38.8879 67.2032 39.024 67.135 39.1605C66.3163 40.6606 66.3846 42.5012 67.2715 44.0013L74.7743 57.0912C75.32 58.0456 75.5929 59.0683 75.5929 60.091C75.5929 61.1136 75.32 62.1363 74.7743 63.0908L67.2032 76.1806C66.3167 77.6807 66.3167 79.5213 67.0667 81.0214C67.1367 81.1579 67.1367 81.294 67.1367 81.4305L65.0224 93.2254C64.9524 93.5663 65.1589 93.9754 65.4998 93.9754C67.478 93.9754 64.6811 94.1798 75.1852 94.1798C75.3899 94.1798 75.6626 94.1098 75.8673 94.0433C76.6177 93.7707 77.0951 92.8841 77.5043 92.1344L85.894 77.5442L94.0108 63.431C95.3057 61.3845 95.3057 58.8625 94.1473 56.7489" fill="url(#paint1_linear_1_8171)"/>
<path d="M90.8032 57.158L74.5015 28.9316C73.4784 27.1592 71.5685 26 69.4542 26H36.8507C35.7594 26 34.7364 26.3409 33.7812 26.8862V26.9544C34.5648 27.4537 35.2193 28.1312 35.6912 28.9316L43.8762 43.1148C44.6266 42.7739 45.5131 42.5695 46.3317 42.5695H59.8367C61.951 42.5695 63.8616 43.6604 64.8839 45.501L71.6364 57.158C72.6595 58.9307 72.6595 61.1805 71.6364 63.0215L64.8839 74.6802C63.8609 76.4529 61.8827 77.6117 59.8367 77.6117H46.3996C45.5514 77.609 44.7137 77.423 43.9441 77.0664L35.7594 91.2476C35.2875 92.0479 34.6331 92.7254 33.8495 93.2247V93.2947C34.736 93.84 35.8277 94.1809 36.919 94.1809H69.5889C71.7033 94.1809 73.6139 93.0899 74.6362 91.2493L90.9387 63.0211C91.8945 61.1805 91.8945 58.9986 90.8032 57.158Z" fill="url(#paint2_linear_1_8171)"/>
<path d="M51.9933 57.158L43.8766 43.1148L35.6916 28.9316C35.2197 28.1312 34.5653 27.4537 33.7817 26.9545H33.7148C32.878 27.439 32.1929 28.1473 31.7366 28.9998L25.6649 39.5676C24.7784 41.0839 24.7784 42.9604 25.6649 44.4766L33.0313 57.2259C33.5769 58.1121 33.7817 59.1348 33.7817 60.1575C33.7758 61.1814 33.5181 62.1882 33.0313 63.0891L25.6649 75.7694C24.7784 77.2857 24.7784 79.1622 25.6649 80.6784L31.8038 91.3155C32.2812 92.1338 32.9634 92.8835 33.782 93.3609H33.852C34.6707 92.8835 35.2845 92.2017 35.7619 91.3837L43.9452 77.2044L52.0616 63.1594C53.0846 61.1805 53.0846 58.9987 51.9933 57.158Z" fill="url(#paint3_linear_1_8171)"/>
<defs>
<linearGradient id="paint0_linear_1_8171" x1="27.9261" y1="93.2704" x2="55.748" y2="93.2704" gradientUnits="userSpaceOnUse">
<stop stop-color="#00BA96"/>
<stop offset="0.52" stop-color="#00D9AF"/>
<stop offset="1" stop-color="#00D9AF"/>
</linearGradient>
<linearGradient id="paint1_linear_1_8171" x1="65.0563" y1="94.1804" x2="95.0478" y2="94.1804" gradientUnits="userSpaceOnUse">
<stop stop-color="#008D85"/>
<stop offset="1" stop-color="#00FFE0"/>
</linearGradient>
<linearGradient id="paint2_linear_1_8171" x1="33.7812" y1="94.1801" x2="91.6397" y2="94.1801" gradientUnits="userSpaceOnUse">
<stop stop-color="#008D94"/>
<stop offset="1" stop-color="#00FFE0"/>
</linearGradient>
<linearGradient id="paint3_linear_1_8171" x1="24.9999" y1="93.361" x2="52.8207" y2="93.361" gradientUnits="userSpaceOnUse">
<stop stop-color="#00BA96"/>
<stop offset="0.52" stop-color="#00D9AF"/>
<stop offset="1" stop-color="#00FAAF"/>
</linearGradient>
</defs>
</svg>
