<svg width="120" height="120" viewBox="0 0 120 120" fill="none" xmlns="http://www.w3.org/2000/svg">
<circle cx="60" cy="60" r="60" fill="#FFF706"/>
<path fill-rule="evenodd" clip-rule="evenodd" d="M60.006 25.1754C59.2869 25.4324 58.5721 26.2473 58.119 27.3264C57.8731 27.9119 57.4888 29.7002 57.482 30.2897C57.4784 30.6045 57.4526 30.6309 57.3152 30.4601C57.2258 30.3488 56.8966 30.0578 56.5835 29.8134C56.1349 29.4632 55.8512 29.3542 55.2449 29.2992C54.5512 29.2362 54.4335 29.2648 54.0485 29.5887C53.495 30.0543 53.2997 30.7861 53.3877 32.0634C53.4586 33.0903 53.8225 34.2177 54.2991 34.887C54.4467 35.0944 54.5352 35.3164 54.4957 35.3803C54.456 35.4444 54.0469 35.5693 53.5864 35.6579C47.5631 36.8172 42.353 40.4041 38.9913 45.7059C38.124 47.0739 36.9854 49.2844 36.6021 50.344C35.889 52.3164 35.5559 53.2962 35.3772 53.9468C34.5165 57.0814 33.8862 60.9505 33.8339 63.4208L33.8013 64.9553L37.3733 64.9908L40.9451 65.0264L41.0761 64.6819C41.148 64.4924 41.207 63.9735 41.207 63.5287C41.207 60.9897 42.4538 55.8168 43.7075 53.1542C44.5146 51.4401 45.8409 49.4564 46.9988 48.2315C48.5646 46.5753 51.1445 44.9946 53.4831 44.259C55.4559 43.6384 56.6923 43.4808 59.5545 43.485C61.8914 43.4885 62.6047 43.5381 63.8505 43.7835C65.4508 44.0988 66.9782 44.5664 68.1611 45.1033C68.5648 45.2866 69.0151 45.4907 69.1619 45.557C69.3087 45.6235 69.6089 45.7963 69.8291 45.9412C70.0492 46.0861 70.3194 46.246 70.4295 46.2967C71.4823 46.7808 74.1836 49.3553 75.1959 50.8394C75.8596 51.8124 76.8788 53.694 77.1682 54.4806C78.3152 57.598 78.7107 59.5868 78.9197 63.2873C78.9694 64.169 79.0694 64.8642 79.1546 64.9211C79.2363 64.9757 80.8642 65.0057 82.7724 64.9879L86.2417 64.9553L86.2855 63.4208C86.351 61.1253 85.9363 57.262 85.432 55.4696C85.3269 55.0962 85.2409 54.7057 85.2409 54.6017C85.2409 54.2882 84.2419 51.2929 83.7095 50.0105C81.923 45.707 78.9122 41.933 75.2332 39.3859C74.4294 38.8292 73.9614 38.5436 72.6707 37.8221C71.5066 37.1712 68.2585 35.9441 67.1614 35.7407C66.8684 35.6863 66.5864 35.6158 66.5348 35.5839C66.4832 35.552 66.5951 35.2189 66.7837 34.8435C67.7846 32.8506 67.7106 30.1594 66.6357 29.455C66.0998 29.1039 65.1158 29.2477 64.4511 29.7743C64.1587 30.0058 63.8878 30.1953 63.8493 30.1953C63.8106 30.1953 63.7374 29.7899 63.6867 29.2946C63.5769 28.2223 62.9895 26.721 62.3999 26.0056C61.9932 25.5123 61.111 24.9939 60.6887 25.0001C60.5786 25.0017 60.2714 25.0805 60.006 25.1754ZM54.1543 52.91C53.9731 53.0054 53.6878 53.2866 53.5205 53.5348C53.2366 53.9563 53.2163 54.1231 53.2163 56.0436C53.2163 58.141 53.2686 58.4113 53.7835 58.9771C54.3965 59.6507 55.5209 59.474 55.9953 58.6295C56.2576 58.1631 56.2853 57.92 56.2853 56.0903C56.2853 53.9779 56.2074 53.6127 55.6483 53.1068C55.2992 52.7909 54.5648 52.6941 54.1543 52.91ZM65.1524 52.9335C64.3681 53.2751 64.2915 53.556 64.2915 56.0898C64.2915 58.1682 64.3159 58.41 64.5606 58.7537C64.9258 59.2665 65.614 59.4864 66.224 59.2851C67.1282 58.9866 67.2271 58.6715 67.2271 56.0898C67.2271 53.5855 67.1598 53.3253 66.4132 52.9392C65.9577 52.7037 65.6829 52.7024 65.1524 52.9335ZM30.0874 68.3135C29.9762 68.4246 29.9685 82.5358 30.0794 82.8248C30.1501 83.0091 30.5639 83.0359 33.342 83.0359C37.4437 83.0359 38.3165 82.865 40.045 81.7234C42.0674 80.3876 43.2085 78.1898 43.2085 75.6302C43.2085 72.1858 41.1247 69.4424 37.7467 68.4396C37.1624 68.2661 36.3591 68.2245 33.5991 68.2245C31.7166 68.2245 30.1362 68.2645 30.0874 68.3135ZM49.7469 68.4692C48.8164 68.7518 47.7187 69.3157 47.2466 69.7534C47.0454 69.9399 46.8387 70.0926 46.7872 70.0926C46.5896 70.0926 45.4414 71.7359 45.0844 72.5297C44.4258 73.994 44.2679 75.5402 44.6106 77.1694C44.916 78.6209 45.5316 79.7482 46.6112 80.8329C49.3034 83.5377 53.4422 83.7611 56.5503 81.3693C56.9917 81.0297 57.3528 80.7097 57.3528 80.6582C57.3528 80.6067 57.5066 80.3987 57.6948 80.1958C58.1205 79.7368 58.7241 78.5303 59.0067 77.5741C59.1387 77.1273 59.2202 76.3597 59.2192 75.5725C59.2164 73.4358 58.523 71.7683 57.0241 70.2927C56.1221 69.4047 55.2592 68.8882 54.0118 68.4898C52.9513 68.151 50.8282 68.1407 49.7469 68.4692ZM61.1213 75.5968L61.1557 82.9692L64.2248 83.0115C66.1952 83.0386 67.6282 82.9964 68.2278 82.8938C71.7189 82.2961 74.3189 79.1258 74.2944 75.4967C74.2769 72.9242 72.8188 70.4361 70.5563 69.118C69.1724 68.3116 68.5989 68.2245 64.6732 68.2245H61.0867L61.1213 75.5968ZM80.4774 68.4907C78.771 69.0974 77.7313 69.8117 76.8201 71.0036C75.4441 72.8031 74.9646 74.9363 75.4343 77.1694C76.5585 82.5136 82.8819 84.801 87.2656 81.4491C88.4766 80.523 89.1897 79.4742 89.7854 77.7433C90.1479 76.6894 90.1416 74.6165 89.7724 73.4385C89.0105 71.0077 87.097 69.1268 84.6866 68.4396C83.625 68.1369 81.3962 68.1639 80.4774 68.4907ZM37.1938 71.8221C39.3356 72.9148 40.0261 76.2154 38.5414 78.263C37.7139 79.4042 36.9374 79.7244 35.1258 79.6717L33.8013 79.6333L33.7659 75.5968L33.7307 71.5604H35.2057C36.4078 71.5604 36.7757 71.6088 37.1938 71.8221ZM53.2905 71.8772C54.5825 72.4788 55.4029 73.9293 55.3998 75.6067C55.3974 76.8835 55.037 77.7673 54.1623 78.641C53.5021 79.3006 53.3224 79.4046 52.5971 79.5469C50.9164 79.8767 49.5178 79.1881 48.7075 77.6317C48.4006 77.0423 48.3601 76.8091 48.3611 75.6302C48.3619 74.5264 48.4139 74.1857 48.6618 73.6588C49.5197 71.8358 51.5354 71.0599 53.2905 71.8772ZM68.2756 71.8176C68.9357 72.1543 69.6675 72.976 70.0258 73.7826C70.4103 74.6488 70.4359 76.3128 70.0799 77.3155C69.7613 78.2131 68.7065 79.3074 67.9381 79.5376C67.64 79.6269 66.8178 79.7 66.1107 79.7H64.8252V75.6302V71.5604H66.2983C67.4897 71.5604 67.8678 71.6096 68.2756 71.8176ZM84.1067 71.8784C84.9605 72.282 85.4055 72.7633 85.8483 73.7621C86.1157 74.3652 86.2061 74.793 86.2149 75.4967C86.2321 76.8932 85.9 77.7343 84.9723 78.6434C84.32 79.283 84.101 79.4118 83.4257 79.5537C81.7867 79.8984 80.347 79.1885 79.5273 77.6317C79.2142 77.037 79.1767 76.8198 79.1816 75.6302C79.1863 74.5343 79.2407 74.182 79.4864 73.6588C80.3472 71.825 82.3563 71.0509 84.1067 71.8784Z" fill="black"/>
</svg>
