<svg width="120" height="120" viewBox="0 0 120 120" fill="none" xmlns="http://www.w3.org/2000/svg">
<circle cx="60" cy="60" r="60" fill="#988430"/>
<circle cx="60" cy="60" r="58.0781" fill="#7A6A2A"/>
<circle cx="59.9999" cy="60" r="56.8544" fill="#BA9F33"/>
<path fill-rule="evenodd" clip-rule="evenodd" d="M26.2332 53.5923C25.8933 53.2819 25.5343 52.9709 25.204 52.6605C24.8738 52.3501 24.5346 52.0391 24.1948 51.7287L23.1848 50.7687C23.0197 50.6035 22.845 50.4583 22.6799 50.2925C22.5148 50.1472 22.3208 49.9821 22.1557 49.8362C20.8156 48.5645 19.4677 47.2928 18.1461 46.0205C19.5151 47.273 20.8552 48.5165 22.2242 49.7875L22.6997 50.2637C22.8648 50.4282 23.0396 50.5741 23.2047 50.7392L24.214 51.6711C24.5538 51.9815 24.884 52.2925 25.2239 52.6311C25.5637 52.9696 25.894 53.2813 26.2338 53.5911L26.2332 53.5923ZM8.44693 53.4003C8.44693 53.4003 13.3205 53.9047 15.6994 54.2445C17.9029 54.5555 24.7964 55.6135 24.7964 55.6135L8.44693 53.4003ZM8.44693 53.4003C9.81589 53.5168 11.1848 53.6621 12.5538 53.808C13.2527 53.8759 13.9228 53.9533 14.5928 54.0211L15.6213 54.1383C15.9612 54.1863 16.2914 54.2349 16.6312 54.2835L20.7093 54.9338L22.7477 55.2736C23.4178 55.3901 24.0879 55.5168 24.7868 55.6333C24.1167 55.5655 23.4178 55.4682 22.7477 55.3709L20.7093 55.0797L16.6312 54.4781C16.2914 54.4295 15.9612 54.361 15.6213 54.313L14.5922 54.1946C13.9221 54.1267 13.2232 54.0295 12.5532 53.9514C11.1842 53.7869 9.81525 53.6115 8.44629 53.3984L8.44693 53.4003ZM24.3112 56.8832C24.3112 56.8832 19.1074 58.2042 17.35 58.7091C15.622 59.1847 10.3887 60.777 10.3887 60.777L24.3106 56.8839L24.3112 56.8832Z" fill="#CFB66C"/>
<path fill-rule="evenodd" clip-rule="evenodd" d="M24.3106 56.8832C23.1554 57.223 22.0066 57.5533 20.8348 57.8643L17.3589 58.7961C16.2037 59.136 15.0549 59.4662 13.9029 59.8061L12.1749 60.2816C11.6021 60.4467 11.0197 60.592 10.4277 60.7577C10.9999 60.5657 11.5829 60.3693 12.1557 60.2041L13.8837 59.6512C15.0389 59.2915 16.1877 58.9517 17.3397 58.5926C18.5141 58.3014 19.67 57.9904 20.8444 57.7088C21.9605 57.4272 23.1356 57.1462 24.3106 56.8838V56.8832ZM11.117 63.9808C11.6892 63.767 18.2914 60.6899 19.8255 59.9712C20.5935 59.6115 22.8258 58.8192 22.8258 58.8192L11.117 63.9808Z" fill="#CFB66C"/>
<path fill-rule="evenodd" clip-rule="evenodd" d="M11.1169 63.9808C11.6212 63.7888 12.0973 63.5539 12.5825 63.3306L14.0193 62.6605L16.9031 61.2723C17.8631 60.816 18.7962 60.3123 19.7863 59.8835C20.2913 59.6704 20.7962 59.4957 21.3005 59.3306L22.0685 59.088C22.3303 59.0202 22.5735 58.9421 22.8365 58.8743C21.8765 59.3306 20.866 59.7191 19.9047 60.1651C18.9447 60.6413 17.9629 61.0298 16.9722 61.4567L14.0404 62.7475C13.0561 63.1463 12.0961 63.5731 11.1162 63.9808H11.1169ZM11.7569 66.6688C11.7569 66.6688 17.737 63.1642 19.7953 62.0378C20.873 61.4362 24.3585 59.7075 24.3585 59.7075L11.7569 66.6688Z" fill="#CFB66C"/>
<path fill-rule="evenodd" clip-rule="evenodd" d="M11.7578 66.6701C12.7671 66.0486 13.7962 65.4176 14.8253 64.7769L16.3613 63.8445C16.8855 63.5341 17.3905 63.2429 17.9249 62.9325C18.449 62.6214 18.954 62.311 19.4877 62.0198C19.7418 61.8629 20.0081 61.7266 20.2839 61.6121L21.0993 61.2045C22.177 60.6803 23.2548 60.1459 24.3908 59.6896C23.3617 60.3405 22.3031 60.8941 21.2452 61.4662C20.721 61.7574 20.1866 62.0198 19.6625 62.311C19.1383 62.6022 18.6333 62.9133 18.0989 63.1949C17.5748 63.5053 17.0698 63.7965 16.5361 64.0781L14.9533 64.9421L11.7591 66.6701H11.7578ZM24.3108 60.4755C24.3108 60.4755 20.5924 63.3299 19.3885 64.2425C18.1847 65.1552 14.641 67.7184 14.641 67.7184L24.3108 60.4755Z" fill="#CFB66C"/>
<path fill-rule="evenodd" clip-rule="evenodd" d="M45.6508 83.495L43.748 79.8931L44.8546 75.3881L52.7477 72.3398L49.3884 65.447L51.0485 58.4857L54.1653 52.2521L63.7967 50.7379L70.8738 43.9904L86.1557 45.1456L89.1554 61.4854L83.3788 82.0582L80.0879 92.7091L66.7477 93.214L60.5538 88.9228L53.3013 85.8931L45.6508 83.495Z" fill="#E2CC85"/>
<path fill-rule="evenodd" clip-rule="evenodd" d="M69.049 83.3786C69.049 83.3786 67.2039 84.2234 64.057 84.0288C63.1463 82.8058 56.7681 82.233 56.7681 82.233C56.7681 82.233 55.9719 81.9904 54.5639 82.5728C53.147 83.1488 51.8068 83.0778 50.5543 83.3882C49.3018 83.6986 48.0583 82.0678 47.0983 81.728C46.1383 81.369 44.8654 80.505 44.8654 80.505L42.1774 80.2426L36.7796 77.961L28.2042 69.4176L25.874 73.0656L25.1553 77.5802L27.7479 82.9299L34.7284 89.289L48.3399 92.745L56.4078 90.368L66.5146 86.096L69.049 83.3779V83.3786Z" fill="#F1D789"/>
<path fill-rule="evenodd" clip-rule="evenodd" d="M20.6889 53.1846L22.4169 47.952L24.4757 44.5728L31.1061 44.0192L29.1157 49.8252L23.5727 59.6896L25.8735 68.4953L21.7961 70.5337L20.5429 68.6118L19.5337 64.2041L19.4658 59.2524L20.6889 53.1846Z" fill="#F4ECB4"/>
<path fill-rule="evenodd" clip-rule="evenodd" d="M28.1256 83.0195L26.854 81.2428C26.854 81.2428 26.5141 80.398 26.7087 79.6601C26.9007 78.9126 26.8732 78.8639 26.7765 78.5823C26.6799 78.3008 25.8639 77.3299 25.9125 76.4947C25.9605 75.6499 25.8447 75.3683 26.4655 74.6988C27.1157 74.0486 26.9218 72.9222 26.9218 72.9222L27.7666 73.4464L27.9586 73.1551C27.9586 73.1551 28.269 73.3977 28.269 73.7766C28.3368 73.2524 28.0552 70.8249 28.6959 70.2719C29.3365 69.719 30.4725 72.864 30.4725 72.864L29.7736 68.3007L27.9772 63.6217L24.7829 59.3497L24.5909 54.6406V54.2329C24.5909 54.2329 23.1247 56.4857 22.717 58.2649C22.4258 59.488 23.1247 60.9734 22.9794 62.7308C22.8623 64.4787 22.717 64.3424 23.1439 65.0348C23.5708 65.7273 24.6101 67.1513 24.2024 68.1804C23.8434 69.0643 22.6197 68.4428 22.6197 68.4428C22.6197 68.4428 22.3772 69.1609 22.0469 69.4233C21.9304 68.9964 21.8044 68.7244 21.5714 68.4633C21.5516 68.6284 21.5036 68.8518 21.5036 68.8518C21.5036 68.8518 21.2898 68.1817 21.076 67.3369C20.7855 66.2112 20.4744 64.7257 20.1928 63.9296C20.0764 64.3859 19.7852 65.774 19.7852 65.774L19.9503 67.9103L20.7464 70.8422L21.5144 72.7622L22.262 75.1116L22.9116 76.6899L23.4357 77.8937L23.892 80.6028L26.0956 82.9324L27.2706 83.4572L28.1244 83.0201L28.1256 83.0195Z" fill="#F3E19D"/>
<path fill-rule="evenodd" clip-rule="evenodd" d="M21.8443 48.9127C21.8443 48.9127 20.2616 51.6007 19.8059 54.3104C19.3502 57.0202 18.9419 59.8836 19.2299 63.5725C19.5211 67.2916 20.0747 69.5725 20.5214 71.2039C21.2894 73.913 23.2785 77.68 23.2785 77.68L23.3464 77.5341C23.012 76.9004 22.7452 76.2332 22.5502 75.5437C22.2878 74.5146 22.1905 73.2916 21.948 72.738C21.7342 72.185 21.3752 71.7088 21.2005 71.0292C21.0353 70.3789 21.0085 69.3498 20.5016 68.5831C20.2878 68.272 20.0254 67.4567 19.948 66.6413C19.8507 65.4176 19.9966 64.0487 19.8801 62.9229C19.6664 61.049 19.5211 59.7773 19.715 58.7962C19.9089 57.8151 20.9195 55.0298 21.5409 52.816C21.9486 51.3984 21.7054 50.2042 22.4529 48.9709C23.2005 47.7479 23.6574 46.6701 23.8219 45.9226C24.0139 45.2429 21.8417 48.9127 21.8417 48.9127H21.8443Z" fill="#F2E8B0"/>
<path fill-rule="evenodd" clip-rule="evenodd" d="M29.3493 47.8348C29.3493 47.8348 28.534 48.078 28.1455 48.5049C27.757 48.9126 27.5919 49.2524 27.0677 49.9417C26.5436 50.631 26.5141 51.1942 26.0866 52.0582C25.6597 52.903 24.7177 54.1747 24.6012 54.631C24.4847 55.0873 24.2908 57.223 24.0482 58.2329C23.8345 59.2428 24.2908 60.4857 24.2908 60.4857L24.8437 60.3686C24.8437 60.3686 24.8437 61.0873 25.3973 61.5731C25.9503 62.0486 26.0476 59.9609 26.0476 59.9609L28.1154 52.9804L31.2316 50.864L31.5714 49.1552L29.3481 47.8348H29.3493Z" fill="#F5EEC0"/>
<path fill-rule="evenodd" clip-rule="evenodd" d="M30.8642 51.0003C30.8642 51.0003 29.398 51.0969 28.6799 51.6217C28.3887 51.8349 28.2722 52.0096 27.9618 52.272C27.389 52.7475 26.806 53.1846 26.525 53.808C26.214 54.4288 25.8742 55.3709 25.6412 57.1475C25.5439 57.895 25.5439 58.5843 25.4761 59.1865C25.3788 60.0019 25.2335 60.6521 25.311 61.1065C25.4082 62.0384 26.3695 62.5241 26.463 63.5821L28.4534 62.5728L30.3273 55.184L34.3081 52.688L32.0553 50.1638L30.8617 50.9958L30.8642 51.0003Z" fill="#E6DB9D"/>
<path fill-rule="evenodd" clip-rule="evenodd" d="M20.3639 100.755C20.3722 100.682 20.3806 100.609 20.3889 100.534C20.6794 98.0378 20.7287 96.1459 20.9418 94.9613C21.2522 93.2819 21.466 92.6573 21.4174 92.0288C21.3495 91.0195 21.2721 90.2816 21.3694 89.5046C21.5146 88.4755 22.5246 87.2525 22.4958 86.4077C22.4759 85.7376 22.1361 85.3011 21.8449 84.8934C21.5537 84.4858 21.3207 84.1459 21.3207 84.1459C21.3207 84.1459 23.3111 82.777 23.2919 77.2621C23.3326 77.2735 23.3717 77.2899 23.4084 77.3107L24.3889 80.0966L25.059 80.912L27.6318 85.7082L30.9425 88.9222L35.8353 92.2131L38.9034 95.552L39.2138 104.455L35.2042 109.659L34.5476 110.848C29.3308 108.229 24.5469 104.825 20.3633 100.754L20.3639 100.755Z" fill="#E5CB7A"/>
<path fill-rule="evenodd" clip-rule="evenodd" d="M32.6123 109.272C32.6123 109.272 32.6801 108.165 33.5928 107.446C33.7387 107.689 33.8353 107.923 33.8065 108.097C33.9717 107.806 35.1269 105.942 37.7387 105.456C40.3505 104.981 40.9816 103.078 40.9816 103.078L46.5246 98.0391L52.8645 92.2042L60.5733 89.4951L64.1758 88.6112C64.1758 88.6112 64.2437 88.8736 64.108 89.456C64.7774 89.408 66.2629 89.0682 67.8065 88.5242C68.428 88.2816 69.011 88.1844 69.3214 88.505C69.7777 88.9319 69.8456 89.9418 69.8744 90.5434C70.6219 90.3783 71.4859 89.6602 72.1784 89.728C73.2856 89.8445 74.2661 91.1456 75.3925 91.1456C76.8779 91.1456 77.5473 90.233 78.5867 89.5143C79.2081 89.0874 80.1009 88.5543 80.6059 88.194C81.8097 87.3101 94.5477 83.417 94.5477 83.417L99.0136 83.7082L99.7323 88.5044L99.3483 101.042C99.3009 101.087 99.2536 101.135 99.2056 101.18L78.8997 111.786L50.7525 116.101C44.4474 115.07 38.3629 112.978 32.7582 109.911L32.6142 109.271L32.6123 109.272Z" fill="#D8C173"/>
<path fill-rule="evenodd" clip-rule="evenodd" d="M22.0703 102.349C22.4703 101.513 22.83 100.813 22.8934 100.563C22.9433 101.068 23.0348 102.174 23.2191 103.35C22.8321 103.021 22.4492 102.688 22.0703 102.349V102.349Z" fill="#F1D789"/>
<path fill-rule="evenodd" clip-rule="evenodd" d="M42.6314 114.148L46.2718 113.136L46.5822 113.233C46.5822 113.233 46.7473 113.331 46.7473 113.66C47.2036 113.398 47.5921 113.446 47.8737 113.272C48.019 113.583 48.1642 114.612 48.8055 114.738C49.475 114.884 50.1937 114.447 50.922 113.894C51.6401 113.321 52.458 112.602 53.0769 112.311C53.3039 112.729 53.5051 113.16 53.6791 113.602C54.4945 112.952 55.9121 110.311 57.9313 110.359C58.5149 108.98 59.4899 107.802 60.7358 106.971C62.6097 105.699 63.7841 105.602 65.2503 105.718C65.8327 104.962 66.5503 104.32 67.3668 103.825C67.6094 103.923 68.2794 104.33 69.1146 103.942C69.9594 103.554 70.9105 102.049 72.163 101.855C72.8379 101.762 73.5241 101.906 74.1047 102.262C74.1047 102.262 77.7527 98.6406 80.2698 97.4368C80.1726 97.1456 79.9786 96.0486 82.9297 93.6211C83.0948 93.767 82.9783 94.1747 83.0948 94.1971C83.1428 94.1971 83.8628 93.8867 84.7742 93.1872C85.9006 92.343 87.2497 91.4592 88.065 91.2166C89.601 90.7603 91.2305 91.6921 91.2305 91.6921C91.369 91.595 91.5234 91.5226 91.6868 91.4784C92.0746 91.4105 92.3562 91.3619 92.57 91.2864C92.5508 91.7913 92.8324 92.6553 92.57 93.4029C92.874 93.5738 93.1959 93.7105 93.53 93.8105C93.3655 94.1696 93.0058 95.0822 92.4042 95.5193C92.9086 95.7619 92.9764 96.0435 93.6951 96.2873C93.4039 96.695 92.9271 97.3945 92.7146 97.8233C92.5009 98.2797 91.7335 100.173 91.3937 100.891C91.0346 101.61 90.5495 102.93 90.3159 103.195C90.0823 103.46 89.2382 104.583 88.5879 105.136C89.1639 104.922 91.5204 104.204 92.5201 103.932C92.2225 104.369 90.714 106.607 89.2638 108.759C75.2168 117.178 58.226 119.145 42.627 114.158L42.6314 114.148Z" fill="#E0CD81"/>
<path fill-rule="evenodd" clip-rule="evenodd" d="M31.1036 50.7379C31.1036 50.7379 30.2594 50.7379 30.0943 50.8544C29.9292 50.9708 30.9391 51.214 31.2495 51.3305C31.5599 51.447 32.23 51.9808 32.4047 52.4083C32.5698 52.816 38.4725 55.1942 38.4725 55.1942L42.6472 54.9804L44.0866 52.992L41.3487 50.5939L43.2687 44.9337L40.7253 45.3414L34.6088 48.9894L31.5407 50.1644L31.1036 50.7379Z" fill="#DFC57C"/>
<path fill-rule="evenodd" clip-rule="evenodd" d="M40.2716 52.6118C40.3944 52.8106 40.6139 52.9289 40.8476 52.9222C41.7116 52.9222 42.5071 53.1359 42.8373 53.5724C43.3909 54.2719 44.925 56.5049 44.925 56.5049L48.5948 57.8252L48.8316 53.5039L44.822 50.718L40.2588 52.3974V52.6111H40.269L40.2716 52.6118Z" fill="#E5CC7C"/>
<path fill-rule="evenodd" clip-rule="evenodd" d="M39.5521 54.2137C39.5521 54.2137 40.2215 54.2624 41.0663 53.9513C41.9111 53.6403 43.2993 52.9709 43.9015 53.2333C44.7457 53.5923 44.5709 54.7187 45.4842 55.7293C46.0372 56.3507 47.0471 56.3315 47.6199 57.0016C48.1927 57.6717 50.1633 57.3606 50.1633 57.3606L50.9108 61.3926L47.9111 65.2377L46.93 70.0141H42.8737L39.1681 68.544L37.3428 64.128L38.2554 59.6621L39.5521 54.2137Z" fill="#D2C281"/>
<path fill-rule="evenodd" clip-rule="evenodd" d="M47.3982 54.4077C47.4988 54.4387 47.6034 54.4551 47.7086 54.4564C47.5922 54.5536 47.349 54.7668 47.4462 55.3204C47.5435 55.874 47.8539 56.5729 47.5922 56.9997C47.8011 57.2282 47.9569 57.5001 48.0485 57.7959C48.2136 58.272 48.2622 58.7085 49.3394 58.777C49.1839 58.8727 49.0406 58.9868 48.9125 59.1168C48.9125 59.1168 49.66 59.7671 50.0389 60.3687C50.4267 60.352 51.4558 60.0321 51.4558 60.0321L51.6696 60.178L52.1259 59.986C52.1259 59.986 51.699 59.8209 52.0094 58.7821C52.3006 57.8695 52.563 57.9181 52.5854 57.8503C52.6078 57.7824 52.7992 56.8212 52.7992 56.4327C52.9445 55.9284 53.061 54.3943 53.061 54.3943L52.7506 51.0061L51.0034 49.9476L49.5826 48.576L48.2424 51.1002L47.3598 51.9802L47.292 54.1645L47.3982 54.4077Z" fill="#E2C270"/>
<path fill-rule="evenodd" clip-rule="evenodd" d="M51.6016 51.5731C51.6016 51.5731 51.912 52.4563 52.0291 53.136C52.0704 53.0039 52.0932 52.8667 52.0969 52.7283C52.0969 52.7283 52.3395 54.0685 52.3875 54.6221C52.4848 54.6022 52.5795 54.5734 52.6012 54.6701C52.623 54.7667 52.8444 55.8451 52.7932 56.4467C53.1975 55.7797 53.757 55.2203 54.424 54.816C54.8124 54.5728 55.2688 54.311 55.7449 54.2912C56.4924 54.272 57.0358 54.7674 57.9292 54.7674C60.0841 54.7674 62.0361 53.1846 63.4729 52.6995C64.5308 52.3398 65.4435 52.0781 66.0841 51.495C66.3952 51.2333 66.9488 50.6509 67.4531 49.7862C68.1232 48.6342 68.822 47.6314 69.5216 47.5053C69.2051 47.5634 68.8831 47.5862 68.5616 47.5731C68.5616 47.5731 68.7753 47.3594 69.1376 47.0682C69.4998 46.777 69.9337 46.4179 70.5545 46.4179C71.6617 46.4179 72.2147 46.5824 72.8361 46.5824C73.4576 46.5632 73.8166 46.4179 73.8166 46.4179C73.8166 46.4179 74.4675 46.8742 75.9331 46.8742C77.3993 46.8934 78.3798 47.0195 79.1472 47.088C79.9145 47.1565 82.4867 46.8742 83.2246 46.896C83.7057 46.9145 84.1781 47.0301 84.6134 47.2358L82.2345 40.3238L73.6892 32.855L68.6019 36.457L60.776 44.2822L53.2035 47.088L51.6208 48.8646V51.5731H51.6016Z" fill="#CCB360"/>
<path fill-rule="evenodd" clip-rule="evenodd" d="M68.593 47.6115C68.593 47.6115 68.8068 47.3984 69.1652 47.1072C69.5236 46.816 69.962 46.4563 70.5828 46.4563C71.6894 46.4563 72.243 46.6215 72.8644 46.6215C73.4858 46.6023 73.8449 46.4563 73.8449 46.4563C73.8449 46.4563 74.4964 46.912 75.9614 46.912C77.4276 46.9312 78.4081 47.0573 79.1754 47.1251C79.9428 47.193 82.5149 46.912 83.2529 46.9331C83.7338 46.9513 84.2061 47.0669 84.641 47.273L83.5633 44.1562L82.3114 41.7779L78.7383 37.865C78.7383 37.865 74.4503 35.3408 74.4177 35.3216C74.3985 35.3024 72.9322 34.9139 72.9322 34.9139L69.0487 37.2634L65.5249 46.3802L65.457 48.3002L67.738 49.3779C68.3108 48.4179 68.9425 47.6499 69.5345 47.5527C69.0001 47.6109 68.5924 47.6109 68.5924 47.6109L68.593 47.6115Z" fill="#D5B457"/>
<path fill-rule="evenodd" clip-rule="evenodd" d="M68.5443 48.2624C68.2045 48.2816 67.9235 48.2137 67.8454 47.9712C67.5542 47.1558 67.3213 47.0393 67.0774 47.0393C66.8336 47.0393 66.5046 47.5635 66.3094 47.6115C66.1142 47.6595 65.8826 47.0099 65.8826 47.0099L65.6688 46.9126C65.6688 46.9126 64.4163 47.728 63.5331 48.6892C62.6499 49.6505 61.2029 51.2819 60.5526 51.5724C59.9024 51.863 57.6688 51.9609 56.9046 52.126C56.1405 52.2912 55.2931 52.8448 55.1766 52.9708C55.0602 53.0969 55.5171 53.2326 55.585 53.3587C55.6528 53.4752 54.8368 53.4265 54.769 53.5507C54.721 53.648 54.961 54.2009 55.08 54.4825C55.2883 54.3789 55.5169 54.3226 55.7494 54.3174C56.497 54.2982 57.041 54.7936 57.9338 54.7936C60.0893 54.7936 62.0406 53.2108 63.4774 52.7251C64.536 52.366 65.4486 52.1036 66.0893 51.5212C66.3997 51.2595 66.9533 50.6764 67.4582 49.8124C67.8269 49.2204 68.1866 48.6668 68.5462 48.2592L68.5443 48.2624Z" fill="#D2B257"/>
<path fill-rule="evenodd" clip-rule="evenodd" d="M37.6316 96.311C37.6316 96.311 37.4396 95.5923 35.6604 93.7382C35.1555 93.214 34.8451 92.7782 34.5052 92.4665C33.6604 91.6697 33.1651 91.4566 32.5635 91.0003C31.2432 90.0198 29.8064 90.0198 28.6998 88.8159C27.5933 87.6121 26.3036 85.3119 25.4076 82.9612C24.5245 80.6118 24.2812 79.8643 24.2812 79.7964C24.2812 79.7286 24.5245 79.2723 24.8349 79.3401C25.1453 79.4079 25.1453 80.0095 25.2233 80.1555C25.378 80.3936 25.5534 80.6176 25.7475 80.8249C26.2038 81.3497 26.854 81.9769 27.1843 82.9126C27.1164 82.1164 26.8444 81.2332 26.8444 81.2332C26.8444 81.2332 28.5533 82.311 30.0093 83.4367C31.4755 84.5631 32.0771 84.9516 32.5052 85.6697C32.9334 86.3878 33.942 88.2815 34.4253 88.8351C34.9085 89.3887 41.5292 91.4758 41.5292 91.4758L44.6787 93.8239L46.2422 97.2511L45.0185 99.1711L42.6691 99.6761L38.8534 97.9673L37.6316 96.3103V96.311Z" fill="#D2B159"/>
<path fill-rule="evenodd" clip-rule="evenodd" d="M29.1553 84.505C29.1553 84.505 29.9514 85.7767 31.8932 86.9805C33.641 88.0391 36.4078 89.0004 38.8743 89.5732C40.2913 89.913 41.7089 90.1748 42.9806 90.1946C46.4078 90.2426 48.7668 89.2628 51.6897 88.9421C53.2724 88.777 55.2142 88.6509 57.2334 88.1741C59.8254 87.5527 61.3594 86.8532 63.4471 85.8701C64.9614 85.1712 66.3502 84.6471 67.4759 83.977C69.0586 83.0452 70.2138 82.0064 71.554 81.696C71.3889 82.1524 71.2142 82.9677 69.8938 83.8125C70.5927 83.7927 71.554 83.7447 71.554 83.7447C71.554 83.7447 70.6222 84.2976 68.9812 85.5405C67.9713 86.3085 66.6318 87.6084 65.2628 88.4724C64.379 89.026 63.4177 89.4324 62.7866 89.7639C61.2506 90.6087 60.6311 91.0356 59.6218 92.0679C59.9809 92.0487 60.0103 92.0679 60.0103 92.0679C60.0103 92.0679 58.738 92.233 57.826 92.7181C57.634 92.7181 57.3012 92.6503 56.7188 92.8154C56.2625 92.9607 55.6602 93.2916 55.0394 93.4656C54.1556 93.728 53.865 93.6116 53.865 93.6116L54.0103 93.9028C54.0103 93.9028 52.8583 93.8829 52.4743 93.922C52.5422 93.9412 52.523 93.9706 52.523 93.9706C52.4555 93.9819 52.3905 94.0049 52.331 94.0384C52.1462 94.1582 51.9429 94.2466 51.7294 94.3002C51.6129 94.3194 51.5156 94.3194 51.3697 94.3488C51.4183 94.4653 51.7972 95.1168 51.9719 95.5008C51.8266 95.5981 49.6417 97.2487 49.6417 97.2487C49.7094 97.3553 49.7648 97.4693 49.8068 97.5885C49.8746 97.8016 49.9041 98.1127 49.9719 98.258C50.1364 98.5492 50.2337 98.5978 50.2337 98.5978C50.2337 98.5978 49.9719 98.6464 49.515 98.7629C49.1271 98.8602 48.651 99.0247 47.979 99.122C47.7728 99.1488 47.5654 99.165 47.3575 99.1706C47.4548 99.3844 47.8817 100.2 47.0951 101.141C46.3086 102.083 46.066 102.22 45.8234 102.821C45.7013 102.729 45.5713 102.647 45.435 102.578C45.1732 102.461 44.8135 102.287 44.6874 102.054C44.6139 102.365 44.5166 102.67 44.3962 102.966C44.1537 103.617 43.7946 104.258 43.7268 104.743C43.4644 104.452 42.9793 103.879 42.3092 103.996C41.6391 104.112 41.1054 105.025 40.9889 105.287C40.9889 105.122 40.8724 104.996 40.8436 105.19C40.8238 105.404 40.4551 107.636 38.3969 109.442C38.3777 108.986 38.3777 107.976 38.329 107.646C38.137 107.838 37.9022 108.122 36.5038 108.724C35.1348 109.325 35.3518 109.928 35.3518 109.928C35.3518 109.928 35.2353 108.968 35.9732 107.957C36.7207 106.947 37.177 106.471 37.177 106.394C37.165 106.315 37.1313 106.241 37.0798 106.18C36.9825 106.083 36.7886 105.966 36.7886 105.889C36.905 105.841 38.0602 105.287 37.9924 104.141C37.9246 103.112 37.4881 102.578 37.177 102.2C37.129 102.151 37.634 101.792 37.5655 101.676C37.5169 101.608 36.8961 101.151 36.818 100.908C36.8363 100.762 36.8689 100.619 36.9153 100.481C36.9831 100.267 37.0318 100.121 37.0126 99.9757C36.9639 99.7332 36.7015 99.0631 36.6241 98.9952C36.6919 99.0144 37.177 98.9952 37.177 98.9952C37.177 98.9952 36.7892 98.3738 36.7207 98.0826C36.6522 97.7914 36.507 97.024 36.4295 96.8788C36.5946 96.898 37.0023 96.9268 37.0023 96.8788C37.0222 96.7328 36.6433 96.4903 36.8103 96.3028C36.9268 96.322 37.1502 96.4192 37.3633 96.6912C37.2468 96.3802 37.0529 95.7786 36.6446 95.536C36.8366 95.4682 37.4894 95.2928 38.0622 95.6327C38.635 95.9725 38.8302 96.448 38.8302 96.448C38.8302 96.448 39.17 96.7104 39.6948 97.0989C40.2964 97.5744 41.0631 98.2509 42.2868 98.7296C42.5492 98.8756 43.2186 98.8756 43.7044 98.7783C43.9159 98.7279 44.1187 98.6461 44.306 98.5357C44.3736 98.4959 44.4453 98.4633 44.5198 98.4384C44.4154 98.229 44.2954 98.0276 44.1607 97.8362C44.3258 97.8362 44.5198 97.856 44.5198 97.856C44.5198 97.856 44.6362 97.5936 44.1121 97.088C44.2286 96.9716 44.3745 96.896 44.3745 96.6996C44.2094 96.6804 43.9182 96.4378 43.8503 96.3405C43.947 96.2727 44.0929 96.0493 44.258 95.9815C44.1121 95.865 43.753 95.3792 43.5879 95.3312C43.7457 95.2727 43.8983 95.2012 44.0442 95.1175C44.0442 95.1175 43.2289 94.9037 42.9665 94.729C42.7041 94.537 42.3162 94.2048 42.0833 94.1076C41.8401 94.0103 41.4132 93.9623 41.2385 93.7677C41.403 93.8164 41.6654 93.7677 41.8599 93.7677C42.0052 93.7677 42.0737 93.7869 42.1217 93.7869C42.1025 93.7191 42.1025 93.5732 42.4814 93.5252C42.6636 93.4977 42.8404 93.442 43.0055 93.36C43.0055 93.36 42.6458 93.3408 42.2375 92.9524C41.8292 92.5639 41.49 92.2535 41.257 92.2048C41.0145 92.1562 40.5582 92.37 40.2766 92.3501C39.8881 92.3021 39.723 92.1076 39.723 92.1076C39.723 92.1076 38.4321 92.224 35.5681 90.4768C33.0919 88.962 32.0142 87.6224 32.0142 87.6224C31.7824 87.5383 31.5584 87.4343 31.3447 87.3114C30.4129 86.8263 29.1214 85.8164 29.1604 84.4954L29.1553 84.505Z" fill="#C2A44D"/>
<path fill-rule="evenodd" clip-rule="evenodd" d="M64.8732 26.233C65.0978 26.3059 65.2974 26.4406 65.4492 26.6215C65.9055 27.1456 66.1967 28.1357 65.158 29.1943C65.5657 29.3395 65.734 29.3863 66.0898 29.3395C65.7308 29.7671 64.9154 30.6797 64.8668 31.4759C64.8182 32.1261 65.2258 32.3207 65.2258 32.3207C65.2258 32.3207 64.6044 33.0387 64.5756 34.2407C64.8691 33.9097 65.1902 33.6044 65.5356 33.328C66.2543 32.7552 67.2444 32.105 67.9145 31.6973C67.9054 31.8682 67.9284 32.0392 67.9823 32.2016C67.9823 32.2016 69.2342 31.1725 70.2863 31.6295C70.7618 31.8432 70.5481 32.5127 70.5481 32.5127C70.5481 32.5127 71.199 32.2701 71.6553 32.7264C72.1116 33.1827 72.7567 34.3597 73.0876 34.816C73.2329 35.0298 73.6118 35.4375 73.9996 36.0685C74.5295 36.952 74.9719 37.885 75.3206 38.8544C75.3398 38.3495 75.4658 37.5635 76.9033 38.0583C78.3401 38.5632 79.9708 39.6218 81.3398 41.7063C82.7087 43.7907 83.0479 46.144 83.7372 47.04C84.4361 47.904 85.1548 49.3408 85.2034 49.9431C85.2521 50.5453 84.9897 52.4864 86.4265 57.7389C86.8342 56.1082 87.4556 52.4864 87.4556 52.4864L87.7954 49.2922L88.1839 39.4087L77.8633 30.8346L69.7954 24.9799L64.543 25.4848L64.8726 26.2323L64.8732 26.233Z" fill="#CAA13E"/>
<path fill-rule="evenodd" clip-rule="evenodd" d="M84.0482 40.9414C84.0482 40.9414 83.9023 39.9814 81.4754 38.3494C79.0479 36.7379 77.1548 36.7379 75.4076 35.3689C74.0674 34.2912 72.6697 31.815 71.7596 30.9997C70.8757 30.1939 70.7305 27.8637 70.7305 27.8637L73.7109 25.3677L78.1436 18.9606L81.8908 14.8345L83.6866 17.3305L86.1826 20.2624L87.5708 26.1459L88.0757 34.7577L84.0437 40.9421L84.0482 40.9414Z" fill="#B59544"/>
<path fill-rule="evenodd" clip-rule="evenodd" d="M87.0487 51.264C87.1221 49.958 86.9609 48.6494 86.5725 47.4004C85.9325 45.41 84.5341 41.8759 83.8845 40.5524C83.6221 39.0861 83.8167 38.9696 84.0983 38.8045C84.3799 38.6394 85.4384 38.0365 86.0183 35.9213C86.5981 33.8061 88.3972 33.737 88.3972 33.737L89.5037 32.9216L91.1837 37.1252L92.6493 40.9216L93.1056 43.8247L93.4455 46.3002L92.6493 51.5335L88.7178 55.0868L87.048 51.264H87.0487Z" fill="#C89D3A"/>
<path fill-rule="evenodd" clip-rule="evenodd" d="M32.1846 109.593V109.485C32.2663 109.434 32.3384 109.369 32.3977 109.293C32.4655 109.196 32.5148 109.08 32.5628 109.051C32.6601 109.002 33.1164 108.859 33.359 108.905C33.6015 108.951 34.2428 109.215 34.5827 109.196C35.2815 109.177 36.0969 108.643 37.3884 108.886C39.3302 109.245 39.7865 110.565 40.9129 111.313C41.6809 111.837 42.4758 111.604 42.5922 111.604H42.854C42.9027 111.604 43.2617 111.196 43.4563 111.216C43.8447 111.235 43.8831 111.556 44.1257 111.575C44.6985 111.643 45.8057 111.284 46.3593 111.43C46.6925 111.534 46.9535 111.795 47.0582 112.128C47.1747 112.487 47.0774 112.943 46.7958 113.206C46.1942 113.759 45.6214 114.283 45.5049 114.742C45.653 114.855 45.7953 114.975 45.9311 115.103C41.1274 113.879 36.5056 112.028 32.1846 109.599V109.593Z" fill="#CEB052"/>
<path fill-rule="evenodd" clip-rule="evenodd" d="M83.8838 90.1946C83.8838 90.1946 85.398 88.1754 85.9228 87.175C86.447 86.144 84.2627 73.088 84.2627 73.088L88.6511 58.7098L88.534 54.0301C88.534 54.0301 88.7478 49.7094 89.2527 47.8355C89.855 48.9133 91.7289 50.2144 92.1366 50.9037C92.3286 49.5827 92.9807 46.7968 92.8841 43.8259C93.2431 44.3789 94.1071 49.9424 94.1071 49.9424L94.9711 53.6896L96.0975 57.6704L97.35 61.8746L98.0975 64.7776L98.5244 65.4765L98.8841 66.6995L99.2239 68.0205L100.204 71.1174L100.78 73.6608L101.237 78.2726C101.336 78.6258 101.407 78.9861 101.451 79.3504C101.47 79.8554 101.383 80.1466 101.383 80.2342C101.383 80.3219 101.548 81.3408 101.48 82.1082C101.383 82.8762 101.383 83.4771 100.78 84.0282C100.178 84.5792 99.7999 87.8726 99.7999 87.8726L98.7222 87.1546C98.7222 87.1546 98.9359 86.1734 98.431 85.2806C97.926 84.3878 96.9455 84.2029 96.3919 84.3488C95.839 84.4653 94.7324 84.6394 94.3727 84.9504C94.0329 85.2608 93.1983 86.2221 92.431 86.6592C91.471 87.2352 89.9068 87.2806 89.0723 87.4746C88.2275 87.6666 87.2956 88.2426 86.3145 88.9114C85.5453 89.4094 84.7331 89.8378 83.8876 90.1914L83.8838 90.1946Z" fill="#CCA847"/>
<path fill-rule="evenodd" clip-rule="evenodd" d="M83.8838 111.408C83.8838 111.408 83.9478 111.45 84.0713 111.517C90.9689 108.286 97.1492 103.705 102.247 98.0454C102.192 96.0806 102.119 94.0665 102.04 93.3203C101.875 91.7376 101.992 90.126 101.943 89.1942C101.895 88.2624 101.371 84.4659 101.128 83.4854C100.866 82.5049 100.36 82.0192 100.283 82.0192C100.215 82.039 99.807 83.8643 99.807 84.3232C99.807 84.782 99.7097 85.8867 99.7097 86.1683C99.6419 86.1484 99.6131 85.9763 99.6131 85.9059C99.5158 86.1484 99.3993 86.576 99.3507 86.6246C99.302 86.6732 99.4185 86.2169 99.3507 86.1196C99.2828 86.0224 99.1587 86.071 99.1855 85.8284C99.197 85.6846 99.2197 85.5419 99.2534 85.4016C99.2534 85.4016 98.9622 85.8284 98.7491 86.9158C98.5353 87.9936 98.5353 88.023 98.4579 88.1196C98.39 88.2368 98.0015 88.6246 97.9817 88.7705C97.9625 89.0323 98.3414 89.2947 98.3702 89.44C98.3894 89.6832 98.0303 90.8089 97.9139 91.36C97.7974 91.911 97.846 92.9907 97.7219 93.5443C97.6246 94.0492 97.5299 94.3404 97.1977 94.5536C97.4403 94.6022 97.6732 94.67 97.6732 94.67C97.6732 94.67 98.0131 96.1068 97.1491 97.3305C96.8387 97.7574 96.7612 97.952 96.431 98.3404C95.7801 99.0585 95.2751 99.8764 95.2265 100.408C95.1929 100.251 95.1703 100.092 95.1587 99.9321C95.1587 99.9321 94.1494 101.107 93.7219 101.777C93.1689 102.641 92.4015 102.593 92.1859 102.806C91.9702 103.02 91.9235 103.408 91.9939 103.719C91.8019 103.767 91.4409 103.835 91.1977 104.583C91.0812 104.971 90.79 105.351 90.3337 105.612C89.8774 105.873 89.3238 105.952 89.0422 106.02C89.2847 106.088 89.382 106.088 89.4985 106.165C89.3532 106.408 88.6831 106.787 87.9356 107.272C87.1881 107.729 86.8284 108.398 86.6441 108.835C86.4521 109.243 86.1686 109.505 85.7123 109.554C85.9043 109.67 86.1884 109.942 86.3337 110.029C86.1199 110.078 85.7577 110.078 85.1107 110.632C84.431 111.195 84.198 111.36 83.887 111.409L83.8838 111.408Z" fill="#C39D3C"/>
<path fill-rule="evenodd" clip-rule="evenodd" d="M70.3743 115.907C70.7461 115.647 71.1487 115.433 71.573 115.272C73.0873 114.67 74.6892 114.554 75.3202 114.36C75.9225 114.168 76.398 113.903 77.1455 113.757C77.1257 113.928 77.109 114.088 77.0911 114.239C74.8873 114.932 72.6431 115.489 70.3711 115.907H70.3743Z" fill="#D2BA6B"/>
<path fill-rule="evenodd" clip-rule="evenodd" d="M98.3043 76.078C98.3043 76.078 97.9939 77.7574 97.4403 78.816C96.8867 79.8745 96.2883 81.3401 96.2883 81.3401C96.2919 81.0099 96.331 80.6809 96.4048 80.359C95.7059 80.7667 94.0067 81.7478 93.5248 82.1843C93.0684 82.592 92.3011 83.3107 92.1072 83.6505C92.5635 82.311 93.039 81.1072 93.1171 80.5536C92.4182 81.0585 89.1555 83.7478 87.4569 85.5244L82.1654 89.806C81.5548 90.1355 80.9259 90.4299 80.2819 90.688C79.3699 91.0758 78.2921 91.406 77.496 91.7171C77.7097 91.1443 78.0489 90.6387 78.5251 90.1536C79.03 89.678 80.5443 88.0371 80.7772 87.2736C80.991 86.4774 81.0396 86.0019 80.758 85.3318C80.4956 85.3996 79.894 85.4291 79.4864 85.5456C79.0787 85.662 78.6416 86.0985 78.6416 86.0985C78.6416 86.0985 78.952 84.3219 79.622 82.6425C79.1171 82.6617 78.2531 82.807 78.2531 82.807C78.2531 82.807 79.4569 80.7878 81.5171 79.3804C80.8862 79.5147 80.2688 79.7062 79.6726 79.9526C78.4688 80.4576 77.1484 81.2051 76.168 81.6128C76.7209 80.8448 80.6044 75.3024 82.9155 70.1369C85.2195 64.9817 86.0803 63.6614 86.5852 60.8947C86.847 59.5257 86.7772 57.5027 86.847 55.6908C86.9148 53.8944 87.1382 52.2828 86.9929 51.2051C87.5945 51.9526 89.8473 54.0595 89.9248 58.7686C89.9926 63.4771 87.7699 69.8368 85.4102 73.2633C85.9862 73.4284 87.4787 73.623 89.0121 70.9593C90.5456 68.2956 90.527 67.552 91.0806 66.4448C91.1484 66.9984 91.1286 67.1923 91.1286 67.1923C91.1286 67.1923 93.3622 64.4838 94.4201 61.0758C94.6339 62.542 95.2649 63.8336 94.2742 66.5228C93.391 68.9497 92.2358 69.5424 92.2358 69.5424C92.2358 69.5424 92.8086 69.4451 93.6528 68.9401C93.7987 69.2992 93.7699 69.7081 94.0124 69.8528C94.255 69.9974 94.5852 70.2412 94.6339 70.4742C94.8956 70.0857 95.3033 69.5904 95.43 69.2217C95.3328 69.9897 95.2649 73.3478 95.622 75.0566C96.3702 74.9888 97.1369 74.9401 97.6611 73.5904C97.302 74.9113 97.302 75.7068 97.5446 76.8332C97.9427 76.5619 98.3017 76.0761 98.3017 76.0761L98.3043 76.078Z" fill="#C0993A"/>
<path fill-rule="evenodd" clip-rule="evenodd" d="M73.0773 22.5632C73.0773 22.5632 72.3298 22.8736 71.0581 22.8736C69.9516 22.8736 70.262 22.4467 68.534 22.4467C65.8741 22.4467 56.5826 23.9827 54.9512 23.961C53.8927 23.9418 58.5237 24.4173 58.5237 24.4173L70.3592 24.5824L72.7375 24.3904L73.6213 22.592L73.0773 22.5632Z" fill="#A88F33"/>
<path fill-rule="evenodd" clip-rule="evenodd" d="M42.3887 45.6992C42.3887 45.6992 40.8739 46.8544 40.2332 47.7383C39.5926 48.6221 39.2527 49.2039 38.5244 49.9226C38.6954 49.9291 38.8662 49.9062 39.0294 49.8548C39.0294 49.8548 39.0294 50.0468 38.9129 50.0973C39.1168 50.0745 39.32 50.1451 39.4659 50.2893C39.2521 50.4058 38.6697 50.9888 39.126 51.6781C39.4659 52.2023 40.1846 52.2503 40.1846 52.2503C40.1846 52.2503 40.0195 52.7264 40.7087 52.6778C42.1942 52.61 43.8543 51.9591 44.6211 52.1242C45.3891 52.3162 45.8255 52.3866 46.3689 53.3287C46.9449 54.2605 47.4467 54.4064 47.4467 54.4064C47.4467 54.4064 47.7865 53.5418 47.7091 52.2509C47.9877 51.5551 48.1421 50.8158 48.1654 50.0666L47.6604 46.3482L45.4569 43.5616L42.6025 45.1444L42.3887 45.6973V45.6992Z" fill="#E3C571"/>
<path fill-rule="evenodd" clip-rule="evenodd" d="M45.0967 45.1456C45.0967 45.1456 45.3104 45.6505 46.2039 45.6985C46.1066 45.9123 46.1066 45.9417 46.136 46.1062C46.1552 46.2713 46.184 46.5139 46.184 46.5139C46.2824 46.4663 46.3713 46.4013 46.4464 46.3219C46.4951 46.5357 46.3978 46.8749 46.4464 47.1181C46.4765 47.266 46.5253 47.4094 46.5917 47.5449C46.6059 47.5117 46.6221 47.4795 46.6404 47.4483C46.6596 47.3997 46.8324 47.9725 47.3104 48.4083C47.31 48.3413 47.3265 48.2752 47.3584 48.2163C47.3658 48.338 47.406 48.4555 47.4749 48.5561C47.4391 48.5391 47.4065 48.5162 47.3783 48.4883C47.3783 48.4883 47.4263 50.0243 47.6887 50.8185C47.7325 50.7672 47.7715 50.712 47.8052 50.6534C47.8052 50.6054 47.786 51.0809 47.7373 51.4214C47.6695 51.7613 47.7181 52.2368 47.7181 52.2368C47.8932 52.099 48.0855 51.9847 48.2903 51.8969C48.5815 51.7798 49.0583 51.4208 49.3488 50.6246C49.5174 50.1737 49.6474 49.7093 49.7373 49.2365C49.8312 49.4172 49.896 49.6116 49.9293 49.8125C49.9492 50.055 50.4055 49.9289 50.4055 49.9289L50.5028 48.8704L51.0788 46.4723L51.6029 44.9869L54.1271 41.0553L58.6877 37.543L62.6685 38.4557L66.0272 33.8925L60.241 30.4166L54.7652 30.9894L49.7956 37.8726L45.8154 44.1158L45.0967 45.1449L45.0967 45.1456Z" fill="#D8B65B"/>
<path fill-rule="evenodd" clip-rule="evenodd" d="M73.7765 35.1846C73.7765 35.1846 73.4367 35.2525 72.4562 35.7606C71.4757 36.2688 70.7961 36.4301 70.4172 37.1776C70.0383 37.9251 70.0095 38.5177 70.0095 38.5177C70.0095 38.5177 70.6796 38.2265 71.0681 38.1293C71.4757 38.0326 71.9321 38.0614 71.8834 38.2265C71.8367 38.3398 71.7719 38.4446 71.6914 38.5369C71.6914 38.5369 72.4594 38.5177 72.4389 38.8966C72.4185 39.2755 72.2937 39.6928 72.1484 39.8771C72.0025 40.0691 71.4009 40.3533 71.333 40.5766C71.1679 41.0329 71.4009 41.0521 71.3132 41.4208C71.2453 41.7805 70.9253 42.4793 69.8764 43.7024C68.7986 44.9261 68.3404 45.7901 68.3404 45.7901C68.3404 45.7901 67.8162 44.8096 67.5442 43.9648C67.3522 44.0614 66.3212 44.6342 66.3212 44.6342L63.9327 36.3142L63.9807 35.7606C63.9807 35.7606 64.1945 35.4989 64.2431 35.0131C63.8841 34.8966 63.8354 34.7993 63.3593 34.3437C62.8831 33.888 62.4953 33.3337 61.6997 32.9549C61.5833 32.7411 61.4373 32.4505 60.8549 32.3334C60.2725 32.2163 59.9231 32.1203 59.9231 32.1203C59.9231 32.1203 60.2335 32.0032 60.3794 31.7606C60.0197 31.8093 59.7292 31.9257 58.9426 31.9065C58.1465 31.8867 58.0588 31.8579 57.6223 31.9257C57.1858 31.9936 56.6623 32.1881 56.4671 31.5181C56.2533 31.3529 55.797 31.4989 55.4085 32.071C55.0201 32.6432 54.8844 33.1001 54.1369 33.3235C54.0843 33.653 53.9689 33.9694 53.797 34.2553C53.5833 34.615 53.2434 34.9741 52.7871 35.5078C52.0684 36.3526 52.1849 37.7408 51.0393 38.7993C49.8841 39.8573 51.2313 35.8669 51.2313 35.8669L53.0757 31.4509L58.3282 26.3149L66.4837 25.7619L67.2799 29.9859L71.2607 31.3549L73.7753 35.1897L73.7765 35.1846Z" fill="#D3AE4D"/>
<path fill-rule="evenodd" clip-rule="evenodd" d="M75.0683 36.1165L71.6411 31.175L69.243 29.3299C69.243 29.3299 67.5342 26.185 67.4177 26.0877C67.3205 26.0198 65.7089 25.8451 64.6798 25.7773L64.8718 26.2528C65.0964 26.3258 65.296 26.4604 65.4478 26.6413C65.9041 27.1654 66.1953 28.1555 65.1566 29.2141C65.5643 29.3594 65.7326 29.4061 66.0885 29.3594C65.7294 29.7869 64.9141 30.6995 64.8654 31.4957C64.8168 32.1459 65.2245 32.3398 65.2245 32.3398C65.2245 32.3398 64.603 33.0586 64.5742 34.2598C64.8677 33.9289 65.1889 33.6236 65.5342 33.3472C66.2529 32.7712 67.243 32.1235 67.9131 31.7158C67.904 31.8869 67.927 32.0582 67.9809 32.2208C67.9809 32.2208 69.2328 31.1917 70.2849 31.648C70.7605 31.8618 70.5467 32.5318 70.5467 32.5318C70.5467 32.5318 71.1976 32.2893 71.6539 32.7456C72.1102 33.2019 72.7605 34.3763 73.0907 34.8333C73.236 35.047 73.6149 35.4547 74.0027 36.0851C74.5327 36.9688 74.9751 37.902 75.3237 38.8717C75.3429 38.4832 75.4209 37.9398 76.0917 37.9398L75.0721 36.1146L75.0683 36.1165Z" fill="#CAA13E"/>
<path fill-rule="evenodd" clip-rule="evenodd" d="M23.6898 50.1556C23.6898 50.1556 23.4473 49.5533 23.6898 48.3789C23.9324 47.2045 24.3113 46.6509 24.4374 44.9229C24.5634 43.1949 25.6898 41.0394 25.6898 41.0394L28.806 39.6224L31.0102 40.224L31.6604 43.1757L28.8738 44.7117C28.8738 44.7117 28.7286 45.362 27.942 45.8861C27.1554 46.4103 26.0681 46.818 25.8063 47.3524C25.6498 47.6796 25.5356 48.0254 25.4665 48.3815C25.4665 48.3815 24.6703 48.2164 24.1948 48.7405C23.6898 49.2749 23.709 49.7504 23.6898 50.1581V50.1556Z" fill="#F4EFC8"/>
<path fill-rule="evenodd" clip-rule="evenodd" d="M29.9806 49.369C29.9806 49.369 29.7182 49.5341 29.5243 49.945C29.3323 49.6346 28.8734 47.7894 28.8542 46.1293C28.835 44.4691 28.7358 44.0576 29.1198 43.4854C29.5038 42.9133 31.0097 42.3104 30.7959 41.28C30.5822 40.2995 29.6887 39.8918 28.5918 40.1734C27.8238 40.3654 27.2523 41.9987 26.4561 42.8141C25.8539 43.4355 25.1358 43.3382 24.9419 43.6781C24.6795 44.1344 24.922 44.5907 24.8446 44.8819C24.8247 44.9792 24.5822 45.5034 24.1451 46.1344C23.2619 47.4061 21.7668 49.2026 21.5723 50.8141C21.6401 49.9014 21.5921 49.8822 21.8347 48.8723L21.6887 48.6298L22.6487 45.4842L23.2702 42.8922L24.659 38.5517L27.1051 34.1152L29.4839 31.4547L31.9595 31.6198L32.2507 35.3382L33.6683 42.3194L36.6487 45.9891L31.8718 49.2038L29.9787 49.369H29.9806Z" fill="#EBCC73"/>
<path fill-rule="evenodd" clip-rule="evenodd" d="M31.4662 50.6879C31.4662 50.6879 31.0585 50.7852 30.9126 50.7078C30.7667 50.6303 30.622 50.5427 30.67 50.4454C30.718 50.3481 30.9804 50.1836 30.9804 50.1055C30.9916 49.9589 30.8842 49.8298 30.7379 49.8143C30.5145 49.7855 30.4467 49.9308 30.4467 49.9308C30.4467 49.9308 30.2329 49.7663 30.0588 49.7388C30.1618 49.7262 30.2655 49.7196 30.3692 49.719C30.1009 49.5975 29.8163 49.5157 29.5244 49.4764C29.767 49.3311 30.2431 48.9036 30.5535 48.9036C30.8639 48.9036 31.0585 48.8556 31.0099 48.6905C30.9612 48.5254 30.7187 48.2828 30.4569 48.1855C30.5535 48.0691 30.622 47.8943 30.3891 47.4175C30.1459 46.942 30.2431 46.6214 30.3212 46.5055C30.3891 46.3596 30.6316 46.0979 30.7481 45.9327C30.8646 45.7676 30.9619 45.5443 31.1558 45.4278C31.2531 45.3599 31.5635 45.2358 31.8745 45.1174C32.2143 45.0009 32.4959 44.855 32.6899 45.0009C32.9036 45.1462 32.8063 45.3407 32.8063 45.3407C32.8063 45.3407 33.4764 45.0975 34.078 45.4086C34.6803 45.6991 36.1465 45.8841 36.1465 45.8841L36.6719 46.9427L33.1961 49.9231L31.7593 50.6419L31.4681 50.6899L31.4662 50.6879Z" fill="#E5C66B"/>
<path fill-rule="evenodd" clip-rule="evenodd" d="M36.2913 45.8157C36.2913 45.8157 35.2135 46.5344 34.971 46.7962C35.1162 46.816 35.3588 46.9133 35.2615 47.0586C35.145 47.2038 34.4462 47.7088 34.0577 48.185C33.65 48.6605 33.2615 49.2627 33.1258 49.5539C32.9806 49.8157 31.8734 50.583 31.4951 50.6797C32.2913 50.6797 33.8932 49.6992 34.4948 49.6992C34.4756 49.9904 34.6599 50.3206 34.9998 50.3494C35.3396 50.3782 36.3201 50.5632 37.6404 49.7478C38.9607 48.9517 38.5242 48.359 39.0772 47.9712C40.1358 47.2717 40.5626 46.6502 41.145 46.2624C41.7274 45.8746 42.0289 45.7862 42.0289 45.7862C42.0289 45.7862 42.0481 45.495 42.2209 45.5245C42.3173 45.5355 42.3996 45.5991 42.4346 45.6896C42.4346 45.6896 43.4446 44.9709 44.7386 44.777C44.7084 44.7635 44.6843 44.7393 44.6708 44.7091C44.6708 44.7091 44.7674 44.6605 44.7873 44.6118C44.7873 44.6118 44.8551 44.5146 44.9038 44.5632C44.9524 44.6118 45.0202 44.9709 45.1175 45.1168C45.3313 45.0195 45.739 44.1069 45.739 44.1069L46.7201 41.3011V38.7379L45.9521 38.8838L40.1921 41.3299L36.6964 44.9517L36.2887 45.8157H36.2913Z" fill="#E6BD62"/>
<path fill-rule="evenodd" clip-rule="evenodd" d="M52.874 33.2429C53.1856 33.1673 53.4843 33.0461 53.7604 32.8832C53.6439 33.1942 53.6439 33.5341 53.139 34.272C52.634 35.0099 52.6148 35.1168 52.2071 35.8835C51.7994 36.6797 51.7508 37.8253 51.3623 38.3296C51.5364 38.245 51.7232 38.1894 51.9153 38.1651C51.9153 38.1651 51.5274 38.505 51.3623 38.864C51.1972 39.223 50.906 39.9706 50.1879 40.4275C49.4698 40.8845 48.5566 41.175 47.5761 42.2528C46.595 43.3107 45.5857 44.6509 45.0801 45.1328C45.3425 44.6765 45.7015 43.7638 45.7988 43.1622C45.8961 42.5606 45.779 41.8413 45.9441 41.0458C46.1092 40.2502 46.1092 39.6768 46.9041 38.288C47.699 36.8992 49.0596 32.0742 49.0596 32.0742L51.9914 31.1424L52.8753 33.2397L52.874 33.2429Z" fill="#B6933F"/>
<path fill-rule="evenodd" clip-rule="evenodd" d="M50.7574 31.4663C50.7574 31.4663 49.8742 32.7379 49.6317 33.8643C49.3891 34.9907 49.6118 34.8935 49.4665 35.4471C49.3796 35.7846 49.3796 36.1387 49.4665 36.4762C49.7724 35.9834 50.1912 35.5705 50.6883 35.2717C51.5235 34.7674 52.2032 34.4077 52.6083 33.9808C53.016 33.5245 53.3558 32.777 54.239 32.2042C53.88 32.1555 53.375 31.9904 53.279 32.0122C53.6387 31.6045 54.7158 30.9831 55.8032 30.2355C56.8809 29.4675 56.8131 29.1578 58.5609 28.3911C57.9881 28.4883 57.7161 28.3424 57.24 28.3911C57.432 27.9834 58.104 27.7888 58.776 27.1194C59.448 26.4499 58.3491 25.4592 58.3491 25.4592L53.2291 28.5562L50.7536 31.4688L50.7574 31.4663Z" fill="#C49937"/>
<path fill-rule="evenodd" clip-rule="evenodd" d="M36.8643 29.1552L36.9807 28.2233L38.447 25.8739L39.9811 21.7478V16.1069L39.8646 12.8448L40.1071 10.7085L40.2915 10.0294L40.486 9.76703L41.7379 10.4173L43.4665 12.7667L43.6316 17.3011L41.9516 24.4563L37.1555 29.6896L36.8643 29.1552Z" fill="#DFC068"/>
<path fill-rule="evenodd" clip-rule="evenodd" d="M40.6796 9.50465C40.6796 9.50465 39.9116 9.52449 39.7478 12.7187C39.5839 15.913 39.5046 17.5923 39.3881 19.1751C39.2716 20.7578 39.0002 21.7184 38.8639 22.6509C38.7276 23.5834 38.6502 24.8544 38.2137 25.6314C38.0217 25.9904 37.6114 27.1168 36.6502 27.9616C35.5724 28.8935 33.9622 29.5443 33.7183 29.593C33.2908 29.6896 31.1257 29.9034 30.2425 30.3891C29.9321 30.5543 29.3977 30.7482 28.8057 31.3018C27.6306 32.3597 26.0678 34.2528 24.9414 36.5344C23.2134 39.9424 21.4854 49.5635 21.4854 49.5635L21.8738 48.9133C21.8738 48.9133 21.9225 48.0493 22.7865 46.5344C23.6313 45.0202 23.3887 43.321 24.5631 40.4179C25.0194 39.3114 25.5922 37.8746 26.2911 36.6509C27.3983 34.6605 28.7378 32.9517 30.0876 32.0199C32.2911 30.5056 34.7186 30.1754 34.7186 30.1754L37.3305 28.4474C37.3305 28.4474 37.7868 27.5642 38.389 26.5543C39.2332 25.1373 40.309 23.5546 40.5439 21.2538C40.9036 17.8458 40.039 15.6128 40.0876 13.5936C40.1362 11.5744 40.1554 10.089 40.5638 9.72929C40.9721 9.36961 40.6802 9.50593 40.6802 9.50593L40.6796 9.50465Z" fill="#A88F33"/>
<path fill-rule="evenodd" clip-rule="evenodd" d="M40.68 24.7475C40.68 24.7475 41.832 21.9123 42.3593 19.3978C42.4566 18.8928 42.6505 18.3885 42.6992 17.9808C42.9417 15.6019 43.0096 14.6214 42.6992 13.3203C42.4566 12.3603 41.5248 11.495 41.039 10.8243C40.5635 10.1248 40.3401 9.86432 40.4374 9.71712C40.5347 9.56992 40.9129 9.32928 41.2816 9.35808C42.0735 9.38113 42.8212 9.72817 43.3501 10.3181C44.0976 11.1821 44.6896 14.1146 44.6896 14.1146L45.3123 17.984L46.895 22.8576L40.6813 24.7514L40.68 24.7475Z" fill="#C99E3D"/>
<path fill-rule="evenodd" clip-rule="evenodd" d="M51.5045 21.7965C51.5045 21.7965 51.2907 21.8931 50.9029 21.7965C50.9366 22.1196 50.7866 22.4345 50.5144 22.6118C50.1067 22.4467 46.2904 22.777 46.2904 22.777C46.2904 22.777 44.5138 22.4659 43.9602 20.1165C43.5723 18.553 44.2514 16.3981 44.028 14.9805C43.6882 12.8928 43.2126 12.4845 43.164 11.8349C43.1154 11.1853 43.0667 11.0195 43.0667 10.6118C42.853 10.5632 42.7269 10.4954 42.5138 10.4954C42.4651 10.3034 42.5618 10.1357 42.3486 9.79584C42.4651 9.84448 43.2613 9.94176 44.1931 10.825C44.9611 11.5437 44.9611 11.8054 45.077 11.9514C45.2222 12.0966 46.3973 13.1034 46.9022 14.1069C47.4072 15.1104 48.3877 18.3104 48.611 18.8346C48.6789 19.0483 48.8248 19.2621 49.187 19.7472C49.7502 20.4467 50.5752 21.6032 51.507 21.7952L51.5045 21.7965Z" fill="#B58634"/>
<path fill-rule="evenodd" clip-rule="evenodd" d="M45.2139 12C45.802 12.9501 46.3304 13.9359 46.7959 14.9517C47.3687 16.2426 47.7086 17.3011 48.4273 18.1651C48.0388 17.0394 47.3495 14.8256 46.9419 14.039C46.4855 13.207 45.5537 12.311 45.2139 12.0006V12Z" fill="#A88F33"/>
<path fill-rule="evenodd" clip-rule="evenodd" d="M38.6122 27.9616C38.6122 27.9616 37.6317 28.2041 35.8064 29.1654C35.2042 29.4758 34.632 29.7376 34.0784 29.9808C32.6403 30.631 31.0979 31.232 29.8743 31.5635C29.9715 31.68 30.0195 31.728 30.0195 31.728C30.0195 31.728 30.0195 32.2041 30.2819 32.4755C30.1367 32.6214 28.1943 33.9417 28.7677 38.359C29.1555 38.2137 29.6119 38.0192 29.6797 38.0192C29.7968 38.039 29.8256 38.359 29.9709 38.359C30.1162 38.359 30.5923 38.167 31.0973 37.5142C31.0781 37.7766 30.7869 40.4173 32.3498 42.1939C32.641 41.8541 33.3789 40.7277 33.3789 40.7277L33.3981 40.3686C33.3981 40.3686 33.4659 39.1161 33.8743 37.9705C34.2826 36.8249 35.0781 35.9801 35.0781 35.9801L39.2323 30.048L38.6109 27.9609L38.6122 27.9616Z" fill="#E6C367"/>
<path fill-rule="evenodd" clip-rule="evenodd" d="M34.7282 36.672C34.538 36.8064 34.3285 36.9111 34.1068 36.9824C34.0389 36.7399 33.9417 35.9047 34.5145 35.0893C35.1845 34.1082 36.6501 32.8365 37.0578 31.8253C37.3202 31.1744 37.2037 29.5437 39.534 27.456C41.8642 25.3683 42.7762 24.6503 42.7762 24.6503L46.5433 22.7571L51.1743 24.5824L48.8735 33.6L47.0873 37.824L39.9833 36.4845L34.7276 36.672H34.7282Z" fill="#DCBA5A"/>
<path fill-rule="evenodd" clip-rule="evenodd" d="M37.4404 34.2233L38.3243 33.1168V32.3302C38.3243 32.3302 39.3047 32.0678 40.3627 30.9901C41.4206 29.9123 42.8868 27.8445 44.1783 27.9705C45.4699 28.1165 45.5959 30.7763 45.6446 31.5245C45.6932 32.2726 45.8583 33.9705 46.1201 34.8838C46.4113 35.7965 42.9745 39.2525 42.9745 39.2525L40.6404 41.0291L37.4404 34.2233Z" fill="#E9CE77"/>
<path fill-rule="evenodd" clip-rule="evenodd" d="M40.1748 43.4368C40.1748 43.4368 40.8935 42.3104 40.3668 42.0678C40.6772 41.369 41.25 40.631 41.25 40.631C41.25 40.631 41.6577 39.6218 42.978 38.3789C44.2983 37.136 45.1143 36.3104 45.3281 35.4758C45.4599 34.9319 45.5315 34.3752 45.5418 33.8157C45.6846 33.9323 45.8373 34.0362 45.9982 34.1261C46.2119 34.2234 47.2212 35.0579 47.0759 36.7379C46.9306 38.4179 46.3079 39.1168 46.3079 39.1168C46.3079 39.1168 45.7063 39.7184 45.2794 40.0294C44.8225 40.3398 44.658 40.6989 43.8906 40.7283C43.9695 40.6656 44.0582 40.6163 44.153 40.5824C44.153 40.5824 43.3569 40.4858 42.9294 40.8736C42.5018 41.2614 41.593 42.4563 41.1367 42.816C40.6804 43.1072 40.1767 43.4374 40.1767 43.4374L40.1748 43.4368Z" fill="#CDAE50"/>
<path fill-rule="evenodd" clip-rule="evenodd" d="M72.4561 24.5529C71.3091 24.1349 70.1036 23.8991 68.8836 23.8541C66.8446 23.7862 63.8641 23.9027 60.9418 23.9219C57.7962 23.9411 54.9418 22.8442 50.9809 22.6502C50.3306 22.2617 48.6769 20.5626 43.5146 24.1645C43.825 24.1453 47.2625 23.3683 48.4561 24.864C49.6599 26.3494 49.3201 28.8736 49.1556 29.4752C48.8446 30.8154 47.8346 32.7667 47.4276 34.1357C47.0206 35.5046 47.1166 36.224 46.8254 37.184C46.5342 38.144 45.8935 38.6208 46.2718 39.7274C46.7767 39.417 47.0398 39.417 47.8833 37.5238C48.7268 35.6307 48.5534 34.281 49.9518 32.679C51.3207 31.0675 53.5998 28.8633 54.4663 28.3098C55.3329 27.7562 62.2135 24.1837 69.418 27.5917C71.1556 27.4074 72.4567 24.5523 72.4567 24.5523L72.4561 24.5529Z" fill="#D2A83E"/>
<path fill-rule="evenodd" clip-rule="evenodd" d="M46.4177 23.232C46.4106 23.159 46.3945 23.0872 46.3697 23.0182C46.3024 22.8762 46.2139 22.7453 46.1073 22.6297C46.1073 22.6297 44.3985 22.3193 43.5345 22.416C42.0197 22.5811 40.6507 24.455 40.0101 25.4163C39.3694 26.3776 38.5733 27.8624 37.7093 28.6297C37.7187 28.555 37.7015 28.4793 37.6606 28.416C37.6606 28.416 37.7093 28.4838 37.6126 28.5811C37.516 28.6784 37.5153 28.7264 37.564 28.7731L37.7099 28.9184C37.7579 28.9184 39.0981 28.3161 40.9233 26.6144C42.8651 24.8377 44.3505 23.9264 45.1275 23.6141C45.5419 23.438 45.9749 23.3098 46.4184 23.232H46.4177Z" fill="#C29637"/>
<path fill-rule="evenodd" clip-rule="evenodd" d="M79.5637 15.9322C79.5637 15.9322 79.2527 16.32 78.8642 16.7475C78.0002 17.6602 76.8738 18.6887 75.9125 19.7472C75.0005 20.7572 73.9714 21.5437 72.8156 22.864C71.6597 24.1844 70.3196 25.65 69.9804 26.0775C69.67 26.505 69.4274 27.2039 69.4274 27.5629C69.2623 27.4464 69.0684 27.3203 69.0684 27.3203C69.15 27.4728 69.2476 27.6161 69.3596 27.7479C69.6021 28.0877 69.9804 28.5159 70.1749 28.777C70.4136 29.1094 70.5849 29.4853 70.6792 29.8835C70.7957 29.9028 71.5432 30.0487 72.4757 28.5146C73.4082 26.9805 74.6306 25.3012 74.6306 25.3012L76.5724 22.4173L77.796 19.9712L79.332 17.2333L79.5656 15.9322H79.5637Z" fill="#AC8132"/>
<path fill-rule="evenodd" clip-rule="evenodd" d="M81.5541 13.9712C81.5541 13.9712 80.379 14.9312 79.9227 15.5072C79.4664 16.0832 78.3867 17.5949 78.3867 17.5949L78.7752 17.5462L80.7464 15.799L81.5144 14.4301L81.5534 13.9738L81.5541 13.9712Z" fill="#A88F33"/>
<path fill-rule="evenodd" clip-rule="evenodd" d="M81.1946 91.1264C81.1946 91.1264 81.1754 90.3303 81.6221 89.8548C82.0784 89.3786 83.2336 88.6797 84.36 86.0583C85.4864 83.4368 85.6119 82.8448 85.6119 82.8448C85.6119 82.8448 83.5927 84.5728 82.3479 84.9805C82.6391 84.3783 82.8042 83.9514 82.9501 83.6404C82.785 83.4951 82.0861 83.33 82.0183 83.2525C82.4061 82.864 82.6199 81.9124 83.4064 81.2813C84.4163 80.5133 86.2608 79.1936 87.6944 78.0173C89.128 76.841 91.9466 74.105 92.3063 73.3088C92.52 73.6192 92.568 73.8132 92.568 73.8132C92.568 73.8132 91.1511 75.6583 90.4131 76.8327C89.7623 77.8426 89.8109 78.4154 89.8109 78.4154L91.1511 77.8394C91.1511 77.8394 91.5389 79.2762 89.7821 81.4612C90.5501 81.17 90.8599 81.3447 91.2963 81.1015C90.5776 81.5584 89.5875 82.1799 88.6557 83.888C87.7431 85.5968 86.5002 87.5872 84.4035 88.8295C82.3645 90.1402 81.1895 91.1207 81.1895 91.1207L81.1946 91.1264Z" fill="#A67A2E"/>
<path fill-rule="evenodd" clip-rule="evenodd" d="M75.9319 25.5635C75.9319 25.5635 75.1357 27.2231 75.0193 28.5146C75.0001 28.8256 74.922 29.0682 74.922 29.4272C74.9028 30.5824 74.9898 31.8739 74.73 32.4755C74.6327 32.233 74.5841 32.0679 74.4868 31.9712C74.3415 32.3789 74.0791 33.6506 73.8653 34.1261C73.7687 33.8157 73.5549 32.7379 73.5748 31.4663C73.5946 30.1946 73.6228 29.9514 73.6228 29.6896C73.5748 30.0775 73.3124 30.6023 73.2151 30.9127C73.0698 30.6509 72.9047 30.3111 72.7101 30.0295C72.5937 30.2215 72.4484 30.505 72.3223 30.6509C72.3025 30.5344 72.2545 30.2234 72.225 29.7869C72.2058 29.2819 72.1764 28.6317 72.2058 28.4954C72.2538 28.2336 72.6621 27.2045 73.5261 26.2624C74.5553 25.136 75.6138 22.9715 75.9242 22.3015C76.2346 21.6314 77.5549 18.8455 77.5549 18.8455H78.5649L77.0986 22.185C77.0986 22.185 76.2154 24.0103 75.7591 24.681C75.3028 25.3517 74.3415 27.2736 73.914 28.0211C74.2244 27.6135 74.4868 27.3997 74.7978 27.0112C75.0986 26.7392 75.9332 25.5648 75.9332 25.5648L75.9319 25.5635Z" fill="#8C6228"/>
<path fill-rule="evenodd" clip-rule="evenodd" d="M81.573 13.8445C81.408 14.3522 81.1473 14.8236 80.805 15.2333C80.2028 15.952 78.9112 16.9126 78.2808 17.6794C77.7048 18.4269 76.5528 20.4659 77.0764 22.8832C77.2684 22.359 77.63 21.3203 78.5912 20.1453C79.5525 18.9702 80.5816 17.6211 81.0872 16.5728C81.5916 15.5142 81.6594 14.6797 81.6594 14.6797L81.8514 14.4371L81.7349 13.8835L81.5698 13.8445L81.573 13.8445Z" fill="#CBA94C"/>
<path fill-rule="evenodd" clip-rule="evenodd" d="M101.233 78.2426C101.233 78.2426 100.845 77.1847 100.728 76.2234C100.612 75.2621 100.92 75.0714 100.563 73.9712C100.349 73.3011 99.9613 73.3952 99.864 73.3011C99.7667 73.2071 99.6989 72.1946 99.7181 71.641C99.7373 71.0874 99.6989 70.3693 99.6016 70.0583C99.4563 69.9418 99.3591 69.8445 99.1453 69.1264C98.9027 68.4077 98.7863 68.0487 98.6698 67.8355C98.5533 67.6224 98.2128 67.4279 98.2128 67.2141C98.2128 66.7866 98.6013 66.5639 98.6013 66.4461C98.5821 66.2035 98.2909 66.3981 98.2128 66.3296C98.1162 66.2131 98.456 65.5143 98.3299 65.417C98.2813 65.369 97.9415 65.7767 97.8538 65.6602C97.7565 65.5431 97.64 64.3879 97.4653 63.6211C97.3008 62.8736 97.1255 62.3303 97.1063 62.1069C97.0871 61.8931 95.7661 58.1261 95.4461 57.2135C95.1882 56.4423 94.9712 55.6581 94.7959 54.864C94.6986 54.4077 94.6307 53.4752 94.5821 53.5725C94.5335 53.6698 94.5629 54.1453 94.4848 54.1261C94.417 54.1063 94.1744 52.4467 94.097 52.1843C94.0291 51.9219 93.6208 51.0323 93.521 50.3885C93.4237 49.7376 93.2106 48.0384 93.0647 46.8832C92.9187 45.728 92.8509 45.2525 92.8509 44.9632C92.8748 44.2557 92.8358 43.5474 92.7344 42.8467C92.5424 41.6231 92.1584 40.1376 91.8218 39.2743C91.1715 37.6429 89.4429 33.4682 89.1338 32.4295C89.1338 32.1671 89.4736 32.313 89.4736 32.313C89.4736 32.313 90.3178 34.4295 90.9392 36.0602C91.5415 37.6915 92.1143 39.1283 92.2602 39.2743C92.3767 39.4195 93.2893 41.0215 93.697 43.6429C94.1047 46.2643 94.2499 48.6816 94.4931 50.2931C94.6096 51.0611 94.7069 51.8759 94.9495 52.6912C95.2112 53.5751 95.6189 54.4877 96.1533 55.8855C96.6096 57.0605 96.9495 58.041 97.1338 58.8858C97.3475 59.9635 97.3475 60.7789 97.4736 61.3133C97.5907 61.7696 97.7648 62.6816 98.1731 64.0013C98.5815 65.321 99.1824 67.0208 99.5901 68.0787C100.387 70.1952 100.742 71.9623 100.862 72.9043C100.969 73.8752 101.328 77.2346 101.231 78.2439L101.233 78.2426Z" fill="#A88F33"/>
<path fill-rule="evenodd" clip-rule="evenodd" d="M81.6222 13.728L81.5736 13.8445C81.5736 13.8445 81.7188 13.8931 81.69 14.0877C81.6921 14.3539 81.6759 14.6199 81.6414 14.8839C81.5934 15.2237 81.4961 15.4855 81.4769 15.6992C81.4769 16.1555 81.5448 16.6797 80.9009 17.9808C80.7089 18.3399 80.5905 18.6503 80.4932 18.864C80.2507 19.3882 80.202 19.4663 79.9883 19.7088C80.3281 19.5168 81.5518 18.7488 82.1726 18.864C81.7457 19.1066 81.0948 19.5827 80.6872 20.2042C80.7844 20.2234 81.1921 20.3015 81.8392 20.2042C82.9169 20.0391 84.1208 19.6506 85.1787 19.728C86.3345 19.7959 85.8782 18.3399 85.8782 18.3399L84.5444 15.408L82.0203 13.632L81.6222 13.7287V13.728Z" fill="#BE9C44"/>
<path fill-rule="evenodd" clip-rule="evenodd" d="M88.2046 35.6896C88.2046 35.6896 87.0782 34.5632 86.6219 30.6976C86.1656 26.8141 86.2629 21.0976 86.2629 21.0976L85.3502 18.8647C85.3502 18.8647 85.1582 17.3792 84.6802 16.8263C84.2021 16.2733 83.2632 15.3408 82.8357 14.8845C82.4082 14.4282 81.923 13.8067 81.6318 13.7095C81.7771 13.4669 82.428 12.0979 84.9227 12.0787C87.4174 12.0595 88.1867 13.4477 88.4472 13.9527C88.7077 14.4576 89.884 16.6407 90.3205 20.8007C90.7282 24.9555 90.748 25.2666 90.6802 26.7034C90.6315 27.4995 90.3691 29.344 89.9122 31.3146C89.4949 32.985 89.0386 34.8493 88.2034 35.6935L88.2046 35.6896Z" fill="#A17C34"/>
<path fill-rule="evenodd" clip-rule="evenodd" d="M84.6721 39.0003C85.0475 39.0274 85.4225 38.9428 85.7499 38.7571C86.1089 38.7379 87.41 38.903 88.4097 37.6313C88.4775 37.9219 88.6529 38.7091 88.1959 39.408C88.4391 39.1648 88.7982 39.0681 88.8468 39.0003C88.866 39.3593 89.2059 40.4659 87.7691 43.1552C88.1569 42.7283 88.6132 42.7475 89.0209 42.6989C89.0407 43.2038 89.3121 44.9024 88.594 45.8157C88.1185 46.4371 87.3415 46.2425 87.3415 46.2425C87.3529 46.1069 87.3529 45.9705 87.3415 45.8349C87.3223 45.5725 87.2251 45.3107 87.2935 45.136C86.9181 44.9645 86.5761 44.7276 86.2836 44.4365C85.4388 43.6403 84.3419 42.2816 84.2644 41.2717C84.1671 40.1453 85.1771 39.9027 85.1771 39.9027C85.0925 39.827 85.0203 39.7385 84.9633 39.6403C84.9147 39.4758 84.866 39.2134 84.6721 39.0003Z" fill="#8C6228"/>
<path fill-rule="evenodd" clip-rule="evenodd" d="M77.1844 26.7866C77.1844 26.7866 77.1358 26.7187 76.874 27.0291C76.9227 26.7187 76.9713 26.4269 76.9905 26.1453C77.1144 25.8846 77.2747 25.6428 77.4667 25.4272C77.3207 25.7178 77.2235 25.9802 77.2235 25.9802C77.2235 25.9802 77.5831 25.3101 78.1073 24.9024C78.4663 24.6112 78.9227 24.4755 79.1166 24.2035C79.3303 23.9123 79.2817 23.8637 79.3303 23.815C79.3303 23.815 79.8065 23.5046 80.5348 22.5914C80.6315 22.4749 80.7774 22.3488 80.8747 22.2323C81.0391 22.1645 81.4276 21.9898 81.8839 21.7562C82.3601 21.4944 82.8939 21.1354 83.2241 20.9882C83.8743 20.697 84.5643 20.7264 84.8843 20.2694C85.1268 20.2016 85.3886 19.4733 85.3406 18.8525C85.6996 18.9978 87.5441 20.1434 88.1758 22.6483C88.6321 24.425 87.8161 27.1629 87.4763 28.4838C87.1364 29.8048 87.0884 30.7846 86.6123 31.3862C86.01 32.183 84.0689 33.3062 83.5927 33.8624C83.1851 34.3187 81.962 35.4739 82.01 36.3085C82.0587 36.9299 82.8254 37.2685 82.9911 37.3862C83.1569 37.504 83.1556 37.6486 83.4667 37.5782C83.7777 37.5078 83.8935 37.3645 84.0203 37.3645C84.1655 37.3837 84.1655 37.4131 84.2334 37.4131C84.2826 37.4117 84.3315 37.405 84.3793 37.3933C84.3793 37.3933 84.3307 38.2771 82.2628 38.5453C82.1169 38.5651 81.9716 38.6131 81.7867 38.6426C82.0299 38.5261 82.1751 38.5261 82.4375 38.167C82.1463 38.1184 81.3111 38.0698 81.0974 38.0019C81.1652 37.8854 81.3886 37.5744 81.5729 37.4291C81.738 37.2838 81.5537 37.2371 81.4084 37.3126C81.1583 37.4828 80.9183 37.6674 80.6897 37.8656C80.4471 38.0794 80.2334 38.3706 79.8449 38.6336C79.7284 38.2451 79.7476 37.5072 80.2046 36.9734C80.0875 36.9926 79.8641 37.3325 79.651 37.2646C79.6124 36.9105 79.6354 36.5524 79.7188 36.2061C79.8353 35.769 80.4663 35.0022 80.4663 35.0022L83.5147 29.5552L84.1649 25.4291L77.1844 26.7853V26.7866Z" fill="#92723A"/>
<path fill-rule="evenodd" clip-rule="evenodd" d="M77.0196 27.0195C77.0196 27.0195 76.8545 27.136 77.1847 27.3594C77.1361 27.4272 77.0196 27.6698 76.8737 27.8349C76.7092 28.0269 76.5338 28.1459 76.466 28.3111C76.3207 28.6509 76.2042 28.8839 76.2042 29.0298C76.2042 29.1757 76.1556 30.1075 75.7479 30.7091C75.602 30.9229 75.4369 31.2819 75.3204 31.5245C75.0778 31.9514 74.8641 32.2925 74.8154 32.4845C74.7188 32.8243 74.651 33.7562 74.651 33.7562C74.651 33.7562 74.8647 33.4938 74.9422 33.3971C74.825 33.6397 74.699 33.9015 74.5146 34.096C74.6311 33.9987 74.971 33.7562 75.5438 33.2512C76.3399 32.5818 77.5828 31.4554 79.0977 30.5632C78.6407 30.7283 78.2529 30.7283 77.9425 30.777C78.185 30.5344 80.3694 27.9712 81.515 27.7287C81.5845 27.6405 81.6192 27.5297 81.6122 27.4176L80.6311 27.321L78.6407 27.7479L78.3502 26.2119L77.0196 27.0176V27.0195Z" fill="#B18E3E"/>
<path fill-rule="evenodd" clip-rule="evenodd" d="M80.1846 35.7574C80.1846 35.7574 79.9222 36.0192 79.6796 36.6701C79.4929 36.4751 79.3328 36.2562 79.2035 36.0192C78.8444 35.4176 78.2915 34.6502 77 35.0873C76.9808 34.6797 76.9513 34.4659 77 34.1747C77.2137 34.1267 77.864 33.6025 78.5142 32.8352C78.9712 32.311 79.398 31.7088 79.6892 30.9421C79.8812 30.7961 80.2134 30.5536 80.6492 30.272C81.2707 29.8451 82.0182 29.2621 82.1347 28.6118C81.8435 28.7283 81.222 29.0195 80.2896 28.9715C80.6492 28.8064 81.2022 28.6317 81.1344 27.9129C81.2803 27.8157 81.3968 27.7478 81.3968 27.7478C81.2873 27.7113 81.1722 27.6948 81.0569 27.6992C81.0371 27.6313 81.0083 27.5347 80.8432 27.5827C80.678 27.6307 80.6512 27.6313 80.6294 27.6992C80.5616 27.719 80.3382 27.6992 80.1731 27.8163C80.008 27.9334 79.5516 28.3206 79.3769 28.3885C79.4448 28.272 79.5414 28.0979 79.5414 28.0979C79.5414 28.0979 79.0659 28.1459 78.726 28.2899C78.1046 28.5037 77.3865 28.8921 76.6582 29.2704C76.726 29.1539 76.7555 29.0784 76.8035 29.0566C76.8515 29.0349 76.9686 29.0086 76.9686 28.9888C76.9686 28.9689 76.9206 28.7968 76.9494 28.727C77.1671 28.2657 77.4241 27.824 77.7174 27.4067C78.0572 26.9497 78.1251 26.2995 78.1251 26.2995L79.6105 25.552L83.7852 24.592L86.4944 24.7571L86.1545 26.631L84.5545 29.9027L83.1856 32.8832L81.622 34.7091L80.1852 35.7574H80.1846Z" fill="#543E26"/>
<path fill-rule="evenodd" clip-rule="evenodd" d="M86.9518 27.648C86.9518 27.648 85.3205 29.6672 84.8642 29.9783C85.1554 29.3568 86.9518 25.6576 87.6021 24.6285C87.4568 24.512 87.2622 24.512 87.7186 22.7085C87.3307 23.6205 87.1944 24.0967 86.8744 24.3392C86.5544 24.5818 86.5147 24.5043 86.2984 24.5043C86.3393 24.4304 86.356 24.3457 86.3464 24.2618C86.3464 24.2618 84.9774 24.0967 84.0424 24.0967C83.1074 24.0967 81.2565 24.6016 80.2267 25.0093C79.4114 25.3491 78.955 25.3491 78.6638 25.5623C78.3726 25.8048 78.2075 26.0672 78.0616 26.1351C77.9451 26.2029 77.3922 26.3776 77.2654 26.5619C77.149 26.7539 76.955 26.9696 76.955 27.0183C76.955 27.0669 76.9064 27.1354 77.0523 27.0861C77.1003 27.0669 77.46 26.8723 77.8677 26.6298C78.4206 26.3194 79.0907 25.9603 79.5765 25.7466C80.9646 25.193 81.4018 25.2903 82.0226 25.1738C82.6728 25.0573 83.6053 24.7853 84.2261 24.7853C84.8475 24.7661 86.0226 24.7853 86.2946 24.8339C86.1781 24.9312 86.0808 25.0477 86.1294 25.4554C86.1294 25.5719 86.0322 25.6979 85.9374 25.9795C85.6469 26.7757 85.0933 28.096 84.7854 28.7661C84.3586 29.6781 83.8734 30.4455 83.6334 30.921C83.3934 31.3965 82.8654 32.649 82.3426 33.3191C81.8197 33.9891 81.5464 34.3968 81.3826 34.5427C81.2187 34.6887 80.0424 35.552 80.1301 35.8631C80.3438 35.7952 81.6936 35.2871 82.6734 34.1837C83.6533 33.0803 83.8485 32.4071 84.6152 31.8048C85.3819 31.2026 85.9842 30.1933 86.3432 29.3587C86.644 28.5818 86.5762 28.3392 86.9544 27.6499L86.9518 27.648Z" fill="#806031"/>
<path fill-rule="evenodd" clip-rule="evenodd" d="M51.7962 42.7187C51.7962 42.7187 51.5824 43.6019 51.0967 44.039C50.6212 44.4665 49.7764 44.8352 49.6797 45.5539C49.5632 46.272 50.5245 46.6317 50.5245 46.6317C50.5245 46.6317 49.9997 47.4957 49.9997 48.1459C49.9997 48.816 49.9805 48.9421 50.0484 49.5827C49.9714 49.6322 49.9059 49.6977 49.8564 49.7747C49.8564 49.7747 49.9044 50.3961 50.3805 50.784C50.8567 51.1718 51.2637 51.4054 51.5063 51.3081C51.5433 51.3873 51.5758 51.4685 51.6036 51.5513C51.6036 51.5513 51.9632 50.6387 52.2058 49.8425C52.4484 49.0272 52.6621 49.143 52.7588 48.0461C52.8554 46.9491 53.9108 45.0656 53.9108 45.0656L54.6308 43.456L53.4564 42.5433L51.7962 42.7181V42.7187Z" fill="#B6903C"/>
<path fill-rule="evenodd" clip-rule="evenodd" d="M53.9808 44.3008C53.7386 44.5494 53.5151 44.8155 53.312 45.0969C53.0016 45.5245 52.759 45.9123 52.3027 46.0781C51.8464 46.2438 51.5552 46.2425 51.584 46.6995C51.6128 47.1565 52.0403 47.3497 52.2829 47.5827C52.5453 47.8253 52.759 48.2329 52.6425 48.6899C52.7878 48.6221 53.0502 48.544 53.2928 48.0198C53.5353 47.4957 55.232 44.3014 55.232 44.3014H53.9808V44.3008Z" fill="#685026"/>
<path fill-rule="evenodd" clip-rule="evenodd" d="M60.6722 36.9318C60.6722 36.9318 60.8175 36.544 60.6722 36.2624C60.5263 35.9712 59.6431 35.8739 59.206 35.5437C58.7497 35.2038 58.1961 34.9677 57.7398 35.1168C57.8076 34.9517 58.0796 34.592 57.8562 34.5145C57.6425 34.4467 56.847 34.8057 56.6332 34.9709C56.4194 35.136 55.9337 35.3299 55.837 35.447C55.7404 35.5641 55.5746 35.7869 55.4774 35.6896C55.3801 35.6217 55.3321 35.447 55.167 35.5437C55.0018 35.6403 54.207 36.2912 54.0604 36.6701C53.9138 37.0489 53.5842 37.8937 52.5942 38.8544C51.6041 39.815 51.1766 40.4371 51.4678 40.7961C51.759 41.1552 51.8953 40.8934 51.9439 41.2038C51.9813 41.5085 51.9649 41.8174 51.8953 42.1165C51.7788 42.6214 51.5849 43.0969 51.8466 43.1942C52.5167 43.408 53.1676 43.0022 53.3129 43.1264C53.6041 43.3881 53.1478 44.3302 53.837 44.5145C54.5366 44.7065 55.2258 44.3494 55.2258 44.3494L57.7692 42.9805L60.2159 41.6896L61.4678 39.2134L60.7964 37.1456L60.6684 36.9318H60.6722Z" fill="#D4B968"/>
<path fill-rule="evenodd" clip-rule="evenodd" d="M58.2716 42.8448C58.2716 42.8448 57.8441 42.1945 58.3689 41.6211C58.8937 41.0477 59.6405 40.8057 59.9317 40.4467C59.8763 40.3783 59.802 40.3278 59.718 40.3014C59.9113 39.9555 60.2062 39.6774 60.5628 39.5046C60.4175 39.3593 60.2229 39.2429 60.0098 39.2429C59.5337 39.2429 59.2418 39.5341 58.8053 39.5341C58.3785 39.5341 58.3298 39.3203 58.3298 39.3203C58.3298 39.3203 59.0485 39.2525 58.9801 38.9318C58.9122 38.592 58.7881 38.592 58.7881 38.592C58.7881 38.592 60.1762 38.016 60.4188 37.7088C60.6613 37.4016 60.6325 37.0387 60.6812 36.8934C60.8457 36.8934 61.8069 36.3885 62.1954 36.6022C62.5839 36.816 62.3119 37.3984 62.3119 37.3984C62.3119 37.3984 63.4876 36.5145 64.0866 35.648C64.6108 35.6966 64.8546 35.2889 65.2386 35.2889C65.7148 35.2889 66.4623 35.9392 66.6076 37.3273C66.7049 38.1235 66.8501 38.5798 66.7049 39.9878C66.637 40.784 66.6562 42.4838 66.8969 43.3273C67.0613 43.9974 67.4498 43.9296 67.4498 43.9296C67.3902 44.1338 67.2721 44.316 67.11 44.4537C66.8476 44.6963 66.8188 45.3376 66.8476 45.5801C66.8863 45.7575 66.935 45.9325 66.9935 46.1043C66.9935 46.1043 66.6831 46.4633 66.605 46.7065C66.5372 46.9491 66.2172 47.1142 65.9836 47.1142C65.75 47.1142 65.8671 47.0944 65.5567 47.1142C65.2463 47.1341 65.149 47.1821 64.9545 47.1142C64.7599 47.0464 64.6146 46.9683 64.6927 46.3462C64.7605 45.7248 62.2946 44.2784 62.2946 44.2784L58.2626 42.8416L58.2716 42.8448Z" fill="#CCA849"/>
<path fill-rule="evenodd" clip-rule="evenodd" d="M53.6409 48.9805C53.6409 48.9805 54.5241 50.1555 58.1555 50.1555C59.8835 50.1555 60.4857 49.9904 60.8435 49.8931C61.2319 49.7958 62.6879 49.2237 64.1542 47.495C65.4745 45.9322 65.1833 45.2915 65.1833 45.2915L64.4153 45.175L61.9193 45.5149L54.5337 48.6605L53.6377 48.9805H53.6409Z" fill="#585136"/>
<path fill-rule="evenodd" clip-rule="evenodd" d="M56.3497 49.2716C56.3497 49.2716 53.2041 49.9712 53.2041 47.9808C53.2041 46.039 55.1459 44 55.6316 43.6409C56.1366 43.2812 57.3404 42.8729 57.3404 42.8729H60.2435L60.7964 44.3392L60.5539 47.504L56.3497 49.271V49.2716Z" fill="#252211"/>
<path fill-rule="evenodd" clip-rule="evenodd" d="M59.2529 43.4662C59.2529 43.4662 58.6513 42.9126 57.2823 43.6582C55.9134 44.4038 54.8062 45.9622 54.7383 47.3773C54.6705 48.6291 55.7674 49.5616 57.4762 49.6102C58.7479 49.6582 59.5153 49.513 59.9038 49.4182C59.8065 49.3018 59.3015 48.6707 59.3015 48.6707L59.2535 43.4669L59.2529 43.4662Z" fill="#C3B378"/>
<path fill-rule="evenodd" clip-rule="evenodd" d="M58.6607 43.7759C58.6607 43.7759 58.5154 43.6595 58.0847 43.8924C57.7257 44.0844 57.2015 44.5919 56.7938 44.951C56.5314 45.1647 56.3663 45.2614 56.2178 45.4265C55.6156 46.1452 55.1106 47.3203 55.4025 47.9027C55.6943 48.4851 56.6549 49.1551 59.1017 48.6988L58.6537 43.7766L58.6607 43.7759Z" fill="#E6D89C"/>
<path fill-rule="evenodd" clip-rule="evenodd" d="M57.864 44.9804C57.864 44.9804 57.4755 45.5827 57.4755 46.544C57.4755 47.5244 58.0291 49.0873 60.0681 49.2038C61.631 49.3011 62.6793 46.9516 63.8153 46.039C64.6793 45.3401 65.2035 45.3203 65.2035 45.3203C65.2035 45.3203 64.3203 44.3603 61.9612 43.1168C59.631 41.8643 57.0192 41.6992 55.6016 43.6217C56.2716 43.5731 58.4368 43.0195 58.4368 43.0195L59.4953 43.3593L57.864 44.9811V44.9804Z" fill="#252211"/>
<path fill-rule="evenodd" clip-rule="evenodd" d="M60.9131 46.2521C60.8453 46.1068 60.7966 45.9123 61.0782 45.8643C61.3598 45.8163 61.4859 45.8444 61.5832 46.0563C61.6805 46.2681 61.7752 46.4447 61.6312 46.5324C61.4859 46.6099 61.107 46.5324 60.9125 46.2508L60.9131 46.2521ZM60.4568 44.8831C60.4568 44.8831 60.3595 44.951 60.4082 44.8153C60.4274 44.6508 60.5541 44.359 60.8645 44.4275C61.1749 44.4959 61.1077 44.8351 61.0565 44.9324C61.0053 45.0297 60.7461 45.1942 60.5515 45.1244C60.5015 45.1116 60.4606 45.0757 60.4413 45.0278C60.4221 44.9799 60.4269 44.9257 60.4542 44.8819L60.4568 44.8831Z" fill="#6F674D"/>
<path fill-rule="evenodd" clip-rule="evenodd" d="M34.1758 45.504C34.1758 45.504 34.9438 46.08 35.8359 46.0576C36.7191 46.0378 37.8551 45.1258 38.3793 44.5428C38.6897 44.2029 38.9553 43.8439 39.2433 43.5623C39.4865 43.3197 39.651 43.2032 39.7675 43.0381C39.9326 42.8461 40.1073 42.4852 40.195 42.368C39.9812 42.5332 39.6708 42.825 39.3502 43.0189C39.0398 43.2109 38.3697 43.5719 38.0977 43.6692C37.8359 43.7664 35.1172 45.2052 35.1172 45.2052L34.1758 45.504Z" fill="#AC924C"/>
<path fill-rule="evenodd" clip-rule="evenodd" d="M35.3496 38.3303C35.3496 38.3303 35.7765 38.0391 36.6021 37.8541C37.3982 37.6621 39.0002 37.5143 39.0002 37.5143L40.3205 38.0903L40.8446 40.0807L39.8846 42.1492L38.6616 42.9172L37.2728 40.6842L35.3528 38.3341L35.3496 38.3303Z" fill="#9F8E57"/>
<path fill-rule="evenodd" clip-rule="evenodd" d="M33.622 40.1069L33.165 40.448C33.165 40.448 33.2822 40.2343 33.3788 39.584C33.4754 38.9338 33.981 37.3511 34.719 36.4384C35.4569 35.5258 35.4377 35.5744 35.4377 35.5744C35.3003 35.5493 35.1588 35.5845 35.0492 35.6711C35.1465 35.456 35.7679 34.688 36.3894 34.304C37.0108 33.92 37.2534 33.7991 37.9036 34.112C38.5538 34.425 38.719 34.5875 39.1951 34.5683C39.6713 34.5491 40.0783 34.0442 40.0783 34.0442C40.0783 34.0442 40.1756 34.3546 39.8166 35.0733C39.4575 35.792 38.0399 37.2576 38.0399 37.2576L35.0882 39.2768L33.622 40.1088V40.1069Z" fill="#EAC970"/>
<path fill-rule="evenodd" clip-rule="evenodd" d="M35.8053 38.0877C35.8053 38.0877 37.9416 38.3789 38.5919 37.7773C38.6111 37.8451 38.6891 37.8451 38.6891 37.8938C38.6839 37.9304 38.6668 37.9644 38.6405 37.9904C38.7112 37.9791 38.7826 37.9727 38.8543 37.9712C38.9398 37.9967 39.0277 38.013 39.1167 38.0198C39.1883 38.0183 39.2597 38.0117 39.3304 38C39.3168 38.0975 39.2641 38.1853 39.1845 38.2432C39.2818 38.2432 39.3765 38.2624 39.3765 38.3398C39.3765 38.4173 39.3957 38.6509 39.2792 38.6995C39.1827 38.7262 39.08 38.7192 38.988 38.6797C38.9957 38.8635 39.0456 39.0431 39.1339 39.2045C39.3259 39.5635 39.7355 39.9725 40.2859 39.8547C40.2859 39.8547 40.5765 40.5536 39.3535 42.1069C39.189 42.3206 39.0136 42.6118 38.8005 42.8544C38.7163 43.038 38.6519 43.23 38.6085 43.4272C38.6085 43.4272 40.677 42.631 41.269 40.8154C41.8712 38.9901 41.9877 37.1942 41.8712 35.5149C41.8514 35.0387 41.7739 34.6995 41.6575 34.4563C41.3663 33.8541 40.5503 33.9514 40.2207 34.2912C39.7445 34.7674 38.9483 35.9514 37.8418 36.7667C36.7154 37.5821 36.6674 37.7267 35.8027 38.0877H35.8053Z" fill="#D7BC6B"/>
<path fill-rule="evenodd" clip-rule="evenodd" d="M33.2432 40.7091C33.2432 40.7091 32.8355 40.9517 32.6218 41.8611C32.408 42.793 32.8138 43.929 33.0486 44.288C33.2835 44.647 33.8166 45.6282 34.9226 45.6768C35.1963 45.6753 35.467 45.6192 35.7187 45.5117C36.1048 45.3347 36.4669 45.1095 36.7965 44.8416C37.2726 44.4826 37.6605 44.1722 37.6118 44.1427C37.4954 44.0941 34.68 41.7638 34.68 41.7638L33.6214 40.5824L33.2426 40.7104L33.2432 40.7091Z" fill="#585136"/>
<path fill-rule="evenodd" clip-rule="evenodd" d="M35.9039 44.5728C35.9039 44.5728 36.4767 44.5248 36.8166 44.311C37.1564 44.0973 34.8262 41.7869 34.8262 41.7869L34.9913 44.2829L35.9039 44.5728Z" fill="#453A25"/>
<path fill-rule="evenodd" clip-rule="evenodd" d="M33.4268 40.5338C33.4268 40.5338 33.1356 41.0874 33.1356 41.2333C33.0869 41.7089 33.2329 43.2039 33.3493 43.6794C33.4658 44.1844 34.0969 44.9511 34.9129 44.9511C35.4172 44.9511 36.1167 44.6407 36.1167 44.5633C36.1167 44.466 35.398 44.3713 35.2041 44.0097C35.0876 43.8177 35.0389 43.3402 35.0121 42.8577C34.9929 42.5473 34.9929 42.2074 35.1093 42.0897C35.3717 41.7985 35.4197 40.9633 35.4197 40.9633L36.3516 39.2321H35.126L33.6597 40.1447L33.4268 40.5338Z" fill="#84754B"/>
<path fill-rule="evenodd" clip-rule="evenodd" d="M33.0684 41.0682C33.0684 41.0682 34.0284 39.7965 34.8936 39.5047C35.7589 39.2128 36.1461 39.3882 36.1461 39.3882L35.6412 40.6797L34.9224 41.4759L34.9711 41.8836C34.9711 41.8836 34.854 42.9613 35.5727 43.7088C36.2914 44.4564 36.8252 44.4276 37.1362 44.4276C37.4472 44.4276 38.34 44.1652 38.7964 43.0874C39.204 42.0781 39.5439 40.7834 38.7285 39.4855C37.9317 38.194 36.5244 38.144 36.2524 38.144C35.9804 38.144 33.8447 38.2509 33.0684 41.0663V41.0682Z" fill="#252211"/>
<path fill-rule="evenodd" clip-rule="evenodd" d="M57.7182 45.3882C57.3592 45.223 57.699 44.2138 58.0581 43.9027C58.4171 43.5917 58.8734 43.2333 59.6702 43.184C59.9608 43.1648 60.2424 43.3491 60.1944 43.5437C60.1265 43.9027 59.6216 44.4077 59.1653 44.7667C58.5342 45.2621 58.1259 45.5725 57.7182 45.3882Z" fill="#F7F7E7"/>
<path fill-rule="evenodd" clip-rule="evenodd" d="M38.3011 39.8835C38.5635 39.8643 38.9034 40.0755 38.9712 40.3597C39.039 40.6701 38.8061 41.2915 38.3011 41.2915C37.8934 41.2915 37.6797 40.7866 37.6797 40.6413C37.6843 40.5218 37.7177 40.4053 37.777 40.3015C37.7962 40.272 37.8448 39.9322 38.3011 39.8835Z" fill="#F8F6DE"/>
<path fill-rule="evenodd" clip-rule="evenodd" d="M34.5145 40.1069C34.5145 40.1069 33.8444 40.4173 33.534 41.0669C33.3122 41.5466 33.2451 42.0834 33.342 42.6029C33.3906 42.8455 33.6332 43.4471 33.7983 43.6609C33.9634 43.8746 34.1868 44.0205 34.3519 44.0007C34.517 43.9809 34.8562 43.5444 34.8562 43.2826C34.8562 43.0209 34.8761 41.9137 35.1961 41.3114C35.4777 40.7098 34.5164 40.1076 34.5164 40.1076L34.5145 40.1069Z" fill="#D4C38B"/>
<path fill-rule="evenodd" clip-rule="evenodd" d="M34.6117 40.0582C34.4952 40.126 34.3013 40.2233 34.3493 40.3494C34.3979 40.4659 34.8056 40.5414 34.9515 40.8256C35.1166 41.1168 35.1166 41.4272 35.068 41.5731C35.1948 41.5128 35.3099 41.4305 35.4078 41.3299C35.6216 41.0873 35.8834 40.7577 36.1067 40.7577C36.2526 40.7577 36.3979 40.8256 36.5342 40.8256C36.748 40.8256 36.9611 40.7577 36.9906 40.5344C37.0386 40.2432 36.5829 39.9808 36.3205 40.0294C36.3691 39.8374 36.437 39.5539 36.2232 39.3593C36.0094 39.1648 35.34 39.5052 35.1941 39.6025C35.0482 39.6998 34.6117 40.0588 34.6117 40.0588V40.0582Z" fill="#E2D59D"/>
<path fill-rule="evenodd" clip-rule="evenodd" d="M50.0389 60.4563L51.4757 60.032L51.8834 60.3232C51.8834 60.3232 52.1739 60.9446 52.6309 61.0221C52.485 61.3325 52.1061 61.5981 52.1259 61.8182C52.1458 62.0384 52.3397 62.2067 52.3397 62.2067C52.3397 62.2067 51.0482 64.3424 53.5922 66.4947C52.9899 66.7373 52.2232 67.0707 51.8155 67.2627C52.1061 67.3305 52.7275 67.4547 52.9899 67.6902C53.2523 67.9257 53.2523 68.0006 53.4949 68.1465C53.7375 68.2925 53.8827 68.4864 53.8347 68.5734C53.6696 68.4761 53.116 68.1856 53.0194 68.4569C52.9227 68.7283 50.6213 68.6221 50.6213 68.6221L46.7378 69.3696C46.7378 69.3696 46.8831 68.9811 46.4754 68.6221C45.9999 68.1952 45.4175 68.6413 44.796 68.1657C43.9807 67.5443 43.9512 66.8256 43.6895 66.5542C43.9512 66.3891 44.4856 66.1465 45.7573 65.9782C45.7087 65.8809 45.5435 65.5897 45.6408 65.328C45.7573 64.9881 46.2424 64.7744 46.0971 64.368C46.3109 64.3193 46.4075 64.3193 46.9419 63.6493C47.4469 62.9792 47.7573 62.8339 48.1458 62.7853C48.5343 62.7366 48.7672 62.7853 49.4859 62.1152C49.9903 61.6397 49.8258 61.232 49.8258 61.232C49.8258 61.232 50.1554 61.1251 50.0395 60.455L50.0389 60.4563Z" fill="#CBAC5A"/>
<path fill-rule="evenodd" clip-rule="evenodd" d="M45.7962 60.672C45.8154 60.5747 45.8935 60.526 46.4176 60.5747C46.9418 60.6233 50.2621 60.2643 51.1652 60.2156C52.0778 60.1478 55.2912 60.1958 56.8548 60.526C58.4183 60.8563 60.0004 61.2448 60.7671 61.4387C61.5351 61.6524 61.777 61.7292 61.7476 61.8265C61.7284 61.9238 61.5556 62.0185 61.4564 61.9916C61.3597 61.9724 58.8157 61.1955 58.0298 61.0316C57.2439 60.8678 54.5245 60.4294 53.0378 60.4556C51.6496 60.4755 51.096 60.4364 49.9216 60.5721C48.7466 60.718 46.8048 60.912 46.2224 60.8345C45.6464 60.7667 45.7655 60.7667 45.7949 60.6694L45.7962 60.672Z" fill="#D6BC6F"/>
<path fill-rule="evenodd" clip-rule="evenodd" d="M53.6119 68.2815C53.6119 68.2815 55.6023 69.3593 56.321 70.6796C56.8451 71.6601 56.0106 72.1459 56.0106 72.1459C56.0106 72.1459 57.137 72.1459 56.9911 72.7673C56.9232 73.1551 55.0493 74.2035 53.7968 74.7571C52.5251 75.3107 52.5738 75.2819 51.9523 75.3785C51.3501 75.4758 49.6995 75.1865 49.3597 75.6697C49.0199 76.1529 49.1677 76.6508 49.2624 76.7283C49.3597 76.7961 50.1463 76.8934 50.1463 76.8934C50.1463 76.8934 49.9811 77.3497 48.3504 77.3983C46.7197 77.447 46.3114 77.5628 46.2141 77.7382C46.1168 77.9027 46.5245 77.806 47.2727 77.9302C48.0202 78.0467 49.0685 78.1222 49.0685 78.1222C49.0685 78.1222 48.7287 78.4134 47.8455 78.6463C46.8355 78.9081 45.2528 79.1513 44.7773 79.4425C45.0199 79.6076 45.3795 79.8502 45.5453 79.8694C45.1376 79.9667 44.5642 80.1804 44.4675 80.2579C44.6128 80.3551 44.8074 80.4716 44.8074 80.4716C44.8074 80.4716 43.9914 81.4521 43.5159 81.6953C43.0403 81.9385 40.3024 83.2095 39.3603 82.967C37.0109 82.3455 36.7197 79.7727 36.1469 79.5788C35.2829 79.2876 34.8752 79.8694 34.1079 79.4617C34.4477 79.2191 34.6327 79.0739 34.9917 78.9087C34.6032 78.7167 32.5936 77.4425 32.5936 77.4425C32.3835 76.9845 32.1502 76.5374 31.8947 76.103C31.5063 75.4329 30.9347 74.5395 30.5059 73.7529C29.5741 72.0249 29.5255 71.2287 28.6807 70.2483C28.8266 70.0563 29.3309 70.0831 29.3309 70.0831L36.4093 72.4134L48.9603 72.7769L52.2243 68.1171L53.6125 68.2822L53.6119 68.2815Z" fill="#DFC677"/>
<path fill-rule="evenodd" clip-rule="evenodd" d="M35.0195 75.3881C35.0953 75.4724 35.1836 75.5445 35.2813 75.6019C35.5245 75.767 35.8835 75.9616 36.1261 76.2521C36.2234 76.1069 36.4659 75.8445 36.8941 76.2521C37.3223 76.6598 37.8541 76.3693 38.185 76.4659C38.5248 76.583 38.544 76.631 38.544 76.631C38.544 76.631 38.736 76.4659 39.1655 76.2912C39.4279 76.1939 39.7383 76.1261 40.0781 76.0294C40.3885 75.9616 40.7283 75.8643 40.9619 75.8643C41.1757 76.0096 41.9424 76.8243 45.0202 75.6217C47.9232 74.4953 48.5927 74.3693 49.0784 74.5433C49.1271 74.4269 49.1757 74.2035 49.9232 74.2329C49.9232 73.9225 49.3018 72.864 49.3018 72.864L45.8746 71.6896H44L38.3789 72.7187L35.264 74.496L35.0215 75.392L35.0195 75.3881Z" fill="#C4A859"/>
<path fill-rule="evenodd" clip-rule="evenodd" d="M33.1455 73.4176C33.1455 73.4176 33.2133 73.9418 33.9903 74.4954C34.7583 75.0483 34.9996 75.3786 34.9996 75.3786C34.9996 75.3786 35.1455 75.1866 35.262 74.9907C35.3785 74.777 35.4757 74.5344 35.6697 74.4666C36.0581 74.3014 36.9413 74.6118 37.1359 74.5632C37.301 74.5152 37.2524 74.1754 37.4271 74.1754C37.8348 74.1555 38.0965 74.4371 38.2425 74.4371C38.3884 74.4371 38.7468 74.4179 38.7954 74.3405C38.8441 74.263 38.8633 73.4566 39.4169 73.0682C40.0191 72.6413 40.757 72.8256 40.9529 72.9229C40.9529 73.0682 40.9721 73.4278 41.3605 73.447C41.749 73.4662 41.7874 73.3984 42.1285 73.5149C42.4697 73.6314 42.8761 73.4957 43.0604 74.0678C43.2255 74.0198 43.614 73.9712 43.5167 73.4176C43.7087 73.2723 43.8764 73.175 44.2847 72.6022C44.382 72.457 44.5465 72.2918 44.6732 72.0781C45.013 72.0781 45.4207 72.0102 45.9641 72.4858C45.7989 72.6022 45.7017 72.6778 45.6537 72.7962C45.7958 72.9369 45.9255 73.0895 46.0415 73.2525C46.1874 73.4445 46.2847 73.68 46.469 73.7286C46.8767 73.8451 47.5468 73.68 48.2943 73.7286C49.013 73.7773 49.6146 74.039 49.877 74.2042C49.9743 74.1562 49.9743 74.1363 50.2169 74.185C50.4594 74.2336 50.6437 74.2528 50.382 73.9424C50.5273 74.0102 50.6924 74.1562 50.8383 74.0102C50.9842 73.8643 51.1001 73.6512 51.5077 73.6026C51.9154 73.5539 52.0613 73.6218 52.2265 73.1949C52.4402 72.6707 51.7023 72.6707 51.7023 72.6707C51.7023 72.6707 52.0421 72.3597 52.421 71.952C52.8773 71.5251 53.4015 70.9715 53.5276 70.2918C53.7413 69.0394 52.5183 68.8749 52.5183 68.8749L46.5861 70.7002L39.3337 70.3405L33.1493 73.4182L33.1455 73.4176Z" fill="#927D49"/>
<path fill-rule="evenodd" clip-rule="evenodd" d="M27.8153 56.2816C27.8153 56.2816 27.6233 56.5242 27.5049 57.097C27.3865 57.6698 27.4371 57.602 27.3398 58.0096C27.2425 58.4173 26.0476 62.4756 26.4956 63.8445C26.9436 65.2135 27.7193 65.7184 28.2044 66.825C28.3017 67.0676 28.3964 67.2135 28.447 67.4272C28.6121 68.1453 28.4668 68.6989 28.6608 69.4176C28.7286 69.6602 28.904 69.9418 29.1657 70.233C29.7417 70.8346 30.6806 71.4074 31.0857 71.8151C31.6579 72.4173 32.4739 73.641 33.5126 73.7568C34.0662 73.8247 34.8528 73.5917 35.503 73.2039C36.079 72.8442 36.4348 72.3399 37.039 72.0519C37.4659 71.8381 37.9222 71.7607 38.3299 71.6634C39.1747 71.4983 39.942 71.4714 40.3984 71.5661C41.0972 71.712 42.7478 72.217 43.6624 72.217C44.377 72.2055 45.0876 72.1077 45.7788 71.9258C47.167 71.5181 48.8464 70.8186 49.9536 70.5082C50.6038 70.3162 51.128 70.2656 51.6624 70.1492C52.575 69.9354 53.3417 69.6442 53.7788 69.0906C53.4876 68.7508 53.1286 68.2266 51.1862 68.2458C48.9827 68.2944 46.4387 69.5175 45.1862 69.712C43.9337 69.9066 43.3904 70.0711 41.992 69.5661C40.6211 69.056 40.5756 68.7188 40.5756 68.7188C40.5756 68.7188 39.1363 67.712 38.534 65.1456C37.9318 62.5792 38.534 60.7092 40.0976 58.9319C40.5052 58.4756 40.408 58.0679 40.408 58.0679C40.408 58.0679 41.4371 56.6797 41.1555 55.3799C40.8451 54.0884 38.8547 54.3508 38.8547 54.3508L27.816 56.2816H27.8153Z" fill="#6E6342"/>
<path fill-rule="evenodd" clip-rule="evenodd" d="M29.4762 60.6023C29.3906 60.7632 29.3504 60.9444 29.3597 61.1265C29.3789 61.3882 29.457 61.7281 30.2429 62.4954C30.913 63.1649 30.7671 63.9124 30.7671 63.9124C30.7671 63.9124 31.1044 63.9802 32.0196 63.5521C32.7383 63.2122 32.9796 63.8145 32.9796 63.8145C33.1888 63.7047 33.4156 63.6324 33.6497 63.6007C33.8617 63.5812 34.067 63.5156 34.2513 63.4087C34.2513 63.4087 35.0961 64.2727 35.834 64.6804C36.5041 65.0401 36.8925 65.2826 37.2228 65.0401C37.5332 64.8263 37.5332 64.3892 37.5133 64.1953C37.4363 64.0163 37.3388 63.8468 37.2228 63.6903C37.009 63.3799 36.6692 63.0202 36.6468 62.7303C36.5981 62.0609 37.1517 61.2641 37.0346 61.0701C36.9175 60.8762 36.4817 60.8276 35.4039 61.2161C34.2877 61.5847 29.4717 60.6042 29.4717 60.6042L29.4762 60.6023Z" fill="#39331F"/>
<path fill-rule="evenodd" clip-rule="evenodd" d="M32.0194 64.942C32.0194 64.942 31.4665 64.4179 31.6604 61.8739C31.8951 61.8705 32.1295 61.8932 32.3593 61.9417C32.3593 61.9417 32.6607 63.9129 32.0194 64.942Z" fill="#292311"/>
<path fill-rule="evenodd" clip-rule="evenodd" d="M28.0779 54.3399C28.155 54.2828 28.2266 54.2185 28.2916 54.1479C28.0996 54.5069 27.2132 55.9437 27.932 58.2061C28.6507 60.4583 30.4561 62.1376 32.6795 62.2157C34.9028 62.2938 36.0715 61.2058 37.4078 59.5751C37.932 58.9248 38.5342 58.1088 39.068 57.5559C39.8641 56.6912 40.4856 56.4487 40.4856 55.6141C40.4856 53.9053 38.7377 53.138 36.1649 52.3712C33.5921 51.6045 31.2715 51.6992 30.0676 52.224C28.8932 52.7962 28.3883 53.3984 28.0772 54.3405L28.0779 54.3399Z" fill="#252211"/>
<path fill-rule="evenodd" clip-rule="evenodd" d="M36.3398 65.7088L36.5318 65.6116C36.5318 65.6116 36.5798 64.8436 36.8909 64.864C37.2013 64.9127 37.3472 65.321 37.3177 65.4663C37.2985 65.6116 37.2211 65.8548 36.9101 65.8253C36.5024 65.8349 36.3379 65.7088 36.3379 65.7088H36.3398Z" fill="#3F3824"/>
<path fill-rule="evenodd" clip-rule="evenodd" d="M35.4756 62.4467C35.4756 62.4467 35.6676 62.3788 35.9025 62.6118C36.0945 62.6118 36.9316 62.5145 37.194 62.6796C37.4564 62.8448 37.5338 62.99 37.5338 62.99C37.5338 62.99 36.5533 63.2038 36.0189 62.99C35.4756 62.8057 35.4756 62.4467 35.4756 62.4467H35.4756Z" fill="#2D2815"/>
<path fill-rule="evenodd" clip-rule="evenodd" d="M39.7969 62.592C39.7969 62.5433 39.2727 62.1843 38.7191 62.0672C38.6218 62.048 38.602 62.1158 38.5271 62.1158C38.4785 62.0966 38.4593 61.9507 38.4593 61.9507L38.1444 62.1164C38.1444 62.1164 38.0957 62.1843 38.2609 62.3084C38.4061 62.4249 38.6493 62.5222 38.7172 62.7161C38.785 62.91 38.785 62.9779 38.8145 63.0073C38.8337 63.0265 39.1735 63.0073 39.3386 62.91C39.5037 62.8128 39.8148 62.654 39.7949 62.59L39.7969 62.592Z" fill="#82764F"/>
<path fill-rule="evenodd" clip-rule="evenodd" d="M34.8936 64.5632C34.8936 64.5632 34.9902 63.8937 35.6411 63.8643C36.3105 63.8157 36.4372 64.4659 36.4372 64.4659L36.0488 64.8544C36.0488 64.8448 35.7576 64.4371 34.8968 64.5632H34.8936Z" fill="#2D2816"/>
<path fill-rule="evenodd" clip-rule="evenodd" d="M39.1168 61.6793C39.1168 61.6793 38.7571 62.0678 37.9616 62.1843C37.8937 62.087 37.7478 61.8931 37.9616 61.5827C38.1753 61.2723 38.4179 61.175 38.6604 61.2717C38.879 61.3071 39.057 61.4662 39.1168 61.6793Z" fill="#574F35"/>
<path fill-rule="evenodd" clip-rule="evenodd" d="M40.5824 62.1555C40.6023 62.0583 40.5344 62.0391 40.5824 61.9904C40.6304 61.9418 40.8935 61.8451 40.9421 61.8931C40.9613 61.913 40.9421 61.9904 40.9421 62.0851C40.9421 62.1799 40.9421 62.2771 40.8935 62.3469C40.8256 62.4442 40.6317 62.4928 40.5344 62.464C40.4372 62.4352 40.418 62.2989 40.418 62.272C40.466 62.2528 40.5824 62.2042 40.5824 62.1555ZM42.24 61.1072C42.24 61.0586 42.4052 60.9613 42.5024 60.9613C42.6477 60.9613 42.6477 61.0778 42.6676 61.1072C42.7156 61.1264 42.7156 61.0874 42.7642 61.1751C42.8128 61.2627 42.8813 61.4176 42.832 61.5149C42.7828 61.6122 42.5895 61.6794 42.5415 61.6602C42.4736 61.6115 42.2599 61.1751 42.24 61.1072Z" fill="#82764F"/>
<path fill-rule="evenodd" clip-rule="evenodd" d="M38.9033 62.3789C38.9033 62.3789 39.1171 62.4269 39.4083 62.6701C39.311 62.738 39.1651 62.8154 39.1651 62.8154C39.1651 62.8154 39.1459 62.5921 38.9033 62.3783V62.3789Z" fill="#6E6342"/>
<path fill-rule="evenodd" clip-rule="evenodd" d="M38.4276 60.2426C38.379 60.1946 38.5729 60.0781 38.6894 60.0973C38.8058 60.1165 38.8545 60.1946 38.9806 60.2138C39.1066 60.233 39.1265 60.1651 39.1726 60.1165C39.2186 60.0678 39.3863 60.0973 39.4151 60.1165C39.4331 60.1378 39.4493 60.1605 39.4638 60.1843C39.4679 60.1097 39.5029 60.0401 39.5604 59.9923C39.6358 59.9369 39.7325 59.919 39.8228 59.9437C39.842 60.0115 39.9393 60.2541 39.9201 60.3027C39.9009 60.3514 39.6097 60.4198 39.5604 60.3706C39.609 60.4877 39.8228 60.7302 39.8516 60.7782C39.8804 60.8262 39.6378 60.9434 39.5412 60.9242C39.4055 60.9146 38.5703 60.4288 38.425 60.2445L38.4276 60.2426ZM39.6993 58.631C39.6813 58.5821 39.6469 58.541 39.602 58.5146C39.5342 58.4954 39.3108 58.5146 39.3108 58.631C39.3108 58.7475 39.5028 59.399 39.7185 59.7382C39.9617 60.0781 40.1262 60.359 40.2913 60.4371C40.3988 60.4861 40.526 60.4436 40.5825 60.3398C40.6017 60.2912 40.6503 59.9322 40.6311 59.0874C40.6119 58.2426 40.5825 57.4272 40.5338 57.3786C40.4852 57.3299 40.2913 57.3306 40.2234 57.4272C40.1556 57.5238 39.7185 58.4858 39.6986 58.631H39.6993Z" fill="#585136"/>
<path fill-rule="evenodd" clip-rule="evenodd" d="M38.8355 63.602C38.8355 63.602 38.4957 63.3882 38.1655 63.5341C37.8551 63.68 37.8743 64.2528 37.8743 64.2528C38.016 64.3084 38.1761 64.2902 38.3018 64.2042C38.5155 64.0589 38.7869 63.8164 38.8355 63.6026V63.602Z" fill="#574F35"/>
<path fill-rule="evenodd" clip-rule="evenodd" d="M39.4762 64.3693C39.457 64.1773 39.2842 64.1773 39.2842 64.0781C39.3087 63.9805 39.3967 63.9123 39.4973 63.913C39.5946 63.913 39.6893 64.0295 39.8083 64.105C39.9248 64.1728 40.0995 64.297 40.1187 64.4448C40.1379 64.5927 39.9267 64.9978 39.6919 64.9978C39.457 64.9978 39.5267 64.5607 39.4781 64.3667L39.4762 64.3693ZM41.3501 64.1069C41.3501 64.1069 40.9616 64.2234 40.9904 64.1069C41.0192 63.9904 41.1075 63.9616 41.2336 63.9616C41.2977 63.8946 41.3838 63.853 41.4762 63.8445C41.529 63.8419 41.5809 63.8593 41.6215 63.8931C41.6215 63.8931 41.8839 63.7767 41.9613 63.8445C42.0387 63.9123 41.9811 63.9123 42.0291 63.9904C42.0903 64.0771 42.1304 64.1768 42.1463 64.2816C42.1463 64.3591 41.8551 64.5242 41.6215 64.4954C41.3501 64.4371 41.3981 64.1555 41.3501 64.1069ZM43.6119 63.6698C43.6119 63.6698 43.7283 63.7376 43.6317 63.8157C43.5639 63.8835 43.224 64.0077 42.9322 64.0295C42.641 64.0295 42.3792 64.0775 42.3792 63.9808C42.3792 63.8842 42.6218 63.6896 42.7671 63.641C42.8261 63.567 42.9157 63.5241 43.0103 63.5245C43.1267 63.5245 43.5824 63.4759 43.7091 63.4567C43.8256 63.4368 43.9229 63.5047 43.8544 63.6019C43.8256 63.6698 43.6119 63.6698 43.6119 63.6698ZM44.2819 60.672C44.2819 60.672 44.136 60.9824 43.9715 60.9824C43.8064 60.9632 43.8064 60.9146 43.8064 60.8659C43.8064 60.7981 43.9715 60.6234 43.9517 60.5747C43.9037 60.5747 43.7866 60.5747 43.8064 60.4583C43.8064 60.361 43.9715 60.2445 44.1168 60.2663C44.2266 60.176 44.3633 60.1249 44.5053 60.121C44.6704 60.121 44.8157 60.169 44.8157 60.2663C44.8157 60.3635 44.6237 60.5767 44.5533 60.6259C44.4759 60.7034 44.3786 60.7539 44.2819 60.6739V60.672ZM42.0682 66.4096C42.0682 66.4096 41.8762 66.4295 41.8762 66.5261C41.8762 66.5747 41.9242 66.5747 41.9927 66.5459C42.0321 66.5437 42.0712 66.537 42.1091 66.5261C42.1283 66.5459 42.1283 66.6426 42.2743 66.6426C42.3941 66.6264 42.5096 66.5868 42.6141 66.5261C42.7306 66.4781 42.8279 66.4288 42.8279 66.3341C42.7792 66.169 42.6819 66.0909 42.5367 66.0909C42.4622 66.0862 42.388 66.1031 42.3229 66.1395C42.3229 66.1395 42.2743 66.0423 42.1091 66.1395C41.944 66.2368 41.9632 66.2368 42.0119 66.2855C42.0989 66.3629 42.0701 66.4135 42.0701 66.4135L42.0682 66.4096ZM40.9712 67.4195C40.9712 67.3709 41.2138 67.2736 41.2816 67.3031C41.3495 67.3223 41.5434 67.6909 41.5434 67.7299C41.5434 67.7786 41.3008 67.8951 41.2035 67.8951C41.1063 67.8951 40.9418 67.7299 40.9418 67.7031C40.9418 67.6839 41.0583 67.6551 41.0583 67.6352C41.0871 67.5872 40.9712 67.4701 40.9712 67.4215V67.4195ZM40.2032 66.0019C40.2519 65.9827 40.2519 65.9341 40.3197 65.8855C40.3627 65.8568 40.4166 65.8497 40.4656 65.8663C40.5003 65.8044 40.5609 65.7614 40.6307 65.7491C40.7472 65.7299 40.8445 65.7491 40.8227 65.7978C40.8227 65.9437 40.92 66.0403 40.92 66.1568C40.92 66.2733 40.8522 66.4192 40.6096 66.5165C40.3671 66.5843 40.0368 66.5843 39.9882 66.5651C39.9395 66.5459 39.8909 66.3514 39.9395 66.2541C39.9882 66.1568 40.1239 66.0506 40.2019 66.0019H40.2032Z" fill="#82764F"/>
<path fill-rule="evenodd" clip-rule="evenodd" d="M40.5118 66.0679C40.5118 66.0679 40.3467 66.1652 40.3467 66.2138C40.332 66.2608 40.3255 66.3099 40.3275 66.3591C40.3275 66.3879 40.5412 66.3399 40.57 66.3104C40.5796 66.2912 40.5118 66.1184 40.5118 66.0679Z" fill="#6E6342"/>
<path fill-rule="evenodd" clip-rule="evenodd" d="M39.0682 65.6116C39.1648 65.6314 39.3299 65.6116 39.456 65.6602C39.5533 65.7088 39.6211 65.8061 39.5239 65.9226C39.4266 66.0391 39.3319 66.2138 39.1162 66.1844C38.8736 66.1652 38.6407 66.0391 38.6407 65.9418C38.6324 65.8175 38.6744 65.6951 38.7571 65.602C38.8544 65.5245 38.9024 65.5732 39.0675 65.6116H39.0682Z" fill="#585136"/>
<path fill-rule="evenodd" clip-rule="evenodd" d="M38.9515 65.7087C38.9515 65.7087 38.6411 65.9513 38.563 66.0684C38.4657 66.1849 37.9902 66.7865 37.8449 66.9126C37.8932 66.8275 37.9482 66.7463 38.0094 66.67C37.8174 66.7928 37.6734 66.9779 37.6017 67.1942C37.4852 67.5539 38.2526 67.7478 38.7569 67.8937C39.2612 68.0396 39.4564 68.0857 39.4564 68.0857C39.2708 67.8067 39.1113 67.511 38.9803 67.2025C38.7883 66.7462 38.6891 66.6975 38.8151 66.4838C38.9124 66.27 39.0583 66.1247 39.0583 65.9596C39.0001 65.806 38.9515 65.7087 38.9515 65.7087Z" fill="#574F35"/>
<path fill-rule="evenodd" clip-rule="evenodd" d="M27.8831 66.4762C27.9538 66.4892 28.0262 66.4892 28.0969 66.4762C28.2422 66.4563 29.757 65.9002 31.3398 66C32.5246 66.0716 33.699 66.2646 34.8444 66.576C36.8348 67.1002 39.3103 68.1389 40.9122 68.7315C41.3391 68.896 41.757 69.1879 42.0642 69.3037C43.2879 69.7799 43.3359 69.7799 44.0546 69.9059C44.8994 70.0224 45.7634 69.7408 46.6665 69.5469C47.773 69.3037 49.6662 69.1872 51.3263 68.9447C51.8631 68.8703 52.3926 68.7501 52.909 68.5856C52.909 68.5856 51.5887 69.9059 48.4233 70.3815C47.1438 70.5758 45.8436 70.5921 44.5596 70.4301C43.5497 70.3328 42.8802 70.1869 42.3753 70.0416C41.8025 69.8765 40.6274 69.4394 39.181 69.0816C38.1711 68.8192 37.0447 68.6253 35.7538 68.3827C32.5692 67.7997 29.1132 67.1303 27.8818 66.48L27.8831 66.4762Z" fill="#252211"/>
<path fill-rule="evenodd" clip-rule="evenodd" d="M24.3102 60.4762C23.5422 61.1264 22.7275 61.7479 21.932 62.3495L19.5339 64.192C18.7185 64.7936 17.9224 65.4151 17.1064 66.0173C16.2904 66.6196 15.4756 67.1917 14.6104 67.7453C15.3784 67.0951 16.1931 66.4928 17.0084 65.9008C17.8238 65.3088 18.6692 64.7284 19.4558 64.128L21.8539 62.2829C22.6788 61.6813 23.475 61.0599 24.3102 60.4775V60.4762ZM20.0676 67.2724C20.0676 67.2724 20.9316 66.5536 22.0094 65.5444C23.3489 64.2925 24.9899 62.69 25.514 62.3994L20.067 67.273L20.0676 67.2724Z" fill="#CFB66C"/>
<path fill-rule="evenodd" clip-rule="evenodd" d="M20.0674 67.2717C20.4949 66.8449 20.9512 66.4276 21.4075 66.0193L22.1064 65.4177C22.3202 65.2257 22.5634 65.01 22.7765 64.7962C23.2034 64.3693 23.6213 63.9124 24.0482 63.4759C24.2598 63.2564 24.4835 63.0489 24.7183 62.8545C24.8356 62.7506 24.966 62.6624 25.1061 62.5921C25.2232 62.5242 25.3493 62.4001 25.5138 62.3783C25.4171 62.5242 25.3007 62.5921 25.2034 62.7181C25.0869 62.8154 24.9896 62.9319 24.893 63.0285C24.6792 63.2423 24.4367 63.4362 24.2229 63.6308C23.7666 64.0193 23.2911 64.3988 22.8347 64.8052C22.3784 65.2116 21.9515 65.65 21.4946 66.0577C20.9999 66.4756 20.5435 66.8833 20.0674 67.2737V67.2717ZM25.8735 63.3882C25.8735 63.3882 22.7087 66.4858 22.0578 66.9901L25.8735 63.3882Z" fill="#CFB66C"/>
<path fill-rule="evenodd" clip-rule="evenodd" d="M25.8743 63.3882C25.5896 63.7177 25.2843 64.029 24.9604 64.32L24.0004 65.2327C23.69 65.5431 23.3981 65.8541 23.0685 66.1645C22.7287 66.4557 22.4183 66.7405 22.0586 67.0093L22.9904 66.0967C23.3015 65.7863 23.6413 65.5245 23.9716 65.2135L24.9034 64.3008C25.2234 63.9808 25.5344 63.6698 25.8743 63.3882ZM26.0196 65.0675C25.7278 65.8817 25.3841 66.6763 24.9904 67.4464C24.1751 69.0778 22.952 71.1162 22.4176 72.1555L26.0196 65.0675Z" fill="#CFB66C"/>
<path fill-rule="evenodd" clip-rule="evenodd" d="M26.0191 65.0681C26.0191 65.4272 25.9218 65.7382 25.8053 66.0486C25.6918 66.3593 25.5623 66.6639 25.4175 66.9612C25.2716 67.2524 25.1064 67.5635 24.9413 67.8451C24.7762 68.1267 24.5823 68.4172 24.4364 68.7091L23.4559 70.4371C23.116 71.0131 22.7858 71.5923 22.4268 72.1459C22.6693 71.5244 22.9996 70.942 23.3106 70.3692C23.6504 69.7932 23.9608 69.2172 24.2706 68.6214C24.4218 68.3245 24.5579 68.0201 24.6783 67.7094C24.8236 67.3984 24.9688 67.1072 25.086 66.8256C25.2312 66.5152 25.3477 66.2233 25.4936 65.9424C25.6581 65.6409 25.7944 65.3497 26.0178 65.0681L26.0191 65.0681Z" fill="#CFB66C"/>
<path fill-rule="evenodd" clip-rule="evenodd" d="M29.4762 73.0292C29.4762 73.0292 28.5162 74.3009 28.6122 75.9124C28.874 75.0682 29.2042 73.7767 29.4762 73.0292ZM30.3889 74.3041C30.3889 74.3041 30.049 77.7601 29.7674 79.4593C30.1655 77.4951 30.2429 77.6602 30.3889 74.3041ZM36.7479 79.6634C36.7479 79.6634 35.3111 83.8874 35.2817 85.0612C35.5927 83.8541 36.1943 81.3882 36.7479 79.6602V79.6634Z" fill="#DEC270"/>
<path fill-rule="evenodd" clip-rule="evenodd" d="M40.1064 72.7679C40.1064 72.7679 42.4367 76.6124 44.1845 79.8937C43.7116 78.2425 42.6236 75.214 40.1064 72.7679Z" fill="#CBAF59"/>
<path fill-rule="evenodd" clip-rule="evenodd" d="M46.3691 78.4275C47.6486 80.689 48.8023 83.0194 49.8251 85.408C49.6312 83.7574 49.1064 80.9325 46.3691 78.4275Z" fill="#E3C677"/>
<path fill-rule="evenodd" clip-rule="evenodd" d="M64.7767 84.096C65.1645 83.8534 65.9319 82.5324 66.602 82.2028C67.2714 81.863 67.7764 81.7952 68.3786 81.1251C68.9802 80.4256 69.1466 79.9987 70.4657 79.4457C72.3108 78.6489 71.0417 77.6198 71.0417 77.6198C71.2449 77.4202 71.4622 77.2354 71.6919 77.0668C72.1681 76.7078 72.721 76.2707 72.673 75.5033C72.6052 74.2124 72.3626 72.3385 71.3041 71.2512C72.3332 71.0374 74.3037 70.8921 75.5281 70.5817C76.945 70.222 77.5959 69.7171 77.5959 69.7171C77.5959 69.7171 76.7805 68.3289 78.1009 66.9312C79.4212 65.5334 80.4989 64.6982 81.2951 63.1347C80.3825 63.0182 78.9911 62.5331 75.4404 63.8822C75.6321 63.9724 75.8171 64.0761 75.994 64.1926C75.994 64.1926 73.8097 64.7948 73.0135 65.4649C71.6247 66.6393 71.45 67.6006 69.9453 68.3193C68.4407 69.038 66.9258 68.8435 65.674 69.4259C64.4221 70.0083 64.2372 70.5036 63.7802 70.7174C63.8775 70.8339 63.761 71.0278 63.9453 71.1929C63.8289 71.358 63.1492 72.4646 62.4599 72.4646C62.5277 72.727 63.1101 72.9209 63.1101 72.9209C63.1101 72.9209 62.6833 73.232 61.5959 73.3094C62.1489 73.8854 62.6737 74.5132 64.1201 75.4259C64.0036 75.6684 63.5178 76.0281 63.7124 76.4844C63.9261 76.9408 64.4804 77.5622 66.6929 78.0672C65.5665 78.1152 64.2468 78.3776 62.4689 78.135C60.6922 77.9212 60.401 77.7952 59.3041 78.0672C59.4205 78.1836 59.7309 78.1836 60.0029 78.494C59.7117 78.5132 57.8865 78.2803 57.265 79.0963C56.6148 79.9404 56.3332 81.3292 56.3818 82.2611C56.042 82.4262 55.7117 82.7174 55.8769 83.3196C56.042 83.9219 56.906 84.1158 57.4596 84.494C58.0125 84.9017 58.0612 85.047 58.586 84.9504C59.1389 84.8339 59.9543 84.2809 60.4305 84.2809C60.9066 84.2809 61.2458 84.64 61.2458 84.64C61.2458 84.64 62.5373 84.0185 62.6634 84.135C62.7799 84.2515 62.6826 84.999 62.8087 85.1155C62.9367 85.2032 64.3914 84.3392 64.7799 84.096H64.7767Z" fill="#ECD592"/>
<path fill-rule="evenodd" clip-rule="evenodd" d="M93.0007 45.2429C86.9329 29.5731 71.9325 26.6701 71.9325 26.6701H29.1364L29.3015 42.6311H37.8244V78.272H29.1357V94.2042H70.7479C80.7767 94.2042 88.8157 84.1261 88.8157 84.1261C101.689 65.8547 93.0001 45.2429 93.0001 45.2429H93.0007ZM70.9713 73.3882C70.9713 73.3882 67.7073 78.0973 64.1559 78.0973H57.0519L56.8836 42.6701H66.0004C66.0004 42.6701 70.2244 43.5533 73.1754 51.9123C73.1754 51.9123 77.0877 63.8803 70.9713 73.3882Z" fill="white" fill-opacity="0.8"/>
</svg>
