<svg width="120" height="120" viewBox="0 0 120 120" fill="none" xmlns="http://www.w3.org/2000/svg">
<circle cx="60" cy="60" r="60" fill="#49158C"/>
<path d="M97 47L64.5 97.5H53L85 47H97Z" fill="white"/>
<path d="M46 22L56 97.5H44.5L34 22H46Z" fill="white"/>
<path d="M43.5 22H54.7751L97.0115 47.1407L95.9885 48.8593L54.225 24H43.5V22Z" fill="white"/>
<path d="M55.4895 22.8553L64.9895 87.8553L63.0105 88.1446L53.5105 23.1446L55.4895 22.8553Z" fill="white"/>
<path d="M44.5048 27.1367L76.7711 46H94.5001V48H76.2292L43.4954 28.8633L44.5048 27.1367Z" fill="white"/>
<path d="M75.6577 46.4609L77.3423 47.539L53.3423 85.039L51.6577 83.9609L75.6577 46.4609Z" fill="white"/>
</svg>
