<svg width="120" height="120" viewBox="0 0 120 120" fill="none" xmlns="http://www.w3.org/2000/svg">
<circle cx="60" cy="60" r="60" fill="#EDF0F4"/>
<ellipse cx="60.1457" cy="60.0878" rx="44.1818" ry="41.1136" fill="white"/>
<path fill-rule="evenodd" clip-rule="evenodd" d="M15 60C15 35.1331 35.1331 15 60 15C84.8669 15 105 35.1331 105 60C105 84.8669 84.8669 105 60 105C35.1331 105 15 84.8669 15 60ZM22.7435 60.6136C22.7435 81.6818 39.8377 98.776 60.9058 98.776C81.974 98.776 99.0682 81.6818 99.0682 60.6136C99.0682 39.5455 81.974 22.4513 60.9058 22.4513C39.8377 22.4513 22.7435 39.5455 22.7435 60.6136Z" fill="#F6BE1D"/>
<circle cx="60.9349" cy="60.6429" r="35.8831" fill="#F6BE1D"/>
<path fill-rule="evenodd" clip-rule="evenodd" d="M37.2081 67.7728C36.3315 70.1105 34.549 75.0488 35.6009 81.4189C36.273 85.4806 37.8217 88.5488 39.0198 90.3897C38.8445 87.8767 38.4646 77.7371 45.7406 68.7079C51.0003 62.1916 57.5458 59.6494 60.351 58.7436C61.0815 58.4806 64.3542 57.3994 65.1139 57.1657C69.1375 55.8371 70.4984 55.3961 70.9982 55.2342L70.9983 55.2342C71.2679 55.1468 71.2868 55.1407 71.338 55.1202C73.8509 54.2436 79.5782 52.2274 83.9029 47.1722C85.9857 44.747 87.0099 42.4611 88.1179 39.988L88.1984 39.8085C90.01 35.6592 90.8282 31.9481 91.2081 29.3767C88.4613 32.7955 85.773 35.367 83.6691 37.1787C81.6237 38.9319 79.4613 40.7728 76.2178 42.5845C73.8481 43.9139 71.9642 44.6144 68.5028 45.9017L68.3867 45.9449C65.4646 47.0261 62.9224 47.8442 60.9354 48.4287C60.4094 48.5748 59.8542 48.7209 59.3282 48.8377C56.6399 49.4222 52.549 50.7079 48.3704 53.6007C45.6237 55.5001 40.1302 59.9709 37.2081 67.7728ZM69.6432 67.9774C66.8672 67.8313 63.6529 67.8313 60.1464 68.1819C55.062 68.6787 50.6789 69.7014 47.1724 70.8118C47.3185 70.3442 47.5815 69.7014 47.9906 68.9416C49.5977 66.0196 52.0815 64.4124 55.2958 62.7761C58.2178 61.2566 62.3087 59.4157 67.51 57.8085C70.1399 57.0488 72.273 56.2598 73.851 55.617C76.0717 54.7403 77.5328 54.1559 79.3152 53.0455C81.2438 51.8767 82.6756 50.6494 83.6107 49.7436C83.5815 51.5553 83.3185 54.302 82.1497 57.4287L82.1269 57.4886L82.1269 57.4886C81.2542 59.787 80.1671 62.6501 77.3282 64.9676C74.4938 67.2761 71.338 67.8313 69.6432 67.9774ZM47.2308 77.8248C48.2828 77.6494 49.5685 77.5326 54.6821 78.0585C56.0263 78.2046 57.2828 78.3507 58.3932 78.4968C61.7828 78.9352 65.2308 78.3215 68.2113 76.5975C69.2925 75.9839 70.3737 75.1949 71.3964 74.1429C73.2665 72.2728 74.26 70.2858 74.8152 68.8832C73.1204 69.1754 71.1919 69.4384 69.0587 69.5261C67.773 69.5845 66.5458 69.5845 65.4061 69.5261C60.7308 69.3507 56.9906 70.052 54.5068 70.6949L54.4567 70.7078C50.2881 71.7864 45.2923 73.0789 42.8185 77.3572C42.2341 78.38 41.9126 79.3442 41.7373 79.9871C43.9289 78.6429 45.8574 78.0585 47.2308 77.8248ZM44.012 85.6098C43.6974 85.6355 43.3456 85.6641 42.9938 85.7144C41.7373 85.8897 40.7146 86.2696 39.9548 86.591C40.4516 84.9839 41.2406 83.9611 41.8542 83.3183C44.4256 80.63 48.838 79.8994 53.338 81.1559C53.481 81.1917 53.624 81.2302 53.7678 81.2689C54.0943 81.3567 54.425 81.4457 54.7698 81.5066C56.4061 81.828 57.7795 81.8864 58.8315 81.8572C60.3217 81.828 61.7535 81.7988 63.4484 81.1267C64.6464 80.6592 65.5522 80.0455 66.1367 79.578C65.8152 80.5131 64.4711 84.0196 60.7308 86.065C59.7958 86.5618 58.8899 86.8832 58.0425 87.0877C56.7568 87.38 55.4419 87.4676 54.1269 87.3215C53.3087 87.2339 52.4613 87.117 51.5847 86.9709C50.1237 86.7079 48.7795 86.3864 47.5522 86.0358C46.4419 85.7144 45.3022 85.5683 44.1626 85.5975C44.1135 85.6016 44.0633 85.6057 44.012 85.6098Z" fill="#FDFFFA"/>
</svg>
