<svg width="120" height="120" viewBox="0 0 120 120" fill="none" xmlns="http://www.w3.org/2000/svg">
<circle cx="60" cy="60" r="60" fill="#EDF0F4"/>
<path fill-rule="evenodd" clip-rule="evenodd" d="M40.08 47.92L47.64 33H65.2L57.64 47.92H40.08ZM37.6 52.76L30.04 67.68H47.64L55.2 52.76H37.6ZM27.56 72.56L20 87.48H37.6L45.16 72.56H27.56Z" fill="#0175B0"/>
<path fill-rule="evenodd" clip-rule="evenodd" d="M57.5995 47.88L65.1595 33H82.7595L75.1995 47.88H57.5995ZM55.1195 52.76L47.5595 67.68H65.1595L72.7195 52.76H55.1195ZM45.1195 72.52L37.5195 87.48H55.1195L62.6795 72.52H45.1195Z" fill="#00A2D0"/>
<path fill-rule="evenodd" clip-rule="evenodd" d="M74.8398 47.88L82.3998 33H99.9998L92.4398 47.88H74.8398ZM72.3998 52.76L64.8398 67.68H82.4398L89.9598 52.76H72.3998ZM62.3598 72.52L54.7998 87.48H72.3598L79.9598 72.52H62.3598Z" fill="#00CCFF"/>
</svg>
