<svg width="120" height="120" viewBox="0 0 120 120" fill="none" xmlns="http://www.w3.org/2000/svg">
<circle cx="60" cy="60" r="60" fill="#EDF0F4"/>
<path d="M60.0146 60.7809L76.0218 51.539L60.0146 42.2419V60.7809Z" fill="#2A3D58"/>
<path d="M60.0147 60.7809L44.0068 51.539L60.0147 42.2419V60.7809Z" fill="#0F2631"/>
<path d="M76.0218 33L60.0146 42.2419L76.0218 51.5389V33Z" fill="#0F2631"/>
<path d="M76.0225 33L92.0303 42.2419L76.0225 51.5389V33Z" fill="#2A3D58"/>
<path d="M44.0072 33L28 42.2419L44.0072 51.5389V33Z" fill="#0F2631"/>
<path d="M44.0068 33L60.0147 42.2419L44.0068 51.5389V33Z" fill="#2A3D58"/>
<path d="M60.0146 86.2717L76.0218 77.0298L60.0146 67.7334V86.2717Z" fill="#2A3D58"/>
<path d="M60.0147 86.2717L44.0068 77.0298L60.0147 67.7334V86.2717Z" fill="#0F2631"/>
<path d="M76.0218 58.4915L60.0146 67.7333L76.0218 77.0297V58.4915Z" fill="#0F2631"/>
<path d="M76.0225 58.4915L92.0303 67.7333L76.0225 77.0297V58.4915Z" fill="#2A3D58"/>
<path d="M44.0072 58.4915L28 67.7333L44.0072 77.0297V58.4915Z" fill="#0F2631"/>
<path d="M44.0068 58.4915L60.0147 67.7333L44.0068 77.0297V58.4915Z" fill="#2A3D58"/>
</svg>
