<svg width="120" height="120" viewBox="0 0 120 120" fill="none" xmlns="http://www.w3.org/2000/svg">
<circle cx="60" cy="60" r="60" fill="#EDF0F4"/>
<path d="M75.0442 51.8338L81.5721 56.7909L85.7 59.9206L81.0889 62.2727L71.8279 67.0161L75.0054 69.2128L79.4422 72.3036L74.6371 74.7919L45.1876 90.0323C50.0844 92.7358 55.5828 94.1534 61.172 94.1534C79.4812 94.1534 94.3236 79.263 94.3236 60.8915C94.3408 53.1024 91.6168 45.5572 86.6319 39.5859L75.0442 51.8338Z" fill="#091B26"/>
<path d="M45.9459 70.7597L39.418 65.7833L35.29 62.6536L39.9012 60.3015L49.1622 55.5575L45.9846 53.3422L41.5479 50.2507L46.3529 47.7624L77.3721 31.7055C72.1184 28.3985 66.0383 26.6527 59.8363 26.6707C41.5271 26.6707 26.6847 41.5611 26.6847 59.9326C26.6847 68.4664 29.901 76.2617 35.171 82.1519L45.9459 70.7597Z" fill="#091B26"/>
<path d="M32.6517 83.8195C26.8006 77.3851 23.2355 68.8317 23.2355 59.4619C23.2355 39.4977 39.433 23.2462 59.331 23.2462C66.674 23.2462 73.8234 25.4818 79.8492 29.6996L83.0655 28.0278C76.4793 22.9936 68.2436 20 59.331 20C37.6507 20 20 37.7094 20 59.4619C20 69.7644 23.9526 79.1346 30.4044 86.1706L32.6517 83.8185V83.8195Z" fill="#091B26"/>
<path d="M88.1425 37.0932C93.5095 43.4111 96.7645 51.6145 96.7645 60.5371C96.7645 80.5013 80.567 96.7528 60.669 96.7528C53.9266 96.7528 47.3197 94.8672 41.6234 91.2902L38.3102 93.0008C44.8784 97.5692 52.6863 100 60.669 100C82.3493 100 100 82.2906 100 60.5381C100 50.6815 96.377 41.643 90.3902 34.7225L88.1429 37.0942L88.1425 37.0932Z" fill="#091B26"/>
<path d="M41.8696 63.0458L51.2954 70.1935L30 92.6666L72.3387 70.796L64.6971 65.4935L78.7971 58.2679L69.3713 51.1199L90.6667 28.6666L48.3283 50.5373L55.9696 55.841L41.8696 63.0458Z" fill="#23BEE2"/>
</svg>
