<svg width="120" height="120" viewBox="0 0 120 120" fill="none" xmlns="http://www.w3.org/2000/svg">
<path fill-rule="evenodd" clip-rule="evenodd" d="M60 0C93.1371 0 120 26.8629 120 60C120 93.1371 93.1371 120 60 120C26.8629 120 0 93.1371 0 60C0 26.8629 26.8629 0 60 0Z" fill="#0D251D"/>
<path d="M33.3187 67.8583L25.4878 60.0308L60.0135 25.5051L67.8444 33.336L33.3187 67.8583Z" fill="#0BC98D"/>
<path d="M59.9861 94.5292L52.1587 86.6983L86.681 52.176L94.5118 60.0035L59.9861 94.5292Z" fill="#0BC98D"/>
<path d="M59.6741 94.2137L25.8032 60.3428L33.6341 52.5154L67.5049 86.3828L59.6741 94.2137Z" fill="#0BC98D"/>
<path d="M73.1278 54.2846L52.1826 33.336L60.0135 25.5051L80.9586 46.4537L73.1278 54.2846Z" fill="#0BC98D"/>
<path d="M59.4305 67.9817L51.5996 60.1508L72.5448 39.2023L80.3756 47.0331L59.4305 67.9817Z" fill="#0BC98D"/>
</svg>
