<svg width="120" height="120" viewBox="0 0 120 120" fill="none" xmlns="http://www.w3.org/2000/svg">
<circle cx="60" cy="60" r="60" fill="#EDF0F4"/>
<path d="M60.5311 45.1404L73.3278 52.8586L60.5311 60.1745L47.1562 52.8586L60.5311 45.1404Z" fill="#EA259E"/>
<path d="M47.1562 53.135L60.5311 60.4258L60.4557 75.3091L47.1562 68.2697V53.135Z" fill="#014C99"/>
<path d="M60.5312 60.4258L73.4787 53.135L73.8558 68.2697L60.7072 75.5857L60.5312 60.4258Z" fill="#08B0F9"/>
<path fill-rule="evenodd" clip-rule="evenodd" d="M87.1301 44.2101L86.929 44.0844L74.1575 36.7685L60.7826 29.1006L60.6066 29L60.4558 29.0754C60.2046 29.1651 59.9608 29.2744 59.7267 29.4023L48.0614 36.2154L33.6306 44.6627C33.0499 44.9288 33.0514 45.521 33.0523 45.9013L33.0524 45.9449V46.2214L33.0272 67.6413L33.0021 75.5858C32.977 76.0635 33.1781 76.4909 33.5301 76.6417L50.1229 86.0695L59.9278 91.6507C60.129 91.7764 60.3552 91.8518 60.5564 91.8518C60.7284 91.8596 60.8976 91.8061 61.034 91.701L75.2134 83.5303L87.281 76.5914C87.7335 76.3903 88.01 75.9378 87.9346 75.5104L87.9849 45.4169C88.0603 44.713 87.4821 44.3861 87.1301 44.2101ZM60.5061 46.1208L72.1965 52.9088L60.5312 59.6214L56.559 57.3839L48.7151 52.934L60.5061 46.1208ZM61.1095 44.6124L73.7804 51.9786L85.5965 45.1655L76.0933 39.71L60.5312 30.785L43.6115 40.6653L35.4659 45.4169L47.1312 52.0289L59.953 44.5873C60.3052 44.3509 60.7678 44.361 61.1095 44.6124ZM34.6614 46.7996L46.2764 53.3865L46.5027 67.8676C46.4775 68.3201 46.7038 68.7224 47.0558 68.8983L54.774 73.3231L59.7267 76.164V89.7149L34.6111 75.4349L34.6614 46.7996ZM59.7519 61.0042L47.8854 54.2916L48.1117 67.6665L59.7267 74.3288L59.7519 61.0042ZM61.3357 76.1892L66.2884 73.3231L73.9312 68.9486L74.0066 68.8983C74.1575 68.8229 74.3335 68.6972 74.4592 68.5212L74.5346 68.4207V68.295L74.5095 58.6912V53.4117L86.3759 46.5482V58.2387L86.3508 75.2841L70.4367 84.4353L61.3106 89.6897L61.3357 76.1892ZM61.3357 61.0042V74.3539L73.0262 67.6413V54.2664L61.3357 61.0042Z" fill="#2F2F2F"/>
<path fill-rule="evenodd" clip-rule="evenodd" d="M60.1795 32.3437C59.8275 32.394 59.5258 32.6203 59.375 32.922C59.2242 33.274 59.2493 33.6511 59.4253 33.9025C59.6264 34.2042 59.9532 34.3801 60.3304 34.3801C60.3978 34.3755 60.4649 34.3671 60.5315 34.355C60.9589 34.3047 61.2857 34.003 61.3611 33.6259C61.4676 33.2901 61.3807 32.9229 61.1349 32.6706C60.8952 32.4024 60.5332 32.2786 60.1795 32.3437ZM60.8583 36.7434C60.4812 36.5422 60.0538 36.5674 59.7521 36.7685C59.4756 36.9194 59.2996 37.221 59.2493 37.5479C59.2242 37.8998 59.375 38.2015 59.5761 38.3775C59.7721 38.564 60.0349 38.6637 60.3052 38.6541C60.4613 38.6514 60.6152 38.6172 60.7577 38.5535C61.16 38.4027 61.3863 38.0256 61.3863 37.6484C61.4114 37.2965 61.1851 36.9445 60.8583 36.7434ZM59.7773 41.0173C60.1041 40.8413 60.5315 40.8413 60.8834 41.0676C61.2089 41.2552 61.3985 41.6122 61.3717 41.9869C61.345 42.3615 61.1065 42.688 60.7577 42.8274C60.6152 42.8912 60.4613 42.9254 60.3052 42.928C60.0708 42.9373 59.8402 42.8663 59.6516 42.7269C59.375 42.5509 59.2242 42.1738 59.2493 41.8218C59.2744 41.4698 59.4756 41.1681 59.7773 41.0173ZM43.8129 69.2503C43.4358 69.3509 43.1592 69.6526 43.0838 70.0297C43.0084 70.432 43.1341 70.8091 43.4106 71.0353C43.5849 71.186 43.8089 71.2666 44.0392 71.2616C44.1153 71.262 44.1912 71.2536 44.2654 71.2365C44.5922 71.161 44.8688 70.9348 44.9694 70.6582C45.1453 70.3063 45.0951 69.8789 44.7934 69.552C44.5565 69.2641 44.1706 69.1453 43.8129 69.2503ZM76.5461 71.2365C76.4652 71.2654 76.3805 71.2824 76.2947 71.2867C76.0433 71.2867 75.817 71.2113 75.6662 71.0353C75.3897 70.8091 75.2388 70.432 75.3142 70.0297C75.3897 69.6526 75.6662 69.3509 76.0182 69.2503C76.3862 69.1311 76.79 69.2394 77.0489 69.5269C77.3255 69.8537 77.4009 70.3063 77.2249 70.6834C77.1495 70.9348 76.873 71.161 76.5461 71.2365ZM40.1423 71.4125C39.7652 71.5382 39.5138 71.8901 39.4887 72.2924C39.4384 72.7198 39.6395 73.122 39.9664 73.298C40.1166 73.3943 40.2908 73.4465 40.4692 73.4489C40.6171 73.4456 40.7627 73.4114 40.8966 73.3483C41.2234 73.1974 41.4497 72.8958 41.4748 72.6192C41.5502 72.2421 41.3994 71.8398 41.0977 71.5884C40.8404 71.3494 40.468 71.2808 40.1423 71.4125ZM80.2167 73.3734C80.1034 73.4115 79.9841 73.4285 79.8647 73.4237C79.6385 73.4293 79.4171 73.3584 79.2362 73.2226C78.9561 72.9758 78.8232 72.602 78.8846 72.2338C78.9459 71.8656 79.1929 71.5551 79.5379 71.4124C79.8837 71.2786 80.2757 71.357 80.5435 71.6136C80.8452 71.8901 80.9458 72.2672 80.8452 72.6443C80.8201 72.946 80.5686 73.2477 80.2167 73.3734ZM37.3769 73.65C37.0752 73.474 36.6981 73.474 36.4215 73.65C36.0947 73.826 35.8936 74.1528 35.8936 74.555C35.8936 74.9573 36.0947 75.3093 36.4215 75.4601C36.5582 75.5422 36.7146 75.5857 36.874 75.5858C37.069 75.5888 37.2607 75.5365 37.4271 75.435C37.754 75.2087 37.93 74.8316 37.9048 74.5048C37.9048 74.1528 37.7037 73.826 37.3769 73.6248V73.65ZM83.4598 75.5858C83.2378 75.587 83.023 75.5064 82.8565 75.3595C82.605 75.1836 82.4542 74.8567 82.4793 74.5048C82.4944 74.154 82.6829 73.8336 82.9822 73.65C83.2838 73.4489 83.6861 73.4489 84.0129 73.6751C84.3649 73.9014 84.5409 74.3036 84.4655 74.7059C84.4403 75.0076 84.1889 75.3595 83.8369 75.5104C83.7174 75.5602 83.5893 75.5858 83.4598 75.5858Z" fill="#2F2F2F"/>
</svg>
