<svg width="120" height="120" viewBox="0 0 120 120" fill="none" xmlns="http://www.w3.org/2000/svg">
<circle cx="60" cy="60" r="60" fill="#7866D5"/>
<path d="M84.2875 30.8039C86.3186 31.0578 88.4342 31.2271 90.4653 31.5656C94.4427 32.3272 95.7967 34.3582 95.1197 38.4203C94.9505 39.9436 93.7657 41.1283 92.2424 41.3822C91.3115 41.5515 90.296 41.6361 89.3651 41.5515C76.1634 41.5515 63.0464 41.6361 49.8447 41.6361C47.8983 41.6361 45.8672 41.8053 43.9208 42.1438C37.4046 43.1594 34.8658 45.8674 34.3581 52.4682C34.1042 55.5148 34.1042 55.5148 37.2354 55.5148H89.7036C90.2114 55.5148 90.7191 55.5148 91.2269 55.5148C92.0732 55.5148 92.8348 55.7687 93.5964 56.1918C95.966 57.7151 95.3736 60.1692 95.289 62.3695C95.2043 64.1467 94.1042 65.1622 92.2424 65.5007C91.4808 65.6699 90.7191 65.6699 89.8729 65.6699C71.9321 65.6699 53.9914 65.6699 36.0506 65.6699C34.1042 65.6699 34.1042 65.6699 34.2734 67.6163C34.3581 69.3935 34.5273 71.1706 34.9505 72.9478C35.7967 76.1636 37.7431 78.1946 41.0435 79.1255C44.5978 80.141 48.3214 80.3103 51.9603 80.3949C64.7389 80.3949 77.6021 80.3949 90.4653 80.3949C92.0732 80.3949 93.5964 80.5642 94.6119 82.0874C96.2198 84.6262 95.3736 87.9266 92.8348 89.5345C92.4963 89.7884 92.1578 89.9577 91.7347 90.0423C88.942 90.9732 86.0647 91.1424 83.1028 91.2271C71.0012 91.4809 58.9843 91.4809 46.9674 91.2271C43.2438 91.1424 39.5203 90.7193 35.8813 89.9577C27.3341 88.1805 23.0182 83.7799 21.5795 75.1481C21.241 73.2017 21.0717 71.1706 20.8179 69.1396V53.3991C20.9871 51.8759 21.1564 50.268 21.3256 48.7447C22.4258 39.0127 26.8263 34.189 36.3891 31.9887C39.7741 31.2271 43.3284 31.0578 46.7135 30.7193L84.2875 30.8039Z" fill="white"/>
<path fill-rule="evenodd" clip-rule="evenodd" d="M46.8828 92.7503C52.8913 92.835 58.8998 92.9196 64.9928 92.9196C68.05 92.9196 71.1072 92.8983 74.1537 92.8771C77.179 92.856 80.1938 92.835 83.1875 92.835C85.8955 92.7503 89.1113 92.5811 92.2425 91.5656C92.7503 91.3963 93.258 91.1424 93.6811 90.8886C95.289 89.8731 96.3892 88.3498 96.8123 86.5726C97.2354 84.7955 96.9816 82.9337 95.966 81.3258C94.4428 78.8716 91.8194 78.8716 90.55 78.8716H82.0873C72.1861 78.8716 62.0309 78.8716 52.045 78.787C48.8292 78.787 45.1057 78.6178 41.4668 77.6022C38.7587 76.8406 37.1508 75.2327 36.4738 72.6093C36.0507 70.9168 35.8814 69.2243 35.7968 67.4471V67.3625V67.1086H36.1353H89.873C90.7192 67.1086 91.5655 67.1086 92.4964 66.9393C95.1198 66.4316 96.5584 64.8237 96.7277 62.4542C96.7277 62.3272 96.7488 62.1791 96.77 62.031C96.7912 61.8829 96.8123 61.7348 96.8123 61.6079L96.8158 61.566C96.9849 59.5386 97.2157 56.7714 94.3581 54.9224C93.4273 54.4147 92.3271 54.0762 91.227 54.0762H37.2354H35.7968C35.7968 53.8742 35.8161 53.653 35.8362 53.4217C35.8583 53.1684 35.8814 52.903 35.8814 52.6375C36.3892 46.7137 38.3356 44.598 44.1748 43.6671C46.0366 43.3286 47.983 43.1594 49.8447 43.1594C62.9618 43.1594 76.1635 43.0747 89.2806 42.9901C90.3807 42.9901 91.3962 42.9055 92.4117 42.7362C94.6967 42.3977 96.3892 40.6206 96.6431 38.5049C97.4893 33.5966 95.6275 30.8886 90.8038 29.9577C89.6714 29.706 88.5858 29.5947 87.5121 29.4846C87.1415 29.4466 86.7724 29.4087 86.4033 29.3653C85.8109 29.3653 85.1339 29.2807 84.5415 29.196H84.4569H46.7982H46.629L44.0902 29.4499C41.4668 29.7038 38.8433 29.9577 36.1353 30.5501C25.8955 32.835 20.9872 38.1664 19.8024 48.5755C19.7626 49.0539 19.7039 49.5323 19.6442 50.0196C19.5771 50.5666 19.5087 51.1248 19.4639 51.7066L19.2947 53.2299V69.1396V69.3089C19.3793 69.9859 19.4639 70.5783 19.5486 71.1707C19.6332 72.5247 19.8024 73.9633 20.0563 75.402C21.5796 84.5416 26.3187 89.4499 35.5429 91.3963C39.2665 92.2426 43.0746 92.6657 46.8828 92.7503ZM22.5105 70.8322C22.5105 70.2398 22.4258 69.6474 22.3412 69.055V53.5684L22.5105 52.1298C22.5552 51.5479 22.6237 50.9897 22.6907 50.4427C22.7505 49.9554 22.8091 49.477 22.849 48.9986C23.8645 39.859 27.7573 35.543 36.6431 33.3427C38.8206 32.8346 40.936 32.6378 43.1493 32.4319C43.5164 32.3977 43.8862 32.3633 44.2594 32.3272L46.7982 32.0733H84.203C84.7954 32.0733 85.4724 32.158 86.0648 32.2426C87.4188 32.3272 88.7728 32.4965 90.1268 32.7503C93.3426 33.4274 94.1889 34.5275 93.5965 37.9125C93.5119 38.7588 92.8349 39.4358 91.9886 39.5204C91.1423 39.6897 90.2961 39.6897 89.3652 39.6897C82.7644 39.6897 76.1847 39.7109 69.605 39.732C63.0253 39.7532 56.4456 39.7743 49.8447 39.7743C47.7291 39.859 45.6981 40.0282 43.667 40.3667C36.4738 41.4668 33.4273 44.7673 32.8349 52.0451C32.826 52.2317 32.8162 52.4117 32.8067 52.5854C32.7259 54.0673 32.6698 55.0959 33.4273 55.8533C34.2735 56.6996 35.3737 56.6996 37.2354 56.6996H91.3962C91.904 56.6996 92.4964 56.8688 92.9195 57.1227C94.1043 57.8843 94.1043 58.8999 93.935 61.0155C93.935 61.1848 93.9139 61.3329 93.8927 61.481C93.8716 61.6291 93.8504 61.7771 93.8504 61.9464C93.7658 62.7927 93.4273 63.385 92.0732 63.6389C91.3962 63.8082 90.6346 63.8082 89.9576 63.8082H36.1353C34.9505 63.8082 34.0196 63.8082 33.3426 64.5698C32.6868 65.3076 32.7457 66.1248 32.827 67.2523C32.8296 67.2887 32.8322 67.3254 32.8349 67.3625V67.4471C32.8349 69.3089 33.0888 71.2553 33.5119 73.1171C34.4428 76.9252 36.8123 79.3794 40.6205 80.3949C44.5979 81.5797 48.5754 81.7489 51.9604 81.7489C61.9463 81.8336 72.1861 81.8336 82.0027 81.8336H90.4653C92.0732 81.8336 92.7503 82.0874 93.258 82.8491C93.8504 83.78 94.0196 84.7955 93.7658 85.811C93.5119 86.8265 92.8349 87.6728 91.9886 88.2652C91.8617 88.3075 91.7347 88.3709 91.6078 88.4344C91.4809 88.4979 91.3539 88.5613 91.227 88.6037C88.5189 89.4499 85.557 89.6192 83.1029 89.7038C71.0859 89.9577 58.8998 89.9577 46.9675 89.7038C43.3285 89.6192 39.6896 89.196 36.1353 88.4344C28.1804 86.7419 24.3723 82.8491 23.0182 74.8942L22.5105 70.8322Z" fill="white"/>
</svg>
