<svg width="120" height="120" viewBox="0 0 120 120" fill="none" xmlns="http://www.w3.org/2000/svg">
<circle cx="60" cy="60" r="60" fill="#06233A"/>
<path d="M83.0512 50.8443C77.9179 45.7111 69.3625 45.7111 64.2292 50.8443L62.2329 52.8406L64.0866 54.6943L66.0829 52.698C70.218 48.5629 77.0624 48.5629 81.1975 52.698C83.1938 54.6943 84.3345 57.4035 84.3345 60.2553C84.3345 63.1072 83.1938 65.8164 81.1975 67.8127C79.2012 69.8089 76.492 70.9497 73.6402 70.9497C70.7884 70.9497 68.0791 69.8089 66.0829 67.8127L64.0866 65.8164L62.2329 67.6701L64.2292 69.6663C66.7958 72.233 70.218 73.5163 73.6402 73.5163C77.0624 73.5163 80.4845 72.233 83.0512 69.6663C85.6178 67.0997 86.9011 63.8201 86.9011 60.2553C86.9011 56.6906 85.6178 53.411 83.0512 50.8443Z" fill="#11DCBE"/>
<path fill-rule="evenodd" clip-rule="evenodd" d="M69.7903 56.4054L64.0867 62.109L58.6682 67.5275L56.672 69.5238C54.1053 72.0904 50.6831 73.3737 47.261 73.3737C43.8388 73.3737 40.4166 72.0904 37.85 69.5238C35.4259 66.9571 34 63.6775 34 60.1128C34 56.548 35.2833 53.2684 37.85 50.7018C42.9832 45.5685 51.5387 45.5685 56.672 50.7018L62.3756 56.4054L62.233 56.548L60.5219 58.2591L58.6682 60.1128L56.5294 62.2516L52.822 65.959C51.2535 67.5275 49.2572 68.383 47.1184 68.383C44.9795 68.383 42.9832 67.5275 41.4147 65.959C39.8462 64.3905 38.9907 62.3942 38.9907 60.2554C38.9907 58.1165 39.8462 56.1202 41.4147 54.5517C42.9832 52.9832 44.9795 52.1277 47.1184 52.1277C48.8295 52.1277 50.398 52.698 51.8239 53.6962C52.2516 53.9814 52.5368 54.2665 52.822 54.5517L53.9627 55.5499L52.3942 57.1184L44.5517 64.9609C45.2647 65.3886 46.1202 65.6738 47.1184 65.6738C48.5443 65.6738 49.9702 65.1034 50.9683 64.1053L51.2535 63.8201L58.5256 56.548L54.6757 52.698C52.6794 50.7018 49.9702 49.561 47.1184 49.561C44.2665 49.561 41.5573 50.7018 39.7036 52.698C37.7074 54.6943 36.5666 57.4035 36.5666 60.2554C36.5666 63.1072 37.7074 65.8164 39.7036 67.8127C43.8388 71.9478 50.6831 71.9478 54.8183 67.8127L55.1035 67.5275L56.2442 66.3868L56.8145 65.8164L62.3756 60.2554L67.0811 55.4073L67.9366 54.5517C69.5051 52.9832 71.5014 52.1277 73.6403 52.1277C75.7791 52.1277 77.7754 52.9832 79.3439 54.5517C80.9124 56.1202 81.768 58.1165 81.768 60.2554C81.768 62.3942 80.9124 64.3905 79.3439 65.959C77.7754 67.5275 75.7791 68.383 73.6403 68.383C71.5014 68.383 69.5051 67.5275 67.9366 65.959L65.9404 63.9627L67.7941 62.109L69.7903 64.1053C70.7885 65.1034 72.2144 65.6738 73.6403 65.6738C75.0662 65.6738 76.4921 65.1034 77.4902 64.1053C78.4884 63.1072 79.0587 61.6813 79.0587 60.2554C79.0587 58.8294 78.4884 57.4035 77.4902 56.4054C76.4921 55.4073 75.0662 54.8369 73.6403 54.8369C72.2144 54.8369 70.7885 55.4073 69.7903 56.4054ZM43.2684 56.4054C42.2703 57.4035 41.6999 58.8294 41.6999 60.2554C41.6999 61.2535 41.9851 62.2516 42.5555 63.1072L49.9702 55.6924C49.1146 55.1221 48.1165 54.8369 47.1184 54.8369C45.6925 54.8369 44.2665 55.4073 43.2684 56.4054Z" fill="#11DCBE"/>
</svg>
