<svg width="120" height="120" viewBox="0 0 120 120" fill="none" xmlns="http://www.w3.org/2000/svg">
<circle cx="60" cy="60" r="60" fill="#EDF0F4"/>
<path fill-rule="evenodd" clip-rule="evenodd" d="M60.1754 31.4411C59.4754 33.8711 56.1754 37.1811 51.8354 39.9611L51.6654 40.1311C51.4954 40.6511 52.3654 42.0411 53.4054 41.5211C58.4054 38.2211 62.2654 34.3911 62.9654 31.6111C63.4854 29.3511 62.0954 28.3111 59.1454 28.1311C58.2154 28.101 57.2847 28.1579 56.3654 28.3011H55.6654C58.9654 28.1311 60.8754 29.1711 60.1854 31.4311L60.1754 31.4411Z" fill="#1D1D1D"/>
<path fill-rule="evenodd" clip-rule="evenodd" d="M72.8655 34.7512C71.3055 40.6612 59.6555 49.8712 46.7955 55.4312C44.5993 56.4176 42.329 57.2301 40.0055 57.8612C39.7969 57.9141 39.6131 58.0378 39.4855 58.2112C38.9655 58.9112 39.1355 60.6412 40.3555 60.4712C42.6155 59.8045 45.0489 58.9345 47.6555 57.8612C61.2155 52.1312 73.7355 42.2212 75.2955 35.9912C75.9334 34.2661 75.0884 32.346 73.3855 31.6512C72.5155 31.3012 71.4755 30.7812 70.6055 30.4312C71.4961 30.6876 72.2423 31.2985 72.6696 32.1209C73.0968 32.9433 73.1677 33.905 72.8655 34.7812V34.7512Z" fill="#1D1D1D"/>
<path fill-rule="evenodd" clip-rule="evenodd" d="M88.8555 48.311C88.8683 47.6573 88.7492 47.0077 88.5055 46.401L88.1555 45.701L86.9355 43.791C87.3112 44.4212 87.4921 45.1483 87.4555 45.881C87.7345 46.7834 88.2091 47.6131 88.8455 48.311H88.8555Z" fill="#1D1D1D"/>
<path fill-rule="evenodd" clip-rule="evenodd" d="M90.2458 53.341C88.5058 59.601 77.7358 68.991 64.6958 75.771C64.2008 75.9305 63.8499 76.3715 63.8059 76.8897C63.7619 77.4079 64.0333 77.9018 64.4944 78.1425C64.9554 78.3831 65.5158 78.3234 65.9158 77.991C78.7758 71.211 89.3758 62.171 90.9158 55.911C91.2221 55.0754 91.2811 54.1693 91.0858 53.301C90.9158 52.431 90.3858 51.211 90.2158 50.301C90.5814 51.2676 90.5814 52.3344 90.2158 53.301L90.2458 53.341Z" fill="#1D1D1D"/>
<path fill-rule="evenodd" clip-rule="evenodd" d="M79.2957 73.3311C78.9886 73.6062 78.749 73.9484 78.5957 74.3311C78.4257 75.0311 78.9457 76.0711 79.9857 75.3311C86.4157 70.6411 91.1057 65.6011 91.9857 61.7711C92.1191 61.259 92.1764 60.73 92.1557 60.2011V59.2011L92.0057 57.1711C92.029 57.872 91.972 58.5733 91.8357 59.2611C90.8357 63.2611 85.9257 68.4711 79.3257 73.3411L79.2957 73.3311Z" fill="#1D1D1D"/>
<path fill-rule="evenodd" clip-rule="evenodd" d="M43.4955 41.531C45.0489 40.882 46.5558 40.1268 48.0055 39.271C48.1334 39.1627 48.2072 39.0036 48.2072 38.836C48.2072 38.6684 48.1334 38.5093 48.0055 38.401C47.7748 38.0774 47.4029 37.8841 47.0055 37.881C45.8255 38.5853 44.6069 39.2229 43.3555 39.791C39.3555 41.531 36.2255 41.701 35.5355 40.661C35.2963 40.3013 35.2337 39.8523 35.3655 39.441C35.6069 38.8128 35.9443 38.2258 36.3655 37.701L38.7955 35.271C41.126 33.6127 43.6309 32.2144 46.2655 31.101C46.6701 30.7263 47.1417 30.4311 47.6555 30.231C51.6555 29.011 54.2655 29.361 53.7355 31.231C53.533 32.0254 53.1101 32.7465 52.5155 33.311C53.2385 33.7689 54.1227 33.8963 54.9455 33.661C55.6775 32.9366 56.2142 32.0387 56.5055 31.051C57.2055 28.791 54.4155 28.051 50.2455 29.311C49.9043 29.4037 49.5701 29.5207 49.2455 29.661L48.2455 30.011C47.9311 30.1759 47.5942 30.2938 47.2455 30.361C46.896 30.5011 46.561 30.6753 46.2455 30.881C45.8955 31.051 45.7255 31.051 45.3755 31.231C45.0255 31.411 44.8555 31.401 44.5055 31.581C44.2321 31.7806 43.9409 31.9546 43.6355 32.101L42.9355 32.451C42.6894 32.5326 42.4568 32.6506 42.2455 32.801C41.9773 32.9168 41.7407 33.0951 41.5555 33.321C41.2924 33.4501 41.0552 33.6264 40.8555 33.841C40.5055 34.011 40.5055 34.191 40.1555 34.361C39.8925 34.4903 39.6553 34.6665 39.4555 34.881C39.1926 35.0105 38.9555 35.1867 38.7555 35.401C38.4055 35.751 38.2355 35.751 37.8855 36.101C37.5355 36.451 37.3655 36.451 37.0155 36.801C36.1465 37.3611 35.3818 38.0683 34.7555 38.891C34.3084 39.3285 33.9664 39.8619 33.7555 40.451C33.7555 40.621 33.5855 40.801 33.5855 40.971V41.321C33.5425 41.7354 33.6008 42.1541 33.7555 42.541C34.7555 43.931 38.7555 43.541 43.6655 41.541L43.4955 41.531Z" fill="#1D1D1D"/>
<path fill-rule="evenodd" clip-rule="evenodd" d="M29.7557 47.261V47.611C29.7727 47.7431 29.8324 47.866 29.9257 47.961C30.9257 49.181 33.4057 49.351 35.1357 48.961C41.2157 48.271 41.3957 47.221 41.3957 46.531C41.3957 46.531 41.3957 45.311 40.6957 45.311C35.8257 46.871 32.3557 46.871 31.3057 45.481C31.0486 44.8783 30.9891 44.2096 31.1357 43.571C31.3333 43.0373 31.5637 42.5163 31.8257 42.011C31.9957 41.661 32.3457 41.321 32.6957 40.791L32.1757 41.311C31.935 41.6842 31.642 42.0209 31.3057 42.311C31.0537 42.6308 30.8199 42.9647 30.6057 43.311C30.4357 43.661 30.0857 44.181 29.9057 44.531C29.7257 44.881 29.7357 45.051 29.5557 45.401C29.5797 45.5911 29.5174 45.7819 29.3857 45.921C29.4788 46.3341 29.5957 46.7414 29.7357 47.141L29.7557 47.261Z" fill="#1D1D1D"/>
<path fill-rule="evenodd" clip-rule="evenodd" d="M45.7558 51.991C57.3958 47.091 68.0058 38.741 69.3858 33.361C69.9058 31.451 69.2158 30.061 67.2958 29.541C66.8961 29.4011 66.4888 29.2843 66.0758 29.191C65.7277 29.0844 65.3688 29.0174 65.0058 28.991C65.7358 29.1655 66.3512 29.654 66.6869 30.3254C67.0226 30.9968 67.0441 31.7822 66.7458 32.471C65.3558 37.341 55.7958 44.991 45.1958 49.471C36.8558 52.951 30.4258 53.471 28.6858 51.211C28.2083 50.4953 28.0797 49.6023 28.3358 48.781C28.5058 48.431 28.5058 48.081 28.6858 47.781C28.3358 48.651 27.8158 49.871 27.4658 50.781C27.4658 50.951 27.2958 51.131 27.2958 51.301C27.2958 51.471 27.1258 51.821 27.1258 52.001C26.9168 52.7406 27.1146 53.5355 27.6458 54.091C29.4158 56.471 36.5358 55.991 45.7558 51.991Z" fill="#1D1D1D"/>
<path fill-rule="evenodd" clip-rule="evenodd" d="M25.7656 64.991C25.7416 65.181 25.804 65.3718 25.9356 65.511V65.861C25.9356 65.991 26.1056 65.991 26.1056 66.211L25.9356 65.991C26.1056 66.161 26.1056 66.511 26.2856 66.681C28.7156 69.991 37.9256 69.341 49.7456 64.291C64.8656 57.861 78.6056 47.091 80.5156 39.991C81.0542 38.4697 80.6644 36.7743 79.5156 35.641L78.1256 34.421L77.1256 33.731C78.1835 34.4064 78.7832 35.6097 78.6856 36.861C78.1656 47.811 35.7556 73.861 26.1956 63.801C25.7571 63.1907 25.5131 62.4622 25.4956 61.711C25.4655 62.6409 25.5224 63.5716 25.6656 64.491V64.661C25.7638 64.7524 25.8244 64.8772 25.8356 65.011L25.7656 64.991Z" fill="#1D1D1D"/>
<path fill-rule="evenodd" clip-rule="evenodd" d="M52.5257 69.991C68.5257 63.211 83.1157 51.741 85.2057 44.261C85.6915 42.9222 85.4976 41.431 84.6857 40.261C84.037 39.4647 83.339 38.7099 82.5957 38.001C83.5957 39.001 83.8157 40.431 83.4657 42.171C81.5557 49.471 67.1257 60.771 51.4657 67.371C39.1457 72.641 29.7557 73.511 27.1557 69.991C26.84 69.661 26.6551 69.2273 26.6357 68.771C26.8432 69.7931 27.1342 70.7965 27.5057 71.771V72.291C27.6757 72.461 27.6757 72.641 27.8557 72.811C30.1157 76.291 39.8557 75.421 52.5357 70.031L52.5257 69.991Z" fill="#1D1D1D"/>
<path fill-rule="evenodd" clip-rule="evenodd" d="M30.2854 78.7211C30.2854 78.5511 30.1154 78.5511 30.1154 78.3711C30.096 78.5115 30.1631 78.6496 30.2854 78.7211Z" fill="#1D1D1D"/>
<path fill-rule="evenodd" clip-rule="evenodd" d="M55.6555 76.1109C65.2155 71.9409 74.4255 66.2009 80.6555 60.6409C81.0719 60.1677 81.2052 59.5088 81.0055 58.9109C80.8944 58.566 80.6358 58.2883 80.2996 58.1531C79.9634 58.0179 79.5845 58.0391 79.2655 58.2109C71.775 64.6195 63.343 69.8372 54.2655 73.6809C41.4055 78.9009 31.4955 79.7709 28.8955 76.1109C29.2002 76.5959 29.4358 77.1209 29.5955 77.6709C29.6124 77.803 29.6722 77.926 29.7655 78.0209C29.7655 78.1909 29.9355 78.1909 29.9355 78.3709C29.9355 78.2009 29.7655 78.2009 29.7655 78.0209C29.7655 78.1909 29.9355 78.1909 29.9355 78.3709C32.3655 82.3709 42.4455 81.6709 55.6555 76.1109Z" fill="#1D1D1D"/>
<path fill-rule="evenodd" clip-rule="evenodd" d="M44.8854 85.6711C45.5854 85.5011 45.4054 84.9711 45.2354 84.6711C44.8116 84.0331 44.0912 83.6559 43.3254 83.6711C37.9354 84.5411 34.1154 84.0211 32.5454 82.1011V81.8511C32.9208 82.2214 33.2559 82.6303 33.5454 83.0711C33.8954 83.4211 34.2454 83.9411 34.5454 84.2911C35.9354 86.0311 39.5454 86.5511 44.8054 85.6811L44.8854 85.6711Z" fill="#1D1D1D"/>
<path fill-rule="evenodd" clip-rule="evenodd" d="M60.0054 86.3711C60.5336 86.2249 60.8458 85.6808 60.7054 85.1511C60.253 84.4562 59.3405 84.2292 58.6154 84.6311C48.1854 88.8011 40.1954 89.4911 37.2354 87.0611C38.0875 87.6494 38.8993 88.2942 39.6654 88.9911C42.6654 91.0711 50.2654 90.2111 60.0054 86.3911V86.3711Z" fill="#1D1D1D"/>
<path fill-rule="evenodd" clip-rule="evenodd" d="M43.1455 91.061C44.1059 91.4537 45.0352 91.9183 45.9255 92.451C49.2255 93.841 56.1755 92.801 64.8755 89.151C78.0755 83.591 90.0755 73.991 91.6355 67.991C91.6115 67.801 91.6739 67.6102 91.8055 67.471C91.9755 66.771 91.9755 65.731 92.1555 64.861V64.301C90.4155 76.301 54.7855 95.931 43.1555 91.071L43.1455 91.061Z" fill="#1D1D1D"/>
<path fill-rule="evenodd" clip-rule="evenodd" d="M66.4356 90.5411C59.1356 93.6711 53.0556 94.7111 49.7456 93.8411C50.6156 94.0111 52.0056 94.3611 52.8756 94.5311C61.8756 95.9211 84.8756 84.6211 89.7256 74.3711C90.0756 73.5011 90.4256 72.2911 90.7256 71.3711C89.0056 76.9911 78.2556 85.5011 66.4356 90.5411Z" fill="#1D1D1D"/>
<path fill-rule="evenodd" clip-rule="evenodd" d="M82.2557 84.2809C78.184 87.5015 73.68 90.1339 68.8757 92.1009C64.0057 94.1909 59.8757 95.1009 57.0557 94.8809H60.5357C63.7796 94.4904 66.9455 93.6104 69.9257 92.2709C74.1388 90.433 78.1088 88.0818 81.7457 85.2709C82.2657 84.9209 82.4357 84.4009 82.6157 84.4009C82.6157 84.2309 82.7857 84.2309 82.7857 84.0509V83.9409C82.4357 84.1109 82.2657 84.1109 82.2657 84.2909L82.2557 84.2809Z" fill="#1D1D1D"/>
<path fill-rule="evenodd" clip-rule="evenodd" d="M25.7654 58.381V59.251C25.7461 59.3913 25.8132 59.5295 25.9354 59.601V59.771C25.9354 59.991 26.1054 59.991 26.1054 60.121V60.291C26.4317 60.7119 26.8487 61.0537 27.3254 61.291C27.6838 61.1618 27.9014 60.7978 27.8454 60.421C27.9445 59.78 27.8861 59.1245 27.6754 58.511C27.1657 58.3282 26.7348 57.975 26.4554 57.511C26.0793 56.8811 25.8983 56.1538 25.9354 55.421C25.9749 55.1279 26.0317 54.8374 26.1054 54.551V54.901L25.9354 56.121L25.5854 57.861C25.7554 57.861 25.7554 58.211 25.7554 58.381H25.7654Z" fill="#1D1D1D"/>
<path fill-rule="evenodd" clip-rule="evenodd" d="M91.2855 81.681C90.5669 81.15 89.5562 81.2874 89.0055 81.991C85.9218 86.4711 81.8984 90.225 77.2155 92.991C71.7132 96.155 65.4826 97.8333 59.1355 97.861H59.0055C47.4077 97.8779 36.4902 92.3895 29.5855 83.071H29.4155C29.4155 82.9771 29.3394 82.901 29.2455 82.901L29.0755 82.731C28.9352 82.7504 28.797 82.6833 28.7255 82.561H27.7255C27.5852 82.5417 27.447 82.6088 27.3755 82.731H27.1555V82.891C27.0616 82.891 26.9855 82.9671 26.9855 83.061L26.8155 83.231C26.8349 83.3714 26.7678 83.5095 26.6455 83.581V90.711C26.6455 91.1725 26.8288 91.6151 27.1551 91.9414C27.4815 92.2677 27.924 92.451 28.3855 92.451C28.8554 92.4807 29.3155 92.3069 29.6484 91.9739C29.9814 91.641 30.1552 91.181 30.1255 90.711V88.801C37.7081 96.8336 48.2794 101.366 59.3255 101.321H59.4955C66.4053 101.305 73.1856 99.4445 79.1355 95.931C84.327 93.027 88.7417 88.9141 92.0055 83.941C92.3888 83.1198 92.0859 82.1418 91.3055 81.681H91.2855Z" fill="#407BA4"/>
<path fill-rule="evenodd" clip-rule="evenodd" d="M57.3956 23.281V22.931C57.415 22.7907 57.3479 22.6526 57.2256 22.581C57.2364 22.4289 57.1474 22.2873 57.0056 22.231L56.8356 22.061C56.8356 21.891 56.6656 21.891 56.4856 21.891L56.3156 21.721L50.2756 18.241C49.8902 17.9987 49.4187 17.9355 48.9831 18.0679C48.5475 18.2003 48.1909 18.5152 48.0056 18.931C47.7674 19.3169 47.7077 19.787 47.8419 20.2201C47.9761 20.6533 48.291 21.0073 48.7056 21.191L50.6156 22.191C46.4703 23.1134 42.4863 24.6504 38.7956 26.751C32.8984 30.2743 27.9946 35.2401 24.5456 41.181C17.6804 52.7562 17.157 67.0239 23.1556 79.071C23.4877 79.6138 24.0793 79.9437 24.7156 79.941C24.9584 79.9663 25.2023 79.9062 25.4056 79.771C25.8275 79.5954 26.1496 79.2415 26.2848 78.8049C26.42 78.3684 26.3543 77.8944 26.1056 77.511C17.5555 60.205 23.86 39.2336 40.5356 29.511C45.1945 26.7664 50.4381 25.1659 55.8356 24.841C56.0256 24.865 56.2164 24.8027 56.3556 24.671C56.5256 24.501 56.7056 24.501 56.8756 24.321L57.0056 24.151L57.2256 23.991V23.801C57.2062 23.6607 57.2733 23.5226 57.3956 23.451V23.281Z" fill="#D37D41"/>
<path fill-rule="evenodd" clip-rule="evenodd" d="M100.846 73.3311C100.385 72.5507 99.4068 72.2477 98.5856 72.6311L97.0056 73.5111C100.497 62.7899 99.2302 51.0869 93.5256 41.3611C86.8968 30.193 75.358 22.837 62.4356 21.5411C61.9928 21.5021 61.5537 21.6492 61.2236 21.947C60.8935 22.2448 60.7023 22.6665 60.6956 23.1111C60.6568 23.5522 60.8025 23.9898 61.0981 24.3195C61.3938 24.6492 61.8129 24.8417 62.2556 24.8511C74.1129 25.9362 84.7234 32.6613 90.7656 42.9211C96.6441 53.266 97.2239 65.7976 92.3256 76.6411V77.8611C92.3033 78.0018 92.3712 78.1416 92.4956 78.2111V78.3811L92.6656 78.5511V78.7211C92.8356 78.8911 93.0156 78.8911 93.1856 79.0711H94.4056C94.4995 79.0711 94.5756 78.995 94.5756 78.9011L100.316 75.6011C100.985 75.0551 101.199 74.1247 100.836 73.3411L100.846 73.3311Z" fill="#E9B520"/>
</svg>
