<svg width="120" height="120" viewBox="0 0 120 120" fill="none" xmlns="http://www.w3.org/2000/svg">
<circle cx="60" cy="60" r="60" fill="#EDF0F4"/>
<path d="M49.282 45.1761L48.8938 45.5643L40 54.4582L37.3177 57.1404C37.1764 57.3488 36.9967 57.5285 36.7883 57.6698C35.9579 58.2151 34.8426 57.9845 34.2966 57.1545C34.0988 56.858 33.9955 56.5086 34.0002 56.1522V47.7172C34.1521 43.5981 37.5369 40.3381 41.6587 40.3409H49.282L47.0586 42.5997L44.4822 45.1761H49.282Z" fill="url(#paint0_linear_1_5870)"/>
<path d="M85.7397 50.0465V50.6112C85.6113 55.4056 83.7565 59.9925 80.5164 63.5285L55.2818 88.763C53.8838 90.0125 52.0747 90.7035 50.1996 90.7041C49.691 90.6942 49.1838 90.647 48.682 90.5629L47.1997 90.1041C45.6145 89.5537 44.0696 88.8933 42.5764 88.1277L42.2587 87.9513C41.9819 87.744 41.8238 87.4146 41.8352 87.0689C41.8316 86.8284 41.9059 86.5932 42.047 86.3984L70.352 58.0581C70.4895 57.9085 70.608 57.7425 70.7049 57.564C70.881 57.226 71.0229 56.8713 71.1284 56.5052C71.1812 56.2728 71.2166 56.0369 71.2343 55.7993C71.2654 55.6485 71.2773 55.4943 71.2696 55.3405C71.2696 52.7286 69.1522 50.6112 66.5403 50.6112H56.1995L63.1522 43.6585C63.3606 43.5172 63.5403 43.3375 63.6816 43.1291C63.8688 42.8337 63.9668 42.4906 63.9639 42.1409C63.9639 41.1468 63.1581 40.341 62.164 40.341H47.4115C47.4115 40.341 48.8232 38.7881 49.3879 38.2234C50.6585 36.847 52.2114 35.0823 53.9054 33.847C57.321 31.3348 61.4533 29.9862 65.6933 30.0001C68.2041 30.0032 70.6928 30.4699 73.0342 31.3765L73.9872 31.7648C75.682 32.5447 77.2615 33.5541 78.6811 34.7647L78.9635 35.0117H78.9988C83.2834 38.8204 85.7363 44.2785 85.7397 50.0113V50.0465Z" fill="url(#paint1_linear_1_5870)"/>
<path fill-rule="evenodd" clip-rule="evenodd" d="M47.5174 40.3409H65.3051C66.2992 40.3409 67.105 41.1468 67.105 42.1409C67.1131 42.4966 67.0012 42.8447 66.7874 43.1291L59.3406 50.6112H40.0706C39.6004 50.616 39.1734 50.3376 38.9882 49.9054C38.8029 49.4732 38.8958 48.972 39.2235 48.6348L47.5174 40.3409ZM56.7289 44.3643C56.7479 44.9938 57.2638 45.494 57.8935 45.4937C58.5173 45.484 59.015 44.9704 59.0053 44.3467C58.9955 43.723 58.482 43.2252 57.8582 43.235C57.6454 43.2346 57.437 43.2959 57.2583 43.4114C57.1156 43.5011 56.995 43.6217 56.9053 43.7644C56.7945 43.9452 56.7336 44.1523 56.7289 44.3643Z" fill="#E35CC7"/>
<path d="M49.8114 40.3409H47.3762L39.1882 48.4936C38.8273 48.8472 38.718 49.3848 38.9124 49.8512C39.1067 50.3175 39.5654 50.6186 40.0705 50.6112H43.8469L54.1172 40.3409H49.8114Z" fill="#8961D0"/>
<circle cx="57.8582" cy="44.3644" r="1.12938" fill="#8961D0"/>
<circle opacity="0.48" cx="57.8582" cy="44.3644" r="1.12938" fill="url(#paint2_linear_1_5870)"/>
<path opacity="0.48" d="M58.9523 44.3644C58.9526 43.7542 58.4681 43.2541 57.8582 43.235C57.455 43.2457 57.084 43.4577 56.87 43.7997C57.0853 43.6133 57.3617 43.5127 57.6465 43.5173C58.2507 43.5173 58.7406 44.0072 58.7406 44.6114V44.6467C58.7474 44.8333 58.6982 45.0177 58.5994 45.1761C58.8261 44.9673 58.9543 44.6726 58.9523 44.3644Z" fill="#480061"/>
<path opacity="0.75" fill-rule="evenodd" clip-rule="evenodd" d="M47.5174 40.3409H65.3051C66.2992 40.3409 67.105 41.1468 67.105 42.1409C67.1131 42.4966 67.0012 42.8447 66.7874 43.1291L59.3406 50.6112H40.0706C39.6068 50.602 39.1927 50.3184 39.0164 49.8893C38.8402 49.4601 38.9354 48.9674 39.2588 48.6348L47.5174 40.3409ZM57.0597 45.1629C57.2715 45.3747 57.5587 45.4937 57.8582 45.4937C58.4611 45.459 58.9368 44.968 58.9523 44.3643C58.9526 43.7541 58.4682 43.254 57.8582 43.235C57.6454 43.2346 57.437 43.2959 57.2583 43.4114C57.1156 43.5011 56.995 43.6217 56.9053 43.7644C56.7945 43.9452 56.7336 44.1523 56.7289 44.3643C56.7289 44.6639 56.8479 44.9511 57.0597 45.1629Z" fill="url(#paint3_linear_1_5870)"/>
<path d="M49.8114 40.3409H47.3762L39.1882 48.4936C38.8273 48.8472 38.718 49.3848 38.9124 49.8512C39.1067 50.3175 39.5654 50.6186 40.0705 50.6112H43.8469L54.1172 40.3409H49.8114Z" fill="url(#paint4_linear_1_5870)"/>
<path opacity="0.43" d="M61.4581 50.6112L66.6462 43.3055L59.3405 50.6112H61.4581Z" fill="url(#paint5_linear_1_5870)"/>
<defs>
<linearGradient id="paint0_linear_1_5870" x1="34.0002" y1="57.9658" x2="49.282" y2="57.9658" gradientUnits="userSpaceOnUse">
<stop stop-color="#4750D9"/>
<stop offset="0.41" stop-color="#5C45DC"/>
<stop offset="1" stop-color="#8131E1"/>
</linearGradient>
<linearGradient id="paint1_linear_1_5870" x1="41.8352" y1="90.7038" x2="85.7397" y2="90.7038" gradientUnits="userSpaceOnUse">
<stop stop-color="#E96161"/>
<stop offset="0.2" stop-color="#E65B76"/>
<stop offset="0.61" stop-color="#DF4AAC"/>
<stop offset="1" stop-color="#D739E6"/>
</linearGradient>
<linearGradient id="paint2_linear_1_5870" x1="56.7253" y1="45.4814" x2="58.9594" y2="45.4814" gradientUnits="userSpaceOnUse">
<stop stop-color="#B100D3"/>
<stop offset="0.23" stop-color="#9C00C0"/>
<stop offset="0.69" stop-color="#67008E"/>
<stop offset="1" stop-color="#40006A"/>
</linearGradient>
<linearGradient id="paint3_linear_1_5870" x1="38.9306" y1="50.6109" x2="67.105" y2="50.6109" gradientUnits="userSpaceOnUse">
<stop stop-color="#D0D7D3"/>
<stop offset="0.52" stop-color="#D9C5E8"/>
<stop offset="1" stop-color="#E3B1FF"/>
</linearGradient>
<linearGradient id="paint4_linear_1_5870" x1="38.8388" y1="50.6029" x2="54.1136" y2="50.6029" gradientUnits="userSpaceOnUse">
<stop stop-color="#B277EC"/>
<stop offset="0.77" stop-color="#9336E7"/>
<stop offset="1" stop-color="#8921E6"/>
</linearGradient>
<linearGradient id="paint5_linear_1_5870" x1="59.33" y1="50.6183" x2="66.6497" y2="50.6183" gradientUnits="userSpaceOnUse">
<stop stop-opacity="0.5"/>
<stop offset="0.1" stop-color="#201322" stop-opacity="0.59"/>
<stop offset="0.25" stop-color="#4A2C4E" stop-opacity="0.72"/>
<stop offset="0.4" stop-color="#6D4173" stop-opacity="0.82"/>
<stop offset="0.55" stop-color="#885190" stop-opacity="0.9"/>
<stop offset="0.7" stop-color="#9B5DA4" stop-opacity="0.95"/>
<stop offset="0.85" stop-color="#A664B0" stop-opacity="0.99"/>
<stop offset="1" stop-color="#AA66B4"/>
</linearGradient>
</defs>
</svg>
