<svg width="122" height="122" viewBox="0 0 122 122" fill="none" xmlns="http://www.w3.org/2000/svg">
<circle cx="61" cy="61" r="60" fill="black" stroke="black" stroke-width="1.2373"/>
<path fill-rule="evenodd" clip-rule="evenodd" d="M23.2626 32.56C23.2837 32.5179 25.3708 30.2832 27.9007 27.6268L32.4755 22.7357L33.4032 23.6423C33.9091 24.1482 36.0384 26.1721 38.1256 28.1538C39.1279 29.1157 40.1351 30.0726 40.9627 30.859C41.8584 31.71 42.5437 32.3611 42.7848 32.6022L43.6491 33.4455L44.4081 32.9817C44.8297 32.7287 45.9049 32.1384 46.8325 31.6957C50.037 30.0934 53.1783 29.1447 57.0153 28.5966C58.6175 28.3647 63.8037 28.4068 65.5325 28.6598C68.8635 29.1447 71.7306 30.0091 74.8086 31.4216C75.8206 31.8854 77.6337 32.8763 78.3505 33.3612C78.6034 33.5509 78.8775 33.6774 78.9197 33.6563C78.9829 33.6352 81.3441 31.1897 84.1902 28.2171C87.0363 25.2234 89.4186 22.799 89.503 22.799C89.6294 22.799 99.1164 31.7589 99.2008 31.9697C99.2219 32.033 96.7974 34.6261 93.8248 37.7252L88.4067 43.3963L88.8072 44.092C89.6294 45.4834 91.042 48.5193 91.5058 49.8685C94.7103 59.0815 93.6772 69.0744 88.7229 77.3176L88.1326 78.2874L89.4186 79.5101C93.2978 83.1574 99.6435 89.2501 99.6646 89.3134C99.6857 89.4399 90.4306 99.1166 90.3462 99.0744C90.2619 99.0323 81.829 91.021 79.5732 88.8285L78.5402 87.8165L77.5704 88.4068C73.8389 90.6626 69.2851 92.2016 64.6892 92.7287C62.3069 93.0238 58.0483 92.9184 55.8136 92.5179C51.3652 91.7167 47.3385 90.1988 43.9021 88.0063L43.2275 87.5846L42.5107 88.3014C42.1312 88.702 39.6224 91.3373 36.945 94.1412L32.075 99.222L31.7588 98.9479C30.9365 98.2733 22.3139 89.9458 22.335 89.8826C22.3421 89.8755 22.4184 89.7945 22.555 89.6494C23.2339 88.9284 25.4017 86.626 27.964 83.9585C31.042 80.7329 33.5929 78.0344 33.6351 77.9501C33.6772 77.8657 33.4875 77.4019 33.0659 76.6851C32.2015 75.2304 31.1895 73.0168 30.5992 71.2881C27.458 62.1384 28.491 52.1876 33.4875 43.9233L34.0567 42.9746L33.7405 42.6795C33.6097 42.5651 32.1098 41.1322 30.1353 39.246C29.5636 38.6998 28.952 38.1156 28.3224 37.5144C25.5184 34.858 23.2415 32.6233 23.2626 32.56ZM72.4053 44.851C69.6435 42.9114 66.6498 41.773 63.2978 41.3724C55.2022 40.4026 47.3385 44.6612 43.7124 51.9557C42.8058 53.8109 42.3209 55.1391 41.9625 56.9943C41.5831 58.8706 41.5831 62.4125 41.9625 64.3099C43.1642 70.2761 46.9169 75.2515 52.2296 77.9711C59.5873 81.7238 68.3364 80.4588 74.387 74.8088C81.4706 68.1679 82.5458 57.3316 76.9169 49.3626C75.926 47.9501 73.8178 45.8418 72.4053 44.851Z" fill="white"/>
</svg>
