<svg width="122" height="122" viewBox="0 0 122 122" fill="none" xmlns="http://www.w3.org/2000/svg">
<circle cx="61" cy="61" r="60" fill="black" stroke="black" stroke-width="0.436504"/>
<path d="M34.4082 26.8073L30.3855 30.83L35.475 35.9194L40.5755 41.0089L40.1532 42.2535C39.6087 43.887 39.3865 45.2538 39.3865 47.0651C39.3865 52.9658 42.4757 57.9885 47.943 60.9778C50.1432 62.1779 53.9214 63.5336 58.1108 64.6115C66.2895 66.7117 67.5451 67.0784 69.1564 67.8341C71.3567 68.8786 72.4457 70.0121 72.9013 71.7234C73.1013 72.4679 73.0902 74.1348 72.8902 74.9349C72.379 76.8795 70.7233 78.8353 68.6675 79.9021C65.8894 81.3578 61.0555 81.7578 57.4107 80.8244C56.055 80.491 54.1326 79.5465 53.1658 78.7575C51.1989 77.1351 49.6654 74.3348 48.9875 71.1011C48.8764 70.5899 48.7875 70.1565 48.7764 70.1343C48.7431 70.0899 37.364 71.2011 37.3085 71.2678C37.264 71.3011 37.2974 71.7678 37.3752 72.3012C37.7308 74.8682 38.6309 77.9241 39.6643 80.0465L40.2644 81.28L35.3194 86.225L30.3855 91.17L34.4193 95.2037L38.4419 99.2264L43.5425 94.1258L48.632 89.0364L49.5098 89.4031C54.1548 91.3589 61.1222 91.9701 67.8785 90.9922C69.5009 90.7588 71.8456 90.2032 73.0791 89.7476L73.8125 89.4809L78.6908 94.3592L83.558 99.2264L87.5807 95.2037L91.6145 91.17L87.0917 86.6472L82.5801 82.1356L83.1469 80.98C84.3248 78.613 84.8137 76.6017 84.9137 73.8347C85.0915 68.5564 83.7247 64.5782 80.6132 61.3C77.3684 57.8885 73.7125 56.2661 63.3891 53.6658C56.1106 51.8434 52.9769 50.5877 51.7323 49.0098C50.4988 47.4541 50.3877 45.276 51.4656 43.687C52.0879 42.7646 53.6214 41.7756 55.2882 41.22C57.1662 40.5866 60.3221 40.2977 62.6668 40.5422C67.6118 41.0645 70.101 43.1758 71.19 47.7985C71.3233 48.3653 71.4456 48.8431 71.4567 48.8653C71.4789 48.8987 79.5242 48.6097 81.9356 48.4875L83.3135 48.4208L83.2358 47.454C83.0802 45.4872 82.6912 43.7314 81.9801 41.8979L81.5911 40.8644L86.6028 35.8417L91.6145 30.83L87.5918 26.7962L83.558 22.7736L78.4908 27.8408L73.4125 32.9191L72.179 32.4524C69.1453 31.3189 66.2117 30.8189 61.889 30.6967C57.1662 30.5744 53.0213 31.1856 49.8432 32.4746L48.6653 32.9525L43.5536 27.863L38.4419 22.7736L34.4082 26.8073Z" fill="white"/>
</svg>
