<svg width="120" height="120" viewBox="0 0 120 120" fill="none" xmlns="http://www.w3.org/2000/svg">
<path d="M119.986 60.0024C119.986 93.1333 93.1237 119.995 59.9784 120C26.8571 120 -0.00479762 93.1333 2.57257e-06 59.9976C-0.00959781 26.8619 26.8523 0 59.988 0C93.1237 0 119.986 26.8667 119.986 60.0024Z" fill="#02A6C2"/>
<path d="M46.6699 33.0034C61.6124 32.9989 76.5559 32.9989 91.5003 33.0034C91.5049 37.8334 91.5049 42.6626 91.5003 47.491C76.5574 47.4956 61.6139 47.4956 46.6699 47.491C46.6651 42.661 46.6651 37.8318 46.6699 33.0034Z" fill="white"/>
<path d="M29.0188 52.9415C33.8396 52.9165 38.6613 52.9165 43.4838 52.9415C43.5088 57.7623 43.5088 62.584 43.4838 67.4065C38.6615 67.4313 33.8398 67.4317 29.0188 67.4078C28.9937 62.5861 28.9937 57.764 29.0188 52.9415Z" fill="white"/>
<path d="M46.6812 52.9415C57.4665 52.9186 68.251 52.9186 79.0348 52.9415C79.0578 57.7623 79.0578 62.584 79.0348 67.4065C68.2498 67.429 57.4652 67.429 46.6812 67.4065C46.6587 62.5855 46.6587 57.7638 46.6812 52.9415Z" fill="white"/>
<path d="M46.6946 72.8839C51.5073 72.8317 56.3192 72.8317 61.1302 72.8839C61.1802 77.6935 61.181 82.5054 61.1324 87.3196C56.3197 87.3671 51.5079 87.3663 46.6971 87.3171C46.6471 82.5079 46.6462 77.6969 46.6946 72.8839Z" fill="white"/>
</svg>
