<svg width="120" height="120" viewBox="0 0 120 120" fill="none" xmlns="http://www.w3.org/2000/svg">
<circle cx="60" cy="60" r="60" fill="#EDF0F4"/>
<circle cx="60" cy="60" r="36" fill="#00AFEC"/>
<path fill-rule="evenodd" clip-rule="evenodd" d="M51.0742 49.5667L51.1755 49.5891V49.5914H51.1822C48.7498 54.4946 45.7844 59.1147 42.3398 63.3682L42.324 63.3839C39.0415 62.8595 35.882 61.7418 33 60.0854V59.5454C33.1738 51.2818 37.1184 43.5517 43.7078 38.5619V38.5529C47.5841 35.6187 52.182 33.7878 57.0142 33.2542C55.9665 37.8518 54.4768 42.3374 52.566 46.6484H52.5548C52.0328 46.5202 51.5085 46.3964 50.9842 46.2839L50.2755 49.3731H50.2868V49.3867L51.0742 49.5667ZM69.9025 50.1973C69.8335 50.3435 69.7636 50.4918 69.6885 50.6129L69.2812 50.5094C66.471 45.0442 64.527 39.2437 63.1545 33.2542C66.8625 33.6614 70.2712 34.8359 73.5 36.6989C73.4963 41.3588 72.2904 45.9389 69.999 49.9964C69.9668 50.0609 69.9347 50.1288 69.9025 50.1971L69.9025 50.1971L69.9025 50.1973ZM68.0775 54.1454C68.6693 54.4604 68.8898 54.9104 69.171 55.7924C69.5602 57.1244 69.297 58.5261 69.0202 59.8424L72.285 60.6007L73.095 57.0839C76.3913 62.1576 80.0475 67.3979 84.4867 71.5109C83.7196 73.253 83.23 73.9156 82.1609 75.3625L81.996 75.5856C74.7285 73.3491 66.9885 72.1634 59.3835 72.2376L60.0338 69.6389L57.8647 69.1327C57.5273 69.0471 57.183 68.8964 56.9805 68.5994C56.7262 68.2619 56.7262 67.8164 56.8118 67.4182L58.1685 61.5187C58.3298 61.5574 58.4927 61.5931 58.656 61.6289C59.2035 61.7487 59.7549 61.8695 60.261 62.1104C60.8845 62.3607 61.3515 62.8929 61.5187 63.5437C61.6456 64.1825 61.4884 64.803 61.3323 65.4192C61.2696 65.6666 61.2071 65.9134 61.1632 66.1604L64.0837 66.8354L66.5182 56.2874L66.2708 56.2042L66.0795 56.1681C66.7545 55.4594 67.344 54.8294 67.9538 54.0599L68.0798 54.1454H68.0775ZM42.4792 63.9644L42.4095 64.0612C40.2382 66.7364 37.9657 69.3397 35.4413 71.6796C36.0392 73.0625 36.4743 73.6219 37.1601 74.5035C37.3825 74.7895 37.6314 75.1094 37.9208 75.5024C41.9311 74.2909 46.0305 73.3964 50.181 72.8272C50.3339 72.1618 50.4021 71.8458 50.5047 71.3706L50.5048 71.3703L50.5048 71.3702C50.5441 71.1882 50.5884 70.9829 50.6445 70.7257L45.6585 69.5714C45.7254 69.2822 45.793 68.9923 45.8607 68.7019L45.8607 68.7018L45.8608 68.7016C46.0322 67.9664 46.2044 67.2282 46.3672 66.4911C46.7725 66.5688 47.1752 66.6635 47.5767 66.7579L47.5768 66.7579L47.577 66.758L47.5771 66.758L47.5771 66.758C47.9199 66.8386 48.2618 66.919 48.6038 66.9884C48.968 67.0781 49.3531 67.0112 49.6658 66.8039C49.9785 66.5744 50.1383 66.1964 50.2238 65.8319L50.703 63.9914C50.5433 63.9982 50.3813 64.0139 50.2238 64.0364C48.156 64.3289 46.14 64.2884 44.0632 64.1039C43.8435 64.0809 43.6444 64.0734 43.451 64.0661H43.4509C43.1335 64.0541 42.8316 64.0427 42.4792 63.9644ZM53.9858 71.4952L55.986 71.9586L55.9185 72.3546L53.7832 72.5076L53.9858 71.4952ZM50.766 63.4019C50.6094 63.4075 50.4532 63.421 50.298 63.4424L50.2957 63.4447C48.228 63.7349 46.1332 63.7867 44.052 63.5954C43.9005 63.5797 43.7963 63.5707 43.7139 63.5635C43.4895 63.544 43.428 63.5387 43.0147 63.4514C46.4292 59.2549 49.3663 54.6916 51.7717 49.8456C51.796 49.8501 51.8602 49.835 51.925 49.8199C51.9924 49.8041 52.0604 49.7882 52.0845 49.7939C52.3021 49.8446 52.3282 49.8496 52.3538 49.8564C52.3793 49.8631 52.4044 49.8716 52.6177 49.9289L52.701 49.9559C53.0693 50.0801 53.3587 50.3687 53.484 50.7367C53.6089 51.1323 53.5124 51.528 53.416 51.9236C53.3891 52.0342 53.3621 52.1448 53.34 52.2554L50.766 63.3929V63.4019Z" fill="white"/>
<path d="M56.0175 47.4382V47.4472C56.4135 45.7755 56.7848 44.097 57.1898 42.4275L60.5153 43.1925L59.3588 48.2145L61.35 48.678C61.548 47.8432 61.7438 47.0062 61.935 46.1692L62.2253 44.9137L62.5155 43.6582L65.8388 44.4165C65.7938 44.6415 65.7443 44.8665 65.6948 45.0915C65.373 46.5472 65.0153 47.9895 64.6935 49.4497L68.5208 50.3407C65.7105 44.8732 63.8498 39.1582 62.4795 33.1687C61.62 33.0675 61.2578 33.1012 60.387 33.0855H59.856C58.902 33.0855 58.5488 33.0607 57.6128 33.1687C56.5598 37.7655 55.3178 42.5872 53.4053 46.8982L56.0175 47.4382Z" fill="white"/>
<path fill-rule="evenodd" clip-rule="evenodd" d="M74.0895 37.1174C79.0238 39.9749 82.3425 43.8944 84.6712 49.1009V49.0987C86.1225 52.3645 86.9139 55.885 87 59.4577V60.7244C86.9212 64.2434 86.1517 67.7107 84.7388 70.9327C80.3085 66.8152 76.6388 61.2307 73.3493 56.1592L74.3438 51.6884V51.6727C73.1591 51.4067 72.3164 51.223 71.2907 50.9993C70.98 50.9316 70.6526 50.8601 70.2938 50.7817C70.4081 50.5156 70.535 50.255 70.674 50.0009C72.9645 45.9397 74.085 41.7794 74.0895 37.1174ZM58.8953 58.4227L60.4388 51.7312L64.2098 52.6087C65.3057 52.8102 66.3676 53.1655 67.3643 53.6639C66.8522 54.3106 66.2283 54.9765 65.6407 55.6036L65.6391 55.6053C65.5301 55.7216 65.4223 55.8366 65.3167 55.9499L65.2762 55.9814L65.2701 55.9879C65.2674 55.9828 65.2592 55.9776 65.2402 55.9747L63.6112 55.5607C63.5408 55.8172 63.4835 56.077 63.4261 56.3375L63.4261 56.3376L63.4261 56.3376C63.3515 56.6758 63.2767 57.0151 63.1725 57.3494C62.9818 57.9964 62.4816 58.5059 61.8383 58.7084C61.0222 58.9376 60.1968 58.7363 59.3928 58.5402C59.226 58.4995 59.06 58.459 58.8953 58.4227ZM65.2636 56.0028C65.2675 56.0012 65.2735 55.9946 65.2701 55.9879C65.2582 56.0011 65.2598 56.0044 65.2636 56.0028ZM33 60.6749V61.0642C33.0518 64.6619 33.8212 67.6207 35.2613 70.9192C37.6502 68.7155 39.8697 66.335 41.901 63.7979C38.6273 63.2759 35.8688 62.3399 33 60.6749ZM58.1595 77.7524L59.2913 72.8249C66.8991 72.7507 74.4728 73.8527 81.744 76.0919C76.7806 82.8136 68.9941 86.87 60.6413 87.0854H59.5365C51.1189 86.9341 43.2522 82.8698 38.2583 76.0919C42.0945 74.9084 46.023 74.0422 50.0033 73.5022C49.8209 74.2338 49.6578 74.959 49.4911 75.7008L49.479 75.7544L52.8225 76.5217H52.827L53.6145 73.0949L55.7407 72.9442L54.8115 76.9874L58.1528 77.7524H58.1595Z" fill="white"/>
</svg>
