<svg width="120" height="120" viewBox="0 0 120 120" fill="none" xmlns="http://www.w3.org/2000/svg">
<rect width="120" height="120" rx="60" fill="#181818"/>
<path d="M30.4625 55.718H22V50.6622H30.4625C30.4625 50.5237 30.4625 50.4089 30.4625 50.2941C30.4842 48.8185 30.4474 47.3417 30.5401 45.8687C30.7183 43.0403 31.4437 40.3752 33.147 38.05C34.9305 35.6153 37.3887 34.2224 40.2823 33.5269C42.64 32.9614 45.0298 32.9036 47.4348 33.1077C49.9248 33.3237 52.3723 33.886 54.7063 34.7781C54.8378 34.828 54.9693 34.8837 55.1292 34.9487L53.6981 39.5138C53.3588 39.3826 53.0405 39.2514 52.7163 39.1319C49.6306 37.9858 46.4457 37.6885 43.2101 38.1911C39.5274 38.7613 37.3039 41.0779 36.6995 44.7619C36.4812 46.0984 36.4989 47.4401 36.4983 48.7844C36.4983 49.3939 36.4983 50.0041 36.4983 50.6464H51.4885V55.6872H36.5233V86.9173H30.4625V55.718Z" fill="white"/>
<path fill-rule="evenodd" clip-rule="evenodd" d="M62.0898 85.6791L62.0862 85.682C61.5308 86.1292 60.9784 86.574 60.4509 87C52.0121 79.3434 51.0737 64.6337 60.4174 55.7318C60.9764 56.1797 61.5566 56.6505 62.1382 57.1223L62.1384 57.1225C62.5713 57.4738 63.0051 57.8257 63.4313 58.1692L63.3701 58.2393C63.1295 58.5147 62.8999 58.7775 62.6731 59.0431C60.6344 61.432 59.2218 64.0662 58.626 67.1656C58.2505 69.1194 58.1814 71.0877 58.3195 73.0704C58.4754 75.3012 58.9903 77.4413 59.9498 79.4687C60.7856 81.2126 61.8711 82.826 63.1722 84.2582C63.2289 84.3182 63.2826 84.3791 63.3485 84.4538C63.3813 84.491 63.417 84.5315 63.4576 84.577C63.0077 84.9401 62.5477 85.3104 62.0898 85.6791ZM78.9305 71.4171C78.9182 71.3961 78.9076 71.3742 78.899 71.3515C78.9078 71.3288 78.9183 71.3069 78.9305 71.2859C79.811 69.7012 80.7117 68.0677 81.6077 66.4429L81.6079 66.4425C82.2108 65.3491 82.8115 64.2596 83.4025 63.1916C83.6697 62.7077 83.9472 62.2193 84.2287 61.7238C84.543 61.1705 84.8624 60.6084 85.1781 60.0338H79.4567C79.4567 60.0338 76.9261 65.6762 75.7739 68.193H75.6424C74.3698 65.6598 71.6308 60.0338 71.6308 60.0338L65.6101 60.001C65.6943 60.1598 69.9801 67.8131 71.9596 71.2859C71.9734 71.3101 71.9852 71.3318 71.9958 71.3515L71.9596 71.4171C69.9801 74.8399 65.6285 82.6448 65.5443 82.801L71.6308 82.7688C71.6308 82.7688 74.3698 77.2229 75.6424 74.7297H75.7739C76.9261 77.2097 79.4567 82.7721 79.4567 82.7721H85.2439C85.0731 82.466 84.6085 81.628 83.9971 80.5251L83.9945 80.5205L83.9944 80.5201C82.454 77.7415 79.9844 73.2866 78.9305 71.4171ZM88.7768 85.7644C88.2841 85.3676 87.7879 84.9681 87.3036 84.577C87.3212 84.5567 87.338 84.5374 87.354 84.5189C87.446 84.4127 87.5135 84.3347 87.5864 84.2582C88.8873 82.8258 89.9728 81.2124 90.8088 79.4687C91.7683 77.4413 92.2826 75.3012 92.4384 73.0704C92.5765 71.0877 92.5075 69.1194 92.132 67.1656C91.5368 64.0662 90.1242 61.432 88.0855 59.0431C87.8389 58.7551 87.5903 58.4704 87.3273 58.1692C87.8131 57.7784 88.3089 57.3768 88.8018 56.9776C89.3242 56.5544 89.8434 56.1339 90.3438 55.7318C99.6876 64.6337 98.7485 79.3434 90.3096 87C89.8146 86.6001 89.2976 86.1838 88.7768 85.7644Z" fill="#F7D509"/>
</svg>
