<svg width="120" height="120" viewBox="0 0 120 120" fill="none" xmlns="http://www.w3.org/2000/svg">
<circle cx="60" cy="60" r="60" fill="#EDF0F4"/>
<path fill-rule="evenodd" clip-rule="evenodd" d="M60 0C93.1371 0 120 26.8629 120 60C120 93.1371 93.1371 120 60 120C26.8629 120 0 93.1371 0 60C0 26.8629 26.8629 0 60 0Z" fill="#1E9ADA"/>
<path fill-rule="evenodd" clip-rule="evenodd" d="M20.4622 94.3261C24.7515 80.8943 33.4284 53.7236 46.6071 33.5104L46.5906 33.4884C78.9143 31.9942 94.8015 43.3767 94.8015 43.3767C86.9074 21.6719 59.4838 22.007 55.2484 22.1718C63.9446 12.6296 74.1405 6.76805 85.8471 8.72373C85.8471 8.72373 66.565 -13.7117 40.8719 23.8473L40.762 24.0726C7.93284 29.3738 2.24707 46.8431 2.24707 46.8431C12.7781 35.9605 31.7856 34.6201 35.3509 34.4553C27.5996 50.8094 17.0136 78.4747 19.0187 98.8006C19.4268 97.5684 19.9078 96.062 20.4622 94.3261ZM54.1241 67.0425C55.9778 62.5803 60.3377 59.6748 65.1696 59.6814C68.3364 59.6785 71.3742 60.9364 73.6119 63.1772C75.8496 65.418 77.1033 68.4575 77.096 71.6243C77.096 76.4562 74.1844 80.8121 69.7197 82.6596C65.2549 84.5072 60.1168 83.4824 56.7024 80.0633C53.2881 76.6443 52.2704 71.5047 54.1241 67.0425Z" fill="#FEFEFE"/>
</svg>
