<svg width="120" height="120" viewBox="0 0 120 120" fill="none" xmlns="http://www.w3.org/2000/svg">
<circle cx="60" cy="60" r="60" fill="#EDF0F4"/>
<path d="M44.0821 71.1126C44.0821 75.5873 45.8957 79.6383 48.8276 82.57C51.7593 85.5017 55.8103 87.3155 60.2849 87.3155C64.7596 87.3154 68.8104 85.5019 71.7421 82.57C74.6743 79.6383 76.4877 75.5872 76.4877 71.1126L76.5115 70.7692C76.5135 70.7498 77.3721 63.9959 71.4588 59.5779L75.0826 54.7224C83.0476 60.6733 82.6805 69.6502 82.5505 71.2172C82.5225 77.3234 80.0359 82.8503 76.0291 86.857C71.9996 90.8865 66.4331 93.3792 60.2849 93.3792C54.137 93.3792 48.5702 90.8865 44.5407 86.857C40.5111 82.8275 38.0186 77.2607 38.0186 71.1126H44.0821Z" fill="#FDB813"/>
<path d="M68.2815 35.465C68.2815 33.145 67.3411 31.0442 65.8209 29.524C64.3011 28.0038 62.2004 27.0636 59.8801 27.0636C57.56 27.0636 55.4592 28.0038 53.9389 29.524C52.4189 31.0438 51.4785 33.1448 51.4785 35.465H45.415C45.415 31.471 47.0344 27.8548 49.6522 25.237C52.2699 22.6193 55.8862 21 59.8801 21C63.874 20.9999 67.4902 22.6194 70.1079 25.237C72.7257 27.8548 74.345 31.4712 74.345 35.465H68.2815Z" fill="#FDB813"/>
<path d="M39.1429 64.3983C37.9556 67.6818 38.0693 71.2362 38.0693 71.2362L44.0821 71.2297C44.0821 71.2297 44.1453 67.2626 45.0296 64.392L39.1429 64.3983V64.3983Z" fill="#FDB813"/>
<path d="M75.7337 55.1062C73.6945 53.1423 71.2843 51.5645 68.6208 50.4906C66.063 49.4594 63.2557 48.8915 60.3013 48.8915C48.0199 48.8914 38.0634 58.8481 38.0634 71.1296C38.0634 83.411 48.0199 93.3676 60.3013 93.3676C72.583 93.3674 82.5394 83.411 82.5394 71.1296C82.5396 70.4398 82.5058 69.0846 82.44 67.7716C82.3947 66.8734 82.3395 66.0703 82.2788 65.6773L88.271 64.7772C88.3754 65.4549 88.4519 66.4586 88.5034 67.4875C88.5692 68.8002 88.6031 70.2969 88.6031 71.1296C88.6031 86.7597 75.9318 99.431 60.3013 99.431C44.6711 99.4308 32 86.7597 32 71.1296C32 55.4992 44.6712 42.828 60.3013 42.828C64.025 42.828 67.5934 43.5557 70.8708 44.8772C74.2673 46.2465 77.3355 48.2537 79.9257 50.7485L75.7334 55.1063H75.7337V55.1062Z" fill="#A80532"/>
<path d="M73.6074 64.729L88.0923 64.746V70.8097L73.6074 70.7925V64.729Z" fill="#A80532"/>
<path d="M50.0234 65.624H50.2053C51.4331 65.624 51.761 64.986 51.7883 64.5031H52.8364V70.9611H51.5605V66.5083H50.0235V65.624H50.0234Z" fill="#363636"/>
<path fill-rule="evenodd" clip-rule="evenodd" d="M56.8559 71.1334C55.7526 71.1334 54.9596 70.4938 54.8505 69.4678V69.4677H56.1171V69.4768C56.1901 69.9199 56.4728 70.1097 56.8649 70.1099C57.3937 70.1099 57.9226 69.6668 57.9317 68.3138L57.9135 68.2955C57.6217 68.7343 57.1203 68.8437 56.6825 68.8437C55.4427 68.8437 54.7227 67.9026 54.7227 66.8194C54.7227 65.2372 55.6613 64.5031 56.9289 64.5031C59.1687 64.5031 59.2051 66.9102 59.205 67.8204C59.205 70.3201 58.0226 71.1334 56.8559 71.1334ZM56.9196 65.5451C56.5914 65.5451 55.9987 65.7091 55.9987 66.6372C55.9987 67.6111 56.4729 67.8204 56.9561 67.8204C57.4028 67.8204 57.8953 67.5016 57.8953 66.7373C57.8953 66.0001 57.5763 65.5451 56.9196 65.5451Z" fill="#363636"/>
<path fill-rule="evenodd" clip-rule="evenodd" d="M62.0354 71.1332C60.512 71.1332 59.7939 70.0736 59.7939 67.8141C59.7939 65.5551 60.512 64.5044 62.0354 64.5044C63.5587 64.5044 64.2771 65.5549 64.2771 67.8143C64.2771 70.0736 63.5587 71.1332 62.0354 71.1332ZM62.0353 65.5277C61.3042 65.5277 61.1033 66.1537 61.1033 67.8141C61.1033 69.4748 61.3044 70.1097 62.0353 70.1099C62.7662 70.1099 62.9674 69.4746 62.9672 67.8143C62.9672 66.1539 62.7664 65.5277 62.0353 65.5277Z" fill="#363636"/>
<path d="M66.1444 67.0869C66.3808 66.9225 66.672 66.7305 67.2998 66.7305C68.1641 66.7305 69.2555 67.3337 69.2555 68.8141C69.2556 69.6929 68.81 71.1331 66.9087 71.1331C65.8983 71.1331 64.8685 70.5302 64.8047 69.2307H66.0807C66.1353 69.7564 66.4174 70.1097 66.9814 70.1097C67.5911 70.1095 67.9459 69.5935 67.9459 68.9047C67.9459 68.3338 67.673 67.754 66.9997 67.754C66.8268 67.7538 66.3899 67.7633 66.1444 68.2162L65.0051 68.1617L65.4518 64.6134H69.0009V65.6866H66.3717L66.1444 67.0869Z" fill="#363636"/>
<path d="M51.4488 35.4016L45.396 35.4231C44.9748 42.1599 51.0385 45.9497 51.0385 45.9497L71.5338 59.6554L75.2287 54.8235L55.8384 42.4968C55.8384 42.4968 51.4488 39.8651 51.4488 35.4016Z" fill="#FDB813"/>
</svg>
