<svg width="120" height="120" viewBox="0 0 120 120" fill="none" xmlns="http://www.w3.org/2000/svg">
<circle cx="60" cy="60" r="60" fill="#EDF0F4"/>
<path d="M67.1376 46.9359C64.6946 48.451 59.801 51.4889 59.7709 51.5189L37.2962 38.2854L59.7804 25.8296L87.5505 41.247L93.0333 38.126L59.8179 20L26.4431 38.1072L59.6398 57.283L72.5267 50.1318L67.1376 46.9359Z" fill="black"/>
<path d="M45.3704 59.074V53.306L58.0972 60.3774V99.975L24 78.8562V40.6627L29.375 44.0447V76.0378L52.7251 90.4571V63.3974L45.3704 59.074Z" fill="black"/>
<path d="M61.3791 100V93.6789L89.9201 76.0997V50.0708L66.7773 63.5692V72.1569L61.3752 75.6207V60.4169L95.547 40.4717V78.8938L61.3791 100Z" fill="black"/>
</svg>
