<svg width="120" height="120" viewBox="0 0 120 120" fill="none" xmlns="http://www.w3.org/2000/svg">
<circle cx="60" cy="60" r="60" fill="#EDF0F4"/>
<circle cx="59.9976" cy="59.9976" r="44.9976" fill="#1666AE"/>
<path fill-rule="evenodd" clip-rule="evenodd" d="M39.9321 26.4942C39.5361 27.081 39.6945 27.8766 40.2812 28.2725C40.868 28.6685 41.6636 28.5101 42.0595 27.9234C42.4555 27.3366 42.2971 26.541 41.7104 26.1451C41.354 25.9075 40.904 25.8607 40.508 26.0227L37.9018 23.4956L33.7512 23.4668C33.4128 23.7116 33.0744 23.9636 32.7432 24.2156L37.6138 24.2516L39.9321 26.4942ZM23.3873 74.4797C23.6609 75.1312 23.3513 75.88 22.6998 76.1536L22.6422 79.7858L20.6695 81.7909C20.5399 81.5569 20.4139 81.3265 20.2915 81.0925L21.9042 79.4546L21.9618 76.2292C21.5406 76.1464 21.1915 75.8584 21.0259 75.466C20.7523 74.8145 21.0619 74.0657 21.7134 73.7921C22.365 73.5185 23.1138 73.8281 23.3873 74.4797ZM43.7767 91.9747C43.5103 92.6299 42.7615 92.9431 42.1063 92.6731L38.6325 96.1433H33.2292C32.8944 95.8949 32.5668 95.643 32.2393 95.3874H38.3445L41.5304 92.2015C41.2928 91.8487 41.246 91.3988 41.408 91.0028C41.6744 90.3476 42.4231 90.0344 43.0783 90.3044C43.7335 90.5708 44.0466 91.3196 43.7767 91.9747ZM40.3352 32.5995C40.49 32.5383 40.6556 32.5059 40.8212 32.5059C41.0768 32.5059 41.3252 32.5815 41.5376 32.7183C42.1243 33.1143 42.2827 33.9098 41.8868 34.4966C41.4908 35.0834 40.6952 35.2418 40.1084 34.8458C39.5217 34.4498 39.3633 33.6543 39.7593 33.0675L37.4374 30.8284L27.3723 30.7852V30.0292L37.729 30.0724L40.3352 32.5995ZM40.1804 81.0853C39.4749 81.0853 38.8989 81.6613 38.9025 82.3669C38.9025 82.6188 38.9781 82.8672 39.1185 83.076L36.7966 85.3187L26.728 85.3619V86.1179L37.0846 86.0747L39.6909 83.5512C40.346 83.8176 41.0948 83.5044 41.3612 82.8528C41.6276 82.1977 41.3144 81.4489 40.6628 81.1825C40.5116 81.1177 40.3496 81.0853 40.1804 81.0853ZM79.7963 44.8785L79.26 45.4148L79.2564 45.4076L79.2528 44.3349L79.7963 44.8785ZM75.4118 40.4975L68.2877 40.4399C68.0142 39.7883 67.2654 39.4787 66.6138 39.7523C65.9623 40.0259 65.6527 40.7747 65.9263 41.4262C66.1999 42.0778 66.9486 42.3874 67.6002 42.1138C67.9926 41.9482 68.2805 41.599 68.3633 41.1815L75.0806 41.239L78.3924 44.5509V43.4817L75.4118 40.4975ZM59.1298 43.2657C58.975 43.3305 58.8094 43.3629 58.6403 43.3629C58.3847 43.3629 58.1327 43.2873 57.9239 43.1433C57.3335 42.7474 57.1751 41.9482 57.5711 41.3578C57.9671 40.7675 58.7663 40.6091 59.3566 41.0051C59.947 41.401 60.1054 42.2002 59.7094 42.7906L61.6713 44.7309H69.9401V45.4904H61.3797L59.1298 43.2657Z" fill="#7290C9"/>
<path fill-rule="evenodd" clip-rule="evenodd" d="M75.3651 32.5923L75.3075 24.6547C74.9151 24.4891 74.6271 24.14 74.5479 23.7224C74.4111 23.0312 74.8611 22.3581 75.5559 22.2213C76.247 22.0845 76.9202 22.5344 77.057 23.2292C77.1938 23.9204 76.7438 24.5935 76.049 24.7303L76.1066 32.2647L79.2385 35.3966L79.2529 44.3385V45.4076L79.2637 53.068H78.3925V35.6629L75.3651 32.5923ZM87.8672 39.6227C88.454 40.0187 88.6124 40.8143 88.2164 41.401L91.8198 44.3457L102.155 44.3853C102.232 44.591 102.307 44.8016 102.382 45.011C102.397 45.0545 102.413 45.0979 102.428 45.1412L91.5282 45.098L87.6404 41.8726C87.2444 42.0346 86.7945 41.9878 86.4381 41.7502C85.8513 41.3542 85.6929 40.5587 86.0889 39.9719C86.4849 39.3852 87.2804 39.2268 87.8672 39.6227Z" fill="#7290C9"/>
<path fill-rule="evenodd" clip-rule="evenodd" d="M69.0657 25.9866L66.6358 23.2652L55.5736 23.2688L53.9645 21.4257C53.5685 21.5876 53.1185 21.5408 52.7622 21.3033C52.1754 20.9073 52.017 20.1117 52.413 19.525C52.809 18.9382 53.6045 18.7798 54.1913 19.1758C54.7781 19.5718 54.9365 20.3673 54.5405 20.9541L55.8652 22.5092H66.9274L69.6417 25.515C70.0376 25.353 70.4876 25.3998 70.844 25.6374C71.4308 26.0334 71.5892 26.829 71.1932 27.4157C70.7972 28.0025 70.0016 28.1609 69.4149 27.7649C68.8281 27.3689 68.6697 26.5734 69.0657 25.9866ZM88.5947 34.8061C88.987 34.2194 88.8322 33.4238 88.2455 33.0314C87.6587 32.6391 86.8631 32.7938 86.4708 33.3806C86.0784 33.9674 86.2332 34.7629 86.8199 35.1553C87.1727 35.3929 87.6227 35.4397 88.0187 35.2777L91.5465 38.4599L99.4949 38.5139C99.3581 38.2584 99.2141 38.0064 99.0701 37.7544L91.8381 37.7004L88.5947 34.8061ZM101.806 47.3479L90.0166 47.3047L85.8912 43.8993C86.2872 43.3125 86.1288 42.5169 85.542 42.1209C84.9552 41.725 84.1597 41.8834 83.7637 42.4701C83.3677 43.0569 83.5261 43.8525 84.1129 44.2484C84.4693 44.486 84.9193 44.5328 85.3152 44.3708L89.7286 48.0606L101.781 48.1038C101.716 47.8554 101.723 47.5927 101.806 47.3479ZM21.955 42.0382C21.8182 41.3434 22.2718 40.6738 22.9666 40.537L22.7218 36.1957L22.189 35.6629C22.3294 35.4469 22.4698 35.2309 22.6138 35.0149L23.4561 35.8681L23.7045 40.6126C24.1005 40.7782 24.3849 41.1274 24.4677 41.5486C24.6045 42.2433 24.1509 42.9129 23.4561 43.0497C22.7614 43.1865 22.0918 42.7329 21.955 42.0382ZM68.8461 88.8717C68.1369 88.8717 67.5646 89.444 67.5646 90.1532C67.5646 90.4088 67.6402 90.6572 67.7806 90.8659L66.4558 92.4211H55.3972L52.683 95.4269C52.0278 95.1569 51.279 95.4701 51.0127 96.1253C50.7427 96.7804 51.0559 97.5292 51.711 97.7956C52.3662 98.062 53.1149 97.7524 53.3813 97.0972C53.5433 96.7012 53.4965 96.2513 53.2589 95.8985L55.6888 93.177H66.7474L68.3565 91.3339C69.0117 91.6039 69.7605 91.2907 70.0268 90.6356C70.2968 89.9804 69.9836 89.2316 69.3285 88.9652C69.1809 88.9041 69.0117 88.8717 68.8461 88.8717ZM97.0974 65.8545C96.597 66.3549 96.597 67.1648 97.0974 67.6652C97.2774 67.8452 97.5042 67.9676 97.7562 68.0144L97.803 72.6689L94.0556 75.8332L93.9116 80.1133C93.26 80.3869 92.9504 81.1357 93.224 81.7872C93.4976 82.4388 94.2464 82.7484 94.8979 82.4748C95.5495 82.2012 95.8591 81.4524 95.5855 80.8009C95.4199 80.4085 95.0707 80.1205 94.6531 80.0377L94.7971 76.1643L98.5445 73.0001L98.4977 67.9388C99.1493 67.6652 99.4589 66.9164 99.1853 66.2649C98.9117 65.6133 98.1629 65.3037 97.5114 65.5773C97.3566 65.6421 97.2162 65.7357 97.0974 65.8545ZM41.6208 89.5268C41.3544 90.182 40.6092 90.4952 39.954 90.2288L36.4766 93.7026H30.2202C29.9394 93.4542 29.6622 93.2022 29.3886 92.9466H36.1887L39.3745 89.7608C39.1369 89.408 39.0901 88.958 39.2521 88.5621C39.5185 87.9069 40.2636 87.5937 40.9188 87.8601C41.574 88.1265 41.8871 88.8717 41.6208 89.5268Z" fill="#7290C9"/>
<path fill-rule="evenodd" clip-rule="evenodd" d="M49.2377 23.7582L49.2341 23.7546L49.2413 23.7474L49.2305 16.2994C49.5184 16.2274 49.81 16.159 50.1016 16.0942V23.553L53.5826 27.0305H59.9507C60.0335 26.6093 60.3215 26.2601 60.7138 26.0945C61.3654 25.8209 62.1142 26.1305 62.3878 26.7821C62.6613 27.4336 62.3518 28.1824 61.7002 28.456C61.0486 28.7296 60.2999 28.42 60.0263 27.7684H53.2514L50.1016 24.6186V32.6462L52.7655 35.2776L52.7151 43.5644C53.1111 43.7264 53.3954 44.0791 53.4782 44.4967C53.615 45.1915 53.1651 45.8647 52.4703 46.0014C51.7755 46.1382 51.1024 45.6883 50.9656 44.9935C50.8288 44.2987 51.2788 43.6256 51.9735 43.4888L52.0239 35.6088L49.2485 32.9521L49.2377 23.7582ZM60.5771 90.1963C59.8859 90.3331 59.2127 89.8831 59.0759 89.1883L52.7079 89.1847L49.2269 92.6658V100.452H48.3557L48.3665 92.4678L48.3629 92.4642L48.3665 92.4606L48.3773 83.2667L51.1528 80.6064L51.1024 72.7264C50.6812 72.6472 50.332 72.3592 50.1664 71.9633C49.8964 71.3081 50.2024 70.5593 50.8576 70.2857C51.5127 70.0158 52.2615 70.3217 52.5351 70.9769C52.8051 71.6321 52.4991 72.3808 51.8439 72.6544L51.8943 80.9412L49.2305 83.5726V91.6002L52.3803 88.4504H59.1515C59.3135 88.0544 59.6663 87.77 60.0839 87.6872C60.775 87.5504 61.4482 88.0004 61.585 88.6952C61.7218 89.3863 61.2718 90.0595 60.5771 90.1963ZM78.3853 89.7355C78.0937 89.0911 77.3342 88.8068 76.6898 89.1019C76.0454 89.3935 75.761 90.1531 76.0562 90.7975C76.3478 91.4418 77.1074 91.7262 77.7517 91.431C78.1405 91.2546 78.4141 90.8946 78.4861 90.4735L85.7289 90.4771L89.3215 94.0985C89.5123 93.9329 89.7031 93.7673 89.8903 93.6017L86.0349 89.7283L78.3853 89.7355ZM83.7958 94.4549C84.2818 93.9401 85.0918 93.9149 85.6065 94.3973C85.7289 94.5125 85.8261 94.6456 85.8981 94.7968L88.4936 94.7932C88.184 95.0452 87.8744 95.2936 87.5612 95.5384H85.9953C85.9521 95.7904 85.8369 96.0244 85.6641 96.208C85.1781 96.7227 84.3682 96.7479 83.8534 96.2656C83.3386 95.7796 83.3134 94.9696 83.7958 94.4549ZM65.7572 85.4157C66.2396 84.901 66.2144 84.091 65.6996 83.605C65.5124 83.4323 65.282 83.3171 65.03 83.2739L65.0336 75.6819L64.2813 75.6675L64.2921 83.371C63.6477 83.6662 63.3633 84.4258 63.6585 85.0666C63.9537 85.7109 64.7132 85.9953 65.354 85.7001C65.5052 85.6353 65.642 85.5345 65.7572 85.4157ZM26.3249 80.1348C26.8397 80.6208 26.8649 81.4308 26.3825 81.9455C26.2673 82.0679 26.1305 82.1651 25.9793 82.2335L25.8353 89.2315C25.5869 88.9436 25.3421 88.652 25.1045 88.3568L25.2413 82.3343C24.9894 82.2911 24.7554 82.1759 24.5718 82.0031C24.057 81.5172 24.0318 80.7072 24.5142 80.1924C25.0002 79.6776 25.8101 79.6525 26.3249 80.1348ZM93.4073 32.0522C92.8925 31.5662 92.0826 31.595 91.5966 32.1098C91.1106 32.6246 91.1394 33.4345 91.6542 33.9205C92.169 34.4065 92.9789 34.3777 93.4649 33.8629C93.6377 33.6757 93.7529 33.4453 93.7961 33.1933H96.1C95.9128 32.9449 95.7256 32.6966 95.5348 32.4482L93.6953 32.4518C93.6269 32.3006 93.5297 32.1674 93.4073 32.0522ZM86.2437 27.5092C86.7261 26.9945 87.536 26.9693 88.0508 27.4516C88.1732 27.5668 88.2704 27.7036 88.3352 27.8548L91.4382 27.8476C91.6902 28.096 91.9386 28.3444 92.1834 28.5964L88.436 28.5928C88.3964 28.8412 88.2812 29.0751 88.1084 29.2587C87.626 29.7735 86.8161 29.7987 86.3013 29.3163C85.7865 28.834 85.7613 28.024 86.2437 27.5092ZM42.1676 24.9714C42.1892 25.6769 42.7796 26.2349 43.4888 26.2133C44.1943 26.1917 44.7523 25.6013 44.7307 24.8922C44.7091 24.1866 44.1187 23.6286 43.4096 23.6502C43.154 23.6574 42.9092 23.7402 42.7004 23.8914L39.0106 20.198C38.7802 20.3204 38.5534 20.4428 38.323 20.5724L42.2468 24.4854C42.1892 24.6402 42.1604 24.8058 42.1676 24.9714ZM25.5545 36.138C25.0398 35.652 25.011 34.842 25.4969 34.3273C25.6121 34.2049 25.7489 34.1077 25.9001 34.0357L25.8929 30.6915C26.1413 30.4071 26.3897 30.1227 26.6417 29.8419L26.6381 33.9385C26.8901 33.9817 27.1204 34.0969 27.3076 34.2697C27.8224 34.7556 27.8512 35.5656 27.3652 36.0804C26.8793 36.5951 26.0693 36.6239 25.5545 36.138ZM84.7534 79.4221L77.1074 79.4329C76.8158 78.7885 76.0562 78.5041 75.4119 78.7993C74.7675 79.0909 74.4831 79.8504 74.7783 80.4948C75.0699 81.1392 75.8294 81.4236 76.4738 81.1284C76.8626 80.952 77.1362 80.592 77.2082 80.1708H84.451L88.1588 83.9074L80.3724 83.911C80.0808 83.2667 79.3213 82.9823 78.6769 83.2775C78.0325 83.569 77.7481 84.3286 78.0433 84.973C78.3385 85.6173 79.0945 85.9017 79.7388 85.6065C80.1276 85.4301 80.4012 85.0702 80.4732 84.649L97.6047 84.6526C97.7667 84.4042 97.9287 84.1522 98.0871 83.9038L89.2279 83.9074L84.7534 79.4221ZM39.0034 45.2707C38.4886 45.7567 37.6751 45.7279 37.1927 45.2131C37.0163 45.0295 36.9011 44.7955 36.8651 44.5435L17.7789 44.5471C17.8689 44.2987 17.9625 44.0467 18.0597 43.7984H28.1104L32.5742 39.313L40.2201 39.3238C40.4001 38.935 40.7565 38.6614 41.1777 38.593C41.8761 38.4778 42.5348 38.9494 42.65 39.6478C42.7652 40.3461 42.2936 41.0049 41.5953 41.1201C40.8969 41.2353 40.2381 40.7637 40.1229 40.0654L32.8801 40.069L29.1723 43.8056L36.9587 43.8092C37.0307 43.6544 37.1279 43.5176 37.2503 43.4024C37.7651 42.9164 38.5786 42.9452 39.061 43.46C39.547 43.9748 39.5182 44.7883 39.0034 45.2707ZM30.4791 82.0607C30.6519 81.8771 30.767 81.6431 30.8102 81.3912L33.9781 81.3948C34.1905 82.0679 34.9068 82.4459 35.5836 82.2335C36.2568 82.0211 36.6347 81.3048 36.4223 80.628C36.21 79.9548 35.4936 79.5769 34.8168 79.7892C34.4101 79.9152 34.0969 80.2356 33.9745 80.6424L30.713 80.6532C30.4215 80.0088 29.6619 79.7244 29.0175 80.0196C28.3732 80.3112 28.0888 81.0708 28.384 81.7151C28.6756 82.3595 29.4351 82.6439 30.0795 82.3487C30.2271 82.2803 30.3639 82.1831 30.4791 82.0607ZM34.9608 34.8924C35.1228 34.3489 35.6232 33.9781 36.1884 33.9781C36.7499 33.9781 37.2431 34.3381 37.4123 34.878C37.6247 35.5512 37.2467 36.2712 36.5735 36.4836C35.9004 36.6959 35.1804 36.318 34.968 35.6448L31.8002 35.6412C31.7282 36.0624 31.4546 36.4224 31.0658 36.5987C30.4215 36.8939 29.6619 36.6095 29.3703 35.9652C29.0751 35.3208 29.3595 34.5649 30.0039 34.2697C30.6483 33.9745 31.4078 34.2589 31.6994 34.9032L34.9608 34.8924ZM76.6394 66.074C75.9842 65.804 75.2355 66.1172 74.9691 66.7723C74.6991 67.4275 75.0123 68.1763 75.6674 68.4426C76.3226 68.7126 77.0714 68.3994 77.3378 67.7443C77.4998 67.3483 77.453 66.8983 77.2154 66.5455L80.6424 63.2013L101.77 63.1581V62.4022L80.3508 62.4454L76.6394 66.074ZM75.1311 67.2727C75.1311 67.8199 75.5739 68.2627 76.121 68.2627C76.6682 68.2627 77.111 67.8199 77.111 67.2727C77.111 66.7255 76.6682 66.2828 76.121 66.2828C75.5739 66.2828 75.1311 66.7255 75.1311 67.2727ZM31.9154 77.2046L39.6694 77.2622C39.943 77.9137 40.6917 78.2233 41.3433 77.9497C41.9948 77.6762 42.3044 76.9274 42.0308 76.2758C41.7573 75.6243 41.0085 75.3147 40.3569 75.5883C39.9646 75.7539 39.6766 76.103 39.5938 76.5206L32.4734 76.463L28.276 71.6825H16.5874C16.6666 71.9813 16.7494 72.2764 16.8358 72.5716H27.9808L31.9154 77.2046ZM41.5845 76.0778C41.1957 75.6927 40.5693 75.6927 40.1841 76.0778C39.7954 76.4666 39.799 77.0894 40.1841 77.4782C40.5729 77.8633 41.1993 77.8633 41.5845 77.4782C41.9696 77.0894 41.9696 76.463 41.5845 76.0778Z" fill="#7290C9"/>
<path fill-rule="evenodd" clip-rule="evenodd" d="M101.806 47.3478C101.572 48.0497 101.95 48.8093 102.652 49.0433C102.958 49.1441 103.293 49.1333 103.588 49.0109C103.372 48.1469 103.131 47.2938 102.864 46.4514C102.375 46.527 101.964 46.8726 101.806 47.3478ZM40.6235 48.7913C39.8027 48.4565 38.8667 48.8453 38.532 49.666C38.1972 50.4868 38.586 51.4228 39.4067 51.7575C40.2275 52.0923 41.1634 51.7035 41.4982 50.8828C41.6998 50.386 41.6458 49.8244 41.347 49.3781L42.7689 48.3053L42.3298 47.4342L40.6235 48.7913ZM48.4566 65.2064L50.4293 63.3741L60.4368 63.3921L63.9538 60.0011L63.6622 59.3027L60.1092 62.6793H50.0802L47.8807 64.7384C47.2255 64.4685 46.4767 64.7816 46.2068 65.4368C45.9368 66.092 46.25 66.8407 46.9051 67.1107C47.5603 67.3807 48.309 67.0675 48.579 66.4124C48.741 66.0128 48.6978 65.5592 48.4566 65.2064ZM78.0795 60.7535L74.6524 64.0977C74.8936 64.4541 74.9368 64.904 74.7712 65.3C74.5048 65.9552 73.7561 66.2684 73.1009 65.9984C72.4458 65.732 72.1326 64.9832 72.4026 64.3281C72.6689 63.6729 73.4177 63.3597 74.0729 63.6297L77.7879 59.9975L88.1445 59.9543V60.7103L78.0795 60.7535ZM72.6293 64.8284C72.6293 65.3756 73.0721 65.8184 73.6193 65.8184C74.1665 65.8184 74.6092 65.3756 74.6092 64.8284C74.6092 64.2813 74.1665 63.8385 73.6193 63.8385C73.0721 63.8385 72.6293 64.2813 72.6293 64.8284ZM46.4335 65.9336C46.4335 66.4807 46.8763 66.9235 47.4235 66.9235C47.9707 66.9235 48.4134 66.4807 48.4134 65.93C48.4098 65.3864 47.9707 64.9436 47.4235 64.9436C46.8763 64.9436 46.4335 65.3864 46.4335 65.9336ZM38.9639 50.2924C38.9639 50.8936 39.4499 51.3796 40.0511 51.3796C40.6523 51.3796 41.1382 50.8936 41.1382 50.2924C41.1382 49.6912 40.6523 49.2053 40.0511 49.2053C39.4499 49.2053 38.9639 49.6912 38.9639 50.2924ZM22.3328 66.5743H25.2451V65.7032H22.8584L18.6106 61.4518H20.5329V60.4043H15.0576C15.0612 60.7751 15.0684 61.1422 15.0792 61.5094H17.4407L22.3328 66.5743ZM24.3127 55.9261L24.1975 56.7973L18.6646 51.268H15.9C15.9468 51.034 15.9936 50.8036 16.044 50.5696H18.9598L24.3127 55.9261ZM63.5506 66.7507H57.2042V67.5643H63.5506V66.7507Z" fill="#7290C9"/>
<path fill-rule="evenodd" clip-rule="evenodd" d="M68.3023 49.6373V42.9417H93.9941V77.0534H62.7334V49.6373H68.3023ZM69.987 69.1375H86.7369V50.8576H69.987V69.1375Z" fill="#FFFFFA"/>
<path d="M48.2406 70.4153V77.0498H39.5651C39.5651 77.0498 30.8031 77.165 25.677 69.2778C22.9555 65.084 22.1276 59.9363 23.3983 55.0981C24.6474 50.3464 28.1213 44.7163 37.3512 42.938H57.6685V49.288H39.7414C39.7414 49.288 30.2883 52.5351 30.4107 60.3755C30.4647 63.8241 32.405 66.9487 35.3929 68.673C36.7392 69.447 38.2115 69.9761 39.7414 70.2425L48.2406 70.4153Z" fill="white"/>
<path d="M39.7417 56.7974V63.025H51.0343V77.0535H57.6723V56.7974H39.7417Z" fill="white"/>
</svg>
