<svg width="120" height="120" viewBox="0 0 120 120" fill="none" xmlns="http://www.w3.org/2000/svg">
<circle cx="60" cy="60" r="60" fill="#EDF0F4"/>
<circle opacity="0.98" cx="60" cy="60" r="45" fill="black"/>
<path fill-rule="evenodd" clip-rule="evenodd" d="M57.5407 23.5576C54.1668 23.7788 50.536 24.5563 47.3617 25.7332C41.0204 28.0872 35.3995 32.1887 31.2408 37.5101C22.9379 48.1171 21.1546 62.3905 26.5829 74.7308C28.9654 80.1591 32.803 85.081 37.5109 88.7617C48.1179 97.0647 62.3913 98.848 74.7316 93.4196C80.1457 91.0443 85.039 87.2352 88.7268 82.5416C97.0512 71.9346 98.8559 57.6327 93.4204 45.2709C91.038 39.8426 87.2003 34.9207 82.4925 31.24C75.4021 25.6904 66.557 22.9656 57.5407 23.5576ZM54.0098 44.2652L54.0455 55.0933L54.4022 54.5369C56.0998 51.8548 58.6535 49.9931 61.678 49.2298C62.8835 48.9231 63.825 48.8018 65.2802 48.7519C69.7242 48.6164 73.2265 49.9217 76.1154 52.8035C78.3553 55.0433 79.6392 57.8752 80.1671 61.7414C80.2741 62.5117 80.2883 63.9312 80.3097 74.5667L80.3382 86.5362H76.5149H72.6986V75.8151C72.6986 69.0172 72.6701 64.7872 72.6202 64.2451C72.4347 62.0552 71.7785 60.1221 70.7727 58.7811C70.3233 58.1748 69.3603 57.2617 68.7754 56.8766C67.7554 56.206 66.6925 55.8066 65.3158 55.5641C64.574 55.4428 64.2673 55.4214 63.0332 55.4571C61.9704 55.4856 61.4425 55.5284 60.9646 55.6425C59.1385 56.0491 57.7975 56.7838 56.5991 58.025C55.629 59.0308 55.0584 59.9937 54.6233 61.3562C54.1667 62.7685 54.0098 63.8956 54.0098 65.793V67.0627H56.9344H59.859V70.3083V73.5538H49.8726H39.8862V70.3083V67.0627H43.0961H46.306V50.2285V33.3942L50.1437 33.4085L53.9742 33.4299L54.0098 44.2652ZM59.859 86.5362V83.2906V80.045H49.8726H39.8862V83.2906V86.5362H49.8726H59.859Z" fill="white"/>
</svg>
