<svg width="120" height="120" viewBox="0 0 120 120" fill="none" xmlns="http://www.w3.org/2000/svg">
<circle cx="60" cy="60" r="60" fill="#1591CA"/>
<path fill-rule="evenodd" clip-rule="evenodd" d="M61.6822 57.7647C61.6822 57.7647 66.6631 46.6831 56.8965 35.9772C56.8965 35.9772 51.3413 28.8399 39.8555 29.4034L42.1489 28.5018C42.5318 28.3516 42.9334 28.2464 43.3388 28.1938L45.5984 27.9008L61.4908 25.4591C61.4908 25.4591 67.1098 24.3547 71.3701 25.5718C72.5824 25.9211 73.686 26.5785 74.5605 27.4725C76.9103 29.8541 81.6284 36.1537 78.5393 46.1196C78.5393 46.1196 75.4727 57.2012 63.9831 59.8307C63.9831 59.8307 61.1079 60.582 61.6822 57.7647ZM60.9728 63.9403C60.9728 63.9403 68.1533 73.7935 82.5255 71.0175C82.5255 71.0175 91.6165 69.9694 96.9803 59.9848L96.5975 62.3851C96.5336 62.7833 96.421 63.174 96.2596 63.5459L95.3663 65.6007L89.4057 80.2509C89.4057 80.2509 87.5102 85.5513 84.2709 88.5264C83.3409 89.3741 82.2086 89.9678 80.9828 90.2506C77.6985 91.0132 69.7673 91.7832 62.5981 84.0975C62.5981 84.0975 54.4417 75.8633 57.9925 64.8268C57.9925 64.8193 58.7958 62.0208 60.9728 63.9403ZM38.9021 75.3149C43.5002 61.6752 55.7742 60.3829 55.7742 60.3829H55.7779C58.5555 59.4701 56.4611 57.4041 56.4536 57.4041C48.4023 48.9407 37.0779 51.8595 37.0779 51.8595C26.7295 54.196 23.5127 61.3446 22.5781 64.5263C22.2252 65.7209 22.1952 66.9906 22.4955 68.2001C23.5352 72.4187 27.315 76.6522 27.315 76.6522L37.3895 88.9471L38.7783 90.7202C39.029 91.0419 39.319 91.3309 39.6416 91.5804L41.5821 93.083C35.3588 83.5941 38.9021 75.3149 38.9021 75.3149Z" fill="white"/>
<path opacity="0.5" fill-rule="evenodd" clip-rule="evenodd" d="M63.6866 61.0966C63.6866 61.0966 75.9231 59.5038 80.1645 45.7514C80.1645 45.7514 83.4939 37.3857 77.0228 28.0547L79.0047 29.5084C79.3312 29.7526 79.6315 30.0343 79.8905 30.3461L81.3206 32.0816L91.7179 44.1248C91.7179 44.1248 95.599 48.257 96.7551 52.4567C97.0816 53.6588 97.0816 54.9209 96.7551 56.123C95.903 59.3273 92.8739 66.5585 82.5855 69.1504C82.5855 69.1504 71.34 72.3434 63.0748 64.0942C63.0751 64.0942 63.0714 64.0905 63.0643 64.0833C62.9067 63.923 61.0536 62.0384 63.6866 61.0966ZM57.5383 63.3655C57.5383 63.3655 52.2796 74.3193 61.7685 85.2619C61.7685 85.2619 67.1323 92.5307 78.6406 92.2489L76.3209 93.0941C75.9344 93.2338 75.5323 93.3259 75.1236 93.3683L72.8602 93.6088L56.9077 95.6598C56.9077 95.6598 51.2662 96.6252 47.036 95.3029C45.8363 94.9239 44.7543 94.2421 43.8943 93.3233C41.6046 90.8816 37.0516 84.473 40.396 74.5898C40.396 74.5898 43.7366 63.5833 55.2937 61.2393C55.2937 61.24 55.3044 61.2381 55.3245 61.2345C55.6335 61.1798 58.1552 60.7336 57.5383 63.3655ZM36.2934 50.8301C50.6206 47.84 57.9475 57.5918 57.9475 57.5918C60.0897 59.4289 60.8729 56.8165 60.9147 56.6772C60.9159 56.6732 60.9165 56.6712 60.9165 56.6714C64.3059 45.5861 56.0294 37.4684 56.0294 37.4684C48.7551 29.8841 40.8352 30.7593 37.5621 31.5745C36.3378 31.8702 35.2104 32.477 34.289 33.3363C31.0948 36.3565 29.2743 41.6831 29.2743 41.6831L23.5314 56.4235L22.6681 58.4896C22.5128 58.8629 22.4043 59.254 22.3453 59.6541L22 62.062C27.2174 52.0022 36.2934 50.8301 36.2934 50.8301Z" fill="white"/>
</svg>
