<svg width="120" height="120" viewBox="0 0 120 120" fill="none" xmlns="http://www.w3.org/2000/svg">
<circle cx="60" cy="60" r="60" fill="#EDF0F4"/>
<path fill-rule="evenodd" clip-rule="evenodd" d="M65.3053 56.5958C65.3553 56.676 65.4422 56.7258 65.5367 56.7285H73.6011C73.6966 56.7287 73.7848 56.6776 73.832 56.5947C73.8793 56.5118 73.8784 56.4098 73.8297 56.3278L60.4181 33.1332C60.368 33.0531 60.2811 33.0033 60.1867 33.0006H52.1222C52.0268 33.0004 51.9386 33.0515 51.8913 33.1344C51.844 33.2173 51.8449 33.3192 51.8936 33.4013L65.3053 56.5958ZM73.5984 63.4064C73.5523 63.3266 73.4701 63.2743 73.3782 63.2664H65.3137C65.2194 63.2668 65.1324 63.3173 65.0852 63.399L51.8936 86.2126C51.8449 86.2947 51.844 86.3966 51.8913 86.4795C51.9386 86.5624 52.0268 86.6135 52.1222 86.6133H60.1867C60.2811 86.6107 60.368 86.5609 60.4181 86.4807L73.6096 63.6671C73.6487 63.5836 73.6445 63.4863 73.5984 63.4064Z" fill="#E31337"/>
<path fill-rule="evenodd" clip-rule="evenodd" d="M67.1326 33.1267C67.081 33.2108 67.0804 33.3166 67.1311 33.4013L82.4276 59.807L67.1452 86.2126C67.0962 86.2951 67.0955 86.3976 67.1435 86.4807C67.1915 86.5638 67.2806 86.6145 67.3765 86.6133H75.4523C75.5468 86.6135 75.6341 86.5628 75.6809 86.4807L91.0564 59.9396C91.1044 59.8577 91.1044 59.7562 91.0564 59.6743L75.6809 33.1332C75.6341 33.0511 75.5468 33.0004 75.4523 33.0006H67.3765C67.2781 32.994 67.1841 33.0425 67.1326 33.1267ZM60.5677 59.9537C60.6181 59.8664 60.6181 59.7588 60.5677 59.6715L44.9495 33.1332C44.8969 33.0564 44.8098 33.0105 44.7167 33.0105C44.6236 33.0105 44.5365 33.0564 44.4839 33.1332L29.0378 59.6602C28.9874 59.7475 28.9874 59.8551 29.0378 59.9424L44.656 86.4807C44.7086 86.5575 44.7957 86.6034 44.8888 86.6034C44.9819 86.6034 45.069 86.5575 45.1216 86.4807L60.5677 59.9537Z" fill="#E31337"/>
</svg>
