<svg width="120" height="120" viewBox="0 0 120 120" fill="none" xmlns="http://www.w3.org/2000/svg">
<circle cx="60" cy="60" r="60" fill="#EDF0F4"/>
<path d="M79.9064 59.9418C75.9089 59.0969 62.3911 56.7736 48.0284 64.1114C35.8952 70.3149 29.9185 79.9526 27.8064 83.7936C15.8374 67.3735 17.887 44.5856 32.2028 30.9191C45.8458 17.8863 67.3273 16.2826 83.1529 27.391C79.7656 29.597 76.3705 31.7953 72.9832 34.0013C70.8319 32.9061 67.3273 31.4432 62.8135 30.9895C53.8329 30.0821 47.0896 33.7666 44.9383 35.0574C43.1078 36.1604 34.3071 41.7302 31.5613 53.089C29.7073 60.7632 31.577 67.0997 32.5 69.6969C33.5796 68.367 34.9329 66.8885 36.607 65.41C37.8039 64.3539 38.9774 63.4621 40.0569 62.7189C39.7909 60.6302 39.4858 55.8348 42.0439 50.8438C45.2513 44.5934 52.0649 39.7589 60.1068 39.8293C68.9388 39.9075 75.8151 45.8842 78.4905 52.3458C79.7499 55.3733 79.9377 58.1582 79.9064 59.9418Z" fill="#041742"/>
<path fill-rule="evenodd" clip-rule="evenodd" d="M79.593 94.8942C71.7545 99.3298 64.1116 100.073 59.2928 99.9947C47.7776 99.8148 39.6262 94.7221 36.5283 92.5474C38.2493 91.4248 39.9703 90.3042 41.6913 89.1836C43.4124 88.063 45.1334 86.9423 46.8545 85.8197C58.0411 91.5069 71.7076 89.3322 80.5709 80.4611C89.4263 71.5978 91.5932 57.9626 85.9295 46.7838C87.0286 45.098 88.1257 43.4102 89.2229 41.7225C90.32 40.0347 91.4172 38.3469 92.5163 36.6611C94.5581 39.5399 100.144 48.1997 99.9637 60.5129C99.7603 74.3671 92.3833 83.5824 90.2321 86.0935C88.159 88.5264 84.7091 91.9998 79.593 94.8942ZM57.1102 64.1896C51.1335 65.9263 46.5572 68.7816 43.4124 71.238C44.4137 72.74 46.7606 75.8065 50.9614 77.9265C54.7008 79.8118 58.1272 80.0387 59.9108 80.0387C61.6005 80.0465 67.1703 79.8509 72.3569 75.7752C78.0832 71.2771 79.3896 65.1518 79.6712 63.6107C77.1366 63.0788 73.6555 62.5468 69.5016 62.5546C67.0687 62.5625 62.5705 62.6016 57.1102 64.1896Z" fill="url(#paint0_linear_1_1252)"/>
<defs>
<linearGradient id="paint0_linear_1_1252" x1="74.8655" y1="125.907" x2="127.344" y2="70.206" gradientUnits="userSpaceOnUse">
<stop stop-color="#0E9DE5"/>
<stop offset="0.1857" stop-color="#10A3DC"/>
<stop offset="0.4884" stop-color="#17B4C4"/>
<stop offset="0.8684" stop-color="#22D09C"/>
<stop offset="1" stop-color="#26DB8D"/>
</linearGradient>
</defs>
</svg>
