<svg width="120" height="120" viewBox="0 0 120 120" fill="none" xmlns="http://www.w3.org/2000/svg">
<path d="M60 120C93.138 120 120 93.138 120 60C120 26.862 93.138 0 60 0C26.862 0 0 26.862 0 60C0 93.138 26.862 120 60 120Z" fill="#EDF0F4"/>
<mask id="mask0_1_6195" style="mask-type:luminance" maskUnits="userSpaceOnUse" x="37" y="33" width="14" height="13">
<path fill-rule="evenodd" clip-rule="evenodd" d="M37.8374 33H50.5778V45.7422H37.8374V33Z" fill="white"/>
</mask>
<g mask="url(#mask0_1_6195)">
<path d="M50.5778 39.3707C50.5778 35.853 47.7258 32.9991 44.2063 32.9991C40.6894 32.9991 37.8374 35.853 37.8374 39.3707C37.8374 42.8902 40.6894 45.7423 44.2063 45.7423C47.7258 45.7423 50.5778 42.8902 50.5778 39.3707Z" fill="#FF9E1F"/>
</g>
<mask id="mask1_1_6195" style="mask-type:luminance" maskUnits="userSpaceOnUse" x="69" y="33" width="14" height="13">
<path fill-rule="evenodd" clip-rule="evenodd" d="M69.645 33H82.3854V45.7413H69.645V33Z" fill="white"/>
</mask>
<g mask="url(#mask1_1_6195)">
<path d="M69.645 39.3698C69.645 35.853 72.4962 32.9991 76.0175 32.9991C79.5343 32.9991 82.3854 35.853 82.3854 39.3698C82.3854 42.8884 79.5343 45.7414 76.0175 45.7414C72.4962 45.7414 69.645 42.8884 69.645 39.3698Z" fill="#24C0FB"/>
</g>
<mask id="mask2_1_6195" style="mask-type:luminance" maskUnits="userSpaceOnUse" x="37" y="51" width="15" height="37">
<path fill-rule="evenodd" clip-rule="evenodd" d="M37 51.3063V87.8804H51.436V52.2949V51.3063H37Z" fill="white"/>
</mask>
<g mask="url(#mask2_1_6195)">
<path d="M37 51.3063V87.8804H51.436V52.2949V51.3063H37Z" fill="url(#paint0_linear_1_6195)"/>
</g>
<mask id="mask3_1_6195" style="mask-type:luminance" maskUnits="userSpaceOnUse" x="68" y="51" width="16" height="37">
<path fill-rule="evenodd" clip-rule="evenodd" d="M68.7969 51.3063V87.8804H83.2338V52.2949V51.3063H68.7969Z" fill="white"/>
</mask>
<g mask="url(#mask3_1_6195)">
<path d="M68.7969 51.3063V87.8804H83.2338V52.2949V51.3063H68.7969Z" fill="url(#paint1_linear_1_6195)"/>
</g>
<path d="M68.7968 51.3158C67.7686 54.9744 64.0921 57.6586 60.1043 57.6586C56.1156 57.6586 52.466 54.9744 51.436 51.3158V70.5058C54.1158 71.5833 57.0396 72.1808 60.1043 72.1808C72.1333 72.1808 82.0243 63.0344 83.2077 51.3158H68.7968Z" fill="#24C0FB"/>
<path d="M37.0005 51.3158C37.8797 60.0478 43.6008 67.3505 51.4365 70.5058V51.3158H37.0005Z" fill="#FF9E1F"/>
<defs>
<linearGradient id="paint0_linear_1_6195" x1="54.1875" y1="85.934" x2="54.1875" y2="35.4195" gradientUnits="userSpaceOnUse">
<stop stop-color="#FB5059"/>
<stop offset="1" stop-color="#FF9E1F"/>
</linearGradient>
<linearGradient id="paint1_linear_1_6195" x1="85.6133" y1="85.8851" x2="85.6133" y2="37.2535" gradientUnits="userSpaceOnUse">
<stop stop-color="#9350D4"/>
<stop offset="1" stop-color="#23BFFB"/>
</linearGradient>
</defs>
</svg>
