<svg width="120" height="120" viewBox="0 0 120 120" fill="none" xmlns="http://www.w3.org/2000/svg">
<circle cx="60" cy="60" r="60" fill="#EDF0F4"/>
<path fill-rule="evenodd" clip-rule="evenodd" d="M68.0281 44.6133C68.0281 33.1461 62.5004 23.2667 58.2664 20.0324C58.2664 20.0324 57.9723 19.856 57.9723 20.3264C57.6195 42.4962 46.3876 48.5533 40.1542 56.6097C25.8643 75.3099 39.1545 95.7744 52.6798 99.5379C60.2658 101.655 50.9156 95.7744 49.7395 83.4251C48.3282 68.4296 68.0281 57.0213 68.0281 44.6133Z" fill="#282E5B"/>
<path fill-rule="evenodd" clip-rule="evenodd" d="M75.4379 52.1993C75.379 52.1404 75.2614 52.1404 75.1438 52.1993L75.085 52.2581C74.8498 55.0219 71.7919 61.0201 67.9695 66.4891C54.9734 85.0717 62.3829 94.0102 66.5582 98.8323C68.9692 101.655 66.5582 98.8323 72.6152 95.9508C73.0856 95.7156 84.3763 89.7174 85.6113 76.1332C86.8462 62.9019 78.437 54.6103 75.4379 52.1993Z" fill="#059BDC"/>
</svg>
