<svg width="120" height="120" viewBox="0 0 120 120" fill="none" xmlns="http://www.w3.org/2000/svg">
<circle cx="60" cy="60" r="60" fill="#EDF0F4"/>
<circle cx="84.9134" cy="36.0862" r="5.08621" fill="#18A0B1"/>
<path d="M45.8114 69.2279C41.8714 62.5395 42.9535 54.0329 48.4425 48.5439C53.9316 43.0548 62.4382 41.9728 69.1266 45.9128L73.1956 41.8438L72.9921 41.681C63.9676 35.7325 51.9982 36.9845 44.3999 44.6718C36.8017 52.3591 35.6892 64.3423 41.7425 73.2969L45.8114 69.2279Z" fill="#18A0B1"/>
<path d="M75.1888 51.9958C79.1288 58.6843 78.0468 67.1909 72.5577 72.6799C67.0687 78.169 58.5621 79.251 51.8737 75.311L47.8047 79.38C56.7943 85.4831 68.8519 84.3405 76.5351 76.6573C84.2183 68.9741 85.361 56.9165 79.2578 47.9269L75.1888 51.9958Z" fill="#18A0B1"/>
<circle cx="36.0862" cy="84.9138" r="5.08621" fill="#18A0B1"/>
</svg>
