<svg width="120" height="120" viewBox="0 0 120 120" fill="none" xmlns="http://www.w3.org/2000/svg">
<circle cx="60" cy="60" r="60" fill="#EDF0F4"/>
<circle cx="59.9997" cy="60.0002" r="43.771" fill="white"/>
<path fill-rule="evenodd" clip-rule="evenodd" d="M105 60C105 35.1472 84.8525 15.0002 59.9998 15.0002C35.2961 14.9367 15.2423 34.9847 15 59.5211V60C15 84.8527 35.1471 105 59.9998 105C84.8525 105 105 84.8527 105 60ZM18.2942 59.7403C18.3923 36.9267 37.0556 18.2771 60.9462 18.2655C71.498 18.4156 81.3979 22.5002 89.5381 30.577C96.5383 37.3738 100.809 46.4976 101.544 56.2269C102.594 69.1038 98.5669 80.3479 89.3766 89.5152C81.2997 97.5748 71.4286 101.619 59.9998 101.659C36.923 101.74 18.1904 82.7825 18.2942 59.7403ZM60.9462 18.2655C60.95 18.2655 60.9537 18.2655 60.9575 18.2655H60.9459C60.946 18.2655 60.9461 18.2655 60.9462 18.2655Z" fill="#333333"/>
<path fill-rule="evenodd" clip-rule="evenodd" d="M88.8919 31.3791C95.4806 37.8269 99.5691 46.4025 100.43 55.581C101.728 68.4867 97.7822 79.6616 88.638 88.8116C80.6765 96.7846 70.8977 100.731 59.6247 100.65C37.5371 100.055 19.9617 81.9402 20.0354 59.8447C20.109 37.7492 37.8047 19.7516 59.8958 19.3042C71.215 19.3215 80.9246 23.383 88.8919 31.3791ZM78.7838 29.6078C78.7966 28.923 78.2518 28.3574 77.5669 28.3445C76.8831 28.3349 76.3192 28.8781 76.3034 29.5618C76.2908 30.2467 76.8357 30.8122 77.5206 30.8249C78.2055 30.8376 78.771 30.2927 78.7838 29.6078ZM71.9996 25.7542C72.7015 25.7573 73.2689 26.3273 73.2688 27.0292C73.2598 27.3566 73.121 27.6671 72.8829 27.8922C72.6448 28.1172 72.3271 28.2385 71.9996 28.2292C71.6814 28.2338 71.3743 28.1118 71.146 27.89C70.9177 27.6682 70.7869 27.3647 70.7823 27.0465V26.9888C70.7884 26.3161 71.3271 25.7697 71.9996 25.7542ZM67.4016 25.3849C67.3182 24.732 66.7934 24.224 66.1381 24.1619C65.446 24.1518 64.8711 24.6935 64.84 25.3849C64.8365 26.0578 65.3676 26.6119 66.04 26.6369C66.7556 26.6507 67.3554 26.0991 67.4016 25.3849ZM59.9997 23.6542C60.6808 23.651 61.2357 24.2 61.24 24.8811C61.2442 25.5622 60.6961 26.118 60.015 26.1233C59.3339 26.1286 58.7772 25.5814 58.7708 24.9003C58.7708 24.2188 59.3182 23.6636 59.9997 23.6542ZM55.1535 25.3849C55.119 24.7275 54.5937 24.2022 53.9362 24.1676L53.9132 24.1619C53.2367 24.1734 52.6859 24.7091 52.6555 25.3849C52.6524 25.7093 52.7783 26.0216 53.0055 26.2532C53.2327 26.4847 53.5426 26.6165 53.867 26.6196H53.9132C54.2416 26.6211 54.5571 26.4917 54.7899 26.26C55.0227 26.0283 55.1535 25.7134 55.1535 25.3849ZM48.0055 25.7542C48.686 25.7637 49.2318 26.3197 49.2286 27.0003C49.2448 27.6566 48.7307 28.2041 48.0747 28.2292H48.017C47.6861 28.2416 47.3639 28.1212 47.1222 27.8947C46.8806 27.6682 46.7395 27.3545 46.7305 27.0234C46.7277 27.0062 46.7277 26.9887 46.7305 26.9715C46.7642 26.2913 47.3244 25.7564 48.0055 25.7542ZM43.5474 28.8883C43.2996 28.5209 42.8746 28.3136 42.4324 28.3445C41.7817 28.389 41.2766 28.9298 41.2766 29.582C41.2766 30.2343 41.7817 30.7751 42.4324 30.8195H42.6055C43.0476 30.7886 43.4397 30.5242 43.634 30.1258C43.8282 29.7275 43.7952 29.2558 43.5474 28.8883ZM37.4536 31.8465C38.1334 31.8619 38.6791 32.4127 38.6882 33.0926C38.6851 33.7731 38.1342 34.3241 37.4536 34.3272C37.1359 34.3397 36.8263 34.2249 36.5934 34.0083C36.3606 33.7917 36.2237 33.4912 36.2132 33.1734C36.2101 33.1523 36.2101 33.1309 36.2132 33.1099C36.1905 32.4323 36.7185 31.863 37.3959 31.8349L37.4536 31.8465ZM34.3498 37.4426C34.366 36.7608 33.8313 36.1926 33.1498 36.1676H33.144C32.4523 36.1701 31.8853 36.7168 31.8575 37.408C31.8755 38.0864 32.4196 38.633 33.0979 38.6541C33.7775 38.6638 34.3371 38.1222 34.3498 37.4426ZM29.6133 41.1983C30.2673 41.1853 30.8113 41.6985 30.8363 42.3522C30.8421 42.369 30.8421 42.3873 30.8363 42.4041C30.846 43.0869 30.3018 43.6491 29.619 43.6618C28.921 43.6494 28.3591 43.0848 28.3498 42.3868C28.3747 41.7103 28.9305 41.1748 29.6075 41.1753L29.6133 41.1983ZM28.269 47.9945C28.2723 47.3043 27.7188 46.7405 27.0287 46.731C26.3519 46.7366 25.7986 47.2721 25.771 47.9483C25.7914 48.6098 26.3232 49.1411 26.9847 49.161C27.6462 49.1808 28.209 48.6824 28.269 48.0233V47.9945ZM25.4133 52.6329C26.1117 52.636 26.6789 53.198 26.6883 53.8964C26.6694 54.5755 26.11 55.1144 25.4306 55.1079C25.1139 55.1094 24.8095 54.9851 24.5845 54.7622C24.3594 54.5393 24.2321 54.2362 24.2306 53.9194C24.2238 53.2497 24.7499 52.6955 25.4191 52.6675L25.4133 52.6329ZM24.8883 58.7425C24.2104 58.7726 23.6712 59.3218 23.6537 60.0002C23.6732 60.6615 24.1933 61.1991 24.8537 61.2406H24.9806C25.6509 61.2064 26.1671 60.636 26.1344 59.9656C26.1314 59.6381 25.9984 59.3253 25.7647 59.0959C25.531 58.8665 25.2157 58.7394 24.8883 58.7425ZM24.2306 66.0867C24.2305 65.4074 24.7745 64.8531 25.4537 64.8405C26.1507 64.853 26.711 65.4184 26.7171 66.1155C26.7081 66.443 26.5692 66.7535 26.3312 66.9785C26.0931 67.2036 25.7754 67.3248 25.4479 67.3155C24.7937 67.3317 24.2495 66.8159 24.2306 66.1617V66.0925V66.0867ZM25.7883 72.0232C25.8103 72.7047 26.3758 73.2419 27.0575 73.229L27.0344 73.2174C27.715 73.2143 28.2659 72.6634 28.269 71.9828C28.2516 71.314 27.7201 70.7725 27.0517 70.7424C26.3538 70.758 25.7943 71.3251 25.7883 72.0232ZM29.6363 78.7847C28.9587 78.7761 28.4062 78.2388 28.3787 77.5616C28.3786 76.8747 28.9321 76.316 29.619 76.3097H29.6479C30.3019 76.2967 30.8459 76.8099 30.871 77.4636C30.8738 77.4846 30.8738 77.506 30.871 77.527C30.8725 77.8524 30.7443 78.165 30.5148 78.3956C30.2852 78.6262 29.9733 78.7559 29.6479 78.7559H29.6133L29.6363 78.7847ZM29.6366 69.0916L29.6363 69.0924L29.6133 69.0809L29.6366 69.0916ZM29.6366 69.0916L29.6998 68.8674H42.8536C44.5536 68.8674 45.4075 68.8674 45.8363 68.4405C46.269 68.0098 46.269 67.1444 46.269 65.4059V56.7521C46.269 55.8117 46.3959 55.3733 47.5209 55.4194C49.9959 55.5233 52.4824 55.4887 54.9574 55.4194C55.8228 55.4194 56.1112 55.6848 56.1112 56.5329C56.0882 61.3713 56.0882 66.2155 56.1112 71.0655C56.1112 71.9886 55.8228 72.4559 54.8478 72.3636C54.5639 72.3347 54.2778 72.3347 53.9939 72.3636C52.8805 72.4847 52.4997 72.052 52.4997 70.9617C52.5343 68.6278 52.5228 66.2965 52.5112 63.9643V63.9642V63.9641V63.9641V63.964V63.9639V63.9639V63.9638V63.9637V63.9637V63.9636V63.9635V63.9634V63.9634V63.9633V63.9632V63.9632V63.9631V63.963V63.963V63.9629V63.9628V63.9628C52.5055 62.7961 52.4997 61.6292 52.4997 60.4617C52.4997 59.4983 52.1997 59.054 51.167 59.054C50.1343 59.054 49.7939 59.3771 49.8113 60.404C49.8351 62.2115 49.8343 64.0189 49.8335 65.8256V65.8256V65.8257V65.8258V65.8258V65.8259V65.826V65.826V65.8261V65.8262V65.8263V65.8263V65.8264V65.8265V65.8265V65.8266V65.8267V65.8267V65.8268V65.8269V65.8269V65.827V65.8271C49.8328 67.5203 49.8321 69.2128 49.8516 70.904C49.8516 72.0578 49.4997 72.3809 48.3863 72.3636C47.088 72.3424 45.7882 72.3585 44.4892 72.3745C42.2437 72.4023 40.0004 72.43 37.7709 72.2655C36.548 72.1763 35.3532 71.6465 34.1658 71.1199C33.74 70.9311 33.3151 70.7426 32.8902 70.5751C32.1353 70.2796 31.3831 69.9204 30.6261 69.5589L30.6261 69.5588C30.2974 69.4019 29.9677 69.2445 29.6366 69.0916ZM33.2767 83.8155C32.9415 83.8544 32.6046 83.7582 32.3404 83.5482C32.0763 83.3382 31.9067 83.0316 31.869 82.6962C31.8635 82.631 31.8635 82.5653 31.869 82.5001C31.9106 81.8047 32.4765 81.2563 33.1729 81.2366C33.8677 81.328 34.3974 81.9039 34.4306 82.6039C34.3347 83.207 33.875 83.6874 33.2767 83.8097V83.8155ZM36.2363 86.9077C36.2363 87.5673 36.771 88.102 37.4305 88.102L37.4536 88.0962H37.4998C37.8257 88.0977 38.1389 87.9697 38.3704 87.7404C38.6019 87.511 38.7329 87.199 38.7344 86.8731C38.7224 86.1934 38.1793 85.6426 37.4998 85.6212C37.1693 85.6166 36.8505 85.7435 36.6135 85.9739C36.3766 86.2044 36.2409 86.5195 36.2363 86.8501V86.9077ZM42.4959 91.6154C42.1776 91.6279 41.8674 91.5133 41.6336 91.2969C41.3999 91.0804 41.2618 90.7799 41.2498 90.4616C41.2469 90.4463 41.2469 90.4307 41.2498 90.4154C41.2303 89.7283 41.7685 89.154 42.4555 89.1289H42.4901C43.17 89.1444 43.7156 89.6951 43.7247 90.375C43.7294 90.7014 43.6033 91.0161 43.3747 91.249C43.1461 91.482 42.8338 91.6139 42.5074 91.6154H42.4959ZM46.7363 93.0404C46.7826 93.719 47.3668 94.2338 48.0459 94.1942L48.0747 94.1885C48.7298 94.1665 49.2448 93.6207 49.2286 92.9654C49.2223 92.2839 48.6697 91.7339 47.9882 91.7308C47.3111 91.7542 46.766 92.2944 46.7363 92.9712V93.0404ZM41.1373 74.4392L41.1373 74.4392L41.1371 74.4391L41.137 74.439L41.1369 74.4389L41.1367 74.4389L41.1366 74.4388L41.1365 74.4387L41.1363 74.4387L41.1362 74.4386L41.136 74.4385L41.1359 74.4385L41.1358 74.4384L41.1356 74.4383L41.1355 74.4383L41.1354 74.4382L41.1352 74.4381L41.1351 74.4381L41.1349 74.438C40.801 74.2756 40.4669 74.1132 40.1305 73.9559L40.2632 73.604H57.1151C57.3342 73.604 57.5326 73.6056 57.7122 73.6071H57.7125H57.7128H57.7131H57.7134C58.5959 73.6143 59.0235 73.6179 59.2301 73.4059C59.4242 73.2066 59.4229 72.8169 59.4204 72.0606V72.0605V72.0603V72.0602V72.06V72.0599V72.0597V72.0595V72.0593V72.0592V72.059V72.0588V72.0585V72.0583V72.0581V72.0579V72.0576C59.4197 71.8366 59.4188 71.5842 59.4228 71.2963V48.7041C59.4228 47.4637 59.7631 47.0887 61.0035 47.1348C63.4035 47.2272 65.8035 47.1925 68.2093 47.1348C69.0746 47.1348 69.4612 47.3598 69.4612 48.2887V76.252C69.4612 77.2559 69.0342 77.5674 68.1112 77.4059C67.7982 77.3228 67.477 77.2744 67.1535 77.2616L67.1215 77.2627C65.6246 77.3136 65.6189 77.3138 65.6189 75.7213V52.6444C65.6189 52.5459 65.6247 52.4429 65.6306 52.3386C65.6628 51.7711 65.6972 51.1646 64.8054 51.0233C63.5708 50.8271 63.2016 51.1156 63.2016 52.4079V75.8539C63.2016 77.4462 63.2016 77.452 61.5631 77.452C60.2052 77.452 58.848 77.4456 57.4909 77.4392H57.4903H57.4902H57.4902H57.4902H57.4901H57.4901H57.4901H57.49H57.49H57.49H57.4899H57.4899H57.4899H57.4898H57.4898H57.4898H57.4897C54.7767 77.4264 52.0645 77.4136 49.3497 77.452C47.6853 77.5186 46.321 76.8499 44.958 76.1818C44.4313 75.9237 43.9048 75.6656 43.3613 75.4501H43.3497C42.598 75.1494 41.868 74.7945 41.1373 74.4392ZM52.6612 94.5808C52.6863 95.2605 53.2564 95.792 53.9362 95.7692C54.6267 95.7564 55.1765 95.1869 55.1648 94.4964C55.1531 93.8059 54.5845 93.2552 53.8939 93.2658C53.2034 93.2763 52.6518 93.8441 52.6612 94.5346C52.6584 94.5499 52.6584 94.5655 52.6612 94.5808ZM59.9997 96.3462C59.3009 96.3335 58.7439 95.7584 58.7535 95.0596C58.7725 94.3723 59.3424 93.8289 60.0298 93.8426C60.7173 93.8562 61.2651 94.4218 61.2568 95.1093C61.2485 95.7969 60.6873 96.3491 59.9997 96.3462ZM64.8458 94.5058C64.8319 95.1673 65.3396 95.7232 65.9996 95.7692L66.0631 95.7519C66.7345 95.7816 67.3063 95.2688 67.3496 94.5981C67.3661 94.1508 67.1428 93.7287 66.7637 93.4908C66.3846 93.2529 65.9073 93.2353 65.5117 93.4447C65.1161 93.654 64.8623 94.0585 64.8458 94.5058ZM71.9939 94.1885C71.341 94.1985 70.7988 93.687 70.7708 93.0346V92.9769C70.7737 92.2989 71.316 91.7464 71.9939 91.7308C72.6909 91.7433 73.2512 92.3087 73.2573 93.0058C73.2262 93.6772 72.6659 94.2017 71.9939 94.1885ZM76.6877 91.2662C76.9225 91.4901 77.2367 91.6116 77.5611 91.6039L77.5784 91.627H77.6304C78.2873 91.5988 78.8005 91.0496 78.7842 90.3923C78.7938 89.7095 78.2497 89.1473 77.5669 89.1347C76.8682 89.141 76.306 89.7109 76.3092 90.4097C76.3168 90.7341 76.4529 91.0422 76.6877 91.2662ZM78.5918 57.0893V57.0891C78.5588 51.8224 78.5284 46.9708 78.5304 44.2675C78.5304 44.221 78.5307 44.1746 78.531 44.1286C78.5356 43.4278 78.5397 42.809 77.4515 42.8252C76.5169 42.8252 76.2977 43.1656 76.2977 44.0483C76.3323 48.0868 76.2342 78.4789 76.2342 78.4789V82.2981C76.0989 82.3126 75.9715 82.3287 75.849 82.3442L75.8486 82.3443L75.8482 82.3443L75.848 82.3443L75.8475 82.3444L75.8469 82.3445L75.8465 82.3445L75.8463 82.3446H75.8462H75.8462H75.8461C75.578 82.3786 75.3332 82.4096 75.0804 82.4135C73.5949 82.4135 72.109 82.4217 70.623 82.43H70.6228H70.6226H70.6224H70.6222H70.622H70.6218H70.6216H70.6214H70.6212H70.621H70.6208H70.6207H70.6206H70.6205H70.6203H70.6202H70.6201H70.62H70.6199H70.6198H70.6197H70.6196C66.8203 82.451 63.0205 82.472 59.2266 82.3558C58.2478 82.3261 57.2722 81.8599 56.309 81.3998L56.3089 81.3997L56.3089 81.3997L56.3088 81.3997L56.3087 81.3996L56.3087 81.3996L56.3086 81.3996L56.3085 81.3995L56.3085 81.3995L56.3084 81.3995L56.3083 81.3994L56.3083 81.3994L56.3082 81.3994C55.9658 81.2358 55.625 81.073 55.2862 80.9308C53.7859 80.3312 52.3482 79.5853 50.9939 78.7039C51.167 78.7039 51.3401 78.6881 51.5132 78.6722C51.6862 78.6563 51.8593 78.6405 52.0324 78.6405L69.7323 78.7155H69.7324C71.0988 78.7155 71.7663 78.7155 72.0924 78.3818C72.4039 78.063 72.4038 77.4397 72.4035 76.2209L72.4035 76.1078V40.4483C72.4035 39.4503 72.6285 38.9887 73.7592 39.0233C76.3208 39.1041 78.8881 39.0753 81.4496 39.0233C82.3092 39.0233 82.6034 39.3176 82.6034 40.1772V80.7693C82.6034 81.5829 82.6034 81.9939 82.3979 82.2022C82.1881 82.4149 81.7641 82.4164 80.9073 82.4193C78.3232 82.4193 78.3278 82.3744 78.5888 79.8193L78.5996 79.7135L78.6054 79.702C78.7261 78.5019 78.6543 67.0544 78.5918 57.0915V57.0909V57.0906V57.0904V57.0897V57.0893ZM81.3111 86.8731C81.3237 87.5514 81.8789 88.0937 82.5573 88.0904L82.5515 88.0962H82.638C82.9564 88.0968 83.2609 87.9658 83.4794 87.7342C83.6979 87.5025 83.811 87.191 83.7919 86.8731C83.7996 86.5457 83.6769 86.2285 83.4508 85.9916C83.2246 85.7546 82.9136 85.6172 82.5861 85.6097C81.889 85.6158 81.3236 86.1761 81.3111 86.8731ZM82.5976 34.3214C81.9258 34.3282 81.3707 33.7987 81.3457 33.1272C81.3429 33.1139 81.3429 33.1001 81.3457 33.0868C81.3607 32.4094 81.903 31.862 82.5803 31.8407C82.9072 31.8376 83.2219 31.9649 83.4547 32.1945C83.6875 32.424 83.8192 32.7368 83.8207 33.0638C83.8602 33.7216 83.3593 34.287 82.7015 34.3272H82.6323L82.5976 34.3214ZM85.711 82.5376C85.711 83.1898 86.2161 83.7306 86.8669 83.7751C87.3291 83.8066 87.7705 83.5779 88.0112 83.182C88.252 82.7861 88.252 82.289 88.0112 81.8931C87.7705 81.4972 87.3291 81.2685 86.8669 81.3001C86.2161 81.3445 85.711 81.8853 85.711 82.5376ZM86.8669 38.6714C86.1754 38.6714 85.6149 38.1109 85.6149 37.4195C85.6149 36.7281 86.1754 36.1676 86.8669 36.1676C87.5583 36.1676 88.1188 36.7281 88.1188 37.4195C88.1093 38.1041 87.5516 38.6542 86.8669 38.6541V38.6714ZM94.6149 55.1194C95.2691 55.1006 95.7849 54.5564 95.7687 53.9021C95.7858 53.2384 95.2772 52.679 94.6149 52.6329C94.2721 52.6252 93.9403 52.7539 93.6926 52.9909C93.4448 53.2279 93.3013 53.5536 93.2938 53.8964C93.3064 54.5778 93.8641 55.1227 94.5457 55.1194H94.6149ZM90.3803 41.2099C91.0606 41.2129 91.6139 41.7586 91.6264 42.4387C91.6108 43.1357 91.0429 43.6934 90.3457 43.6964C89.6665 43.6714 89.1326 43.1067 89.1457 42.4272C89.1326 41.7721 89.6449 41.2264 90.2995 41.1983H90.3861L90.3803 41.2099ZM89.1515 77.5559C89.1515 78.2345 89.7016 78.7847 90.3803 78.7847L90.3976 78.7789C91.071 78.7702 91.6192 78.2347 91.6438 77.5616V77.5328C91.6377 77.2018 91.4996 76.8869 91.2601 76.6582C91.0207 76.4296 90.6997 76.3062 90.3688 76.3155H90.3053C89.6447 76.3405 89.1287 76.8952 89.1515 77.5559ZM92.9649 46.731C93.4658 46.7311 93.9171 47.0338 94.1071 47.4972C94.2971 47.9607 94.1883 48.4931 93.8316 48.8448C93.4749 49.1964 92.9411 49.2978 92.4803 49.1012C92.0196 48.9046 91.7233 48.4492 91.7303 47.9483C91.7546 47.2796 92.296 46.7458 92.9649 46.731ZM91.7303 72.0232C91.7584 72.7024 92.3257 73.2337 93.0053 73.2174C93.6845 73.2048 94.2285 72.6506 94.2284 71.9713C94.2341 71.9176 94.2341 71.8634 94.2284 71.8097C94.1694 71.1199 93.5624 70.6085 92.8726 70.6674C92.1828 70.7264 91.6714 71.3334 91.7303 72.0232ZM94.5341 67.304C93.8575 67.2885 93.3144 66.7404 93.3053 66.0636C93.3334 65.3644 93.9152 64.8159 94.6149 64.829C95.2818 64.8752 95.7921 65.4417 95.7687 66.1098C95.7703 66.426 95.6457 66.7297 95.4227 66.9539C95.1997 67.178 94.8965 67.304 94.5803 67.304H94.5341ZM94.2509 60.8928C94.4837 61.1094 94.7933 61.2242 95.1111 61.2117H95.1168H95.1918C95.5131 61.2133 95.8216 61.0859 96.0482 60.8582C96.2748 60.6305 96.4007 60.3214 96.3976 60.0002V59.9482C96.3725 59.5986 96.2094 59.2732 95.9443 59.0438C95.6792 58.8144 95.3338 58.6998 94.9841 58.7252H94.9034C94.5989 58.7558 94.319 58.9061 94.1254 59.143C93.9317 59.38 93.8401 59.6841 93.8707 59.9886C93.8678 60.0116 93.8678 60.0349 93.8707 60.0579C93.8812 60.3757 94.018 60.6762 94.2509 60.8928Z" fill="#004B6A"/>
</svg>
