<svg width="120" height="120" viewBox="0 0 120 120" fill="none" xmlns="http://www.w3.org/2000/svg">
<path d="M118.191 74.5143C110.178 106.657 77.6222 126.219 45.4752 118.204C13.3417 110.19 -6.22004 77.6324 1.79691 45.4918C9.80683 13.3451 42.3626 -6.21803 74.4997 1.79541C106.644 9.80884 126.205 42.3702 118.191 74.5149L118.191 74.5143H118.191Z" fill="black"/>
<mask id="mask0_1_3336" style="mask-type:luminance" maskUnits="userSpaceOnUse" x="28" y="47" width="75" height="56">
<path fill-rule="evenodd" clip-rule="evenodd" d="M89.36 48.22C82.9289 48.9227 78.1763 54.5414 78.55 61C78.6602 62.6986 77.8109 64.3162 76.35 65.19C75.62 65.6383 74.7765 65.8674 73.92 65.85C73.0704 65.8392 72.2375 65.612 71.5 65.19C69.5492 64.073 67.3476 63.4676 65.1 63.43H63.78C57.3898 64.1685 52.7186 69.8145 53.19 76.23C53.3045 77.927 52.4588 79.5452 51 80.42C50.2738 80.8685 49.4334 81.0977 48.58 81.08C47.7923 81.0976 47.0191 80.8667 46.37 80.42C44.4286 79.3067 42.2376 78.7014 40 78.66H38.63C32.3485 79.4686 27.7603 84.9948 28.1207 91.3179C28.481 97.641 33.6673 102.61 40 102.7H41.1C46.8138 102.137 51.3283 97.6058 51.87 91.89V89.89C51.7622 88.1918 52.6109 86.5754 54.07 85.7C54.8 85.2517 55.6435 85.0226 56.5 85.04C57.3497 85.0508 58.1825 85.2779 58.92 85.7C60.8682 86.8244 63.0709 87.4336 65.32 87.47H66.64C72.2801 86.8279 76.6988 82.3216 77.23 76.67V74.67C77.1204 72.9662 77.9737 71.3445 79.44 70.47C80.1663 70.0214 81.0066 69.7922 81.86 69.81C82.6477 69.7923 83.421 70.0233 84.07 70.47C86.0147 71.594 88.2141 72.2033 90.46 72.24H91.79C97.74 71.14 102.37 66.24 102.37 60.11C102.399 56.9239 101.16 53.857 98.9262 51.5853C96.692 49.3136 93.6461 48.0237 90.46 48C90.0789 47.9426 89.6897 48.0204 89.36 48.22Z" fill="white"/>
</mask>
<g mask="url(#mask0_1_3336)">
<path d="M84 47.7699L32.5 78.8699C26.0381 82.7728 23.9312 91.1556 27.78 97.6499C29.6511 100.82 32.7151 103.107 36.2862 104C39.8573 104.893 43.6372 104.316 46.78 102.4L98.41 70.9999C104.693 67.0855 106.726 58.8861 103 52.4899C101.135 49.3123 98.0687 47.0203 94.4931 46.132C90.9175 45.2438 87.1348 45.8342 84 47.7699Z" fill="url(#paint0_linear_1_3336)"/>
</g>
<mask id="mask1_1_3336" style="mask-type:luminance" maskUnits="userSpaceOnUse" x="28" y="32" width="49" height="40">
<path fill-rule="evenodd" clip-rule="evenodd" d="M64.0001 33C57.5649 33.7028 52.8108 39.3277 53.1901 45.79C53.3147 47.4945 52.4673 49.1236 51.0001 50C50.2739 50.4486 49.4335 50.6777 48.5801 50.66C47.7856 50.6819 47.0047 50.4508 46.3501 50C44.4164 48.883 42.2326 48.2708 40.0001 48.22H38.6301C32.736 48.9714 28.3076 53.9683 28.2701 59.91C28.2477 66.5263 33.5642 71.9232 40.1801 72H41.2801C46.9959 71.4583 51.5272 66.9438 52.0901 61.23V59.23C51.9776 57.5308 52.8275 55.9121 54.2901 55.04C55.0172 54.5839 55.862 54.351 56.7201 54.37C57.5064 54.3512 58.2778 54.5861 58.9201 55.04C60.8709 56.1569 63.0725 56.7624 65.3201 56.8H66.6401C72.8053 55.8828 77.2581 50.4222 76.9158 44.1985C76.5735 37.9749 71.5487 33.0355 65.3201 32.8C64.87 32.7394 64.412 32.8088 64.0001 33Z" fill="white"/>
</mask>
<g mask="url(#mask1_1_3336)">
<path d="M74.7901 35.55C70.6367 31.3908 64.1955 30.5681 59.1301 33.55L33.6301 48.91C30.1825 50.948 27.8667 54.4613 27.3529 58.4331C26.8391 62.4049 28.1846 66.3918 31.0001 69.24C35.1909 73.4223 41.6784 74.2445 46.7801 71.24L72.3001 55.69C75.6981 53.6504 77.968 50.1601 78.4543 46.2269C78.9405 42.2938 77.5891 38.3557 74.7901 35.55Z" fill="url(#paint1_linear_1_3336)"/>
</g>
<mask id="mask2_1_3336" style="mask-type:luminance" maskUnits="userSpaceOnUse" x="27" y="17" width="25" height="25">
<circle cx="39.7401" cy="29.69" r="11.91" fill="white"/>
</mask>
<g mask="url(#mask2_1_3336)">
<rect x="21.8367" y="29.6907" width="25.3001" height="25.3001" rx="12.38" transform="rotate(-45 21.8367 29.6907)" fill="url(#paint2_linear_1_3336)"/>
</g>
<defs>
<linearGradient id="paint0_linear_1_3336" x1="27.46" y1="20.817" x2="70.05" y2="20.817" gradientUnits="userSpaceOnUse">
<stop stop-color="#F4C503"/>
<stop offset="1" stop-color="#FFE800"/>
</linearGradient>
<linearGradient id="paint1_linear_1_3336" x1="10.9701" y1="21.2528" x2="51.3801" y2="21.2528" gradientUnits="userSpaceOnUse">
<stop stop-color="#F4C503"/>
<stop offset="1" stop-color="#FFE800"/>
</linearGradient>
<linearGradient id="paint2_linear_1_3336" x1="-6.11246" y1="36.2352" x2="31.0567" y2="36.2352" gradientUnits="userSpaceOnUse">
<stop stop-color="#F4C503"/>
<stop offset="1" stop-color="#FFE800"/>
</linearGradient>
</defs>
</svg>
