<svg width="120" height="120" viewBox="0 0 120 120" fill="none" xmlns="http://www.w3.org/2000/svg">
<circle cx="60" cy="60" r="60" fill="#EDF0F4"/>
<path d="M30 79.0384C30 80.118 30.2399 81.0777 30.8397 81.9174C31.6794 83.117 33.119 83.8368 34.5585 83.8368C36.118 83.8368 37.5575 83.117 38.3972 82.0374C38.997 81.1977 39.3569 80.118 39.3569 79.0384V41.7308C39.3569 39.4516 37.7974 37.4122 35.3982 37.0524C35.1583 37.0524 35.0383 37.0524 34.7984 37.0524C34.5585 37.0524 34.3186 37.0524 34.1986 37.0524C31.7994 37.2923 30 39.4516 30 41.8508V79.0384Z" fill="#353C46"/>
<path d="M75.2247 48.9284C77.0241 49.6482 79.0634 49.1683 80.383 47.7288C80.8628 47.129 81.2227 46.4092 81.3427 45.5695C81.7025 44.13 80.9828 42.6905 80.0231 41.7308C79.1834 40.8911 78.1037 40.0514 76.7842 39.2116C72.5856 36.8124 68.387 36.9324 66.5876 37.0524C64.3083 37.0524 57.8305 37.4122 51.8325 42.0907C43.1953 48.8084 42.5955 58.8851 42.4756 60.4446C42.4756 62.124 42.4756 70.1613 48.8335 76.7591C55.9111 84.0767 65.0281 83.8368 66.4676 83.8368C68.6269 83.9567 73.5452 83.7168 78.7035 80.7178C80.9828 79.3983 82.6622 77.8388 83.8618 76.3993C85.3013 74.8398 85.7812 72.4406 84.7015 70.5212C84.5816 70.4013 84.4616 70.1613 84.3417 70.0414C84.2217 69.9214 84.1017 69.6815 83.9818 69.5615C82.1824 67.6422 79.0634 67.8821 77.1441 69.6815C76.0644 70.6412 74.7448 71.7208 72.8255 72.6805C72.8255 72.6805 72.7055 72.6805 72.7055 72.8005C67.9071 75.0797 62.149 74.4799 57.8305 71.241C57.5906 71.0011 57.3506 70.8811 57.1107 70.6412C55.5512 69.3216 54.4716 67.7621 53.7518 66.3226C51.8325 62.4839 51.7125 57.8054 53.6319 53.9667C54.1117 53.007 54.7115 52.0474 55.5512 51.0877C59.7498 46.2893 65.7478 46.2893 66.5876 46.2893C67.7872 46.2893 69.7065 46.4092 71.8658 47.129C73.3053 47.6088 74.385 48.3286 75.2247 48.9284Z" fill="#353C46"/>
<circle cx="85.0618" cy="57.9254" r="5.03832" fill="#2C96DF"/>
</svg>
