<svg width="120" height="120" viewBox="0 0 120 120" fill="none" xmlns="http://www.w3.org/2000/svg">
<circle cx="60" cy="60" r="60" fill="#EDF0F4"/>
<path d="M25.1065 61.5042H25.0534H25V58.2397C25.0365 58.2397 25.073 58.2397 25.1094 58.2397C25.2314 58.3484 25.2988 58.5061 25.2929 58.6695C25.3254 59.4715 25.3254 60.274 25.2929 61.0768C25.2988 61.2402 25.2303 61.3972 25.1065 61.5042Z" fill="#FEF5F6"/>
<path d="M53.5138 47.8874C54.9273 48.3992 56.3971 48.7098 57.8443 49.0975C65.4037 51.123 72.9647 53.1424 80.5272 55.1558C85.1687 56.3935 89.8116 57.6257 94.4559 58.852C94.8564 58.9574 95.011 59.1304 94.9832 59.5564C94.9395 60.2185 94.9745 60.8853 94.9526 61.5493C94.9382 61.9878 94.7879 62.1733 94.2718 62.0184C92.9508 61.6221 91.6062 61.305 90.2747 60.9428C89.9529 60.8553 89.8084 60.8991 89.9162 61.2637C89.9333 61.3212 89.9365 61.3829 89.9527 61.4406C90.2486 62.504 90.0538 62.3045 91.0799 62.3413C92.2008 62.3813 93.3211 62.4427 94.4422 62.4655C94.81 62.4729 94.8903 62.6369 94.8542 62.9506C94.7667 63.7073 94.6893 64.4651 94.5946 65.221C94.5581 65.5121 94.4034 65.5963 94.0874 65.5512C93.175 65.4216 92.2441 65.5512 91.3301 65.3868C90.9583 65.3212 90.8971 65.478 90.9857 65.8242C91.179 66.582 91.3391 67.3488 91.4981 68.1152C91.5637 68.4325 91.74 68.5215 92.0484 68.5257C92.5477 68.5323 93.0459 68.6014 93.5457 68.6206C93.8217 68.6311 93.8893 68.7112 93.8002 68.9865C93.5472 69.7691 93.3211 70.5612 93.0822 71.3486C93.0422 71.4798 93.0153 71.6655 92.8377 71.644C92.2118 71.5686 92.4084 71.9625 92.4722 72.272C92.5085 72.4469 92.6081 72.6191 92.5379 72.8006C91.9771 74.3123 91.2827 75.7711 90.463 77.1597C90.1504 75.8496 89.8628 74.6758 89.591 73.4983C88.8054 70.0958 88.0228 66.6925 87.2436 63.2883C87.0229 62.3301 86.7672 61.3792 86.5791 60.4146C86.5404 60.0901 86.2847 59.834 85.9602 59.7946C85.1835 59.6008 84.4045 59.4114 83.6403 59.1748C83.1469 59.0217 83.1397 59.1967 83.2351 59.5991C83.7661 61.845 84.2796 64.0953 84.7999 66.3438C85.8814 71.017 86.9656 75.6893 88.0521 80.3611C88.1313 80.5914 88.0924 80.8458 87.948 81.042C87.3308 81.8337 86.7233 82.6335 86.0367 83.3684C85.7246 83.7019 85.6391 83.6269 85.5442 83.2131C84.7278 79.6527 83.8903 76.0974 83.0653 72.539C82.2813 69.1562 81.5011 65.7728 80.7252 62.3887C80.4273 61.0983 80.1128 59.8114 79.8363 58.5176C79.8131 58.2765 79.6316 58.081 79.393 58.0399C78.5591 57.8278 77.7227 57.6222 76.8967 57.3816C76.4326 57.2464 76.4037 57.3816 76.503 57.7998C77.155 60.5336 77.7853 63.2714 78.42 66.0088C79.7484 71.7374 81.0753 77.4665 82.4005 83.196C82.4309 83.3739 82.4503 83.5534 82.4586 83.7336C82.3985 83.8161 82.2966 83.8568 82.1962 83.8384C81.1287 83.5563 80.031 83.3688 79.0485 82.8192C78.9228 82.5931 78.844 82.344 78.8167 82.0868C78.6273 81.1966 78.6126 81.1868 77.7072 81.4129C77.2072 81.5378 76.7103 81.6754 76.2049 81.7779C75.2076 81.6187 74.3583 81.0689 73.4365 80.7102C72.9597 80.5088 72.4962 80.2776 72.0485 80.0178C71.8517 79.911 71.5812 79.85 71.5982 79.5331C71.7771 79.3061 72.0507 79.2892 72.2981 79.2254C73.8509 78.8243 75.4202 78.4903 76.9715 78.082C77.1281 78.047 77.2827 78.0037 77.4347 77.9525C77.5878 77.8948 77.7442 77.8305 77.7223 77.6225C77.7107 77.4547 77.5827 77.3182 77.4161 77.2961C77.1246 77.2209 76.8258 77.1774 76.5251 77.1662C75.4416 77.1835 74.3653 77.0582 73.2849 77.0287C72.7644 77.0265 72.2441 76.9959 71.7268 76.9372C70.6949 76.7968 69.6928 76.9832 68.7027 77.2751C68.3983 77.3771 68.0836 77.4449 67.7642 77.4779C67.4817 77.4685 67.2092 77.3709 66.985 77.1988C65.372 76.1438 63.7754 75.0653 62.2609 73.869C62.0817 73.7395 61.9201 73.5875 61.7797 73.4169C61.6542 73.2505 61.7462 73.1649 61.902 73.1052C63.1449 72.9425 64.3819 73.1586 65.617 73.2118C66.7131 73.2588 67.8174 73.3281 68.9133 73.3729C70.9535 73.4565 72.989 73.6503 75.0326 73.6538C75.4543 73.6538 75.8657 73.7688 76.2893 73.7651C76.6766 73.7618 76.8453 73.6142 76.7453 73.2074C76.6062 72.6411 76.4542 72.0777 76.3385 71.506C76.2983 71.1926 76.0164 70.968 75.7019 70.9986C74.0014 70.94 72.3025 70.8379 70.6044 70.7392C68.5864 70.6218 66.5646 70.5912 64.5486 70.4219C63.5729 70.3401 62.5889 70.3198 61.6102 70.2907C60.5083 70.2574 59.4133 70.1245 58.3123 70.1229C58.1708 70.1185 58.0345 70.0685 57.9241 69.9799C56.93 69.0493 55.9196 68.1335 55.0896 67.0439C54.963 66.8775 54.8556 66.6861 55.1653 66.5755C56.3091 66.4801 57.4495 66.621 58.585 66.6848C59.6038 66.7423 60.6284 66.8027 61.6459 66.8478C63.7286 66.9401 65.8112 67.0389 67.8937 67.1445C69.875 67.243 71.8613 67.2738 73.8382 67.4674C74.1987 67.4947 74.5606 67.4964 74.9213 67.4726C75.2292 67.459 75.3519 67.3038 75.2948 66.9993C75.1785 66.3858 75.0304 65.7789 74.8511 65.1808C74.738 64.8 74.4242 64.7237 74.0887 64.7215C73.3055 64.7177 72.5255 64.6239 71.7463 64.6075C68.8189 64.5461 65.8989 64.3306 62.976 64.1994C60.214 64.0754 57.4493 63.9623 54.6905 63.7578C53.8659 63.6968 53.8196 63.736 53.7211 64.5428C53.7306 64.7261 53.6593 64.9041 53.5265 65.0305C53.2299 64.9242 53.2461 64.6548 53.2461 64.4253C53.2461 60.4846 53.1925 56.5437 53.268 52.605C53.3498 52.1706 53.8086 52.1258 54.0481 51.852C54.1323 51.7557 54.3272 51.7207 54.2668 51.5458C54.2255 51.4266 54.0741 51.4305 53.9652 51.3914C53.7222 51.3039 53.3839 51.3914 53.2927 51.0213C53.249 49.989 53.156 48.9569 53.3443 47.9294C53.3638 47.875 53.4237 47.8465 53.4782 47.866C53.4913 47.8706 53.5035 47.878 53.5138 47.8874Z" fill="#ABACAC"/>
<path d="M54.9966 66.7257C55.9469 67.8805 56.9805 68.9638 58.0892 69.9674C58.7164 70.2345 59.0924 70.8081 59.5808 71.2385C60.3216 71.8916 61.1612 72.4414 61.7725 73.2384C63.5884 74.7818 65.5393 76.1588 67.6019 77.3528C68.2834 77.5415 68.8267 77.9934 69.4343 78.3247C70.0086 78.6383 70.5742 78.9673 71.1647 79.2507C71.3561 79.3115 71.5168 79.4436 71.6133 79.6197C73.0804 80.4217 74.6068 81.1102 76.1791 81.6791C77.1971 81.9109 78.1984 82.1889 79.0927 82.7575C80.1891 83.1645 81.3139 83.4906 82.458 83.7336C83.2595 84.065 84.1269 84.1443 85.0759 84.4276C84.5948 84.8882 84.1632 85.3173 83.7149 85.728C82.3418 86.9863 82.3392 86.9836 80.5906 86.4799C59.7118 80.4668 44.0194 63.6876 39.3712 42.3958C38.7391 39.382 38.3258 36.3262 38.1348 33.2527C38.0718 32.8547 38.2527 32.4575 38.5941 32.2434C39.4211 31.65 40.2237 31.0228 41.1607 30.4465C41.1751 36.4513 42.2218 42.4092 44.2552 48.0593V47.4513C44.2552 41.3885 44.2515 35.3254 44.2442 29.2626C44.2432 28.8182 44.3562 28.5649 44.772 28.3923C45.6002 28.0487 46.4108 27.6623 47.2292 27.2931C47.3289 27.512 47.3606 27.7559 47.3204 27.993C47.3237 37.0167 47.325 46.0406 47.3248 55.0646C47.304 55.2439 47.3219 55.4257 47.3775 55.5973C48.2335 57.3376 49.2446 58.9972 50.3987 60.5557V59.9293C50.3987 48.9315 50.3948 37.9337 50.3871 26.936C50.3871 26.4121 50.4831 26.1571 51.0489 26.0489C51.8501 25.8958 52.6352 25.6519 53.4456 25.5286C53.6457 25.7646 53.5997 26.0535 53.6135 26.3284C53.6686 27.4219 53.5536 28.5109 53.4983 29.6014C53.6358 30.8248 53.7043 32.0472 53.4456 33.265C53.4445 34.3642 53.4436 35.4634 53.4427 36.5627C53.5313 36.6959 53.5812 36.8509 53.5866 37.0108C53.6013 37.9843 53.6013 38.958 53.5866 39.9314C53.5707 40.13 53.5214 40.3245 53.4412 40.5066L53.4462 43.9264C53.5311 44.0624 53.5794 44.2179 53.5866 44.378C53.6013 45.355 53.6013 46.3317 53.5866 47.3087C53.5724 47.5082 53.523 47.7035 53.441 47.8859L53.4825 51.1812C53.673 51.553 53.6704 51.9943 53.4755 52.364C53.4652 56.4903 53.4556 60.6165 53.4469 64.7429C53.4574 64.8203 53.4779 64.896 53.5083 64.9679C54.129 65.4358 54.6375 66.0363 54.9966 66.7257Z" fill="#EE1D55"/>
<path d="M25.1065 61.504L25.1094 58.2389C25.0247 56.7047 25.935 55.5807 26.6841 54.3896C26.8641 54.1029 27.034 53.809 27.207 53.5183C27.4476 52.7587 27.9662 52.1654 28.4241 51.5458C28.696 51.2219 28.7664 50.7744 28.607 50.3827C28.4624 49.9551 28.2258 49.5365 28.3423 49.0531C28.3087 48.8351 28.2548 48.6208 28.182 48.4125C27.6009 47.1261 27.8382 45.9365 28.521 44.7601C28.9917 43.9487 29.3534 43.0743 29.9426 42.1826C32.1041 53.718 36.8018 63.9746 44.1408 72.9797C51.4883 81.9951 60.5855 88.6552 71.4138 93.0985C69.9246 93.6208 68.4013 94.0401 66.8546 94.3537C66.6538 94.3749 66.452 94.3248 66.2846 94.212C65.4527 93.817 64.6216 93.4196 63.7914 93.0198C63.17 92.9085 62.6707 92.5294 62.1353 92.2383C60.5387 91.3705 59.0104 90.3885 57.4781 89.4135C56.4025 88.6388 55.2834 87.9263 54.2371 87.1087C54.0046 86.8857 53.6903 86.7536 53.5219 86.4633C53.5018 86.4334 53.4825 86.3675 53.4674 86.3678C53.4145 86.3678 53.4329 86.385 53.4703 86.429C53.5308 86.5088 53.5687 86.6037 53.5796 86.7033C53.6069 88.7764 53.6056 90.8478 53.5759 92.9177C53.5612 93.3953 53.5129 93.8712 53.4311 94.3419C52.4924 94.2555 51.599 93.9598 50.6865 93.7514C50.3082 93.6639 50.4002 93.3719 50.4 93.1263C50.397 90.2273 50.3889 87.3281 50.4081 84.4293C50.4302 84.0516 50.2638 83.6873 49.9635 83.457C49.0994 82.7133 48.2689 81.9308 47.4149 81.1544C47.2504 81.3593 47.3274 81.566 47.3274 81.7532C47.3215 85.1557 47.3199 88.5579 47.3228 91.9601C47.3228 92.6228 47.3178 92.6305 46.6885 92.3564C46.028 92.0691 45.3811 91.7493 44.7156 91.4746C44.3416 91.3202 44.2447 91.0849 44.2462 90.689C44.2617 86.6022 44.2512 82.5154 44.263 78.4286C44.2799 78.071 44.1513 77.7217 43.9063 77.4604C43.0282 76.4777 42.1825 75.466 41.2422 74.3694C41.2271 74.6878 41.209 74.896 41.2088 75.1045C41.2072 79.6945 41.2026 84.2848 41.1954 88.8748C41.1954 89.0109 41.4378 89.3523 40.9931 89.3184C40.9509 89.0196 40.9411 88.7171 40.9636 88.4162C40.9623 84.0324 40.954 79.6488 40.9719 75.2652C40.9964 74.6406 40.7799 74.0304 40.3674 73.5608C39.5645 72.5834 38.8178 71.5612 38.1311 70.4989C37.8643 69.962 37.5541 69.4478 37.2042 68.9609C37.1917 68.9458 37.1823 68.9277 37.1697 68.913C37.008 68.7302 36.9702 68.3509 36.6804 68.3949C36.454 68.4292 36.4341 68.77 36.3405 68.9854C35.9114 69.9259 35.4908 70.8689 35.0993 71.8256C34.7057 72.8743 34.2936 73.9156 33.9533 74.9835C33.8103 75.4227 33.6489 75.8555 33.5343 76.3039C33.1281 77.6789 32.7653 79.0651 32.4309 80.4593C32.3832 80.6586 32.4044 80.9149 32.1267 80.988C31.2798 79.9915 30.6213 78.8665 29.9299 77.7633C29.7716 77.5107 29.8709 77.304 29.9321 77.0781C31.0397 72.9902 32.5967 69.0375 34.5747 65.2925C34.7748 64.9933 34.7768 64.6036 34.5799 64.3022C34.0839 63.4324 33.6456 62.5291 33.1841 61.6394C33.0527 61.4557 32.9637 61.2453 32.9234 61.0231C32.8665 61.2565 33.1581 61.4061 33.0765 61.6388C30.931 65.371 29.1745 69.3139 27.8345 73.4051C27.4524 72.8189 27.2989 72.2164 27.092 71.6438C26.0859 68.8599 26.0982 68.8594 27.317 66.1542C28.4709 63.5673 29.7959 61.0601 31.2831 58.6492C31.4972 58.3588 31.5278 57.9721 31.3623 57.6517C30.9526 56.7182 30.5874 55.7651 30.1646 54.7221C28.3371 57.4435 26.7066 60.2924 25.2861 63.2469L25.1065 61.504Z" fill="#EE1D55"/>
<path d="M35.2078 35.2815C37.5176 61.1025 55.2462 82.1613 79.0927 89.2571C78.7646 89.6432 78.3226 89.8326 77.9252 90.0703C75.6181 91.4499 75.6014 91.4795 73.1136 90.4511C53.4427 82.3171 40.5183 68.0314 34.3404 47.5939C33.5078 44.7146 32.8963 41.7758 32.5107 38.8034C32.4534 38.6089 32.4869 38.3992 32.6015 38.2321C33.4173 37.2029 34.2873 36.218 35.2078 35.2815Z" fill="#EE1D55"/>
<path d="M86.3536 36.8669C86.9253 37.637 86.9264 37.6385 86.1699 38.2268C85.7747 38.533 85.3751 38.8355 84.9772 39.1395C84.6085 39.1533 84.846 39.3656 84.8589 39.5041C85.061 40.3419 85.2852 41.1752 85.4573 42.0192C85.5594 42.5199 85.6876 42.5693 86.0824 42.229C86.8417 41.5742 87.6571 40.9852 88.4202 40.3347C88.7264 40.0734 88.881 40.1311 89.0678 40.4395C89.4317 41.0407 89.8041 41.6371 90.1926 42.2226C90.4098 42.5507 90.4038 42.7694 90.05 43.0115C89.5542 43.3499 89.096 43.7446 88.6303 44.1256C88.5328 44.2054 88.358 44.2748 88.4228 44.4484C88.4702 44.5757 88.6209 44.5578 88.7353 44.5891C89.6045 44.8237 90.4677 45.082 91.3428 45.2916C91.6833 45.346 91.965 45.5862 92.0724 45.9138C92.388 46.7606 92.7285 47.5978 93.0537 48.4412C93.1025 48.5678 93.2202 48.7143 93.1301 48.8392C93.005 49.0124 92.8366 48.869 92.6926 48.8305C88.6489 47.759 84.6054 46.6858 80.5624 45.6111C75.6495 44.3023 70.7375 42.9907 65.826 41.6763C65.478 41.5833 65.1298 41.4908 64.7814 41.3987C64.7611 41.2428 64.8827 41.1886 64.9861 41.1435C66.5276 40.4406 68.1259 39.87 69.7641 39.4376C70.1101 39.4947 70.383 39.7698 70.7349 39.7604C70.6037 39.6134 70.0912 39.8391 70.2855 39.3256C70.8464 39.0129 71.4227 38.7611 72.0881 38.8329C72.3601 38.9993 72.3916 39.2945 72.4487 39.5625C72.4984 39.931 72.7877 40.2214 73.156 40.2724C73.9355 40.4307 74.6811 40.7304 75.5224 40.8688C75.4787 40.2007 75.2766 39.6003 75.1454 38.9879C75.0844 38.7036 74.9214 38.4175 75.0999 38.1168C76.0915 37.7161 77.1523 37.5145 78.2218 37.5237C78.5262 38.1201 78.5686 38.7891 78.7285 39.4249C78.8851 40.0471 79.0511 40.6691 79.1602 41.3025C79.2055 41.6938 79.5019 42.0089 79.8896 42.0778C80.53 42.2388 81.1745 42.384 81.8088 42.5688C82.1902 42.6795 82.2878 42.5384 82.1979 42.1819C81.844 40.7805 81.5334 39.3687 81.2137 37.9593C81.1413 37.6398 80.8111 37.5269 80.7614 37.221C80.853 37.1125 80.9878 37.0497 81.1297 37.0488C82.6935 36.9349 84.2607 36.8835 85.8256 36.7844C86.0041 36.7921 86.1812 36.8199 86.3536 36.8669Z" fill="#ABACAC"/>
<path d="M60.522 43.4193C63.6139 44.2504 66.706 45.0815 69.7981 45.9126C77.7445 48.0397 85.6917 50.1625 93.6398 52.2807C94.0234 52.3826 94.2122 52.527 94.2741 52.9401C94.3882 53.6925 94.5308 54.4411 94.6531 55.1928C94.7327 55.6816 94.6697 55.7575 94.1969 55.6263C92.4227 55.1336 90.6391 54.6749 88.8604 54.1999C78.2838 51.3748 67.7073 48.5489 57.1307 45.7221C56.9953 45.686 56.8584 45.6565 56.7222 45.6239C56.6835 45.4391 56.8374 45.3846 56.945 45.3105C57.9677 44.6053 59.0702 44.036 60.15 43.4296C60.2602 43.3668 60.3947 43.2662 60.522 43.4193Z" fill="#ABACAC"/>
<path d="M60.5221 43.4194C59.212 44.0773 57.9429 44.8137 56.7216 45.6244L53.7034 47.6276C53.5433 47.6523 53.486 47.5578 53.4895 47.4222C53.519 46.2764 53.4117 45.1282 53.5466 43.9841C60.7192 39.1036 68.893 35.8903 77.469 34.5796C79.3519 34.2859 81.2489 34.1146 83.1497 33.9825C83.4098 33.9694 83.6615 34.0761 83.8328 34.2721C84.7201 35.0907 85.54 35.9745 86.3523 36.8666C85.727 37.1072 85.0669 37.0022 84.4246 37.0403C83.2186 37.112 82.0098 37.1357 80.8096 37.2916C80.5366 37.6138 80.1386 37.5276 79.7978 37.5645C79.2703 37.6216 78.7388 37.8462 78.2012 37.6122C77.1646 37.741 76.1366 37.9329 75.1231 38.1861C74.1647 38.6008 73.1414 38.8449 72.099 38.9079C71.4796 39.0111 70.8725 39.1769 70.2868 39.403C70.17 39.5391 69.9839 39.5929 69.8124 39.5404C68.0949 40.0462 66.4133 40.6674 64.7793 41.3994C63.3148 41.9722 61.8921 42.6473 60.5221 43.4194Z" fill="#EE1D55"/>
<path d="M53.7811 36.5906C57.1862 34.5534 60.7857 32.8601 64.526 31.5356C68.0512 30.2673 71.6804 29.3102 75.3727 28.6755C75.566 28.6239 75.7716 28.6414 75.9534 28.7252C77.3363 29.4332 78.6673 30.238 79.9367 31.1336C78.7535 31.3068 77.6582 31.4556 76.5666 31.6288C68.6275 32.8833 61.0171 35.7051 54.1791 39.9297C54.0092 40.034 53.8323 40.1265 53.6584 40.2243C53.3959 40.2009 53.4926 39.9926 53.4913 39.8608C53.4823 38.9396 53.4965 38.0179 53.4801 37.0969C53.4423 36.8771 53.5698 36.6624 53.7811 36.5906Z" fill="#EE1D55"/>
<path d="M53.6655 29.6088C56.972 27.8425 60.428 26.3714 63.9934 25.2129C64.6042 25.0122 65.2164 25.2759 65.8196 25.3711C67.4328 25.6221 69.0224 26.0069 70.5719 26.5213C68.5522 27.0322 66.6444 27.5656 64.7663 28.2005C61.0424 29.4572 57.4352 31.0361 53.9855 32.9192C53.8457 32.9955 53.6972 33.0552 53.5529 33.1228C53.407 32.0292 53.5161 30.9313 53.4965 29.8356C53.5026 29.733 53.5691 29.644 53.6655 29.6088Z" fill="#EE1D55"/>
<path d="M57.5273 89.3032C59.5832 90.5975 61.6773 91.8242 63.7909 93.019C63.7448 93.5061 63.6984 93.9934 63.6521 94.4804C63.5316 94.6429 63.5138 94.873 63.2033 94.8761C62.4448 94.884 61.6867 94.9417 60.9287 94.9887C60.5731 95.0106 60.3749 94.9909 60.4862 94.5058C60.6645 93.7274 60.731 92.9239 60.8605 92.1337C60.9143 91.8056 60.8309 91.6744 60.4858 91.7619C59.6724 91.9694 58.858 92.172 58.0422 92.369C57.7977 92.3972 57.6161 92.6094 57.6266 92.8554C57.5853 93.3932 57.4624 93.9243 57.4018 94.4612C57.3675 94.7639 57.2345 94.8986 56.9366 94.8662C56.1436 94.7788 55.3501 94.6941 54.5581 94.5983C54.3786 94.5765 54.2611 94.4748 54.3285 94.2639C54.3362 94.2453 54.3418 94.2259 54.3453 94.2062C54.4341 93.2631 54.4341 93.2631 53.5678 93.4188C53.3907 92.6315 53.5313 91.8328 53.4895 91.0404C53.4779 90.8217 53.4873 90.5999 53.4882 90.3803C53.5083 90.2371 53.619 90.1233 53.7616 90.0993C54.9 89.7504 56.06 89.4766 57.2343 89.2798C57.3325 89.2649 57.4329 89.2728 57.5273 89.3032Z" fill="#ABACAC"/>
<path d="M53.4373 29.5638C53.4394 28.219 53.4418 26.8739 53.4445 25.5291C55.3562 25.1304 57.3082 24.9559 59.2604 25.0094C58.1008 25.7778 56.9412 26.5461 55.7814 27.3144C55.2639 27.6567 54.7626 28.0292 54.2207 28.3262C53.713 28.6044 53.4228 28.9565 53.507 29.5553C53.4926 29.6325 53.469 29.6316 53.4373 29.5638Z" fill="#ABABAC"/>
<path d="M28.3419 49.053C28.9843 50.3434 28.969 51.5371 27.868 52.6053C27.6206 52.8891 27.3993 53.1947 27.2064 53.5181L25.5411 54.5358C25.7238 53.1507 26.016 51.7822 26.4147 50.4433C26.4921 50.1809 26.7427 50.1004 26.9345 49.9685C27.3956 49.6516 27.8719 49.3568 28.3419 49.053Z" fill="#ABACAC"/>
<path d="M53.781 36.5908C53.6949 36.7382 53.537 36.8314 53.5405 37.0453C53.5545 38.0371 53.547 39.0294 53.5553 40.0215C53.5553 40.0895 53.6227 40.1569 53.6588 40.2244L53.4412 40.5072C53.4412 39.1928 53.4416 37.8781 53.4427 36.5635C53.5488 36.6536 53.666 36.6085 53.781 36.5908Z" fill="#EF4464"/>
<path d="M53.5472 43.9839C53.5472 44.9985 53.542 46.0131 53.5472 47.0277C53.5483 47.2364 53.4742 47.4748 53.7038 47.6274L53.5138 47.887L53.477 47.88L53.4401 47.8864C53.442 46.5667 53.4438 45.2472 53.4455 43.9277C53.4853 43.9328 53.5219 43.9529 53.5472 43.9839Z" fill="#EF4263"/>
<path d="M53.4373 29.5638C53.4604 29.5732 53.4867 29.5701 53.5072 29.5557L53.6656 29.6088C53.427 30.1046 53.57 30.6319 53.5512 31.1439C53.5269 31.8027 53.5501 32.463 53.5527 33.1226L53.4451 33.2654C53.4425 32.0321 53.4399 30.7984 53.4373 29.5638Z" fill="#EF4263"/>
<path d="M84.8587 39.504C84.6535 39.3264 84.7804 39.0716 84.6909 38.854C84.9282 38.8299 84.8221 39.1108 84.977 39.1383L84.8587 39.504Z" fill="#B1B2B2"/>
<path d="M38.1365 70.3306C38.8935 71.3312 39.603 72.3733 40.4233 73.3186C41.0101 73.9946 41.1519 74.7045 41.1451 75.5641C41.1123 79.9231 41.1315 84.2825 41.1256 88.6418C41.1256 88.8694 41.2229 89.1301 40.992 89.3174C40.0771 88.7568 39.2001 88.137 38.3664 87.4618C38.1761 87.3164 38.0777 87.0804 38.1083 86.8429C38.1096 86.0848 38.096 85.3268 38.0882 84.5683C37.9753 84.4025 37.9241 84.2022 37.9436 84.0025C37.9338 83.0489 37.9368 82.0954 37.941 81.1418C37.9491 80.9229 37.9994 80.7074 38.089 80.5075C38.088 79.2069 38.0866 77.9064 38.0855 76.6058C37.9657 76.4172 37.9147 76.1933 37.941 75.9715C37.941 74.6623 37.9191 73.3529 37.9508 72.0437C37.9963 71.4714 37.7815 70.8708 38.1365 70.3306Z" fill="#ED1A47"/>
<path d="M38.0862 72.0287C38.0862 73.5551 38.0862 75.0814 38.0862 76.6076C36.3309 77.9988 34.5812 79.3974 32.8112 80.7701C32.6406 80.9013 32.4809 81.3387 32.1271 80.9859C32.5468 79.4099 32.8552 77.8037 33.403 76.2618C33.8872 75.7925 34.3507 75.2953 34.9979 75.0405C35.2505 74.9797 35.5112 74.9601 35.7699 74.9828C35.4792 74.9581 35.1864 74.9804 34.9027 75.0484C34.5298 75.0943 34.1508 75.1906 33.8264 74.8968C34.1547 73.847 34.5394 72.8158 34.9793 71.8078C36.0177 71.6315 37.0832 71.7074 38.0862 72.0287Z" fill="#ABACAC"/>
<path d="M38.0894 80.509C38.0894 81.8626 38.0894 83.216 38.0894 84.5691C37.4072 84.6284 36.7629 84.8607 36.102 85.0153C35.8762 85.1078 35.6171 85.0494 35.4526 84.8694C34.8159 84.1735 34.1732 83.4833 33.524 82.7989C33.297 82.5583 33.3989 82.4709 33.6673 82.4175C33.9805 82.3547 34.286 82.2425 34.6014 82.2029C35.9195 82.0402 37.1463 81.4442 38.0894 80.509Z" fill="#ABACAC"/>
<path d="M53.5623 90.2789C53.5636 91.3259 53.5649 92.373 53.5664 93.4202C53.4496 93.7168 53.6517 94.0608 53.4313 94.3418C53.4385 91.7009 53.4457 89.0605 53.4531 86.4202C53.4733 86.3559 53.5043 86.3465 53.5481 86.4014L54.2667 86.9764C53.7886 87.2789 53.7117 87.7261 53.7095 88.2622C53.7053 88.9336 53.8755 89.6276 53.5623 90.2789Z" fill="#C1A0A4"/>
<path d="M33.0758 61.6366C33.0056 61.4345 32.8293 61.2716 32.8571 60.9429C33.0382 61.1331 33.1532 61.3766 33.1851 61.6373L33.1309 61.6318L33.0758 61.6366Z" fill="#EF3C60"/>
<path d="M54.9966 66.7259C54.4524 66.1826 53.9544 65.5949 53.5081 64.969C53.5146 64.8483 53.5266 64.7284 53.5277 64.6075C53.5378 63.5347 53.5378 63.5203 54.6344 63.5714C57.9745 63.7274 61.3151 63.8796 64.6537 64.064C67.0527 64.1965 69.4513 64.3323 71.8521 64.4332C72.6716 64.4675 73.4924 64.5206 74.3121 64.5403C74.7388 64.5508 75.0013 64.7024 75.0776 65.1814C75.1869 65.8535 75.3556 66.5175 75.5305 67.1766C75.6281 67.5443 75.5625 67.7037 75.1528 67.6816C72.8741 67.5589 70.5949 67.4422 68.3153 67.3317C67.3952 67.286 66.4749 67.2593 65.5546 67.2079C62.5952 67.0426 59.6321 66.9455 56.6717 66.7978C56.1142 66.7705 55.5591 66.6699 54.9966 66.7259Z" fill="white"/>
<path d="M61.7723 73.2388C60.4591 72.2484 59.2274 71.1545 58.089 69.9675C61.1896 70.0653 64.2872 70.2252 67.3841 70.4224C68.3429 70.4835 69.3037 70.48 70.2645 70.5471C72.1612 70.6783 74.0633 70.7389 75.9639 70.8058C76.2114 70.773 76.4389 70.9473 76.4715 71.1949C76.4735 71.2098 76.4748 71.2249 76.4752 71.24C76.6305 71.986 76.8199 72.725 77.0038 73.4649C77.0966 73.838 76.9725 73.9773 76.5852 73.9537C74.6282 73.8345 72.6703 73.735 70.7129 73.616C69.8735 73.5651 69.0334 73.5697 68.1925 73.5146C66.0548 73.3744 63.9123 73.3247 61.7723 73.2388Z" fill="white"/>
<path d="M60.1654 55.0801C58.9728 55.8908 57.8952 56.8516 56.7603 57.7365C55.7079 58.5575 54.6688 59.3956 53.5306 60.3002C53.5306 58.988 53.5317 57.7905 53.5306 56.5924C53.5306 56.358 53.6872 56.2362 53.846 56.1113C55.2917 54.9668 56.7415 53.8273 58.1776 52.6706C58.3274 52.5067 58.5651 52.4569 58.7681 52.5465C58.8451 52.5684 58.9236 52.5846 59.003 52.5949C60.6105 53.0141 60.6098 53.0144 60.3071 54.661C60.2938 54.7608 60.2855 54.8609 60.2826 54.9615C60.2618 55.0156 60.2192 55.0586 60.1654 55.0801Z" fill="white"/>
<path d="M64.6539 61.0146C64.0548 60.9774 63.4562 60.9271 62.8568 60.9085C62.5635 60.8993 62.4972 60.8239 62.5464 60.5148C62.8336 58.7133 63.0682 56.9033 63.367 55.1038C63.5818 53.8103 63.6203 53.7937 64.8813 54.1714C65.4137 54.3308 66.1389 54.2687 66.4316 54.6963C66.7054 55.0965 66.3583 55.7295 66.2914 56.259C66.1164 57.6508 65.848 59.0318 65.6914 60.4254C65.6046 61.1992 65.0994 60.9999 64.6539 61.0146Z" fill="white"/>
<path d="M71.6133 79.6192C70.2133 78.9806 68.8711 78.2221 67.6019 77.3521C68.1671 77.2208 68.7425 77.1239 69.295 76.9525C70.2205 76.6651 71.1457 76.7338 72.0894 76.8099C73.3067 76.9083 74.5309 76.9216 75.7515 76.9792C76.2676 77.0404 76.7873 77.0697 77.3071 77.0666C77.834 77.0253 77.8977 77.3444 77.9703 77.7048C78.0667 78.1873 77.6332 78.0926 77.4196 78.1471C75.5776 78.6164 73.728 79.056 71.8814 79.5074C71.7891 79.5376 71.6997 79.575 71.6133 79.6192Z" fill="white"/>
<path d="M72.4614 56.5843C72.2265 58.0704 71.9851 59.5554 71.7616 61.0433C71.7156 61.3495 71.5464 61.4096 71.3023 61.3556C70.6483 61.2473 69.9839 61.2169 69.3227 61.2655C68.8121 61.2749 68.6386 61.1102 68.7226 60.6054C68.9135 59.4579 69.0833 58.3066 69.2593 57.1564C69.326 56.7201 69.3945 56.284 69.4465 55.8459C69.4828 55.5397 69.5996 55.4218 69.924 55.515C70.6551 55.7243 71.3941 55.906 72.1299 56.0987C72.3412 56.1204 72.4951 56.3091 72.4735 56.5206C72.4713 56.542 72.4671 56.5635 72.4614 56.5843Z" fill="white"/>
<path d="M79.0927 82.7578C78.0963 82.4704 77.1224 82.11 76.1791 81.6793C76.8814 81.3933 77.6335 81.2944 78.3596 81.0969C78.5333 81.0241 78.7329 81.1059 78.8056 81.2795C78.8226 81.3202 78.8316 81.3638 78.832 81.4077C78.9118 81.8589 79.0052 82.3079 79.0927 82.7578Z" fill="#FDFCFC"/>
<path d="M59.5035 59.5071C59.6164 60.7469 59.5473 60.8036 58.1628 60.6131C58.5729 60.2019 59.0219 59.8314 59.5035 59.5071Z" fill="#F6F6F5"/>
<path d="M53.476 52.3647C53.4781 51.971 53.4803 51.5769 53.4827 51.1824C53.8696 51.2099 54.4129 51.185 54.529 51.5157C54.6323 51.8096 54.0551 51.9507 53.8292 52.2127C53.7364 52.3175 53.6352 52.4141 53.476 52.3647Z" fill="#FBF1F0"/>
<path d="M60.1654 55.0799L60.2822 54.9607C60.2732 55.6135 60.1722 56.262 59.9819 56.8866C59.906 56.2712 60.0709 55.6785 60.1654 55.0799Z" fill="#B0B1B1"/>
<path d="M60.9284 60.7473C60.6399 60.9612 60.3348 60.8694 59.9254 60.9092C60.2977 60.5105 60.6277 60.7226 60.9284 60.7473Z" fill="#B0B1B1"/>
<path d="M74.3121 62.1478C74.2434 61.4963 73.8047 61.4176 73.2732 61.4825C74.246 61.289 74.3825 61.3789 74.3121 62.1478Z" fill="#B2B3B3"/>
<path d="M73.6215 58.9493C73.3993 58.5381 73.2897 58.0753 73.3037 57.6082C73.5125 58.0244 73.6215 58.4836 73.6215 58.9493Z" fill="#B1B2B2"/>
<path d="M55.6265 60.5194C55.3658 60.6826 55.0395 60.699 54.7637 60.5631C55.0834 60.3134 55.3592 60.4507 55.6265 60.5194Z" fill="#B0B1B1"/>
<path d="M80.0999 58.2844C80.4977 58.2494 80.8968 58.3361 81.2444 58.5327C80.8907 58.5771 80.5699 58.4763 80.0999 58.2844Z" fill="#B1B2B2"/>
<path d="M75.964 57.1323C75.5248 57.1364 75.0911 57.033 74.7012 56.8307C75.1432 56.7968 75.585 56.9022 75.964 57.1323Z" fill="#B1B2B2"/>
<path d="M91.951 69.7163L92.2264 70.7845C91.916 70.4916 91.9412 70.1054 91.951 69.7163Z" fill="#B1B2B2"/>
<path d="M67.6139 76.5918H66.8158L66.8141 76.5312H67.6124L67.6139 76.5918Z" fill="#B5B6B6"/>
<path d="M68.8317 76.7006H68.1238L68.1249 76.6446H68.8328L68.8317 76.7006Z" fill="#B3B4B4"/>
<path d="M66.8143 61.0816C67.0639 61.002 67.332 61.0007 67.5822 61.0781C67.3329 61.1597 67.0643 61.1608 66.8143 61.0816Z" fill="#B4B4B5"/>
<path d="M62.1877 60.877H61.5097L61.5082 60.8164H62.1975L62.1877 60.877Z" fill="#B5B6B6"/>
<path d="M56.8845 60.6317H56.2021C56.4152 60.5174 56.6715 60.5174 56.8845 60.6317Z" fill="#B5B6B6"/>
<path d="M54.246 60.4601C54.0592 60.5502 53.8442 60.562 53.6487 60.4929C53.8615 60.3409 54.0616 60.4601 54.246 60.4601Z" fill="#B5B6B7"/>
<path d="M50.9352 61.614C51.2595 61.714 51.2926 62.0223 51.4555 62.238C51.1325 62.1369 51.0988 61.829 50.9352 61.614Z" fill="#EE365D"/>
<path d="M45.694 51.9197L45.9805 52.5213C45.7441 52.4247 45.6198 52.1642 45.694 51.9197Z" fill="#EE375E"/>
<path d="M46.7688 54.4425C46.6102 54.2927 46.5206 54.084 46.521 53.866C46.7091 53.9933 46.8058 54.2185 46.7688 54.4425Z" fill="#EE365E"/>
<path d="M52.8973 64.1705C52.6807 64.1171 52.5119 63.9474 52.4598 63.7305C52.6665 63.8007 52.8284 63.9636 52.8973 64.1705Z" fill="#EE355D"/>
<path d="M52.058 63.0722C51.8692 63.0741 51.7955 62.9696 51.764 62.8005C51.9712 62.8032 51.9957 62.9534 52.058 63.0722Z" fill="#EF385E"/>
<path d="M45.004 50.4723C44.8638 50.2072 44.7129 50.0865 44.801 49.875C44.9913 50.006 44.986 50.1972 45.004 50.4723Z" fill="#EF395E"/>
<path d="M44.9819 50.2913C45.1226 50.5583 45.275 50.6782 45.1862 50.8896C44.9935 50.7595 45.0016 50.5679 44.9819 50.2913Z" fill="#EE375D"/>
<path d="M53.5624 90.2788C53.5536 89.362 53.5576 88.4449 53.5311 87.5286C53.5149 86.9639 53.9372 87.0474 54.266 86.9763L57.5273 89.3032L53.5624 90.2788Z" fill="#FFFDFD"/>
<path d="M37.277 68.8711C36.9371 68.8652 36.5975 68.8589 36.2578 68.8525C36.3803 68.5835 36.5025 68.3152 36.6515 67.9875C36.9209 68.2338 37.1344 68.5352 37.277 68.8711Z" fill="#B4A9AA"/>
<path d="M47.2314 80.856L45.8273 79.4429L45.78 79.4888L47.1242 80.9616L47.2314 80.856Z" fill="#EE355C"/>
<path d="M29.6983 53.5546L29.3265 52.4663L29.4455 52.4226L29.8304 53.4943L29.6983 53.5546Z" fill="#EE375E"/>
<path d="M50.6279 84.051C50.8587 84.0729 50.9525 84.2371 51.1552 84.4666C50.9195 84.4283 50.7202 84.2713 50.6279 84.051Z" fill="#EE365D"/>
<path d="M51.8588 85.0737C52.1318 85.0866 52.2543 85.2835 52.4653 85.5674C52.2051 85.491 51.9863 85.3134 51.8584 85.0744L51.8588 85.0737Z" fill="#EE345C"/>
<path d="M31.9853 59.0862C31.701 58.9661 31.7504 58.6877 31.6879 58.4624C31.9013 58.6155 31.9284 58.858 31.9857 59.0857L31.9853 59.0862Z" fill="#EE365E"/>
<path d="M51.8575 85.0745C51.6595 85.0655 51.4874 84.9365 51.4231 84.749C51.6191 84.7628 51.789 84.8897 51.8579 85.0738L51.8575 85.0745Z" fill="#EE375E"/>
<path d="M53.5471 86.4012C53.5178 86.4163 53.4849 86.4226 53.4521 86.42C53.3242 86.3411 53.1663 86.2888 53.1519 86.0869C53.3778 86.0876 53.4515 86.2582 53.5471 86.4012Z" fill="#EF395E"/>
<path d="M31.9857 59.0857C32.1502 59.2001 32.2285 59.4028 32.1837 59.5981C32.0304 59.4754 31.9547 59.2799 31.9853 59.0859L31.9857 59.0857Z" fill="#EF385E"/>
<path d="M78.2019 37.6121L80.81 37.2915C81.0458 37.2526 81.2684 37.4118 81.3076 37.6476C81.3091 37.6565 81.3102 37.6655 81.3111 37.6745C81.6743 39.273 82.0608 40.8663 82.4311 42.4642C82.4967 42.7472 82.465 42.9388 82.0717 42.8235C81.2492 42.5829 80.4159 42.3789 79.5887 42.153C79.3783 42.0954 79.1513 42.0397 79.0993 41.7729C78.8313 40.3786 78.3944 39.0219 78.2019 37.6121Z" fill="white"/>
<path d="M72.0999 38.907C73.0832 38.5726 74.0954 38.331 75.1237 38.1853C75.3173 39.0203 75.5056 39.8567 75.7064 40.69C75.7836 41.0108 75.7361 41.1379 75.3678 41.0298C74.5853 40.8006 73.8001 40.5747 73.0047 40.4C72.5946 40.3098 72.3748 40.1375 72.3223 39.7101C72.2689 39.4372 72.1946 39.1686 72.0999 38.907Z" fill="#FFFEFE"/>
<path d="M69.8135 39.5396C69.9718 39.4958 70.0998 39.3427 70.2879 39.4022C70.3375 39.7686 70.7747 39.5286 70.9057 39.8361C70.5193 39.8563 70.1367 39.7524 69.8135 39.5396Z" fill="#B1B2B1"/>
<path d="M83.8983 43.3614C84.2371 43.2768 84.5956 43.3702 84.8499 43.6092L83.8983 43.3614Z" fill="#B1B1B1"/>
<path d="M84.5293 37.9917C84.6949 38.1199 84.7662 38.3357 84.7093 38.5374C84.4864 38.4361 84.4954 38.2568 84.5293 37.9917Z" fill="#B1B2B2"/>
<path d="M84.3796 37.4604C84.5062 37.537 84.565 37.6302 84.5132 37.7448C84.5104 37.7509 84.4308 37.7391 84.427 37.7251C84.4039 37.638 84.3931 37.5488 84.3796 37.4604Z" fill="#B1B2B2"/>
<path d="M56.5484 92.7334C56.2597 93.0206 55.8485 92.8917 55.5076 93.0372C55.8076 92.7933 56.1722 92.7649 56.5484 92.7334Z" fill="#B1B2B2"/>
<path d="M34.9773 75.1554C34.9806 75.0786 34.9841 75.0021 34.9874 74.9253H35.8099C35.5438 75.0655 35.2336 75.0003 34.9773 75.1554Z" fill="#B6B6B7"/>
<path d="M37.2873 75.0917C36.9718 75.1788 36.6395 75.1864 36.3204 75.1136C36.636 75.0268 36.9683 75.0191 37.2873 75.0917Z" fill="#B2B4B3"/>
</svg>
