<svg width="120" height="120" viewBox="0 0 120 120" fill="none" xmlns="http://www.w3.org/2000/svg">
<path d="M60 120C93.138 120 120 93.138 120 60C120 26.862 93.138 0 60 0C26.862 0 0 26.862 0 60C0 93.138 26.862 120 60 120Z" fill="#EDF0F4"/>
<path d="M25.0287 44.5693L37.2423 71.8877L57.5389 91.9905L37.4205 29.663L25.0287 44.5693Z" fill="#9C2131"/>
<path d="M25.0287 44.5692L46.3059 57.2485L37.4205 29.6332L25.0287 44.5692Z" fill="#576B98"/>
<path d="M44.9376 28L51.9804 49.8547L56.3785 51.4285L61.5493 35.0375L44.9376 28Z" fill="#D71B2A"/>
<path d="M95.5168 48.5784L85.7698 62.1485L63.4229 54.042L69.7821 34.5331L87.0475 30.1384L95.5168 48.5784Z" fill="#C41A24"/>
<path d="M81.1638 68.5617L65.2654 90.4163L55.0131 59.1189L81.1638 68.5617Z" fill="#C71C26"/>
<path d="M53.9449 37.1758L56.3816 51.4289L61.5523 35.0378L53.9449 37.1758Z" fill="#A71927"/>
<path d="M51.8942 49.8547L56.3814 51.4285L53.9447 37.1754L44.9704 28L51.8942 49.8547Z" fill="#61395F"/>
<path d="M46.3067 57.249L37.2135 71.888L25 44.5696L46.3067 57.249Z" fill="#614268"/>
<path d="M69.7526 34.5326L77.8652 47.0041L63.4229 54.0415L69.7526 34.5326Z" fill="#DA1728"/>
<path d="M87.02 30.1384L77.8375 47.0047L69.7249 34.5331L87.02 30.1384Z" fill="#E42735"/>
<path d="M85.7722 62.148L77.8676 47.0338L95.549 48.6076L85.7722 62.148Z" fill="#A61D1E"/>
<path d="M65.8329 71.2044L65.2385 90.4163L54.9863 59.1189L65.8329 71.2044Z" fill="#D71B2A"/>
<path d="M65.2674 90.4171L65.8616 71.2051L81.1955 68.5623L65.2674 90.4171Z" fill="#A51C1C"/>
<path d="M57.6272 91.99L37.212 71.8872L51.8622 74.619L57.6272 91.99Z" fill="#721919"/>
</svg>
