<svg width="120" height="120" viewBox="0 0 120 120" fill="none" xmlns="http://www.w3.org/2000/svg">
<circle cx="60" cy="60" r="60" fill="#EDF0F4"/>
<path d="M60.7281 35.1552C60.7281 35.1552 67.2804 37.7761 72.959 50.735C73.6507 53.0096 74.0901 55.3534 74.2694 57.7241C74.2694 57.7241 74.5606 66.3148 68.2996 68.9357C66.6512 69.4109 65.5986 71.0207 65.8243 72.7214C66.1155 75.7791 66.698 80.5841 66.698 81.6033C66.5143 83.3221 65.0774 84.634 63.349 84.661C61.176 84.9715 58.9698 84.9715 56.7968 84.661C54.6127 84.0786 54.3215 82.9138 54.3215 82.9138C54.3215 82.9138 53.3023 81.4577 54.0303 75.0511C54.0303 75.0511 55.4864 70.5373 51.2638 68.7901C47.0412 67.0428 45.5852 59.3257 45.5852 59.3257C45.5852 59.3257 44.2747 51.7542 52.4286 41.1251C52.4286 41.1251 57.5248 34.7184 60.5825 35.0096" fill="url(#paint0_linear_1_5908)"/>
<path d="M53.1567 39.3633L52.7199 39.8001L53.1567 39.3633Z" fill="url(#paint1_linear_1_5908)"/>
<path d="M49.6621 43.8916C47.4255 42.3077 44.9041 41.1705 42.2363 40.5427C39.5556 39.9719 36.8232 39.6792 34.0824 39.669H32.1895C30.9102 39.6216 29.6785 40.1572 28.8406 41.1251C28.096 42.0132 27.8249 43.2057 28.1126 44.3284C28.9882 50.3443 31.6224 55.9672 35.684 60.4906C37.7245 62.656 40.0228 64.5631 42.5275 66.1692C45.1117 67.6597 47.9115 68.7404 50.827 69.3725C46.4588 67.4796 45.0028 59.617 45.0028 59.617C40.7802 56.9961 38.0137 53.0647 35.9752 47.2405H36.1209C39.8201 47.3224 43.4142 48.4867 46.4588 50.5894C47.1633 48.2006 48.2447 45.9395 49.6621 43.8916Z" fill="url(#paint2_linear_1_5908)"/>
<path d="M73.3958 50.5894C76.4314 48.4686 80.0312 47.3024 83.7338 47.2405H83.8794C81.8409 53.0647 78.9288 56.996 74.7062 59.6169V58.7433C74.5606 61.073 73.687 67.334 68.5908 69.5181C71.6592 68.8624 74.6067 67.7325 77.3271 66.1692C79.9503 64.7312 82.2734 62.8035 84.1706 60.4906C88.1212 55.8945 90.7394 50.3055 91.7421 44.3284C92.0297 43.2057 91.7587 42.0132 91.014 41.1251C90.1365 40.2125 88.9309 39.6884 87.6651 39.669H85.7722C83.0307 39.6641 80.2967 39.957 77.6183 40.5426C74.8774 41.1635 72.2977 42.3542 70.0469 44.0372C71.3788 46.1041 72.5007 48.2991 73.3958 50.5894Z" fill="url(#paint3_linear_1_5908)"/>
<defs>
<linearGradient id="paint0_linear_1_5908" x1="45.4396" y1="84.8928" x2="74.1966" y2="84.8928" gradientUnits="userSpaceOnUse">
<stop stop-color="#29DCE8"/>
<stop offset="1" stop-color="#29DC93"/>
</linearGradient>
<linearGradient id="paint1_linear_1_5908" x1="52.7344" y1="84.8358" x2="53.113" y2="84.8358" gradientUnits="userSpaceOnUse">
<stop stop-color="#29DCE8"/>
<stop offset="1" stop-color="#29DC93"/>
</linearGradient>
<linearGradient id="paint2_linear_1_5908" x1="28.1999" y1="84.4735" x2="50.8707" y2="84.4735" gradientUnits="userSpaceOnUse">
<stop stop-color="#29DCE8"/>
<stop offset="1" stop-color="#29DC93"/>
</linearGradient>
<linearGradient id="paint3_linear_1_5908" x1="68.6345" y1="84.4734" x2="91.7421" y2="84.4734" gradientUnits="userSpaceOnUse">
<stop stop-color="#29DCE8"/>
<stop offset="1" stop-color="#29DC93"/>
</linearGradient>
</defs>
</svg>
