<svg width="120" height="120" viewBox="0 0 120 120" fill="none" xmlns="http://www.w3.org/2000/svg">
<circle cx="60" cy="60" r="60" fill="#E7EFF3"/>
<path fill-rule="evenodd" clip-rule="evenodd" d="M42.7116 49.0908H47.8796V43.924C47.8796 42.0904 46.3932 40.604 44.5596 40.604H42.7116C41.8309 40.6034 40.9861 40.9529 40.3633 41.5757C39.7405 42.1985 39.391 43.0433 39.3916 43.924V45.7708C39.3916 47.6044 40.878 49.0908 42.7116 49.0908ZM72.1196 49.0908H77.2872C79.1203 49.0908 80.6065 47.6051 80.6072 45.772V43.924C80.6072 42.0904 79.1208 40.604 77.2872 40.604H75.4396C73.606 40.604 72.1196 42.0904 72.1196 43.924V49.0908ZM44.5596 80.606H42.712C41.8315 80.606 40.987 80.2562 40.3644 79.6336C39.7418 79.011 39.392 78.1665 39.392 77.286V75.44C39.392 74.5595 39.7418 73.715 40.3644 73.0924C40.987 72.4698 41.8315 72.12 42.712 72.12H47.8796V77.286C47.8796 79.1196 46.3932 80.606 44.5596 80.606ZM75.4396 80.606H77.2872L77.286 80.608C79.1196 80.608 80.606 79.1216 80.606 77.288V75.44C80.606 73.6064 79.1196 72.12 77.286 72.12H72.1196V77.286C72.1196 79.1196 73.606 80.606 75.4396 80.606Z" fill="#005FFF"/>
<path fill-rule="evenodd" clip-rule="evenodd" d="M59.6821 40.606H61.5301L61.5297 40.608C63.3633 40.608 64.8497 39.1216 64.8497 37.288V35.44C64.8497 33.6064 63.3633 32.12 61.5297 32.12H59.6821C57.8485 32.12 56.3621 33.6064 56.3621 35.44V37.286C56.3621 39.1196 57.8485 40.606 59.6821 40.606ZM59.6821 89.0908H61.5297C63.3633 89.0908 64.8497 87.6044 64.8497 85.7708V83.9228C64.8497 82.0892 63.3633 80.6028 61.5297 80.6028H59.6821C57.8485 80.6028 56.3621 82.0892 56.3621 83.9228V85.7708C56.3621 87.6044 57.8485 89.0908 59.6821 89.0908ZM85.7725 64.8484H83.9249C82.0913 64.8484 80.6049 63.362 80.6049 61.5284V59.68C80.6049 57.8464 82.0913 56.36 83.9249 56.36H85.7725C87.6061 56.36 89.0925 57.8464 89.0925 59.68V61.528C89.0925 63.3616 87.6061 64.848 85.7725 64.848V64.8484ZM35.4401 64.8484H37.2877V64.848C39.1213 64.848 40.6077 63.3616 40.6077 61.528V59.68C40.6077 58.7995 40.2579 57.955 39.6353 57.3324C39.0127 56.7098 38.1682 56.36 37.2877 56.36H35.4401C33.6065 56.36 32.1201 57.8464 32.1201 59.68V61.5284C32.1201 63.362 33.6065 64.8484 35.4401 64.8484Z" fill="#00CCEE"/>
<path fill-rule="evenodd" clip-rule="evenodd" d="M45.7389 27.4576C44.5023 27.97 43.9153 29.3878 44.4277 30.6243C44.9404 31.8606 46.3579 32.4475 47.5945 31.9355C48.831 31.4231 49.418 30.0053 48.9056 28.7688C48.3932 27.5322 46.9754 26.9452 45.7389 27.4576ZM71.1913 89.276C69.9547 89.7884 69.3677 91.2062 69.8801 92.4427C70.3928 93.679 71.8103 94.2659 73.0469 93.754C74.2834 93.2415 74.8704 91.8237 74.358 90.5872C73.8456 89.3506 72.4278 88.7636 71.1913 89.276ZM91.2305 50.1199C89.9939 50.6323 88.5761 50.0453 88.0637 48.8087C87.5513 47.5722 88.1383 46.1544 89.3749 45.642C90.6114 45.1296 92.0293 45.7166 92.5417 46.9531C93.0536 48.1897 92.4667 49.6072 91.2305 50.1199ZM27.4577 74.2611C27.9701 75.4977 29.3879 76.0847 30.6245 75.5723C31.8607 75.0596 32.4476 73.6421 31.9357 72.4055C31.4233 71.169 30.0054 70.582 28.7689 71.0944C27.5323 71.6068 26.9453 73.0246 27.4577 74.2611Z" fill="#005FFF"/>
<path fill-rule="evenodd" clip-rule="evenodd" d="M74.3604 30.6244C73.8481 31.8609 72.4304 32.448 71.1938 31.9358C69.9572 31.4235 69.37 30.0058 69.8823 28.7692C70.3945 27.5326 71.8122 26.9454 73.0488 27.4576C73.6428 27.7035 74.1147 28.1753 74.3607 28.7692C74.6067 29.3632 74.6066 30.0305 74.3604 30.6244ZM27.4586 46.9533C26.9463 48.1899 27.5334 49.6076 28.77 50.12C29.3639 50.3661 30.0312 50.3662 30.6251 50.1202C31.2191 49.8742 31.6909 49.4023 31.9368 48.8084C32.449 47.5718 31.8618 46.1541 30.6252 45.6418C29.3886 45.1296 27.9709 45.7168 27.4586 46.9533ZM88.0646 72.4057C87.5523 73.6423 88.1395 75.06 89.376 75.5724C89.9699 75.8185 90.6372 75.8186 91.2311 75.5726C91.8251 75.3266 92.2969 74.8547 92.5428 74.2608C93.055 73.0242 92.4678 71.6065 91.2312 71.0942C89.9946 70.582 88.5769 71.1692 88.0646 72.4057ZM45.7398 93.7542C46.9764 94.2664 48.3941 93.6793 48.9064 92.4428C49.1526 91.8489 49.1527 91.1816 48.9067 90.5876C48.6607 89.9937 48.1888 89.5219 47.5948 89.276C46.3582 88.7638 44.9405 89.351 44.4283 90.5876C43.916 91.8242 44.5032 93.2419 45.7398 93.7542Z" fill="#002DAE"/>
<path fill-rule="evenodd" clip-rule="evenodd" d="M87.5234 34.1904C87.1768 34.537 86.6555 34.6407 86.2026 34.4531C85.7497 34.2655 85.4544 33.8236 85.4544 33.3334C85.4544 32.8432 85.7497 32.4012 86.2026 32.2136C86.6555 32.026 87.1768 32.1297 87.5234 32.4764C87.7508 32.7036 87.8786 33.0119 87.8786 33.3334C87.8786 33.6548 87.7508 33.9631 87.5234 34.1904ZM31.0015 32.8695C30.8139 33.3224 30.9176 33.8437 31.2642 34.1904C31.4915 34.4178 31.7997 34.5455 32.1212 34.5455C32.4427 34.5455 32.751 34.4178 32.9782 34.1904C33.3249 33.8437 33.4286 33.3224 33.241 32.8695C33.0534 32.4166 32.6114 32.1213 32.1212 32.1213C31.631 32.1213 31.1891 32.4166 31.0015 32.8695ZM85.5467 87.4147C85.3591 87.8676 85.4628 88.3889 85.8094 88.7356C86.0367 88.963 86.3449 89.0907 86.6664 89.0907C86.9879 89.0907 87.2962 88.963 87.5234 88.7356C87.8701 88.3889 87.9738 87.8676 87.7862 87.4147C87.5986 86.9618 87.1566 86.6665 86.6664 86.6665C86.1762 86.6665 85.7343 86.9618 85.5467 87.4147ZM31.6574 88.9983C32.1103 89.1859 32.6316 89.0822 32.9782 88.7356C33.2056 88.5083 33.3334 88.2 33.3334 87.8786C33.3334 87.5571 33.2056 87.2488 32.9782 87.0216C32.6316 86.6749 32.1103 86.5712 31.6574 86.7588C31.2045 86.9464 30.9092 87.3884 30.9092 87.8786C30.9092 88.3688 31.2045 88.8107 31.6574 88.9983Z" fill="#0099C0"/>
<path d="M98.7882 61.212C98.1188 61.212 97.5762 60.6693 97.5762 60C97.5762 59.3306 98.1188 58.788 98.7882 58.788C99.4575 58.788 100 59.3306 100 60C100 60.6692 99.4574 61.2117 98.7882 61.212Z" fill="#0029C0"/>
<mask id="mask0_1_5140" style="mask-type:luminance" maskUnits="userSpaceOnUse" x="20" y="58" width="3" height="4">
<path fill-rule="evenodd" clip-rule="evenodd" d="M20 61.212V58.788H22.4244V61.212H20Z" fill="white"/>
</mask>
<g mask="url(#mask0_1_5140)">
<path d="M21.212 61.212C20.5426 61.212 20 60.6693 20 60C20 59.3306 20.5426 58.788 21.212 58.788C21.8814 58.788 22.424 59.3306 22.424 60C22.4238 60.6692 21.8813 61.2117 21.212 61.212Z" fill="#0029C0"/>
</g>
<path d="M61.2121 21.212C61.2121 21.8814 60.6695 22.424 60.0001 22.424C59.3307 22.424 58.7881 21.8814 58.7881 21.212C58.7881 20.5426 59.3307 20 60.0001 20C60.6694 20.0002 61.2119 20.5427 61.2121 21.212Z" fill="#0029C0"/>
<mask id="mask1_1_5140" style="mask-type:luminance" maskUnits="userSpaceOnUse" x="58" y="97" width="4" height="3">
<path fill-rule="evenodd" clip-rule="evenodd" d="M61.2121 100H58.7881V97.5756H61.2121V100Z" fill="white"/>
</mask>
<g mask="url(#mask1_1_5140)">
<path d="M61.2121 98.7879C61.2121 99.4573 60.6695 99.9999 60.0001 99.9999C59.3307 99.9999 58.7881 99.4573 58.7881 98.7879C58.7881 98.1186 59.3307 97.5759 60.0001 97.5759C60.6694 97.5761 61.2119 98.1187 61.2121 98.7879Z" fill="#0029C0"/>
</g>
<path d="M68.0887 55.96H69.8983C71.1255 55.9591 72.1199 54.964 72.1199 53.7368V47.88H66.2635C65.0359 47.88 64.0405 48.8748 64.0399 50.1024V51.92C64.0399 54.1512 62.2311 55.96 59.9999 55.96C57.7687 55.96 55.9599 54.1512 55.9599 51.92V50.022C55.959 48.8388 54.9995 47.88 53.8163 47.88H47.8799V72.12H53.7719C54.9801 72.1196 55.9594 71.1402 55.9599 69.932V68.08C55.9599 65.8488 57.7687 64.04 59.9999 64.04V64.048C62.2311 64.048 64.0399 65.8568 64.0399 68.088V69.9148C64.0399 71.1329 65.0274 72.1204 66.2455 72.1204H72.1199V66.246C72.1199 65.661 71.8875 65.1 71.4739 64.6864C71.0602 64.2728 70.4992 64.0404 69.9143 64.0404H68.0799C65.8487 64.0404 64.0399 62.2316 64.0399 60.0004H64.0479C64.0479 57.7692 65.8567 55.9604 68.0879 55.9604" fill="#003EC5"/>
</svg>
