<svg width="120" height="120" viewBox="0 0 120 120" fill="none" xmlns="http://www.w3.org/2000/svg">
<circle cx="60" cy="60" r="60" fill="black"/>
<path d="M94.3386 39.0747C93.1667 38.1508 91.7696 36.8888 89.2231 36.5733C86.8344 36.2578 84.4005 37.8578 82.7555 38.917C81.1104 39.9761 78.0006 43.086 76.7161 44.0324C75.4315 44.9789 72.1414 45.8578 66.8456 49.0353C61.5499 52.2127 40.7724 65.5535 40.7724 65.5535L46.1809 65.6211L22.0682 78.038H24.4795L21.0091 80.6746C21.0091 80.6746 24.0739 81.4859 26.6429 79.8634V80.607C26.6429 80.607 55.3527 69.2944 60.8964 72.224L57.5161 73.2155C57.809 73.2155 63.2626 73.5761 63.2626 73.5761C63.5305 75.8624 64.8025 77.9108 66.733 79.1648C70.0231 81.3282 70.0907 82.5225 70.0907 82.5225C70.0907 82.5225 68.378 83.2211 68.378 84.1C68.378 84.1 70.902 83.3338 73.2456 83.4014C74.7331 83.4578 76.2084 83.6923 77.64 84.1C77.64 84.1 77.4597 83.1535 75.1837 82.5225C72.9076 81.8915 70.6541 79.4127 69.5499 78.0606C68.1739 76.3096 67.8227 73.963 68.6259 71.8859C69.4147 69.8352 72.1639 68.7085 77.8428 65.7789C84.5358 62.3085 86.0681 59.7395 87.0146 57.7338C87.9611 55.7282 89.3583 51.7395 90.147 49.8691C91.1386 47.4578 92.3555 46.1733 93.3695 45.4071C94.3836 44.6409 98.8907 42.9508 98.8907 42.9508C98.8907 42.9508 95.4428 39.9536 94.3386 39.0747Z" fill="white"/>
</svg>
