<svg width="120" height="120" viewBox="0 0 120 120" fill="none" xmlns="http://www.w3.org/2000/svg">
<circle cx="60" cy="60" r="60" fill="#EDF0F4"/>
<path d="M32.3601 51.8728L25 59.2315H39.719L32.3601 51.8728Z" fill="#A02870"/>
<path d="M39.7171 60.7686H25.0025L32.3595 68.1267L39.7171 60.7686Z" fill="#80286C"/>
<path d="M49.7002 50.786L42.3407 43.427V58.1441L49.7002 50.786Z" fill="#C42C79"/>
<path d="M40.8043 58.1441V43.427L33.4454 50.786L40.8043 58.1441Z" fill="#A02870"/>
<path d="M50.788 49.6989L58.1464 42.3413H43.4279L50.788 49.6989Z" fill="#C42C79"/>
<path d="M50.788 33.4453L43.4271 40.8048H58.1455L50.788 33.4453Z" fill="#E4327F"/>
<path d="M68.1267 32.359L60.7686 25V39.7171L68.1267 32.359Z" fill="#0A8B4B"/>
<path d="M59.2314 39.7176V25L51.8727 32.359L59.2314 39.7176Z" fill="#E4327F"/>
<path d="M49.7002 69.2121L42.3407 61.8545V76.5716L49.7002 69.2121Z" fill="#632A69"/>
<path d="M33.4462 69.2121L40.8049 76.5702V61.8545L33.4462 69.2121Z" fill="#80286C"/>
<path d="M69.2134 49.6989L76.5721 42.3413H61.855L69.2134 49.6989Z" fill="#167B55"/>
<path d="M61.8544 40.8043H76.5721L69.2134 33.4453L61.8544 40.8043Z" fill="#0A8B4B"/>
<path d="M58.1461 79.1936H43.4271L50.786 86.5531L58.1461 79.1936Z" fill="#402863"/>
<path d="M50.788 70.2998L43.4285 77.6574H58.1441L50.788 70.2998Z" fill="#632A69"/>
<path d="M86.5538 50.7861L79.1951 43.428V58.1437L86.5538 50.7861Z" fill="#21695E"/>
<path d="M70.2998 50.786L77.6593 58.1449V43.427L70.2998 50.786Z" fill="#167B55"/>
<path d="M51.8733 87.64L59.2314 94.9981V80.281L51.8733 87.64Z" fill="#402863"/>
<path fill-rule="evenodd" clip-rule="evenodd" d="M76.5729 79.1941L69.2134 86.5536L61.8539 79.1941H76.5729ZM60.7686 94.9976V80.2816L68.1273 87.64L60.7686 94.9976Z" fill="#223160"/>
<path d="M69.2134 70.2998L61.8558 77.6574H76.5707L69.2134 70.2998Z" fill="#1E4561"/>
<path d="M79.1957 61.8545V76.5707L86.5538 69.2121L79.1957 61.8545Z" fill="#245661"/>
<path d="M70.2998 69.2121L77.6593 76.5711V61.854L70.2998 69.2121Z" fill="#1E4561"/>
<path d="M87.6405 68.1268L95 60.7678H80.2823L87.6405 68.1268Z" fill="#245661"/>
<path d="M87.6405 51.8728L80.2804 59.2315H95L87.6405 51.8728Z" fill="#21695E"/>
</svg>
