<svg width="120" height="120" viewBox="0 0 120 120" fill="none" xmlns="http://www.w3.org/2000/svg">
<circle cx="60" cy="60" r="60" fill="#EDF0F4"/>
<path fill-rule="evenodd" clip-rule="evenodd" d="M19 60C19 82.6161 37.3839 101 60 101C82.6161 101 101 82.6161 101 60C101 37.3839 82.6161 19 60 19C37.3839 19 19 37.3839 19 60ZM22.4387 60C22.4387 39.2355 39.2355 22.4387 60 22.4387C80.7645 22.4387 97.5613 39.2355 97.5613 60C97.5613 80.7645 80.7645 97.5613 60 97.5613C39.2355 97.5613 22.4387 80.7645 22.4387 60Z" fill="url(#paint0_linear_1_8898)"/>
<path d="M64.7613 35.4C68.4645 36.9871 70.3161 41.2193 68.729 45.0548L56.958 73.8871C55.371 77.7226 51.1387 74.1516 47.4355 72.5645C43.7322 70.9774 41.8806 72.0355 43.4677 68.2L55.2387 39.3677C56.6935 35.6645 60.9258 33.8129 64.7613 35.4Z" fill="url(#paint1_linear_1_8898)"/>
<path d="M69.7871 78.6484H49.8161C45.8484 78.6484 42.5419 75.4742 42.5419 71.3742C42.5419 70.4484 42.6742 69.5225 43.071 68.5967L48.3613 56.0322C48.3613 56.0322 47.9645 63.9677 56.429 64.1H69.7871C73.7548 64.1 77.0613 67.2742 77.0613 71.3742C77.0613 75.4742 73.7548 78.6484 69.7871 78.6484Z" fill="url(#paint2_linear_1_8898)"/>
<defs>
<linearGradient id="paint0_linear_1_8898" x1="2.0379" y1="60" x2="60" y2="117.962" gradientUnits="userSpaceOnUse">
<stop stop-color="#324BCD"/>
<stop offset="1" stop-color="#3DBA8A"/>
</linearGradient>
<linearGradient id="paint1_linear_1_8898" x1="38.9065" y1="54.3933" x2="63.2832" y2="72.098" gradientUnits="userSpaceOnUse">
<stop stop-color="#3DFFEF"/>
<stop offset="1" stop-color="#A80DE9"/>
</linearGradient>
<linearGradient id="paint2_linear_1_8898" x1="28.5855" y1="65.7481" x2="40.7395" y2="94.0629" gradientUnits="userSpaceOnUse">
<stop stop-color="#50D3EE"/>
<stop offset="1" stop-color="#324BCD"/>
</linearGradient>
</defs>
</svg>
