<svg width="120" height="120" viewBox="0 0 120 120" fill="none" xmlns="http://www.w3.org/2000/svg">
<circle cx="60" cy="60" r="60" fill="#EDF0F4"/>
<path fill-rule="evenodd" clip-rule="evenodd" d="M60.0182 29L75.5737 53.3533L60.0182 62.4182L44.4658 53.3533L60.0182 29ZM49.2277 52.1997L60.0182 35.3021L70.8118 52.1997L60.0182 58.4923L49.2277 52.1966V52.1997Z" fill="#273852"/>
<path d="M59.9959 67.771L41.9541 57.2571L41.4606 58.0272C39.3364 61.352 38.1454 65.187 38.0125 69.1301C37.8796 73.0732 38.8095 76.9799 40.705 80.4402C42.6005 83.9005 45.3917 86.7872 48.7862 88.7982C52.1807 90.8092 56.0536 91.8703 59.999 91.8703C63.9445 91.8703 67.8174 90.8092 71.212 88.7982C74.6063 86.7872 77.3977 83.9005 79.293 80.4402C81.1884 76.9799 82.1184 73.0732 81.9855 69.1301C81.8525 65.187 80.6616 61.352 78.5374 58.0272L78.0439 57.2571L59.9959 67.7741V67.771Z" fill="#273852"/>
</svg>
