<svg width="120" height="120" viewBox="0 0 120 120" fill="none" xmlns="http://www.w3.org/2000/svg">
<circle cx="60" cy="60" r="60" fill="#EDF0F4"/>
<path fill-rule="evenodd" clip-rule="evenodd" d="M57.3118 52.6558C56.8318 52.6657 56.3977 52.3719 56.2285 51.9226C56.0593 51.4733 56.1917 50.9662 56.5589 50.6569C58.4623 49.0528 60.1073 47.165 61.4361 45.0602C62.3756 43.4144 63.8947 42.5683 65.4804 42.7815C65.9062 42.8085 66.2812 43.0711 66.4522 43.462C66.6231 43.8528 66.5614 44.3065 66.2922 44.6375C66.023 44.9684 65.5914 45.1213 65.1739 45.0335C64.2478 44.9069 63.6282 45.7997 63.4016 46.1862C61.9585 48.5089 60.1599 50.5908 58.0714 52.356C57.8653 52.5485 57.5938 52.6557 57.3118 52.6558ZM38.1762 71.8913C37.7037 71.8852 37.284 71.588 37.1214 71.1443C36.9587 70.7007 37.0868 70.2026 37.4433 69.8925C38.7626 68.8535 40.1616 67.9201 41.6275 67.1008C42.16 66.9234 42.7421 67.1628 42.9958 67.6635C43.2495 68.1642 43.0982 68.7751 42.6403 69.0996C41.334 69.841 40.0846 70.6784 38.9024 71.6048C38.6988 71.7757 38.4419 71.8699 38.1762 71.8714" fill="#28646E"/>
<path fill-rule="evenodd" clip-rule="evenodd" d="M66.7197 61.1175C67.1728 61.5372 67.6991 61.3573 68.1789 60.8976C71.4703 57.7527 74.955 52.8422 76.1143 50.2837C76.196 50.0258 76.3795 49.8124 76.6222 49.6929C76.865 49.5734 77.146 49.5582 77.4002 49.6507C78.0332 49.9039 78.0265 50.9833 77.4535 52.176C75.4801 56.2142 72.8453 59.894 69.658 63.063C69.4761 63.2272 69.3722 63.4609 69.3722 63.706C69.3722 63.9511 69.4761 64.1847 69.658 64.3489C70.0245 64.6754 70.6241 64.6554 71.1771 64.0891C72.9538 62.3314 74.5828 60.4305 76.0477 58.4057C76.2551 58.0045 76.6929 57.7776 77.1404 57.8394C77.6867 57.946 77.7733 58.4723 77.6068 59.1053C77.3336 60.1247 74.4619 63.8959 73.3226 65.1618C70.2377 68.6065 67.1528 70.4921 61.2162 73.5769C59.1641 74.643 57.6116 75.6891 56.6455 77.3081C55.786 78.7473 55.5328 79.2204 55.4462 79.4002C55.1175 80.1095 55.409 80.9516 56.1058 81.3058C56.4422 81.4674 56.8292 81.4879 57.1808 81.3628C57.5324 81.2377 57.8194 80.9773 57.9781 80.6395C57.9781 80.6395 57.9781 80.5862 57.9781 80.5662C57.9781 80.5463 57.9381 80.5662 59.0575 78.7007C59.8931 77.3494 61.1103 76.276 62.5554 75.6158C68.512 72.904 70.9439 70.7652 74.3953 67.3139C76.0213 65.4732 77.4734 63.4859 78.7328 61.3773C80.3918 58.5789 79.519 56.187 78.0199 55.7805C77.9198 55.7514 77.8609 55.6483 77.8866 55.5473C77.8836 55.5297 77.8836 55.5117 77.8866 55.494C78.7595 54.1327 79.4053 52.6385 79.7988 51.0699C80.092 49.6241 79.6789 47.8651 77.7 47.4387C77.5978 47.4154 77.5328 47.3149 77.5535 47.2122C77.68 46.7524 77.8066 46.1728 77.8866 45.793C78.317 44.116 77.3465 42.3984 75.6879 41.9019C74.7603 41.7002 73.7908 41.9038 73.0227 42.4616C72.9133 42.5361 72.7658 42.5191 72.6763 42.4216C72.2927 42.006 71.7559 41.7653 71.1905 41.7553C69.9445 41.7553 68.7252 42.1151 67.8591 44.0273C67.1928 45.3599 66.2666 47.2321 63.4749 50.3304C60.9381 53.0161 58.1011 55.4014 55.0198 57.4396C54.6267 57.6928 54.0803 57.6328 54.1403 57.1131C54.2469 56.2803 55.1397 50.6568 55.313 49.0311C55.5595 46.366 54.1203 45.1267 52.5012 44.9135C51.1687 44.7336 49.1698 45.1134 48.0505 48.145C46.7765 51.1941 45.7255 54.3316 44.9056 57.5329C44.0387 61.3382 43.9526 65.2799 44.6524 69.1195C44.7007 69.3856 44.651 69.6601 44.5125 69.8924C43.4388 71.5025 42.4706 73.1807 41.6142 74.9162C41.3179 75.5869 41.5733 76.3732 42.2072 76.7418C42.8847 77.1091 43.7317 76.8624 44.1061 76.1888L44.1461 76.1088C44.5725 75.2093 45.4786 73.5103 45.7984 72.7774C46.2334 71.952 46.6205 71.1021 46.9578 70.2322C47.1797 69.5047 47.1797 68.7276 46.9578 68.0002C46.4015 64.9073 46.4808 61.7335 47.191 58.6722C48.1036 55.1341 49.2158 51.6505 50.5224 48.2382C50.8622 47.3987 51.3419 47.1389 51.8549 47.1855C52.368 47.2321 53.2541 47.4587 52.9943 49.1844C52.5212 52.2426 51.855 56.127 51.6617 57.4396C51.5551 58.1059 51.4352 59.5784 52.6145 60.2646C53.5406 60.7976 54.5601 60.5045 55.6794 59.7516C59.1788 57.3803 62.4074 54.6321 65.3072 51.5563C68.1789 48.3315 69.0917 46.406 69.8312 44.667C70.1045 44.1084 70.7399 43.8273 71.337 44.0007C71.6435 44.0873 72.0033 44.5004 71.7568 45.3732C71.0905 47.4987 68.492 52.3559 63.4416 56.9132C63.214 57.0715 63.0629 57.3177 63.0249 57.5924C62.987 57.867 63.0656 58.145 63.2417 58.3591C63.4198 58.5557 63.6727 58.6678 63.938 58.6678C64.2032 58.6678 64.4562 58.5557 64.6342 58.3591C68.1189 55.2927 70.9279 51.5353 72.8828 47.3254C73.2708 46.5004 73.6025 45.6501 73.8756 44.7802C73.991 44.2273 74.4983 43.8454 75.0616 43.8874C75.6146 44.0007 75.981 44.5537 75.8078 45.5065C75.524 46.6972 75.1083 47.8525 74.5685 48.9512C73.116 52.0427 70.0378 56.1803 66.7197 59.7316C66.5318 59.9091 66.4254 60.1561 66.4254 60.4145C66.4254 60.673 66.5318 60.92 66.7197 61.0975M46.1916 45.7263C46.3648 45.5731 46.2982 45.3732 46.2515 45.22C46.005 44.4338 44.6125 41.169 44.2527 40.516C44.204 40.3885 44.1052 40.2865 43.9794 40.2336C43.8535 40.1808 43.7115 40.1817 43.5864 40.2362C43.0944 40.4893 42.6448 40.8175 42.2538 41.209C41.8107 41.5512 41.4259 41.963 41.1145 42.4283C41.0506 42.542 41.0351 42.6766 41.0714 42.8019C41.1078 42.9272 41.1929 43.0326 41.3077 43.0945C41.9074 43.5476 44.9656 45.3532 45.7052 45.693C45.8584 45.7663 46.045 45.8596 46.2182 45.693L46.1916 45.7263ZM39.5287 46.8257C39.1489 46.8257 38.989 46.9856 38.9424 47.2455C38.8986 47.8039 38.9413 48.3658 39.069 48.9112C39.1344 49.4662 39.285 50.0078 39.5154 50.5169C39.6471 50.7526 39.9421 50.8411 40.1817 50.7168C40.848 50.437 44.0061 48.7646 44.6858 48.3115C44.8257 48.2182 44.9989 48.105 44.9589 47.8718M71.377 74.643C71.1438 74.643 71.0772 74.8629 71.0172 75.0161C70.7374 75.7823 69.8646 79.227 69.7513 79.9666C69.7107 80.0975 69.7265 80.2393 69.7947 80.3581C69.863 80.477 69.9776 80.562 70.1111 80.5929C70.6623 80.6986 71.2267 80.7166 71.7835 80.6462C72.3427 80.6395 72.8977 80.5474 73.4292 80.373C73.5543 80.3217 73.6532 80.2219 73.7035 80.0963C73.7537 79.9707 73.7509 79.8302 73.6957 79.7067C73.4891 78.9872 72.1632 75.709 71.7835 74.9695C71.7035 74.8229 71.6102 74.6363 71.377 74.6497V74.643ZM73.3759 73.0506C73.2626 73.2571 73.3759 73.417 73.5025 73.5436C74.0155 74.2099 76.5007 76.7218 77.0737 77.2015C77.1681 77.3014 77.2995 77.3579 77.4369 77.3579C77.5743 77.3579 77.7056 77.3014 77.8 77.2015C78.1735 76.7855 78.4793 76.3134 78.7061 75.8023C78.9867 75.318 79.1869 74.7915 79.2991 74.2432C79.2991 73.9767 79.2325 73.7635 78.866 73.6636C78.1464 73.4637 74.6418 72.8907 73.8223 72.844C73.6557 72.844 73.4492 72.844 73.3426 73.0173L73.3759 73.0506ZM61.1962 92.1396C61.1989 92.6555 60.8899 93.122 60.4137 93.3207C59.9376 93.5193 59.3886 93.4109 59.0238 93.0461C58.659 92.6813 58.5505 92.1323 58.7492 91.6561C58.9479 91.18 59.4144 90.8709 59.9303 90.8736C60.266 90.8736 60.588 91.007 60.8254 91.2444C61.0629 91.4818 61.1962 91.8038 61.1962 92.1396ZM61.1962 27.7367C61.1962 28.2521 60.8854 28.7165 60.4091 28.9131C59.9327 29.1097 59.3848 28.9996 59.0214 28.6342C58.658 28.2689 58.5507 27.7204 58.7498 27.2451C58.9489 26.7698 59.415 26.4614 59.9303 26.4641C60.2672 26.4641 60.5902 26.5984 60.8278 26.8373C61.0654 27.0761 61.198 27.3998 61.1962 27.7367ZM69.4848 90.7137C69.663 91.389 69.2607 92.0811 68.5857 92.2604C67.9106 92.4396 67.2179 92.0383 67.0377 91.3635C66.8575 90.6887 67.2578 89.9954 67.9323 89.8142C68.2575 89.7269 68.6041 89.7727 68.8954 89.9415C69.1868 90.1103 69.3988 90.3882 69.4848 90.7137ZM52.8277 28.503C52.9467 28.9409 52.8231 29.4092 52.5033 29.7312C52.1835 30.0533 51.7161 30.1803 51.2773 30.0644C50.8385 29.9485 50.4948 29.6072 50.3758 29.1692C50.1918 28.4922 50.5915 27.7941 51.2686 27.6101C51.9457 27.4261 52.6437 27.8259 52.8277 28.503ZM77.1337 87.1891C77.3709 87.5813 77.3776 88.0711 77.1511 88.4697C76.9246 88.8682 76.5004 89.1132 76.0421 89.1101C75.5837 89.1071 75.1628 88.8565 74.9416 88.455C74.6091 87.8514 74.8206 87.0926 75.4174 86.748C76.0142 86.4033 76.777 86.5994 77.1337 87.1891ZM44.9256 31.4146C45.2826 32.0162 45.0842 32.7933 44.4825 33.1503C43.8809 33.5072 43.1038 33.3088 42.7469 32.7072C42.4143 32.1035 42.6258 31.3448 43.2226 31.0001C43.8194 30.6555 44.5823 30.8515 44.9389 31.4413M83.5833 81.8388C84.0782 82.3338 84.0782 83.1362 83.5833 83.6311C83.0884 84.1261 82.2859 84.1261 81.791 83.6311C81.2961 83.1362 81.2961 82.3338 81.791 81.8388C82.2859 81.3439 83.0884 81.3439 83.5833 81.8388ZM38.0562 36.2718C38.3764 36.592 38.5014 37.0586 38.3843 37.496C38.2671 37.9333 37.9255 38.2749 37.4881 38.3921C37.0508 38.5093 36.5841 38.3843 36.2639 38.0641C35.769 37.5692 35.769 36.7667 36.2639 36.2718C36.7589 35.7769 37.5613 35.7769 38.0562 36.2718ZM88.4472 74.9162C89.058 75.2584 89.2758 76.031 88.9336 76.6418C88.5913 77.2527 87.8187 77.4704 87.2079 77.1282C86.6007 76.7786 86.3919 76.0031 86.7415 75.3959C87.0911 74.7887 87.8667 74.5799 88.4738 74.9295M32.6594 42.7414C33.0609 42.9626 33.3114 43.3835 33.3145 43.8419C33.3175 44.3002 33.0725 44.7244 32.674 44.9509C32.2755 45.1773 31.7856 45.1707 31.3934 44.9335C30.8037 44.5768 30.6076 43.8139 30.9523 43.2171C31.297 42.6203 32.0557 42.4089 32.6594 42.7414ZM91.3588 67.0474C92.0377 67.2166 92.4509 67.9042 92.2816 68.5832C92.1124 69.2621 91.4248 69.6752 90.7458 69.506H90.7059C90.2691 69.3869 89.9289 69.0439 89.8136 68.6061C89.6983 68.1683 89.8253 67.7023 90.1468 67.3835C90.4682 67.0647 90.9353 66.9417 91.3722 67.0607M29.168 50.4036C29.6072 50.5227 29.9496 50.8669 30.0661 51.3068C30.1826 51.7467 30.0556 52.2153 29.7329 52.5361C29.4103 52.8569 28.9409 52.9812 28.5018 52.8622C27.8629 52.6477 27.502 51.9724 27.6787 51.3221C27.8554 50.6718 28.5085 50.272 29.168 50.4103M92.1317 58.6522C92.8309 58.6522 93.3977 59.219 93.3977 59.9182C93.3977 60.6173 92.8309 61.1841 92.1317 61.1841C91.4326 61.1841 90.8658 60.6173 90.8658 59.9182C90.8658 59.219 91.4326 58.6522 92.1317 58.6522ZM27.7289 58.6522C28.1811 58.6522 28.5991 58.8935 28.8252 59.2852C29.0513 59.6769 29.0513 60.1594 28.8252 60.5511C28.5991 60.9428 28.1811 61.1841 27.7289 61.1841C27.0297 61.1841 26.4629 60.6173 26.4629 59.9182C26.4629 59.219 27.0297 58.6522 27.7289 58.6522ZM90.7059 50.357C91.3628 50.2161 92.0154 50.613 92.1925 51.2612C92.3696 51.9093 92.0095 52.5829 91.3721 52.7956H91.3388C90.6618 52.9796 89.9637 52.5799 89.7797 51.9028C89.5957 51.2257 89.9955 50.5277 90.6726 50.3437M28.4618 67.0007C28.9067 66.8522 29.3973 66.9619 29.7366 67.2857C30.0759 67.6095 30.2084 68.0944 30.0809 68.5458C29.9533 68.9971 29.5867 69.341 29.1281 69.4393C28.6913 69.5583 28.2241 69.4353 27.9027 69.1165C27.5812 68.7978 27.4542 68.3317 27.5695 67.8939C27.6849 67.4561 28.025 67.1131 28.4618 66.9941M87.1479 42.6881C87.5401 42.4509 88.03 42.4442 88.4285 42.6707C88.827 42.8972 89.072 43.3214 89.069 43.7797C89.0659 44.2381 88.8153 44.659 88.4139 44.8802C87.8102 45.2127 87.0514 45.0012 86.7068 44.4044C86.3621 43.8076 86.5582 43.0448 87.1479 42.6881ZM31.4068 74.9362C31.8498 74.6734 32.4078 74.7053 32.818 75.0167C33.2282 75.3282 33.4089 75.8571 33.2748 76.3545C33.1408 76.8518 32.7188 77.2183 32.2076 77.2814C31.6964 77.3445 31.198 77.0916 30.947 76.6418C30.6076 76.0391 30.8118 75.2757 31.4068 74.9228M81.8043 36.2785C82.299 35.7849 83.1 35.7855 83.594 36.2798C84.0879 36.7741 84.0879 37.5751 83.594 38.0694C83.1 38.5637 82.299 38.5643 81.8043 38.0708C81.3123 37.5746 81.3123 36.7746 81.8043 36.2785ZM36.2639 81.8122C36.7586 81.3186 37.5597 81.3192 38.0536 81.8135C38.5475 82.3078 38.5475 83.1089 38.0536 83.6032C37.5597 84.0975 36.7586 84.0981 36.2639 83.6045C36.0243 83.3679 35.8894 83.0451 35.8894 82.7083C35.8894 82.3716 36.0243 82.0488 36.2639 81.8122ZM74.9083 31.4146C75.2581 30.81 76.0314 30.603 76.6365 30.9519C77.2416 31.3008 77.4497 32.0739 77.1016 32.6794C76.7535 33.285 75.9808 33.4942 75.3747 33.1469C74.7695 32.7959 74.5611 32.0221 74.9083 31.4146ZM42.7335 87.1891C42.9444 86.775 43.3651 86.5097 43.8296 86.4979C44.2942 86.4862 44.7278 86.7298 44.9593 87.1327C45.1908 87.5356 45.183 88.033 44.9389 88.4284C44.5823 89.0181 43.8194 89.2142 43.2226 88.8695C42.6258 88.5248 42.4143 87.7661 42.7469 87.1624M67.0395 28.503C67.1443 28.0626 67.476 27.7115 67.9097 27.5821C68.3435 27.4526 68.8133 27.5643 69.1423 27.8752C69.4713 28.1861 69.6095 28.6489 69.5048 29.0893V29.1626C69.3208 29.8378 68.6242 30.236 67.949 30.0521C67.2738 29.8681 66.8755 29.1715 67.0595 28.4963M50.4025 90.7071C50.5736 90.0281 51.2626 89.6165 51.9416 89.7876C52.6205 89.9587 53.0321 90.6478 52.861 91.3267C52.742 91.7635 52.399 92.1036 51.9612 92.219C51.5234 92.3343 51.0574 92.2073 50.7386 91.8858C50.4198 91.5643 50.2968 91.0972 50.4158 90.6604" fill="#28646E"/>
<path fill-rule="evenodd" clip-rule="evenodd" d="M96.8217 75.2106C90.6416 90.1323 76.0812 99.8618 59.9303 99.8618C37.8907 99.8361 20.0294 81.9778 20 59.9381C19.9973 43.7872 29.7243 29.2251 44.645 23.0426C59.5657 16.86 76.7416 20.2747 88.1629 31.6941C99.5843 43.1136 103.002 60.2888 96.8217 75.2106ZM96.4825 59.9381C96.4825 39.7509 80.1175 23.3859 59.9303 23.3859C39.7522 23.4079 23.4001 39.76 23.3781 59.9381C23.3781 80.1254 39.743 96.4904 59.9303 96.4904C80.1175 96.4904 96.4825 80.1254 96.4825 59.9381Z" fill="#28646E"/>
</svg>
