<svg width="120" height="120" viewBox="0 0 120 120" fill="none" xmlns="http://www.w3.org/2000/svg">
<circle cx="60" cy="60" r="60" fill="#EDF0F4"/>
<path d="M96.4864 70.6528C92.4709 84.4973 80.9583 94.8715 66.7719 97.4291V86.6143C69.3366 85.6374 71.6446 84.0882 73.5202 82.0846C74.5622 80.9668 75.4528 79.717 76.1692 78.3672C77.533 75.7959 78.2389 72.9268 78.2239 70.0162C78.2239 60.4556 71.3218 56.6332 64.8509 53.7982L61.5741 52.3499C58.0706 50.7786 55.3906 49.3808 55.3906 46.9882C55.3906 43.6812 58.2766 41.9039 60.9987 41.9039C63.8954 41.9039 65.5385 42.9728 67.2743 45.9817L68.6199 48.3131L77.2785 42.7566L76.1502 40.6616C74.1646 36.8754 70.8114 33.9876 66.7725 32.5855V22.6663C67.6146 22.81 68.4465 22.9946 69.2891 23.2108C69.3711 23.2316 69.4637 23.2518 69.5564 23.2702C69.6503 23.288 69.7429 23.312 69.8337 23.342C69.8618 23.3453 69.8894 23.3523 69.9156 23.3628C70.1419 23.4222 70.3776 23.4756 70.614 23.5475C80.2917 26.3627 88.4546 32.9074 93.3067 41.7415C98.1588 50.5755 99.3026 60.9754 96.4864 70.6528Z" fill="#745DDF"/>
<path d="M67.5934 70.5406C67.5934 74.8957 63.6593 77.5863 60.0233 77.5863C55.6581 77.5863 53.1623 73.9812 52.6795 70.6326L52.2685 67.7258L41.7923 70.676L42.2673 73.018C43.7667 80.4029 48.8101 85.7135 55.6611 87.3156V97.7818C53.8025 97.5642 51.9625 97.2105 50.1557 96.7236C49.8992 96.6642 49.6521 96.59 49.3956 96.5181C33.1754 91.7951 22.016 76.9373 22 60.0435V23.5291C22.001 22.7014 22.6717 22.0306 23.4994 22.0297H55.6587V32.4858C51.8955 33.5754 48.689 36.0582 46.6919 39.4288C45.4111 41.6704 44.745 44.2106 44.7608 46.7922V46.9977C44.8623 55.5239 51.129 59.088 57.0453 61.7686L60.0049 63.0524L60.2514 63.1652C64.9438 65.3125 67.5934 66.7193 67.5934 70.5406Z" fill="#2EB6EA"/>
<path d="M78.2243 70.0162C78.2394 72.9266 77.5338 75.7954 76.1702 78.3666C75.4535 79.7167 74.5624 80.9667 73.52 82.0846C71.6443 84.0877 69.3363 85.6365 66.7717 86.6131L66.7765 97.4801L63.7391 97.7485C63.7391 97.7485 57.2254 97.9439 55.6743 97.7485L55.6583 87.3132C48.8079 85.7105 43.7645 80.4005 42.2651 73.0144L41.79 70.6724L52.2663 67.7246L52.6773 70.6314C53.1624 73.9812 55.6583 77.5869 60.0235 77.5869C63.6595 77.5869 67.5936 74.8957 67.5936 70.5412C67.5936 66.7205 64.9434 65.3155 60.2497 63.1664L60.0033 63.0536L57.0455 61.7697C51.1292 59.088 44.8637 55.5239 44.761 46.9989V46.7934C44.7451 44.2117 45.4113 41.6716 46.6921 39.43C48.6888 36.0591 51.8951 33.5758 55.6583 32.4858V22.019C62.5087 21.9608 63.033 22.0011 66.7717 22.6579V32.5885C70.8106 33.9906 74.1638 36.8783 76.1495 40.6645L77.2777 42.7596L68.6209 48.3112L67.2753 45.9799C65.5396 42.9704 63.8958 41.9021 60.9997 41.9021C58.2776 41.9021 55.3916 43.6788 55.3916 46.9864C55.3916 49.3795 58.0722 50.7762 61.5752 52.3481L64.8507 53.7982C71.3234 56.6331 78.2243 60.4538 78.2243 70.0162Z" fill="white"/>
</svg>
