<svg width="120" height="120" viewBox="0 0 120 120" fill="none" xmlns="http://www.w3.org/2000/svg">
<path d="M60 120C93.138 120 120 93.138 120 60C120 26.862 93.138 0 60 0C26.862 0 0 26.862 0 60C0 93.138 26.862 120 60 120Z" fill="#EDF0F4"/>
<path fill-rule="evenodd" clip-rule="evenodd" d="M17 60C17 36.2518 36.2518 17 60 17C83.7482 17 103 36.2518 103 60C103 83.7482 83.7482 103 60 103C36.2518 103 17 83.7482 17 60ZM97 60C97 39.5655 80.4345 23 60 23C39.5655 23 23 39.5655 23 60C23 80.4345 39.5655 97 60 97C80.4345 97 97 80.4345 97 60Z" fill="#3740C2"/>
<path d="M65.8539 43.5461C65.2414 42.9334 64.41 42.5902 63.5437 42.5923H63.5353C62.6671 42.5921 61.8352 42.9405 61.2262 43.5592L35.6994 69.2079C35.0853 69.8209 34.7419 70.6541 34.7456 71.5218C34.7479 72.3955 35.091 73.2165 35.7102 73.8333C36.3213 74.4458 37.1516 74.7891 38.0169 74.787C38.8929 74.787 39.7188 74.444 40.3379 73.8237L65.8635 48.1738C67.1354 46.8919 67.1312 44.8227 65.8539 43.5461H65.8539Z" fill="#2DB8E3"/>
<path d="M80.6742 42.9042C79.4503 42.393 78.0385 42.6763 77.1066 43.6201L51.5774 69.2712C50.3042 70.553 50.3095 72.6238 51.5894 73.899C52.8719 75.172 54.9431 75.1661 56.2183 73.8858L76.1516 53.8569V71.5779C76.153 73.3847 77.6173 74.849 79.4241 74.8503C81.2308 74.849 82.6952 73.3847 82.6965 71.5779V45.9292C82.7004 44.6034 81.9008 43.4074 80.6742 42.9042H80.6742Z" fill="#3840C7"/>
</svg>
