<svg width="120" height="120" viewBox="0 0 120 120" fill="none" xmlns="http://www.w3.org/2000/svg">
<path d="M60 120C93.138 120 120 93.138 120 60C120 26.862 93.138 0 60 0C26.862 0 0 26.862 0 60C0 93.138 26.862 120 60 120Z" fill="#EDF0F4"/>
<circle cx="46.7459" cy="47.7101" r="3.71007" fill="black"/>
<circle cx="73.2458" cy="47.7101" r="3.71007" fill="black"/>
<circle cx="40.1707" cy="54.401" r="3.71007" fill="black"/>
<circle cx="46.7459" cy="60.9632" r="3.71007" fill="black"/>
<circle cx="73.2458" cy="60.9632" r="3.71007" fill="black"/>
<circle cx="33.4428" cy="60.9634" r="2.71276" fill="black"/>
<circle cx="40.0102" cy="67.6999" r="2.71276" fill="black"/>
<circle cx="53.3292" cy="67.6999" r="2.71276" fill="black"/>
<circle cx="66.6623" cy="67.6999" r="2.71276" fill="black"/>
<circle cx="79.8292" cy="67.6999" r="2.71276" fill="black"/>
<circle cx="26.8041" cy="67.7002" r="1.80407" fill="black"/>
<circle cx="33.4429" cy="74.3002" r="1.80407" fill="black"/>
<circle cx="59.8879" cy="74.3002" r="1.80407" fill="black"/>
<circle cx="86.4936" cy="74.3002" r="1.80407" fill="black"/>
<circle cx="93.1959" cy="67.7002" r="1.80407" fill="black"/>
<circle cx="59.8879" cy="60.9634" r="2.71276" fill="black"/>
<circle cx="86.5484" cy="60.9634" r="2.71276" fill="black"/>
<circle cx="53.321" cy="54.401" r="3.71007" fill="black"/>
<circle cx="66.632" cy="54.401" r="3.71007" fill="black"/>
<circle cx="79.9428" cy="54.401" r="3.71007" fill="black"/>
</svg>
