<svg width="120" height="120" viewBox="0 0 120 120" fill="none" xmlns="http://www.w3.org/2000/svg">
<circle cx="60" cy="60" r="60" fill="#0FD297"/>
<path d="M63.8185 67.321C64.8181 68.6813 65.7869 70.0215 66.8991 71.2946C68.903 73.5888 71.1945 75.47 74.1725 76.3697C75.8076 76.8638 77.4891 77.085 79.1819 77.2412C79.3153 77.2533 79.4152 77.2674 79.4916 77.4135C80.3759 79.1023 80.8653 80.8722 80.6354 82.7963C80.6173 82.9465 80.5931 83.0953 80.565 83.281C80.5589 83.3193 80.512 83.3347 80.4845 83.3079C80.0829 82.9123 79.7001 82.557 79.2824 82.2426C77.886 81.1907 76.3493 80.4753 74.5781 80.4043C72.2209 80.3097 70.1976 81.7103 69.3689 83.9649C68.6945 85.8005 68.7226 87.6629 69.1725 89.5388C69.1946 89.6299 69.2174 89.7211 69.2342 89.8136C69.2422 89.8565 69.2362 89.9115 69.2013 89.9021C68.5061 89.699 67.8833 89.3484 67.294 88.9421C66.2072 88.1932 65.3665 87.2137 64.6659 86.1022C64.5506 85.9185 64.6237 85.7938 64.6907 85.6476C65.2659 84.3926 65.7755 83.1141 66.163 81.786C66.946 79.1016 66.8274 76.426 66.1261 73.7497C65.577 71.6546 64.7263 69.6728 63.8574 67.6971C63.8098 67.5898 63.7682 67.4799 63.724 67.3713C63.6938 67.2942 63.7816 67.26 63.8185 67.321Z" fill="white"/>
<path d="M59.7906 91.9423C59.7491 92.0596 59.5828 92.0609 59.5406 91.9443C58.6261 89.4242 57.3811 87.1581 56.3467 84.7989C55.6642 83.2435 55.0233 81.6721 54.7859 79.9719C54.7859 79.9712 54.7859 79.9712 54.7859 79.9705C54.7719 79.8673 54.8771 79.7902 54.973 79.8324C58.0951 81.2108 61.1958 81.2102 64.314 79.8163C64.4092 79.7734 64.5138 79.8539 64.4997 79.9578C64.3281 81.2148 63.9499 82.3351 63.5182 83.4406C62.707 85.5176 61.6739 87.494 60.7661 89.5274C60.4208 90.2991 60.0977 91.0808 59.7906 91.9423Z" fill="white"/>
<path d="M59.4623 63.1651C59.5193 63.027 59.7157 63.029 59.77 63.1678C59.8967 63.4916 60.0194 63.8087 60.1541 64.1205C61.0505 66.1954 61.9603 68.265 62.8486 70.344C63.1167 70.9708 63.3219 71.6245 63.5753 72.2587C63.6651 72.4847 63.6242 72.5785 63.395 72.6663C60.8856 73.6217 58.3789 73.627 55.8661 72.6784C55.6288 72.5886 55.6161 72.49 55.6911 72.2681C56.4601 70.0001 57.4906 67.8413 58.4318 65.6443C58.7845 64.8217 59.1183 63.9911 59.4623 63.1651Z" fill="white"/>
<path d="M81.9007 77.4839C81.8746 77.4175 81.9262 77.3465 81.9973 77.3512C83.674 77.4638 85.2998 77.6301 86.9088 77.9512C87.1253 77.9941 87.1193 78.1315 87.1434 78.2777C87.5236 80.6228 87.4572 82.9566 86.949 85.2749C86.3389 88.0571 85.1831 90.5813 83.247 92.6944C80.2891 95.9225 76.5602 97.3123 72.2333 97.0857C68.2764 96.8785 64.7869 95.411 61.7063 92.9391C61.5541 92.8171 61.5206 92.7166 61.5843 92.5262C62.1052 90.9782 62.783 89.4985 63.497 88.0343C63.497 88.0337 63.4977 88.0337 63.4977 88.033C63.5278 87.9713 63.615 87.968 63.6579 88.0223C67.2574 92.5972 73.2128 93.8281 77.8869 90.9017C82.1568 88.2268 84.022 82.8694 81.9007 77.4839Z" fill="white"/>
<path d="M55.5109 67.4103C54.8324 68.9562 54.1566 70.4654 53.6102 72.065C52.6254 74.9478 52.142 77.8722 52.852 80.9018C53.2415 82.5651 53.8904 84.1312 54.6018 85.6759C54.6581 85.7972 54.6956 85.8911 54.6071 86.0305C53.5867 87.6409 52.2989 88.9496 50.5176 89.7125C50.3788 89.7722 50.2373 89.8258 50.0623 89.8942C50.0261 89.9083 49.9893 89.8754 49.9993 89.8379C50.1408 89.2921 50.2574 88.7833 50.3211 88.2644C50.5336 86.5293 50.3848 84.8405 49.5609 83.2711C48.4641 81.1827 46.2396 80.1302 43.8723 80.5405C41.9455 80.8743 40.3466 81.8297 38.9468 83.1571C38.8784 83.2215 38.8107 83.2872 38.7396 83.3482C38.7061 83.3763 38.6558 83.3991 38.6464 83.3643C38.4748 82.6603 38.4667 81.9463 38.5244 81.2323C38.6296 79.917 39.0574 78.6988 39.6695 77.5363C39.7707 77.3446 39.9155 77.3459 40.0757 77.3305C41.4501 77.2018 42.8124 77.0033 44.1559 76.6748C46.8718 76.0104 49.1305 74.5697 51.0968 72.6248C52.6368 71.1016 53.928 69.3739 55.2038 67.6342C55.2735 67.5396 55.3473 67.4485 55.4197 67.356C55.472 67.2889 55.5457 67.3486 55.5109 67.4103Z" fill="white"/>
<path d="M32.1741 76.2329C32.0514 76.2557 31.9676 76.1122 32.0474 76.017C33.7731 73.9649 35.1126 71.7538 36.6385 69.6782C37.6441 68.3092 38.6846 66.9684 40.0388 65.9124C40.0395 65.9124 40.0395 65.9118 40.0402 65.9118C40.1226 65.8481 40.242 65.901 40.2534 66.0043C40.6208 69.3973 42.1715 72.0823 44.9383 74.0856C45.0228 74.1466 45.0053 74.2773 44.9088 74.3168C43.7342 74.7969 42.575 75.0295 41.4018 75.2085C39.1975 75.5451 36.969 75.6382 34.7546 75.8689C33.9125 75.9567 33.0738 76.068 32.1741 76.2329Z" fill="white"/>
<path d="M56.9321 61.5601C57.0802 61.5407 57.1768 61.7116 57.0836 61.8283C56.8664 62.0998 56.6532 62.3646 56.4507 62.6375C55.1018 64.4516 53.7643 66.2739 52.4087 68.0826C51.9998 68.6284 51.5365 69.1332 51.1142 69.6695C50.964 69.8606 50.8614 69.872 50.671 69.7171C48.5887 68.021 47.331 65.8535 46.8965 63.2026C46.8556 62.9526 46.9347 62.8922 47.1647 62.846C49.5132 62.378 51.8986 62.191 54.2712 61.9074C55.1588 61.8008 56.0444 61.6748 56.9321 61.5601Z" fill="white"/>
<path d="M55.7511 88.1511C55.7953 88.0954 55.8825 88.1041 55.914 88.1685C56.6548 89.6769 57.3239 91.168 57.8502 92.722C57.9212 92.9312 57.7992 92.9949 57.6846 93.088C55.8443 94.5898 53.7894 95.6993 51.5274 96.418C48.8129 97.2809 46.0494 97.5417 43.2511 96.9215C38.9765 95.9742 35.9086 93.4393 33.9416 89.5791C32.1429 86.0493 31.6689 82.2929 32.2696 78.3891C32.2991 78.196 32.3695 78.1169 32.5666 78.0773C34.1675 77.7542 35.7879 77.602 37.413 77.488C37.4137 77.488 37.4137 77.488 37.4144 77.488C37.4828 77.4833 37.5297 77.5571 37.5035 77.6207C35.3414 83.0257 37.2535 88.7987 42.1241 91.3832C46.575 93.7444 52.1476 92.6818 55.7511 88.1511Z" fill="white"/>
<path d="M55.4427 52.9411C54.4431 51.5809 53.4744 50.2407 52.3621 48.9676C50.3582 46.6734 48.0667 44.7922 45.0887 43.8925C43.4536 43.3984 41.7722 43.1771 40.0793 43.0209C39.9459 43.0088 39.846 42.9948 39.7696 42.8486C38.8853 41.1598 38.3959 39.3899 38.6259 37.4658C38.644 37.3156 38.6681 37.1668 38.6963 36.9811C38.7023 36.9429 38.7492 36.9275 38.7767 36.9543C39.1783 37.3498 39.5611 37.7051 39.9788 38.0196C41.3753 39.0715 42.9119 39.7868 44.6831 39.8579C47.0403 39.9524 49.0637 38.5519 49.8923 36.2973C50.5667 34.4616 50.5386 32.5992 50.0887 30.7234C50.0666 30.6322 50.0438 30.541 50.0271 30.4485C50.019 30.4056 50.025 30.3506 50.0599 30.36C50.7551 30.5631 51.378 30.9138 51.9673 31.32C53.054 32.0689 53.8947 33.0484 54.5953 34.16C54.7106 34.3437 54.6375 34.4683 54.5705 34.6145C53.9953 35.8695 53.4858 37.148 53.0983 38.4761C52.3152 41.1605 52.4339 43.8361 53.1351 46.5125C53.6842 48.6075 54.535 50.5893 55.4038 52.565C55.4514 52.6723 55.493 52.7823 55.5373 52.8909C55.5674 52.968 55.4789 53.0022 55.4427 52.9411Z" fill="white"/>
<path d="M59.4696 28.3193C59.5112 28.202 59.6774 28.2006 59.7197 28.3173C60.6341 30.8374 61.8791 33.1034 62.9136 35.4626C63.596 37.018 64.237 38.5895 64.4743 40.2897C64.4743 40.2903 64.4743 40.2903 64.4743 40.291C64.4884 40.3942 64.3831 40.4713 64.2872 40.4291C61.1651 39.0507 58.0644 39.0514 54.9463 40.4452C54.8511 40.4881 54.7465 40.4077 54.7606 40.3037C54.9322 39.0467 55.3103 37.9264 55.7421 36.8209C56.5533 34.7439 57.5864 32.7675 58.4941 30.7341C58.8401 29.9632 59.1625 29.1814 59.4696 28.3193Z" fill="white"/>
<path d="M59.7983 57.0965C59.7414 57.2346 59.5449 57.2326 59.4906 57.0938C59.3639 56.77 59.2412 56.4529 59.1065 56.1412C58.2101 54.0662 57.3004 51.9966 56.412 49.9176C56.1439 49.2908 55.9387 48.6371 55.6853 48.0029C55.5955 47.777 55.6364 47.6831 55.8656 47.5953C58.375 46.6399 60.8817 46.6346 63.3945 47.5832C63.6318 47.6731 63.6446 47.7716 63.5695 47.9935C62.8005 50.2616 61.7701 52.4203 60.8288 54.6173C60.4761 55.4406 60.1429 56.2712 59.7983 57.0965Z" fill="white"/>
<path d="M37.3608 42.7782C37.3869 42.8446 37.3353 42.9157 37.2642 42.911C35.5875 42.7984 33.9617 42.6321 32.3527 42.311C32.1362 42.2681 32.1422 42.1306 32.1181 41.9845C31.738 39.6393 31.8043 37.3056 32.3125 34.9873C32.9226 32.205 34.0784 29.6809 36.0146 27.5677C38.9725 24.3396 42.7014 22.9499 47.0283 23.1765C50.9851 23.3836 54.4746 24.8512 57.5552 27.323C57.7074 27.445 57.7409 27.5456 57.6772 27.736C57.1563 29.284 56.4785 30.7636 55.7645 32.2278C55.7645 32.2285 55.7638 32.2285 55.7638 32.2292C55.7337 32.2908 55.6465 32.2942 55.6036 32.2399C52.0041 27.6649 46.0488 26.434 41.3746 29.3604C37.104 32.0354 35.2389 37.3927 37.3608 42.7782Z" fill="white"/>
<path d="M63.7495 52.852C64.428 51.306 65.1038 49.7969 65.6502 48.1973C66.635 45.3145 67.1184 42.3901 66.4084 39.3604C66.0189 37.6971 65.3699 36.131 64.6586 34.5864C64.6023 34.465 64.5647 34.3712 64.6532 34.2317C65.6736 32.6214 66.9615 31.3127 68.7428 30.5498C68.8816 30.4901 69.023 30.4365 69.198 30.3681C69.2342 30.354 69.2711 30.3868 69.261 30.4244C69.1196 30.9701 69.0029 31.479 68.9392 31.9979C68.7267 33.7329 68.8756 35.4217 69.6995 36.9912C70.7963 39.0795 73.0208 40.1321 75.388 39.7218C77.3148 39.3879 78.9138 38.4326 80.3136 37.1051C80.382 37.0408 80.4497 36.9751 80.5208 36.9141C80.5543 36.8859 80.6046 36.8631 80.614 36.898C80.7856 37.6019 80.7936 38.3159 80.736 39.0299C80.6307 40.3453 80.203 41.5634 79.5909 42.726C79.4897 42.9177 79.3449 42.9164 79.1846 42.9318C77.8103 43.0605 76.448 43.2589 75.1044 43.5874C72.3886 44.2518 70.1299 45.6926 68.1636 47.6375C66.6236 49.1607 65.3324 50.8883 64.0566 52.6281C63.9868 52.7226 63.9131 52.8138 63.8407 52.9063C63.7884 52.9733 63.7153 52.9137 63.7495 52.852Z" fill="white"/>
<path d="M87.0865 44.0285C87.2092 44.0057 87.293 44.1492 87.2132 44.2444C85.4875 46.2966 84.148 48.5076 82.6222 50.5833C81.6165 51.9523 80.576 53.2931 79.2218 54.349C79.2211 54.349 79.2211 54.3497 79.2204 54.3497C79.138 54.4134 79.0186 54.3604 79.0072 54.2572C78.6398 50.8642 77.0892 48.1791 74.3223 46.1759C74.2379 46.1149 74.2553 45.9842 74.3518 45.9446C75.5264 45.4646 76.6856 45.2319 77.8588 45.0529C80.0632 44.7164 82.2916 44.6232 84.506 44.3926C85.3481 44.3054 86.1868 44.1941 87.0865 44.0285Z" fill="white"/>
<path d="M62.3289 58.7021C62.1807 58.7216 62.0841 58.5506 62.1773 58.434C62.3946 58.1624 62.6077 57.8976 62.8102 57.6248C64.1591 55.8106 65.4966 53.9884 66.8522 52.1796C67.2611 51.6339 67.7244 51.129 68.1468 50.5927C68.2969 50.4016 68.3995 50.3902 68.5899 50.5451C70.6722 52.2413 71.93 54.4087 72.3644 57.0596C72.4053 57.3097 72.3262 57.37 72.0962 57.4163C69.7477 57.8842 67.3624 58.0713 64.9898 58.3548C64.1021 58.4608 63.2158 58.5875 62.3289 58.7021Z" fill="white"/>
<path d="M63.5098 32.1112C63.4656 32.1668 63.3784 32.1581 63.3469 32.0937C62.6061 30.5853 61.937 29.0943 61.4107 27.5402C61.3397 27.3311 61.4617 27.2674 61.5763 27.1742C63.4166 25.6724 65.4715 24.5629 67.7335 23.8442C70.448 22.9814 73.2115 22.7206 76.0098 23.3407C80.2844 24.288 83.3523 26.8229 85.3193 30.6832C87.1181 34.2129 87.592 37.9693 86.9913 41.8732C86.9618 42.0663 86.8914 42.1454 86.6943 42.1849C85.0934 42.5081 83.473 42.6603 81.8479 42.7742C81.8472 42.7742 81.8472 42.7742 81.8465 42.7742C81.7781 42.7789 81.7312 42.7052 81.7574 42.6415C83.9195 37.2366 82.0074 31.4636 77.1368 28.8791C72.6859 26.5172 67.1133 27.5805 63.5098 32.1112Z" fill="white"/>
<path d="M68.0115 60.0416C69.6896 59.8559 71.3341 59.6869 72.9927 59.3604C75.9815 58.7718 78.7563 57.728 81.0251 55.5987C82.2707 54.4295 83.3025 53.0846 84.2846 51.6962C84.3617 51.5869 84.4241 51.5071 84.589 51.5138C86.4937 51.5923 88.271 52.0535 89.8223 53.2147C89.943 53.3052 90.0603 53.4011 90.2071 53.5177C90.2373 53.5418 90.2273 53.5908 90.1897 53.6008C89.6467 53.751 89.1472 53.9045 88.6658 54.109C87.0568 54.7929 85.6691 55.7656 84.7218 57.264C83.4614 59.2579 83.6625 61.7109 85.2011 63.5559C86.4535 65.0577 88.0806 65.9648 89.9303 66.5132C90.0201 66.54 90.1106 66.5655 90.1991 66.597C90.2407 66.6117 90.2849 66.6439 90.2594 66.6694C89.7358 67.1695 89.1211 67.5342 88.4741 67.8413C87.2821 68.4078 86.0137 68.6464 84.701 68.6974C84.4844 68.7061 84.4127 68.5801 84.3195 68.4487C83.5204 67.323 82.6676 66.2423 81.7116 65.2427C79.7781 63.2227 77.4014 61.9871 74.7338 61.2564C72.6448 60.6838 70.5035 60.4298 68.3581 60.1951C68.2415 60.1824 68.1255 60.1636 68.0088 60.1475C67.9257 60.1361 67.9404 60.0429 68.0115 60.0416Z" fill="white"/>
<path d="M87.3202 75.8401C87.4007 75.9346 87.3195 76.0794 87.1969 76.0579C84.5567 75.59 81.9723 75.535 79.4119 75.2514C77.7238 75.0644 76.0424 74.8344 74.4508 74.1895C74.4501 74.1895 74.4501 74.1888 74.4495 74.1888C74.3529 74.1493 74.3388 74.0192 74.4233 73.9582C77.1781 71.9436 78.7274 69.2579 79.0794 65.8602C79.0901 65.7562 79.2115 65.706 79.2946 65.7703C80.2976 66.548 81.0786 67.435 81.8201 68.3615C83.2132 70.1026 84.4086 71.9858 85.7159 73.7886C86.212 74.4731 86.7276 75.1435 87.3202 75.8401Z" fill="white"/>
<path d="M62.2346 61.7365C62.1434 61.6178 62.2433 61.4488 62.3908 61.471C62.7341 61.5233 63.0706 61.5756 63.4078 61.6144C65.6531 61.8752 67.9003 62.1226 70.1449 62.3921C70.822 62.4732 71.4904 62.6227 72.1662 62.72C72.4069 62.7548 72.4679 62.838 72.429 63.08C72.0013 65.7308 70.753 67.9043 68.6747 69.6059C68.4782 69.7668 68.3864 69.7279 68.2322 69.5522C66.6527 67.7521 65.2984 65.7804 63.8664 63.8671C63.3301 63.1517 62.7777 62.4478 62.2346 61.7365Z" fill="white"/>
<path d="M85.8534 49.4637C85.783 49.453 85.7468 49.3732 85.7863 49.3142C86.7223 47.9184 87.6796 46.5937 88.7617 45.3607C88.9072 45.1952 89.0231 45.2682 89.1619 45.3212C91.383 46.1646 93.3708 47.3888 95.1246 48.9884C97.2291 50.9078 98.8368 53.1705 99.6989 55.9038C101.016 60.0792 100.355 64.0038 97.9947 67.6368C95.8373 70.9595 92.8211 73.2483 89.1398 74.6803C88.9581 74.7507 88.8542 74.7299 88.7214 74.5791C87.6414 73.3542 86.6988 72.0274 85.7877 70.6765C85.7877 70.6759 85.787 70.6759 85.787 70.6752C85.7488 70.6182 85.7897 70.5411 85.8574 70.5311C91.619 69.7011 95.663 65.159 95.4659 59.6481C95.2855 54.6132 91.5788 50.3192 85.8534 49.4637Z" fill="white"/>
<path d="M51.3555 60.171C49.6775 60.3567 48.0329 60.5257 46.3743 60.8522C43.3856 61.4408 40.6107 62.4846 38.342 64.6139C37.0963 65.7831 36.0646 67.128 35.0824 68.5164C35.0053 68.6257 34.9429 68.7055 34.778 68.6988C32.8734 68.6203 31.0961 68.1591 29.5447 66.9979C29.424 66.9074 29.3067 66.8115 29.1599 66.6949C29.1297 66.6707 29.1398 66.6218 29.1773 66.6118C29.7204 66.4616 30.2198 66.308 30.7012 66.1036C32.3102 65.4197 33.698 64.447 34.6453 62.9486C35.9057 60.9547 35.7045 58.5017 34.1659 56.6567C32.9136 55.1549 31.2865 54.2478 29.4368 53.6994C29.3469 53.6726 29.2564 53.6471 29.1679 53.6156C29.1264 53.6009 29.0821 53.5687 29.1076 53.5432C29.6312 53.0431 30.246 52.6784 30.8929 52.3713C32.0849 51.8048 33.3534 51.5661 34.6661 51.5152C34.8826 51.5065 34.9543 51.6325 35.0475 51.7639C35.8467 52.8896 36.6995 53.9703 37.6555 54.9699C39.589 56.9899 41.9656 58.2254 44.6332 58.9562C46.7223 59.5287 48.8636 59.7828 51.0089 60.0175C51.1256 60.0302 51.2416 60.049 51.3582 60.0651C51.4414 60.0765 51.4266 60.1697 51.3555 60.171Z" fill="white"/>
<path d="M32.0469 44.3725C31.9664 44.278 32.0475 44.1332 32.1702 44.1546C34.8103 44.6226 37.3948 44.6775 39.9552 44.9611C41.6433 45.1482 43.3247 45.3781 44.9163 46.0231C44.9169 46.0231 44.9169 46.0237 44.9176 46.0237C45.0142 46.0633 45.0282 46.1934 44.9438 46.2544C42.189 48.269 40.639 50.9547 40.2877 54.3524C40.277 54.4563 40.1556 54.5066 40.0725 54.4422C39.0695 53.6645 38.2885 52.7776 37.547 51.851C36.1539 50.11 34.9585 48.2267 33.6512 46.424C33.1551 45.7395 32.6395 45.0691 32.0469 44.3725Z" fill="white"/>
<path d="M57.1325 58.4762C57.2237 58.5948 57.1238 58.7638 56.9763 58.7417C56.633 58.6894 56.2965 58.6371 55.9593 58.5982C53.714 58.3374 51.4668 58.09 49.2222 57.8205C48.5451 57.7394 47.8767 57.5899 47.2009 57.4927C46.9602 57.4578 46.8992 57.3747 46.9381 57.1326C47.3658 54.4818 48.6141 52.3083 50.6924 50.6068C50.8889 50.4459 50.9807 50.4847 51.1349 50.6604C52.7144 52.4605 54.0687 54.4322 55.5007 56.3456C56.037 57.0609 56.5895 57.7655 57.1325 58.4762Z" fill="white"/>
<path d="M33.5137 70.7489C33.5841 70.7596 33.6203 70.8394 33.5807 70.8984C32.6448 72.2942 31.6874 73.6189 30.6054 74.8518C30.4599 75.0174 30.3439 74.9444 30.2051 74.8914C27.984 74.048 25.9962 72.8238 24.2424 71.2242C22.138 69.3048 20.5303 67.0421 19.6681 64.3088C18.3514 60.1334 19.0125 56.2088 21.3723 52.5757C23.5298 49.2531 26.546 46.9643 30.2273 45.5323C30.409 45.4619 30.5129 45.4827 30.6456 45.6335C31.7257 46.8584 32.6683 48.1852 33.5794 49.5361C33.5794 49.5367 33.58 49.5367 33.58 49.5374C33.6183 49.5944 33.5774 49.6715 33.5097 49.6815C27.748 50.5115 23.7041 55.0536 23.9012 60.5645C24.0815 65.5993 27.7883 69.8934 33.5137 70.7489Z" fill="white"/>
</svg>
