<svg width="120" height="120" viewBox="0 0 120 120" fill="none" xmlns="http://www.w3.org/2000/svg">
<circle cx="60" cy="60" r="60" fill="#EDF0F4"/>
<circle cx="32.7273" cy="82.1376" r="8.1352" transform="rotate(-1.146 32.7273 82.1376)" fill="#DE2813"/>
<circle cx="25.5245" cy="65.6807" r="5.52448" fill="#E71619"/>
<circle cx="28.6947" cy="47.8486" r="4.87179" fill="#EB6617" fill-opacity="0.01"/>
<circle cx="38.9277" cy="33.1165" r="4.1958" fill="#EC6816"/>
<circle cx="56.1305" cy="26.1935" r="3.19347" fill="#F2961B"/>
<circle cx="74.0326" cy="28.7111" r="2.65734" fill="#F1C621"/>
<circle cx="88.4849" cy="40.2028" r="1.98135" fill="#F3C620"/>
<circle cx="95.3847" cy="57.0561" r="4.61538" fill="#156192"/>
<circle cx="92.8904" cy="74.8415" r="4.12587" fill="#2090C0"/>
<circle cx="81.9114" cy="89.0139" r="3.21678" fill="#338DCC"/>
<circle cx="64.7552" cy="95.5409" r="2.12121" fill="#38BAE8"/>
<circle cx="47.669" cy="93.0467" r="1.46853" fill="#36BBE6"/>
<circle cx="28.7418" cy="47.827" r="7.8324" transform="rotate(-3.17 28.7418 47.827)" fill="#EB6617"/>
<path d="M46.4569 54.4919L52.9604 50.7856L52.9371 72.3474L46.4569 76.0071V54.4919V54.4919Z" fill="#3F3F3F"/>
<path d="M72.3776 54.4919L78.8811 50.7856L78.8577 72.3474L72.3776 76.0071V54.4919Z" fill="#3F3F3F"/>
<path d="M59.3939 54.4919L65.8974 50.7856L65.8741 72.3474L59.3939 76.0071V54.4919Z" fill="#3F3F3F"/>
<path d="M40.1632 50.6457L46.5268 46.8928L52.9604 50.7856L46.4569 54.4919L40.1632 50.6457Z" fill="#686A69"/>
<path d="M53.0769 50.6457L59.4405 46.8928L65.8741 50.7856L59.3939 54.4919L53.0769 50.6457Z" fill="#686A69"/>
<path d="M66.0839 50.6689L72.4475 46.916L78.8811 50.8088L72.3776 54.5151L66.0839 50.6689Z" fill="#686A69"/>
</svg>
