<svg width="120" height="120" viewBox="0 0 120 120" fill="none" xmlns="http://www.w3.org/2000/svg">
<circle cx="60" cy="60" r="60" fill="#1EB5FA"/>
<path fill-rule="evenodd" clip-rule="evenodd" d="M34.0418 33.12L20.8709 27.1542C20.4771 26.9399 19.9988 26.9495 19.614 27.1796C19.2292 27.4097 18.9956 27.8257 19.0001 28.2728V90.6899C19.0004 91.1506 19.2508 91.5751 19.6545 91.7995C20.0583 92.0238 20.5523 92.013 20.9458 91.7712L34.1914 84.7987C34.9354 84.3471 35.3893 83.5415 35.3888 82.6734V35.3199C35.3597 34.4014 34.8481 33.5659 34.0418 33.12ZM99.0915 27.1915L85.5091 33.1946C84.7021 33.6345 84.2001 34.4779 84.1995 35.3945V83.792C84.1965 84.7196 84.7173 85.5702 85.5465 85.9918L99.129 91.8458C99.5228 92.0601 100.001 92.0505 100.386 91.8204C100.771 91.5903 101.004 91.1743 101 90.7272V28.3101C100.985 27.8627 100.742 27.4539 100.355 27.227C99.9677 27.0001 99.4909 26.9867 99.0915 27.1915ZM61.1692 41.5467L75.3503 49.6378C76.1434 50.0869 76.6303 50.9287 76.6225 51.8377V68.2436C76.6209 69.1501 76.1366 69.9876 75.3503 70.4435L61.1692 78.6465C60.3947 79.0939 59.4368 79.0939 58.6623 78.6465L44.2192 70.3689C43.4335 69.914 42.9471 69.0751 42.9471 68.169V51.7631C42.9487 50.8566 43.433 50.0191 44.2192 49.5632L58.6623 41.5467C59.4375 41.0989 60.394 41.0989 61.1692 41.5467Z" fill="white"/>
</svg>
