<svg width="120" height="120" viewBox="0 0 120 120" fill="none" xmlns="http://www.w3.org/2000/svg">
<circle cx="60" cy="60" r="60" fill="black"/>
<path d="M106.518 66.432C103.472 70.5199 97.6895 71.3659 93.6 68.322C89.5121 65.276 88.6661 59.4935 91.71 55.404C94.756 51.3161 100.539 50.4701 104.628 53.514C105.346 54.049 105.983 54.6857 106.518 55.404L109.116 53.544C105.044 48.007 97.2554 46.8172 91.716 50.886C86.179 54.958 84.9892 62.7466 89.058 68.286C93.13 73.823 100.919 75.0128 106.458 70.944C107.473 70.1976 108.37 69.3014 109.116 68.286L106.518 66.432Z" fill="white"/>
<path fill-rule="evenodd" clip-rule="evenodd" d="M73.5719 50.3219L75.3719 46.5779L77.1179 50.3219L87.7979 73.3559H84.2999L81.8279 68.0219H68.8439L66.3779 73.3559H62.8979L73.5719 50.3219ZM75.372 54.0539L70.3619 64.8539H80.3699L75.372 54.0539Z" fill="white"/>
<path d="M23.544 60.942L14.55 51.948L14.304 51.702L11.118 48.51V48.516V53.034V73.35H14.304V56.22L21.288 63.204L23.544 65.46L25.794 63.204L32.778 56.22V73.35H35.964V53.034V48.516L32.778 51.702L23.544 60.942Z" fill="white"/>
<path fill-rule="evenodd" clip-rule="evenodd" d="M39.12 60.9661C39.12 54.0902 44.694 48.5161 51.57 48.5161C58.4459 48.5161 64.02 54.0902 64.02 60.9661C64.02 67.8421 58.4459 73.4161 51.57 73.4161C48.268 73.4161 45.1013 72.1044 42.7665 69.7696C40.4317 67.4348 39.12 64.2681 39.12 60.9661ZM45.0307 67.4761C46.766 69.208 49.1184 70.1793 51.57 70.1761V70.2001C54.0248 70.1969 56.3774 69.2171 58.1087 67.4768C59.8399 65.7365 60.8076 63.3789 60.798 60.9241C60.7964 58.4735 59.8214 56.1239 58.0874 54.3922C56.3535 52.6605 54.0026 51.6885 51.552 51.6901C49.1004 51.6917 46.7498 52.6676 45.018 54.4028C43.2861 56.1381 42.3148 58.4905 42.318 60.9421C42.3196 63.3938 43.2954 65.7443 45.0307 67.4761Z" fill="white"/>
<circle cx="56.832" cy="55.6621" r="0.864" fill="white"/>
<circle cx="56.832" cy="66.1799" r="0.864" fill="white"/>
<circle cx="46.308" cy="55.6621" r="0.864" fill="white"/>
<circle cx="44.1181" cy="60.9241" r="0.438" fill="white"/>
<circle cx="51.57" cy="68.388" r="0.438" fill="white"/>
<circle cx="59.016" cy="60.9241" r="0.438" fill="white"/>
<circle cx="51.57" cy="53.49" r="0.438" fill="white"/>
<circle cx="51.57" cy="55.6621" r="0.438" fill="white"/>
<circle cx="46.308" cy="66.1799" r="0.864" fill="white"/>
<circle cx="51.5701" cy="66.1799" r="0.864" fill="white"/>
<rect x="56.67" y="55.6621" width="0.318" height="10.524" fill="white"/>
<rect x="46.308" y="55.6079" width="10.524" height="0.108" fill="white"/>
<path d="M51.5362 55.687L51.6329 55.6388L56.8857 66.1605L56.789 66.2087L51.5362 55.687Z" fill="white"/>
<path d="M46.2667 66.1592L51.5295 55.6358L51.6261 55.6841L46.3633 66.2075L46.2667 66.1592Z" fill="white"/>
<rect x="46.146" y="55.6621" width="0.318" height="10.524" fill="white"/>
<rect x="46.308" y="66.126" width="10.524" height="0.108" fill="white"/>
<path d="M46.1729 55.7374L46.4573 55.5951L51.7201 66.1185L51.4357 66.2607L46.1729 55.7374Z" fill="white"/>
<path d="M51.4311 66.1142L56.6939 55.5908L56.9783 55.7331L51.7155 66.2564L51.4311 66.1142Z" fill="white"/>
<path d="M44.0736 60.914L46.254 55.6475L46.3537 55.6888L44.1734 60.9553L44.0736 60.914Z" fill="white"/>
<path d="M46.26 66.21L44.076 60.954L44.172 60.906L46.362 66.162L46.26 66.21Z" fill="white"/>
<rect x="51.516" y="66.1799" width="0.108" height="2.196" fill="white"/>
<rect x="51.516" y="53.4719" width="0.108" height="2.196" fill="white"/>
<path d="M46.2944 55.6118L51.5553 53.4337L51.5966 53.5335L46.3357 55.7116L46.2944 55.6118Z" fill="white"/>
<path d="M51.5433 53.5374L51.5846 53.4376L56.8511 55.618L56.8098 55.7178L51.5433 53.5374Z" fill="white"/>
<path d="M56.7834 55.6815L56.8831 55.6402L59.0653 60.9059L58.9656 60.9473L56.7834 55.6815Z" fill="white"/>
<path d="M56.7762 66.1848L58.9612 60.9072L59.061 60.9485L56.876 66.2261L56.7762 66.1848Z" fill="white"/>
<path d="M51.5415 68.3427L56.8204 66.1453L56.8619 66.245L51.583 68.4424L51.5415 68.3427Z" fill="white"/>
<path d="M51.546 68.4299L46.272 66.2339L46.308 66.1379L51.588 68.3339L51.546 68.4299Z" fill="white"/>
</svg>
