<svg width="120" height="120" viewBox="0 0 120 120" fill="none" xmlns="http://www.w3.org/2000/svg">
<path d="M118.204 74.5158C110.188 106.657 77.6408 126.219 45.4842 118.204C13.3433 110.188 -6.20374 77.6252 1.81195 45.4842C9.81203 13.3433 42.3748 -6.21936 74.5001 1.79634C106.657 9.81204 126.219 42.3748 118.204 74.5158Z" fill="#0007BC"/>
<path fill-rule="evenodd" clip-rule="evenodd" d="M96.0315 63.6562L95.2814 62.4531L83.2188 43.3435C82.2657 41.8591 81.0157 40.5935 79.5469 39.6247C76.8125 37.8903 73.4688 37.3434 70.3281 38.1247C67.2187 38.8747 64.5624 40.8591 62.953 43.6248C62.1405 44.9685 61.1249 46.6404 60.0936 48.281L56.8123 43.2185L56.6873 43.0466V42.9997C55.578 41.5154 54.1873 40.2653 52.5936 39.3278C50.2029 38.031 47.4373 37.5934 44.7341 38.0622C42.1403 38.5778 39.7653 39.8903 37.9372 41.8279C37.4215 42.406 36.9684 43.031 36.5934 43.7029L27.6871 57.828L23.9527 63.7187C22.2495 66.4375 21.6558 69.7187 22.312 72.8594C22.9214 76.0001 24.8121 78.7501 27.5152 80.4688C29.359 81.6251 31.484 82.2345 33.6559 82.2189C37.9215 82.2032 41.8747 80.0313 44.1404 76.4219L46.9841 71.9219L49.7342 76.2032C50.4685 77.2657 51.3435 78.2501 52.2967 79.1095C52.5623 79.3438 52.8279 79.5782 53.1092 79.7813H53.1404C53.3279 79.922 53.5154 80.047 53.7342 80.1876C55.578 81.3751 57.7342 82.0157 59.9374 82.0157C62.2655 82.0001 64.5468 81.3282 66.4843 80.047L66.7187 79.8907L66.9374 79.7501C68 79.0001 68.9531 78.0782 69.7343 77.0313L72.9687 72L75.7344 76.3751C78.0313 79.9688 81.9845 82.1407 86.2501 82.1407C88.4064 82.1564 90.5314 81.547 92.3752 80.4063C97.9221 76.9376 99.5784 69.2812 96.0315 63.6562ZM38.3278 44.7341C38.6559 44.1716 39.0309 43.656 39.4528 43.1716C40.9528 41.5622 42.9372 40.4529 45.0935 39.9841C47.3435 39.5778 49.6404 39.9528 51.6404 41.031C52.9998 41.8435 54.1873 42.9216 55.1248 44.1873L55.203 44.2966L58.9842 50.1092C58.2834 51.1573 57.627 52.1315 57.09 52.9284L57.0871 52.9327L57.0869 52.9329C56.2728 54.1412 55.7342 54.9404 55.7342 54.9686C54.3436 57.0936 52.2186 58.6405 49.7654 59.2811H49.6404C47.0779 60.0312 44.3435 59.7343 41.9841 58.4686L41.6091 58.2499L41.281 58.0311L40.9685 57.8124L40.7028 57.5936L40.4528 57.3905L40.2497 57.2186L40.1091 57.0936L40.0309 57.0155L39.8122 56.7655L39.5466 56.5311L39.4684 56.453L39.3434 56.328L39.2653 56.2499L39.1872 56.1717L38.8278 55.8749L38.7497 55.8124L38.6403 55.7342L38.4528 55.5936L38.3591 55.5311H38.3122L38.0465 55.3592L37.9528 55.3124H37.8747L37.6247 55.1717L37.4997 55.0936L37.1715 54.9374L37.0153 54.828L36.8434 54.7499L36.5309 54.6249H36.5153L36.1247 54.4999L35.9684 54.4686L35.6559 54.3905H35.4997L35.2028 54.2811H35.0309H34.9059H34.7496H34.5309H34.0465H33.8903H33.3434H33.2653L32.734 54.3592H32.6871L32.1246 54.4842L38.3278 44.7341ZM36.234 79.9376C38.8434 79.2813 41.1091 77.6563 42.5622 75.375L45.9685 70.125L38.2497 57.7186L38.1559 57.6093L38.0934 57.5311L38.0465 57.4843L37.8747 57.3124H37.8434L37.5622 57.0624H37.5153L37.3903 56.9843L37.2809 56.9061H37.234H37.1715L36.984 56.7811L36.859 56.703H36.7965L36.6715 56.6249L36.5465 56.5624H36.4684L36.3278 56.4842L36.234 56.453L35.9059 56.328H35.8122L35.609 56.2499H35.5153H35.4528L35.2809 56.2186H35.1871H34.9684H34.8434H34.5934H34.4684H34.0934C32.6871 56.2186 31.3277 56.7655 30.3121 57.7343C29.9683 58.078 29.6715 58.4374 29.4058 58.8436L25.6871 64.7343C22.7183 69.4844 24.0777 75.9063 28.6558 78.7813C30.9059 80.2032 33.6559 80.6095 36.234 79.9376ZM68.2187 75.8438C67.5468 76.7501 66.7656 77.5469 65.8281 78.2032L65.6562 78.3282L65.4374 78.4688C62.2499 80.6095 58.0936 80.6563 54.8436 78.6095L54.3436 78.2657H54.2811C54.2334 78.2282 54.1849 78.1908 54.1361 78.153C53.9609 78.0174 53.7803 77.8777 53.6092 77.7188C52.7811 76.9688 52.0311 76.1251 51.3904 75.2032L47.8435 69.6094L42.3747 60.9062L42.5622 60.9843L43.0778 61.1562L43.3747 61.2499L43.8904 61.3749L44.2341 61.4687L44.781 61.5624L45.0779 61.6093L45.7966 61.6874H45.8904H46.7029H47.031H47.6404H47.9529L48.5466 61.6093H48.8123C49.0935 61.5624 49.3748 61.5155 49.6248 61.4374C50.5935 61.1874 51.531 60.828 52.4217 60.3593H52.5154C52.6404 60.2968 52.7576 60.2343 52.8748 60.1718C52.992 60.1093 53.1092 60.0468 53.2342 59.9843C54.8905 59.0311 56.2967 57.703 57.328 56.0936C57.328 56.0936 59.0155 53.5467 60.8593 50.6717C62.1718 48.6248 63.578 46.3904 64.578 44.6716C65.9062 42.3747 68.1406 40.7029 70.7187 40.0935C73.3594 39.4528 76.125 39.8903 78.4219 41.3435C79.6407 42.156 80.6876 43.2341 81.5001 44.4685L90.7814 59.1874C90.5158 59.0624 90.2502 58.9686 89.9689 58.8749L89.8283 58.828C89.6115 58.7515 89.3843 58.6854 89.1637 58.6212L89.0158 58.578H88.9376C88.6919 58.5057 88.4327 58.4602 88.1849 58.4167L88.1251 58.4061H88.0001C87.7942 58.3698 87.5696 58.3429 87.3625 58.318C87.3024 58.3108 87.2438 58.3038 87.1876 58.2968H87.0314C86.7501 58.2968 86.4689 58.2968 86.2189 58.2655H86.1876H85.3751H85.2032C84.9376 58.2655 84.6564 58.2968 84.3907 58.3593H84.2188C83.9376 58.4061 83.6563 58.453 83.3595 58.5311C82.9688 58.6249 82.5938 58.7343 82.2032 58.8593C79.6094 59.7499 77.3907 61.5155 75.9688 63.8593L72.5937 69.1562L68.2187 75.8438ZM77.4844 75.2969C80.4532 80.0313 86.8282 81.5939 91.4064 78.7188C95.9846 75.8438 97.3283 69.4219 94.3283 64.6249L93.6252 63.4999L93.5471 63.4218C93.5002 63.3697 93.4533 63.3159 93.4064 63.2621C93.3127 63.1545 93.2189 63.0468 93.1252 62.9531L93.0471 62.8749C92.7189 62.5468 92.3439 62.2343 91.9533 61.953L91.8283 61.8749C91.7658 61.8333 91.712 61.7968 91.6581 61.7603C91.5505 61.6874 91.4429 61.6145 91.2658 61.4999C91.0002 61.328 90.7189 61.1874 90.4533 61.0624H90.3752L90.0939 60.9374L89.922 60.8593L89.7189 60.7812L89.4533 60.6718H89.3439L88.9689 60.5468C84.8282 59.2811 80.3126 60.8437 77.8438 64.4218L77.5782 64.8437L74.2031 70.1406L77.4844 75.2969Z" fill="white"/>
</svg>
