<svg width="120" height="120" viewBox="0 0 120 120" fill="none" xmlns="http://www.w3.org/2000/svg">
<circle cx="60" cy="60" r="60" fill="#EDF0F4"/>
<path d="M90.3401 69.0998L75.8252 44.3189C73.1985 39.8937 66.7705 39.8937 64.1441 44.3189L49.629 69.0998C47.0024 73.5249 50.2511 79.0393 55.5041 79.0393H84.5341C89.7181 79.0393 92.8976 73.5249 90.3401 69.0998Z" fill="#00B897"/>
<path d="M70.9863 69.5781L70.1568 68.1484C69.3966 66.7869 67.6686 63.9275 67.6686 63.9275L56.1257 44.3207C53.4992 39.8955 47.0711 39.8955 44.4445 44.3207L29.9295 69.1015C27.303 73.5268 30.5516 79.0412 35.8046 79.0412H64.5581H76.5157H84.5337C77.3452 79.0412 74.3039 75.2288 70.9863 69.5781Z" fill="#76FCB2"/>
<path d="M70.9869 69.5766L70.1574 68.1469C69.397 66.7854 67.669 63.926 67.669 63.926L60.1351 51.1271L49.629 69.1C47.0024 73.5253 50.2511 79.0396 55.5041 79.0396H64.5587H76.5163H84.5341C77.3458 79.0396 74.3045 75.2273 70.9869 69.5766Z" fill="url(#paint0_linear_1_5991)"/>
<defs>
<linearGradient id="paint0_linear_1_5991" x1="37.7561" y1="73.9599" x2="67.6012" y2="92.1372" gradientUnits="userSpaceOnUse">
<stop stop-color="#53E57A" stop-opacity="0.01"/>
<stop offset="1" stop-color="#00A977"/>
</linearGradient>
</defs>
</svg>
