<svg width="120" height="120" viewBox="0 0 120 120" fill="none" xmlns="http://www.w3.org/2000/svg">
<path d="M60 120C93.138 120 120 93.138 120 60C120 26.862 93.138 0 60 0C26.862 0 0 26.862 0 60C0 93.138 26.862 120 60 120Z" fill="#EDF0F4"/>
<circle cx="60.741" cy="60.13" r="37.741" fill="#09006E"/>
<path d="M60.8504 69.0978C57.923 67.4076 56.92 63.6643 58.6101 60.7368L83.688 17.3006C85.3782 14.3732 89.1215 13.3701 92.049 15.0603C94.9765 16.7505 95.9795 20.4938 94.2893 23.4212L69.2114 66.8575C67.5212 69.7849 63.7779 70.788 60.8504 69.0978Z" fill="url(#paint0_linear_1_5473)"/>
<path d="M72.8427 80.4988L72.7219 61.3887L63.6169 76.7247H57.3859L48.2809 62.0472V80.4988H35.3999V38.5648H47.0222L60.6807 60.9094L73.9806 38.5648H85.6029L85.7218 80.4988H72.8427Z" fill="#00FFD9"/>
<path d="M60.0239 58.2863L77.7773 27.5387C78.5882 26.1324 79.9247 25.1061 81.4926 24.6856C83.0605 24.2651 84.7312 24.4851 86.1369 25.2969C87.5428 26.1081 88.5689 27.4446 88.9893 29.0124C89.4097 30.5802 89.1901 32.2507 88.3787 33.6565L70.6254 64.406C68.9354 67.3339 65.1919 68.3375 62.2639 66.6478C59.3376 64.9565 58.335 61.214 60.0239 58.2863Z" fill="url(#paint1_linear_1_5473)"/>
<defs>
<linearGradient id="paint0_linear_1_5473" x1="82.5903" y1="36.6709" x2="93.7936" y2="17.2662" gradientUnits="userSpaceOnUse">
<stop stop-color="#00FFD9"/>
<stop offset="0.85" stop-color="#09006E"/>
</linearGradient>
<linearGradient id="paint1_linear_1_5473" x1="76.9298" y1="84.0295" x2="110.995" y2="55.3089" gradientUnits="userSpaceOnUse">
<stop offset="0.08" stop-color="#00FFD9"/>
<stop offset="0.68" stop-color="#064E8F"/>
<stop offset="1" stop-color="#09006E"/>
</linearGradient>
</defs>
</svg>
