<svg width="120" height="120" viewBox="0 0 120 120" fill="none" xmlns="http://www.w3.org/2000/svg">
<circle cx="60" cy="60" r="60" fill="#E7EFF3"/>
<path d="M74.276 85.2193C70.616 83.4625 67.7246 80.7053 66.7364 79.5464C66.407 80.4857 65.5652 82.6866 64.8332 83.9749C63.9182 85.5853 62.2713 87.7447 60.7707 89.0623C59.2701 90.3799 54.4389 94.9182 49.1686 94.0398C43.8982 93.1615 40.165 90.4897 38.4082 87.1957C36.6515 83.9017 36.4319 80.6077 37.2736 77.204C37.9471 74.481 39.6038 71.409 40.348 70.2134C39.5062 70.4086 37.054 70.5209 33.9797 69.4082C30.1367 68.0174 27.8309 65.9313 26.5133 63.2595C25.1957 60.5877 24.7199 55.8663 25.1591 51.5476C25.5983 47.2288 28.2335 42.0682 34.3091 42.5074C39.1695 42.8588 44.2886 45.6306 46.2406 46.9726C45.6672 43.276 44.8644 34.8874 46.2406 30.9053C47.9608 25.9278 52.1697 24.8664 57.3303 25.0128C62.4909 25.1592 65.4188 27.7943 67.322 30.8687C68.8446 33.3282 69.0544 38.5547 68.969 40.8604C70.3598 39.494 74.2687 36.6881 78.7777 36.3953C84.4141 36.0293 87.1225 37.0175 89.3917 38.7377C91.6608 40.4578 94.2228 43.7152 94.8084 47.0824C95.394 50.4496 94.5888 52.5724 93.0516 55.2441C91.8219 57.3816 88.7329 59.6239 87.3421 60.4779C88.1839 61.1367 90.2115 62.8496 91.5876 64.4307C93.3078 66.4071 94.9182 69.9572 94.9548 74.3126C94.9914 78.668 93.6738 80.6443 92.5392 82.5475C91.4046 84.4507 89.0623 87.3787 85.1095 87.7081C81.1567 88.0375 78.8509 87.4153 74.276 85.2193Z" fill="#DC8898"/>
<path d="M49.2785 82.1815C47.3168 84.4361 45.338 84.8533 44.5938 84.7801C44.8988 84.5727 45.6844 84.0408 46.3871 83.5723C47.2655 82.9867 50.3765 78.9608 51.4379 77.3504C52.287 76.0621 55.0369 71.5432 56.3057 69.4448L57.0377 69.8474C55.2686 73.0194 51.2403 79.927 49.2785 82.1815Z" fill="#C57180"/>
<path d="M41.739 55.6833C44.462 56.2982 48.9491 58.4283 50.8523 59.4165L50.2301 60.6609C49.4981 60.2949 47.7999 59.4311 46.8629 58.9041C45.6917 58.2453 41.2632 56.6349 38.1522 56.4153C35.0412 56.1957 34.0896 56.6715 32.8086 57.1473C31.5276 57.6231 30.3565 58.7943 30.6127 57.9525C30.8689 57.1107 31.5642 56.2323 33.7236 55.5003C35.883 54.7683 38.3352 54.9147 41.739 55.6833Z" fill="#C57180"/>
<path d="M58.209 41.5193C58.4725 43.686 58.758 49.0588 58.8678 51.4744H57.9894C57.9771 50.9498 57.9601 49.6298 57.9894 48.5464C58.026 47.1922 57.3306 41.9585 56.8914 39.0671C56.54 36.754 55.3786 32.4669 54.8418 30.6125C55.3786 31.4055 56.54 33.3063 56.8914 34.5653C57.3306 36.1391 57.8796 38.8109 58.209 41.5193Z" fill="#C57180"/>
<path d="M73.6176 50.0104C71.2752 51.6794 68.5669 55.2685 67.5055 56.8546L66.8467 55.8298C67.4933 54.9514 69.1012 52.8505 70.3603 51.4744C71.934 49.7542 74.5326 47.7412 78.5952 45.838C81.8452 44.3155 85.7565 44.8864 87.3059 45.3622C86.7569 45.3256 85.4833 45.2744 84.7805 45.3622C83.9022 45.472 82.8408 45.5452 80.6814 46.0576C78.522 46.57 76.5456 47.9242 73.6176 50.0104Z" fill="#C57180"/>
<path d="M76.4717 70.7259C74.0708 69.1155 67.7122 66.8097 64.833 65.8581L65.4552 64.9431C66.3336 65.2359 68.3978 65.9386 69.6276 66.4071C71.1648 66.9927 74.0927 68.6031 75.1907 69.1887C76.2887 69.7743 80.0219 72.1167 81.1199 72.8121C82.2179 73.5075 86.0974 76.3622 86.866 77.021C87.6346 77.6798 87.6712 78.668 87.4516 78.9242C87.232 79.1804 86.5 78.1922 85.5485 77.204C84.5969 76.2158 79.4729 72.7389 76.4717 70.7259Z" fill="#C57180"/>
<ellipse cx="59.1608" cy="60.1119" rx="9.84533" ry="9.95513" fill="#FBECB3"/>
</svg>
