<svg width="120" height="120" viewBox="0 0 120 120" fill="none" xmlns="http://www.w3.org/2000/svg">
<path fill-rule="evenodd" clip-rule="evenodd" d="M60 120C27 120 0 93.0006 0 59.7012C0.3 26.7019 27 -0.297518 60.3 0.00247602C93.3 0.30247 120 27.0019 120 60.6012C119.7 93.3006 93 120 60 120Z" fill="#EDF0F4"/>
<path d="M104.976 59.0925C104.985 59.3978 104.988 59.6978 104.988 60.0013C105 67.2048 103.273 74.3048 99.9545 80.6986L75.4216 90.599L75.4713 90.4872L104.976 59.0925Z" fill="#0F6089"/>
<path d="M104.976 59.0817L75.4766 90.487L102.879 46.3521C104.189 50.4718 104.895 54.7595 104.976 59.0817Z" fill="#078FA4"/>
<path d="M102.879 46.3522L75.4766 90.4872L75.4021 90.6062L72.1167 33.4912L99.6669 43.7999L102.879 46.3522Z" fill="#00AAA6"/>
<path d="M102.88 46.3521L99.667 43.7998L102.354 44.8026C102.542 45.3156 102.72 45.8339 102.88 46.3521Z" fill="#00AAA6"/>
<path fill-rule="evenodd" clip-rule="evenodd" d="M75.8016 17.8594H75.798L74.4136 23.7397L99.667 43.7997L102.354 44.8026C97.8833 32.3619 88.1756 22.5115 75.8016 17.8594Z" fill="#1EAAE2"/>
<path d="M75.4216 90.599L99.9509 80.6914C93.7394 92.6731 82.4816 101.237 69.2769 104.026L75.1642 91.1687L75.4216 90.599Z" fill="#0C7392"/>
<path d="M99.6669 43.7998L72.1167 33.4911L74.4134 23.7397L99.6669 43.7998Z" fill="#1EAAE2"/>
<path d="M75.7979 17.8594L74.4117 23.7397L63.5847 15.1438C67.7636 15.4679 71.8755 16.3821 75.7979 17.8594Z" fill="#ABCF3A"/>
<path d="M75.4021 90.606L75.4766 90.487L75.4269 90.5989L75.4021 90.606Z" fill="#CD1685"/>
<path d="M75.427 90.599L75.1643 91.1688L43.3525 67.9618L43.7643 67.5962L72.1168 33.4912L75.4021 90.6062L75.427 90.599Z" fill="#8F9990"/>
<path d="M75.1644 91.1687L69.277 104.026C66.2264 104.669 63.1171 104.991 59.9995 104.988C58.7571 104.988 57.5413 104.939 56.3343 104.841L28.3457 80.5068L29.1604 80.6843L75.1644 91.1687Z" fill="#CD1685"/>
<path d="M75.1644 91.1687L29.1604 80.6913L43.3526 67.9617L75.1644 91.1687Z" fill="#EC1076"/>
<path d="M74.4135 23.7397L72.1167 33.4911L63.5847 15.1438L74.4135 23.7397Z" fill="#ABCF3A"/>
<path d="M63.5847 15.1438L72.115 33.4911L40.7842 19.2918C46.7902 16.4549 53.3518 14.989 59.9941 15.0001C61.2028 15.0001 62.3973 15.0498 63.5847 15.1438Z" fill="#E0E224"/>
<path d="M72.1168 33.4912L43.7643 67.5962L31.4358 52.3923L72.1168 33.4912V33.4912Z" fill="#F9A516"/>
<path d="M72.1168 33.491L31.4358 52.3921L40.7843 19.2988L72.1168 33.491Z" fill="#FDCD11"/>
<path d="M56.501 104.988L56.1975 104.828L56.3289 104.841L56.501 104.988Z" fill="#CD1685"/>
<path fill-rule="evenodd" clip-rule="evenodd" d="M56.3289 104.841L28.3456 80.5067L28.1486 80.3328L25.0674 88.3589C32.7677 97.8597 44.0108 103.808 56.1976 104.828L56.3289 104.841Z" fill="#B9204A"/>
<path d="M31.4358 52.3921L43.7644 67.596L43.3526 67.9616L21.5371 67.5019L31.4358 52.3921V52.3921Z" fill="#F05B28"/>
<path d="M43.3526 67.9617L29.1604 80.6913L21.5371 67.502L43.3526 67.9617Z" fill="#F05B28"/>
<path d="M40.7841 19.2971L31.4356 52.3922L21.5369 67.502L21.5742 67.1843L15.0745 57.5323C15.9779 40.6032 26.2422 26.1678 40.7841 19.2971Z" fill="#FDCD11"/>
<path fill-rule="evenodd" clip-rule="evenodd" d="M29.1603 80.6913L21.537 67.502L28.3456 80.5067L21.537 67.5055L20.0337 80.6913C21.4457 83.4122 23.1324 85.9814 25.0673 88.359L28.1486 80.3293L28.3456 80.5067L29.1603 80.6913Z" fill="#AB1F25"/>
<path d="M15.0657 57.5322L21.5743 67.1842L21.537 67.5019L20.0337 80.6877L15.0657 57.5322Z" fill="#CB0010"/>
<path d="M15.0746 57.5322L20.0443 80.6877C16.7226 74.2961 14.9922 67.1973 15 59.994C15 59.1687 15.0196 58.3505 15.0746 57.5322V57.5322Z" fill="#CB0010"/>
<path d="M85.2652 67.596L87.3134 58.9664C88.1584 56.6293 88.5791 54.1601 88.5559 51.675C88.5556 50.0257 87.9317 48.4374 86.8094 47.2289L86.5041 46.9005C84.4061 44.6393 80.6469 43.3507 77.555 43.3507H76.474C73.6734 43.3489 70.9758 44.4073 68.9236 46.313L66.3694 48.6932L65.9328 47.6921C65.7053 47.165 65.3835 46.6838 64.9832 46.2722C62.8798 44.1386 60.0082 42.9385 57.0121 42.9407C54.8012 42.9403 52.6397 43.5943 50.7999 44.8203L48.2831 46.6396V46.4621C48.2821 44.7415 46.887 43.3471 45.1663 43.3471H17.8753L15.4099 52.3921L38.0099 52.8039L34.689 70.6524C34.1246 73.0823 35.6635 75.4766 38.1483 75.7766C40.1351 76.0238 42.0103 74.8012 42.5856 72.8835L48.7676 53.7854C49.435 51.5579 52.4417 50.1415 54.7491 50.4432C56.1169 50.6216 57.3394 51.3863 58.098 52.5383C58.8567 53.6903 59.0765 55.1154 58.7001 56.4424L55.4449 70.6293C55.013 72.1508 55.3198 73.7868 56.2735 75.0485C57.2273 76.3102 58.7176 77.0515 60.2992 77.051C62.4522 77.051 63.5473 75.6861 64.2484 73.6502L70.4518 55.2107C71.1724 53.1216 73.7282 51.8774 75.9007 52.2909C77.1375 52.5272 78.2163 53.2766 78.8693 54.3532C79.5223 55.4298 79.6883 56.7327 79.3263 57.9387L76.0356 70.0454C75.5337 71.6877 75.8403 73.4708 76.8619 74.8512C77.8836 76.2316 79.4993 77.0458 81.2166 77.0456L102.466 76.6356L104.931 67.596H85.2652Z" fill="white"/>
</svg>
