<svg width="120" height="120" viewBox="0 0 120 120" fill="none" xmlns="http://www.w3.org/2000/svg">
<path d="M118.191 74.5143C110.178 106.657 77.6222 126.219 45.4752 118.204C13.3417 110.19 -6.22004 77.6324 1.79691 45.4918C9.80683 13.3451 42.3626 -6.21803 74.4997 1.79541C106.644 9.80884 126.205 42.3702 118.191 74.5149L118.191 74.5143H118.191Z" fill="#4A90E2"/>
<circle cx="30.0376" cy="69.9775" r="5.03757" fill="white"/>
<path fill-rule="evenodd" clip-rule="evenodd" d="M60.0524 55.0751H60.4732C62.99 55.2855 64.9848 57.3855 65.09 59.9023C65.09 62.7347 62.8848 64.9399 60.0524 64.9399C57.22 64.9399 55.0148 62.6295 55.0148 59.9023C55.0148 56.3335 53.8616 54.9699 49.9772 54.9699C46.0928 54.9699 44.9397 56.3335 44.9397 60.0075V60.3231C44.8345 62.8399 42.6293 64.9399 40.0073 64.9399C37.1749 64.9399 34.9697 62.6295 34.9697 59.9023C34.9697 57.2803 36.9645 55.1803 39.4813 54.9699H39.9021C44.3085 54.9699 44.9397 54.0272 44.9397 50.0376C44.9397 47.2052 47.2501 45 49.9772 45C52.8096 45 55.0148 47.3104 55.0148 50.0376C55.0148 54.0272 55.646 55.0751 60.0524 55.0751ZM85.0298 50.0376C85.0298 47.2052 87.3402 45 90.0674 45C92.7946 45 94.9998 47.2052 94.9998 49.8272C94.9998 52.6595 92.6894 54.8647 89.9622 54.8647C86.0778 54.8647 84.9246 56.2283 84.9246 59.9023V60.2179C84.8194 62.8399 82.6142 64.9399 79.9923 64.9399H79.8871C76.1079 65.0451 74.9547 66.4087 74.9547 69.9775V70.3983C74.8495 72.915 72.6443 75.015 70.0223 75.015C67.19 75.015 64.9848 72.7046 64.9848 69.9775C64.9848 67.4607 66.9796 65.3607 69.4963 65.0451C69.6015 64.9399 69.8119 64.9399 70.0223 64.9399C74.3235 64.9399 75.0599 63.9971 75.0599 60.1127V60.0075C75.0599 57.3855 77.0547 55.2855 79.5715 55.0751H79.9923C84.3986 55.0751 85.0298 54.0272 85.0298 50.0376Z" fill="white"/>
</svg>
