<svg width="120" height="120" viewBox="0 0 120 120" fill="none" xmlns="http://www.w3.org/2000/svg">
<g clip-path="url(#clip0_1_929)">
<circle cx="60" cy="60" r="60" fill="#EDF0F4"/>
<path d="M60.0211 99.8404L59.5627 99.6112C41.6926 89.1516 28.1754 71.8963 22.677 51.2802C21.8002 48.037 21.1494 44.7158 20.6914 41.3562C20.271 37.9865 20.0414 34.5958 20.0038 31.2002C20.0038 30.6274 19.9274 30.7038 20.4622 30.4366C29.6279 25.2178 39.7386 21.8705 50.2079 20.589C54.0977 20.1309 58.0143 19.9396 61.9303 20.0166C64.1451 20.0566 66.3215 20.2074 68.4979 20.4366C79.4579 21.62 89.7422 24.9031 99.3508 30.2858C99.5036 30.3622 99.618 30.4386 99.7708 30.515C99.9236 30.5914 100 30.7058 100 30.8966V31.4694C99.96 33.4546 99.8856 35.4014 99.7328 37.3866C99.5038 40.2053 99.1213 43.0095 98.5872 45.7866C97.4416 51.7802 95.6472 57.5447 93.1652 63.0799C89.2321 71.8983 83.8609 79.7497 77.0515 86.6339C72.1741 91.595 66.6666 95.8946 60.6703 99.4224C60.4411 99.5752 60.2503 99.6896 60.0211 99.8424V99.8404Z" fill="black"/>
<path d="M23.6697 33.1486C28.52 30.337 33.6851 28.1075 39.0578 26.5062C46.389 24.3302 53.835 23.2994 61.4723 23.4522C65.0235 23.5286 70.9419 24.101 71.9347 24.483C71.9747 24.5594 71.8947 24.5974 71.8203 24.5974C71.4767 24.7502 71.0947 24.8646 70.7511 25.0174C64.4507 27.6514 59.9831 33.187 58.6846 39.9054C58.4947 41.003 58.3799 42.1122 58.341 43.2254C58.301 44.9054 58.1502 46.5854 57.6538 48.2255C55.9738 54.1427 51.1242 58.7619 45.1294 60.1359C37.2634 61.9327 29.3202 58.0403 25.8842 50.7475C25.6934 50.3275 25.5406 49.9075 25.4642 49.4879C24.8987 47.0186 24.4653 44.5209 24.1657 42.0054C23.8221 39.2186 23.6313 36.4318 23.6313 33.6454C23.6636 33.482 23.6771 33.3155 23.6713 33.149L23.6697 33.1486Z" fill="#F7A800"/>
<path d="M79.9915 78.8823C80.0679 78.1571 80.1443 77.5079 80.1823 76.8207C80.3731 73.0415 79.5715 69.4531 77.7767 66.1319C76.0567 62.9635 73.6527 60.4439 70.5599 58.5351C70.2927 58.3443 69.9871 58.1915 69.7199 58.0007C65.4799 55.3283 62.8847 51.5491 61.9683 46.6246C60.3283 37.7682 65.9011 29.217 74.6455 27.1174C77.7383 26.3922 80.7551 26.4686 83.7715 27.4226C86.2516 28.1862 88.6212 29.217 90.9884 30.3238C92.6284 31.0874 94.196 31.927 95.7616 32.8038C95.9524 32.9182 96.1052 32.9946 96.3344 33.1474C96.3344 33.3002 96.3744 33.4146 96.3744 33.5674C96.3744 35.5906 96.26 37.6522 96.1072 39.6754C95.8357 42.6512 95.3895 45.6085 94.7708 48.5318C92.8996 57.1595 89.5776 65.1379 84.7663 72.5439C83.4299 74.6055 81.9787 76.5903 80.4515 78.4991C80.2971 78.6151 80.2207 78.7679 79.9915 78.8823Z" fill="#67B2E8"/>
<path d="M60.0211 95.9463C59.4483 95.7171 57.6919 94.6483 55.8211 93.3887C51.6578 90.5999 47.7935 87.3889 44.2894 83.8067C40.7765 80.2281 37.6532 76.2869 34.9722 72.0491C32.4586 68.136 30.3477 63.9785 28.6718 59.6402C28.623 59.5165 28.5847 59.3888 28.5574 59.2586C28.7482 59.373 28.8246 59.4114 28.9394 59.4878C30.2758 60.5186 31.6886 61.3966 33.2162 62.0454C35.1638 62.8854 37.1874 63.4578 39.3258 63.6486C43.6406 64.0686 47.6882 63.1906 51.5066 61.0526C53.4791 59.9458 55.6424 59.2206 57.8835 58.915C65.8639 57.9226 73.8063 62.6562 76.2883 70.9019C77.5483 75.1395 77.1683 79.2619 75.2191 83.2707C74.9519 83.8051 74.7227 84.3015 74.4555 84.7975C74.3027 85.1031 74.1119 85.4083 73.8447 85.6375C69.7971 89.4551 65.3679 92.8143 60.5567 95.6375C60.3659 95.7519 60.1747 95.8667 60.0223 95.9431L60.0211 95.9463Z" fill="#00C4B3"/>
</g>
<defs>
<clipPath id="clip0_1_929">
<rect width="120" height="120" fill="white"/>
</clipPath>
</defs>
</svg>
