<svg width="120" height="120" viewBox="0 0 120 120" fill="none" xmlns="http://www.w3.org/2000/svg">
<path fill-rule="evenodd" clip-rule="evenodd" d="M60 120C27 120 0 93.0006 0 59.7012C0.3 26.7019 27 -0.297518 60.3 0.00247602C93.3 0.30247 120 27.0019 120 60.6012C119.7 93.3006 93 120 60 120Z" fill="#EDF0F4"/>
<path d="M24 30V42.1363V54.2725V66.4354H36.1363V54.2725V42.1363V30H24Z" fill="#424242"/>
<path d="M84.2012 54.2725V66.4354V78.5717V90.7079H96.3374V78.5717V66.4354V54.2725H84.2012Z" fill="#424242"/>
<path d="M59.9021 30V42.1363V53.7657L72.0384 65.902V54.2725V42.1363L59.9021 30Z" fill="#424242"/>
<path d="M48.2991 54.806V66.4355V78.5718L60.4353 90.708V78.5718V66.9423L48.2991 54.806Z" fill="#424242"/>
<path d="M59.9021 30H72.0384L96.3375 54.2725H84.2013L59.9021 30Z" fill="black"/>
<path d="M24 66.4354H36.1363L60.4354 90.7079H48.2992L24 66.4354Z" fill="black"/>
<path d="M72.0382 42.1363V54.2725V65.7419L36.1362 30V42.1363V42.8831V54.2725V66.4354L48.2992 78.5717V66.4354V54.966L84.2011 90.708V78.5717V77.8249V66.4354V54.2725L72.0382 42.1363Z" fill="#3CC68A"/>
</svg>
