<svg width="120" height="120" viewBox="0 0 120 120" fill="none" xmlns="http://www.w3.org/2000/svg">
<circle cx="60" cy="60" r="60" fill="#EDF0F4"/>
<path d="M39.6737 52.1006C44.0391 51.3755 48.1316 51.6188 52.2053 52.6994C53.9084 53.1512 55.598 53.7454 57.3603 54.4923L57.4996 54.5516L57.5957 54.5928L57.6918 54.6342L57.7878 54.6759L57.932 54.7388L58.0764 54.8023L58.2209 54.8663L58.3658 54.9311L58.511 54.9965L58.6568 55.0626L58.7543 55.1071L58.901 55.1745L58.9992 55.2199L59.1472 55.2887L59.2961 55.3584L59.4458 55.429L59.5463 55.4765L59.6472 55.5246L59.7995 55.5974L59.9531 55.6713L60.108 55.7463L60.212 55.7969L60.3693 55.8738L60.5281 55.9518L60.6348 56.0045L60.7964 56.0846L60.9052 56.1387L61.125 56.2486L61.2922 56.3326L61.5183 56.4468L61.6904 56.5341L61.9233 56.6527L62.2556 56.8229L62.4444 56.9192L62.6313 57.014C62.6623 57.0297 62.6932 57.0453 62.7241 57.0608L62.9083 57.1534C63.0305 57.2146 63.1516 57.2748 63.2715 57.3341L63.4505 57.4223C66.0048 58.6757 68.0509 59.4865 70.104 60.0369C72.7326 60.7417 75.4348 61.0207 78.6726 60.8938C81.7382 60.7736 84.2294 60.268 86.314 59.4252C87.9705 58.7555 89.3199 57.9054 90.6961 56.7527L90.7391 56.7166L92.9932 59.3941C91.3367 60.7886 89.669 61.8441 87.6258 62.6701C85.1538 63.6695 82.2659 64.2556 78.8097 64.3911C75.2296 64.5314 72.1764 64.2162 69.1976 63.4175C66.5606 62.7105 63.9946 61.644 60.6639 59.94L60.393 59.8012L60.1153 59.6597L59.8438 59.5221L59.6837 59.4413L59.5256 59.362L59.3694 59.2839L59.164 59.1818L59.012 59.1066L58.8616 59.0327L58.7128 58.9599L58.5655 58.8882L58.4681 58.841L58.3231 58.7711L58.2272 58.7251L58.0843 58.6569L57.9425 58.5897L57.8486 58.5455L57.7552 58.5016L57.6622 58.4581L57.5696 58.415L57.4314 58.3511L57.294 58.288L57.2027 58.2463L57.0664 58.1845L56.9307 58.1234L56.8405 58.083L56.7505 58.0429L56.6158 57.9834L56.5261 57.944L56.3471 57.866L56.2131 57.8082L56.0791 57.7508C54.4302 57.048 52.8679 56.4963 51.3079 56.0824C47.701 55.1256 44.108 54.912 40.2472 55.5533C37.2378 56.0532 34.7644 56.9703 32.7701 58.1765C31.7078 58.8189 30.8555 59.4989 30.1949 60.1685L30.1479 60.2163C30.1402 60.2243 30.1326 60.2322 30.125 60.24L30.0799 60.2869L30.0362 60.3331C30.029 60.3408 30.0219 60.3484 30.0148 60.356L29.9729 60.4011C29.966 60.4086 29.9592 60.416 29.9524 60.4235L29.9124 60.4676L29.8737 60.511C29.8673 60.5181 29.861 60.5253 29.8547 60.5324L29.8178 60.5746L29.7822 60.6161L29.7477 60.6569C29.7421 60.6636 29.7365 60.6703 29.7309 60.6769L29.6983 60.7165C29.693 60.723 29.6877 60.7295 29.6825 60.736L29.6517 60.7743L29.6316 60.7997L29.6039 60.8353L29.587 60.8574L29.5714 60.8781L29.557 60.8975L29.5374 60.9247L29.53 60.9351L29.5373 60.924L26.6074 59.0094L26.6275 58.9792L26.6498 58.9463L26.666 58.923L26.6923 58.8858L26.7111 58.8597L26.7309 58.8324L26.7627 58.7895L26.7852 58.7596L26.8209 58.7126L26.8591 58.6633L26.8858 58.6292L26.9137 58.594C27.1307 58.3215 27.3932 58.0246 27.7035 57.7101C28.5635 56.8386 29.6428 55.9775 30.9587 55.1816C33.3321 53.7462 36.2254 52.6734 39.6737 52.1006Z" fill="#00F5FF"/>
<path fill-rule="evenodd" clip-rule="evenodd" d="M25 60L60 25L95 60L60 95L25 60ZM60 28.5L28.5 60L60 91.5L91.5 60L60 28.5Z" fill="#00F5FF"/>
<path fill-rule="evenodd" clip-rule="evenodd" d="M71.6665 65.565C71.6665 67.9009 70.7857 69.8805 69.0243 71.5038C67.2629 73.1271 64.6802 74.0291 61.2764 74.21V79.4435H59.0364V74.2562C56.8566 74.1346 54.8032 73.7022 52.8764 72.9591C50.9495 72.2159 49.435 71.2679 48.333 70.115L49.6319 67.5211C50.677 68.5524 52.0429 69.4171 53.7297 70.115C55.4193 70.8134 57.2124 71.2286 59.0371 71.3438V59.3738C56.9767 58.8579 55.2599 58.3047 53.8865 57.7141C52.5131 57.1235 51.371 56.2588 50.4603 55.1199C49.5503 53.9824 49.0953 52.4731 49.0953 50.592C49.0953 48.2558 49.9313 46.2914 51.6034 44.6987C53.2755 43.1059 55.7536 42.1726 59.0378 41.8987V36.6665H61.2778V41.8542C62.9577 41.9112 64.6222 42.1945 66.2264 42.6963C67.8238 43.1968 69.2047 43.8567 70.369 44.6759L69.249 47.3608C68.0345 46.5764 66.7253 45.9494 65.3528 45.4949C63.9794 45.0399 62.6209 44.7821 61.2774 44.7214V56.78C63.4866 57.326 65.293 57.8797 66.6965 58.4411C68.0746 58.9851 69.2917 59.8708 70.2332 61.015C71.1887 62.1667 71.6665 63.6834 71.6665 65.565ZM52.364 50.501C52.364 52.0783 52.9387 53.2767 54.0881 54.0962C55.2375 54.9156 56.8871 55.6134 59.0371 56.1895V44.8124C56.8276 44.9944 55.163 45.6088 54.0433 46.6555C52.9235 47.7022 52.3637 48.9841 52.364 50.501ZM66.6058 69.569C65.4114 70.57 63.6349 71.1616 61.2764 71.3438L61.276 59.9667C63.5753 60.5433 65.3369 61.2411 66.561 62.0601C67.7851 62.8791 68.3971 64.1078 68.3971 65.7463C68.3973 67.2937 67.8002 68.568 66.6058 69.569Z" fill="#00F5FF"/>
<path d="M60.1946 93.2679L27.1875 60.1869C27.1875 60.1869 34.2823 54.7941 42.5644 52.762C50.8465 50.7299 57.0831 54.7973 62.6268 58.9997C68.1704 63.2022 72.3372 64.2683 78.8825 63.8892C85.4278 63.5102 93.2013 60.1869 93.2013 60.1869L60.1946 93.2679Z" fill="#00F5FF"/>
<path fill-rule="evenodd" clip-rule="evenodd" d="M71.6665 65.4043C71.6667 67.7407 70.786 69.7203 69.0243 71.3431C67.2629 72.9664 64.681 73.8691 61.2788 74.0511V79.285H59.0388V74.098C56.8576 73.9764 54.8043 73.5441 52.8788 72.8009C50.9533 72.0577 49.4381 71.1097 48.333 69.9568L49.6319 67.3626C50.677 68.3942 52.0429 69.2589 53.7297 69.9568C55.4193 70.6549 57.2125 71.07 59.0371 71.1853V59.2153C56.977 58.6996 55.2599 58.1459 53.8858 57.5542C52.5117 56.9625 51.3696 56.0978 50.4596 54.9603C49.8588 54.2095 49.4562 53.2968 49.2518 52.2223C50.6566 52.4203 52.0347 52.7758 53.3601 53.2821C53.5761 53.5278 53.8202 53.7474 54.0874 53.9362C55.1166 54.6698 56.547 55.3061 58.3787 55.8451C59.8501 56.7747 61.261 57.8034 62.626 58.8397C65.8145 61.2565 68.5595 62.9939 71.5615 63.9616C71.633 64.4392 71.6681 64.9215 71.6665 65.4043ZM61.2764 71.1839C63.6351 71.0021 65.4116 70.4105 66.6058 69.409C67.8 68.408 68.3972 67.1338 68.3975 65.5863C68.3979 63.9479 67.7859 62.7191 66.5614 61.9001C65.3368 61.0811 63.5752 60.3834 61.2764 59.8068V71.1839Z" fill="black"/>
</svg>
