<svg width="120" height="120" viewBox="0 0 120 120" fill="none" xmlns="http://www.w3.org/2000/svg">
<circle cx="60" cy="60" r="60" fill="#EDF0F4"/>
<path d="M39.9852 73.313L54.2317 81.5653V88.409L34.8279 77.1756V44.9401L38.673 42.7159L37.2601 40.2632L32 43.3073V78.8098L57.0526 93.3158V79.9311L41.3988 70.8603L39.9852 73.313Z" fill="url(#paint0_linear_1_4942)"/>
<path d="M60.0043 30.4236L76.2687 40.2632L77.6843 37.6973L60.0043 27L42.3159 37.6937L43.7315 40.2595L60.0043 30.4236Z" fill="url(#paint1_linear_1_4942)"/>
<path d="M60.0043 40.7372L76.2687 50.579L77.6843 48.0126L60.0043 37.3158L42.3159 48.0089L43.7315 50.5753L60.0043 40.7372Z" fill="url(#paint2_linear_1_4942)"/>
<path d="M82.7454 40.2632L81.3325 42.7159L85.1776 44.9403V77.1766L65.7717 88.4089V81.565L80.1734 73.2256L78.7605 70.7728L62.9473 79.9307V93.3158L87.9999 78.8095V43.306L82.7454 40.2632Z" fill="url(#paint3_linear_1_4942)"/>
<path fill-rule="evenodd" clip-rule="evenodd" d="M67.9238 65.6023C68.322 64.0846 68.0575 62.4704 67.1954 61.1567C67.1775 61.1296 67.1601 61.1023 67.1428 61.0753C67.1304 61.0557 67.118 61.0364 67.1057 61.0174L66.6591 60.4705C66.5953 60.4035 66.5376 60.331 66.4867 60.2538C66.4682 60.2228 66.4653 60.1849 66.479 60.1514C66.5491 60.0198 66.6262 59.8923 66.7047 59.7662C67.0137 59.2752 67.2297 58.7321 67.3419 58.1638C67.4796 57.4876 67.4967 56.7927 67.3924 56.1107C67.0633 53.9029 65.3354 52.16 63.119 51.8003C63.1019 51.7973 63.0854 51.7945 63.0696 51.7918C62.8708 51.758 62.7682 51.7405 62.7152 51.6798C62.6586 51.615 62.6583 51.5011 62.6578 51.2656C62.6578 51.255 62.6577 51.2442 62.6577 51.2332V50.1721C62.6572 50.0979 62.6478 50.024 62.6297 49.952C62.6169 49.9174 62.5895 49.8901 62.5547 49.8774C62.4828 49.8557 62.4082 49.844 62.3331 49.8426H59.5249C59.45 49.84 59.3752 49.8494 59.3033 49.8705C59.2533 49.89 59.2136 49.9294 59.194 49.9791C59.1748 50.0707 59.1668 50.1643 59.1701 50.2578V50.2579C59.1701 50.6111 59.1701 50.9643 59.1659 51.3175C59.1683 51.4112 59.1584 51.5049 59.1365 51.5961C59.1246 51.64 59.0699 51.6797 59.0257 51.709C58.9927 51.7268 58.9553 51.735 58.9178 51.7327C58.831 51.7327 58.7439 51.7333 58.6568 51.7339C58.4821 51.7352 58.3068 51.7364 58.1319 51.7327C57.9812 51.7327 57.902 51.6435 57.9006 51.4791C57.8973 51.2816 57.8964 51.0847 57.8955 50.8878V50.8877V50.8876C57.8949 50.7498 57.8943 50.612 57.8929 50.4738C57.8929 50.3546 57.8869 50.235 57.881 50.1145V50.1145L57.8768 50.0279C57.8658 49.9323 57.7863 49.859 57.6896 49.8551L57.6647 49.8533C57.5982 49.8482 57.5326 49.8433 57.4653 49.8433H54.7691C54.711 49.8433 54.6537 49.8479 54.5957 49.8526L54.5448 49.8565C54.4479 49.8676 54.3752 49.9498 54.3766 50.0467C54.3719 50.309 54.3697 50.5727 54.3674 50.8363L54.3661 50.9949C54.3661 51.1809 54.3618 51.3669 54.3541 51.5523C54.3416 51.6474 54.262 51.7197 54.1656 51.7236C54.0169 51.7313 53.8662 51.7369 53.7169 51.7369H52.3689C52.2571 51.7353 52.1454 51.7455 52.0359 51.7675C51.984 51.7845 51.9411 51.8214 51.9167 51.8699C51.8978 51.9226 51.8909 51.9787 51.8964 52.0344V54.9367C51.8954 54.9929 51.9034 55.0489 51.9202 55.1026C51.9336 55.1375 51.9607 55.1656 51.9952 55.1806C52.0668 55.1996 52.1405 55.2099 52.2146 55.2112C52.3738 55.2133 52.5331 55.2133 52.6924 55.2133C52.8517 55.2133 53.011 55.2133 53.1701 55.2154C53.2644 55.2133 53.3585 55.2227 53.4505 55.2433C53.5006 55.2637 53.5378 55.3067 53.5508 55.3589C53.5685 55.5062 53.5774 55.6544 53.5774 55.8027V58.3707V62.9479V63.4509L53.5655 64.1692C53.567 64.1948 53.5689 64.2204 53.5707 64.2461C53.5754 64.3133 53.5802 64.3808 53.5802 64.4479V65.7319C53.5802 65.8064 53.5802 65.8816 53.5746 65.9548C53.5787 66.0106 53.5593 66.0656 53.521 66.1067C53.4827 66.1478 53.429 66.1712 53.3727 66.1715C53.2116 66.1749 53.0502 66.1762 52.8892 66.1775L52.8888 66.1775C52.788 66.1784 52.6873 66.1792 52.5869 66.1805C52.4186 66.1805 52.249 66.1847 52.0807 66.1924C51.9837 66.1982 51.9078 66.2776 51.9069 66.3742L51.9053 66.4078L51.9053 66.4078C51.9016 66.4894 51.8978 66.5714 51.8978 66.6529V69.1651C51.8978 69.2673 51.9042 69.3695 51.9107 69.4717L51.9125 69.4995C51.9325 69.5714 51.9922 69.6255 52.066 69.6389L52.0877 69.6406L52.0877 69.6406C52.1914 69.6492 52.2963 69.6578 52.4011 69.6591H53.6931C53.8438 69.6591 53.9924 69.6591 54.1417 69.6695C54.1984 69.6648 54.2545 69.684 54.2962 69.7225C54.338 69.7609 54.3615 69.815 54.3611 69.8716C54.3641 69.9895 54.3651 70.107 54.3661 70.2243V70.2243C54.367 70.3301 54.3679 70.4357 54.3703 70.5411C54.3703 70.6773 54.3763 70.8135 54.3823 70.9494L54.3823 70.9494L54.3864 71.042C54.3993 71.1161 54.4598 71.1728 54.535 71.1813C54.6282 71.1904 54.7222 71.1987 54.8154 71.1987H57.4554C57.5404 71.1987 57.6248 71.1912 57.7108 71.1836L57.7108 71.1835L57.7359 71.1813C57.8091 71.1638 57.8645 71.1041 57.8761 71.0301C57.8852 70.9375 57.8922 70.8455 57.8936 70.7515V70.0262C57.8919 69.952 57.9008 69.8778 57.9202 69.8061C57.9422 69.7623 57.9779 69.7269 58.0219 69.705C58.0736 69.6828 58.1296 69.6723 58.1859 69.6744C58.3731 69.6702 58.5603 69.6702 58.7467 69.6702C59.1379 69.6702 59.161 69.7399 59.1624 70.0882V70.8692C59.1666 71.1744 59.201 71.2036 59.5312 71.2106H59.6433H62.1712C62.2448 71.2106 62.3198 71.2106 62.3955 71.205C62.5694 71.1973 62.6416 71.1353 62.6465 70.9779C62.6484 70.875 62.6486 70.7718 62.6487 70.6687C62.6489 70.5483 62.6491 70.4281 62.6521 70.3084C62.6521 70.1586 62.6563 70.0109 62.6626 69.8611C62.6736 69.7663 62.7477 69.6909 62.8428 69.6779L62.8566 69.6763L62.8566 69.6763C62.983 69.6622 63.1082 69.6483 63.234 69.6382C65.5107 69.4417 67.4026 67.8136 67.9238 65.6023ZM57.093 55.6885C57.0929 55.5769 57.1019 55.4656 57.1197 55.3555C57.1263 55.2976 57.1711 55.2513 57.229 55.2426C57.322 55.2294 57.4156 55.2215 57.5094 55.2189H62.2231C62.6974 55.2007 63.1567 55.3853 63.4849 55.7261C63.7546 55.991 63.9127 56.3479 63.9273 56.7244C63.9329 56.9091 63.9329 57.0951 63.9273 57.2818C63.8698 58.0114 63.3169 58.607 62.5897 58.7225C62.4579 58.7393 62.3255 58.7442 62.1925 58.7491L62.1923 58.7491C62.1379 58.7511 62.0834 58.7531 62.0289 58.756H61.9167H59.8347H57.534C57.4226 58.7539 57.3117 58.7422 57.2024 58.7211C57.1666 58.7091 57.1388 58.6809 57.1274 58.6452C57.1068 58.5537 57.096 58.4603 57.0951 58.3665C57.0923 58.0443 57.0933 57.7227 57.0942 57.4007C57.0947 57.2395 57.0951 57.0782 57.0951 56.9167C57.0916 56.5064 57.0902 56.0974 57.093 55.6885ZM61.9811 66.1841C62.2622 66.1843 62.5423 66.1845 62.8239 66.1798C63.5945 66.1454 64.26 65.6326 64.4853 64.8993C64.574 64.5951 64.6005 64.2762 64.5631 63.9616C64.5275 63.2338 64.0515 62.6 63.3594 62.3592C63.1123 62.2721 62.8502 62.2342 62.5883 62.2477H57.59C57.4891 62.2477 57.3881 62.2528 57.2871 62.2579C57.2759 62.2585 57.2648 62.259 57.2536 62.2596C57.1813 62.2783 57.1252 62.3351 57.1077 62.4073C57.1064 62.4209 57.1051 62.4346 57.1037 62.4483C57.0977 62.5086 57.0916 62.5692 57.0916 62.6288V64.1358C57.0916 64.3164 57.0911 64.4967 57.0907 64.6769C57.0897 65.0369 57.0888 65.3962 57.0916 65.7555C57.0953 65.8657 57.1101 65.9751 57.1358 66.0823C57.1479 66.1157 57.1752 66.1416 57.2094 66.152C57.3189 66.1714 57.4298 66.1821 57.541 66.184H60.1249H61.8123C61.8686 66.184 61.9249 66.184 61.9811 66.1841Z" fill="url(#paint4_linear_1_4942)"/>
<defs>
<linearGradient id="paint0_linear_1_4942" x1="0.833073" y1="355.32" x2="233.78" y2="315.766" gradientUnits="userSpaceOnUse">
<stop offset="0.13" stop-color="#13AAE6"/>
<stop offset="1" stop-color="#023B90"/>
</linearGradient>
<linearGradient id="paint1_linear_1_4942" x1="1787.89" y1="848.713" x2="1794.59" y2="-468.422" gradientUnits="userSpaceOnUse">
<stop offset="0.13" stop-color="#13AAE6"/>
<stop offset="1" stop-color="#023B90"/>
</linearGradient>
<linearGradient id="paint2_linear_1_4942" x1="1791.56" y1="783.307" x2="1798.26" y2="-534.513" gradientUnits="userSpaceOnUse">
<stop offset="0.13" stop-color="#13AAE6"/>
<stop offset="1" stop-color="#023B90"/>
</linearGradient>
<linearGradient id="paint3_linear_1_4942" x1="34.1201" y1="364.474" x2="266.943" y2="324.931" gradientUnits="userSpaceOnUse">
<stop offset="0.13" stop-color="#13AAE6"/>
<stop offset="1" stop-color="#023B90"/>
</linearGradient>
<linearGradient id="paint4_linear_1_4942" x1="81.7703" y1="188.778" x2="199.607" y2="58.9506" gradientUnits="userSpaceOnUse">
<stop offset="0.13" stop-color="#13AAE6"/>
<stop offset="1" stop-color="#023B90"/>
</linearGradient>
</defs>
</svg>
