<svg width="120" height="120" viewBox="0 0 120 120" fill="none" xmlns="http://www.w3.org/2000/svg">
<path d="M60 120C93.138 120 120 93.138 120 60C120 26.862 93.138 0 60 0C26.862 0 0 26.862 0 60C0 93.138 26.862 120 60 120Z" fill="#EDF0F4"/>
<path fill-rule="evenodd" clip-rule="evenodd" d="M94.1208 62.6897C95.1674 63.3874 94.8186 63.9688 93.0743 64.434C92.3765 64.6666 92.3765 64.7828 92.3765 65.1317C92.3765 66.062 92.2603 66.4109 90.2834 66.7597C89.7862 66.7188 89.3184 66.9995 89.1205 67.4574C89.2368 68.2714 88.3065 68.7366 86.2134 68.9692C85.6561 68.9756 85.1196 69.1819 84.7016 69.5506C84.3528 70.3646 83.1899 70.7135 80.9805 70.7135C80.364 70.6753 79.7518 70.8386 79.2362 71.1786C78.5384 71.8763 77.0267 72.2252 74.8173 72.1089C74.14 72.0673 73.4625 72.1868 72.8404 72.4578C71.3552 73.1599 69.683 73.3638 68.0726 73.0392C67.3348 72.955 66.5881 72.9943 65.8632 73.1555C64.2521 73.7049 62.518 73.7856 60.8629 73.3881C60.131 73.2717 59.3853 73.2717 58.6534 73.3881C57.0088 73.82 55.2758 73.7797 53.6531 73.2718C52.9373 73.0526 52.1785 73.0127 51.4436 73.1555C49.8366 73.5478 48.1416 73.3411 46.6759 72.5741C46.0502 72.3153 45.3755 72.1962 44.699 72.2252C42.4896 72.3415 41.0941 72.1089 40.2801 71.2949C39.7165 71.117 39.1263 71.0383 38.5358 71.0623C36.3264 71.0623 35.0472 70.5972 34.8147 69.8995C34.3967 69.5308 33.8602 69.3244 33.3029 69.318C31.2098 69.0855 30.1632 68.6203 30.2795 67.9226C30.2795 67.5737 29.9306 67.3412 29.1166 67.2249C27.1397 66.876 26.442 66.2946 27.0235 65.5969C27.256 65.3643 27.0235 65.0154 26.3257 64.8991C24.5814 64.434 24.2326 63.8526 25.2792 63.1548C25.628 62.9223 25.5117 62.5734 25.0466 62.3408C23.6511 61.7594 23.6511 61.178 25.0466 60.5965C25.5117 60.364 25.628 60.0151 25.2792 59.7825C24.2326 59.0848 24.5814 58.5034 26.3257 58.0382C27.0235 57.8056 27.256 57.5731 27.0235 57.3405C26.442 56.6428 27.1397 56.0613 29.1166 55.7125C29.6138 55.7534 30.0816 55.4727 30.2795 55.0148C30.1632 54.2008 31.0935 53.7356 33.1866 53.503C33.7439 53.4966 34.2804 53.2903 34.6984 52.9216C35.0472 52.1076 36.2101 51.7587 38.4195 51.6425C39.036 51.6806 39.6482 51.5173 40.1638 51.1773C40.8616 50.4796 42.3733 50.1307 44.5827 50.247C45.26 50.2887 45.9375 50.1691 46.5596 49.8982C48.0448 49.196 49.717 48.9921 51.3274 49.3167C52.0652 49.4009 52.8119 49.3616 53.5368 49.2004C55.1479 48.651 56.882 48.5704 58.5371 48.9679C59.269 49.0842 60.0147 49.0842 60.7466 48.9679C62.3912 48.536 64.1242 48.5763 65.7469 49.0842C66.4627 49.3033 67.2215 49.3432 67.9564 49.2004C69.5634 48.8081 71.2584 49.0148 72.7241 49.7819C73.3498 50.0407 74.0245 50.1597 74.701 50.1307C76.9104 50.0144 78.3059 50.247 79.1199 51.061C79.6355 51.4011 80.2477 51.5643 80.8642 51.5262C83.0736 51.5262 84.3528 51.9913 84.5853 52.689C84.9879 53.0825 85.5346 53.2928 86.0971 53.2705C87.7251 53.3868 88.6554 53.8519 89.1205 54.6659C89.3184 55.1238 89.7862 55.4045 90.2834 55.3636C91.7951 55.3636 92.958 56.2939 92.3765 56.9916C92.144 57.2242 92.3765 57.6894 93.0743 57.6894C94.4697 57.6894 95.1674 58.7359 94.1208 59.4337C93.772 59.6662 93.772 60.0151 94.3534 60.2477C95.7489 60.8291 95.7489 61.4105 94.3534 61.992C93.9464 62.1083 93.8301 62.4571 94.1208 62.6897Z" stroke="black" stroke-width="1.5"/>
<path d="M57.3162 35.3624C58.7817 34.8471 59.7299 33.4248 59.6419 31.8738C59.5256 30.1295 57.7813 29.5481 55.5719 30.3621C51.153 31.8738 49.9901 36.8742 49.2924 41.8745C49.0598 43.2699 48.9435 44.7817 48.8272 46.0608C47.4265 56.6217 46.8046 67.2713 46.9666 77.9234C47.0829 79.7839 47.6644 81.8771 46.1526 83.854C43.5943 84.0866 44.2921 82.5748 41.9663 83.3888C38.3033 84.6564 39.1754 89.552 41.7919 89.3078C42.6693 89.2884 43.5204 89.0047 44.2339 88.4938C48.7691 86.1681 49.3505 80.1212 50.1645 74.0743C51.5552 63.1608 52.2157 52.1666 52.1414 41.1651V41.0605C52.1414 39.0836 51.7925 35.8276 53.0717 35.1299C54.3508 34.4322 55.2811 36.1765 57.258 35.3624" fill="black"/>
<path d="M74.3524 30.6297C69.9335 32.1414 68.7706 37.1418 68.0729 42.1421C67.8403 43.5375 67.724 45.0492 67.6077 46.3284C66.207 56.8892 65.5851 67.5388 65.7471 78.1909C65.8634 80.0515 66.4449 82.1447 64.9331 84.1216C62.3748 84.4704 63.0726 82.8424 60.7468 83.6564C57.1419 84.9356 57.9559 89.8196 60.6305 89.587C61.5079 89.5676 62.359 89.2839 63.0726 88.773C67.6077 86.4473 68.1892 80.4004 69.0032 74.3535C70.3939 63.44 71.0543 52.4458 70.98 41.4444V41.3281C70.98 39.3512 70.6312 36.0952 71.9103 35.3975C73.1895 34.6997 74.1198 36.3277 76.0967 35.5137C77.5622 34.9984 78.5104 33.5761 78.4224 32.0251C78.3061 30.3971 76.5618 29.8157 74.3524 30.6297Z" fill="black"/>
</svg>
