<svg width="120" height="120" viewBox="0 0 120 120" fill="none" xmlns="http://www.w3.org/2000/svg">
<circle cx="60" cy="60" r="60" fill="#EDF0F4"/>
<path d="M97.3507 74.3909C97.353 64.7367 97.353 55.0826 97.3507 45.4287C97.3898 44.4416 96.8941 43.4593 96.1019 42.8774C84.5977 34.4717 73.0934 26.0647 61.5889 17.6565C60.885 17.106 59.9774 16.8869 59.0999 17.0556C58.5638 17.1608 58.0806 17.429 57.6502 17.7517C46.2278 26.1005 34.8049 34.4488 23.3814 42.7967C22.5146 43.3992 21.9999 44.3898 22.0051 45.4454C21.9983 55.0971 21.9983 64.7483 22.0051 74.3991C21.9901 75.4445 22.5326 76.459 23.3922 77.0478C34.8145 85.3923 46.2346 93.7386 57.6523 102.087C58.7449 103.021 60.459 103.095 61.5868 102.184C73.0543 93.8108 84.5176 85.4335 95.9766 77.0521C96.8396 76.4706 97.3979 75.4381 97.3498 74.3914" fill="#050708"/>
<path d="M55.6989 23.9654C56.0018 23.6221 56.3091 23.0869 56.8417 23.1582C58.6531 23.1689 60.4689 23.1299 62.2799 23.1775C62.5936 23.3723 62.834 23.6646 63.1022 23.9156C63.0953 25.785 63.0953 27.6548 63.1022 29.5251C62.5632 29.5315 62.0224 29.5556 61.4834 29.5187C61.4508 29.3865 61.386 29.1268 61.3547 28.9951C61.3547 27.5991 61.4757 26.2013 61.359 24.8074C60.0277 24.8094 58.6973 24.8094 57.3678 24.8074C57.3614 25.2769 57.3592 25.749 57.355 26.2185C56.7945 26.2185 56.2319 26.2185 55.6692 26.2142C55.6731 25.467 55.5907 24.7074 55.6989 23.9654Z" fill="white"/>
<path d="M51.1824 26.2464C51.7948 26.2228 52.4072 26.2228 53.0217 26.2378C53.0303 28.8239 53.041 31.4078 53.0153 33.9917C52.4308 34.0046 51.8467 34.0046 51.2643 34.0003C51.0699 31.4254 51.2253 28.8303 51.1824 26.2464Z" fill="white"/>
<path d="M66.7606 29.0251C68.3914 29.0036 70.0196 29.0101 71.6495 29.0208C71.6581 29.6182 71.6581 30.2134 71.6495 30.8104C70.0188 30.8275 68.388 30.834 66.7572 30.8061C66.7512 30.213 66.7512 29.616 66.7572 29.0251" fill="white"/>
<path d="M56.8721 29.9058C57.53 29.8908 58.1879 29.8929 58.8462 29.8929C59.4757 31.1177 60.2658 32.2606 60.7774 33.5437C60.1735 33.5721 59.5676 33.5721 58.9638 33.5742C58.2462 32.3627 57.5536 31.137 56.8721 29.9058Z" fill="white"/>
<path d="M63.5893 32.0593C64.1583 32.0464 64.7274 32.0486 65.299 32.0571C66.8483 34.4604 68.3542 36.892 69.915 39.2897C69.915 40.0192 69.915 40.7488 69.9021 41.4783C69.733 41.4479 69.4 41.3895 69.2335 41.3616C67.9091 39.3875 66.6908 37.343 65.3814 35.3603C65.36 37.5919 65.3879 39.8235 65.3664 42.0551C64.7733 42.066 64.1789 42.066 63.5833 42.0551C63.576 38.7245 63.5652 35.3917 63.5893 32.0593Z" fill="white"/>
<path d="M70.6617 33.4115C71.2677 33.3986 71.8758 33.3986 72.4818 33.4158C72.486 33.987 72.486 34.5608 72.4818 35.1324C71.8758 35.1474 71.2677 35.1474 70.6639 35.1367C70.6596 34.5628 70.6596 33.9877 70.6639 33.4115" fill="white"/>
<path d="M40.7037 33.9763C41.1818 33.9677 41.6603 33.9699 42.1383 33.9742C43.4151 33.8883 44.6897 33.9136 45.9668 33.987C45.9711 34.5411 45.9668 35.0973 45.9625 35.6513C44.0743 36.7851 42.2598 38.0425 40.3445 39.1274C39.7797 38.9129 39.3488 38.461 38.8879 38.0842C40.1411 37.3203 41.368 36.5152 42.634 35.7727C41.9933 35.7401 41.3508 35.7444 40.7101 35.738C40.699 35.1492 40.6968 34.562 40.7037 33.9763Z" fill="white"/>
<path d="M55.8096 34.6342C56.3963 34.617 56.9846 34.6191 57.5691 34.6342C57.5842 35.223 57.5842 35.8092 57.5691 36.398C56.9826 36.4151 56.3961 36.4159 55.8096 36.4001C55.7959 35.8113 55.7959 35.2227 55.8096 34.6342Z" fill="white"/>
<path d="M47.2004 36.3568C48.1398 37.7808 49.0509 39.2244 50.0028 40.6398C50.9529 39.2073 51.8704 37.7529 52.8292 36.3268C52.8292 37.2709 52.8918 38.2249 52.8099 39.1682C51.94 40.6591 50.9336 42.068 49.9963 43.5181C49.0745 42.092 48.0982 40.696 47.224 39.242C47.1249 38.285 47.1961 37.3177 47.2004 36.3568Z" fill="white"/>
<path d="M73.2065 36.5972C76.026 36.5843 78.8458 36.585 81.6659 36.5993C81.6659 37.1705 81.6659 37.7443 81.6634 38.3159C78.8455 38.3225 76.0266 38.3232 73.2065 38.3181C73.2039 37.7443 73.2022 37.1692 73.2065 36.5972Z" fill="white"/>
<path d="M58.2805 38.8305C58.8475 38.8197 59.4165 38.8197 59.986 38.8262C60.0143 41.3277 59.986 43.8318 60.001 46.3363C59.7371 46.5874 59.4753 46.8428 59.2178 47.0981C57.2634 47.1196 55.3095 47.0981 53.3573 47.1088C53.0998 46.8621 52.8359 46.626 52.6041 46.36C52.5046 45.5939 52.578 44.8124 52.5758 44.0425C53.1194 44.0382 53.6647 44.0382 54.2117 44.0425C54.2268 44.4841 54.2246 44.9253 54.2182 45.3669C55.5623 45.5184 56.9167 45.4098 58.2672 45.4424C58.2741 43.2387 58.2526 41.0316 58.2805 38.8305Z" fill="white"/>
<path d="M85.5421 46.2252C85.5244 44.3369 85.5244 42.4476 85.5421 40.5574C86.1331 40.5445 86.7236 40.5423 87.3167 40.5574C87.3358 42.4456 87.3358 44.3356 87.3167 46.2273C86.7253 46.2372 86.1348 46.235 85.5438 46.2273" fill="white"/>
<path d="M77.1218 41.9838C78.2376 41.9731 79.3594 41.7997 80.4692 41.9795C81.1962 44.3493 81.8197 46.7556 82.5424 49.1296C81.9712 49.1339 81.3974 49.1339 80.8258 49.1339C80.2803 47.2924 79.8151 45.429 79.2525 43.5914C78.9388 43.5957 78.6251 43.6 78.311 43.6021C77.8436 45.4569 77.281 47.2834 76.7982 49.1314C76.2223 49.1334 75.6466 49.1326 75.0713 49.1292C75.7798 46.7556 76.4446 44.3656 77.1218 41.9838Z" fill="white"/>
<path d="M29.4178 42.8885C31.9889 42.8735 34.5621 42.8671 37.1327 42.8885C37.1477 43.4795 37.1477 44.0679 37.1349 44.6588C34.5599 44.6824 31.9885 44.676 29.4153 44.6609C29.4071 44.07 29.4071 43.4756 29.4178 42.8864" fill="white"/>
<path d="M38.3452 42.8907C38.9297 42.8864 39.5138 42.8842 40.1005 42.8907C40.1133 43.4837 40.1133 44.0786 40.1005 44.6716C39.5138 44.6781 38.9297 44.6759 38.3452 44.6716C38.3384 44.0786 38.3384 43.4876 38.3452 42.895" fill="white"/>
<path d="M44.807 42.9637C45.3804 42.9594 45.9563 42.9615 46.5296 42.968C46.5468 44.3412 46.5382 45.7184 46.5382 47.093C45.9559 47.0973 45.3739 47.0994 44.7941 47.093C44.7881 45.7197 44.7701 44.3391 44.807 42.9615" fill="white"/>
<path d="M89.7492 44.1974C90.4092 44.1846 91.0714 44.1867 91.7315 44.1846C92.3851 45.3965 93.1794 46.5449 93.6661 47.8397C93.0653 47.8611 92.4606 47.8633 91.8589 47.8658C91.1474 46.6475 90.4698 45.4089 89.7488 44.1974" fill="white"/>
<path d="M63.7279 45.6673C64.3001 45.663 64.8723 45.663 65.4445 45.6673C65.4574 47.55 65.4484 49.4327 65.4484 51.3158C64.8729 51.3201 64.2991 51.3222 63.724 51.3222C63.724 49.4378 63.721 47.5508 63.7279 45.6651" fill="white"/>
<path d="M69.7647 47.9568C69.7578 47.368 69.7578 46.778 69.7647 46.1866C70.3423 46.178 70.9234 46.178 71.5023 46.193C71.5023 46.7818 71.5066 47.3702 71.498 47.959C70.9212 47.9611 70.3393 47.959 69.7625 47.959" fill="white"/>
<path d="M37.1028 50.5664C38.4898 49.5536 39.9704 48.673 41.3943 47.7164C42.3359 47.7272 43.2749 47.7164 44.2164 47.7293C42.8182 48.7292 41.3317 49.5927 39.9249 50.5793C41.3707 51.4883 42.7882 52.4405 44.225 53.3581C43.2577 53.3752 42.2904 53.3645 41.3231 53.3667C39.927 52.4191 38.4769 51.5458 37.1028 50.5664" fill="white"/>
<path d="M85.5444 48.9242C86.137 48.9113 86.7301 48.9092 87.3254 48.9242C87.34 49.5173 87.3382 50.1078 87.3211 50.7009C86.7301 50.7137 86.1375 50.7116 85.5465 50.7009C85.5336 50.1098 85.5336 49.519 85.5465 48.9285" fill="white"/>
<path d="M24.6632 49.1666C27.6244 49.1495 30.5907 49.143 33.5557 49.1709C33.5622 49.7314 33.5622 50.294 33.5643 50.8566C32.2399 51.7244 30.9156 52.5964 29.5543 53.4015C28.9788 53.1916 28.5436 52.7149 28.0523 52.3651C28.7857 51.902 29.5303 51.454 30.2409 50.9583C28.3819 50.9497 26.5232 50.9691 24.662 50.9476C24.6534 50.3545 24.6534 49.7609 24.662 49.1666" fill="white"/>
<path d="M50.0181 50.885C52.5827 50.8957 55.1469 50.8721 57.7094 50.8957C57.7717 51.4789 57.7638 52.0675 57.6858 52.6488C55.1297 52.6595 52.5763 52.6509 50.0228 52.6531C50.0182 52.0617 50.0167 51.4723 50.0181 50.885Z" fill="white"/>
<path d="M59.3844 50.8956C60.0011 50.8828 60.6157 50.8828 61.2328 50.9042C61.2348 51.4798 61.234 52.0541 61.2302 52.6268C60.6157 52.644 59.999 52.644 59.3849 52.6333C59.3789 52.0535 59.3789 51.4746 59.3849 50.8956" fill="white"/>
<path d="M67.4504 53.3758C67.3702 52.7677 67.9937 52.4561 68.3139 52.0385C69.067 52.0385 69.8198 52.0342 70.5734 52.0493C70.5905 52.6162 70.5905 53.1831 70.5815 53.7526C70.106 53.7612 69.6271 53.7612 69.1516 53.7676V57.8059C71.3652 57.8209 73.5792 57.7973 75.7932 57.8188C75.7996 58.3921 75.7996 58.9659 75.7846 59.5354C73.2916 59.5526 70.7961 59.5376 68.3031 59.544C67.9851 59.1286 67.3749 58.8144 67.4526 58.211C67.4414 56.6 67.4414 54.9882 67.4526 53.3758" fill="white"/>
<path d="M75.8445 52.8388C76.4547 52.8174 77.0693 52.8174 77.6817 52.8388C77.6883 53.4231 77.6883 54.0074 77.6817 54.5919C77.0693 54.6134 76.459 54.6134 75.8466 54.5919C75.8402 54.0053 75.8402 53.4212 75.8466 52.8346" fill="white"/>
<path d="M81.6771 52.8388C84.2567 52.804 86.8342 52.8281 89.4139 52.8259C89.4181 53.4212 89.4181 54.0186 89.4113 54.6134C86.8338 54.6134 84.2567 54.6348 81.6788 54.6026C81.6702 54.0138 81.6702 53.4259 81.6788 52.8388" fill="white"/>
<path d="M45.9433 54.897C47.3892 54.8949 48.8324 54.897 50.2778 54.8949C50.2907 55.4957 50.2907 56.0965 50.2778 56.6973C48.8341 56.6996 47.3913 56.6996 45.9493 56.6973C45.9242 56.0965 45.9229 55.4964 45.9455 54.897" fill="white"/>
<path d="M55.4762 54.8971C57.7443 54.895 60.0123 54.8971 62.28 54.8928C63.104 54.7641 63.9292 55.6198 63.8249 56.4335C63.8201 58.0994 63.8192 59.7673 63.8224 61.437C63.5322 61.7507 63.2404 62.0601 62.9482 62.3717C62.1972 62.3717 61.4487 62.3717 60.6977 62.3631C60.6914 61.7909 60.6907 61.2195 60.6955 60.649C61.165 60.6426 61.6354 60.6383 62.1045 60.6319C62.1045 59.3204 62.1045 58.0067 62.1087 56.6953C59.9055 56.4983 57.6855 56.6626 55.4758 56.6043C55.4703 56.0321 55.4703 55.463 55.4758 54.8971" fill="white"/>
<path d="M39.4919 55.4249C40.6 55.4185 41.7059 55.4121 42.814 55.4292C43.4848 57.8248 44.2053 60.2074 44.8396 62.6141C44.2817 62.6141 43.7238 62.6141 43.1689 62.6184C42.5999 60.77 42.1604 58.8873 41.5738 57.048C41.2579 57.0673 40.9421 57.0909 40.6258 57.1149C40.2061 58.9676 39.6065 60.7722 39.1478 62.6163C38.5744 62.6163 38.0006 62.6163 37.4312 62.6098C38.1135 60.2147 38.7929 57.8162 39.4911 55.4249" fill="white"/>
<path d="M87.832 57.5892C89.7632 57.5699 91.697 57.5501 93.6256 57.5956C94.1127 57.896 94.662 58.3836 94.556 59.0239C94.556 60.3971 94.5474 61.7743 94.556 63.1489C94.5389 63.8089 94.5689 64.469 94.5496 65.129C94.58 65.668 94.4329 66.198 94.4637 66.7392C93.914 66.7392 93.3643 66.7392 92.8145 66.7327C92.821 64.2527 92.8145 61.7704 92.8188 59.2904C91.47 59.2535 90.1224 59.2818 88.774 59.2711C88.7715 59.732 88.7715 60.1929 88.7633 60.6559C88.196 60.6645 87.6288 60.6674 87.0617 60.6645C87.051 59.9049 87.0536 59.1432 87.0553 58.3836C87.3166 58.1218 87.5741 57.8574 87.8316 57.5892" fill="white"/>
<path d="M32.876 57.6582H34.6699C34.6742 59.543 34.6699 61.4257 34.6699 63.3089H32.8674C32.876 61.4262 32.8696 59.5413 32.8739 57.6582" fill="white"/>
<path d="M27.2473 59.2341C27.8361 59.2255 28.4245 59.2427 29.0111 59.2817C29.0177 59.8399 29.0177 60.399 29.0111 60.9589C28.418 60.9653 27.8254 60.9674 27.2323 60.9589C27.2258 60.3829 27.228 59.8096 27.2473 59.2362" fill="white"/>
<path d="M48.3259 69.5634C48.3104 66.2306 48.3097 62.8975 48.3237 59.5641C48.9082 59.5555 49.4923 59.5555 50.0768 59.5684C51.4501 61.7824 52.8663 63.9723 54.2688 66.1709C54.8747 66.952 54.5113 67.9995 54.6087 68.9085C54.4053 68.9085 54.2018 68.9128 54.0006 68.9171C52.7389 66.9129 51.4209 64.9435 50.2133 62.9089C49.9948 65.1208 50.1742 67.3519 50.103 69.5724C49.5086 69.5784 48.9164 69.5784 48.3259 69.5634Z" fill="white"/>
<path d="M56.1177 60.8459C56.7125 60.8331 57.3076 60.8316 57.9029 60.8417C57.9115 62.2982 57.9094 63.7547 57.9029 65.2109C57.3056 65.2216 56.7103 65.2216 56.1134 65.2066C56.1035 63.7526 56.1009 62.2982 56.1134 60.8459" fill="white"/>
<path d="M66.907 62.794C67.4894 62.7897 68.0734 62.7875 68.6579 62.794C68.6688 63.3871 68.6688 63.98 68.6579 64.5728C68.0734 64.5751 67.4898 64.5751 66.907 64.5728C66.9001 63.982 66.9001 63.3898 66.907 62.7961" fill="white"/>
<path d="M72.5834 62.8716C74.397 62.848 76.2106 62.8609 78.0264 62.8652C78.0998 63.3952 78.1452 63.9342 78.0933 64.4711C77.9217 64.8195 77.511 64.6809 77.2037 64.7135C75.6587 64.668 74.1091 64.8024 72.5748 64.6277C72.5641 64.0402 72.5641 63.4561 72.5834 62.8716Z" fill="white"/>
<path d="M79.9004 63.1227C80.4849 63.1141 81.0754 63.075 81.6599 63.1656C81.7161 65.2126 81.6835 67.2666 81.6728 69.3162C81.082 69.3271 80.4919 69.3271 79.9025 69.3162C79.8828 67.2525 79.8828 65.1888 79.9025 63.1248" fill="white"/>
<path d="M63.7278 64.3354C64.299 64.3354 64.8728 64.3311 65.4444 64.3354C65.4509 64.9242 65.4526 65.5147 65.4444 66.1078C64.8722 66.1164 64.3 66.1164 63.7278 66.1078C63.7235 65.5173 63.7235 64.9242 63.7278 64.3333" fill="white"/>
<path d="M36.2132 65.5941C38.2516 65.3736 40.3099 65.5487 42.3569 65.4839C42.8844 65.4771 43.4119 65.5009 43.9366 65.5551C43.9452 66.1503 43.9431 66.7477 43.9366 67.3425C41.3617 67.3382 38.7924 67.3554 36.2217 67.3339C36.2063 66.7541 36.2063 66.1752 36.211 65.5941" fill="white"/>
<path d="M24.6655 66.9103C24.9448 66.6378 25.2259 66.3627 25.5075 66.0902C26.252 66.0859 26.9962 66.0838 27.739 66.0988C27.7476 66.6614 27.7476 67.2262 27.7433 67.7888C27.2803 67.7995 26.8194 67.8017 26.3563 67.806C26.367 69.1479 26.3499 70.4894 26.367 71.8314C28.5592 71.8378 30.7517 71.8164 32.9438 71.8421C32.9545 72.3962 32.9545 72.9481 32.9503 73.5021C32.4069 73.5042 31.8615 73.5064 31.3195 73.5064C29.3741 73.4871 27.4262 73.539 25.483 73.4828C25.1585 73.2987 24.8315 72.9957 24.6843 72.6519C24.6333 70.7392 24.6783 68.8239 24.6676 66.9103" fill="white"/>
<path d="M70.1445 68.0262C70.4368 67.7516 70.7312 67.4765 71.032 67.2083C72.9276 67.2233 74.8236 67.2083 76.7192 67.2147C77.005 67.4872 77.2904 67.7623 77.5775 68.0327C77.5798 69.9089 77.5798 71.7845 77.5775 73.6593C76.9998 73.6636 76.4218 73.6593 75.8463 73.6443C75.8463 72.0667 75.8334 70.4913 75.8527 68.9137C74.5223 68.9116 73.1975 68.9137 71.8706 68.9116C71.8727 69.3918 71.8706 69.8724 71.8599 70.3527C71.2908 70.3612 70.7218 70.3612 70.1544 70.3591C70.136 69.5815 70.1402 68.8047 70.1424 68.0262" fill="white"/>
<path d="M82.3154 71.3379C84.4182 69.9681 86.5421 68.6342 88.6625 67.2953C89.1689 67.633 89.6668 67.9879 90.1603 68.3429C88.6342 69.3156 87.1093 70.2859 85.5855 71.2538C87.8253 71.2774 90.0654 71.2538 92.3073 71.2667C92.3116 71.8619 92.3116 72.4593 92.3073 73.0541C88.9783 73.065 85.6497 73.065 82.3218 73.0541C82.3132 72.4803 82.3132 71.907 82.3175 71.3375" fill="white"/>
<path d="M58.5166 71.6774C60.6267 70.2728 62.8038 68.9699 64.9136 67.5657C65.4152 67.912 65.9113 68.2648 66.422 68.5956C64.9629 69.6213 63.4141 70.5152 61.9271 71.504C64.154 71.5431 66.3808 71.4997 68.6077 71.5276C68.6227 72.14 68.6227 72.7546 68.6077 73.367C65.2749 73.3863 61.9417 73.3734 58.6084 73.3734C58.5226 72.8116 58.5226 72.2426 58.5187 71.6752" fill="white"/>
<path d="M36.6115 70.1625C37.5376 71.5787 38.4663 72.9949 39.3817 74.415C40.364 73.0125 41.2429 71.5397 42.2166 70.1299C42.236 71.0843 42.2209 72.0409 42.2295 72.9953C41.2601 74.415 40.3726 75.8908 39.3774 77.2912C38.4556 75.8844 37.5616 74.4588 36.6008 73.0777C36.5913 72.1061 36.5814 71.1324 36.6115 70.1625Z" fill="white"/>
<path d="M46.762 73.7962C46.7406 73.1902 46.7384 72.5843 46.7727 71.9804C47.3551 71.974 47.9413 71.9761 48.5237 72.0233C48.5366 72.6139 48.5366 73.2047 48.5237 73.7958C47.9383 73.8005 47.3517 73.8026 46.7642 73.7958" fill="white"/>
<path d="M55.0131 74.6707C55.604 74.6643 56.1967 74.6621 56.7876 74.6707C56.8026 76.8714 56.7876 79.0725 56.7962 81.2732C56.3765 81.2904 55.9563 81.3101 55.5366 81.3488C55.4023 81.3226 55.1341 81.2754 54.9998 81.2513C55.0131 79.0592 54.989 76.865 55.0131 74.6728" fill="white"/>
<path d="M67.2379 76.0513C68.3537 76.0299 69.4665 76.0449 70.5814 76.0385C71.2652 78.434 71.9499 80.8297 72.6354 83.2255C72.0599 83.2255 71.4839 83.2255 70.9106 83.2126C70.4214 81.3818 69.8913 79.5618 69.3935 77.7332C69.082 77.7139 68.7704 77.7006 68.4588 77.6855C67.9439 79.5335 67.4303 81.381 66.9182 83.2281C66.3427 83.2281 65.7689 83.2281 65.1956 83.2195C65.8964 80.8347 66.5933 78.4499 67.2379 76.0526" fill="white"/>
<path d="M41.972 80.0201C44.0951 78.6567 46.2138 77.2847 48.3664 75.9668C48.8621 76.3153 49.3621 76.6534 49.853 77.0101C48.3124 77.9688 46.8017 78.9773 45.2456 79.9099C47.5008 79.9528 49.7577 79.9034 52.0151 79.936C52.0258 80.5291 52.028 81.1218 52.0108 81.7149C48.6673 81.7256 45.3237 81.7411 41.9802 81.7084C41.9635 81.1454 41.9656 80.5828 41.972 80.0201Z" fill="white"/>
<path d="M59.5081 76.402C60.1296 76.4088 60.7509 76.3712 61.3671 76.2896C62.0967 77.4912 62.9576 78.6829 63.3322 80.0506C62.7499 80.0549 62.1679 80.0549 61.5882 80.0592C60.9032 78.8344 60.2099 77.6153 59.5081 76.402Z" fill="white"/>
<path d="M84.0857 77.1354C84.6938 77.1161 85.304 77.1161 85.9139 77.129C85.9164 77.7109 85.9164 78.2938 85.9139 78.8778C85.304 78.8928 84.6955 78.8928 84.0874 78.867C84.0767 78.289 84.0767 77.7135 84.0874 77.1354" fill="white"/>
<path d="M79.6039 81.7925C80.3399 80.6089 81.1274 79.4596 81.8677 78.2781C81.8891 79.1545 81.9024 80.0334 81.8805 80.9119C81.902 81.241 81.6621 81.4964 81.5085 81.7624C80.6931 82.9679 79.9112 84.197 79.1108 85.4102C78.1478 83.9734 77.2152 82.5212 76.2629 81.0758C76.2586 80.1149 76.25 79.154 76.2737 78.1953C77.2083 79.5956 78.0915 81.0324 79.0481 82.4195C79.3181 82.3053 79.4395 82.0156 79.606 81.7925" fill="white"/>
<path d="M34.3133 80.0897C35.8737 80.0378 37.4362 80.0635 38.9988 80.0747C39.0074 80.6523 39.0443 81.2334 38.9705 81.8102C37.4208 81.8857 35.8651 81.8492 34.3154 81.8209C34.309 81.2432 34.309 80.6673 34.3133 80.0897Z" fill="white"/>
<path d="M53.3359 83.8618C55.8374 83.8249 58.3372 83.8618 60.8387 83.8425C61.1248 84.1286 61.4109 84.4165 61.697 84.706C61.6863 86.617 61.6906 88.5302 61.6928 90.445C61.4418 90.7068 61.1937 90.9716 60.9482 91.2394C60.1474 91.2566 59.3466 91.2587 58.5449 91.2351C58.5556 90.694 58.4866 90.1421 58.6162 89.6121C59.0685 89.5644 59.523 89.5816 59.9796 89.5773C59.9839 88.2379 59.9796 86.9002 59.9796 85.563C57.7634 85.5501 55.5451 85.5913 53.3316 85.5415C53.3247 84.9811 53.3247 84.4212 53.3316 83.8618" fill="white"/>
<path d="M41.3182 84.4979C41.9024 84.4894 42.4875 84.4908 43.0734 84.5022C43.082 85.0862 43.0827 85.672 43.0756 86.2596C42.4868 86.2682 41.9003 86.2689 41.3161 86.2618C41.3081 85.673 41.3081 85.085 41.3161 84.4979" fill="white"/>
<path d="M72.2697 85.4434C72.9319 84.8855 73.5336 85.8155 74.1005 86.0871C74.1005 86.139 74.1005 86.245 74.1005 86.297C72.6203 87.2514 71.1054 88.1539 69.6575 89.1581L70.4973 89.1517C70.9428 89.1517 71.3901 89.1567 71.8393 89.1667C71.8436 89.7512 71.8436 90.3374 71.835 90.9219C70.0128 90.9481 68.1906 90.9413 66.3684 90.9262C66.3315 90.3743 66.3255 89.8203 66.3208 89.2706C68.2662 87.9402 70.296 86.7386 72.2676 85.4434" fill="white"/>
<path d="M44.6056 87.0663C46.9711 87.0578 49.3387 87.0449 51.7038 87.0728C51.7081 87.6547 51.7081 88.2377 51.7038 88.8216C49.3362 88.8563 46.9707 88.8409 44.6035 88.8302C44.5927 88.2418 44.5949 87.653 44.6035 87.0663" fill="white"/>
<path d="M50.9099 91.5592C51.5764 91.5528 52.2429 91.5506 52.9098 91.5635C53.5265 92.7904 54.3466 93.9204 54.8208 95.2164C54.2234 95.2491 53.6282 95.2491 53.0312 95.2533C52.3017 94.035 51.6197 92.7874 50.9099 91.5592Z" fill="white"/>
<path d="M62.7237 93.4247C63.3061 93.4204 63.888 93.429 64.4678 93.4676C64.4785 94.05 64.4742 94.6341 64.4009 95.2143C63.8447 95.2166 63.2899 95.2166 62.7366 95.2143C62.7151 94.6135 62.7151 94.0199 62.7233 93.4247" fill="white"/>
<path d="M58.6659 99.2161C58.6659 97.857 58.6354 96.4957 58.6873 95.1366C59.274 95.1366 59.8623 95.1692 60.4469 95.2224C60.4534 96.5534 60.4534 97.885 60.4469 99.2174C59.8529 99.2266 59.2592 99.2266 58.6659 99.2174" fill="white"/>
</svg>
