<svg width="120" height="120" viewBox="0 0 120 120" fill="none" xmlns="http://www.w3.org/2000/svg">
<circle cx="60" cy="60" r="60" fill="#EDF0F4"/>
<path d="M96.6852 68.017L82.8188 81.8754V80.7428C82.8274 80.1582 82.596 79.5956 82.1786 79.1861L80.5338 77.5854L93.3757 64.7435C95.9796 62.1308 95.9796 57.904 93.3757 55.2912L64.6906 26.5981C62.0787 23.9919 57.8501 23.9919 55.2382 26.5981L26.5732 55.2792C23.9692 57.892 23.9692 62.1188 26.5732 64.7315L55.2623 93.4206C57.8718 96.0286 62.101 96.0286 64.7106 93.4206L75.4035 82.7278L75.9557 83.1279L75.8917 88.9946L68.1041 96.6781C63.65 101.103 56.4589 101.103 52.0048 96.6781L23.3077 68.017C18.8974 63.5926 18.8974 56.4342 23.3077 52.0097L51.9808 23.3126C56.4025 18.8958 63.5663 18.8958 67.9881 23.3126L96.6852 52.0097C101.093 56.4351 101.093 63.5917 96.6852 68.017Z" fill="#1EB3DE"/>
<path d="M82.2067 79.186L80.5619 77.5853L65.2109 62.5304C66.4216 60.0168 65.6749 56.9974 63.432 55.3379C61.1892 53.6784 58.0834 53.8472 56.0337 55.7401C53.984 57.6329 53.5689 60.7155 55.045 63.0831C56.5211 65.4507 59.4716 66.4349 62.0735 65.4278L70.3293 73.5275L77.7727 80.3586L78.493 81.0229C78.7176 81.2267 78.8394 81.5203 78.8251 81.8232L78.8171 85.9891V94.6251L78.6971 96.3739C78.6166 97.5647 79.5083 98.5991 80.698 98.695H80.734C81.9267 98.6213 82.8587 97.6368 82.867 96.4419V81.9593V80.7908C82.8736 80.1885 82.6353 79.6093 82.2067 79.186Z" fill="#1EB3DE"/>
<path d="M59.8323 63.2149C58.0884 63.1254 56.7379 61.6549 56.7968 59.9096C56.8557 58.1644 58.3023 56.7883 60.0483 56.8166C61.7943 56.8449 63.1956 58.2672 63.1979 60.0134C63.1983 60.1782 63.1862 60.3427 63.1619 60.5057C62.9198 62.0612 61.5827 63.21 60.0084 63.2149H59.8323Z" fill="#1EB3DE"/>
</svg>
