<svg width="120" height="120" viewBox="0 0 120 120" fill="none" xmlns="http://www.w3.org/2000/svg">
<circle cx="60" cy="60" r="60" fill="#E7EFF3"/>
<circle cx="59.9999" cy="38.1132" r="18.1132" fill="#88BDF3"/>
<circle cx="59.9999" cy="81.8868" r="18.1132" fill="#3075EE"/>
<circle cx="81.8866" cy="60" r="18.1132" fill="#5795F1"/>
<circle cx="38.1132" cy="60" r="18.1132" fill="#205FEC"/>
<path d="M55.7358 55.7358C49.1542 54.1354 44.0154 48.9967 42.415 42.415C48.9832 44.0393 54.1115 49.1676 55.7358 55.7358Z" fill="#134BEF"/>
<path d="M42.377 77.6226C43.9773 71.041 49.1161 65.9022 55.6977 64.3019C54.0735 70.87 48.9451 75.9984 42.377 77.6226Z" fill="#0932E8"/>
<path d="M64.2637 64.2642C70.8453 65.8645 75.9841 71.0033 77.5844 77.5849C71.0163 75.9607 65.8879 70.8323 64.2637 64.2642V64.2642Z" fill="#164BEA"/>
<path d="M77.6225 42.3773C76.0222 48.9589 70.8834 54.0977 64.3018 55.6981C65.926 49.1299 71.0543 44.0016 77.6225 42.3773Z" fill="#3170F1"/>
</svg>
