<svg width="120" height="120" viewBox="0 0 120 120" fill="none" xmlns="http://www.w3.org/2000/svg">
<circle cx="60" cy="60" r="60" fill="#E7EFF3"/>
<path fill-rule="evenodd" clip-rule="evenodd" d="M20.7152 52.3156C23.8903 35.542 37.7775 22.5529 55.0322 20.2117C58.0149 19.7947 64.333 20.0192 67.6364 20.6607C75.5261 22.168 83.48 26.5619 88.9643 32.3348C98.2972 42.2451 101.985 55.7473 98.9707 69.0251C97.2388 76.6903 93.326 83.4895 87.4248 89.1021C81.8443 94.3619 75.5261 97.6333 67.7006 99.301C63.9161 100.103 56.0905 100.103 52.3061 99.301C46.8218 98.1143 42.0751 96.1259 37.4247 93.079C34.3779 91.0585 29.086 85.7346 26.9692 82.5915C20.9077 73.5152 18.7268 62.8994 20.7152 52.3156ZM88.419 36.6004C82.5499 29.3521 73.5377 24.4772 64.0123 23.3868C56.1226 22.5208 48.6178 24.1244 41.4016 28.2617C34.7948 32.0141 28.8294 38.9096 25.975 46.0616C20.3624 59.9488 23.4734 75.3433 34.0251 85.927C52.723 104.753 84.6345 98.0502 94.2882 73.2586C96.1163 68.6402 96.6936 65.2085 96.6936 59.628C96.6615 55.7153 96.5332 54.4324 95.8276 51.6101C94.3844 45.6768 92.2035 41.315 88.419 36.6004Z" fill="black"/>
<path fill-rule="evenodd" clip-rule="evenodd" d="M28.2525 62.0014C27.2904 57.1906 29.9523 52.027 34.1217 50.5196C35.6932 49.9744 38.8362 49.8782 40.4719 50.3272C44.6733 51.5139 47.5277 56.1322 47.0787 61.0713C46.7259 64.6634 45.1544 67.197 42.3 68.8006C40.7606 69.6345 40.3436 69.7307 37.5534 69.7307C34.0575 69.7307 32.7746 69.2496 30.7862 67.1008C29.2788 65.5293 28.7336 64.4068 28.2525 62.0014ZM43.3263 61.8731C43.9998 59.0828 43.0377 55.9077 41.1454 54.5286C39.2211 53.1816 35.9177 53.1495 34.0575 54.4966C31.8125 56.0681 31.0428 60.5902 32.5181 63.4767C34.9555 68.3195 42.0434 67.2612 43.3263 61.8731Z" fill="black"/>
<path d="M77.5141 50.6478C71.4846 53.0532 69.7848 61.9372 74.339 67.3252C76.8085 70.2759 82.6456 70.8211 85.2434 68.3195L85.949 67.646L86.0452 68.544C86.1415 69.3458 86.2377 69.4099 87.7451 69.4099H89.3487L89.4449 64.3426L89.5411 59.3073H85.0189H80.5289V60.9109V62.5145H83.255C86.2056 62.5145 86.3018 62.5786 85.468 64.3105C84.8907 65.4971 82.8381 66.6838 81.2986 66.6838C77.6103 66.6838 75.3974 64.086 75.3974 59.8846C75.4294 55.2341 78.4121 52.5722 82.4853 53.5343C84.0568 53.9192 85.6604 55.2983 85.6604 56.2925C85.6604 56.6132 86.1415 56.7415 87.5847 56.7415H89.4769L89.0279 55.2983C88.0337 51.9307 85.5642 50.2309 81.491 50.1026C79.695 50.0385 78.7008 50.1668 77.5141 50.6478Z" fill="black"/>
<path d="M49.7402 59.9488V69.5703H51.3438H52.9474L53.0116 63.0918L53.1078 56.5812L55.4811 63.0918L57.8544 69.6024L59.458 69.5062L61.0616 69.41L63.4029 62.9956L65.7441 56.5812L65.8403 62.9956L65.9366 69.41L67.6364 69.5062L69.3041 69.6024L69.24 60.045L69.1437 50.4876H66.9308H64.6857L62.12 57.6075C60.7088 61.5524 59.458 64.6633 59.3618 64.503C59.2335 64.3747 58.0789 61.3279 56.7961 57.7037C55.5132 54.0796 54.2944 50.9366 54.1341 50.7121C53.9417 50.4876 53.0436 50.3272 51.7928 50.3272H49.7402V59.9488Z" fill="black"/>
</svg>
