<svg width="120" height="120" viewBox="0 0 120 120" fill="none" xmlns="http://www.w3.org/2000/svg">
<circle cx="60" cy="60" r="60" fill="#EDF0F4"/>
<path fill-rule="evenodd" clip-rule="evenodd" d="M60.0015 94.9782C79.3201 94.9705 94.9819 79.3171 95 59.9985C94.9578 40.3637 79.0111 25.0211 60.0437 25C40.9076 24.9789 25.1272 40.4245 25.0007 59.7713C24.8766 79.2399 40.6571 94.9782 60.0015 94.9782ZM60.0624 34.2753C74.2289 34.3397 85.6844 45.8319 85.7036 59.9985C85.6826 66.8552 82.9314 73.4212 78.0582 78.2447C73.1849 83.0683 66.5912 85.7521 59.7346 85.7029C45.893 85.5554 34.2831 74.2428 34.3041 59.9587C34.3041 45.7214 45.9516 34.2355 60.0624 34.2753Z" fill="#1C347A"/>
<path fill-rule="evenodd" clip-rule="evenodd" d="M39.5399 27.8967C34.8704 30.8955 30.8857 34.8451 27.8456 39.4879V27.9177C28.0939 27.8358 38.725 27.81 39.5399 27.8967ZM92.0961 27.8451C88.2183 27.8451 84.3405 27.8451 80.4628 27.885C85.1058 30.9134 89.0676 34.8753 92.0961 39.5183V27.8451ZM92.0961 92.2057V80.4623C89.0839 85.1485 85.1204 89.1495 80.4628 92.2057H92.0961ZM27.9182 92.1378H39.4884C34.8515 89.0983 30.903 85.121 27.8972 80.4623C27.8152 80.9423 27.8363 91.8662 27.9182 92.1378Z" fill="#1C347A"/>
</svg>
