<svg width="120" height="120" viewBox="0 0 120 120" fill="none" xmlns="http://www.w3.org/2000/svg">
<circle cx="60" cy="60" r="60" fill="#EDF0F4"/>
<path d="M45.1224 69.5066C45.0972 69.8344 44.8715 70.1122 44.5558 70.204C44.2402 70.2959 43.9007 70.1824 43.7036 69.9193L32.3531 59.3479C32.0636 59.1611 31.9152 58.8181 31.9774 58.4791C32.0395 58.1402 32.2999 57.8721 32.6369 57.8001L48.5275 51.4645C49.2653 51.1704 49.709 51.5574 49.513 52.3313L45.1224 69.5066Z" fill="#404A72"/>
<path d="M35.7326 79.5517C35.1289 80.0677 34.5201 79.8561 34.3808 79.0719L31.2853 61.8914C31.1408 61.1072 31.5019 60.9112 32.0849 61.4529L42.8679 71.5136C43.1458 71.7609 43.3017 72.1173 43.2947 72.4892C43.2878 72.8612 43.1187 73.2115 42.8318 73.4483L35.7326 79.5517Z" fill="#556195"/>
<path d="M48.7338 48.0439C48.986 48.2838 49.0903 48.6404 49.0072 48.9784C48.924 49.3164 48.6661 49.5839 48.3314 49.6794L32.5388 55.9995C31.7958 56.2936 31.4192 55.9273 31.6978 55.1792L38.1882 37.7356C38.244 37.4109 38.4969 37.1557 38.821 37.0969C39.1452 37.038 39.4716 37.1881 39.638 37.4725L48.7338 48.0439Z" fill="#556195"/>
<path d="M32.1829 76.6317C32.3273 77.4159 32.0849 77.5088 31.667 76.8432L25.5171 67.3759C25.0861 66.6329 25.1182 65.7088 25.5996 64.9974L28.334 61.3292C28.8139 60.6894 29.3195 60.8132 29.4588 61.5923L32.1829 76.6317Z" fill="#556195"/>
<path d="M30.2533 54.1061C29.9747 54.8542 29.5414 54.8491 29.2885 54.1061L27.199 47.8066C26.9693 46.9706 27.2034 46.0756 27.813 45.4591L35.2785 38.6953C35.8667 38.1793 36.1246 38.3341 35.846 39.0822L30.2533 54.1061Z" fill="#556195"/>
<path d="M28.2825 56.531C28.5164 57.3914 28.3678 58.3109 27.875 59.0539L25.7338 61.938C25.254 62.5777 24.9341 62.4539 25.0115 61.6594L26.0331 51.6864C26.1105 50.8919 26.3891 50.8609 26.6367 51.6193L28.2825 56.531Z" fill="#556195"/>
<path d="M36.7075 34.0725C36.9757 34.3769 36.7075 35.0683 36.1141 35.6203L32.74 38.6488C32.1466 39.1647 32.0538 39.0977 32.5284 38.4579L35.3196 34.6762C35.8355 34.0364 36.4443 33.7733 36.7075 34.0725Z" fill="#556195"/>
<path d="M57.8969 87.1514C57.7696 87.4595 57.4743 87.665 57.1412 87.6772C56.8081 87.6894 56.4985 87.5061 56.3491 87.2082L47.5783 74.4337C47.3476 74.1997 47.286 73.8472 47.4238 73.5488C47.5615 73.2505 47.8696 73.0686 48.1974 73.0923L65.837 71.2711C66.6264 71.1885 66.9463 71.6838 66.5439 72.3752L57.8969 87.1514Z" fill="#556195"/>
<path d="M54.2182 87.1618C54.6723 87.8222 54.4246 88.1472 53.6662 87.8944L37.1564 82.2708C36.4032 82.0128 36.2793 81.3782 36.883 80.8571L43.9461 74.7588C44.2223 74.5097 44.5937 74.3937 44.9627 74.4413C45.3316 74.4889 45.6614 74.6953 45.8653 75.0065L54.2182 87.1618Z" fill="#556195"/>
<path d="M66.1931 68.3045C66.7091 68.9081 66.4872 69.4653 65.6772 69.5479L47.7744 71.3949C47.4378 71.4654 47.0894 71.3473 46.8651 71.0865C46.6408 70.8257 46.5761 70.4635 46.6961 70.1412L51.1744 52.7131C51.3756 51.9443 51.9638 51.805 52.4797 52.4087L66.1931 68.3045Z" fill="#6ECCE0"/>
<path d="M79.0551 83.2356C79.3144 83.4415 79.4163 83.7882 79.3099 84.1017C79.2034 84.4153 78.9115 84.6282 78.5804 84.6337L60.3681 88.4619C59.589 88.627 59.2795 88.1988 59.6819 87.5075L68.2721 72.8189C68.4187 72.5049 68.721 72.2922 69.0661 72.2604C69.4112 72.2285 69.7473 72.3822 69.9489 72.6641L79.0551 83.2356Z" fill="#556195"/>
<path d="M49.7658 93.0382C48.9906 93.4063 48.0734 93.3002 47.4028 92.7648L38.9312 85.2993C38.3379 84.7834 38.4669 84.5512 39.2201 84.7834L53.6662 89.7002C54.4246 89.9581 54.4659 90.4792 53.7642 90.8559L49.7658 93.0382Z" fill="#556195"/>
<path d="M69.4023 93.7502C68.7032 94.2611 67.7843 94.3594 66.9929 94.0081L61.1165 91.0106C60.4045 90.6443 60.4612 90.216 61.2403 90.0509L76.9297 86.749C77.7088 86.5839 77.8429 86.8625 77.229 87.3681L69.4023 93.7502Z" fill="#556195"/>
<path d="M52.9697 94.1372C52.17 94.101 52.0978 93.7605 52.7994 93.3839L55.9569 91.671C56.7713 91.2858 57.7131 91.2745 58.5366 91.6401L63.149 93.9875C63.861 94.3487 63.7887 94.6118 62.9942 94.5757L52.9697 94.1372Z" fill="#556195"/>
<path d="M81.9856 86.6407C82.2487 86.9451 81.8927 87.5075 81.1911 87.8841L77.0327 90.1026C76.3258 90.4793 76.2536 90.3709 76.8727 89.8653L80.3811 86.9967C81.0002 86.4911 81.7225 86.3312 81.9856 86.6407Z" fill="#556195"/>
<path d="M71.4763 68.1188C70.7334 68.4129 70.2897 68.026 70.4909 67.2521L74.9021 50.0819C74.9284 49.7538 75.1544 49.4759 75.4703 49.3831C75.7862 49.2904 76.1265 49.4021 76.326 49.664L87.6765 60.2406C87.971 60.4244 88.1233 60.7695 88.0607 61.1109C87.9981 61.4524 87.7333 61.721 87.3927 61.7884L71.4763 68.1188Z" fill="#404A72"/>
<path d="M88.7287 57.6918C88.868 58.476 88.512 58.6772 87.929 58.1304L77.1409 48.0697C76.8637 47.8216 76.7087 47.4648 76.7166 47.0928C76.7245 46.7209 76.8946 46.371 77.1822 46.135L84.2659 40.0315C84.8695 39.5156 85.4835 39.7271 85.6228 40.5113L88.7287 57.6918Z" fill="#556195"/>
<path d="M81.8157 81.8529C81.7554 82.1761 81.5012 82.428 81.1775 82.4854C80.8538 82.5428 80.5285 82.3936 80.3608 82.1109L71.2597 71.5395C70.9992 71.3012 70.8887 70.9401 70.9713 70.5968C71.0539 70.2534 71.3165 69.9822 71.657 69.8885L87.4651 63.5683C88.2029 63.2742 88.5847 63.6406 88.3061 64.3887L81.8157 81.8529Z" fill="#556195"/>
<path d="M94.4765 52.2075C94.9065 52.9501 94.8765 53.8728 94.3991 54.5859L91.6595 58.2542C91.1849 58.8939 90.6793 58.7701 90.5348 57.991L87.8159 42.9517C87.6766 42.1675 87.9139 42.0746 88.3318 42.7401L94.4765 52.2075Z" fill="#556195"/>
<path d="M92.8047 71.7767C93.0344 72.6127 92.8003 73.5078 92.1907 74.1242L84.7252 80.8881C84.1319 81.404 83.8791 81.2492 84.1577 80.5063L89.7504 65.4772C90.0238 64.7291 90.4572 64.7343 90.71 65.4772L92.8047 71.7767Z" fill="#556195"/>
<path d="M93.9606 67.897C93.8781 68.6915 93.6046 68.7173 93.3518 67.964L91.7163 63.0524C91.4793 62.1888 91.628 61.2649 92.1239 60.5192L94.2702 57.6454C94.7448 57.0057 95.0698 57.1295 94.9873 57.924L93.9606 67.897Z" fill="#556195"/>
<path d="M84.6429 84.9072C84.1631 85.5521 83.5595 85.8204 83.2912 85.5108C83.0229 85.2012 83.2912 84.515 83.8845 83.963L87.2432 80.919C87.8314 80.4031 87.9294 80.4702 87.4548 81.1099L84.6429 84.9072Z" fill="#556195"/>
<path d="M72.4357 45.1496C72.6664 45.3836 72.7279 45.7361 72.5902 46.0345C72.4525 46.3329 72.1444 46.5147 71.8166 46.491L54.1769 48.3123C53.3824 48.3948 53.0625 47.8995 53.465 47.2133L62.1068 32.4319C62.234 32.1238 62.5293 31.9183 62.8624 31.9061C63.1955 31.8939 63.5051 32.0772 63.6546 32.3752L72.4357 45.1496Z" fill="#404A72"/>
<path d="M76.0785 44.8245C75.8023 45.0737 75.4309 45.1897 75.062 45.1421C74.693 45.0945 74.3632 44.888 74.1593 44.5769L65.7599 32.4216C65.3111 31.7612 65.5587 31.4361 66.312 31.6941L82.8218 37.3074C83.575 37.5654 83.6988 38.2 83.0952 38.7211L76.0785 44.8245Z" fill="#556195"/>
<path d="M68.8038 66.8702C68.6078 67.6441 68.0196 67.7783 67.4985 67.1746L53.8109 51.284C53.295 50.6803 53.5116 50.118 54.3268 50.0354L72.2244 48.1884C72.5619 48.1156 72.9122 48.2327 73.1379 48.4939C73.3637 48.7552 73.4289 49.1187 73.3079 49.4421L68.8038 66.8702Z" fill="#556195"/>
<path d="M51.7263 46.7645C51.582 47.0811 51.2792 47.2962 50.9328 47.3282C50.5863 47.3601 50.2493 47.2041 50.0495 46.9192L40.9485 36.353C40.6898 36.1476 40.5876 35.8023 40.6927 35.4892C40.7978 35.1761 41.0878 34.9625 41.418 34.9548L59.6303 31.1215C60.4145 30.9564 60.7241 31.3846 60.3217 32.0759L51.7263 46.7645Z" fill="#556195"/>
<path d="M66.3066 29.8625C65.5533 29.6045 65.512 29.0886 66.2137 28.7068L70.2483 26.5502C71.0234 26.1821 71.9406 26.2883 72.6112 26.8237L81.0622 34.2892C81.6607 34.8051 81.5317 35.0373 80.7784 34.8051L66.3066 29.8625Z" fill="#556195"/>
<path d="M43.0947 32.8343C42.3157 32.9994 42.1815 32.7415 42.8007 32.2255L50.5964 25.8332C51.2975 25.3224 52.2177 25.2241 53.0109 25.5752L58.9132 28.5779C59.6251 28.9391 59.5684 29.3673 58.7893 29.5324L43.0947 32.8343Z" fill="#556195"/>
<path d="M64.047 27.9123C63.2326 28.2975 62.2908 28.3088 61.4674 27.9433L56.824 25.5958C56.1533 25.2346 56.2204 24.9715 57.0201 25.0025L67.0343 25.4668C67.8236 25.5184 67.9062 25.8434 67.2045 26.2201L64.047 27.9123Z" fill="#556195"/>
<path d="M39.6229 32.5867C39.0038 33.1026 38.2815 33.2522 38.0183 32.9478C37.7552 32.6434 38.1112 32.0759 38.8129 31.7044L42.9713 29.4808C43.6729 29.1041 43.7452 29.2125 43.1312 29.7181L39.6229 32.5867Z" fill="#556195"/>
<path d="M34.2882 83.086C34.5926 82.8177 35.2839 83.086 35.836 83.6741L38.88 87.0328C39.3959 87.6262 39.3288 87.719 38.6891 87.2444L34.9021 84.4325C34.2418 83.9579 33.9735 83.3491 34.2882 83.086Z" fill="#556195"/>
<path d="M86.846 37.8079C87.1556 37.5396 87.7179 37.9008 88.0894 38.6024L90.3131 42.7608C90.6845 43.4677 90.5814 43.5347 90.0757 42.9208L87.2072 39.4124C86.7016 38.7933 86.5416 38.071 86.846 37.8079Z" fill="#556195"/>
<path d="M85.1176 35.1508C85.7574 35.6254 86.0308 36.2342 85.7212 36.4974C85.4117 36.7605 84.7255 36.4974 84.1735 35.9092L81.1295 32.5505C80.6135 31.9572 80.6806 31.8643 81.3204 32.339L85.1176 35.1508Z" fill="#556195"/>
<path d="M32.797 80.171C33.3129 80.7901 33.4626 81.5124 33.153 81.7755C32.8434 82.0386 32.2862 81.6826 31.9096 80.981L29.6911 76.8226C29.3145 76.1157 29.4228 76.0487 29.9284 76.6626L32.797 80.171Z" fill="#556195"/>
</svg>
