<svg width="120" height="120" viewBox="0 0 120 120" fill="none" xmlns="http://www.w3.org/2000/svg">
<circle cx="60" cy="60" r="60" fill="#EDF0F4"/>
<path d="M41.3869 31.8363C40.1109 33.9842 37.335 34.6922 35.1871 33.4162C33.0392 32.1402 32.3312 29.3643 33.6072 27.2164C34.8831 25.0685 37.659 24.3605 39.807 25.6365C41.9549 26.9124 42.6629 29.6883 41.3869 31.8363Z" fill="#5F45BA"/>
<path d="M25.9434 29.8284C25.0434 31.3443 23.0795 31.8443 21.5636 30.9443C20.0476 30.0443 19.5476 28.0844 20.4476 26.5645C21.3476 25.0445 23.3115 24.5485 24.8274 25.4485C26.3474 26.3525 26.8474 28.3124 25.9434 29.8284Z" fill="#5F45BA"/>
<path d="M68.934 95.3062C85.5095 93.3583 98.841 79.8067 99.929 62.5593C101.153 43.1519 86.4094 26.4284 67.0021 25.2085C64.7261 25.0645 62.4422 25.1445 60.1823 25.4405C55.5184 25.8205 51.5786 27.6004 51.5786 27.6004C48.3867 29.1604 46.3267 31.7683 46.3267 35.2562C46.3267 39.792 50.0026 43.4719 54.5385 43.4719C55.2984 43.4719 57.9224 42.6399 58.5463 42.4239C60.9303 41.592 63.4582 41.248 65.9781 41.412C72.6819 41.8359 78.3497 45.6918 81.3856 51.1596C83.1455 54.3275 83.9575 57.9314 83.7255 61.5473C83.0655 72.007 74.0538 79.9547 63.5902 79.2947C57.4104 78.9027 52.1106 75.5948 48.9387 70.799V70.803V70.799C45.1468 65.8392 46.0228 57.9074 46.0188 57.8074C45.8628 53.3956 42.2509 49.8677 37.803 49.8677C34.0031 49.8677 30.8153 52.4476 29.8673 55.9475C29.6833 56.6355 29.5873 58.6514 29.6153 58.9194C28.8313 77.9908 43.4268 94.2822 62.5702 95.4862C64.6941 95.6182 66.8221 95.5582 68.934 95.3062Z" fill="#5F45BA"/>
<path d="M36.6751 44.3959C35.0191 47.1838 31.4192 48.0997 28.6353 46.4438C25.8514 44.7879 24.9314 41.188 26.5874 38.4041C28.2433 35.6202 31.8432 34.7002 34.6271 36.3561C37.411 38.0121 38.327 41.612 36.6751 44.3959Z" fill="#5F45BA"/>
</svg>
