<svg width="120" height="120" viewBox="0 0 120 120" fill="none" xmlns="http://www.w3.org/2000/svg">
<circle cx="60" cy="60" r="60" fill="#663300"/>
<path d="M44.2612 37.5315L48.9336 26L80.9375 26.1167C85.6098 26.4706 91.2167 26.4706 94.3714 30.4725C98.1093 34.8246 97.2907 41.059 95.4218 45.9984C91.7587 56.8082 82.7758 64.92 71.7086 67.4124C64.0011 68.5907 56.1739 68.2368 48.3467 68.2368C49.9055 64.4081 51.4642 60.5643 53.0191 56.7054C59.4446 56.7054 65.9859 57.0593 72.5272 56.0014C78.4854 54.4729 83.9764 48.4719 83.0419 41.8835C82.455 39.06 79.304 37.7649 76.6127 37.7649C65.87 37.2943 55.1198 37.7649 44.3771 37.5277H44.2612L44.2612 37.5315Z" fill="white"/>
<path fill-rule="evenodd" clip-rule="evenodd" d="M68.4378 40.7051H30.4758V40.7088V40.8218L25.3324 53.765H63.4179L68.4378 40.7051ZM49.7484 56.7053H36.6657L23 91.9999H35.9705L49.7484 56.7053Z" fill="white"/>
</svg>
