<svg width="120" height="120" viewBox="0 0 120 120" fill="none" xmlns="http://www.w3.org/2000/svg">
<path fill-rule="evenodd" clip-rule="evenodd" d="M60 120C27 120 0 93.0006 0 59.7012C0.3 26.7019 27 -0.297518 60.3 0.00247602C93.3 0.30247 120 27.0019 120 60.6012C119.7 93.3006 93 120 60 120Z" fill="black"/>
<path fill-rule="evenodd" clip-rule="evenodd" d="M36.2099 31.2846C36.0284 31.3128 35.825 31.4385 35.7578 31.5636C35.6252 31.8114 35.5733 100.007 35.7056 100.351C35.8469 100.72 36.2486 100.74 43.9646 100.774C50.8487 100.804 51.7823 100.787 52.0346 100.621L52.3199 100.435V88.4319V76.4292L52.5974 76.1517L52.8749 75.8742L59.3474 75.8091C66.0665 75.7416 68.5106 75.5769 70.6199 75.0492C71.0159 74.9502 71.7656 74.7906 72.2858 74.6946C72.8063 74.5983 73.4066 74.4117 73.6202 74.28C73.8335 74.148 74.0969 74.04 74.2052 74.04C74.6561 74.04 78.6029 72.1749 79.3001 71.6325C79.4759 71.4957 80.0192 71.0916 80.507 70.7349C82.2644 69.4494 85.7999 65.5161 85.7999 64.8462C85.7999 64.8081 85.9007 64.6338 86.0243 64.4586C86.1476 64.2834 86.2871 64.005 86.3342 63.84C86.3813 63.675 86.5445 63.27 86.6972 62.94C87.4391 61.3356 87.5999 60.9342 87.6005 60.6873C87.6008 60.5403 87.7343 60.042 87.8972 59.58C88.841 56.9055 88.7642 50.4681 87.7451 46.8C87.2399 44.9826 86.0204 42.1614 85.4084 41.3946C85.2608 41.2098 84.8429 40.6407 84.4799 40.1301C84.1169 39.6195 83.4959 38.8527 83.0999 38.4264C81.0113 36.1776 77.2682 33.8397 74.5043 33.0582C74.1986 32.9718 73.7765 32.8119 73.5659 32.703C73.3556 32.5944 72.7685 32.4267 72.2615 32.3307C71.7548 32.2344 71.096 32.0757 70.7978 31.9776C70.4996 31.8795 69.6626 31.7427 68.9378 31.6737C68.213 31.6044 67.1339 31.4874 66.5399 31.4136C65.4968 31.2837 36.9941 31.1625 36.2099 31.2846ZM65.3186 45.0657C70.5692 46.2627 73.1798 52.2144 70.8455 57.6666C69.1244 61.686 66.8762 62.52 57.7622 62.52H52.8173L52.5662 62.2008C52.2455 61.7928 52.2248 45.3438 52.5446 44.9583C52.8608 44.5776 63.572 44.6676 65.3186 45.0657Z" fill="#F8F8F8"/>
<path fill-rule="evenodd" clip-rule="evenodd" d="M36.4101 13.677C36.2727 13.7322 36.0162 13.9485 35.8401 14.1579L35.52 14.5383V19.0215C35.52 23.9073 35.5362 24.0387 36.1755 24.3057C36.7548 24.5478 87.1665 24.5529 87.84 24.3108C88.5531 24.0546 88.5564 24.0315 88.5582 19.044C88.5603 14.0559 88.5453 13.9437 87.8457 13.7001C87.4038 13.5459 36.7926 13.5231 36.4101 13.677Z" fill="#DE0B14"/>
</svg>
