<svg width="120" height="120" viewBox="0 0 120 120" fill="none" xmlns="http://www.w3.org/2000/svg">
<circle cx="60" cy="60" r="60" fill="#ED79AA"/>
<path opacity="0.5" fill-rule="evenodd" clip-rule="evenodd" d="M80.94 40.045L87.9999 32.9838C80.9972 25.9488 71.4493 21.993 61.4894 22C40.7853 22 24.0001 38.7888 24.0001 59.5C23.9814 68.9387 27.5458 78.0374 33.9821 84.9812V58.2738H34.0123C34.6466 43.6488 46.7088 31.9863 61.4894 31.9863C68.7969 31.9812 75.8021 34.8835 80.94 40.045ZM62.101 97C71.8485 96.8467 81.1469 92.9032 87.9999 86.0162L80.94 78.9587C75.9509 83.9702 69.1949 86.8575 62.101 87.01V97Z" fill="white"/>
<path fill-rule="evenodd" clip-rule="evenodd" d="M43.5605 58.2775V92.44V92.4437C46.4462 94.0179 49.5301 95.2033 52.7309 95.9687V75.3025C55.5693 76.9698 58.8075 77.8467 62.1051 77.8412C72.3401 77.8412 80.6421 69.5387 80.6421 59.2975C80.6421 49.0525 72.3401 40.75 62.1013 40.75C52.2023 40.75 44.1155 48.5087 43.587 58.2775H43.5605ZM68.7438 65.914C66.9856 67.6722 64.5962 68.6646 62.1013 68.6725C56.9253 68.6725 52.7309 64.4725 52.7309 59.2975C52.7219 56.82 53.704 54.4405 55.4613 52.6823C57.2186 50.9242 59.6071 49.9314 62.1013 49.9225C67.2773 49.9225 71.4755 54.1187 71.4755 59.2975C71.4846 61.7756 70.5019 64.1557 68.7438 65.914Z" fill="white"/>
</svg>
