<svg width="120" height="120" viewBox="0 0 120 120" fill="none" xmlns="http://www.w3.org/2000/svg">
<circle cx="60" cy="60" r="60" fill="#EDF0F4"/>
<path d="M105 60C105 84.8562 84.8562 105 60 105C35.1438 105 15 84.8562 15 60C15 35.1438 35.1438 15 60 15C84.8562 15 105 35.1438 105 60Z" fill="#393534"/>
<path d="M99.7665 60.3862C99.7665 82.133 82.1334 99.766 60.3867 99.766C38.6399 99.766 21.0068 82.133 21.0068 60.3862C21.0068 38.6394 38.6399 21.0063 60.3867 21.0063C82.1334 21.0063 99.7665 38.6394 99.7665 60.3862Z" fill="#F2F2F2"/>
<path d="M75.2843 49.0464L47.0096 77.9584L46.3916 66.3125L63.4452 49.0464L70.5139 41.7074L75.0912 40.2009L78.4131 41.07L81.5225 43.658L77.7757 47.9649L75.2843 49.0464Z" fill="white"/>
<path d="M77.8512 49.8552L72.1924 55.6879H80.7675L81.7332 54.7029C82.4091 54.0076 82.9499 53.1578 83.3168 52.2501C83.6838 51.3231 83.8576 50.3381 83.8576 49.3531C83.8576 47.3831 83.1237 45.5098 81.8104 44.0806L77.9091 48.1364C78.1216 48.3681 78.2181 48.6964 78.2181 49.0055C78.1988 49.3145 78.0636 49.6235 77.8512 49.8552Z" fill="#E1DED9"/>
<path d="M54.5993 74.4014L49.9834 79.1911H58.5585L63.213 74.4014H54.5993Z" fill="#E1DED9"/>
<path d="M56.918 71.9723H65.4931L70.6111 66.6611H62.036L56.918 71.9723Z" fill="#E1DED9"/>
<path d="M78.4302 58.5496H69.8551L64.3701 64.2084H72.9452L78.4302 58.5496Z" fill="#E1DED9"/>
<path fill-rule="evenodd" clip-rule="evenodd" d="M78.1544 39.8177C79.3132 40.3198 80.3754 41.0537 81.2638 41.9808C82.1522 42.9078 82.8668 43.9893 83.311 45.2447C83.7938 46.4421 84.0449 47.7361 84.0256 49.0494C84.0449 51.676 83.0406 54.2061 81.2445 56.0795L81.2059 56.1181L59.1308 78.9851C59.0342 79.1009 58.899 79.2168 58.7638 79.2748C58.6093 79.352 58.4548 79.3713 58.3003 79.3713H46.9441L42.4054 84.0645H39.0449L45.1672 77.6717V65.852C45.1479 65.5237 45.2831 65.1954 45.4956 64.9443L67.7059 42.0001C68.5943 41.073 69.6565 40.3198 70.8153 39.8177C71.9741 39.3155 73.2295 39.0645 74.4848 39.0645C75.7402 39.0645 76.9956 39.3155 78.1544 39.8177ZM69.3282 43.661L68.3625 44.646V53.6653L74.0599 47.7554C74.2724 47.543 74.5814 47.4078 74.8904 47.4078C75.1994 47.4078 75.5084 47.5237 75.7209 47.7554C75.7209 47.7941 75.7209 47.7941 75.7595 47.8327C75.972 48.0645 76.0685 48.3735 76.0685 48.6825C76.0685 48.9915 75.9333 49.3005 75.7209 49.513L70.1007 55.3456H78.6758L79.6415 54.3606C80.9934 52.9507 81.7466 51.058 81.766 49.0687C81.766 47.0795 81.032 45.1675 79.7187 43.7383C79.6949 43.7383 79.6857 43.7235 79.6731 43.7031C79.6654 43.6905 79.6562 43.6758 79.6415 43.661C78.2702 42.2511 76.4162 41.4593 74.4848 41.4593C72.5535 41.4593 70.6994 42.2511 69.3282 43.661ZM49.281 76.9185L53.8969 72.1288H62.472L57.8561 76.9185H49.281ZM68.2273 57.2576L62.7423 62.955H71.3175L76.8024 57.2576H68.2273ZM69.4441 64.8863L64.326 70.1975H55.7509L60.869 64.8863H69.4441ZM66.4891 46.558L61.0041 52.2554V61.2748L66.4891 55.5773V46.558ZM54.0127 59.4979L59.1308 54.1868V63.2061L54.0127 68.5172V59.4979ZM52.178 61.4486L47.4848 66.2769V75.2962L52.178 70.4679V61.4486Z" fill="#393534"/>
</svg>
