<svg width="120" height="120" viewBox="0 0 120 120" fill="none" xmlns="http://www.w3.org/2000/svg">
<circle cx="60" cy="60" r="60" fill="#EDF0F4"/>
<path d="M36.5365 46.3137H66.5431C71.0338 46.3137 74.6872 49.9671 74.6872 54.4577C74.6872 58.9484 71.0338 62.6018 66.5431 62.6018H50.3068C49.0262 62.6018 47.9881 63.6399 47.9881 64.9205C47.9881 66.2011 49.0262 67.2392 50.3068 67.2392H66.5425C73.5901 67.2392 79.324 61.5062 79.324 54.4577C79.324 47.4093 73.5901 41.6763 66.5425 41.6763H36.5365C35.2559 41.6763 34.2178 42.7144 34.2178 43.995C34.2178 45.2756 35.2559 46.3137 36.5365 46.3137Z" fill="#8500FF"/>
<path d="M66.5429 31H54.9043C53.6237 31 52.5856 32.0381 52.5856 33.3187C52.5856 34.5993 53.6237 35.6374 54.9043 35.6374H66.5429C76.9206 35.6374 85.3626 44.0801 85.3626 54.4577C85.3626 64.8354 76.92 73.2783 66.5423 73.2783H36.9796C36.1451 73.2688 35.3698 73.7086 34.9498 74.4298C34.5298 75.151 34.5298 76.0422 34.9498 76.7634C35.3698 77.4846 36.1451 77.9244 36.9796 77.9149H66.5423C79.4769 77.9149 90.0001 67.392 90.0001 54.4571C90.0001 41.5223 79.4778 31 66.5429 31Z" fill="#8500FF"/>
<path fill-rule="evenodd" clip-rule="evenodd" d="M50.7811 52.1389C52.0611 52.1404 53.0983 53.1777 53.0998 54.4576C53.0998 55.8227 51.9636 56.7763 50.336 56.7763H44.6857C43.837 56.7763 42.8115 55.7421 42.8115 54.4576C42.813 53.1777 43.8502 52.1404 45.1302 52.1389H50.7811ZM32.3451 83.9551H45.7602C46.5949 83.9456 47.3702 84.3854 47.7903 85.1067C48.2104 85.828 48.2104 86.7194 47.7903 87.4406C47.3702 88.1619 46.5949 88.6017 45.7602 88.5922H32.3451C31.5105 88.6017 30.7351 88.1619 30.3151 87.4406C29.895 86.7194 29.895 85.828 30.3151 85.1067C30.7351 84.3854 31.5105 83.9456 32.3451 83.9551Z" fill="#8500FF"/>
</svg>
