<svg width="120" height="120" viewBox="0 0 120 120" fill="none" xmlns="http://www.w3.org/2000/svg">
<circle cx="60" cy="60" r="60" fill="#EDF0F4"/>
<path d="M88.009 42.8741L84.7191 40.4831L92.4135 36.6L88.009 42.8741Z" fill="#3F4B80"/>
<path d="M68.4495 35L78.0315 39.9258L79.182 47.8719L68.4495 35Z" fill="#313A62"/>
<path d="M79.182 47.8719L77.654 54.6315L68.4495 35L79.182 47.8719Z" fill="#3F4B80"/>
<path d="M77.6539 54.6315L62.9843 36.1147L68.4674 35.036L77.6539 54.6315Z" fill="#4B5897"/>
<path d="M77.6539 54.6315L61.7438 48.4113L62.9843 36.1146L77.6539 54.6315Z" fill="#5161A4"/>
<path d="M62.9843 36.1146L61.7438 48.4113L45.3483 50.7124L62.9843 36.1146Z" fill="#4B5897"/>
<path d="M77.6539 54.6315L60.1078 59.3955L61.7438 48.4113L77.6539 54.6315Z" fill="#4B5897"/>
<path d="M60.1078 59.3955L77.6539 54.6315L69.7438 58.3169L60.1078 59.3955Z" fill="#3F4B80"/>
<path d="M50.418 61.0494L60.1079 59.3955L60.2697 62.7034L50.418 61.0494Z" fill="#3F4B80"/>
<path d="M60.2696 62.7034L60.1078 59.3955L69.7438 58.3169L60.2696 62.7034Z" fill="#313A62"/>
<path d="M45.3483 50.7124L61.7438 48.4113L60.1079 59.3955L45.3483 50.7124Z" fill="#3F4B80"/>
<path d="M45.3483 50.7124L60.1079 59.3955L50.418 61.0495L45.3483 50.7124Z" fill="#4B5897"/>
<path d="M45.3483 50.7124L50.418 61.0495L45.5281 64.627L45.3483 50.7124Z" fill="#313A62"/>
<path d="M37.0247 53.4989L38.9843 65.2742L33.591 57.1663L37.0247 53.4989Z" fill="#5161A4"/>
<path d="M27.3708 57.2382L33.591 57.1663L33.627 60.9595L27.3708 57.2382Z" fill="#313A62"/>
<path d="M27.8742 59.8089L27.3708 57.2382L33.627 60.9595L27.8742 59.8089Z" fill="#3F4B80"/>
<path d="M27.8742 59.8089L24.3146 62.955L27.3708 57.2382L27.8742 59.8089Z" fill="#4B5897"/>
<path d="M24.3146 62.9551L24.0629 64.8607L20 64.1955L24.3146 62.9551Z" fill="#313A62"/>
<path d="M24.3146 62.955L27.8742 59.809L24.0629 64.8606L24.3146 62.955Z" fill="#5161A4"/>
<path d="M33.591 57.1663L38.9843 65.2741L33.627 66.3348L33.591 57.1663Z" fill="#3F4B80"/>
<path d="M35.1731 72.3752L31.2719 80.4472L30.6967 74.2269L35.1731 72.3752Z" fill="#3F4B80"/>
<path d="M30.6966 74.2269L31.2719 80.4472L29.0247 81.5258L30.6966 74.2269Z" fill="#1F243E"/>
<path d="M31.2719 80.4471L31.8652 83.4853L27.227 84.4382L31.2719 80.4471Z" fill="#3F4B80"/>
<path d="M29.0247 81.5258L31.2719 80.4471L27.227 84.4382L29.0247 81.5258Z" fill="#313A62"/>
<path d="M33.627 66.3348L38.9843 65.2742L30.6967 74.227L33.627 66.3348Z" fill="#313A62"/>
<path d="M38.9843 65.2742L42.6337 69.427L30.6967 74.227L38.9843 65.2742Z" fill="#4B5897"/>
<path d="M37.0247 53.4989L45.3483 50.7124L38.9843 65.2742L37.0247 53.4989Z" fill="#4B5897"/>
<path d="M38.9843 65.2742L45.3483 50.7124L45.5281 64.627L38.9843 65.2742Z" fill="#3F4B80"/>
<path d="M42.6337 69.427L38.9843 65.2741L45.5281 64.627L42.6337 69.427Z" fill="#313A62"/>
<path d="M69.7438 58.3169L77.4562 58.2629L72.5304 65.7775L69.7438 58.3169Z" fill="#4B5897"/>
<path d="M69.7438 58.3169L77.6539 54.6315L77.4562 58.2629L69.7438 58.3169Z" fill="#5161A4"/>
<path d="M68.2337 64.9686L69.7438 58.3169L72.5303 65.7776L68.2337 64.9686Z" fill="#3F4B80"/>
<path d="M66.382 68.4561L68.2337 64.9685L72.5303 65.7775L66.382 68.4561Z" fill="#4B5897"/>
<path d="M62.6427 70.955L63.8112 65.2382L68.2337 64.9685L62.6427 70.955Z" fill="#3F4B80"/>
<path d="M62.6427 70.955L68.2337 64.9685L66.382 68.4561L62.6427 70.955Z" fill="#313A62"/>
<path d="M84.7191 40.4831L92.0539 35.3416L92.4135 36.6L84.7191 40.4831Z" fill="#495692"/>
<path d="M92.054 35.3416L98.0584 35.036L92.4135 36.6001L92.054 35.3416Z" fill="#5D6CAC"/>
<path d="M88.2067 47.0809L84.8629 44.7258L96.1708 44.7438L88.2067 47.0809Z" fill="#4F60A3"/>
<path d="M84.8629 44.7258L94.5888 43.4674L96.1708 44.7438L84.8629 44.7258Z" fill="#495692"/>
<path d="M94.5887 43.4674L99.0472 39.5663L96.1708 44.7438L94.5887 43.4674Z" fill="#3F4B80"/>
<path d="M96.1708 44.7438L99.0472 39.5663L100 40.0157L96.1708 44.7438Z" fill="#4F60A3"/>
<path d="M99.0472 39.5663L99.8382 37.3191L100 40.0157L99.0472 39.5663Z" fill="#313A62"/>
<path d="M79.182 47.8719L80.2607 57.3281L77.6539 54.6315L79.182 47.8719Z" fill="#313A62"/>
<path d="M80.2607 57.3281L79.182 47.8719L88.2067 47.0809L80.2607 57.3281Z" fill="#3F4B80"/>
<path d="M88.2067 47.081L79.182 47.872L78.0314 39.9259L88.2067 47.081Z" fill="#4B5897"/>
<path d="M88.009 42.8741L89.4652 44.1865L84.8629 44.7258L88.009 42.8741Z" fill="#313A62"/>
<path d="M78.0314 39.9259L88.009 42.8742L84.8629 44.7259L78.0314 39.9259Z" fill="#3F4B80"/>
<path d="M78.0314 39.9259L84.7191 40.4832L88.009 42.8742L78.0314 39.9259Z" fill="#313A62"/>
<path d="M87.7933 62.0382L88.2068 47.0809L91.8023 50.0113L87.7933 62.0382Z" fill="#3F4B80"/>
<path d="M87.7933 62.0382L88.2067 47.0809L80.2607 57.3281L87.7933 62.0382Z" fill="#495692"/>
<path d="M91.8022 50.0112L90.6517 46.2719L88.2067 47.0808L91.8022 50.0112Z" fill="#313A62"/>
<path d="M92.2877 59.9708L87.7933 62.0382L91.8023 50.0112L92.2877 59.9708Z" fill="#313A62"/>
</svg>
