<svg width="120" height="120" viewBox="0 0 120 120" fill="none" xmlns="http://www.w3.org/2000/svg">
<circle cx="60" cy="60" r="60" fill="#EDF0F4"/>
<path d="M99.0829 59.1487C96.852 56.9977 94.7426 54.7285 92.5117 52.5775C91.8566 52.0726 91.6264 51.1873 91.9556 50.4266C92.8729 47.32 93.6687 44.2134 94.5444 41.1068C94.7842 40.3494 94.6627 40.033 93.8285 39.8316C90.642 39.0358 87.4971 38.0802 84.2691 37.2812C83.3518 37.083 82.9938 36.6036 82.7957 35.7662C81.9999 32.6596 81.1241 29.633 80.3667 26.5264C80.127 25.6091 79.8489 25.4109 78.9316 25.689C75.8251 26.5647 72.6801 27.3605 69.5736 28.1596C69.0558 28.3194 68.5764 28.4376 68.1002 27.9614C65.5497 25.3374 62.881 22.8285 60.4136 20.0799C60.1324 20.0863 59.8511 20.0607 59.5762 20C59.5922 20.2109 59.4836 20.4155 59.2982 20.5178C56.9075 22.8669 54.5201 25.216 52.1678 27.6066C51.7171 28.1596 50.9564 28.3545 50.2949 28.0861C47.1883 27.2103 44.0817 26.4145 40.9751 25.5356C40.0994 25.2959 39.7414 25.4557 39.5017 26.373C38.7059 29.4795 37.7886 32.5861 36.9928 35.6927C36.9097 36.3447 36.4079 36.8657 35.7591 36.9679C32.6142 37.7638 29.546 38.6395 26.401 39.3969C25.3655 39.6367 25.0875 39.9946 25.4039 41.0685C26.3211 44.1367 27.0371 47.2817 27.9128 50.3882C28.194 51.0498 27.9991 51.8137 27.4334 52.2611C25.0843 54.5303 22.8119 56.8826 20.4627 59.1519C19.8267 59.7495 19.8651 60.1075 20.4627 60.7051C22.7735 62.9744 25.0044 65.2851 27.3119 67.5543C27.8808 67.9762 28.095 68.7305 27.8297 69.3857C26.954 72.4539 26.1965 75.5189 25.2792 78.5872C24.9596 79.661 25.1194 80.1021 26.2764 80.3802C29.383 81.1376 32.4097 82.0517 35.5162 82.8092C36.4335 83.0073 36.7915 83.4867 36.9896 84.3241C37.7854 87.469 38.6612 90.5373 39.4602 93.6822C39.6583 94.478 39.9396 94.6794 40.7354 94.4397C43.8036 93.5639 46.907 92.848 49.9753 91.9691C50.7903 91.6623 51.7107 91.9212 52.2445 92.6051C54.4338 94.8743 56.6646 97.0668 58.8571 99.336C59.5347 100.052 59.931 100.094 60.6501 99.3744C62.8394 97.0636 65.1502 94.8743 67.3811 92.5636C67.8828 91.902 68.7618 91.6591 69.532 91.9659C72.6002 92.8832 75.6653 93.6375 78.7335 94.5164C79.6092 94.7561 79.9672 94.5963 80.2069 93.679C80.9643 90.6108 81.92 87.5457 82.6774 84.4775C82.8756 83.5602 83.3135 83.2023 84.1924 83.0041C87.299 82.2467 90.3256 81.3709 93.4322 80.6135C94.3495 80.4153 94.6275 80.0574 94.3495 79.0985C93.4738 75.992 92.6779 72.8055 91.799 69.6605C91.5178 68.9989 91.7127 68.2351 92.2784 67.7876C94.5476 65.5983 96.7785 63.2876 99.0893 61.0983C99.9202 60.3056 99.8403 59.9061 99.0829 59.1487Z" fill="#05BCA9"/>
<path d="M40.0192 57.3588C40.0192 57.362 40.0192 57.3652 40.0192 57.3684C40.0064 58.7204 38.9006 59.8038 37.5486 59.791H35.0781C34.0426 59.791 33.007 59.791 31.9331 59.8294C31.377 59.8294 31.2172 59.6312 31.3355 59.0719C31.6135 57.9181 31.8916 57.0009 33.4065 56.7612C35.3593 56.4831 37.229 55.8055 39.1403 55.2462C39.8179 55.0864 40.0959 55.1663 40.016 55.8822C39.9808 56.3617 40.0192 56.8794 40.0192 57.3588Z" fill="#EDF0F4"/>
<path d="M39.9008 79.0889C38.258 77.542 36.7878 76.1134 35.2793 74.6847C36.5545 73.9688 37.7882 73.2912 38.9835 72.5753C39.6611 72.1758 39.9008 72.2557 39.9008 73.0931C39.8625 75.0363 39.9008 77.0242 39.9008 79.0889Z" fill="#EDF0F4"/>
<path d="M35.4813 73.8474C35.0019 74.1255 34.8836 74.0072 34.7654 73.5278C34.4074 72.0928 33.9696 70.661 33.6116 69.2259C33.5317 68.9063 33.4934 68.51 33.8098 68.3086C34.1294 68.1105 34.3659 68.3885 34.6056 68.5068C36.2388 69.4241 37.872 70.3797 39.7449 71.4152C38.2299 72.2526 36.8332 73.0101 35.4813 73.8474Z" fill="#EDF0F4"/>
<path d="M32.4546 52.4976C32.0551 53.4948 30.6616 53.6514 29.7476 54.2906C28.8303 51.9415 28.8303 51.9415 30.4251 50.3083C31.5406 49.1929 32.656 48.119 33.7714 47.0036C33.8737 46.9396 33.9792 46.8885 34.091 46.8438C33.5285 48.8349 33.1705 50.7462 32.4546 52.4976Z" fill="#EDF0F4"/>
<path d="M34.8419 46.4059C34.9218 46.0479 35.1999 46.1278 35.398 46.2461C36.7532 47.0419 38.0667 47.8377 39.5785 48.7166C37.4275 49.9503 35.4747 51.0658 33.2471 52.2611C33.8064 50.1485 34.3241 48.2756 34.8419 46.4059Z" fill="#EDF0F4"/>
<path d="M30.661 56.8794C30.2231 56.8794 30.2231 56.4415 30.1432 56.1635C29.7054 54.8499 29.7853 54.77 32.1759 53.7728C31.9522 54.6901 31.7381 55.4444 31.5559 56.1635C31.4952 56.6013 31.102 56.9178 30.661 56.8794Z" fill="#EDF0F4"/>
<path d="M28.2712 57.5571C26.7563 57.9566 25.2445 58.3145 23.7296 58.6725L23.6113 58.5127L29.1086 55.2878C30.0258 57.0009 29.9843 57.1192 28.2712 57.5571Z" fill="#EDF0F4"/>
<path d="M29.4275 57.8767C30.463 57.637 30.1434 58.714 30.3447 59.1519C30.5429 59.5898 30.2648 59.7879 29.7886 59.7879H23.2942C23.2942 59.708 23.2559 59.5898 23.2559 59.5099C25.2854 58.9921 27.3149 58.3944 29.4275 57.8767Z" fill="#EDF0F4"/>
<path d="M30.9873 61.6448C31.3836 63.1501 31.78 64.6555 32.2306 66.2791C29.2103 64.8089 29.6002 65.6367 30.9873 61.6448Z" fill="#EDF0F4"/>
<path d="M29.9614 65.9212C30.9586 65.8828 32.7484 67.5544 32.7484 68.4716C32.4927 69.1492 31.9525 69.7852 31.4348 70.5043C31.3964 70.5043 31.3549 70.5427 31.3165 70.5427C30.917 70.6226 28.9674 68.2319 29.0473 67.7941C29.0857 67.7142 29.0857 67.6343 29.1272 67.5544C29.4021 66.9951 29.0857 65.9595 29.9614 65.9212Z" fill="#EDF0F4"/>
<path d="M30.8376 72.4922C31.2371 71.8945 31.5152 71.6548 32.0713 72.3324C32.5858 72.9205 33.1292 73.4766 33.7045 74.0039C33.9026 74.2436 34.3021 74.4418 33.7844 74.7614C31.5152 76.0366 29.2044 77.3502 26.9352 78.6255C26.8713 78.5679 26.8201 78.5008 26.7754 78.4273C28.1113 76.4361 29.4665 74.4834 30.8376 72.4922Z" fill="#EDF0F4"/>
<path d="M33.0523 69.4656C33.4103 70.7408 33.7299 72.016 34.0879 73.368C31.499 71.5366 31.4191 71.2969 33.0523 69.4656Z" fill="#EDF0F4"/>
<path d="M34.0077 66.7169C33.5698 67.3945 33.0904 67.1164 32.9338 66.5571C32.3777 64.6459 31.8599 62.7346 31.3805 60.8234C31.1824 60.1873 31.7385 60.344 32.0581 60.344H38.3895C36.833 62.6164 35.4395 64.6874 34.0077 66.7169Z" fill="#EDF0F4"/>
<path d="M39.6614 54.5303C37.2324 55.1663 34.8034 55.8055 32.2529 56.4831C32.4127 54.1723 33.2086 52.6606 35.3212 51.8232C36.9128 51.1872 38.3478 50.1517 40.0609 49.196V53.9742C40.0961 54.2331 39.9235 54.4791 39.6614 54.5303Z" fill="#EDF0F4"/>
<path d="M40.0191 42.3022V48.2373C38.5457 47.3999 37.2321 46.6041 35.9569 45.8466C35.5191 45.6069 35.4008 45.3672 35.8387 44.9293C36.9125 43.8938 37.9481 42.8583 38.9836 41.7844C39.1786 41.4999 39.5493 41.4009 39.8593 41.5447C40.1789 41.6661 40.0191 42.0241 40.0191 42.3022Z" fill="#EDF0F4"/>
<path d="M35.5996 43.9353C35.9991 41.1068 36.1973 40.9087 38.2683 41.5447C37.3511 42.382 36.437 43.1779 35.5996 43.9353Z" fill="#EDF0F4"/>
<path d="M39.7027 28.6038C39.7826 28.6421 39.9009 28.6421 39.9808 28.6837V33.9795C39.9808 36.1689 39.9808 36.1689 37.5518 36.4885C38.2677 33.8197 38.9836 31.1926 39.7027 28.6038Z" fill="#EDF0F4"/>
<path d="M37.0732 38.1218C37.233 37.0862 38.0288 37.2045 38.7064 36.9264C39.8601 36.447 40.0998 36.9648 39.9816 37.962V38.4414C39.9816 40.5923 38.9077 41.3881 36.9134 40.6722C36.6737 40.5923 36.5138 40.5124 36.5554 40.2727C36.7152 39.5536 36.9549 38.8377 37.0732 38.1218Z" fill="#EDF0F4"/>
<path d="M27.9131 39.7549C30.7576 39.039 33.6085 38.2815 36.5968 37.524C36.3571 38.4797 36.1589 39.2371 35.9608 40.033C35.801 40.669 35.3248 40.5507 34.8869 40.5124C32.5762 40.3142 30.227 40.1544 27.8779 39.9563C27.9067 39.8923 27.9195 39.822 27.9131 39.7549Z" fill="#EDF0F4"/>
<path d="M34.9221 41.1069C35.4782 41.1452 35.5996 41.3466 35.4782 41.9027C34.7623 45.1691 34.8006 45.1691 31.9721 43.4943C30.4987 42.6186 28.9838 41.7429 27.3506 40.7873C30.0257 40.5508 32.4931 40.9886 34.9221 41.1069Z" fill="#EDF0F4"/>
<path d="M26.2791 41.3083C26.2408 41.19 26.2408 41.1101 26.1992 40.9886C26.3175 40.9886 26.3974 41.027 26.5188 41.027C28.9095 42.4205 31.3385 43.8555 33.8059 45.249C34.0456 45.4088 34.4035 45.4887 34.004 45.9266C32.3708 47.5981 30.7792 49.3112 29.1843 51.0243C29.0309 50.9732 28.8839 50.9092 28.7465 50.8262C27.9123 47.6397 27.1165 44.4947 26.2791 41.3083Z" fill="#EDF0F4"/>
<path d="M28.3506 52.3794C28.4688 52.4976 28.5903 52.5392 28.5903 52.5776C29.1464 54.6103 29.1464 54.6103 27.315 55.6458C25.9599 56.4416 24.5664 57.1991 23.0547 58.0364C24.886 56.0421 26.5991 54.2107 28.3506 52.3794Z" fill="#EDF0F4"/>
<path d="M21.9007 60.344C24.4511 60.344 26.96 60.344 29.5073 60.3057C30.1849 60.3057 30.4629 60.4239 30.1849 61.2229C29.7854 62.2968 29.8269 64.0099 29.111 64.3679C28.2736 64.8057 27.1198 63.4921 26.1227 62.9744C24.6876 62.2169 23.2941 61.3412 21.8623 60.5454C21.8751 60.4783 21.8911 60.4111 21.9007 60.344Z" fill="#EDF0F4"/>
<path d="M22.8945 62.0987L22.9329 62.0603C24.9656 62.8178 26.717 64.093 28.5867 65.1285C29.1045 65.4066 28.9862 66.1257 28.2288 67.6374C26.4006 65.7997 24.5661 64.0483 22.8945 62.0987Z" fill="#EDF0F4"/>
<path d="M28.6285 69.146C28.7467 69.1843 28.8682 69.1843 28.9066 69.2259C30.9776 71.217 30.9776 71.217 29.3444 73.5662C28.4687 74.8414 27.5514 76.0751 26.6757 77.3088L26.4775 77.149L28.6285 69.146Z" fill="#EDF0F4"/>
<path d="M26.1992 79.7792C28.9862 78.1876 31.4951 76.7526 34.0456 75.3175C34.3652 75.1194 34.525 75.1577 34.6432 75.5572C35.2409 77.8264 35.8386 80.0573 36.5161 82.5662C32.9717 81.5722 29.7437 80.6965 26.1992 79.7792Z" fill="#EDF0F4"/>
<path d="M39.7987 91.4098C39.7188 91.4098 39.6389 91.4481 39.559 91.4481C38.8431 88.8593 38.1655 86.2705 37.4496 83.6018H37.4336C37.7117 83.5634 37.7916 83.5219 37.8874 83.5634C39.7987 84.0013 39.7987 84.0013 39.7987 85.9924V91.4098Z" fill="#EDF0F4"/>
<path d="M39.8628 83.2854C39.5848 83.3238 39.5432 83.3653 39.5432 83.3653C37.7918 83.2471 36.8361 82.3682 36.5964 80.5784C36.3567 79.0634 35.8805 77.6316 35.7207 76.0367C36.9959 77.312 38.3479 78.5073 39.5048 79.9008C40.339 80.8948 39.5432 82.1316 39.8628 83.2854Z" fill="#EDF0F4"/>
<path d="M40.0191 64.1697L39.9009 69.7469C39.9009 70.4628 39.7826 70.7824 39.0252 70.303C37.67 69.5071 36.3181 68.7113 34.9214 67.9922C34.3237 67.6726 34.3237 67.3945 34.6817 66.8768C36.0752 64.8856 37.4687 62.8945 38.8238 60.8618C38.9804 60.5102 39.3608 60.3121 39.7411 60.3824C40.2972 60.4623 40.0191 60.9001 40.0191 61.1782C40.0607 62.1754 40.0191 63.1725 40.0191 64.1697Z" fill="#EDF0F4"/>
<path d="M74.2716 45.3704C73.0763 44.5746 71.6029 44.255 71.0851 42.7017C70.8774 42.2575 70.8933 41.7397 71.1235 41.3082C72.159 39.5951 73.1562 37.882 74.1118 36.1689C74.5113 35.4914 74.7478 35.6128 75.2656 36.0507C76.1413 36.8082 76.4609 37.5656 76.0614 38.7194C75.387 40.9087 74.8693 43.1396 74.2716 45.3704Z" fill="#EDF0F4"/>
<path d="M79.2511 75.4007C79.2511 78.7054 79.2511 78.7054 75.9464 78.4273C74.3548 78.3091 72.7216 78.1493 71.1267 78.0278C70.7272 77.9895 70.4108 77.9479 70.2894 77.4717C70.1711 76.9923 70.609 76.954 70.887 76.7942C73.3959 75.4007 75.8665 74.0072 78.3339 72.5721C79.0913 72.1343 79.331 72.3324 79.2511 73.1698C79.2096 73.9273 79.2511 74.6432 79.2511 75.4007Z" fill="#EDF0F4"/>
<path d="M64.8719 85.4747C63.5167 84.4776 61.9634 83.7233 60.4102 82.806C61.8452 82.0102 63.1588 81.2527 64.5139 80.4569C64.7472 80.2779 65.0796 80.3131 65.2714 80.5368C67.0228 82.2883 68.8158 84.0429 70.6472 85.8742C70.4075 86.0724 70.3691 86.114 70.3691 86.114C68.4163 86.9897 66.6265 86.8299 64.8719 85.4747Z" fill="#EDF0F4"/>
<path d="M66.5052 87.1495C64.4342 87.6672 62.6028 88.185 60.7715 88.6644C60.3336 88.7826 60.1738 88.6644 60.1738 88.185V83.4069C62.3631 84.6789 64.3159 85.8327 66.5052 87.1495Z" fill="#EDF0F4"/>
<path d="M46.2742 85.1966C45.718 85.0368 45.9961 84.7172 46.1559 84.4392C47.1914 82.6462 48.2653 80.8532 49.3807 78.9036C50.5345 81.3326 51.6116 83.5634 52.6471 85.7943C53.0466 86.5901 52.6471 86.8682 52.0111 86.7116C50.0967 86.2737 48.1854 85.7144 46.2742 85.1966Z" fill="#EDF0F4"/>
<path d="M51.5315 87.2293C48.9043 88.9807 48.8244 88.9424 46.5137 85.8741C48.2236 86.3504 49.8184 86.7499 51.5315 87.2293Z" fill="#EDF0F4"/>
<path d="M45.4942 75.2792C45.5326 75.0811 45.654 74.8797 45.8937 75.0395C46.7311 75.5573 47.7251 75.797 48.3227 76.6727C48.9204 77.5484 49.1601 78.4242 48.4026 79.4597C47.495 80.7925 46.6832 82.1923 45.9736 83.6402C45.376 84.7939 44.8998 84.714 44.2222 83.8C43.9441 83.4004 43.3848 83.2023 43.5063 82.5663C44.1615 80.1405 44.8007 77.7082 45.4942 75.2792Z" fill="#EDF0F4"/>
<path d="M40.5788 37.2044C40.5724 37.1725 40.5661 37.1373 40.5661 37.1053C40.5309 36.6675 40.8601 36.2839 41.298 36.2488C42.1737 36.089 43.0494 35.8493 43.9251 35.6128C44.0306 35.5936 44.1393 35.5936 44.2447 35.6128C44.1712 35.6607 44.1137 35.731 44.0849 35.8109C42.9695 36.8848 41.8541 38.0002 40.5788 39.2371C40.5788 38.4796 40.6172 37.8436 40.5788 37.2044Z" fill="#EDF0F4"/>
<path d="M40.8571 39.9946C42.2922 38.4796 43.7656 37.0062 45.3572 35.373C46.5909 37.524 47.668 39.4353 48.9432 41.5862C46.1147 41.3881 43.5259 41.2282 40.9786 40.9502C40.2211 40.8703 40.5375 40.311 40.8571 39.9946Z" fill="#EDF0F4"/>
<path d="M54.4372 34.3792C55.9106 35.5329 57.6621 36.3703 59.4551 37.4058C58.02 38.2432 56.748 38.9591 55.4727 39.7166C55.1531 39.9148 54.9166 40.0362 54.597 39.7166C52.8456 37.9236 51.0526 36.1722 49.1797 34.2993C51.0941 33.5418 52.6858 33.024 54.4372 34.3792Z" fill="#EDF0F4"/>
<path d="M53.3633 33.1039C55.396 32.5478 57.1858 32.0683 59.0171 31.5889C59.455 31.4707 59.6947 31.509 59.6947 32.0683V36.8081C57.5437 35.5712 55.5526 34.3791 53.3633 33.1039Z" fill="#EDF0F4"/>
<path d="M58.1988 49.7906C57.7993 49.3112 57.1632 49.829 56.6838 49.9504C54.6927 50.4298 54.731 50.4682 53.6955 48.6752C52.8198 47.0835 51.9441 45.4887 50.9884 43.9354C50.6305 43.2994 50.6688 42.9798 51.3464 42.7017C51.7459 42.5419 52.1039 42.3438 52.4618 42.184C53.2992 41.826 54.0535 40.8704 54.8525 41.0302C55.7698 41.2283 56.3259 42.3054 57.0418 42.983C59.2567 45.2138 61.446 47.4831 63.7184 49.634C64.5749 50.4202 65.1023 51.5005 65.1918 52.6607C62.6189 52.2228 60.094 51.8233 57.6011 51.3471C57.6011 51.2672 57.5627 51.1873 57.6011 51.1074C57.7194 50.628 58.6366 50.3467 58.1988 49.7906Z" fill="#EDF0F4"/>
<path d="M40.617 44.7312L40.633 44.3317C40.633 41.5032 40.633 41.5032 43.3816 41.7045C45.1331 41.8228 46.9261 42.0242 48.6775 42.1424C49.077 42.1808 49.419 42.1808 49.5373 42.6602C49.6555 43.1396 49.2177 43.1779 48.9812 43.3377L41.4544 47.6396C40.6586 48.1191 40.5787 47.7579 40.617 47.0835C40.6586 46.2845 40.617 45.5302 40.617 44.7312Z" fill="#EDF0F4"/>
<path d="M43.1262 47.3999C45.2356 46.3644 47.1884 45.169 49.1796 43.9737C49.937 43.4943 50.2151 43.734 50.573 44.4116C51.5287 46.2429 52.5642 48.0359 53.6413 49.7874C54.0791 50.5033 53.9609 50.7046 53.1619 50.9028C49.3777 51.8584 45.5936 52.8939 41.8126 53.9295C40.9752 54.1692 40.6588 54.0893 40.7771 53.172C40.8154 52.6159 40.7771 52.0182 40.7771 51.1009C40.0995 49.2344 41.3364 48.2373 43.1262 47.3999Z" fill="#EDF0F4"/>
<path d="M40.6591 58.9505C40.6975 58.4327 40.7774 57.8766 40.7774 57.3588C40.8158 54.8499 40.8158 54.8499 43.1681 54.2139C46.2363 53.4181 49.3013 52.6223 52.3695 51.7433C53.6032 51.3854 54.7986 51.2256 56.1121 51.8616C54.4406 53.8527 52.8074 55.8439 51.2126 57.8351C50.6565 57.4355 50.893 56.4 50.2154 56.4799C49.6177 56.5598 49.7775 57.4355 49.5794 57.9533C49.4356 58.34 49.3301 58.7395 49.2598 59.1486C49.2598 59.1582 49.2566 59.171 49.2566 59.1806C49.1831 59.6312 48.758 59.9381 48.3041 59.8646C46.0349 59.8262 43.7625 59.7847 41.4933 59.8262C40.7774 59.8262 40.5792 59.5481 40.6591 58.9505Z" fill="#EDF0F4"/>
<path d="M49.141 33.5801C48.7351 33.7271 48.2845 33.5354 48.1055 33.1422C47.8274 32.7044 48.2653 32.5446 48.4635 32.3464C49.4191 31.3109 49.4606 31.3109 51.6499 32.9025C50.7327 33.1422 49.8985 33.302 49.141 33.5801Z" fill="#EDF0F4"/>
<path d="M48.2399 31.6306C47.7221 32.388 47.2427 32.4264 46.5683 31.6689C45.5711 30.5535 44.4589 29.518 43.3818 28.4441C43.4202 28.3642 43.4617 28.2459 43.5001 28.166C45.357 28.8819 46.9103 30.1572 48.5978 30.9945C48.6394 31.3493 48.3613 31.4292 48.2399 31.6306Z" fill="#EDF0F4"/>
<path d="M49.7392 35.7311C51.2542 37.2045 52.7276 38.6778 54.3607 40.2727C53.6161 40.7649 52.8458 41.2187 52.05 41.6278C50.9378 42.1296 49.6274 41.6758 49.0617 40.5923C48.0261 38.7609 46.9906 36.9679 45.9551 35.1366C48.2243 34.2193 48.2243 34.2577 49.7392 35.7311Z" fill="#EDF0F4"/>
<path d="M40.5369 61.3796C40.5369 60.6221 40.6551 60.3057 41.5341 60.344C43.685 60.4239 45.836 60.3824 47.9869 60.3824C48.543 60.3824 48.8627 60.4623 48.6645 61.1399C47.5107 65.3203 46.3953 69.504 45.2383 73.8059C44.5224 73.368 43.9247 73.0484 43.3654 72.732C40.4186 71.0605 40.4186 71.0605 40.4985 67.7142C40.5784 65.6016 40.5784 63.4922 40.5369 61.3796Z" fill="#EDF0F4"/>
<path d="M50.0587 78.7854C49.8605 78.4274 49.7391 78.1078 50.097 77.7882C50.3751 77.5101 50.6148 77.7882 50.8545 77.9064C53.6031 79.4981 56.3102 81.1313 59.1771 82.806C57.464 83.8032 55.9107 84.7173 54.3989 85.6345C53.8812 85.9925 53.5232 86.1139 53.2036 85.3565C52.2096 83.1672 51.1326 80.9747 50.0587 78.7854Z" fill="#EDF0F4"/>
<path d="M49.3008 76.1965C48.9812 75.9983 48.7032 75.7586 48.3836 75.5605C47.5462 74.9628 46.1527 74.8445 45.9545 73.8889C45.7564 73.0132 46.354 71.9361 46.6321 70.9421C47.4279 68.0753 48.2653 65.2467 48.9429 62.3383C49.1762 61.1142 49.8761 60.0308 50.8957 59.3116C51.6915 61.501 52.449 63.6519 53.3247 65.6846C53.5644 66.4005 53.5228 66.6818 52.6887 66.522C52.4106 66.4836 52.0526 66.3622 51.8928 66.6818C51.733 67.0014 52.091 67.1612 52.2508 67.3977C52.8069 68.1552 54.0821 68.593 54.0022 69.587C53.9223 70.4244 53.1649 71.2202 52.6887 72.0576C51.9312 73.3328 51.1737 74.608 50.4578 75.9216C50.1382 76.5161 49.8186 76.5928 49.3008 76.1965Z" fill="#EDF0F4"/>
<path d="M53.9988 66.1609C53.1614 63.8917 52.3273 61.5809 51.4899 59.3117C51.2694 58.9026 51.3525 58.3976 51.688 58.078C53.3212 56.2051 54.9129 54.2939 56.4662 52.3826C56.6995 52.0279 57.1341 51.8649 57.54 51.9831C59.9307 52.421 62.3597 52.8588 64.7472 53.2583C65.2841 53.3095 65.7316 53.693 65.8626 54.214C66.6584 56.4033 67.4543 58.6341 68.2916 60.8266C68.5377 61.306 68.4386 61.8877 68.0519 62.2617C66.4986 64.0547 64.9837 65.9244 63.4304 67.7589C63.1523 68.0785 62.951 68.4748 62.5131 68.2767C59.886 67.8388 57.3739 67.401 54.8266 66.9631C54.3184 66.8768 54.1586 66.5572 53.9988 66.1609Z" fill="#EDF0F4"/>
<path d="M62.2829 68.8679C62.2829 69.5455 61.209 69.8651 61.6469 70.3828C62.0847 70.9006 62.8422 70.4212 63.3599 70.1847C64.7534 69.5487 65.4694 70.0664 66.1086 71.3385C66.9044 73.01 67.9016 74.6049 68.8572 76.1965C69.2567 76.8741 69.1768 77.232 68.4577 77.5101C67.9942 77.6986 67.5436 77.9096 67.1025 78.1461C64.9132 79.3414 64.9132 79.3414 63.2001 77.6283C60.9309 75.3591 58.7001 73.0867 56.4309 70.8591C55.5551 69.9833 54.7178 69.1076 54.7178 67.5543C57.265 67.9922 59.774 68.43 62.2829 68.8679Z" fill="#EDF0F4"/>
<path d="M70.6893 86.67C71.0984 86.5166 71.5554 86.686 71.7632 87.0695C72.0029 87.469 71.565 87.6256 71.3637 87.8653C70.4081 88.9009 70.4081 88.9009 68.2188 87.3092C69.136 87.0695 69.9318 86.9097 70.6893 86.67Z" fill="#EDF0F4"/>
<path d="M70.1714 84.7204C68.8961 83.247 67.4643 81.9335 66.0676 80.5783C65.5115 80.0222 65.5498 79.7825 66.2658 79.4629C67.1415 79.0634 67.8191 78.2676 68.9345 78.5073C69.8901 78.2676 70.3695 78.8269 70.8074 79.661C71.6831 81.2942 72.6004 82.8859 73.556 84.4807C73.8341 84.9985 73.7957 85.1966 73.198 85.4363C72.0027 85.9126 71.0854 85.7943 70.1714 84.7204Z" fill="#EDF0F4"/>
<path d="M76.7167 72.8119C74.6456 73.8474 72.6545 75.0811 70.6633 76.2381C70.0273 76.596 69.7077 76.6376 69.3082 75.9185C68.311 74.0072 67.2371 72.1343 66.1217 70.303C65.7222 69.667 65.9619 69.4656 66.5595 69.3058C70.462 68.3086 74.326 67.3146 78.19 66.2376C78.9475 66.0394 79.1872 66.1577 79.1073 66.9151C79.069 67.5128 79.1073 68.1488 79.1073 69.1044H79.0913C79.7689 70.9773 78.548 71.9745 76.7167 72.8119Z" fill="#EDF0F4"/>
<path d="M79.2098 61.421C79.1715 61.9004 79.0916 62.4182 79.0916 62.8944C79.0532 65.4033 79.0532 65.365 76.5827 66.0393C73.5943 66.8352 70.6092 67.631 67.6209 68.4684C66.3457 68.8263 65.0704 69.1044 63.7568 68.3501L68.6948 62.4566C69.2509 62.8145 68.9728 63.8916 69.6504 63.7701C70.328 63.6519 70.2065 62.7346 70.3663 62.1785C70.8841 60.3855 70.8841 60.3855 72.7154 60.3855C74.5468 60.3855 76.4197 60.4239 78.2926 60.3855C79.0916 60.3855 79.2897 60.7019 79.2098 61.421Z" fill="#EDF0F4"/>
<path d="M70.8456 58.3529C70.5675 59.4683 69.9699 60.1842 69.0142 60.9417C68.097 58.4711 67.2628 56.122 66.3871 53.7729C66.9432 53.3734 67.7965 54.0925 67.9787 53.4149C68.1769 52.8972 67.381 52.5392 66.9815 52.1397C65.668 50.7846 65.668 50.8261 66.6236 49.1514C67.5409 47.5981 68.4965 46.1247 69.2923 44.5299C69.7717 43.5742 70.2479 43.6541 70.9638 44.2103C71.194 44.3956 71.4337 44.5682 71.6798 44.728C72.3957 45.2841 73.7125 45.4439 73.9106 46.2813C74.1088 47.1187 73.5527 48.1127 73.313 49.0299C72.5203 52.1397 71.6031 55.2463 70.8456 58.3529Z" fill="#EDF0F4"/>
<path d="M73.5946 35.0535C74.1124 35.1717 73.8727 35.5329 73.7129 35.811C72.6774 37.6039 71.6418 39.3969 70.4881 41.3465C69.2927 38.9175 68.2572 36.6483 67.2217 34.4558C66.8637 33.6983 67.1833 33.3819 67.8577 33.5385C69.7721 33.9796 71.6834 34.5357 73.5946 35.0535Z" fill="#EDF0F4"/>
<path d="M68.3779 32.9824C71.2448 31.231 70.1294 30.8314 73.4757 34.3759C71.6028 33.8997 70.0495 33.4618 68.3779 32.9824Z" fill="#EDF0F4"/>
<path d="M69.8101 41.3466C69.9699 41.6662 70.168 42.0241 69.8484 42.3821C69.4489 42.8199 69.1708 42.3821 68.8928 42.2223C66.1857 40.669 63.517 39.0773 60.6885 37.4026C62.4815 36.3671 64.153 35.4115 65.7479 34.4558C66.2656 34.1362 66.4638 34.3376 66.6651 34.7754C67.7007 36.9647 68.7745 39.1573 69.8101 41.3466Z" fill="#EDF0F4"/>
<path d="M75.5054 34.9352C74.9493 34.9352 75.1858 34.4974 75.3456 34.2193C76.3427 32.5062 77.3367 30.8347 78.3339 29.1216C78.4426 29.128 78.5512 29.1567 78.6535 29.2015C78.1517 31.0744 77.6979 33.024 77.0619 34.8969C76.7806 35.811 76.0647 34.9352 75.5054 34.9352Z" fill="#EDF0F4"/>
<path d="M77.4962 29.3197C76.5406 30.9913 75.5434 32.666 74.5878 34.3376C73.5139 33.2221 72.5551 32.1866 71.5195 31.1127C73.7887 29.7992 76.0995 28.2459 78.5701 27.0505C78.5317 27.9646 77.8957 28.6038 77.4962 29.3197Z" fill="#EDF0F4"/>
<path d="M70.3852 28.6838C72.4946 28.0861 74.6072 27.5683 76.7582 27.0122L76.8764 27.2519H76.8604C74.9652 28.3258 73.0763 29.5627 71.1427 30.5566C70.3468 30.9562 69.8291 29.9206 69.5095 29.2814C69.1899 28.6422 70.0656 28.7605 70.3852 28.6838Z" fill="#EDF0F4"/>
<path d="M68.1381 29.2015C69.0138 29.4796 69.4517 30.317 70.0909 30.8347C70.1229 30.9466 70.0909 31.068 70.011 31.1543C69.1672 31.7232 68.2724 32.2154 67.3423 32.6277C66.6647 32.8674 65.0315 30.8763 65.2329 30.1572C65.2329 30.0389 65.431 29.9175 65.5525 29.8791C66.3867 29.6394 67.2208 29.438 68.1381 29.2015Z" fill="#EDF0F4"/>
<path d="M67.6208 28.6038C67.5985 28.623 67.5825 28.6517 67.5825 28.6837C64.9553 29.601 64.9138 29.601 63.7184 27.0921C63.0824 25.7369 62.4432 24.4233 61.7656 22.95C62.7628 23.3463 66.9848 27.4884 67.6208 28.6038Z" fill="#EDF0F4"/>
<path d="M60.334 22.2309C60.4522 22.2309 60.5321 22.1925 60.6536 22.1925C61.7275 24.4617 62.8045 26.7341 63.8784 28.9234C64.0766 29.3229 64.1181 29.5594 63.6004 29.7608C60.4938 30.9945 60.334 30.9146 60.334 27.6514V22.2309Z" fill="#EDF0F4"/>
<path d="M61.05 31.6305C62.4435 32.0684 63.837 32.4263 65.2305 32.7843C65.5501 32.8642 65.8665 32.9441 65.9464 33.3404C65.9848 33.5801 65.8282 33.6984 65.6268 33.8198C63.8754 34.817 62.1623 35.8525 60.251 36.9647V32.2282C60.2127 31.589 60.4524 31.4291 61.05 31.6305Z" fill="#EDF0F4"/>
<path d="M60.9472 38.2399C63.4976 39.7932 66.0449 41.3082 68.6337 42.7815C69.2697 43.1395 69.3113 43.4176 68.9533 44.0152C67.7995 45.8466 66.764 47.7195 65.6869 49.5924C65.4089 50.1101 65.2075 50.3498 64.6514 49.7905C61.5832 46.7638 58.5182 43.7755 55.2933 40.6306H55.2773C56.869 39.7133 58.1858 38.9974 59.4738 38.2016C59.9212 37.8948 60.5157 37.9107 60.9472 38.2399Z" fill="#EDF0F4"/>
<path d="M52.6634 28.166C54.9166 25.8553 57.1474 23.5445 59.3783 21.2369C59.4966 21.3168 59.5765 21.3967 59.6979 21.4766L59.7139 29.8791C59.7139 30.4768 59.4742 30.6366 58.9564 30.4768C56.8055 29.8791 54.6162 29.2814 52.3438 28.6454C52.4364 28.4728 52.5419 28.313 52.6634 28.166Z" fill="#EDF0F4"/>
<path d="M52.1673 29.3197C54.1584 29.8375 56.1911 30.3553 58.1823 30.9114V31.1894C56.5907 31.6273 54.9575 32.0652 53.3243 32.5446C51.9691 32.8642 51.1733 31.7072 50.1378 31.231C50.0579 31.1926 50.0195 30.9913 50.0195 30.9114C50.0579 30.4735 51.7294 29.2015 52.1673 29.3197Z" fill="#EDF0F4"/>
<path d="M50.7745 28.8404C49.5792 30.7932 49.4609 30.8315 47.7478 29.796C46.2745 28.8787 44.6413 28.1245 43.2861 27.009C45.8909 27.3286 48.2816 28.3642 50.7745 28.8404Z" fill="#EDF0F4"/>
<path d="M42.608 28.444C43.9631 29.7991 45.3566 31.151 46.6318 32.5861C47.3094 33.3819 46.194 33.5417 45.9542 33.9796C45.7561 34.3375 45.4748 34.3791 45.2383 33.9412C44.2412 32.1898 43.2472 30.4767 42.25 28.7252C42.3715 28.6421 42.4897 28.5239 42.608 28.444Z" fill="#EDF0F4"/>
<path d="M40.5791 32.4263C40.4992 30.7548 40.5408 29.1216 40.5408 27.4468C40.6239 27.4373 40.707 27.4117 40.7805 27.3669C42.0557 29.5978 43.3309 31.8287 44.603 34.0979C44.881 34.5357 44.8011 34.7754 44.2834 34.8553C44.245 34.8553 44.2035 34.8937 44.1651 34.8937C43.0497 35.1717 41.6562 36.0091 40.8987 35.6096C40.0198 35.1334 40.6175 33.5418 40.5791 32.4263Z" fill="#EDF0F4"/>
<path d="M40.4186 78.3858C40.6167 76.3147 40.4569 74.2053 40.4569 71.853C42.0102 72.7703 43.3238 73.5246 44.6374 74.282C45.0753 74.5601 44.957 74.8797 44.8356 75.2377C44.1995 77.5484 43.6019 79.8592 42.9243 82.4065C41.7737 81.1344 40.2204 80.4568 40.4186 78.3858Z" fill="#EDF0F4"/>
<path d="M40.5785 81.0161C41.2145 81.6521 41.8122 82.2498 42.4099 82.8091C42.7678 83.1287 42.6496 83.4451 42.5281 83.8063C42.3683 84.3624 41.972 83.9661 41.7323 83.9245C40.2206 83.6049 40.0608 83.2853 40.5785 81.0161Z" fill="#EDF0F4"/>
<path d="M40.4574 91.4513C40.419 91.4513 40.3775 91.413 40.3391 91.413C40.3391 89.0639 40.3391 86.7531 40.3008 84.4424C40.419 84.404 40.4989 84.3241 40.5405 84.3241C42.2919 84.6821 42.2536 84.7236 41.8157 86.3951C41.3747 88.0635 40.8984 89.7766 40.4574 91.4513Z" fill="#EDF0F4"/>
<path d="M41.1768 91.1317C41.6945 89.2588 42.1739 87.3476 42.73 85.4779C43.0497 84.3241 43.8455 85.2797 44.3217 85.3181C45.1175 85.4363 44.5614 85.9541 44.4016 86.2353C43.5642 87.7087 42.73 89.1438 41.8511 90.6172C41.6945 90.8537 41.653 91.1701 41.1768 91.1317Z" fill="#EDF0F4"/>
<path d="M41.2148 93.0813C42.57 90.6907 43.9219 88.2617 45.277 85.8326C46.5107 86.8298 47.428 87.942 48.5019 89.0575C46.0313 90.451 43.7621 91.9659 41.2947 93.1612L41.2148 93.0813Z" fill="#EDF0F4"/>
<path d="M43.0078 93.1613C44.7209 91.7678 46.6705 90.7706 48.585 89.7766C49.6205 89.2972 49.8602 90.6939 50.8957 91.25C47.9873 91.9276 45.5966 92.8448 43.0078 93.1613Z" fill="#EDF0F4"/>
<path d="M51.8101 91.0103C51.4106 90.9719 49.7774 89.5752 49.7774 89.2972C49.7519 89.2173 49.7646 89.1278 49.8158 89.0575C49.9756 88.7378 52.4845 87.5425 52.8425 87.5841C54.156 87.7439 54.0761 89.0575 54.6355 89.8533C54.7953 90.093 54.5971 90.2911 54.3958 90.3327C53.5232 90.5724 52.6475 90.8121 51.8101 91.0103Z" fill="#EDF0F4"/>
<path d="M54.5967 88.0635C55.9518 88.4214 57.1056 88.741 58.3808 89.0607C55.792 90.3742 55.3158 90.256 54.5967 88.0635Z" fill="#EDF0F4"/>
<path d="M52.6058 92.2472C52.0497 91.7677 52.0881 91.5696 52.8455 91.3714C55.0348 90.7738 55.0348 90.7354 55.9905 92.7649C56.7479 94.3981 57.5437 96.0313 58.3012 97.6645C56.39 95.7916 54.4787 93.9986 52.6058 92.2472Z" fill="#EDF0F4"/>
<path d="M59.4545 95.3537V98.0608C59.3746 98.0608 59.3363 98.0991 59.2564 98.0991C58.1825 95.8683 57.1054 93.5991 55.99 91.3682C55.7119 90.7705 55.7918 90.5724 56.4694 90.371C59.4961 89.4953 59.4961 89.4538 59.4961 92.6402C59.4961 93.5607 59.4545 94.4364 59.4545 95.3537Z" fill="#EDF0F4"/>
<path d="M59.615 85.9924C59.615 88.8209 59.615 88.8209 56.9079 88.1018C56.1121 87.9036 55.3163 87.6639 54.5173 87.4658C54.1977 87.3859 53.9611 87.2261 53.9196 86.9097C53.8812 86.5901 54.1593 86.5102 54.3575 86.3919C55.8308 85.5162 57.3458 84.6788 58.8192 83.7647C59.5766 83.2853 59.6565 83.6465 59.615 84.2825V85.9924Z" fill="#EDF0F4"/>
<path d="M58.9944 81.9718C56.4055 80.4185 53.8167 78.9036 51.1895 77.3918C50.7101 77.1138 50.5535 76.8741 50.8699 76.3563C52.1452 74.2469 53.3405 72.1343 54.6541 69.9034C57.8406 73.0899 60.8896 76.155 64.0122 79.2232C64.3701 79.5811 64.4117 79.7409 63.9323 80.019C62.7369 80.655 61.5832 81.3741 60.3878 82.0517C59.95 82.3042 59.4003 82.2754 58.9944 81.9718Z" fill="#EDF0F4"/>
<path d="M67.0233 92.2056C64.8723 94.4748 62.683 96.7056 60.5321 98.9749L60.1741 98.7351C60.1741 95.9066 60.1741 93.0813 60.1357 90.2112C60.1357 89.6551 60.4138 89.6136 60.8517 89.7318C62.8844 90.2879 64.9139 90.8856 66.9466 91.4034C67.7807 91.6079 67.3013 91.9275 67.0233 92.2056Z" fill="#EDF0F4"/>
<path d="M67.541 90.9336C65.5882 90.4158 63.5971 89.8597 61.6475 89.342C61.6794 89.2525 61.6922 89.1566 61.6858 89.0639C63.319 88.626 65.0065 88.1083 66.6653 87.7503C67.9405 87.4723 68.698 88.5877 69.7335 89.0639C69.7847 89.163 69.8102 89.2716 69.8134 89.3835C69.7303 89.8981 68.0588 91.0519 67.541 90.9336Z" fill="#EDF0F4"/>
<path d="M76.1833 93.2411C73.8342 92.6051 71.4851 92.0074 69.1328 91.3682C69.9702 89.5752 70.4464 89.4154 72.0412 90.371L76.3431 92.8799C76.2728 92.995 76.2217 93.1165 76.1833 93.2411Z" fill="#EDF0F4"/>
<path d="M76.519 92.3271C74.726 91.2532 72.9746 90.1761 70.9834 89.0223C71.3254 88.7443 71.5651 88.6228 71.6993 88.4247C72.2171 87.7087 72.6166 87.7886 73.2143 88.4247C74.09 89.4218 75.0872 90.2976 76.0012 91.2532C76.2793 91.528 76.7171 91.7294 76.519 92.3271Z" fill="#EDF0F4"/>
<path d="M77.2186 91.6878C75.8634 90.3743 74.5914 89.0607 73.3545 87.7439C72.5971 86.8682 73.6741 86.67 73.9905 86.2705C74.4284 85.5929 74.6266 86.3089 74.7864 86.5901L77.0556 90.5341C77.3464 90.8505 77.4103 91.3075 77.2186 91.6878Z" fill="#EDF0F4"/>
<path d="M79.2898 92.7649C79.2099 92.8032 79.1715 92.8032 79.0916 92.8448C77.8164 90.6555 76.5572 88.4246 75.2691 86.1938C74.9911 85.7143 75.0294 85.4778 75.6271 85.3564C76.8224 85.0783 78.0178 84.7204 79.2898 84.4008V92.7649Z" fill="#EDF0F4"/>
<path d="M76.2627 84.4392C77.2599 83.4836 78.3337 82.4481 79.2894 81.4924C79.4108 84.1228 79.1296 84.4009 76.2627 84.4392Z" fill="#EDF0F4"/>
<path d="M78.9703 80.3387C77.5768 81.8536 76.1418 83.4069 74.5885 85.0784C73.2749 82.7677 72.1978 80.8181 70.9258 78.6671C73.7128 78.9068 76.2632 79.0666 78.7721 79.3031C79.6479 79.383 79.3314 79.9392 78.9703 80.3387Z" fill="#EDF0F4"/>
<path d="M79.3472 50.1485C79.3088 53.0154 79.3088 55.8439 79.3088 58.7108C79.3472 59.5482 79.149 59.9445 78.155 59.9061C76.0456 59.7879 73.933 59.8678 71.8236 59.8678C71.3059 59.8678 71.0278 59.8294 71.1876 59.1902C72.3414 54.9714 73.4952 50.7526 74.6489 46.4539C76.0776 47.2465 77.388 48.0008 78.6728 48.8349C79.1426 49.0938 79.4111 49.6148 79.3472 50.1485Z" fill="#EDF0F4"/>
<path d="M79.4492 42.4236C79.2095 44.2965 79.4108 46.2077 79.4108 48.3587C77.8576 47.483 76.5599 46.6871 75.2304 45.968C75.2304 45.968 75.2272 45.968 75.2272 45.9648C74.9523 45.8434 74.8309 45.5238 74.9523 45.2489C75.6299 42.8582 76.2659 40.4292 76.9435 37.882C78.452 39.1156 79.7273 40.2311 79.4492 42.4236Z" fill="#EDF0F4"/>
<path d="M79.2099 39.5152C78.5483 38.7193 78.0561 38.0801 77.4968 37.4825C77.2315 37.2204 77.1676 36.8177 77.337 36.4853C77.5351 36.0059 77.8931 36.2456 78.1744 36.2871C79.6477 36.5684 79.7692 36.9264 79.2099 39.5152Z" fill="#EDF0F4"/>
<path d="M78.9481 35.8525C78.5102 35.6543 77.4747 36.0507 77.7528 34.9352C78.2705 32.9441 78.8267 30.9913 79.3444 29.0001H79.5266C79.5266 31.0712 79.5266 33.1039 79.5042 35.1717C79.5042 35.5329 79.664 36.2105 78.9481 35.8525Z" fill="#EDF0F4"/>
<path d="M96.7336 58.0365C96.6952 58.0748 96.6952 58.1547 96.6537 58.1963C94.8223 57.1607 92.9494 56.2435 91.2363 55.0897C90.3606 54.4537 91.4345 53.5364 91.4345 52.7789C93.2307 54.5304 94.9821 56.2818 96.7336 58.0365Z" fill="#EDF0F4"/>
<path d="M80.0469 61.9772C80.603 60.8234 81.4021 59.9861 82.9937 60.5038C84.5246 60.5038 86.1386 60.5422 87.8134 60.5038C88.4494 60.5038 88.5708 60.7435 88.4494 61.3412C88.2097 62.4566 87.8517 63.2141 86.4966 63.4506C84.5853 63.8086 82.6741 64.4062 80.7628 64.9656C80.0853 65.1637 79.7273 65.0455 79.8456 64.288C79.967 63.5305 79.6474 62.7347 80.0469 61.9772Z" fill="#EDF0F4"/>
<path d="M79.9668 41.1068C81.6 42.6985 83.0734 44.0951 84.5883 45.5685C83.2747 46.326 81.9995 47.0419 80.7243 47.7578C80.2065 48.0359 79.9668 47.9975 79.9668 47.3583V41.1068H79.9668Z" fill="#EDF0F4"/>
<path d="M84.3873 46.4059C84.8667 46.1278 84.985 46.2876 85.1032 46.7638C85.4612 48.1989 85.8991 49.6307 86.257 51.0658C86.3976 51.3822 86.3145 51.7529 86.0589 51.983C85.7393 52.1812 85.5411 51.8648 85.3014 51.7433C83.6298 50.8261 81.9551 49.8704 80.1621 48.8349C81.6802 47.9592 83.0354 47.2017 84.3873 46.4059Z" fill="#EDF0F4"/>
<path d="M88.4654 44.1367C89.8589 43.3408 91.2524 42.5834 92.6459 41.7876C92.7258 41.7492 92.8057 41.7876 93.1636 41.7876H93.1476C91.6327 43.9769 90.2392 46.0096 88.9033 48.0007C88.6252 48.4386 88.4654 48.4386 88.0659 48.0806C85.5602 45.7667 85.5186 45.8082 88.4654 44.1367Z" fill="#EDF0F4"/>
<path d="M86.8959 53.6929C87.452 55.5658 87.9314 57.4355 88.4108 59.3084C88.6089 59.9444 88.1327 59.8645 87.7748 59.8645H81.4434C83.035 57.5953 84.4317 55.5626 85.7453 53.4916C86.2598 52.7789 86.6977 53.0569 86.8959 53.6929Z" fill="#EDF0F4"/>
<path d="M87.8131 66.3973C87.7748 65.48 88.1711 64.6842 88.3693 63.8884C88.4492 63.5304 88.7688 63.409 89.1267 63.3706C89.6061 63.3323 89.6061 63.7286 89.6828 64.0066C90.1623 65.3618 89.9225 65.6814 87.8131 66.3973Z" fill="#EDF0F4"/>
<path d="M79.9671 66.1608C80.6446 64.9271 82.754 65.1636 84.2274 64.6874C85.3429 64.3295 86.4583 64.0897 87.7335 63.7701C87.4555 64.8057 87.2158 65.643 87.0176 66.5188C86.9217 66.9247 86.6405 67.2634 86.2601 67.436C85.3429 67.9154 84.4671 68.4332 83.5531 68.951C82.3993 69.6285 81.2039 70.2646 79.9287 70.9837L79.9671 66.1608Z" fill="#EDF0F4"/>
<path d="M86.6185 67.9507C86.0624 70.0601 85.5446 71.933 85.0269 73.8059C84.8671 74.362 84.5091 74.0456 84.2694 73.8858C82.9942 73.1699 81.7605 72.4124 80.2871 71.5367C82.4381 70.303 84.3877 69.1876 86.6185 67.9507Z" fill="#EDF0F4"/>
<path d="M87.1771 68.2702C87.3369 67.6342 89.408 66.0393 89.9641 66.0809C90.0728 66.1032 90.1687 66.1576 90.2422 66.2407C90.8398 66.9182 90.7599 68.6313 90.1239 69.2674C89.0085 70.3828 87.8931 71.4982 86.7776 72.5721C86.5379 72.7702 86.3398 73.0899 85.8604 72.9716C86.2982 71.3384 86.7361 69.7851 87.1771 68.2702Z" fill="#EDF0F4"/>
<path d="M90.4179 64.3678C90.3795 63.93 89.8202 63.2524 90.5362 63.0127C92.3643 62.4566 94.1893 61.9005 96.174 61.8174C94.4226 62.773 92.7095 63.767 90.974 64.7226C90.5777 64.9655 90.4563 64.6459 90.4179 64.3678Z" fill="#EDF0F4"/>
<path d="M90.4409 62.3352C89.4437 62.5749 89.725 61.5393 89.5652 61.0599C89.3255 60.3824 89.9647 60.5038 90.3226 60.5038H96.7339C96.7435 60.5645 96.7723 60.6189 96.8138 60.6636C94.7044 61.2197 92.5918 61.8174 90.4409 62.3352Z" fill="#EDF0F4"/>
<path d="M88.9674 58.9505C88.488 57.1192 88.0917 55.6042 87.6123 53.8528C90.3226 55.2463 90.3226 55.2463 88.9674 58.9505Z" fill="#EDF0F4"/>
<path d="M89.8429 54.3706C89.0631 53.9934 88.3184 53.5556 87.6121 53.057C87.5801 53.0346 87.5514 53.0122 87.5226 52.9867C87.0176 52.5616 86.9505 51.8105 87.3756 51.3023C87.6153 50.9444 87.855 50.6248 88.0531 50.2668C88.4111 49.5093 88.7691 49.6691 89.2069 50.1869C89.763 50.8645 90.5205 51.3822 90.9584 52.0598C90.7602 52.8173 90.6004 53.4533 90.4023 54.1692C90.3224 54.4505 90.1242 54.5304 89.8429 54.3706Z" fill="#EDF0F4"/>
<path d="M91.1982 51.1042C91.08 51.0658 90.9585 51.0658 90.9202 51.0243C88.8108 49.113 88.8108 49.113 90.4024 46.8023C91.2781 45.5686 92.1155 44.3317 92.9912 43.098C93.1095 43.1364 93.2309 43.2163 93.3492 43.2578C92.6333 45.8466 91.9557 48.477 91.1982 51.1042Z" fill="#EDF0F4"/>
<path d="M93.6692 40.4708C90.7608 42.104 88.092 43.6158 85.3466 45.1691C84.6691 42.6985 84.033 40.2695 83.3555 37.6807C86.8168 38.5979 90.0832 39.5152 93.6692 40.4708Z" fill="#EDF0F4"/>
<path d="M82.9135 38.5595C83.3929 40.3525 83.8691 42.1839 84.3485 44.0152C84.2878 44.0632 84.2207 44.1047 84.1504 44.1335C82.8751 42.8582 81.5999 41.583 80.3279 40.3493C80.0498 40.0297 79.89 37.4409 80.1297 37.1245C80.1904 37.0286 80.2959 36.9679 80.4078 36.9647C81.3218 36.7665 82.6738 37.6423 82.9135 38.5595Z" fill="#EDF0F4"/>
<path d="M80.0214 34.6157C80.1812 32.6245 80.0597 30.6334 80.0597 28.6422H80.2835C80.961 31.1128 81.5971 33.5801 82.2523 36.0507C82.4121 36.6484 82.2139 36.7283 81.6162 36.6068C80.4625 36.4087 79.9031 35.9708 80.0214 34.6157Z" fill="#EDF0F4"/>
<path d="M79.8487 58.9505V55.8439L79.9286 50.3882C79.9286 49.7106 80.0884 49.4709 80.766 49.8704C82.1211 50.7078 83.5146 51.5036 84.9464 52.2611C85.5025 52.5392 85.5025 52.8172 85.1861 53.2966C83.7926 55.2878 82.3991 57.2789 81.044 59.3116C80.8043 59.7111 80.4879 59.9476 80.0468 59.791C79.609 59.628 79.8487 59.2285 79.8487 58.9505Z" fill="#EDF0F4"/>
<path d="M79.8075 77.9096V71.9745C81.3384 72.8502 82.5945 73.646 83.9112 74.4035C84.3906 74.6816 84.429 74.9213 84.0295 75.3208C82.994 76.3179 81.9584 77.3535 80.9613 78.389C80.7535 78.6575 80.4211 78.7949 80.0855 78.747C79.6093 78.5872 79.8075 78.1876 79.8075 77.9096Z" fill="#EDF0F4"/>
<path d="M84.3077 75.877C83.5917 79.5812 83.8282 79.1433 81.6006 78.7438C82.3581 77.6699 83.3137 76.9125 84.3077 75.877Z" fill="#EDF0F4"/>
<path d="M80.165 91.6079C80.0851 91.6079 79.9669 91.5696 79.887 91.5696C79.887 89.5369 79.9253 87.4658 79.8486 85.4363C79.8102 84.519 80.0468 84.0428 81.0024 83.9629C81.4466 83.8862 81.8877 83.7807 82.316 83.6433C81.5585 86.3919 80.8841 89.0191 80.165 91.6079Z" fill="#EDF0F4"/>
<path d="M81.6798 83.1671C79.5704 83.6849 79.9284 83.7648 79.8868 81.812C79.8868 79.9391 80.2065 79.383 81.4401 79.5013C82.0762 79.5396 82.9934 79.1433 83.313 79.9391C83.6294 80.7349 82.3958 82.9658 81.6798 83.1671Z" fill="#EDF0F4"/>
<path d="M91.9936 80.4569C89.1267 81.2144 86.2982 81.9719 83.2715 82.806C83.5112 81.8504 83.7093 81.013 83.9075 80.2172C84.0673 79.5812 84.5851 79.7378 85.0229 79.7794C87.3337 79.9392 89.6029 80.099 91.9137 80.2971C91.9552 80.3387 91.9552 80.4186 91.9936 80.4569Z" fill="#EDF0F4"/>
<path d="M85.1835 79.1817C84.5474 79.1433 84.2662 78.9835 84.4675 78.1845C85.2634 75.1578 85.225 75.1578 87.9321 76.7495L92.7102 79.7378C90.083 79.5428 87.6157 79.3415 85.1835 79.1817Z" fill="#EDF0F4"/>
<path d="M93.8284 79.5427C90.9615 77.8296 88.3312 76.2764 85.8223 74.803C87.6153 73.01 89.3284 71.2585 91.1597 69.5071C91.9939 72.7319 92.8696 75.9983 93.8284 79.5427Z" fill="#EDF0F4"/>
<path d="M91.3967 67.6725C91.3488 67.6246 91.3104 67.5703 91.2785 67.5127C90.6808 65.5599 90.6425 65.5599 92.4738 64.566C93.8673 63.8085 95.3023 63.051 96.6958 62.2968L96.8556 62.415C95.0211 64.1696 93.2313 65.9211 91.3967 67.6725Z" fill="#EDF0F4"/>
<path d="M97.8104 59.8678H90.322C89.7659 59.8678 89.4463 59.8294 89.686 59.1103C90.0056 58.1131 90.2421 57.1192 90.4819 56.122C90.6001 55.6426 90.7599 55.486 91.2393 55.764C93.4702 57.0776 95.701 58.3145 97.9287 59.5865C97.8967 59.6824 97.8552 59.7783 97.8104 59.8678Z" fill="#EDF0F4"/>
</svg>
