<svg width="120" height="120" viewBox="0 0 120 120" fill="none" xmlns="http://www.w3.org/2000/svg">
<circle cx="60" cy="60" r="60" fill="#EDF0F4"/>
<rect x="32.9043" y="32.6704" width="53.6905" height="53.6905" fill="white"/>
<path fill-rule="evenodd" clip-rule="evenodd" d="M56.8408 66.8567H51.1008L51.1984 78.0634H41.4365V41.3781H56.548C58.2043 41.3628 59.8394 41.7515 61.3118 42.5105C62.7444 43.2268 64.0242 44.2148 65.0799 45.4195C66.1259 46.619 66.964 47.985 67.5594 49.461C68.1702 50.9201 68.4822 52.4868 68.477 54.0686C68.4789 55.6952 68.1879 57.3089 67.618 58.8324C67.0939 60.3366 66.3 61.7326 65.2751 62.9519C64.2438 64.1297 62.9897 65.0918 61.5851 65.7829C60.1026 66.4875 58.4822 66.8543 56.8408 66.8567ZM55.9818 50.2419H51.1008V58.0515H56.1965C56.8434 58.0221 57.444 57.7075 57.8365 57.1924C58.4931 56.3432 58.7941 55.2722 58.676 54.2053C58.7867 53.0904 58.4574 51.9765 57.7584 51.101C57.3011 50.5937 56.6634 50.2854 55.9818 50.2419Z" fill="#2D8EFF"/>
<path fill-rule="evenodd" clip-rule="evenodd" d="M29 86.9662V32.5338C29 30.5821 30.5821 29 32.5338 29H86.9662C87.9034 29 88.8023 29.3723 89.465 30.035C90.1277 30.6977 90.5 31.5966 90.5 32.5338V86.9662C90.5 88.9179 88.9179 90.5 86.9662 90.5H32.5338C30.5821 90.5 29 88.9179 29 86.9662ZM39.699 83.2957H79.7619V83.2567C81.6984 83.2568 83.2743 81.6983 83.2957 79.7619V39.699C83.2957 37.7474 81.7136 36.1652 79.7619 36.1652H39.699C37.7474 36.1652 36.1652 37.7474 36.1652 39.699V79.7619C36.1652 81.7136 37.7474 83.2957 39.699 83.2957Z" fill="#2D8EFF"/>
<rect x="55.416" y="71.1714" width="22.6281" height="6.95048" fill="#2D8EFF"/>
</svg>
