<svg width="120" height="120" viewBox="0 0 120 120" fill="none" xmlns="http://www.w3.org/2000/svg">
<path d="M17.5906 17.5906C-5.86353 41.0447 -5.86353 79.0153 17.5906 102.409L102.409 17.5906C79.0153 -5.86353 40.9848 -5.86353 17.5906 17.5906Z" fill="#FF6666"/>
<path d="M102.41 102.409C79.0155 78.9552 40.985 78.9552 17.5908 102.409L102.41 17.5906C125.864 40.9847 125.864 79.0152 102.41 102.409Z" fill="#DA5F5A"/>
<ellipse cx="60.0003" cy="59.9999" rx="38.3304" ry="38.4504" fill="#FFF4C7"/>
<path d="M102.41 102.409C79.0155 125.864 40.985 125.864 17.5908 102.409C40.985 79.0152 79.0155 79.0152 102.41 102.409Z" fill="#FFF4C7"/>
<circle cx="59.9999" cy="60.0001" r="32.7518" fill="#F7931A"/>
<path fill-rule="evenodd" clip-rule="evenodd" d="M68.3977 47.643C72.8966 49.2026 76.2558 51.542 75.5959 55.9209C75.1161 59.1002 73.3765 60.6598 71.0971 61.1396C74.3363 62.8192 75.9558 65.3986 74.3962 69.8375C72.4167 75.4161 67.7979 75.836 61.6794 74.6963L60.1798 80.6348L56.5807 79.735L58.0803 73.8565C57.4405 73.7365 56.8006 73.5632 56.1608 73.3899C55.8409 73.3033 55.521 73.2166 55.201 73.1366L53.7014 79.0752L50.1023 78.1754L51.6019 72.1769C51.1234 72.0402 50.6449 71.9229 50.1553 71.803C49.7856 71.7124 49.4097 71.6203 49.0226 71.517L44.3438 70.3773L46.1433 66.2384C46.1433 66.2384 48.8426 66.9582 48.7826 66.8982C49.7424 67.1381 50.2223 66.4783 50.4022 66.0584L52.7417 56.6408L52.7417 56.6408C52.8616 56.7008 52.9816 56.7607 53.1016 56.7607L53.1015 56.7607C52.9816 56.7008 52.8616 56.6408 52.7417 56.6408L54.4212 49.9224C54.4812 49.1426 54.1813 48.1829 52.7417 47.823C52.8016 47.763 50.1023 47.1631 50.1023 47.1631L51.0621 43.3241L56.0408 44.5838C56.7606 44.7637 57.5405 44.9437 58.3203 45.1236L59.8199 39.2451L63.419 40.1449L61.9793 45.9634C62.9391 46.1434 63.8989 46.3833 64.8586 46.6233L66.2983 40.8647L69.8974 41.7645L68.3977 47.643ZM68.5177 55.861C67.5982 59.539 62.4356 58.1935 59.9343 57.5417C59.6616 57.4706 59.4205 57.4078 59.22 57.3606L61.0196 50.1624C61.2561 50.2269 61.5578 50.2966 61.9039 50.3765C64.4538 50.9653 69.4156 52.111 68.5177 55.861ZM67.378 67.4381C66.3359 71.4967 59.9783 69.8385 57.0167 69.0661L57.0165 69.066C56.7391 68.9937 56.4914 68.9291 56.2808 68.8777L58.2603 60.9597C58.5447 61.036 58.9014 61.1195 59.3079 61.2147C62.4161 61.9428 68.4389 63.3534 67.378 67.4381Z" fill="white"/>
</svg>
