<svg width="120" height="120" viewBox="0 0 120 120" fill="none" xmlns="http://www.w3.org/2000/svg">
<circle cx="60" cy="60" r="60" fill="#EDF0F4"/>
<path fill-rule="evenodd" clip-rule="evenodd" d="M69.9725 19.6824L91.9001 33.511H91.9018C96.7215 36.3026 97.6633 42.5537 92.9434 45.5126L75.0805 56.4148C73.6742 57.294 72.6286 58.6504 71.8149 60.1009L62.0721 76.772C61.6586 77.5094 60.8833 77.9643 60.044 77.9621C59.2047 77.9598 58.4318 77.5007 58.0222 76.761L49.7338 62.5181C49.555 62.1947 49.3623 61.8231 49.1561 61.4258C48.2566 59.6918 47.1022 57.4665 45.7447 56.6093L26.4847 44.8682C22.3594 42.2636 22.4473 37.0272 26.5911 34.4513L49.4971 20.0033C55.7486 16.1172 63.6045 15.9941 69.9725 19.6824ZM70.5915 51.7309L85.5616 42.3469C89.0273 40.1748 88.9205 35.8289 85.3828 33.7796L67.4296 22.5952C62.7547 19.8873 56.9873 19.9776 52.3976 22.8304L34.2633 34.1035C31.2208 35.9944 31.2053 40.4554 34.2336 42.3667L49.5979 52.0719C50.8226 52.8458 51.8341 53.9191 52.5389 55.1925L58.5563 66.4739C58.856 67.0188 59.4242 67.3575 60.0415 67.3591C60.6588 67.3607 61.2288 67.0251 61.5312 66.4818L68.1118 54.3413C68.7088 53.2753 69.5615 52.3777 70.5915 51.7309Z" fill="#000300"/>
<path d="M23 51.2378V80.337C22.9993 80.8614 23.2752 81.3464 23.7241 81.6101L58.1284 101.873C59.1071 102.446 60.3176 102.453 61.2994 102.016L96.0924 81.745C96.544 81.348 96.8223 80.8613 96.8223 80.3353V51.4382C96.8217 49.9918 95.6599 48.8197 94.2273 48.8203C92.7948 48.8209 91.6339 49.9939 91.6344 51.4402V77.3861C91.6347 77.9095 91.3595 78.3937 90.9117 78.6575L61.5684 96.0927C60.5847 96.6719 59.3684 96.6719 58.3846 96.0927L28.513 78.3905C28.0643 78.1269 27.7883 77.6423 27.7882 77.1181V51.2378C27.7882 49.9029 26.7163 48.8207 25.3941 48.8207C24.0719 48.8207 23 49.9029 23 51.2378Z" fill="#000300"/>
</svg>
