<svg width="120" height="120" viewBox="0 0 120 120" fill="none" xmlns="http://www.w3.org/2000/svg">
<circle cx="60" cy="60" r="60" fill="#EDF0F4"/>
<path fill-rule="evenodd" clip-rule="evenodd" d="M66.0598 31.011L51.8539 40.5786L72.6116 33.8605L66.0598 31.011ZM57.5113 82.1771L39 95.4678L50.7516 41.3898L57.5113 82.1771ZM57.8857 82.0523L69.1589 82.1979L51.1884 41.5978L57.8857 82.0523ZM78.8513 49.1687L70.2197 81.158L75.5859 45.1753L78.8513 49.1687ZM55.4522 31.3022L64.2711 31.011L54.1626 34.9836L55.4522 31.3022Z" fill="#384182"/>
<path fill-rule="evenodd" clip-rule="evenodd" d="M69.5751 31.9261L70.823 28.5358L64.2713 25.6863L69.5751 31.9261ZM74.9621 43.948L52.2285 40.8281L72.7158 34.3804L74.9621 43.948ZM72.9446 33.5276L71.4678 28.203L81.6802 31.2189L72.9446 33.5276Z" fill="#F79534"/>
<path fill-rule="evenodd" clip-rule="evenodd" d="M68.3894 25H63.6055L71.0101 27.8703L68.3894 25ZM58.8633 27.3295L63.3144 25.2704L69.0133 31.8014L58.8633 27.3295ZM58.4057 27.6831L55.5978 30.7822L64.9159 30.5534L58.4057 27.6831ZM54.1419 35.3996L65.3735 31.011L51.438 40.3914L54.1419 35.3996ZM51.438 41.2234L69.6581 81.9899L75.1907 44.5513L51.438 41.2234ZM70.0117 32.2173L71.1557 28.8063L72.2996 33.3197L70.0117 32.2173Z" fill="#F0513A"/>
</svg>
