<svg width="120" height="120" viewBox="0 0 120 120" fill="none" xmlns="http://www.w3.org/2000/svg">
<path fill-rule="evenodd" clip-rule="evenodd" d="M60 120C27 120 0 93.0006 0 59.7012C0.3 26.7019 27 -0.297518 60.3 0.00247602C93.3 0.30247 120 27.0019 120 60.6012C119.7 93.3006 93 120 60 120Z" fill="#EDF0F4"/>
<path d="M32 26V54.0673L45.7785 40.2888L32 26Z" fill="url(#paint0_linear_1_5442)"/>
<path d="M75.1216 40.2888L88.9001 54.0673V26L75.1216 40.2888Z" fill="url(#paint1_linear_1_5442)"/>
<path d="M33.9561 56.959L59.6419 94.7223L47.3093 43.6058L33.9561 56.959Z" fill="url(#paint2_linear_1_5442)"/>
<path d="M61.4277 94.7223L87.1135 56.959L73.7603 43.6058L61.4277 94.7223Z" fill="url(#paint3_linear_1_5442)"/>
<path d="M70.6135 43.0105H60.4923H50.3711L55.3892 65.2092L60.4923 87.3228L65.5955 65.2092L70.6135 43.0105Z" fill="url(#paint4_linear_1_5442)"/>
<defs>
<linearGradient id="paint0_linear_1_5442" x1="32" y1="54.0544" x2="45.77" y2="54.0544" gradientUnits="userSpaceOnUse">
<stop stop-color="#A71E22"/>
<stop offset="0.1551" stop-color="#B81F24"/>
<stop offset="0.4908" stop-color="#DA2126"/>
<stop offset="0.6826" stop-color="#EC2227"/>
</linearGradient>
<linearGradient id="paint1_linear_1_5442" x1="75.1216" y1="54.0544" x2="88.8916" y2="54.0544" gradientUnits="userSpaceOnUse">
<stop stop-color="#A71E22"/>
<stop offset="0.1551" stop-color="#B81F24"/>
<stop offset="0.4908" stop-color="#DA2126"/>
<stop offset="0.6826" stop-color="#EC2227"/>
</linearGradient>
<linearGradient id="paint2_linear_1_5442" x1="33.922" y1="94.7179" x2="59.6248" y2="94.7179" gradientUnits="userSpaceOnUse">
<stop stop-color="#A71E22"/>
<stop offset="0.1551" stop-color="#B81F24"/>
<stop offset="0.4908" stop-color="#DA2126"/>
<stop offset="0.6826" stop-color="#EC2227"/>
</linearGradient>
<linearGradient id="paint3_linear_1_5442" x1="61.4022" y1="94.7095" x2="87.0965" y2="94.7095" gradientUnits="userSpaceOnUse">
<stop stop-color="#A71E22"/>
<stop offset="0.1551" stop-color="#B81F24"/>
<stop offset="0.4908" stop-color="#DA2126"/>
<stop offset="0.6826" stop-color="#EC2227"/>
</linearGradient>
<linearGradient id="paint4_linear_1_5442" x1="50.3371" y1="87.4015" x2="70.6476" y2="87.4015" gradientUnits="userSpaceOnUse">
<stop stop-color="#A71E22"/>
<stop offset="0.1551" stop-color="#B81F24"/>
<stop offset="0.4908" stop-color="#DA2126"/>
<stop offset="0.6826" stop-color="#EC2227"/>
</linearGradient>
</defs>
</svg>
