<svg width="120" height="120" viewBox="0 0 120 120" fill="none" xmlns="http://www.w3.org/2000/svg">
<g clip-path="url(#clip0_1_3015)">
<path d="M118.191 74.5143C110.178 106.657 77.6222 126.219 45.4752 118.204C13.3417 110.19 -6.22004 77.6324 1.79691 45.4918C9.80683 13.3451 42.3626 -6.21803 74.4997 1.79541C106.644 9.80884 126.205 42.3702 118.191 74.5149L118.191 74.5143H118.191Z" fill="#B2B8C0"/>
<path fill-rule="evenodd" clip-rule="evenodd" d="M86.4503 51.4514C87.6445 43.4667 81.5655 39.1747 73.253 36.3114L75.9496 25.4955L69.3656 23.8549L66.7405 34.3861C65.0096 33.9544 63.2321 33.5476 61.4654 33.1444L64.1096 22.5437L57.5296 20.9031L54.8315 31.7155C53.3992 31.3894 51.9923 31.0671 50.6274 30.7275L50.635 30.6935L41.5556 28.4262L39.8041 35.4583C39.8041 35.4583 44.6889 36.578 44.586 36.6469C47.2521 37.3124 47.7343 39.0773 47.6542 40.4762L44.5825 52.7981C44.766 52.8448 45.0042 52.9122 45.267 53.0178L45.076 52.9701L45.0758 52.9701C44.9133 52.9294 44.7444 52.8872 44.571 52.8457L40.2654 70.1069C39.9396 70.9169 39.1126 72.1326 37.2485 71.671C37.3145 71.7666 32.4632 70.4767 32.4632 70.4767L29.1943 78.0133L37.7624 80.1492C38.7006 80.3845 39.6277 80.6262 40.5454 80.8654L40.5473 80.8659C41.1881 81.033 41.8243 81.1988 42.4565 81.3604L39.732 92.3005L46.3084 93.941L49.0065 83.1172C50.8031 83.6049 52.5466 84.0548 54.2535 84.4788L51.5644 95.2517L58.1487 96.8923L60.873 85.9728C72.1001 88.0975 80.542 87.2409 84.0953 77.086C86.9586 68.9101 83.9528 64.1942 78.0462 61.1189C82.3483 60.1268 85.5887 57.2973 86.4527 51.4523L86.4506 51.4508L86.4503 51.4514ZM71.4074 72.5455C69.5406 80.0466 57.7992 76.9455 52.4272 75.5266C51.9439 75.399 51.5122 75.2849 51.1439 75.1935L54.7594 60.6998C55.2083 60.8119 55.7568 60.935 56.3782 61.0745L56.3783 61.0745C61.9351 62.3215 73.32 64.8765 71.4077 72.5455H71.4074ZM57.4929 54.3477C61.9717 55.543 71.742 58.1505 73.4436 51.3329H73.4442C75.1817 44.3603 65.6866 42.258 61.0491 41.2313C60.5274 41.1158 60.0672 41.0139 59.6914 40.9202L56.4134 54.0651C56.7229 54.1422 57.0861 54.2392 57.4929 54.3477Z" fill="white"/>
</g>
<defs>
<clipPath id="clip0_1_3015">
<rect width="119.986" height="120" fill="white"/>
</clipPath>
</defs>
</svg>
