<svg width="120" height="120" viewBox="0 0 120 120" fill="none" xmlns="http://www.w3.org/2000/svg">
<circle cx="60" cy="60" r="60" fill="#EDF0F4"/>
<path d="M70.7041 63.8312L87.1527 47.4337C88.3871 46.204 89.0792 44.5322 89.0752 42.7898L89.1031 29.5362C89.1015 28.8563 88.8389 28.203 88.3694 27.7112L56.8143 59.1966C55.5755 60.4245 54.8787 62.0963 54.8787 63.8405C54.8787 65.5847 55.5755 67.2565 56.8143 68.4844L79.063 90.6635C80.7221 92.3143 83.1359 92.9546 85.3951 92.3432C87.6543 91.7317 89.4156 89.9615 90.0157 87.6993C90.6158 85.4371 89.9634 83.0266 88.3043 81.3758L70.7041 63.8312Z" fill="#008C62"/>
<path d="M86.5304 27.0006H36.9663C32.9587 27.0006 30.0005 30.0284 30.0005 34.1615V85.871C29.9778 87.646 30.6733 89.355 31.929 90.6098C33.1847 91.8646 34.8941 92.5589 36.6691 92.5349C38.4457 92.5654 40.1585 91.8731 41.4149 90.6167C42.6713 89.3603 43.3636 87.6475 43.3331 85.871V39.7573H76.3046L88.3786 27.7436C87.89 27.2537 87.2221 26.9852 86.5304 27.0006Z" fill="#00E6A0"/>
</svg>
