<svg width="120" height="120" viewBox="0 0 120 120" fill="none" xmlns="http://www.w3.org/2000/svg">
<path d="M60 0C93.1371 0 120 26.8629 120 60C120 93.1371 93.1371 120 60 120C26.8629 120 0 93.1371 0 60C0 26.8629 26.8629 0 60 0Z" fill="black"/>
<path d="M31.1826 48.9806C31.1826 49.4298 31.6318 49.8789 32.0809 49.8789H42.994V55.4263H32.0809C31.6318 55.4263 31.1826 55.8755 31.1826 56.3246V65.472C31.1826 65.9212 31.6318 66.3703 32.0809 66.3703H42.994V88.2652C42.994 88.7143 43.2923 89.016 43.7415 89.016H54.2089C54.658 89.016 54.9563 88.7178 54.9563 88.2652V67.5772C54.9563 67.128 55.2546 66.8263 55.7038 66.8263H64.0798C64.378 66.8263 64.6763 66.9772 64.8272 67.2755L74.098 88.7212C74.2489 89.0195 74.5472 89.1703 74.8455 89.1703H86.0603C86.6569 89.1703 86.9586 88.5703 86.8078 88.1212L77.5369 67.1246C77.386 66.6755 77.5369 66.2263 77.986 66.0755C82.4706 64.4263 85.3129 60.3772 85.3129 54.9772V41.4789C85.3129 34.5806 79.6318 28.8823 72.7506 28.8823H43.7415C43.2923 28.8823 42.994 29.184 42.994 29.6332V38.9315H32.0809C31.6318 38.9315 31.1826 39.3806 31.1826 39.8298V48.9806Z" fill="white"/>
<path d="M54.9565 41.0297C54.9565 40.5805 55.2548 40.2788 55.704 40.2788H69.7611C71.7051 40.2788 73.3508 41.928 73.3508 43.8788V51.9771C73.3508 53.928 71.7051 55.5771 69.7611 55.5771H55.704C55.2548 55.5771 54.9565 55.2754 54.9565 54.8262V41.0297Z" fill="black"/>
</svg>
