<svg width="120" height="120" viewBox="0 0 120 120" fill="none" xmlns="http://www.w3.org/2000/svg">
<circle cx="60" cy="60" r="60" fill="#EDF0F4"/>
<path d="M25.6782 74.0687C25.5932 74.2613 25.4938 74.4475 25.3809 74.6259C24.792 75.5913 24.4376 76.6751 24.3447 77.7946C25.2873 79.6497 26.3746 81.4315 27.5971 83.1243C27.6631 82.4628 27.813 81.8118 28.0436 81.1862C28.3073 80.3873 28.2974 79.5265 28.0153 78.7335C27.1278 77.2325 26.3469 75.6739 25.6782 74.0687V74.0687Z" fill="black"/>
<path d="M22.7283 49.8217C23.4894 49.4833 24.1135 48.9079 24.5023 48.186C25.0255 46.5018 25.6679 44.8549 26.4246 43.2572C26.2178 43.3262 26.0058 43.3792 25.7904 43.4159C24.6829 43.621 23.6421 44.0826 22.7557 44.7617C21.9866 46.7354 21.3754 48.7643 20.9277 50.83C21.4791 50.4171 22.0847 50.078 22.7283 49.8217Z" fill="black"/>
<path d="M49.9912 21.8462C50.6585 22.3422 51.4818 22.597 52.3205 22.5671C54.0273 22.191 55.7595 21.9339 57.5038 21.7977C57.3195 21.6387 57.1495 21.4645 56.9955 21.2773C56.3382 20.4953 55.5121 19.8641 54.5762 19.4286C52.4656 19.7369 50.3842 20.2119 48.3525 20.8487C48.9391 21.1137 49.4895 21.4488 49.9912 21.8462Z" fill="black"/>
<path d="M42.4157 24.8611C43.1626 25.2013 44.0067 25.2812 44.8068 25.0875C46.4041 24.3533 48.0539 23.7329 49.7432 23.2313C49.5363 23.1166 49.3397 22.9853 49.1553 22.8387C48.3349 22.202 47.3779 21.7537 46.3554 21.5271C44.3562 22.27 42.4221 23.1699 40.5723 24.2179C41.2124 24.3548 41.8319 24.5709 42.4157 24.8611Z" fill="black"/>
<path d="M25.563 42.152C26.3725 41.9806 27.0995 41.5494 27.6276 40.9273C28.496 39.3869 29.4736 37.9074 30.5534 36.4998C30.326 36.5267 30.0967 36.5353 29.8678 36.5257C28.7691 36.4957 27.6788 36.7204 26.6866 37.1814C25.5091 38.961 24.4769 40.828 23.5996 42.7652C24.223 42.476 24.8834 42.2698 25.563 42.152Z" fill="black"/>
<path d="M35.6299 29.3939C36.4505 29.5723 37.3093 29.4665 38.0587 29.0949C39.4577 28.052 40.9306 27.1068 42.4663 26.2662C42.2419 26.1974 42.0237 26.1105 41.8141 26.0064C40.868 25.5481 39.8264 25.3083 38.77 25.3055C36.9733 26.4539 35.2726 27.7388 33.6836 29.1483C34.3405 29.148 34.9947 29.2305 35.6299 29.3939Z" fill="black"/>
<path d="M29.9275 35.2425C30.7871 35.2448 31.6199 34.9513 32.2792 34.4138C32.7774 33.8518 33.2933 33.3019 33.827 32.7639C34.5246 32.0638 35.2447 31.3955 35.9875 30.759C35.7516 30.7381 35.518 30.6979 35.289 30.6387C34.2555 30.3857 33.1758 30.3705 32.1352 30.5944C32.0264 30.7013 31.9167 30.8057 31.8095 30.9143C30.4044 32.3248 29.1058 33.8324 27.9238 35.4254C28.5805 35.2783 29.2543 35.2168 29.9275 35.2425Z" fill="black"/>
<path d="M21.5392 57.9149C22.2344 57.4072 22.7348 56.6868 22.9601 55.869C23.1234 54.1378 23.4057 52.4191 23.8052 50.7247C23.6181 50.8342 23.4227 50.9294 23.2207 51.0096C22.1733 51.4449 21.2476 52.1173 20.5202 52.9711C20.1854 55.0528 20.0115 57.1561 20 59.2632C20.4504 58.7501 20.9679 58.2968 21.5392 57.9149Z" fill="black"/>
<path d="M85.3708 89.6044C84.5503 89.4258 83.6915 89.5313 82.9421 89.9027C81.5435 90.9452 80.0712 91.8901 78.5361 92.7305C78.76 92.7996 78.9776 92.8868 79.1866 92.9911C80.1328 93.4492 81.1743 93.689 82.2307 93.692C84.0275 92.5438 85.7283 91.2589 87.3171 89.8492C86.6603 89.8496 86.0061 89.7673 85.3708 89.6044Z" fill="black"/>
<path d="M99.4604 61.0843C98.7662 61.5906 98.2662 62.3092 98.0403 63.1251C97.877 64.8567 97.5947 66.5756 97.1953 68.2703C97.382 68.1608 97.5771 68.0655 97.7789 67.9854C98.8269 67.5481 99.7532 66.8741 100.481 66.0189C100.816 63.9386 100.989 61.8367 101 59.731C100.55 60.2459 100.032 60.701 99.4604 61.0843Z" fill="black"/>
<path d="M71.0077 97.153C70.3406 96.6576 69.5182 96.4026 68.6801 96.4313C66.9727 96.8078 65.24 97.0652 63.4951 97.2015C63.6792 97.3604 63.8492 97.5343 64.0033 97.7211C64.6607 98.5033 65.4867 99.1347 66.4227 99.5706C68.5335 99.2623 70.6152 98.7873 72.6472 98.1505C72.0603 97.8857 71.5096 97.5506 71.0077 97.153Z" fill="black"/>
<path d="M54.8329 98.1931C54.4236 97.4635 53.7712 96.8918 52.9835 96.5725C51.2837 96.229 49.6112 95.7681 47.9785 95.1932C48.0737 95.4017 48.1522 95.617 48.2133 95.8373C48.5027 96.8367 49.0115 97.7628 49.7045 98.5515C51.7322 99.1074 53.8022 99.5044 55.8948 99.7386C55.4791 99.2664 55.1226 98.7476 54.8329 98.1931Z" fill="black"/>
<path fill-rule="evenodd" clip-rule="evenodd" d="M95.3287 70.4047C95.3192 70.4164 95.2335 70.4281 95.2335 70.4281C90.5954 85.2512 76.7803 96.0335 60.4995 96.0327C44.5016 96.0327 30.8871 85.6163 26.0209 71.1841C26.0192 71.1732 26.0261 71.1615 26.0261 71.1615H26.0638C25.3133 68.7251 24.7783 66.2304 24.4646 63.7049V63.6514H24.3446C24.1769 62.2652 24.0962 60.8703 24.1029 59.4745C24.0995 55.7854 24.6578 52.1162 25.7595 48.5869C25.7647 48.576 25.7707 48.5685 25.7707 48.5685C30.4097 33.7454 44.2274 22.9639 60.503 22.9639C76.5043 22.9639 90.1309 33.3803 94.9953 47.815C94.997 47.8267 95.015 47.84 95.015 47.84H95.0253C95.8083 50.2738 96.376 52.7685 96.7222 55.2967V55.3502H96.6476C96.8424 56.735 96.9548 58.1296 96.9844 59.5271C96.9844 60.1099 96.9671 60.683 96.9498 61.2527C96.9328 61.8155 96.9159 62.375 96.9159 62.9372C96.9159 65.3423 96.1827 67.6804 95.4778 69.9283C95.4278 70.0876 95.378 70.2464 95.3287 70.4047ZM60.5004 28.6437C43.6215 28.6437 29.8895 42.4852 29.8895 59.4995C29.8895 76.5139 43.6215 90.3554 60.5004 90.3554C77.3793 90.3554 91.1113 76.513 91.1113 59.4995C91.1113 42.486 77.3793 28.6437 60.5004 28.6437Z" fill="black"/>
<path d="M46.9398 96.1714C46.6931 95.3825 46.1853 94.6954 45.4957 94.2174C43.893 93.52 42.3433 92.7121 40.8584 91.7998C40.9077 92.0199 40.9395 92.2433 40.9535 92.4681C41.0317 93.5238 41.3453 94.5501 41.8722 95.4755C43.7354 96.4438 45.6754 97.2645 47.6734 97.9299C47.3578 97.3743 47.1115 96.784 46.9398 96.1714Z" fill="black"/>
<path d="M39.6341 92.5484C39.5524 91.7037 39.1835 90.9098 38.5859 90.2928C37.1796 89.2815 35.8458 88.1776 34.594 86.9889C34.5968 87.2164 34.5813 87.4438 34.5477 87.6689C34.4039 88.7348 34.5019 89.8184 34.8348 90.8434C36.4548 92.1747 38.1795 93.38 39.9932 94.4481C39.7957 93.8312 39.6751 93.1934 39.6341 92.5484Z" fill="black"/>
<path d="M74.0602 22.8278C74.306 23.6169 74.8136 24.3042 75.5034 24.7818C77.1061 25.4793 78.6558 26.2872 80.1407 27.1994C80.0916 26.9793 80.0598 26.7559 80.0456 26.5311C79.9674 25.4753 79.6535 24.4489 79.126 23.5237C77.2622 22.553 75.3214 21.73 73.3223 21.0626C73.6399 21.6201 73.8876 22.2127 74.0602 22.8278Z" fill="black"/>
<path d="M98.2744 69.1776C97.5136 69.5151 96.8897 70.09 96.5013 70.8116C95.978 72.4959 95.3355 74.1428 94.5781 75.7404C94.785 75.6718 94.997 75.619 95.2123 75.5825C96.3213 75.375 97.3631 74.9116 98.2504 74.2308C99.0186 72.2587 99.6292 70.2316 100.077 68.1676C99.5248 68.581 98.9187 68.9207 98.2744 69.1776Z" fill="black"/>
<path d="M91.0717 83.7567C90.2123 83.753 89.3794 84.0463 88.7209 84.5845C88.2221 85.147 87.7059 85.6973 87.1723 86.2353C86.4746 86.9353 85.7545 87.6036 85.0117 88.2402C85.2473 88.2608 85.4807 88.3008 85.7093 88.3597C86.7428 88.6131 87.8226 88.6283 88.8631 88.4039C88.972 88.2978 89.0817 88.1926 89.1897 88.0848C90.595 86.6744 91.8939 85.1667 93.0762 83.5737C92.4192 83.7205 91.7452 83.782 91.0717 83.7567Z" fill="black"/>
<path d="M87.7543 31.5191C87.6591 32.3809 87.8634 33.249 88.3345 33.9843C89.4924 35.2521 90.5618 36.5943 91.5354 38.0017C91.5795 37.7876 91.64 37.5771 91.7163 37.3718C92.083 36.3351 92.2085 35.232 92.0839 34.1422C91.1782 33.0173 90.2124 31.9395 89.1906 30.9134C88.7336 30.4556 88.2682 30.0101 87.7946 29.5768C87.862 30.2234 87.8485 30.8756 87.7543 31.5191Z" fill="black"/>
<path d="M95.4362 76.8464C94.6254 77.0173 93.8971 77.449 93.3682 78.0719C92.4997 79.6123 91.5221 81.0917 90.4424 82.4995C90.6698 82.4729 90.8991 82.4645 91.128 82.4744C92.2259 82.5049 93.3156 82.281 94.3075 81.8212C95.4871 80.0418 96.5212 78.1748 97.4005 76.2374C96.7766 76.5252 96.116 76.73 95.4362 76.8464Z" fill="black"/>
<path d="M58.0259 20.4736C58.5953 21.1186 59.3803 21.5467 60.2421 21.6824C60.3278 21.6824 60.4135 21.6824 60.4992 21.6824C62.1282 21.6827 63.7555 21.7871 65.3705 21.9949C65.2266 21.8038 65.099 21.6015 64.9891 21.39C64.5104 20.4916 63.838 19.7048 63.018 19.0835C62.1832 19.0326 61.3442 19 60.5009 19C59.2114 19 57.9324 19.0599 56.6641 19.1796C57.1699 19.5558 57.6271 19.9903 58.0259 20.4736Z" fill="black"/>
<path d="M62.9743 98.5247C62.4048 97.8794 61.6194 97.4515 60.7572 97.3167C60.6715 97.3167 60.5858 97.3167 60.5001 97.3167C58.8708 97.3166 57.2432 97.2122 55.6279 97.0043C55.7723 97.1955 55.9001 97.3981 56.0102 97.6099C56.4886 98.5085 57.1611 99.2953 57.9813 99.9164C58.816 99.9674 59.6559 100 60.4992 100C61.7882 100 63.0668 99.9401 64.3352 99.8204C63.8295 99.4437 63.3725 99.0086 62.9743 98.5247Z" fill="black"/>
<path d="M22.0593 66.0757C22.6356 65.4351 22.9767 64.6256 23.0286 63.7751C22.8693 62.3552 22.7892 60.9279 22.7886 59.4995C22.7886 59.1899 22.7923 58.8808 22.7997 58.5723C22.6392 58.7199 22.4673 58.8554 22.2855 58.9774C21.35 59.6251 20.5835 60.4778 20.0479 61.4669C20.1474 63.5692 20.4102 65.6611 20.8337 67.7248C21.1671 67.1256 21.5791 66.5712 22.0593 66.0757Z" fill="black"/>
<path d="M33.2448 87.48C33.3398 86.6178 33.1352 85.7494 32.6637 85.014C31.5057 83.7464 30.4363 82.4046 29.4627 80.9974C29.4189 81.2117 29.3587 81.4226 29.2828 81.6282C28.9148 82.6628 28.7883 83.7644 28.9125 84.8527C29.8193 85.9794 30.7862 87.0588 31.8092 88.0865C32.2663 88.5443 32.7314 88.9899 33.2045 89.4232C33.1373 88.7762 33.1508 88.1238 33.2448 87.48Z" fill="black"/>
<path d="M81.361 26.4517C81.4435 27.2962 81.8123 28.0899 82.4092 28.7072C83.8156 29.7189 85.1493 30.823 86.4012 32.012C86.3985 31.7845 86.414 31.5572 86.4474 31.332C86.5915 30.2661 86.4934 29.1824 86.1603 28.1576C84.5404 26.8261 82.8156 25.6209 81.002 24.5529C81.1998 25.1694 81.3203 25.8069 81.361 26.4517Z" fill="black"/>
<path d="M66.1665 20.8061C66.5759 21.5353 67.2279 22.1069 68.015 22.4267C69.7154 22.7699 71.3886 23.2308 73.0217 23.8059C72.9264 23.5975 72.8478 23.3822 72.7869 23.1619C72.4975 22.1622 71.9887 21.2358 71.2957 20.4469C69.268 19.891 67.198 19.4941 65.1055 19.2598C65.5212 19.732 65.8774 20.2512 66.1665 20.8061Z" fill="black"/>
<path d="M24.2598 73.9493C24.6792 73.2272 24.8484 72.3925 24.7423 71.5693C24.185 69.9019 23.7455 68.1993 23.4268 66.4734C23.3017 66.6476 23.1634 66.8123 23.0129 66.9663C22.2291 67.7953 21.6543 68.791 21.334 69.8743C21.8669 71.9001 22.5589 73.883 23.4037 75.8055C23.6064 75.1536 23.8941 74.5297 24.2598 73.9493Z" fill="black"/>
<path d="M98.7174 60.0226C99.6535 59.3747 100.421 58.5218 100.957 57.5323C100.857 55.4297 100.594 53.3375 100.17 51.2736C99.8357 51.873 99.4226 52.4274 98.9411 52.9226C98.3644 53.5633 98.0236 54.3732 97.9727 55.2241C98.1313 56.644 98.2112 58.0713 98.2118 59.4996C98.2118 59.8093 98.208 60.1184 98.2006 60.4269C98.3621 60.2795 98.5348 60.1443 98.7174 60.0226Z" fill="black"/>
<path d="M95.3211 44.9304C95.4063 44.7381 95.5057 44.5522 95.6185 44.374C96.2083 43.4102 96.5634 42.3273 96.6564 41.2088C95.7128 39.3509 94.624 37.5665 93.3997 35.8715C93.3337 36.5333 93.1837 37.1846 92.9532 37.8104C92.6888 38.6089 92.6984 39.4696 92.9806 40.2623C93.8696 41.7642 94.6516 43.3239 95.3211 44.9304Z" fill="black"/>
<path d="M96.7409 45.0499C96.3215 45.7717 96.1523 46.6061 96.2584 47.4291C96.8156 49.0965 97.2551 50.7991 97.5739 52.525C97.699 52.3511 97.8374 52.1866 97.9878 52.0329C98.772 51.2037 99.3471 50.2078 99.6676 49.1241C99.1348 47.0982 98.4429 45.1153 97.5979 43.1929C97.3949 43.8451 97.1069 44.4692 96.7409 45.0499Z" fill="black"/>
<path d="M78.5835 94.1356C77.8366 93.7955 76.9925 93.7155 76.1924 93.9092C74.5953 94.643 72.9458 95.2631 71.2568 95.7646C71.463 95.8799 71.659 96.0115 71.843 96.1581C72.6633 96.7949 73.6203 97.2432 74.6429 97.4696C76.6425 96.7268 78.5768 95.827 80.4269 94.7788C79.7868 94.6419 79.1673 94.4258 78.5835 94.1356Z" fill="black"/>
<path d="M75.8008 72.0521L68.6679 62.6239C69.8417 62.1711 70.9264 61.5239 71.874 60.7108C73.6034 59.218 75.6663 56.4061 75.6663 51.484C75.7853 48.4741 74.5701 45.5598 72.3308 43.4843C68.8042 40.3291 64.1566 40.4293 62.6653 40.4293H48.4929C46.2283 40.4454 44.403 42.2426 44.4092 44.45C44.4092 44.5336 44.4221 44.6614 44.4221 44.7474V48.3596H64.3905C66.207 48.4145 67.6533 49.8604 67.6635 51.6319V52.3904C67.6428 54.1365 66.182 55.5399 64.3905 55.5348H61.2401C59.6984 55.536 58.2885 56.3823 57.5935 57.7238C56.8986 59.0652 57.0367 60.6736 57.9509 61.8837L69.2189 76.7787C70.085 77.924 71.5121 78.532 72.9627 78.3735C74.4132 78.2151 75.6669 77.3144 76.2515 76.0107C76.836 74.7069 76.6626 73.1982 75.7965 72.0529L75.8008 72.0521Z" fill="#FF0000"/>
<path d="M44.4219 55.5339V74.2274H44.4707C44.7354 76.6464 46.8413 78.4739 49.3369 78.4503C51.8156 78.4506 53.9044 76.6469 54.203 74.2483L54.2561 55.5356L44.4219 55.5339Z" fill="black"/>
</svg>
