<svg width="120" height="120" viewBox="0 0 120 120" fill="none" xmlns="http://www.w3.org/2000/svg">
<circle cx="60" cy="60" r="60" fill="#EDF0F4"/>
<circle cx="46.4826" cy="27.0451" r="6.06515" fill="#8352A1"/>
<circle cx="73.6711" cy="93.1342" r="6.06515" fill="#3E99D3"/>
<path d="M41.8607 52.0518C39.9596 49.5912 40.4132 46.0553 42.8738 44.1542L70.9759 22.4423C73.4365 20.5412 76.9723 20.9948 78.8734 23.4554C80.7745 25.916 80.3209 29.4519 77.8603 31.3529L49.7582 53.0649C47.2976 54.966 43.7618 54.5124 41.8607 52.0518Z" fill="#E53C54"/>
<path d="M41.8582 74.221C39.9572 71.7603 40.4107 68.2245 42.8713 66.3234L70.9734 44.6115C73.434 42.7104 76.9699 43.164 78.871 45.6246C80.7721 48.0852 80.3185 51.621 77.8579 53.5221L49.7558 75.2341C47.2952 77.1351 43.7593 76.6816 41.8582 74.221Z" fill="#F49352"/>
<path d="M41.4422 97.2288C39.5411 94.7682 39.9947 91.2323 42.4553 89.3312L70.5574 67.6193C73.018 65.7182 76.5539 66.1718 78.455 68.6324C80.356 71.093 79.9025 74.6289 77.4419 76.5299L49.3398 98.2419C46.8792 100.143 43.3433 99.6894 41.4422 97.2288Z" fill="#3EBB90"/>
</svg>
