<svg width="120" height="120" viewBox="0 0 120 120" fill="none" xmlns="http://www.w3.org/2000/svg">
<circle cx="60" cy="60" r="60" fill="#EDF0F4"/>
<path d="M60.7976 68.8595C61.3456 72.79 60.8795 77.1173 64.306 80.6446C66.309 82.7043 65.5217 85.8789 63.4179 87.6804C61.2844 89.5704 58.087 89.6079 55.9097 87.7685C53.6547 85.8789 52.7603 82.6287 54.8263 80.4934C58.2151 76.9535 57.9064 72.6892 58.3096 68.469C58.4103 67.436 58.9394 66.0629 57.2325 65.6408C55.6767 65.2566 54.4988 63.2788 52.4706 64.9669C49.1574 67.7195 44.9939 69.376 43.5955 74.2324C42.7389 77.1866 39.2557 78.1251 36.4905 77.0165C33.9232 76.0824 32.3872 73.4501 32.8372 70.7555C33.3915 67.732 36.1441 65.1936 39.1801 65.9684C43.7089 67.1211 47.0851 64.8598 50.7825 63.241C51.5698 62.8946 53.1319 62.6111 52.6217 61.5403C51.7651 59.783 53.3209 57.2193 51.0029 56.1611C47.3685 54.5046 44.0365 52.0039 39.4635 53.2952C36.3141 54.177 33.5679 51.878 32.938 48.8293C32.3076 45.8088 34.0823 42.8055 37.0322 41.9007C39.9674 41.0755 43.331 42.4927 44.0743 45.6107C45.2332 50.2844 49.4975 51.437 52.5084 54.0133C52.7162 54.1896 53.2327 54.3408 53.3461 54.2337C54.7192 52.9173 56.4451 52.1236 57.9442 51.0339C58.9205 50.3222 58.1773 48.6656 58.0639 47.4436C57.7931 44.3446 57.5222 41.3653 55.0657 38.8142C52.8548 36.5215 53.4343 33.202 55.6955 31.2179C57.9175 29.2211 61.3026 29.2733 63.462 31.3376C65.6477 33.3784 66.0697 36.6286 63.8903 38.978C61.944 41.0755 61.3204 43.3872 61.0117 46.0516C60.426 50.8827 60.9425 51.9032 65.3516 53.9188C65.7673 54.114 66.1264 54.2778 66.4854 53.9818C69.4647 51.5063 73.6282 50.404 74.8565 45.9256C75.5793 42.8866 78.6242 41.005 81.6655 41.718C81.8573 41.7621 82.0466 41.8168 82.2324 41.8818C84.985 42.7888 86.6416 45.9634 85.955 49.0057C85.3566 51.9881 82.4575 53.9237 79.4735 53.333C79.2972 53.2952 79.1208 53.2511 78.9507 53.2007C74.3211 51.8024 71.0205 54.599 67.5562 56.4068C65.824 57.3012 66.8633 60.0412 66.1768 61.8868C65.7925 62.9261 67.5877 63.1465 68.4632 63.5496C72.1228 65.2818 75.5809 67.2344 80.0845 66.0692C82.9757 65.3133 85.6275 67.9588 86.0306 70.8751C86.502 73.5833 84.9221 76.229 82.3143 77.0984C79.4987 78.0936 76.1982 77.0165 75.3478 73.949C73.9495 68.9099 69.5907 67.2722 66.0508 64.6834C64.1674 63.3418 60.6905 66.0566 60.7976 68.8595Z" fill="#09CBCD"/>
<path d="M63.342 16L95.4659 34.5059C90.0048 38.7198 88.9403 38.7954 83.4981 35.646C78.2449 32.6015 72.9959 29.5697 67.7511 26.5505C62.8318 23.716 62.1641 22.1602 63.342 16Z" fill="#09CBCD"/>
<path d="M23.5337 84.5373C27.5838 80.9155 31.2623 80.3486 35.6967 83.3783C40.5342 86.6789 45.7748 89.337 50.8831 92.2911C56.1615 95.3523 56.6402 96.4168 55.6009 103.062L23.5337 84.5373Z" fill="#09CBCD"/>
<path d="M23.647 34.4807L55.6449 16C56.8354 22.2295 56.2244 23.653 51.2357 26.5316C46.0707 29.5298 40.7104 32.2446 35.7785 35.5893C31.4008 38.5686 27.7034 38.1718 23.647 34.4807Z" fill="#09CBCD"/>
<path d="M95.3776 84.3609L63.4616 103.012C62.1577 97.0592 62.8821 95.3649 67.7637 92.5367C73.0232 89.4944 78.4717 86.7103 83.5107 83.3278C87.7498 80.4556 91.359 80.739 95.3776 84.3609Z" fill="#09CBCD"/>
<path d="M20 40.8865C25.2343 42.3856 27.2814 45.4657 26.9287 50.7504C26.5004 56.6902 26.8342 62.7181 26.8279 68.6579C26.8279 74.4024 25.9587 75.5866 20.0189 77.64L20 40.8865Z" fill="#08CBCD"/>
<path d="M98.9805 77.7282C92.7825 75.2087 92.2471 74.4591 92.2471 68.2422V48.1238C92.2429 44.7544 94.6466 41.8631 97.9601 41.2518C99.7615 40.8928 99.2199 42.2533 99.2199 42.9966C99.2702 48.2309 99.2199 53.4652 99.2199 58.6995V76.9346C99.168 77.2067 99.0878 77.4727 98.9805 77.7282Z" fill="#08CBCD"/>
</svg>
