<svg width="120" height="120" viewBox="0 0 120 120" fill="none" xmlns="http://www.w3.org/2000/svg">
<path d="M60 120C93.138 120 120 93.138 120 60C120 26.862 93.138 0 60 0C26.862 0 0 26.862 0 60C0 93.138 26.862 120 60 120Z" fill="#EDF0F4"/>
<path d="M82.9721 32.024C82.7187 32.024 82.4884 32.024 82.2351 32.048H75.6717V33.4866C77.9977 33.4866 80.3007 33.5106 82.6266 33.4866C83.2024 33.5106 83.8242 33.4627 84.3538 33.6545C84.8144 33.8703 85.2059 34.3258 85.5744 34.6855C89.3051 38.7137 93.128 42.622 96.8588 46.6501C84.5841 59.5499 72.2864 72.4497 60.0118 85.3494C47.6911 72.4257 35.4164 59.5259 23.1187 46.6022C26.8034 42.7658 30.419 38.9055 34.1037 35.0691C34.7716 34.4218 35.3703 33.5106 36.4067 33.5346C39.3774 33.4866 42.3713 33.5586 45.3651 33.5106C45.4111 33.5106 45.4802 33.5106 45.5263 33.5106H50.7079L51.4679 32.024H41.0586H37.7884C36.9363 32.024 36.0842 31.9761 35.2552 32.1199C34.7255 32.2398 34.288 32.6714 33.9195 33.0311C30.373 36.7475 26.8495 40.464 23.326 44.2045C22.589 44.9957 21.8521 45.8829 21 46.5303V46.6262C22.9575 48.5204 24.7768 50.5584 26.6652 52.5246C37.7884 64.2015 48.9116 75.8544 60.0348 87.5074C72.3555 74.5836 84.6532 61.6839 96.9509 48.7601C97.6418 48.0408 98.2636 47.3215 99.0235 46.6741V46.5542C98.3327 45.9308 97.7109 45.2115 97.066 44.5401C93.3813 40.6558 89.6736 36.7955 86.0119 32.8872C85.6665 32.5515 85.275 32.1439 84.7684 32.072C84.1696 32.048 83.5708 32.024 82.9721 32.024Z" fill="#6666FF"/>
<path fill-rule="evenodd" clip-rule="evenodd" d="M75.6718 34.6855V36.1481H80.2086C80.4773 36.1549 80.7442 36.1579 81.0098 36.1608C81.6772 36.1681 82.3361 36.1754 82.9951 36.244C83.3756 36.2648 83.6341 36.5213 83.892 36.7771C83.9307 36.8155 83.9693 36.8538 84.0084 36.8914C85.3088 38.2556 86.605 39.6286 87.9025 41.0028L87.9033 41.0037L87.9042 41.0047C89.6391 42.8423 91.376 44.6821 93.128 46.5063L61.8311 79.451C61.4481 79.8657 61.055 80.2697 60.6584 80.6773L60.6582 80.6776C60.4586 80.8826 60.2582 81.0886 60.0579 81.2972C49.0498 69.6922 38.0418 58.1112 27.0107 46.5302C29.9585 43.3652 32.9292 40.2482 35.9 37.1312L35.9 37.1312C36.1994 36.7955 36.5449 36.5077 36.9133 36.292C37.3739 36.196 37.8345 36.1481 38.2951 36.1721C42.118 36.196 45.9408 36.196 49.7637 36.196C49.7637 36.1483 49.765 36.1009 49.7674 36.0539C49.7729 35.9863 49.7786 35.9188 49.7853 35.8517C49.8203 35.5706 49.8954 35.3018 49.994 35.0451V35.0212C49.994 35.0142 49.994 35.0093 49.9951 35.0046C49.9979 34.9932 50.0073 34.9833 50.0401 34.9492C50.0516 34.9133 50.0689 34.8833 50.0861 34.8533C50.1034 34.8233 50.1207 34.7934 50.1322 34.7574H41.4041H37.6042H37.5812C37.5223 34.7595 37.4637 34.7613 37.4056 34.763C36.8042 34.7809 36.2428 34.7976 35.7388 35.213C35.2225 35.6292 34.7784 36.1332 34.3369 36.6343L34.3369 36.6343L34.3368 36.6344C34.1679 36.8261 33.9994 37.0173 33.8274 37.2031C30.8566 40.2722 27.8628 43.3892 24.938 46.5302C36.637 58.8545 48.3359 71.1549 60.0579 83.4552L60.3961 83.0993C71.3831 71.5415 82.3479 60.0069 93.3353 48.4724C93.5073 48.2862 93.6896 48.1021 93.8735 47.9163L93.8736 47.9162C94.3054 47.4801 94.7464 47.0346 95.0855 46.5302C94.9013 46.2425 94.694 45.9548 94.4407 45.715C93.3136 44.5318 92.1938 43.3487 91.0756 42.1671C89.4064 40.4033 87.7405 38.6431 86.058 36.8914C85.8921 36.7186 85.7297 36.5403 85.5669 36.3616C85.1423 35.8955 84.7151 35.4265 84.2157 35.0451C83.7151 34.6826 82.9882 34.6841 82.385 34.6853L82.2812 34.6855H75.6718ZM49.8517 35.4329C49.8665 35.3763 49.8833 35.3191 49.9019 35.2609C49.8822 35.3172 49.8657 35.3747 49.8517 35.4329ZM49.8517 35.4329C49.793 35.6563 49.7637 35.8706 49.7637 36.1001C49.765 36.0847 49.7662 36.0693 49.7674 36.0539C49.771 35.9858 49.777 35.9184 49.7853 35.8517C49.7996 35.7094 49.8189 35.5688 49.8517 35.4329Z" fill="#6666FF"/>
<path d="M39.8841 37.4668C39.5617 37.4908 39.2393 37.4908 38.9169 37.4908C38.8478 37.4908 38.8017 37.4908 38.7326 37.4908C38.3181 37.4908 37.9036 37.5387 37.489 37.6346C37.0285 37.8025 36.637 38.2101 36.3145 38.5218C33.7813 41.1833 31.2941 43.8447 28.7839 46.5062C39.1702 57.4878 49.6255 68.3974 60.0118 79.379C61.0942 78.3 62.1535 77.1491 63.2129 76.0462C72.5398 66.1915 81.8897 56.3609 91.2626 46.5302C88.9827 44.0126 86.5877 41.5909 84.2617 39.0972C83.8242 38.5937 83.3636 38.1621 82.8339 37.7785C82.3963 37.5148 81.8206 37.5148 81.314 37.5148H75.6718V39.0013C77.3299 39.0013 78.965 39.0013 80.6231 38.9774C81.2218 39.0013 81.9127 38.9294 82.3733 39.361C82.9721 39.9125 83.5478 40.4879 84.1005 41.1113C85.7586 42.9096 87.5319 44.636 89.1209 46.4822C88.6603 47.1536 88.0155 47.753 87.4398 48.3525C78.2741 57.9434 69.1775 67.6062 59.9887 77.1731C50.9612 67.6781 41.9337 58.1831 32.9062 48.6881C32.2383 47.9688 31.4784 47.2975 30.9026 46.5062C31.3172 45.8588 31.939 45.3074 32.4456 44.7559C33.9195 43.1974 35.4394 41.6149 36.9133 40.0563C37.2357 39.6967 37.6042 39.361 38.0417 39.1212C38.4793 39.0013 38.9169 38.9534 39.3544 38.9774C42.8779 39.0013 46.3784 39.0013 49.9019 39.0013V38.9774H51.3297C51.3067 38.9774 51.2836 38.9774 51.2606 38.9534C50.6849 38.6177 50.2243 38.0902 49.971 37.4668H39.8841Z" fill="#6666FF"/>
<path d="M41.2198 40.2482C40.1144 40.2482 39.009 40.3681 38.0417 40.9435C37.1666 41.447 36.5218 42.3821 35.8539 43.1254C34.8176 44.2763 33.7352 45.3793 32.6298 46.4823C34.2879 48.3285 36.0382 50.0788 37.7423 51.9011C45.1578 59.7177 52.5733 67.5103 60.0118 75.3029C69.1314 65.712 78.251 56.1211 87.3707 46.5542C85.9889 45.0196 84.515 43.605 83.1563 42.0944C82.7418 41.5909 82.2812 41.1113 81.7515 40.7277C81.2218 40.3681 80.5079 40.392 79.9091 40.3681H75.6487V41.8067C77.1456 41.8307 78.6425 41.8546 80.1394 41.8546C80.9224 41.8307 81.337 42.3821 81.8436 42.8857C82.972 44.1085 84.1235 45.3313 85.275 46.5302C76.8923 55.4497 68.3944 64.2734 60.0118 73.1689C52.1357 64.9207 44.3057 56.6726 36.4527 48.4004C35.877 47.801 35.2321 47.2016 34.7716 46.5062C35.3933 45.667 36.1994 44.9717 36.8903 44.1804C37.5811 43.4851 38.1799 42.6938 38.9399 42.0944C39.2623 41.8307 39.6538 41.8546 40.0453 41.8307C43.3155 41.7348 46.6087 41.7827 49.9019 41.7827V41.7587H52.9187C52.5733 41.3511 52.343 40.8716 52.2048 40.3441V40.3201H46.862C46.7699 40.3201 46.6777 40.3201 46.6087 40.3201C44.8124 40.2721 43.0161 40.2482 41.2198 40.2482Z" fill="#6666FF"/>
<path d="M41.1738 43.1014C40.6901 43.1254 40.1144 43.0775 39.6538 43.2933C39.1011 43.605 38.6636 44.1564 38.226 44.612C37.6733 45.2114 37.0285 45.7869 36.5449 46.4583C36.8442 47.0577 37.42 47.5372 37.8806 48.0408C45.25 55.7614 52.5733 63.53 59.9427 71.2267C67.7497 62.9786 75.5797 54.7544 83.4096 46.5302C82.4885 45.5471 81.5903 44.4921 80.577 43.605C80.0934 43.1014 79.5407 43.1734 78.8959 43.1494H75.6257V44.588H77.5141C78.2971 44.612 79.1492 44.588 79.8401 45.0436C80.4158 45.4272 80.8764 46.0506 81.337 46.5781C74.1979 54.083 67.0588 61.5639 59.9427 69.0928C52.7806 61.5879 45.6645 54.0351 38.5024 46.5542C39.032 45.9787 39.4926 45.4033 40.2065 45.0436C41.1277 44.5641 42.2101 44.5401 43.2234 44.5641C45.4342 44.636 47.645 44.588 49.8558 44.588H54.7611C54.5769 44.1325 54.5308 43.6289 54.5999 43.1494H48.9577C46.3784 43.1014 43.7761 43.1254 41.1738 43.1014Z" fill="#6666FF"/>
<path fill-rule="evenodd" clip-rule="evenodd" d="M72.9719 38.3837C72.9823 39.2313 72.9926 40.0809 73.0004 40.9195C73.0087 41.6694 73.0171 42.4319 73.0255 43.1944C73.0401 44.5288 73.0548 45.8632 73.0695 47.1296C73.0925 47.6811 72.9082 48.2086 72.5398 48.5922C72.1713 48.9519 71.6877 49.1437 71.2041 49.1197H71.0429C69.6381 49.0478 68.5327 47.9209 68.4175 46.4823C68.3715 45.9787 68.3715 45.4752 68.3715 45.0196V44.636C68.3484 44.1565 68.3024 43.6769 68.2103 43.1974C68.1872 42.9576 68.003 42.7898 67.7957 42.7658H67.7266C67.7036 42.7658 67.6345 42.7658 67.5424 42.9336C66.8976 44.1325 66.2528 45.3793 65.5388 46.8179C65.2678 47.3824 64.9702 47.9653 64.6515 48.5894C64.4558 48.9726 64.2522 49.3715 64.0419 49.7911C63.8116 50.2227 63.5123 50.7982 63.1898 51.4455C62.6832 52.5005 62.0153 53.7713 61.3475 55.0421C60.933 55.8574 60.1039 56.3609 59.2288 56.3609C58.4228 56.3609 57.6398 55.9533 57.1561 55.2819C56.5574 54.4667 56.5113 53.3637 56.9949 52.5005C57.3393 51.8252 57.6837 51.1527 58.027 50.4821C58.6711 49.2243 59.3118 47.9732 59.9427 46.722L60.15 46.3144H59.9657C59.5051 46.3144 59.0676 46.1945 58.6761 45.9548C57.4095 45.2115 56.9259 43.7488 57.5246 42.502L57.5476 42.4541H57.3634C56.6034 42.4301 55.8895 42.0704 55.4289 41.447C54.8532 40.7517 54.715 39.7926 55.0605 38.9534H54.8993C54.5999 38.9534 54.3235 38.9054 54.0702 38.8095C52.7806 38.33 52.1127 36.8434 52.5733 35.5007C52.7115 35.141 52.8727 34.7574 53.0799 34.3498C53.103 34.2898 53.149 34.1939 53.2037 34.08C53.2584 33.9661 53.3218 33.8343 53.3793 33.7024C53.4599 33.5226 53.5463 33.3427 53.6211 33.1869C53.696 33.031 53.7593 32.8991 53.7939 32.8152L54.1854 32H72.9313V33.4866C72.9313 35.0461 72.9516 36.7111 72.9719 38.3837ZM69.8684 46.3384C69.8914 47.0577 70.4441 47.6092 71.135 47.6332C71.4804 47.6332 71.6416 47.5373 71.6877 47.0817C71.6776 45.1746 71.6497 43.1472 71.6216 41.1051C71.5857 38.5002 71.5495 35.8714 71.5495 33.4386H55.1065C55.0374 33.5825 54.8935 33.8882 54.7496 34.1939C54.6056 34.4996 54.4617 34.8053 54.3926 34.9492C54.2314 35.2849 54.0702 35.6206 53.932 35.9802C53.7708 36.4837 54.0011 37.0352 54.4617 37.275C54.4617 37.275 54.4847 37.299 54.5078 37.299C54.9453 37.5387 55.452 37.3469 55.6592 36.9153C55.7283 36.7954 55.7917 36.6696 55.855 36.5437C55.9183 36.4178 55.9817 36.2919 56.0507 36.172C56.3501 35.5966 56.8568 35.4287 57.3174 35.7165C57.7779 36.0042 57.8931 36.5317 57.6167 37.0832L56.4422 39.385C56.258 39.7207 56.3041 40.1283 56.5574 40.416C57.0871 41.0634 57.824 41.0154 58.2155 40.3201C58.3191 40.1283 58.417 39.9305 58.5149 39.7327C58.6128 39.5348 58.7106 39.337 58.8143 39.1452C58.9524 38.8575 59.2518 38.6896 59.5742 38.7136C59.7124 38.7136 59.8506 38.7616 59.9657 38.8335C60.4033 39.0733 60.5645 39.6487 60.3112 40.1043C60.0694 40.6078 59.816 41.1054 59.5627 41.6029C59.3094 42.1004 59.0561 42.5979 58.8143 43.1015C58.5609 43.6529 58.7912 44.2284 59.39 44.588C59.9197 44.9237 60.4494 44.8038 60.7487 44.2524C60.8984 43.9766 61.0424 43.6949 61.1863 43.4132C61.3302 43.1314 61.4742 42.8497 61.6238 42.574C61.9232 41.9985 62.3838 41.8546 62.8674 42.1424C63.3511 42.4301 63.4662 42.9576 63.1898 43.5091C63.0286 43.8208 62.8732 44.1265 62.7177 44.4322C62.5623 44.7379 62.4068 45.0436 62.2456 45.3553C61.909 46.0194 61.5723 46.6851 61.2353 47.3516C60.2582 49.2838 59.2777 51.2225 58.2846 53.1479C58.0543 53.5076 58.0543 54.0111 58.3306 54.3468C58.7452 54.8983 59.7124 55.0661 60.1269 54.2749C60.7705 53.0512 61.3971 51.8099 61.9241 50.7659C62.2645 50.0915 62.5634 49.4995 62.7983 49.0478C63.332 48.006 63.7993 47.0742 64.2296 46.2161C64.9878 44.7041 65.6314 43.4206 66.3218 42.1663C66.6443 41.495 67.3582 41.1353 68.0721 41.2792C68.8551 41.4231 69.4769 42.0465 69.6381 42.8617C69.7532 43.4371 69.8223 44.0126 69.8223 44.588C69.8223 45.1875 69.8223 45.7629 69.8684 46.3384Z" fill="#6666FF"/>
<path d="M65.1934 50.942L64.3182 52.6683C64.4564 53.1719 64.5255 53.7233 64.5255 54.2508C64.5255 57.3918 62.0614 59.9574 59.0445 59.9574C56.0277 59.9574 53.5635 57.3918 53.5635 54.2508C53.5635 51.8771 54.9683 49.7671 57.11 48.9279L58.0082 47.1536C54.2314 47.753 51.629 51.3975 52.2048 55.3298C52.7805 59.2621 56.281 61.9715 60.0578 61.3721C63.8346 60.7726 66.4369 57.1281 65.8612 53.1958C65.7691 52.4046 65.5388 51.6373 65.1934 50.942Z" fill="#6666FF"/>
</svg>
