<svg width="120" height="120" viewBox="0 0 120 120" fill="none" xmlns="http://www.w3.org/2000/svg">
<circle cx="60" cy="60" r="60" fill="#6916FF"/>
<path fill-rule="evenodd" clip-rule="evenodd" d="M64.3772 22.2173C64.1173 22.6838 64.2464 23.2659 64.6807 23.5855C66.5584 25.4005 68.2549 27.3859 69.7473 29.5148C73.3068 35.7168 73.1279 43.3195 69.2803 49.3552C68.7686 50.2262 68.8616 51.3155 69.5138 52.0918C70.3152 53.1842 71.8462 53.4833 73.0161 52.7759C76.9279 49.5584 77.5718 43.1489 77.8295 40.5842C77.864 40.2404 77.8916 39.9657 77.9192 39.7771C77.9158 38.1566 77.68 36.5446 77.2187 34.988C76.7385 33.489 76.113 32.0382 75.3509 30.6551C74.6288 29.2965 73.6822 28.0637 72.5491 27.0063C70.575 24.958 68.1908 23.3279 65.5446 22.2173C65.1913 21.9867 64.7305 21.9867 64.3772 22.2173ZM58.0265 94.6458C58.26 94.4178 58.26 93.9617 57.793 93.5056C55.891 91.6938 54.171 89.7083 52.6564 87.5763C49.0969 81.3743 49.2758 73.7716 53.1234 67.736C53.8264 66.953 53.8264 65.7823 53.1234 64.9994C52.322 63.9069 50.791 63.6078 49.6211 64.3152C45.7093 67.5327 45.0654 73.9422 44.8077 76.5069C44.7732 76.8507 44.7456 77.1254 44.718 77.314C44.7214 78.9345 44.9572 80.5465 45.4185 82.1031C45.8987 83.6021 46.5242 85.0529 47.2863 86.436C48.0084 87.7946 48.955 89.0274 50.0881 90.0848C52.0622 92.1331 54.4464 93.7632 57.0926 94.8739C57.3261 95.1019 57.793 94.8739 58.0265 94.6458Z" fill="white" fill-opacity="0.5"/>
<path d="M77.9426 74.6915C77.6147 70.3359 75.9003 66.1895 73.0395 62.8329C70.1711 59.926 66.864 57.465 63.2332 55.5354C60.0701 53.7726 57.0976 51.7021 54.3609 49.3552C52.0893 47.1944 50.5424 44.4112 49.9248 41.3735C49.368 38.2219 49.7656 34.9801 51.0688 32.0462C52.6158 28.8095 54.8526 25.9327 57.6297 23.6084C57.948 23.3156 58.0417 22.858 57.8632 22.4682C57.7347 22.2258 57.4968 22.0567 57.2211 22.0118C56.9455 21.9669 56.6643 22.0515 56.4623 22.2401C52.7154 23.8984 49.5493 26.5944 47.3565 29.9938C44.8645 33.6168 43.704 37.958 44.0644 42.3085C44.2486 44.5098 44.8007 46.6668 45.6987 48.6939C46.6666 50.685 47.925 52.5286 49.4345 54.1671C52.3884 57.0145 55.7749 59.3991 59.4742 61.2366C62.6434 62.8922 65.6185 64.8804 68.3465 67.1659C70.7595 69.314 72.3286 72.2178 72.7827 75.3757C73.4403 78.6837 73.0325 82.1094 71.6153 85.1818C70.0421 88.3951 67.7237 91.2061 64.8443 93.3916C64.653 93.5081 64.5194 93.6965 64.4752 93.9124C64.431 94.1283 64.4801 94.3525 64.6108 94.5318C64.7393 94.7742 64.9772 94.9433 65.2528 94.9882C65.5285 95.0331 65.8097 94.9485 66.0117 94.7599C69.501 92.7254 72.5217 90.0079 74.884 86.7782C77.1972 83.171 78.2689 78.9359 77.9426 74.6915Z" fill="white"/>
</svg>
