<svg width="120" height="120" viewBox="0 0 120 120" fill="none" xmlns="http://www.w3.org/2000/svg">
<circle cx="60" cy="60" r="60" fill="#EDF0F4"/>
<path fill-rule="evenodd" clip-rule="evenodd" d="M60.4664 69.3926L37.5485 56.2993C34.0619 60.8112 32 66.3962 32 72.4428C32 87.4351 44.6763 99.5888 60.3134 99.5888C60.3643 99.5888 60.4154 99.5886 60.4664 99.5883V69.3926Z" fill="#47A2F8"/>
<path fill-rule="evenodd" clip-rule="evenodd" d="M60.4668 69.3926L83.3847 56.2993C86.8712 60.8112 88.9332 66.3962 88.9332 72.4427C88.9332 87.4351 76.2569 99.5888 60.6198 99.5888C60.5687 99.5888 60.5178 99.5888 60.4668 99.5885V69.3926Z" fill="#7EC6F9"/>
<path d="M60.4668 21L40.6475 51.3795L60.4668 40.1306V21Z" fill="#47A2F8"/>
<path d="M60.4668 21L80.2861 51.3795L60.4668 40.1306V21Z" fill="#7EC6F9"/>
<path d="M60.4668 62.8578L40.6475 51.3794L60.4668 40.1306V62.8578Z" fill="#7EC6F9"/>
<path d="M60.4668 62.8578L80.2861 51.3794L60.4668 40.1306V62.8578Z" fill="#D2ECFD"/>
<path d="M60.4668 69.4387L83.4236 56.2769L60.4668 99.5886V69.4387Z" fill="#D2ECFD"/>
<path d="M60.4665 69.4387L37.5098 56.2769L60.4665 99.5886V69.4387Z" fill="#7EC6F9"/>
</svg>
