<svg width="120" height="120" viewBox="0 0 120 120" fill="none" xmlns="http://www.w3.org/2000/svg">
<path fill-rule="evenodd" clip-rule="evenodd" d="M60 120C27 120 0 93.0006 0 59.7012C0.3 26.7019 27 -0.297518 60.3 0.00247602C93.3 0.30247 120 27.0019 120 60.6012C119.7 93.3006 93 120 60 120Z" fill="#EDF0F4"/>
<path fill-rule="evenodd" clip-rule="evenodd" d="M59.7941 24.6216C61.0023 24.6216 61.9817 25.601 61.9817 26.8092C61.9749 28.0145 60.9995 28.99 59.7941 28.9968C58.5859 28.9968 57.6065 28.0173 57.6065 26.8092C57.6065 25.601 58.5859 24.6216 59.7941 24.6216ZM28.8879 76.5912C28.8879 75.383 29.8673 74.4036 31.0755 74.4036V74.404C31.859 74.4072 32.5828 74.8227 32.9807 75.4976C33.1571 75.8504 33.2631 76.2032 33.2631 76.5912C33.2631 77.7994 32.2837 78.7788 31.0755 78.7788C29.8673 78.7788 28.8879 77.7994 28.8879 76.5912ZM88.6563 45.7906C89.8645 45.7906 90.8439 44.8112 90.8439 43.603C90.8439 42.3949 89.8645 41.4155 88.6563 41.4155C87.4481 41.4155 86.4687 42.3949 86.4687 43.603C86.4701 43.9743 86.5674 44.3389 86.7511 44.6614C87.1338 45.3561 87.8632 45.7884 88.6563 45.7906ZM29.1331 42.4035C29.7327 41.3451 31.0383 40.9919 32.0967 41.5919C33.1551 42.1915 33.5083 43.5322 32.9083 44.5554C32.3087 45.6138 31.0031 45.9666 29.9447 45.367C28.8863 44.7674 28.5335 43.4618 29.1331 42.4035ZM89.5363 74.8268C89.2187 74.6152 88.8307 74.5444 88.4427 74.5092C87.6542 74.4986 86.9209 74.9131 86.5236 75.5943C86.1262 76.2754 86.1262 77.1178 86.5236 77.7989C86.9209 78.4801 87.6542 78.8946 88.4427 78.884C89.2187 78.884 89.9227 78.4608 90.3479 77.7904C90.9479 76.7672 90.5947 75.4264 89.5363 74.8268ZM59.0177 95.3599C58.1005 95.0071 57.5005 94.0547 57.6065 93.0667V93.0663C57.6102 93.0396 57.6226 93.0149 57.6417 92.9959C57.8268 91.8166 58.9276 91.0067 60.1086 91.181C61.2895 91.3553 62.1095 92.4486 61.9461 93.6311C61.7387 94.7149 60.7916 95.4993 59.6881 95.5011C59.4765 95.5011 59.2293 95.4303 59.0177 95.3599Z" fill="#2683FF"/>
<path fill-rule="evenodd" clip-rule="evenodd" d="M90.877 70.4168C91.1573 70.5247 91.4287 70.6545 91.6886 70.8048C94.7934 72.71 95.8518 76.732 94.089 80.0136C92.2534 83.2947 88.0891 84.4591 84.8091 82.6243C84.493 82.4484 84.2122 82.238 83.9312 82.0274L83.9271 82.0243L66.3568 92.1499C66.3991 92.4776 66.4226 92.8075 66.4272 93.1379C66.4272 93.5263 66.4272 93.8791 66.3568 94.2671C65.7572 97.9718 62.2645 100.512 58.5597 99.9122C54.8549 99.3122 52.3145 95.8195 52.9145 92.1151L35.2386 81.9188C34.9562 82.1303 34.6742 82.3067 34.3919 82.4831C34.3118 82.5231 34.2317 82.566 34.1507 82.6093C33.9466 82.7184 33.7373 82.8304 33.5099 82.9063C30.0167 84.3175 26.0651 82.6227 24.6539 79.1312C23.2427 75.6396 24.9367 71.6868 28.4299 70.2756V49.883C28.1087 49.7782 27.8009 49.6362 27.5127 49.4598C27.2307 49.2834 26.9835 49.107 26.7367 48.9306C24.7704 47.4606 23.7458 45.0473 24.0541 42.6116C24.3623 40.176 25.9558 38.094 28.2263 37.1602C30.4969 36.2265 33.0941 36.585 35.0266 38.0991L52.8789 27.7615C52.8757 27.7328 52.8725 27.7044 52.8694 27.6762C52.8376 27.3929 52.8085 27.1332 52.8085 26.8444C52.8085 23.1048 55.9485 20 59.6885 20C63.4284 20 66.4964 23.034 66.4968 26.8088C66.4968 27.0969 66.4678 27.3563 66.4361 27.6395C66.4329 27.668 66.4296 27.6968 66.4264 27.7259L84.4199 38.1339C84.6667 37.9575 84.9135 37.7811 85.1959 37.6399C88.4779 35.8059 92.6418 37.0039 94.4758 40.2859C96.3098 43.5678 95.1098 47.731 91.8298 49.5658C91.7232 49.6131 91.6165 49.6644 91.5098 49.7157C91.2989 49.8171 91.088 49.9186 90.877 49.989V70.4168ZM85.7967 81.2128C88.2663 82.6591 91.477 81.8124 92.9234 79.3428H92.9242C94.4042 76.838 93.5586 73.6624 91.1242 72.216C89.1553 71.0552 86.6574 71.328 84.9855 72.8864L76.9055 68.194C78.9167 64.0661 77.5759 59.1269 73.8008 56.5513C73.5892 55.7733 73.2716 55.0341 72.9188 54.2934L85.1259 47.379C86.3975 48.5795 88.183 49.0689 89.889 48.6846C92.7118 48.0498 94.4402 45.2274 93.8054 42.4046C93.1706 39.5819 90.3482 37.8535 87.5255 38.4883C84.7027 39.1231 82.9739 41.9458 83.6091 44.7682L71.2608 51.789C68.8616 48.9314 61.2409 47.0262 61.2409 47.0262V31.4663C62.8006 31.0003 64.0208 29.7801 64.4868 28.2203C65.2628 25.6448 63.8164 22.928 61.2409 22.152C58.6653 21.376 55.9465 22.7872 55.1705 25.3628C54.3945 27.9383 55.8409 30.6551 58.4165 31.4311V47.3074C58.4165 47.3074 54.2565 48.6834 52.6329 50.0234C50.9066 50.0636 49.2141 50.5109 47.6934 51.329L36.0858 44.661C36.4742 42.9674 36.0158 41.2034 34.8158 39.9335C32.8403 37.8167 29.5943 37.7111 27.4775 39.6867C26.4628 40.6294 25.8661 41.938 25.8198 43.3223C25.7734 44.7066 26.2813 46.0521 27.2307 47.0606C29.2063 49.1774 32.4891 49.283 34.569 47.3074L45.049 53.3054C41.2382 57.1157 40.7442 63.1137 43.849 67.4885L34.6406 72.816C33.3335 71.6164 31.5343 71.1228 29.8407 71.546C27.0264 72.219 25.2904 75.0458 25.9629 77.8602C26.6355 80.6746 29.462 82.4111 32.2765 81.7389C35.091 81.0668 36.8279 78.2406 36.1562 75.426L45.9998 69.746C48.5307 71.792 51.8403 72.6066 55.0317 71.9688C56.0162 72.4239 57.0299 72.8129 58.0661 73.1332V87.9515C56.6561 88.4103 55.4565 89.3979 54.7861 90.7387C53.4453 93.4199 54.5037 96.7362 57.2205 98.077C57.4321 98.183 57.6441 98.289 57.8909 98.3594C57.9087 98.3594 57.9265 98.3683 57.9442 98.3771C57.9618 98.3859 57.9793 98.3946 57.9969 98.3946C60.8901 99.2746 63.9616 97.6874 64.8416 94.7947C65.7216 91.9019 64.1348 88.8323 61.2417 87.9503V73.4144C61.2417 73.4144 63.8868 73.1672 65.1216 72.7792C68.5649 74.161 72.5012 73.341 75.1064 70.6992L83.3623 75.5328C82.8331 77.7552 83.8211 80.0484 85.7967 81.2128Z" fill="#2683FF"/>
<path d="M70.1672 59.3033C70.132 59.0209 70.0968 58.7741 70.0612 58.4917C70.0267 58.3007 69.9795 58.1121 69.92 57.9273C69.92 57.8569 69.8848 57.7861 69.8848 57.7157C69.8144 57.5041 69.7436 57.2569 69.6732 57.0453V57.0101C69.2246 55.8265 68.5404 54.7463 67.6621 53.8349C67.4505 53.6233 67.2741 53.4469 67.0269 53.2349L66.9917 53.1997C66.7801 53.0233 66.5685 52.847 66.3213 52.7058L66.2861 52.6706C66.0745 52.5294 65.8273 52.353 65.6157 52.2474L65.5805 52.2122C65.3525 52.0805 65.1169 51.9627 64.8749 51.8594L64.8045 51.8242C64.5577 51.7182 64.3105 51.6126 64.0285 51.5066L63.9933 51.4714C63.7109 51.401 63.4641 51.295 63.1817 51.2598H63.1465C62.8673 51.1956 62.5846 51.1484 62.2997 51.1186H62.2645C60.7618 50.9051 59.2295 51.0875 57.8189 51.6478L57.6425 51.789C57.4309 51.8594 57.0781 52.0358 56.8665 52.1418C56.7564 52.2145 56.638 52.2737 56.5137 52.3182C56.4077 52.3534 56.2313 52.4946 56.1257 52.565C56.0201 52.6354 55.7729 52.8118 55.6317 52.9178L55.5257 52.9881C55.3141 53.1293 55.1377 53.3057 54.9257 53.4821L54.7493 53.6585C54.5377 53.8701 54.3613 54.0465 54.1849 54.2585C53.7653 54.1882 53.3405 54.1528 52.915 54.1525C52.7738 54.1525 52.6682 54.1525 52.5622 54.1877C50.9394 54.2581 49.387 54.9285 48.1874 56.0225C47.5874 56.5517 47.0938 57.2225 46.7074 57.9277L46.6698 57.9997C46.561 58.2046 46.4667 58.4169 46.3874 58.6349C46.3522 58.7053 46.3522 58.7409 46.317 58.8113C46.2422 58.9941 46.1832 59.1829 46.1406 59.3757C46.1054 59.4461 46.1054 59.5521 46.0702 59.6225C46.035 59.7989 45.9998 59.9753 45.9642 60.1869C45.9642 60.2573 45.929 60.3281 45.929 60.4337C45.8997 60.7032 45.8879 60.9743 45.8938 61.2453C45.8879 61.4693 45.8997 61.6935 45.929 61.9157C45.929 61.9861 45.9642 62.0569 45.9642 62.1625C45.9994 62.3037 45.9994 62.4449 46.0346 62.5857C46.0698 62.7265 46.0698 62.7621 46.105 62.8681C46.1451 62.9695 46.1689 63.0767 46.1754 63.1857C46.1754 63.2917 46.2458 63.3973 46.2814 63.5033C46.3103 63.5882 46.3457 63.6707 46.3874 63.7501C46.4405 63.8651 46.4877 63.9829 46.5286 64.1029C46.5638 64.1733 46.599 64.2089 46.599 64.2793C47.0948 65.4413 47.9317 66.4255 48.999 67.1016C49.5282 67.4192 50.0574 67.7016 50.6218 67.8776C50.8406 67.9529 51.0647 68.0118 51.2922 68.054L51.3626 68.0892L51.9978 68.1952L52.139 68.2304C52.3858 68.2656 52.633 68.2656 52.915 68.2656C53.8678 68.2656 54.7849 68.0892 55.6317 67.7012C55.8433 67.8424 56.0197 67.9836 56.2317 68.1244L56.3021 68.1596C56.4785 68.2656 56.6901 68.3712 56.9021 68.4772H56.9365C58.9531 69.5049 61.2803 69.7439 63.4637 69.1476H63.4989C63.8163 69.0791 64.1243 68.9725 64.4161 68.83L65.3689 68.4068C66.2761 69.1146 67.3934 69.4994 68.544 69.5004C68.7908 69.5004 69.0028 69.4652 69.2496 69.4652L69.426 69.43C69.6521 69.3964 69.876 69.3492 70.0964 69.2888C70.3138 69.222 70.5261 69.1395 70.7316 69.042L70.8376 69.0068C71.0492 68.9008 71.2256 68.7952 71.4376 68.6892C72.3196 68.1248 72.99 67.278 73.378 66.3253C73.5192 66.0077 73.5896 65.6901 73.6604 65.3729V65.2669C73.6956 65.1257 73.6956 64.9845 73.7308 64.8437C73.7308 64.6673 73.766 64.4909 73.766 64.3145C73.766 61.9861 72.3196 59.9749 70.166 59.3045" fill="#2683FF"/>
</svg>
