<svg width="120" height="120" viewBox="0 0 120 120" fill="none" xmlns="http://www.w3.org/2000/svg">
<circle cx="60" cy="60" r="60" fill="#EDF0F4"/>
<path fill-rule="evenodd" clip-rule="evenodd" d="M42.2367 53.0942C41.5923 52.4544 41.23 51.5838 41.23 50.6758C41.23 49.7677 41.5923 48.8972 42.2367 48.2574L61.4615 28.9918C62.8106 27.6694 64.9696 27.6694 66.3187 28.9918C67.6411 30.3408 67.6411 32.4999 66.3187 33.849L47.0735 53.0942C46.4337 53.7385 45.5631 54.1009 44.6551 54.1009C43.747 54.1009 42.8765 53.7385 42.2367 53.0942Z" fill="#242328"/>
<path fill-rule="evenodd" clip-rule="evenodd" d="M76.9719 66.176C77.6175 66.8193 77.9804 67.6932 77.9804 68.6046C77.9804 69.516 77.6175 70.3899 76.9719 71.0332L57.7471 90.2784C56.8914 91.1857 55.6106 91.5567 54.4025 91.2474C53.1944 90.938 52.2495 89.9971 51.9351 88.7903C51.6206 87.5835 51.9863 86.3011 52.8899 85.4416L72.1351 66.176C73.4727 64.845 75.6344 64.845 76.9719 66.176ZM40.9918 70.2577C39.6694 68.9086 39.6694 66.7496 40.9918 65.4005L53.2369 53.1554C53.8767 52.511 54.7472 52.1487 55.6553 52.1487C56.5633 52.1487 57.4338 52.511 58.0737 53.1554C59.396 54.5045 59.396 56.6635 58.0737 58.0126L45.8286 70.2577C44.491 71.5887 42.3293 71.5887 40.9918 70.2577Z" fill="#242328"/>
<path fill-rule="evenodd" clip-rule="evenodd" d="M78.2168 48.9922C79.5478 50.3298 79.5478 52.4914 78.2168 53.829L65.9717 66.0741C65.1122 66.9777 63.8298 67.3434 62.623 67.029C61.4162 66.7146 60.4753 65.7697 60.1659 64.5615C59.8566 63.3534 60.2277 62.0726 61.1349 61.2169L73.38 48.9718C74.0198 48.3275 74.8903 47.9651 75.7984 47.9651C76.7065 47.9651 77.577 48.3275 78.2168 48.9718" fill="#A573FF"/>
</svg>
