<svg width="120" height="120" viewBox="0 0 120 120" fill="none" xmlns="http://www.w3.org/2000/svg">
<circle cx="60" cy="60" r="60" fill="url(#paint0_linear_1_3446)"/>
<path fill-rule="evenodd" clip-rule="evenodd" d="M57.8273 21.6453C54.3436 22.0468 51.1045 23.6363 48.6554 26.1463C46.8166 27.9669 45.0748 29.8361 43.2117 31.675C42.2791 32.6318 41.3365 33.5624 40.3938 34.5071C39.4511 35.4518 38.4113 36.4551 37.4322 37.4464C36.4531 38.4376 35.6399 39.3075 34.7336 40.2279C33.3176 41.644 31.9015 43.06 30.4855 44.4902C29.3992 45.6129 28.3371 46.7721 27.263 47.8928C26.6298 48.5624 25.948 49.1834 25.3513 49.8874C22.8885 52.8921 21.5425 56.6571 21.5421 60.5421C21.5421 60.7707 21.5421 61.0054 21.5563 61.232C21.6066 63.4628 22.1922 65.6489 23.2636 67.6062C23.8736 68.7891 24.5799 69.9197 25.3756 70.9865C25.9015 71.7269 26.2839 71.7148 26.9757 71.1423C27.1079 71.0323 27.2316 70.9126 27.3459 70.7842C28.0276 70.0661 28.6952 69.35 29.389 68.6338C30.3681 67.6062 31.3715 66.5806 32.3506 65.5408C33.3297 64.501 34.3917 63.356 35.4194 62.2818C35.9089 61.7559 36.4309 61.2704 36.9244 60.7525C37.9743 59.6419 39.002 58.497 40.0519 57.3985C41.1018 56.3001 42.1658 55.2724 43.1935 54.1982C44.2211 53.1241 45.4855 51.8092 46.6426 50.6156C47.7997 49.4221 48.7808 48.4187 49.855 47.3203C51.2528 45.8739 52.6143 44.3931 53.9979 42.9487C54.8577 42.0647 55.7417 41.2171 56.6015 40.3452C57.795 39.1517 58.9056 37.9582 60.0768 36.7647C61.2481 35.5711 62.118 34.7701 63.1213 33.7424C65.3641 31.4767 67.6035 29.1976 69.8395 26.9049C69.9838 26.7626 70.1189 26.6112 70.2441 26.4518C70.7943 25.7579 70.8408 25.6042 70.1611 25.1146C69.1233 24.2969 68.012 23.5771 66.8415 22.9643C64.7726 21.9967 62.5165 21.4954 60.2326 21.4956H60.1193C59.3564 21.4958 58.5943 21.5437 57.8375 21.6392L57.8253 21.6271L57.8273 21.6453ZM77.5893 36.3439H77.4457C75.4624 36.3446 73.5799 37.2185 72.2994 38.733C72.1862 38.8583 72.0667 38.9778 71.9413 39.091L68.2879 42.6736C67.0944 43.8692 65.8037 45.1699 64.5495 46.4241C63.5118 47.4619 62.472 48.4774 61.4464 49.5172C60.4207 50.557 59.3203 51.7141 58.2097 52.8004C57.0991 53.8867 55.9177 55.0256 54.7707 56.1443L50.6986 60.2508L43.1288 67.8226C39.7842 71.1807 36.4443 74.532 33.1092 77.8766C32.4659 78.5098 32.4538 78.5927 33.1092 79.2724C34.7093 80.8908 36.3338 82.497 37.8853 84.1274C38.8453 85.145 40.1122 85.82 41.4922 86.0492C42.7942 86.3111 44.1392 86.2661 45.4207 85.9177C46.3808 85.6802 47.267 85.2083 48 84.5442L51.9649 80.7148C52.8955 79.8206 53.8402 78.9366 54.7586 78.0283C56.5974 76.2077 58.412 74.3749 60.2508 72.5664C61.7437 71.0978 63.2731 69.6413 64.7882 68.1726L71.0047 62.1139C72.9386 60.2144 74.8847 58.3048 76.8429 56.4052C77.1088 56.0098 77.5727 55.795 78.0463 55.8482C78.5199 55.9013 78.9247 56.2135 79.0964 56.6581C80.0917 58.1117 80.6241 59.8324 80.6237 61.5941C80.6234 61.8954 80.6079 62.1965 80.5772 62.4963C80.4166 64.2723 79.684 65.9483 78.4895 67.2724C77.0553 68.8139 75.528 70.2704 74.0391 71.7512C72.977 72.8011 71.8907 73.8287 70.8267 74.8908C69.4531 76.2522 68.1038 77.6379 66.7302 78.9993C66.528 79.2259 66.3378 79.4646 66.1234 79.679L64.7741 81.0769C63.7626 82.0883 62.7329 83.0715 61.7397 84.0849C60.7464 85.0984 59.6055 86.2839 58.5435 87.3904C58.4484 87.4976 58.3412 87.5684 58.2461 87.6635C57.0505 88.7741 55.9521 89.8887 54.8172 91.0074C54.2812 91.5334 53.7673 92.0694 53.2414 92.5954C52.3351 93.5158 51.4025 94.416 50.5307 95.3547C49.9946 95.915 49.9946 96.2609 50.6278 96.704C51.6673 97.502 52.7739 98.2086 53.9352 98.8159C56.824 100.122 60.0254 100.578 63.1638 100.129C66.2789 99.759 69.2014 98.4276 71.5246 96.3196C73.2906 94.768 74.8685 93.0243 76.5151 91.3533C77.7087 90.1578 78.9042 88.8813 80.1807 87.6514L83.6318 84.176C84.6837 83.1139 85.7215 82.0499 86.7855 81C87.8496 79.9501 89.1726 78.6959 90.3661 77.5125C91.5596 76.3291 92.7552 75.1254 93.9487 73.8591C94.9004 72.89 95.7794 71.8521 96.5785 70.7539C98.0684 68.5028 98.9985 65.9282 99.2913 63.2448C99.4531 61.9118 99.4531 60.5642 99.2913 59.2313C98.9361 56.8595 98.0766 54.5914 96.7707 52.5799C95.8315 51.1566 94.7078 49.8642 93.4288 48.7363C90.1213 45.4531 86.824 42.1456 83.5893 38.7896C82.1633 37.2018 80.1301 36.2944 77.9959 36.2933H77.9514L77.5934 36.3419L77.5893 36.3439Z" fill="white"/>
<defs>
<linearGradient id="paint0_linear_1_3446" x1="-24.7678" y1="73.3235" x2="71.5285" y2="139.211" gradientUnits="userSpaceOnUse">
<stop stop-color="#FF3B3B"/>
<stop offset="1" stop-color="#FF9914"/>
</linearGradient>
</defs>
</svg>
