<svg width="120" height="120" viewBox="0 0 120 120" fill="none" xmlns="http://www.w3.org/2000/svg">
<circle cx="60" cy="60" r="60" fill="url(#paint0_linear_1_961)"/>
<path fill-rule="evenodd" clip-rule="evenodd" d="M80.9537 32.4972C76.6373 32.4972 72.9328 34.2337 69.8402 37.6902L51.8302 59.7023L40.2371 73.8589C39.7409 74.4377 39.0133 74.785 38.2525 74.785H22.2272C22.1114 74.7684 21.9956 74.8181 21.9129 74.9173C21.8468 75 21.8137 75.0992 21.8137 75.215V86.0143C21.7972 86.1301 21.8302 86.2624 21.9129 86.3616C21.9791 86.4443 22.1114 86.5105 22.2272 86.4939H39.129C43.4455 86.4939 47.15 84.7409 50.2426 81.2514L60.0662 69.2613L69.8898 81.2514C72.9659 84.7409 76.6373 86.4939 80.9537 86.4939H97.8225C97.9383 86.5105 98.0541 86.4608 98.1368 86.3616C98.2029 86.2789 98.236 86.1797 98.236 86.0639V75.2646C98.2525 75.1488 98.2029 75.0165 98.1368 74.9173C98.0706 74.8346 97.9383 74.7684 97.8225 74.785H81.7972C81.0695 74.8015 80.3584 74.4708 79.8788 73.925L68.021 59.4542L79.8291 45.0827C80.3253 44.4873 81.053 44.14 81.8137 44.1565H97.8391C97.9548 44.1731 98.0706 44.1235 98.1533 44.0242C98.2194 43.9415 98.2525 43.8423 98.2525 43.7266V32.9272C98.2691 32.7949 98.236 32.6791 98.1533 32.5965C98.0706 32.5303 97.9548 32.4807 97.8391 32.4972H80.9537ZM38.2525 44.1565C39.0298 44.1565 39.7575 44.4873 40.2371 45.0827L46.3231 52.5413L54.344 42.7673L50.2261 37.7398C47.1169 34.2503 43.4289 32.4972 39.1621 32.4972H22.2272C22.0949 32.4807 21.9791 32.5303 21.8799 32.6295C21.7972 32.7122 21.7476 32.8114 21.7476 32.9272V43.7266C21.7476 43.8423 21.7972 43.9415 21.8799 44.0242C21.9791 44.1069 22.0949 44.1565 22.2272 44.1565H38.2525Z" fill="#00D1FF"/>
<defs>
<linearGradient id="paint0_linear_1_961" x1="44.1317" y1="-0.000347299" x2="44.1317" y2="31.7527" gradientUnits="userSpaceOnUse">
<stop stop-color="#090220"/>
<stop offset="1" stop-color="#170659"/>
</linearGradient>
</defs>
</svg>
