<svg width="120" height="120" viewBox="0 0 120 120" fill="none" xmlns="http://www.w3.org/2000/svg">
<circle cx="60" cy="60" r="60" fill="#EDF0F4"/>
<path fill-rule="evenodd" clip-rule="evenodd" d="M88.6199 50.0845C85.0072 48.1577 80.672 48.1577 77.3002 50.0845L60.2002 59.9591L77.3002 69.8338C80.9129 71.7605 85.2481 71.7605 88.6199 69.8338C92.2326 67.907 94.4002 64.0535 94.4002 59.9591C94.4002 55.8648 92.2326 52.0112 88.6199 50.0845Z" fill="#050505"/>
<path fill-rule="evenodd" clip-rule="evenodd" d="M31.7803 50.0845C28.1676 52.0112 26 55.8648 26 59.9591C26 64.0535 28.1676 67.6662 31.7803 69.8338C35.393 71.7605 39.7282 71.7605 43.1 69.8338L60.2 59.9591L43.1 50.0845C39.4873 48.1577 35.1521 48.1577 31.7803 50.0845Z" fill="#050505"/>
<path fill-rule="evenodd" clip-rule="evenodd" d="M50.325 88.138C52.2517 91.7507 56.1052 93.6774 60.1996 93.6774C64.294 93.6774 68.1475 91.5098 70.0742 88.138C72.001 84.5253 72.001 80.4309 70.0742 76.8183L60.1996 59.9591L50.325 76.8183C48.3982 80.4309 48.3982 84.5253 50.325 88.138Z" fill="#050505"/>
<path fill-rule="evenodd" clip-rule="evenodd" d="M70.0742 31.5394C68.1475 28.1676 64.294 26 60.1996 26C56.1052 26 52.2517 28.1676 50.325 31.5394C48.3982 35.1521 48.3982 39.2465 50.325 42.8592L60.1996 59.7183L70.0742 42.8592C72.001 39.4873 72.001 35.1521 70.0742 31.5394Z" fill="#050505"/>
</svg>
