<svg width="120" height="120" viewBox="0 0 120 120" fill="none" xmlns="http://www.w3.org/2000/svg">
<path d="M60 0C59.0174 0 58.0361 0.0242771 57.0561 0.0728313C56.0748 0.121385 55.096 0.192938 54.1186 0.290047C53.1424 0.385877 52.1675 0.505984 51.1964 0.650369C50.2253 0.793475 49.2581 0.962137 48.2946 1.1538C47.3312 1.34546 46.3742 1.56012 45.421 1.79905C44.4691 2.03671 43.5223 2.29865 42.5832 2.58359C41.644 2.86852 40.7113 3.17646 39.7862 3.50739C38.8624 3.83832 37.9462 4.19226 37.0391 4.56791C36.1319 4.94357 35.2349 5.34094 34.3469 5.76132C33.4588 6.18042 32.5823 6.62251 31.716 7.08505C30.851 7.5476 29.9962 8.03186 29.1541 8.53656C28.3121 9.04127 27.4829 9.56642 26.6664 10.112C25.8499 10.6576 25.0475 11.2236 24.2578 11.8076C23.4695 12.3928 22.6952 12.9971 21.9362 13.6194C21.1772 14.2429 20.4349 14.8844 19.7065 15.5437C18.9795 16.203 18.2678 16.8802 17.574 17.574C16.8802 18.2678 16.203 18.9795 15.5437 19.7065C14.8844 20.4349 14.2429 21.1772 13.6194 21.9362C12.9971 22.6952 12.3928 23.4695 11.8076 24.2578C11.2236 25.0475 10.6576 25.8499 10.112 26.6664C9.56642 27.4829 9.04127 28.3121 8.53656 29.1541C8.03186 29.9962 7.5476 30.851 7.08505 31.716C6.62251 32.5823 6.18042 33.4588 5.76132 34.3469C5.34094 35.2349 4.94357 36.1319 4.56791 37.0391C4.19226 37.9462 3.83832 38.8624 3.50739 39.7862C3.17646 40.7113 2.86852 41.644 2.58359 42.5832C2.29865 43.5223 2.03671 44.4691 1.79905 45.421C1.56012 46.3742 1.34546 47.3312 1.1538 48.2946C0.962137 49.2581 0.793475 50.2253 0.650369 51.1964C0.505984 52.1675 0.385877 53.1424 0.290047 54.1186C0.192938 55.096 0.121385 56.0748 0.0728313 57.0561C0.0242771 58.0361 0 59.0174 0 60C0 60.9813 0.0242771 61.9639 0.0728313 62.9439C0.121385 63.9252 0.192938 64.904 0.290047 65.8814C0.385877 66.8576 0.505984 67.8325 0.650369 68.8036C0.793475 69.7747 0.962137 70.7419 1.1538 71.7054C1.34546 72.6688 1.56012 73.6258 1.79905 74.579C2.03671 75.5309 2.29865 76.4777 2.58359 77.4168C2.86852 78.356 3.17646 79.2887 3.50739 80.2138C3.83832 81.1376 4.19226 82.0537 4.56791 82.9609C4.94357 83.8681 5.34094 84.7651 5.76132 85.6531C6.18042 86.5412 6.62251 87.4177 7.08505 88.284C7.5476 89.149 8.03186 90.0038 8.53656 90.8459C9.04127 91.6879 9.56642 92.5171 10.112 93.3336C10.6576 94.1501 11.2236 94.9525 11.8076 95.7421C12.3928 96.5305 12.9971 97.3048 13.6194 98.0638C14.2429 98.8228 14.8844 99.5651 15.5437 100.293C16.203 101.02 16.8802 101.732 17.574 102.426C18.2678 103.12 18.9795 103.797 19.7065 104.456C20.4349 105.116 21.1772 105.757 21.9362 106.381C22.6952 107.003 23.4695 107.607 24.2578 108.192C25.0475 108.776 25.8499 109.342 26.6664 109.888C27.4829 110.434 28.3121 110.959 29.1541 111.463C29.9962 111.968 30.851 112.452 31.716 112.915C32.5823 113.377 33.4588 113.82 34.3469 114.239C35.2349 114.659 36.1319 115.056 37.0391 115.432C37.9462 115.808 38.8624 116.162 39.7862 116.493C40.7113 116.824 41.644 117.13 42.5832 117.416C43.5223 117.701 44.4691 117.963 45.421 118.201C46.3742 118.44 47.3312 118.655 48.2946 118.846C49.2581 119.038 50.2253 119.207 51.1964 119.35C52.1675 119.494 53.1424 119.614 54.1186 119.71C55.096 119.807 56.0748 119.879 57.0561 119.927C58.0361 119.976 59.0174 120 60 120C60.9813 120 61.9639 119.976 62.9439 119.927C63.9252 119.879 64.904 119.807 65.8814 119.71C66.8576 119.614 67.8325 119.494 68.8036 119.35C69.7747 119.207 70.7419 119.038 71.7054 118.846C72.6688 118.655 73.6258 118.44 74.579 118.201C75.5309 117.963 76.4777 117.701 77.4168 117.416C78.356 117.13 79.2887 116.822 80.2138 116.493C81.1376 116.162 82.0537 115.808 82.9609 115.432C83.8681 115.056 84.7651 114.659 85.6531 114.239C86.5412 113.82 87.4177 113.377 88.284 112.915C89.149 112.452 90.0038 111.968 90.8459 111.463C91.6879 110.959 92.5171 110.434 93.3336 109.888C94.1501 109.342 94.9525 108.776 95.7421 108.192C96.5305 107.607 97.3048 107.003 98.0638 106.381C98.8228 105.757 99.5651 105.116 100.293 104.456C101.02 103.797 101.732 103.12 102.426 102.426C103.12 101.732 103.797 101.02 104.456 100.293C105.116 99.5651 105.757 98.8228 106.381 98.0638C107.003 97.3048 107.607 96.5305 108.192 95.7421C108.776 94.9525 109.342 94.1501 109.888 93.3336C110.434 92.5171 110.959 91.6879 111.463 90.8459C111.968 90.0038 112.452 89.149 112.915 88.284C113.377 87.4177 113.82 86.5412 114.239 85.6531C114.659 84.7651 115.056 83.8681 115.432 82.9609C115.808 82.0537 116.162 81.1376 116.493 80.2138C116.824 79.2887 117.13 78.356 117.416 77.4168C117.701 76.4777 117.963 75.5309 118.201 74.579C118.44 73.6258 118.655 72.6688 118.846 71.7054C119.038 70.7419 119.207 69.7747 119.35 68.8036C119.494 67.8325 119.614 66.8576 119.71 65.8814C119.807 64.904 119.879 63.9252 119.927 62.9439C119.976 61.9639 120 60.9813 120 60C120 59.0174 119.976 58.0361 119.927 57.0561C119.879 56.0748 119.807 55.096 119.71 54.1186C119.614 53.1424 119.494 52.1675 119.35 51.1964C119.207 50.2253 119.038 49.2581 118.846 48.2946C118.655 47.3312 118.44 46.3742 118.201 45.421C117.963 44.4691 117.701 43.5223 117.416 42.5832C117.13 41.644 116.822 40.7113 116.493 39.7862C116.162 38.8624 115.808 37.9462 115.432 37.0391C115.056 36.1319 114.659 35.2349 114.239 34.3469C113.82 33.4588 113.377 32.5823 112.915 31.716C112.452 30.851 111.968 29.9962 111.463 29.1541C110.959 28.3121 110.434 27.4829 109.888 26.6664C109.342 25.8499 108.776 25.0475 108.192 24.2578C107.607 23.4695 107.003 22.6952 106.381 21.9362C105.757 21.1772 105.116 20.4349 104.456 19.7065C103.797 18.9795 103.12 18.2678 102.426 17.574C101.732 16.8802 101.02 16.203 100.293 15.5437C99.5651 14.8844 98.8228 14.2429 98.0638 13.6194C97.3048 12.9971 96.5305 12.3928 95.7421 11.8076C94.9525 11.2236 94.1501 10.6576 93.3336 10.112C92.5171 9.56642 91.6879 9.04127 90.8459 8.53656C90.0038 8.03186 89.149 7.5476 88.284 7.08505C87.4177 6.62251 86.5412 6.18042 85.6531 5.76132C84.7651 5.34094 83.8681 4.94357 82.9609 4.56791C82.0537 4.19226 81.1376 3.83832 80.2138 3.50739C79.2887 3.17646 78.356 2.86852 77.4168 2.58359C76.4777 2.29865 75.5309 2.03671 74.579 1.79905C73.6258 1.56012 72.6688 1.34546 71.7054 1.1538C70.7419 0.962137 69.7747 0.793475 68.8036 0.650369C67.8325 0.505984 66.8576 0.385877 65.8814 0.290047C64.904 0.192938 63.9252 0.121385 62.9439 0.0728313C61.9639 0.0242771 60.9813 0 60 0Z" fill="#571AFF"/>
<mask id="mask0_1_6598" style="mask-type:luminance" maskUnits="userSpaceOnUse" x="3" y="3" width="113" height="113">
<path fill-rule="evenodd" clip-rule="evenodd" d="M3.74414 3.99927H115.367V115.622H3.74414V3.99927Z" fill="white"/>
</mask>
<g mask="url(#mask0_1_6598)">
<path fill-rule="evenodd" clip-rule="evenodd" d="M40.1529 4.38509C29.2538 8.1838 19.3398 15.3596 12.7569 24.213C12.5014 24.5567 12.2612 24.8634 12.2228 24.8941C12.0529 25.0295 9.75041 28.5407 9.00805 29.7955C7.26649 32.7406 5.33455 36.9431 4.09387 40.4825L3.74121 41.4893L3.7706 60.3155L3.79999 79.143L4.33408 80.4833C4.62796 81.2206 4.94867 82.0511 5.04706 82.3271C6.03603 85.1317 8.49439 89.798 10.8454 93.3335C12.9205 96.4537 14.8626 98.8188 17.7593 101.753C23.6893 107.76 30.5865 112.253 38.4676 115.243L39.767 115.736H79.8982L81.4609 115.133C87.4969 112.805 92.5925 109.811 98.106 105.351C99.4425 104.27 103.64 100.134 104.518 99.0322C104.86 98.6016 105.397 97.9487 105.707 97.5794C106.751 96.3439 108.79 93.5418 109.503 92.365C109.565 92.2628 110.008 91.5332 110.489 90.7448C110.969 89.9565 111.925 88.1791 112.612 86.7966C113.866 84.2782 114.009 83.9664 114.475 82.7181C114.612 82.3501 114.798 81.8811 114.888 81.6793C115.528 80.229 115.479 82.0038 115.482 60.097C115.483 38.1685 115.533 39.9611 114.888 38.5032C114.798 38.3014 114.561 37.7072 114.361 37.1846C113.65 35.3293 111.695 31.4399 110.315 29.14C103.636 18.0019 93.1253 9.37593 80.5575 4.71858L78.6217 4.00049L59.9272 4.0056L41.2313 4.00943L40.1529 4.38509ZM29.8288 9.45643C29.6384 9.62381 28.8845 10.0519 28.8845 9.9918C28.8845 9.95986 29.0979 9.80525 29.3598 9.64937C29.8416 9.35932 30.0204 9.28649 29.8288 9.45643ZM25.4206 12.316C25.4206 12.3428 25.257 12.4719 25.0577 12.6048L24.6948 12.845L25.0296 12.5562C25.3733 12.2611 25.4206 12.2317 25.4206 12.316ZM23.7442 13.5388C23.7442 13.5618 23.5065 13.7675 23.2139 13.995L22.6837 14.4089L23.1858 13.9528C23.6841 13.5017 23.7442 13.457 23.7442 13.5388ZM20.5038 16.2105C20.5038 16.2272 20.2151 16.5159 19.8624 16.852L19.2197 17.4627L19.8305 16.8213C20.3978 16.2233 20.5038 16.1275 20.5038 16.2105ZM100.844 17.6863C101.178 18.0249 101.426 18.3009 101.395 18.3009C101.364 18.3009 101.066 18.0249 100.733 17.6863C100.398 17.349 100.15 17.0717 100.181 17.0717C100.212 17.0717 100.511 17.349 100.844 17.6863ZM102.241 19.0829C102.544 19.3908 102.766 19.6426 102.735 19.6426C102.705 19.6426 102.431 19.3908 102.13 19.0829C101.827 18.7762 101.604 18.5245 101.635 18.5245C101.666 18.5245 101.938 18.7762 102.241 19.0829ZM17.2635 19.4496C17.2635 19.4675 16.9249 19.8061 16.5096 20.2048L15.7558 20.9267L16.479 20.1728C17.1498 19.4726 17.2635 19.3678 17.2635 19.4496ZM89.5387 19.7435C90.6785 20.2571 90.98 21.2934 90.4012 22.7015C90.2517 23.0618 88.9356 25.5764 87.4752 28.2877C84.5926 33.6376 84.3128 34.2215 84.3102 34.8949C84.3051 35.9861 83.6739 34.9946 93.4857 49.3091C101.256 60.6451 100.696 59.6575 100.589 61.813C100.486 63.9149 98.2657 76.7702 97.8709 77.5547C97.14 79.0075 97.0799 79.0254 88.9446 80.1511C83.9256 80.8462 83.78 80.9228 83.3085 83.0963C82.8319 85.2914 83.2395 84.9631 69.2227 94.4528C65.2873 97.1169 67.37 96.4589 51.3893 100.086C37.8172 103.168 37.7763 103.176 36.9956 103.001C35.3665 102.635 35.2106 102.379 33.096 96.5176C32.2641 94.2139 30.4012 89.0505 28.9548 85.0448C27.5084 81.0391 26.2422 77.4691 26.1399 77.1114C25.9253 76.3613 25.7004 64.3864 25.795 58.8065C25.8614 54.9145 25.9713 54.4903 27.373 52.773C28.9484 50.8411 28.951 50.8692 26.7149 46.0227C24.5849 41.4037 23.8681 39.3695 24.0087 38.3397C24.1735 37.1386 24.3882 36.9137 29.9566 32.0813C35.769 27.0368 36.022 26.849 38.0127 26.0926L38.6618 25.846L52.3502 25.7885L66.0373 25.7322L66.6775 25.4179C67.4773 25.0244 67.7367 24.7113 68.7781 22.8676C70.7879 19.3116 70.3458 19.4343 81.0111 19.4573L88.9446 19.4739L89.5387 19.7435ZM74.2557 23.3403C72.9908 23.5588 72.6049 23.9357 71.3361 26.1807C70.2002 28.1932 69.4348 28.9624 68.1609 29.3776C67.807 29.4926 64.7481 29.5361 53.5231 29.5833L39.3326 29.6421L38.6056 29.9871C37.7712 30.3832 37.5872 30.5314 33.0755 34.4451C27.1839 39.5535 27.4369 38.4227 30.6312 45.3698C33.4882 51.5834 33.4984 51.793 31.0656 54.5031C30.6516 54.9643 30.1802 55.593 30.0179 55.9009L29.7227 56.4593V66.0129C29.7227 74.9533 29.7355 75.6138 29.9284 76.2923C30.1086 76.9261 33.7233 87.0228 36.5318 94.739C38.1366 99.1447 38.221 99.1919 42.6841 98.1468C43.9133 97.8593 46.226 97.3277 47.8244 96.9661C65.1697 93.046 63.9214 93.3846 65.9261 92.0609C68.6222 90.2797 78.0046 83.8054 78.4237 83.4362C79.1137 82.8292 79.4561 82.0703 79.7308 80.5421C80.2636 77.5726 80.44 77.4653 86.0901 76.6808C95.5569 75.3647 94.3903 76.4227 95.8265 67.8567C97.0582 60.525 97.2908 61.6328 93.2838 55.7885C91.8093 53.638 88.3964 48.66 85.6991 44.7271C78.6907 34.5065 79.0293 35.9222 82.1841 30.0344C85.1816 24.4405 85.2519 24.144 83.748 23.4566C83.2893 23.247 75.3546 23.1499 74.2557 23.3403ZM103.637 99.6762C103.637 99.6915 102.745 100.585 101.654 101.659L99.6712 103.613L101.625 101.63C103.441 99.7874 103.637 99.5957 103.637 99.6762ZM18.3253 101.882C19.3079 102.864 20.086 103.669 20.0554 103.669C20.0247 103.669 19.1954 102.864 18.2141 101.882C17.2316 100.898 16.4534 100.094 16.4841 100.094C16.5148 100.094 17.344 100.898 18.3253 101.882ZM31.1193 111.553C31.1193 111.583 30.9685 111.53 30.7845 111.435C30.6005 111.339 30.4485 111.236 30.4485 111.205C30.4485 111.175 30.6005 111.228 30.7845 111.323C30.9685 111.419 31.1193 111.522 31.1193 111.553ZM32.636 112.358C32.5861 112.409 31.4553 111.845 31.4553 111.77C31.4553 111.741 31.7301 111.852 32.0661 112.017C32.4021 112.181 32.659 112.336 32.636 112.358Z" fill="#541BFC"/>
</g>
<path fill-rule="evenodd" clip-rule="evenodd" d="M29.3599 9.64949C29.098 9.80538 28.8846 9.95998 28.8846 9.99193C28.8846 10.052 29.6385 9.62394 29.8289 9.45656C30.0205 9.28662 29.8416 9.35945 29.3599 9.64949ZM25.0297 12.5563L24.6949 12.8451L25.0578 12.6049C25.2571 12.472 25.4207 12.343 25.4207 12.3161C25.4207 12.2318 25.3734 12.2612 25.0297 12.5563ZM23.1859 13.9529L22.6838 14.4091L23.214 13.9951C23.6791 13.6322 23.8171 13.4955 23.7174 13.4968C23.7021 13.4968 23.4632 13.7025 23.1859 13.9529ZM19.8306 16.8214L19.2198 17.4629L19.8625 16.8521C20.4592 16.2848 20.555 16.1787 20.472 16.1787C20.4554 16.1787 20.1666 16.4675 19.8306 16.8214ZM100.733 17.6865C101.067 18.0251 101.364 18.3011 101.395 18.3011C101.426 18.3011 101.178 18.0251 100.844 17.6865C100.511 17.3491 100.212 17.0719 100.181 17.0719C100.15 17.0719 100.398 17.3491 100.733 17.6865ZM102.13 19.083C102.431 19.391 102.705 19.6427 102.735 19.6427C102.766 19.6427 102.544 19.391 102.241 19.083C101.938 18.7764 101.666 18.5247 101.635 18.5247C101.604 18.5247 101.827 18.7764 102.13 19.083ZM16.4791 20.1729L15.7559 20.9268L16.5097 20.2049C16.925 19.8062 17.2636 19.4676 17.2636 19.4497C17.2636 19.368 17.1499 19.4727 16.4791 20.1729ZM72.4631 19.543C70.9362 19.7986 70.0712 20.5793 68.7781 22.8677C67.7368 24.7115 67.4774 25.0245 66.6775 25.4181L66.0374 25.7324L52.3503 25.7886L38.6619 25.8461L38.0128 26.0927C36.0221 26.8491 35.7691 27.0369 29.9566 32.0815C24.3883 36.9139 24.1736 37.1387 24.0088 38.3398C23.8682 39.3697 24.585 41.4038 26.715 46.0229C28.9511 50.8693 28.9485 50.8412 27.373 52.7731C25.9714 54.4904 25.8615 54.9146 25.795 58.8066C25.7005 64.3865 25.9254 76.3615 26.14 77.1115C26.2423 77.4692 27.5085 81.0393 28.9549 85.045C30.4013 89.0507 32.2642 94.214 33.096 96.5178C35.2107 102.379 35.3666 102.636 36.9957 103.001C37.7764 103.176 37.8173 103.168 51.3894 100.086C67.3701 96.459 65.2874 97.117 69.2228 94.4529C83.2396 84.9632 82.832 85.2916 83.3086 83.0964C83.7801 80.923 83.9257 80.8463 88.9447 80.1512C97.08 79.0255 97.1401 79.0076 97.8709 77.5549C98.2658 76.7703 100.486 63.915 100.589 61.8131C100.696 59.6576 101.256 60.6453 93.4857 49.3092C83.674 34.9947 84.3052 35.9862 84.3103 34.895C84.3129 34.2217 84.5927 33.6377 87.4753 28.2879C88.9357 25.5765 90.2518 23.0619 90.4013 22.7016C90.9801 21.2935 90.6786 20.2573 89.5388 19.7436L88.9447 19.474L81.0112 19.4574C76.6145 19.4485 72.803 19.4868 72.4631 19.543ZM83.7481 23.4567C85.252 24.1441 85.1817 24.4406 82.1842 30.0345C79.0294 35.9223 78.6908 34.5066 85.6992 44.7272C88.3965 48.6601 91.8094 53.6382 93.2839 55.7886C97.2908 61.633 97.0583 60.5252 95.8266 67.8568C94.6664 74.7783 94.6472 74.8409 93.4691 75.4261C92.8111 75.7532 93.036 75.7162 86.0902 76.6809C80.44 77.4654 80.2637 77.5727 79.7309 80.5422C79.4562 82.0704 79.1138 82.8294 78.4238 83.4363C78.0047 83.8055 68.6222 90.2798 65.9262 92.061C63.9215 93.3848 65.1698 93.0462 47.8245 96.9662C46.2261 97.3279 43.9134 97.8594 42.6842 98.1469C38.221 99.1921 38.1367 99.1448 36.5319 94.7392C33.7234 87.0229 30.1087 76.9262 29.9285 76.2924C29.7356 75.614 29.7228 74.9534 29.7228 66.0131V56.4594L30.018 55.901C30.1802 55.5931 30.6517 54.9645 31.0657 54.5032C33.4985 51.7931 33.4883 51.5836 30.6313 45.3699C27.4369 38.4229 27.1839 39.5537 33.0756 34.4453C37.5873 30.5316 37.7713 30.3833 38.6056 29.9872L39.3327 29.6423L53.5232 29.5835C64.7481 29.5362 67.8071 29.4928 68.161 29.3778C69.4349 28.9625 70.2003 28.1933 71.3362 26.1809C73.0522 23.1437 72.8362 23.2242 79.1112 23.2561C82.7323 23.2753 83.4146 23.3047 83.7481 23.4567ZM101.625 101.63L99.6713 103.613L101.654 101.659C102.746 100.585 103.637 99.6917 103.637 99.6763C103.637 99.5958 103.441 99.7875 101.625 101.63ZM18.2142 101.882C19.1955 102.864 20.0248 103.669 20.0554 103.669C20.0861 103.669 19.308 102.864 18.3254 101.882C17.3441 100.898 16.5148 100.094 16.4842 100.094C16.4535 100.094 17.2316 100.898 18.2142 101.882ZM30.4486 111.205C30.4486 111.236 30.6006 111.34 30.7846 111.435C30.9686 111.53 31.1194 111.584 31.1194 111.553C31.1194 111.522 30.9686 111.419 30.7846 111.323C30.6006 111.228 30.4486 111.175 30.4486 111.205ZM31.4554 111.77C31.4554 111.845 32.5862 112.409 32.636 112.358C32.659 112.336 32.4022 112.182 32.0662 112.017C31.7301 111.852 31.4554 111.741 31.4554 111.77Z" fill="#F7F5FC"/>
<path d="M22.5504 16.7268C22.2962 16.7268 22.0419 16.7396 21.7876 16.7651C21.5346 16.7894 21.2829 16.8265 21.0337 16.8763C20.7833 16.9261 20.5367 16.9875 20.2939 17.0616C20.0499 17.1357 19.8097 17.2213 19.5746 17.3197C19.3395 17.4168 19.1095 17.5254 18.8859 17.6455C18.661 17.7656 18.4425 17.8959 18.2304 18.0378C18.0196 18.1796 17.8151 18.3304 17.6184 18.4926C17.4216 18.6536 17.2325 18.8249 17.0523 19.005C16.8722 19.1839 16.7022 19.373 16.5399 19.5698C16.379 19.7665 16.2269 19.971 16.0863 20.1831C15.9445 20.3939 15.8129 20.6124 15.6941 20.8373C15.574 21.0622 15.4654 21.2909 15.367 21.5273C15.2699 21.7624 15.1843 22.0013 15.1102 22.2454C15.036 22.4894 14.9747 22.736 14.9249 22.9852C14.8751 23.2356 14.838 23.486 14.8124 23.7403C14.7882 23.9933 14.7754 24.2476 14.7754 24.5018C14.7754 24.7561 14.7882 25.0104 14.8124 25.2646C14.838 25.5176 14.8751 25.7694 14.9249 26.0185C14.9747 26.269 15.036 26.5156 15.1102 26.7596C15.1843 27.0024 15.2699 27.2426 15.367 27.4777C15.4654 27.7128 15.574 27.9428 15.6941 28.1677C15.8129 28.3913 15.9445 28.6098 16.0863 28.8219C16.2269 29.0327 16.379 29.2371 16.5399 29.4339C16.7022 29.6307 16.8722 29.8198 17.0523 29.9999C17.2325 30.1801 17.4216 30.35 17.6184 30.5123C17.8151 30.6733 18.0196 30.8254 18.2304 30.9672C18.4425 31.1077 18.661 31.2394 18.8859 31.3595C19.1095 31.4783 19.3395 31.5882 19.5746 31.6853C19.8097 31.7824 20.0499 31.868 20.2939 31.9421C20.5367 32.0162 20.7833 32.0775 21.0337 32.1274C21.2829 32.1772 21.5346 32.2143 21.7876 32.2398C22.0419 32.2641 22.2962 32.2769 22.5504 32.2769C22.8047 32.2769 23.059 32.2641 23.312 32.2398C23.5662 32.2143 23.8179 32.1772 24.0671 32.1274C24.3163 32.0775 24.5641 32.0162 24.8069 31.9421C25.051 31.868 25.2899 31.7824 25.525 31.6853C25.7614 31.5882 25.9914 31.4783 26.215 31.3595C26.4399 31.2394 26.6583 31.1077 26.8692 30.9672C27.0813 30.8254 27.2857 30.6733 27.4825 30.5123C27.6793 30.35 27.8684 30.1801 28.0485 29.9999C28.2274 29.8198 28.3986 29.6307 28.5609 29.4339C28.7219 29.2371 28.8739 29.0327 29.0145 28.8219C29.1563 28.6098 29.2867 28.3913 29.4068 28.1677C29.5269 27.9428 29.6355 27.7128 29.7339 27.4777C29.831 27.2426 29.9166 27.0024 29.9907 26.7596C30.0648 26.5156 30.1261 26.269 30.176 26.0185C30.2258 25.7694 30.2628 25.5176 30.2871 25.2646C30.3127 25.0104 30.3255 24.7561 30.3255 24.5018C30.3255 24.2476 30.3127 23.9933 30.2871 23.7403C30.2628 23.486 30.2258 23.2356 30.176 22.9852C30.1261 22.736 30.0648 22.4894 29.9907 22.2454C29.9166 22.0013 29.831 21.7624 29.7339 21.5273C29.6355 21.2909 29.5269 21.0622 29.4068 20.8373C29.2867 20.6124 29.1563 20.3939 29.0145 20.1831C28.8739 19.971 28.7219 19.7665 28.5609 19.5698C28.3986 19.373 28.2274 19.1839 28.0485 19.005C27.8684 18.8249 27.6793 18.6536 27.4825 18.4926C27.2857 18.3304 27.0813 18.1796 26.8692 18.0378C26.6583 17.8959 26.4399 17.7656 26.215 17.6455C25.9914 17.5254 25.7614 17.4168 25.525 17.3197C25.2899 17.2213 25.051 17.1357 24.8069 17.0616C24.5641 16.9875 24.3163 16.9261 24.0671 16.8763C23.8179 16.8265 23.5662 16.7894 23.312 16.7651C23.059 16.7396 22.8047 16.7268 22.5504 16.7268Z" fill="#571AFF"/>
<path d="M25.9674 12.7109C25.7131 12.7109 25.4589 12.7224 25.2059 12.748C24.9529 12.7723 24.7012 12.8106 24.4507 12.8592C24.2016 12.909 23.955 12.9716 23.7109 13.0457C23.4669 13.1185 23.2279 13.2041 22.9928 13.3025C22.7577 13.3996 22.5277 13.5082 22.3029 13.6284C22.078 13.7485 21.8595 13.8788 21.6487 14.0206C21.4366 14.1624 21.2321 14.3132 21.0353 14.4755C20.8386 14.6365 20.6507 14.8077 20.4706 14.9879C20.2904 15.168 20.1192 15.3559 19.9582 15.5526C19.7959 15.7494 19.6452 15.9538 19.5033 16.1659C19.3615 16.378 19.2312 16.5953 19.1111 16.8201C18.991 17.045 18.8824 17.275 18.7853 17.5101C18.6869 17.7452 18.6013 17.9842 18.5272 18.2282C18.4543 18.4723 18.3917 18.7189 18.3419 18.968C18.2933 19.2185 18.255 19.4702 18.2307 19.7232C18.2052 19.9762 18.1924 20.2304 18.1924 20.4847C18.1924 20.7402 18.2052 20.9945 18.2307 21.2475C18.255 21.5005 18.2933 21.7522 18.3419 22.0026C18.3917 22.2518 18.4543 22.4984 18.5272 22.7425C18.6013 22.9852 18.6869 23.2254 18.7853 23.4605C18.8824 23.6956 18.991 23.9256 19.1111 24.1505C19.2312 24.3754 19.3615 24.5926 19.5033 24.8047C19.6452 25.0168 19.7959 25.2213 19.9582 25.418C20.1192 25.6148 20.2904 25.8026 20.4706 25.9828C20.6507 26.163 20.8386 26.3342 21.0353 26.4952C21.2321 26.6562 21.4366 26.8082 21.6487 26.95C21.8595 27.0919 22.078 27.2222 22.3029 27.3423C22.5277 27.4624 22.7577 27.571 22.9928 27.6681C23.2279 27.7652 23.4669 27.8508 23.7109 27.925C23.955 27.9991 24.2016 28.0604 24.4507 28.1102C24.7012 28.1601 24.9529 28.1971 25.2059 28.2227C25.4589 28.2482 25.7131 28.2597 25.9674 28.2597C26.223 28.2597 26.476 28.2482 26.7302 28.2227C26.9832 28.1971 27.2349 28.1601 27.4841 28.1102C27.7345 28.0604 27.9811 27.9991 28.2252 27.925C28.4679 27.8508 28.7082 27.7652 28.9433 27.6681C29.1784 27.571 29.4084 27.4624 29.6332 27.3423C29.8568 27.2222 30.0753 27.0919 30.2874 26.95C30.4996 26.8082 30.7027 26.6562 30.9008 26.4952C31.0975 26.3342 31.2854 26.163 31.4655 25.9828C31.6457 25.8026 31.8169 25.6148 31.9779 25.418C32.1389 25.2213 32.2909 25.0168 32.4328 24.8047C32.5733 24.5926 32.7049 24.3754 32.825 24.1505C32.9451 23.9256 33.0537 23.6956 33.1509 23.4605C33.248 23.2254 33.3336 22.9852 33.4077 22.7425C33.4818 22.4984 33.5431 22.2518 33.593 22.0026C33.6428 21.7522 33.6798 21.5005 33.7054 21.2475C33.7297 20.9945 33.7424 20.7402 33.7424 20.4847C33.7424 20.2304 33.7297 19.9762 33.7054 19.7232C33.6798 19.4702 33.6428 19.2185 33.593 18.968C33.5431 18.7189 33.4818 18.4723 33.4077 18.2282C33.3336 17.9842 33.248 17.7452 33.1509 17.5101C33.0537 17.275 32.9451 17.045 32.825 16.8201C32.7049 16.5953 32.5733 16.378 32.4328 16.1659C32.2909 15.9538 32.1389 15.7494 31.9779 15.5526C31.8169 15.3559 31.6457 15.168 31.4655 14.9879C31.2854 14.8077 31.0975 14.6365 30.9008 14.4755C30.7027 14.3132 30.4996 14.1624 30.2874 14.0206C30.0753 13.8788 29.8568 13.7485 29.6332 13.6284C29.4084 13.5082 29.1784 13.3996 28.9433 13.3025C28.7082 13.2041 28.4679 13.1185 28.2252 13.0457C27.9811 12.9716 27.7345 12.909 27.4841 12.8592C27.2349 12.8106 26.9832 12.7723 26.7302 12.748C26.476 12.7224 26.223 12.7109 25.9674 12.7109Z" fill="#571AFF"/>
<path d="M30.0807 10.6896C29.8251 10.6896 29.5722 10.7024 29.3179 10.7266C29.0649 10.7522 28.8132 10.7892 28.564 10.8391C28.3136 10.8889 28.067 10.9502 27.8229 11.0243C27.5802 11.0985 27.34 11.1841 27.1048 11.2812C26.8697 11.3783 26.6397 11.4882 26.4149 11.607C26.1913 11.7271 25.9728 11.8587 25.7607 11.9993C25.5486 12.1411 25.3454 12.2931 25.1486 12.4541C24.9519 12.6164 24.7628 12.7863 24.5826 12.9665C24.4024 13.1467 24.2325 13.3358 24.0702 13.5325C23.9092 13.7293 23.7572 13.9338 23.6153 14.1446C23.4748 14.3567 23.3432 14.5752 23.2231 14.7988C23.103 15.0237 22.9944 15.2537 22.8973 15.4888C22.8001 15.7239 22.7145 15.9641 22.6404 16.2081C22.5663 16.4509 22.505 16.6975 22.4552 16.9479C22.4053 17.1971 22.3683 17.4488 22.3427 17.7018C22.3184 17.9561 22.3057 18.2103 22.3057 18.4646C22.3057 18.7189 22.3184 18.9731 22.3427 19.2261C22.3683 19.4804 22.4053 19.7308 22.4552 19.9813C22.505 20.2304 22.5663 20.477 22.6404 20.7211C22.7145 20.9651 22.8001 21.2041 22.8973 21.4392C22.9944 21.6756 23.103 21.9043 23.2231 22.1292C23.3432 22.354 23.4748 22.5725 23.6153 22.7834C23.7572 22.9955 23.9092 23.1999 24.0702 23.3967C24.2325 23.5934 24.4024 23.7826 24.5826 23.9614C24.7628 24.1416 24.9519 24.3128 25.1486 24.4738C25.3454 24.6361 25.5486 24.7869 25.7607 24.9287C25.9728 25.0705 26.1913 25.2008 26.4149 25.3209C26.6397 25.4411 26.8697 25.5497 27.1048 25.648C27.34 25.7452 27.5802 25.8308 27.8229 25.9049C28.067 25.979 28.3136 26.0403 28.564 26.0901C28.8132 26.14 29.0649 26.177 29.3179 26.2013C29.5722 26.2269 29.8251 26.2396 30.0807 26.2396C30.335 26.2396 30.5892 26.2269 30.8422 26.2013C31.0965 26.177 31.3469 26.14 31.5974 26.0901C31.8465 26.0403 32.0931 25.979 32.3372 25.9049C32.5812 25.8308 32.8202 25.7452 33.0553 25.648C33.2904 25.5497 33.5204 25.4411 33.7452 25.3209C33.9701 25.2008 34.1886 25.0705 34.3995 24.9287C34.6116 24.7869 34.816 24.6361 35.0128 24.4738C35.2095 24.3128 35.3974 24.1416 35.5775 23.9614C35.7577 23.7826 35.9289 23.5934 36.0899 23.3967C36.2522 23.1999 36.4029 22.9955 36.5448 22.7834C36.6866 22.5725 36.8169 22.354 36.937 22.1292C37.0571 21.9043 37.1658 21.6756 37.2629 21.4392C37.3612 21.2041 37.4469 20.9651 37.521 20.7211C37.5938 20.477 37.6564 20.2304 37.7062 19.9813C37.7561 19.7308 37.7931 19.4804 37.8174 19.2261C37.843 18.9731 37.8557 18.7189 37.8557 18.4646C37.8557 18.2103 37.843 17.9561 37.8174 17.7018C37.7931 17.4488 37.7561 17.1971 37.7062 16.9479C37.6564 16.6975 37.5938 16.4509 37.521 16.2081C37.4469 15.9641 37.3612 15.7239 37.2629 15.4888C37.1658 15.2537 37.0571 15.0237 36.937 14.7988C36.8169 14.5752 36.6866 14.3567 36.5448 14.1446C36.4029 13.9338 36.2522 13.7293 36.0899 13.5325C35.9289 13.3358 35.7577 13.1467 35.5775 12.9665C35.3974 12.7863 35.2095 12.6164 35.0128 12.4541C34.816 12.2931 34.6116 12.1411 34.3995 11.9993C34.1886 11.8587 33.9701 11.7271 33.7452 11.607C33.5204 11.4882 33.2904 11.3783 33.0553 11.2812C32.8202 11.1841 32.5812 11.0985 32.3372 11.0243C32.0931 10.9502 31.8465 10.8889 31.5974 10.8391C31.3469 10.7892 31.0965 10.7522 30.8422 10.7266C30.5892 10.7024 30.335 10.6896 30.0807 10.6896Z" fill="#571AFF"/>
<path d="M33.7428 7.26135C33.4885 7.26135 33.2343 7.27413 32.9813 7.29841C32.727 7.32396 32.4766 7.36102 32.2261 7.41085C31.977 7.46068 31.7304 7.52201 31.4863 7.59612C31.2423 7.67023 31.0033 7.75584 30.7682 7.85295C30.5319 7.95005 30.3031 8.05866 30.0783 8.17877C29.8534 8.29888 29.6349 8.43048 29.4241 8.57103C29.2119 8.71286 29.0075 8.86491 28.8107 9.02591C28.614 9.1869 28.4249 9.35812 28.246 9.53828C28.0658 9.71844 27.8946 9.90627 27.7336 10.1043C27.5713 10.3011 27.4206 10.5043 27.2787 10.7164C27.1369 10.9285 27.0066 11.147 26.8865 11.3706C26.7664 11.5954 26.6578 11.8254 26.5606 12.0605C26.4623 12.2956 26.3766 12.5359 26.3025 12.7786C26.2284 13.0227 26.1671 13.2693 26.1173 13.5197C26.0674 13.7689 26.0304 14.0206 26.0061 14.2736C25.9806 14.5278 25.9678 14.7808 25.9678 15.0364C25.9678 15.2907 25.9806 15.5449 26.0061 15.7979C26.0304 16.0509 26.0674 16.3026 26.1173 16.5531C26.1671 16.8022 26.2284 17.0488 26.3025 17.2929C26.3766 17.5369 26.4623 17.7759 26.5606 18.011C26.6578 18.2461 26.7664 18.4761 26.8865 18.7009C27.0066 18.9258 27.1369 19.1443 27.2787 19.3551C27.4206 19.5672 27.5713 19.7717 27.7336 19.9685C27.8946 20.1652 28.0658 20.3531 28.246 20.5332C28.4249 20.7134 28.614 20.8846 28.8107 21.0456C29.0075 21.2079 29.2119 21.3586 29.4241 21.5005C29.6349 21.6423 29.8534 21.7726 30.0783 21.8927C30.3031 22.0128 30.5319 22.1214 30.7682 22.2185C31.0033 22.3169 31.2423 22.4025 31.4863 22.4767C31.7304 22.5495 31.977 22.6121 32.2261 22.6619C32.4766 22.7118 32.727 22.7488 32.9813 22.7731C33.2343 22.7986 33.4885 22.8114 33.7428 22.8114C33.9971 22.8114 34.2513 22.7986 34.5056 22.7731C34.7586 22.7488 35.0103 22.7118 35.2595 22.6619C35.5099 22.6121 35.7565 22.5495 36.0006 22.4767C36.2433 22.4025 36.4836 22.3169 36.7187 22.2185C36.9538 22.1214 37.1838 22.0128 37.4086 21.8927C37.6322 21.7726 37.8507 21.6423 38.0628 21.5005C38.2737 21.3586 38.4781 21.2079 38.6749 21.0456C38.8716 20.8846 39.0608 20.7134 39.2409 20.5332C39.4211 20.3531 39.591 20.1652 39.7533 19.9685C39.9143 19.7717 40.0663 19.5672 40.2082 19.3551C40.3487 19.1443 40.4803 18.9258 40.6004 18.7009C40.7193 18.4761 40.8291 18.2461 40.9262 18.011C41.0234 17.7759 41.109 17.5369 41.1831 17.2929C41.2572 17.0488 41.3185 16.8022 41.3683 16.5531C41.4182 16.3026 41.4552 16.0509 41.4808 15.7979C41.5051 15.5449 41.5178 15.2907 41.5178 15.0364C41.5178 14.7808 41.5051 14.5278 41.4808 14.2736C41.4552 14.0206 41.4182 13.7689 41.3683 13.5197C41.3185 13.2693 41.2572 13.0227 41.1831 12.7786C41.109 12.5359 41.0234 12.2956 40.9262 12.0605C40.8291 11.8254 40.7193 11.5954 40.6004 11.3706C40.4803 11.147 40.3487 10.9285 40.2082 10.7164C40.0663 10.5043 39.9143 10.3011 39.7533 10.1043C39.591 9.90627 39.4211 9.71844 39.2409 9.53828C39.0608 9.35812 38.8716 9.1869 38.6749 9.02591C38.4781 8.86491 38.2737 8.71286 38.0628 8.57103C37.8507 8.43048 37.6322 8.29888 37.4086 8.17877C37.1838 8.05866 36.9538 7.95005 36.7187 7.85295C36.4836 7.75584 36.2433 7.67023 36.0006 7.59612C35.7565 7.52201 35.5099 7.46068 35.2595 7.41085C35.0103 7.36102 34.7586 7.32396 34.5056 7.29841C34.2513 7.27413 33.9971 7.26135 33.7428 7.26135Z" fill="#571AFF"/>
<path d="M99.4765 16.7268C99.1826 16.7268 98.8926 16.7562 98.6051 16.8124C98.3176 16.8699 98.0391 16.9542 97.7682 17.0667C97.4973 17.1791 97.2405 17.3158 96.9977 17.4794C96.7536 17.6417 96.5288 17.8269 96.3205 18.0339C96.1135 18.2409 95.9295 18.4671 95.766 18.7099C95.6037 18.9539 95.4657 19.2107 95.3532 19.4816C95.2421 19.7525 95.1565 20.031 95.1003 20.3185C95.0428 20.606 95.0146 20.8961 95.0146 21.1887C95.0146 21.4813 95.0428 21.7726 95.1003 22.0588C95.1565 22.3463 95.2421 22.6261 95.3532 22.8957C95.4657 23.1666 95.6037 23.4247 95.766 23.6675C95.9295 23.9115 96.1135 24.1364 96.3205 24.3434C96.5288 24.5504 96.7536 24.7357 96.9977 24.8992C97.2405 25.0615 97.4973 25.1995 97.7682 25.3106C98.0391 25.4231 98.3176 25.5074 98.6051 25.5649C98.8926 25.6224 99.1826 25.6505 99.4765 25.6505C99.7691 25.6505 100.059 25.6224 100.347 25.5649C100.634 25.5074 100.913 25.4231 101.184 25.3106C101.454 25.1995 101.711 25.0615 101.954 24.8992C102.198 24.7357 102.424 24.5504 102.631 24.3434C102.838 24.1364 103.024 23.9115 103.186 23.6675C103.348 23.4247 103.486 23.1666 103.598 22.8957C103.71 22.6261 103.795 22.3463 103.851 22.0588C103.909 21.7726 103.937 21.4813 103.937 21.1887C103.937 20.8961 103.909 20.606 103.851 20.3185C103.795 20.031 103.71 19.7525 103.598 19.4816C103.486 19.2107 103.348 18.9539 103.186 18.7099C103.024 18.4671 102.838 18.2409 102.631 18.0339C102.424 17.8269 102.198 17.6417 101.954 17.4794C101.711 17.3158 101.454 17.1791 101.184 17.0667C100.913 16.9542 100.634 16.8699 100.347 16.8124C100.059 16.7562 99.7691 16.7268 99.4765 16.7268Z" fill="#571AFF"/>
<path d="M96.4088 88.5574C96.1533 88.5574 95.899 88.5689 95.646 88.5944C95.393 88.6187 95.1413 88.657 94.8909 88.7056C94.6417 88.7554 94.3951 88.818 94.1511 88.8921C93.907 88.965 93.6681 89.0506 93.433 89.149C93.1979 89.2461 92.9679 89.3547 92.743 89.4748C92.5181 89.5949 92.3009 89.7252 92.0888 89.8671C91.8767 90.0089 91.6722 90.1597 91.4755 90.3219C91.2787 90.4829 91.0909 90.6541 90.9107 90.8343C90.7306 91.0145 90.5593 91.2023 90.3983 91.3991C90.2361 91.5958 90.0853 91.8003 89.9435 92.0124C89.8016 92.2245 89.6713 92.4417 89.5512 92.6666C89.4311 92.8915 89.3225 93.1215 89.2254 93.3566C89.1283 93.5917 89.0427 93.8306 88.9686 94.0746C88.8944 94.3187 88.8318 94.5653 88.7833 94.8145C88.7335 95.0649 88.6964 95.3166 88.6708 95.5696C88.6453 95.8226 88.6338 96.0769 88.6338 96.3311C88.6338 96.5867 88.6453 96.8409 88.6708 97.0939C88.6964 97.3469 88.7335 97.5986 88.7833 97.8491C88.8318 98.0982 88.8944 98.3448 88.9686 98.5889C89.0427 98.8317 89.1283 99.0719 89.2254 99.307C89.3225 99.5421 89.4311 99.7721 89.5512 99.997C89.6713 100.222 89.8016 100.439 89.9435 100.651C90.0853 100.863 90.2361 101.068 90.3983 101.264C90.5593 101.461 90.7306 101.649 90.9107 101.829C91.0909 102.009 91.2787 102.181 91.4755 102.342C91.6722 102.503 91.8767 102.655 92.0888 102.796C92.3009 102.938 92.5181 103.069 92.743 103.189C92.9679 103.309 93.1979 103.417 93.433 103.515C93.6681 103.612 93.907 103.697 94.1511 103.771C94.3951 103.846 94.6417 103.907 94.8909 103.957C95.1413 104.006 95.393 104.044 95.646 104.069C95.899 104.095 96.1533 104.106 96.4088 104.106C96.6631 104.106 96.9174 104.095 97.1704 104.069C97.4233 104.044 97.6751 104.006 97.9255 103.957C98.1747 103.907 98.4213 103.846 98.6653 103.771C98.9094 103.697 99.1483 103.612 99.3834 103.515C99.6185 103.417 99.8485 103.309 100.073 103.189C100.298 103.069 100.515 102.938 100.728 102.796C100.94 102.655 101.144 102.503 101.341 102.342C101.538 102.181 101.725 102.009 101.906 101.829C102.086 101.649 102.257 101.461 102.418 101.264C102.58 101.068 102.731 100.863 102.873 100.651C103.015 100.439 103.145 100.222 103.265 99.997C103.385 99.7721 103.494 99.5421 103.591 99.307C103.688 99.0719 103.775 98.8317 103.848 98.5889C103.922 98.3448 103.985 98.0982 104.033 97.8491C104.083 97.5986 104.121 97.3469 104.146 97.0939C104.171 96.8409 104.183 96.5867 104.183 96.3311C104.183 96.0769 104.171 95.8226 104.146 95.5696C104.121 95.3166 104.083 95.0649 104.033 94.8145C103.985 94.5653 103.922 94.3187 103.848 94.0746C103.775 93.8306 103.688 93.5917 103.591 93.3566C103.494 93.1215 103.385 92.8915 103.265 92.6666C103.145 92.4417 103.015 92.2245 102.873 92.0124C102.731 91.8003 102.58 91.5958 102.418 91.3991C102.257 91.2023 102.086 91.0145 101.906 90.8343C101.725 90.6541 101.538 90.4829 101.341 90.3219C101.144 90.1597 100.94 90.0089 100.728 89.8671C100.515 89.7252 100.298 89.5949 100.073 89.4748C99.8485 89.3547 99.6185 89.2461 99.3834 89.149C99.1483 89.0506 98.9094 88.965 98.6653 88.8921C98.4213 88.818 98.1747 88.7554 97.9255 88.7056C97.6751 88.657 97.4233 88.6187 97.1704 88.5944C96.9174 88.5689 96.6631 88.5574 96.4088 88.5574Z" fill="#571AFF"/>
<path d="M98.1266 86.5463C97.871 86.5463 97.6168 86.559 97.3638 86.5833C97.1108 86.6089 96.8591 86.6459 96.6086 86.6958C96.3595 86.7456 96.1129 86.8069 95.8688 86.881C95.6248 86.9551 95.3858 87.0407 95.1507 87.1379C94.9156 87.235 94.6856 87.3436 94.4608 87.4637C94.2359 87.5838 94.0187 87.7154 93.8066 87.8559C93.5945 87.9978 93.39 88.1498 93.1933 88.3108C92.9965 88.4718 92.8087 88.643 92.6285 88.8232C92.4483 89.0034 92.2771 89.1912 92.1161 89.388C91.9538 89.5847 91.8031 89.7892 91.6612 90.0013C91.5194 90.2134 91.3891 90.4306 91.269 90.6555C91.1489 90.8804 91.0403 91.1103 90.9432 91.3454C90.846 91.5806 90.7604 91.8208 90.6863 92.0635C90.6122 92.3076 90.5496 92.5542 90.5011 92.8046C90.4512 93.0538 90.4142 93.3055 90.3886 93.5585C90.3631 93.8128 90.3516 94.0658 90.3516 94.3213C90.3516 94.5756 90.3631 94.8298 90.3886 95.0828C90.4142 95.3358 90.4512 95.5875 90.5011 95.838C90.5496 96.0871 90.6122 96.3337 90.6863 96.5778C90.7604 96.8218 90.846 97.0608 90.9432 97.2959C91.0403 97.531 91.1489 97.761 91.269 97.9858C91.3891 98.2107 91.5194 98.4279 91.6612 98.6401C91.8031 98.8522 91.9538 99.0566 92.1161 99.2534C92.2771 99.4501 92.4483 99.638 92.6285 99.8181C92.8087 99.9983 92.9965 100.17 93.1933 100.33C93.39 100.493 93.5945 100.644 93.8066 100.785C94.0187 100.927 94.2359 101.058 94.4608 101.178C94.6856 101.298 94.9156 101.406 95.1507 101.503C95.3858 101.602 95.6248 101.687 95.8688 101.76C96.1129 101.834 96.3595 101.897 96.6086 101.947C96.8591 101.995 97.1108 102.034 97.3638 102.058C97.6168 102.084 97.871 102.095 98.1266 102.095C98.3809 102.095 98.6351 102.084 98.8881 102.058C99.1411 102.034 99.3928 101.995 99.6433 101.947C99.8924 101.897 100.139 101.834 100.383 101.76C100.627 101.687 100.866 101.602 101.101 101.503C101.336 101.406 101.566 101.298 101.791 101.178C102.016 101.058 102.233 100.927 102.445 100.785C102.657 100.644 102.862 100.493 103.059 100.33C103.255 100.17 103.443 99.9983 103.623 99.8181C103.804 99.638 103.975 99.4501 104.136 99.2534C104.298 99.0566 104.449 98.8522 104.591 98.6401C104.732 98.4279 104.863 98.2107 104.983 97.9858C105.103 97.761 105.212 97.531 105.309 97.2959C105.406 97.0608 105.493 96.8218 105.566 96.5778C105.64 96.3337 105.702 96.0871 105.751 95.838C105.801 95.5875 105.839 95.3358 105.863 95.0828C105.889 94.8298 105.9 94.5756 105.9 94.3213C105.9 94.0658 105.889 93.8128 105.863 93.5585C105.839 93.3055 105.801 93.0538 105.751 92.8046C105.702 92.5542 105.64 92.3076 105.566 92.0635C105.493 91.8208 105.406 91.5806 105.309 91.3454C105.212 91.1103 105.103 90.8804 104.983 90.6555C104.863 90.4306 104.732 90.2134 104.591 90.0013C104.449 89.7892 104.298 89.5847 104.136 89.388C103.975 89.1912 103.804 89.0034 103.623 88.8232C103.443 88.643 103.255 88.4718 103.059 88.3108C102.862 88.1498 102.657 87.9978 102.445 87.8559C102.233 87.7154 102.016 87.5838 101.791 87.4637C101.566 87.3436 101.336 87.235 101.101 87.1379C100.866 87.0407 100.627 86.9551 100.383 86.881C100.139 86.8069 99.8924 86.7456 99.6433 86.6958C99.3928 86.6459 99.1411 86.6089 98.8881 86.5833C98.6351 86.559 98.3809 86.5463 98.1266 86.5463Z" fill="#571AFF"/>
<path d="M22.551 93.0308C22.3657 93.0308 22.1805 93.0397 21.9965 93.0576C21.8112 93.0768 21.6285 93.1036 21.447 93.1394C21.2643 93.1764 21.0854 93.2211 20.9078 93.2748C20.7302 93.3285 20.5565 93.3911 20.3852 93.4614C20.214 93.5329 20.0466 93.6121 19.8831 93.699C19.7195 93.7872 19.5598 93.8817 19.4065 93.9852C19.2519 94.0875 19.1037 94.1986 18.9606 94.3162C18.8162 94.4337 18.6795 94.5577 18.5479 94.6893C18.4175 94.8196 18.2923 94.9576 18.1748 95.1007C18.0572 95.2438 17.9473 95.392 17.8438 95.5466C17.7416 95.7012 17.6458 95.8597 17.5589 96.0232C17.472 96.1868 17.3928 96.3542 17.3212 96.5254C17.2509 96.6966 17.1883 96.8704 17.1347 97.048C17.0797 97.2256 17.035 97.4057 16.9992 97.5872C16.9635 97.7686 16.9353 97.9526 16.9175 98.1366C16.8996 98.3206 16.8906 98.5059 16.8906 98.6911C16.8906 98.8764 16.8996 99.0617 16.9175 99.2457C16.9353 99.4309 16.9635 99.6137 16.9992 99.7951C17.035 99.9778 17.0797 100.157 17.1347 100.334C17.1883 100.512 17.2509 100.686 17.3212 100.858C17.3928 101.029 17.472 101.197 17.5589 101.36C17.6458 101.523 17.7416 101.682 17.8438 101.836C17.9473 101.99 18.0572 102.138 18.1748 102.283C18.2923 102.426 18.4175 102.563 18.5479 102.694C18.6795 102.825 18.8162 102.95 18.9606 103.067C19.1037 103.185 19.2519 103.295 19.4065 103.398C19.5598 103.501 19.7195 103.596 19.8831 103.683C20.0466 103.771 20.214 103.851 20.3852 103.921C20.5565 103.992 20.7302 104.054 20.9078 104.109C21.0854 104.162 21.2643 104.207 21.447 104.243C21.6285 104.279 21.8112 104.307 21.9965 104.325C22.1805 104.343 22.3657 104.352 22.551 104.352C22.7363 104.352 22.9215 104.343 23.1055 104.325C23.2908 104.307 23.4735 104.279 23.655 104.243C23.8364 104.207 24.0166 104.162 24.1942 104.109C24.3718 104.054 24.5456 103.992 24.7168 103.921C24.888 103.851 25.0554 103.771 25.2189 103.683C25.3825 103.596 25.5409 103.501 25.6955 103.398C25.8501 103.295 25.9983 103.185 26.1414 103.067C26.2846 102.95 26.4225 102.825 26.5529 102.694C26.6845 102.563 26.8084 102.426 26.926 102.283C27.0435 102.138 27.1547 101.99 27.2569 101.836C27.3604 101.682 27.455 101.523 27.5431 101.36C27.63 101.197 27.7092 101.029 27.7808 100.858C27.8511 100.686 27.9137 100.512 27.9673 100.334C28.021 100.157 28.067 99.9778 28.1028 99.7951C28.1385 99.6137 28.1654 99.4309 28.1845 99.2457C28.2024 99.0617 28.2114 98.8764 28.2114 98.6911C28.2114 98.5059 28.2024 98.3206 28.1845 98.1366C28.1654 97.9526 28.1385 97.7686 28.1028 97.5872C28.067 97.4057 28.021 97.2256 27.9673 97.048C27.9137 96.8704 27.8511 96.6966 27.7808 96.5254C27.7092 96.3542 27.63 96.1868 27.5431 96.0232C27.455 95.8597 27.3604 95.7012 27.2569 95.5466C27.1547 95.392 27.0435 95.2438 26.926 95.1007C26.8084 94.9576 26.6845 94.8196 26.5529 94.6893C26.4225 94.5577 26.2846 94.4337 26.1414 94.3162C25.9983 94.1986 25.8501 94.0875 25.6955 93.9852C25.5409 93.8817 25.3825 93.7872 25.2189 93.699C25.0554 93.6121 24.888 93.5329 24.7168 93.4614C24.5456 93.3911 24.3718 93.3285 24.1942 93.2748C24.0166 93.2211 23.8364 93.1764 23.655 93.1394C23.4735 93.1036 23.2908 93.0768 23.1055 93.0576C22.9215 93.0397 22.7363 93.0308 22.551 93.0308Z" fill="#571AFF"/>
<path d="M22.3053 87.2822C22.051 87.2822 21.7968 87.295 21.5425 87.3193C21.2895 87.3448 21.0378 87.3819 20.7886 87.4317C20.5382 87.4816 20.2916 87.5429 20.0488 87.617C19.8048 87.6911 19.5646 87.7767 19.3295 87.8738C19.0944 87.9709 18.8644 88.0795 18.6408 88.1996C18.4159 88.3197 18.1974 88.4514 17.9853 88.5919C17.7744 88.7337 17.57 88.8858 17.3732 89.0468C17.1765 89.2078 16.9874 89.379 16.8072 89.5592C16.627 89.7393 16.4571 89.9271 16.2948 90.1239C16.1338 90.3207 15.9818 90.5251 15.8412 90.7372C15.6994 90.9493 15.5678 91.1665 15.449 91.3914C15.3289 91.6163 15.2203 91.8463 15.1219 92.0814C15.0248 92.3165 14.9391 92.5567 14.865 92.7995C14.7909 93.0435 14.7296 93.2901 14.6798 93.5406C14.6299 93.7897 14.5929 94.0415 14.5673 94.2945C14.5431 94.5487 14.5303 94.8017 14.5303 95.0573C14.5303 95.3115 14.5431 95.5658 14.5673 95.8188C14.5929 96.0718 14.6299 96.3235 14.6798 96.5739C14.7296 96.8231 14.7909 97.0697 14.865 97.3137C14.9391 97.5578 15.0248 97.7967 15.1219 98.0318C15.2203 98.2669 15.3289 98.4969 15.449 98.7218C15.5678 98.9467 15.6994 99.1639 15.8412 99.376C15.9818 99.5881 16.1338 99.7926 16.2948 99.9893C16.4571 100.186 16.627 100.374 16.8072 100.554C16.9874 100.734 17.1765 100.905 17.3732 101.066C17.57 101.229 17.7744 101.38 17.9853 101.521C18.1974 101.663 18.4159 101.793 18.6408 101.914C18.8644 102.034 19.0944 102.142 19.3295 102.239C19.5646 102.338 19.8048 102.423 20.0488 102.496C20.2916 102.57 20.5382 102.633 20.7886 102.683C21.0378 102.731 21.2895 102.77 21.5425 102.794C21.7968 102.82 22.051 102.831 22.3053 102.831C22.5596 102.831 22.8138 102.82 23.0668 102.794C23.3211 102.77 23.5728 102.731 23.822 102.683C24.0711 102.633 24.319 102.57 24.5618 102.496C24.8058 102.423 25.0448 102.338 25.2799 102.239C25.5163 102.142 25.7463 102.034 25.9699 101.914C26.1947 101.793 26.4132 101.663 26.6241 101.521C26.8362 101.38 27.0406 101.229 27.2374 101.066C27.4341 100.905 27.6233 100.734 27.8034 100.554C27.9823 100.374 28.1535 100.186 28.3158 99.9893C28.4768 99.7926 28.6288 99.5881 28.7694 99.376C28.9112 99.1639 29.0415 98.9467 29.1616 98.7218C29.2818 98.4969 29.3904 98.2669 29.4887 98.0318C29.5859 97.7967 29.6715 97.5578 29.7456 97.3137C29.8197 97.0697 29.881 96.8231 29.9308 96.5739C29.9807 96.3235 30.0177 96.0718 30.042 95.8188C30.0676 95.5658 30.0803 95.3115 30.0803 95.0573C30.0803 94.8017 30.0676 94.5487 30.042 94.2945C30.0177 94.0415 29.9807 93.7897 29.9308 93.5406C29.881 93.2901 29.8197 93.0435 29.7456 92.7995C29.6715 92.5567 29.5859 92.3165 29.4887 92.0814C29.3904 91.8463 29.2818 91.6163 29.1616 91.3914C29.0415 91.1665 28.9112 90.9493 28.7694 90.7372C28.6288 90.5251 28.4768 90.3207 28.3158 90.1239C28.1535 89.9271 27.9823 89.7393 27.8034 89.5592C27.6233 89.379 27.4341 89.2078 27.2374 89.0468C27.0406 88.8858 26.8362 88.7337 26.6241 88.5919C26.4132 88.4514 26.1947 88.3197 25.9699 88.1996C25.7463 88.0795 25.5163 87.9709 25.2799 87.8738C25.0448 87.7767 24.8058 87.6911 24.5618 87.617C24.319 87.5429 24.0711 87.4816 23.822 87.4317C23.5728 87.3819 23.3211 87.3448 23.0668 87.3193C22.8138 87.295 22.5596 87.2822 22.3053 87.2822Z" fill="#571AFF"/>
<path d="M37.3649 106.733C36.8538 106.733 36.3478 106.755 35.8482 106.797C35.3473 106.839 34.8605 106.902 34.389 106.985C33.9175 107.069 33.4691 107.17 33.0448 107.292C32.6206 107.413 32.2271 107.55 31.8668 107.703C31.5052 107.858 31.1832 108.025 30.8995 108.205C30.6159 108.387 30.3769 108.577 30.1814 108.779C29.9859 108.98 29.839 109.187 29.7393 109.4C29.6397 109.613 29.5898 109.829 29.5898 110.046C29.5898 110.264 29.6397 110.48 29.7393 110.693C29.839 110.906 29.9859 111.113 30.1814 111.314C30.3769 111.516 30.6159 111.706 30.8995 111.888C31.1832 112.068 31.5052 112.235 31.8668 112.39C32.2271 112.543 32.6206 112.68 33.0448 112.801C33.4691 112.923 33.9175 113.024 34.389 113.108C34.8605 113.191 35.3473 113.254 35.8482 113.296C36.3478 113.338 36.8538 113.36 37.3649 113.36C37.8747 113.36 38.3807 113.338 38.8816 113.296C39.3824 113.254 39.868 113.191 40.3394 113.108C40.8109 113.024 41.2594 112.923 41.6836 112.801C42.1078 112.68 42.5014 112.543 42.8617 112.39C43.2233 112.235 43.5453 112.068 43.829 111.888C44.1126 111.706 44.3515 111.516 44.547 111.314C44.7425 111.113 44.8908 110.906 44.9904 110.693C45.0888 110.48 45.1386 110.264 45.1386 110.046C45.1386 109.829 45.0888 109.613 44.9904 109.4C44.8908 109.187 44.7425 108.98 44.547 108.779C44.3515 108.577 44.1126 108.387 43.829 108.205C43.5453 108.025 43.2233 107.858 42.8617 107.703C42.5014 107.55 42.1078 107.413 41.6836 107.292C41.2594 107.17 40.8109 107.069 40.3394 106.985C39.868 106.902 39.3824 106.839 38.8816 106.797C38.3807 106.755 37.8747 106.733 37.3649 106.733Z" fill="#571AFF"/>
</svg>
