<svg width="120" height="120" viewBox="0 0 120 120" fill="none" xmlns="http://www.w3.org/2000/svg">
<circle cx="60" cy="60" r="60" fill="#EDF0F4"/>
<path d="M99.927 91.8658V91.826C99.9283 91.8084 99.9283 91.7906 99.927 91.773L60.8889 27.5427L60.8358 27.4631C60.6893 27.2368 60.4586 27.0781 60.1949 27.0221C59.9311 26.9661 59.6559 27.0174 59.43 27.1647C59.3108 27.2391 59.2071 27.3359 59.125 27.4499L59.0719 27.5361C56.4548 31.8597 53.82 36.1722 51.1675 40.4736C50.6312 41.245 50.6312 42.2685 51.1675 43.0399C54.6732 48.7428 58.1679 54.4479 61.6515 60.1552C62.2341 60.9897 62.2341 62.0991 61.6515 62.9337C55.9088 72.3766 49.8412 82.3036 44.0455 91.7863C43.7807 92.2846 43.9672 92.9032 44.4633 93.1722C44.61 93.2511 44.7741 93.2921 44.9407 93.2915H61.7775C62.1545 93.294 62.5019 93.0871 62.6793 92.7544L63.2562 91.7863L71.0612 78.9614C71.1901 78.7227 71.4093 78.5456 71.6697 78.4696C71.9301 78.3936 72.2101 78.425 72.4471 78.5569C72.5892 78.6318 72.7101 78.7412 72.7986 78.8752L80.5306 91.4746L81.2468 92.6483C81.427 92.9743 81.7695 93.1773 82.142 93.1788H82.6129C82.6923 93.1855 82.7721 93.1855 82.8516 93.1788H98.9788C99.5402 93.1788 99.9963 92.7256 100 92.1642C99.9907 92.0617 99.9661 91.9611 99.927 91.8658Z" fill="black"/>
<path d="M55.0468 63.5703L55.6104 62.6419C56.0866 61.9585 56.0866 61.0508 55.6104 60.3674L52.1489 54.7574L48.1702 48.3449C48.029 48.1131 47.8008 47.9476 47.5366 47.8853C47.2724 47.8229 46.9942 47.8691 46.7643 48.0134C46.6113 48.1047 46.4854 48.2352 46.3996 48.3914L20.12 91.7929C19.8557 92.2893 20.0425 92.9059 20.5377 93.1722C20.6848 93.2571 20.8521 93.3006 21.0218 93.2982H36.4594C36.8323 93.298 37.1754 93.0947 37.3546 92.7677L37.9448 91.7863C37.9714 91.7502 37.9958 91.7126 38.0177 91.6735L38.6808 90.6125C44.1781 81.4946 49.4434 72.7877 54.9539 63.7162C54.988 63.6696 55.019 63.6209 55.0468 63.5703Z" fill="black"/>
</svg>
