<svg width="120" height="120" viewBox="0 0 120 120" fill="none" xmlns="http://www.w3.org/2000/svg">
<circle cx="60" cy="60" r="60" fill="#1B2D45"/>
<path fill-rule="evenodd" clip-rule="evenodd" d="M93.9588 55.1338V40.4034L60 20.7542L42.4551 30.9076L56.3437 39.0356L52.8978 41.2452L38.8777 32.9856L26.0412 40.4297L26.0938 79.702L43.6914 89.7765V73.8361L47.0583 75.7826V91.6967L60.2104 99.2986L93.9851 79.5705V59.1058L80.3069 67.1285V63.2355L93.9588 55.1338ZM43.5861 50.5306L45.4537 49.5047L59.2898 57.5012L74.0202 49.268L76.2297 50.5306V52.7401L62.2885 60.8418V77.4135L60 78.9655L58.2113 77.7029V61.8414L43.5861 53.2925V50.5306ZM51.0302 69.7182L51.0565 69.7327H51.0302V69.7182ZM51.0302 65.7081V69.7182L36.5892 61.7625V77.6239L32.8277 75.4933L32.7488 44.5069L38.5357 41.061L42.0868 43.2706L36.4314 46.6901L36.4577 57.1592L51.0302 65.7081ZM87.146 71.3635V75.6511L59.8948 91.3285L54.1604 87.9352V83.8581L60 87.1461L69.3643 81.7274V64.8664L72.8891 62.6042L72.9943 79.5705L87.146 71.3635ZM59.395 49.4521L73.9412 41.0347L83.2529 46.6112V53.3188L87.0408 51.083V44.5595L60 28.8822L56.3963 30.9865L70.3639 39.0619L56.1596 47.453L59.395 49.4521Z" fill="#719CD0"/>
</svg>
