<svg width="120" height="120" viewBox="0 0 120 120" fill="none" xmlns="http://www.w3.org/2000/svg">
<path d="M118.191 74.5143C110.178 106.657 77.6222 126.219 45.4752 118.204C13.3417 110.19 -6.22004 77.6324 1.79691 45.4918C9.80683 13.3451 42.3626 -6.21803 74.4997 1.79541C106.644 9.80884 126.205 42.3702 118.191 74.5149L118.191 74.5143H118.191Z" fill="#50AF95"/>
<path fill-rule="evenodd" clip-rule="evenodd" d="M67.5926 66.8022C67.1683 66.834 64.9764 66.9648 60.0868 66.9648C56.1978 66.9648 53.4366 66.8482 52.4679 66.8022C37.4387 66.1411 26.2207 63.5248 26.2207 60.3924C26.2207 57.26 37.4387 54.6473 52.4679 53.9756V64.1966C53.4508 64.2673 56.265 64.4334 60.154 64.4334C64.8208 64.4334 67.1577 64.239 67.5784 64.2001V53.9826C82.5758 54.6508 93.7691 57.2671 93.7691 60.3924C93.7691 63.5178 82.5794 66.134 67.5784 66.7987L67.5926 66.8022ZM67.5926 52.9255V43.7793H88.5225V29.832H31.538V43.7793H52.4644V52.922C35.4553 53.7033 22.6641 57.0726 22.6641 61.1101C22.6641 65.1476 35.4553 68.5134 52.4644 69.2982V98.6071H67.5891V69.2876C84.5592 68.5063 97.3293 65.1405 97.3293 61.1066C97.3293 57.0726 84.5698 53.7069 67.5891 52.922L67.5926 52.9255Z" fill="white"/>
</svg>
