<svg width="120" height="120" viewBox="0 0 120 120" fill="none" xmlns="http://www.w3.org/2000/svg">
<circle cx="60" cy="60" r="60" fill="#EDF0F4"/>
<path d="M48.4678 89.3481H87.7212L93.4001 79.1759H54.2091L48.4678 89.3481Z" fill="#5569FF"/>
<path d="M86.4733 66.882H75.053L69.374 76.9917H80.7319L86.4733 66.882Z" fill="#5569FF"/>
<path d="M86.4728 64.6977L66.8773 30H55.457L75.1149 64.6977H86.4728Z" fill="#5C00E9"/>
<path d="M27 78.115L32.6789 88.1623L52.3368 53.4646L46.5955 43.4172L27 78.115Z" fill="#00BFE9"/>
<path d="M46.5959 88.1624L52.3373 78.115L46.5959 68.0052L40.917 78.115L46.5959 88.1624Z" fill="#00BFE9"/>
<path d="M48.5303 42.2939L54.2092 52.4037H65.6295L59.8882 42.2939H48.5303Z" fill="#5C00E9"/>
<path d="M93.3998 76.9917L88.3449 68.0676L83.29 76.9917H93.3998Z" fill="#243269"/>
<path d="M67.5011 75.8684L73.1801 65.8211L67.5011 55.7113L61.7598 65.8211L67.5011 75.8684Z" fill="#243269"/>
<path d="M48.4678 66.882L54.2091 76.9917H55.4572H65.6294L59.8881 66.882H48.4678Z" fill="#243269"/>
<path d="M54.2091 54.588L48.4678 64.6978H59.8881L65.567 54.588H54.2091Z" fill="#243269"/>
<path d="M34.5508 89.3482H44.723L39.6681 80.3617L34.5508 89.3482Z" fill="#243269"/>
<path d="M53.5851 31.1233L48.4678 40.1098H58.64L53.5851 31.1233Z" fill="#243269"/>
</svg>
