<svg width="120" height="120" viewBox="0 0 120 120" fill="none" xmlns="http://www.w3.org/2000/svg">
<path d="M60 0C93.132 0 120 26.868 120 60C120 93.132 93.132 120 60 120C26.868 120 0 93.132 0 60C0 26.868 26.868 0 60 0Z" fill="url(#paint0_linear_1_824)"/>
<path d="M83.04 41.64C82.284 42.54 82.332 44.532 81.12 43.92C81.12 43.92 72.684 40.692 77.88 31.2C79.284 29.004 80.736 28.86 80.52 23.52C81.816 25.488 86.064 29.436 86.4 35.64C86.736 39.78 84.264 40.332 83.04 41.64Z" fill="white"/>
<path d="M76.32 56.4C78.396 55.704 81.756 54.6 81.96 47.52C85.164 52.428 96.036 59.316 90.84 80.4C88.728 88.62 80.856 92.616 73.44 95.64C68.808 97.608 64.08 100.896 62.16 105.84C62.16 105.84 27.108 101.412 28.2 66.6C29.076 48.54 45.996 41.64 53.16 28.44C56.976 20.112 55.68 11.76 55.68 11.76C55.68 11.76 78 25.644 67.92 47.04C64.644 54.6 72.468 57.156 76.32 56.4Z" fill="white"/>
<path d="M41.88 62.64V74.28H54.24V86.64H65.88V74.28H78.24V62.64H41.88Z" fill="url(#paint1_linear_1_824)"/>
<defs>
<linearGradient id="paint0_linear_1_824" x1="0" y1="120" x2="120" y2="120" gradientUnits="userSpaceOnUse">
<stop stop-color="#FFA50D"/>
<stop offset="1" stop-color="#FE5413"/>
</linearGradient>
<linearGradient id="paint1_linear_1_824" x1="41.88" y1="86.64" x2="78.24" y2="86.64" gradientUnits="userSpaceOnUse">
<stop stop-color="#FFA50D"/>
<stop offset="1" stop-color="#FE5413"/>
</linearGradient>
</defs>
</svg>
