<svg width="120" height="120" viewBox="0 0 120 120" fill="none" xmlns="http://www.w3.org/2000/svg">
<circle cx="60" cy="60" r="60" fill="#EDF0F4"/>
<circle cx="44.3975" cy="60.3975" r="24.3975" fill="url(#paint0_linear_1_10308)"/>
<circle cx="41.5726" cy="66.8229" r="1.82831" fill="black"/>
<circle cx="46.9714" cy="66.8229" r="1.82831" fill="black"/>
<circle cx="52.3702" cy="66.8229" r="1.82831" fill="black"/>
<circle cx="57.7727" cy="66.8229" r="1.82831" fill="black"/>
<circle cx="63.1752" cy="66.8229" r="1.82831" fill="black"/>
<circle cx="68.574" cy="66.8229" r="1.82831" fill="black"/>
<circle cx="73.9765" cy="66.8229" r="1.82831" fill="black"/>
<circle cx="79.3753" cy="66.8229" r="1.82831" fill="black"/>
<circle cx="84.774" cy="66.8229" r="1.82831" fill="black"/>
<circle cx="87.7825" cy="72.2964" r="1.25884" fill="black"/>
<circle cx="82.2002" cy="72.2964" r="1.25884" fill="black"/>
<circle cx="76.6215" cy="72.2964" r="1.25884" fill="black"/>
<circle cx="71.043" cy="72.2964" r="1.25884" fill="black"/>
<circle cx="65.4606" cy="72.2964" r="1.25884" fill="black"/>
<circle cx="59.8782" cy="72.2964" r="1.25884" fill="black"/>
<circle cx="54.2996" cy="72.2964" r="1.25884" fill="black"/>
<circle cx="48.7173" cy="72.2964" r="1.25884" fill="black"/>
<circle cx="43.1387" cy="72.2964" r="1.25884" fill="black"/>
<circle cx="90.746" cy="76.1442" r="1.22137" fill="black"/>
<circle cx="85.085" cy="76.1442" r="1.22137" fill="black"/>
<circle cx="79.424" cy="76.1442" r="1.22137" fill="black"/>
<circle cx="73.7667" cy="76.1442" r="1.22137" fill="black"/>
<circle cx="68.1057" cy="76.1442" r="1.22137" fill="black"/>
<circle cx="62.4446" cy="76.1442" r="1.22137" fill="black"/>
<circle cx="56.7874" cy="76.1442" r="1.22137" fill="black"/>
<circle cx="51.1263" cy="76.1442" r="1.22137" fill="black"/>
<circle cx="45.4653" cy="76.1442" r="1.22137" fill="black"/>
<circle cx="94.6911" cy="80.0257" r="0.93289" fill="black"/>
<circle cx="88.9552" cy="80.0257" r="0.93289" fill="black"/>
<circle cx="83.2192" cy="80.0257" r="0.93289" fill="black"/>
<circle cx="77.487" cy="80.0257" r="0.93289" fill="black"/>
<circle cx="71.751" cy="80.0257" r="0.93289" fill="black"/>
<circle cx="66.0151" cy="80.0257" r="0.93289" fill="black"/>
<circle cx="60.2791" cy="80.0257" r="0.93289" fill="black"/>
<circle cx="54.5469" cy="80.0257" r="0.93289" fill="black"/>
<circle cx="48.8109" cy="80.0257" r="0.93289" fill="black"/>
<circle cx="99.2844" cy="83.4837" r="0.71559" fill="black"/>
<circle cx="93.5035" cy="83.4837" r="0.71559" fill="black"/>
<circle cx="87.7188" cy="83.4837" r="0.71559" fill="black"/>
<circle cx="81.9379" cy="83.4837" r="0.71559" fill="black"/>
<circle cx="76.157" cy="83.4837" r="0.71559" fill="black"/>
<circle cx="70.3723" cy="83.4837" r="0.71559" fill="black"/>
<circle cx="64.5914" cy="83.4837" r="0.71559" fill="black"/>
<circle cx="58.8105" cy="83.4837" r="0.71559" fill="black"/>
<circle cx="53.0258" cy="83.4837" r="0.71559" fill="black"/>
<circle cx="38.9426" cy="61.6563" r="1.25884" fill="black"/>
<circle cx="44.5212" cy="61.6563" r="1.25884" fill="black"/>
<circle cx="50.1035" cy="61.6563" r="1.25884" fill="black"/>
<circle cx="55.6821" cy="61.6563" r="1.25884" fill="black"/>
<circle cx="61.2645" cy="61.6563" r="1.25884" fill="black"/>
<circle cx="66.8468" cy="61.6563" r="1.25884" fill="black"/>
<circle cx="72.4254" cy="61.6563" r="1.25884" fill="black"/>
<circle cx="78.0078" cy="61.6563" r="1.25884" fill="black"/>
<circle cx="83.5864" cy="61.6563" r="1.25884" fill="black"/>
<circle cx="35.979" cy="57.8085" r="1.22137" fill="black"/>
<circle cx="41.6401" cy="57.8085" r="1.22137" fill="black"/>
<circle cx="47.3011" cy="57.8085" r="1.22137" fill="black"/>
<circle cx="52.9584" cy="57.8085" r="1.22137" fill="black"/>
<circle cx="58.6194" cy="57.8085" r="1.22137" fill="black"/>
<circle cx="64.2767" cy="57.8085" r="1.22137" fill="black"/>
<circle cx="69.9377" cy="57.8085" r="1.22137" fill="black"/>
<circle cx="75.5988" cy="57.8085" r="1.22137" fill="black"/>
<circle cx="81.256" cy="57.8085" r="1.22137" fill="black"/>
<circle cx="32.0339" cy="53.9273" r="0.93289" fill="black"/>
<circle cx="37.7699" cy="53.9273" r="0.93289" fill="black"/>
<circle cx="43.5058" cy="53.9273" r="0.93289" fill="black"/>
<circle cx="49.2381" cy="53.9273" r="0.93289" fill="black"/>
<circle cx="54.974" cy="53.9273" r="0.93289" fill="black"/>
<circle cx="60.71" cy="53.9273" r="0.93289" fill="black"/>
<circle cx="66.4459" cy="53.9273" r="0.93289" fill="black"/>
<circle cx="72.1782" cy="53.9273" r="0.93289" fill="black"/>
<circle cx="77.9141" cy="53.9273" r="0.93289" fill="black"/>
<circle cx="27.4406" cy="50.4693" r="0.71559" fill="black"/>
<circle cx="33.2216" cy="50.4693" r="0.71559" fill="black"/>
<circle cx="39.0025" cy="50.4693" r="0.71559" fill="black"/>
<circle cx="44.7871" cy="50.4693" r="0.71559" fill="black"/>
<circle cx="50.5681" cy="50.4693" r="0.71559" fill="black"/>
<circle cx="56.3527" cy="50.4693" r="0.71559" fill="black"/>
<circle cx="62.1337" cy="50.4693" r="0.71559" fill="black"/>
<circle cx="67.9146" cy="50.4693" r="0.71559" fill="black"/>
<circle cx="73.6992" cy="50.4693" r="0.71559" fill="black"/>
<defs>
<linearGradient id="paint0_linear_1_10308" x1="8.49061" y1="84.8643" x2="57.4242" y2="84.8643" gradientUnits="userSpaceOnUse">
<stop stop-color="#3B007F"/>
<stop offset="1" stop-color="#AA003D"/>
</linearGradient>
</defs>
</svg>
