<svg width="120" height="120" viewBox="0 0 120 120" fill="none" xmlns="http://www.w3.org/2000/svg">
<path d="M60 0C93.1371 0 120 26.8629 120 60C120 93.1371 93.1371 120 60 120C26.8629 120 0 93.1371 0 60C0 26.8629 26.8629 0 60 0Z" fill="#FFE81C"/>
<path d="M98.9898 32.5474L91.9303 55.4777H74.1841L71.4446 57.5657L61.8275 97.368H35.1018L40.1006 82.5051L40.4778 81.0548L29.5441 89.3554L44.6812 67.3543L48.2435 55.4777H24.0618L31.0561 32.5474H61.3441H63.6926L76.1006 24.6L71.0401 32.5474H98.9898Z" fill="#3F3F3F"/>
<path d="M89.4652 52.0457L94.488 36.6068H72.1475L65.9897 46.68L80.0435 51.9805L89.4652 52.0457Z" fill="#FFE81C"/>
<path d="M40.6594 77.6777L72.4869 53.5577L58.4331 47.6468L59.2937 46.2514L67.6869 33.096L67.752 32.9657L43.6354 48.4183L56.256 55.008L40.6594 77.6777Z" fill="#FFE81C"/>
<path d="M58.512 92.8937L65.6366 65.6812L44.472 82.1657L41.04 92.88H58.512V92.8937Z" fill="#FFE81C"/>
<path d="M34.6971 48.8468L53.7874 36.6582L33.3154 36.6068L28.5771 51.9668L42.2126 52.0457L34.6971 48.8468Z" fill="#FFE81C"/>
</svg>
