<svg width="120" height="120" viewBox="0 0 120 120" fill="none" xmlns="http://www.w3.org/2000/svg">
<circle cx="60" cy="60" r="60" fill="#895AF8"/>
<path fill-rule="evenodd" clip-rule="evenodd" d="M55.8 53.4001C54.1269 52.0135 53.1187 49.9836 53.025 47.8126V47.5126C53.025 43.1626 60.0375 36.2626 60.2625 36.2626L60.3059 36.3053C60.9392 36.9246 67.5 43.3413 67.5 47.5126V47.8501C67.4331 49.776 66.6274 51.6023 65.25 52.9501L82.5 43.6876L60 32.6626L37.5 43.5751L55.8 53.4001ZM66.6375 53.4376C67.237 53.4016 67.838 53.4016 68.4375 53.4376C71.4096 53.6384 73.5213 55.8932 75.3832 57.8812C76.9982 59.6056 78.4252 61.1292 80.0625 60.9376C76.7588 63.6383 72.9268 65.6182 68.8125 66.7501C65.2863 67.2647 61.8849 65.227 60.675 61.8751V76.8751L82.5 64.4251V45.0001L66.6375 53.4376ZM51.3375 66.9376C54.8739 67.4474 58.2789 65.3919 59.475 62.0251L59.5125 77.1751L37.5 64.4626V45.0001L53.5125 53.6251C52.913 53.5891 52.312 53.5891 51.7125 53.6251C48.6665 53.7273 46.5343 56.025 44.6537 58.0516C43.0847 59.7424 41.6908 61.2445 40.0875 61.1251C43.3912 63.8258 47.2232 65.8057 51.3375 66.9376Z" fill="white"/>
<path fill-rule="evenodd" clip-rule="evenodd" d="M60 15C35.1488 15 15 35.1488 15 60C15 84.8512 35.1488 105 60 105C84.8512 105 105 84.8512 105 60C105 35.1472 84.8528 15 60 15ZM34.875 41.9625L60 29.775L85.1625 41.9625V65.925L60 80.4375L34.875 65.925V41.9625ZM60.1875 90.1875L85.2375 75.7125V74.325L60.1875 88.8L34.8375 74.175V75.5625L60.1875 90.1875ZM85.2375 72.9L60.1875 87.375L34.8375 72.75V71.25L60.1875 85.9125L85.2375 71.4375V72.9ZM60.1875 84.5625L85.2375 70.0875V68.7375L60.1875 83.2125L34.8375 68.55V69.9375L60.1875 84.5625Z" fill="white"/>
</svg>
