<svg width="120" height="120" viewBox="0 0 120 120" fill="none" xmlns="http://www.w3.org/2000/svg">
<circle cx="60" cy="60" r="60" fill="#3058A6"/>
<path fill-rule="evenodd" clip-rule="evenodd" d="M15 60C15 35.1855 35.1855 15 60 15C84.8145 15 105 35.1855 105 60C105 84.8145 84.8145 105 60 105C35.1855 105 15 84.8145 15 60ZM17.6952 60C17.6952 83.3632 36.6368 102.305 60 102.305C83.3632 102.305 102.305 83.3632 102.305 60C102.305 36.6368 83.3632 17.6952 60 17.6952C36.6368 17.6952 17.6952 36.6368 17.6952 60Z" fill="white"/>
<path fill-rule="evenodd" clip-rule="evenodd" d="M69.91 28.6228L71.7645 32.479L70.5847 37.8467H67.8857L69.6461 29.829L69.91 28.6228ZM73.4985 86.2694L75.8469 76.0956L76.1334 74.8554L77.9653 78.7418L75.6169 88.9156L75.0478 91.377H72.5222L59.5401 91.3695H59.4874C52.6269 91.2564 47.7115 88.893 45.3971 84.8106C48.0772 87.2532 52.1633 88.6366 57.3689 88.7233H57.4217L70.4075 88.7309H72.9331L73.4985 86.2694ZM81.1392 41.7557L78.8021 51.6505L78.2216 54.0931H64.1502L60.5767 70.4074C60.5013 70.8749 60.4561 71.3498 60.4561 71.6137C60.4561 71.8436 60.4825 71.9906 60.5051 72.0622C60.7737 72.1629 61.059 72.2115 61.3457 72.2055H62.8837L66.2686 56.7431H80.3401L80.9168 54.2967L83.2539 44.4018L81.437 40.4967L81.1355 41.7557H81.1392ZM36.4219 54.0931H46.2263L45.6496 56.7431H39.7994L36.4219 54.0931Z" fill="white"/>
<path d="M61.6548 75.3833H61.2967C58.5676 75.3116 57.2784 73.8905 57.2784 71.6138C57.2784 71.071 57.3689 70.351 57.4593 69.812L61.5982 50.9194H75.7111L78.0482 41.0245H63.9353L66.5438 29.1506H55.0318L52.4196 41.0245H39.9275L37.6809 50.9194H50.173L45.3103 73.1404C45.0465 74.2185 44.9522 75.4775 44.9522 76.107C44.9522 82.4473 49.9543 85.4251 57.4217 85.5495L70.4037 85.5533L72.7521 75.3833H61.6548Z" fill="white"/>
</svg>
