<svg width="120" height="120" viewBox="0 0 120 120" fill="none" xmlns="http://www.w3.org/2000/svg">
<circle cx="60" cy="60" r="60" fill="#2B2E7F"/>
<path d="M64.1262 71.1351V49.1286H67.1096C76.4326 49.1286 79.0431 40.1769 79.0431 40.1769H54.0573C42.1238 40.1769 40.2592 49.1286 40.2592 49.1286H54.8031V82.3248C54.4302 82.3248 64.1262 79.3409 64.1262 71.1351Z" fill="white"/>
<path d="M91.3495 88.2926C99.5538 79.7138 102.91 67.4051 99.9267 55.8424C98.435 49.8746 95.0787 44.2797 90.6037 39.8039C90.2308 39.4309 89.8578 39.0579 89.4849 38.6849L89.112 38.3119C88.7391 37.9389 88.3661 37.9389 88.3661 37.5659L87.9932 37.1929L87.2474 36.4469H86.1286C85.7557 36.0739 85.3828 36.0739 85.0098 35.701L84.264 35.328C83.8911 35.328 83.8911 34.955 83.5182 34.955L82.7723 34.582C83.1452 34.209 82.7723 33.836 82.3994 33.836L81.6535 33.463C81.2806 33.463 81.2806 33.09 80.9077 33.09H80.5348C81.6535 33.836 82.3994 34.209 83.1452 34.955C95.8246 47.6367 96.1975 68.1511 83.5182 81.2058C83.5182 81.2058 83.5182 81.2058 83.1452 81.5788C66.7366 97.9903 40.2592 97.9903 23.8506 81.5788C23.1047 80.8328 22.7318 80.4598 21.986 79.7138L21.613 79.3408C21.2401 78.9678 20.8672 78.5948 20.4943 78.2219C22.7318 82.3248 25.3423 86.0547 28.6986 89.4116C45.853 106.196 73.4492 106.196 90.6037 89.4116C90.9766 88.6656 90.9766 88.6656 91.3495 88.2926Z" fill="white"/>
<path d="M39.1404 83.8167C38.3946 83.0707 37.6487 82.6977 36.9029 81.9518C24.2235 69.2701 23.8506 48.3826 36.5299 35.701C36.5299 35.701 36.5299 35.701 36.9029 35.328C53.3115 18.9164 79.7889 18.9164 96.1975 35.328C97.3163 36.4469 98.4351 37.5659 99.5538 39.0579C97.3163 34.955 94.7058 31.2251 91.3495 27.8682C74.1951 10.7106 46.5989 10.7106 29.4444 27.8682C29.0715 28.2412 29.0715 28.2412 28.6986 28.6141C17.5109 40.5498 15.6463 58.0804 24.9694 71.508C28.3257 76.7299 33.5466 81.2058 39.1404 83.8167Z" fill="white"/>
</svg>
