<svg width="120" height="120" viewBox="0 0 120 120" fill="none" xmlns="http://www.w3.org/2000/svg">
<circle cx="60" cy="60" r="60" fill="#00843D"/>
<path fill-rule="evenodd" clip-rule="evenodd" d="M52.8909 16.9162C55.0532 15.6672 57.5054 15.0089 60.0019 15.0075L59.9981 15C62.4971 15.0002 64.9521 15.6584 67.1165 16.9087L93.8853 32.3841C98.2822 34.9342 100.992 39.6328 101 44.7196V76.2842C100.992 81.3709 98.2822 86.0696 93.8853 88.6196L67.1128 104.091C62.7124 106.636 57.2876 106.636 52.8835 104.091L26.1147 88.6196C21.7178 86.0696 19.0078 81.3709 19 76.2842V44.7196C19.0078 39.6328 21.7178 34.9342 26.1147 32.3841L52.8909 16.9162ZM64.2041 21.9724C62.9292 21.2351 61.4824 20.8496 60.0093 20.8496L60.0056 20.8459H59.9981C58.5288 20.8459 57.0782 21.2351 55.7996 21.9724L29.0308 37.444C26.4325 38.9486 24.8323 41.7218 24.8323 44.7233V76.2879C24.8338 79.2896 26.434 82.0626 29.0308 83.5634L55.8071 99.0389C58.404 100.54 61.6035 100.54 64.2004 99.0389L90.9729 83.5634C93.5713 82.0627 95.1677 79.2895 95.1677 76.2879V44.7233C95.1691 41.7209 93.57 38.9459 90.9729 37.444L64.2041 21.9724Z" fill="white"/>
<path fill-rule="evenodd" clip-rule="evenodd" d="M60.8468 35.7373C60.3247 35.4525 59.6939 35.4525 59.1719 35.7373L51.2235 40.0787L55.2089 46.9874C55.5212 47.529 56.0983 47.8628 56.723 47.8632H63.2956C63.9205 47.8636 64.498 47.5296 64.8097 46.9874L68.7952 40.0824L60.8468 35.7411V35.7373ZM47.9409 56.6619C48.5666 56.6613 49.1447 56.3278 49.4588 55.7862L52.6778 50.1985C52.9904 49.6566 52.9904 48.9889 52.6778 48.447L48.6625 41.4821L40.8225 45.7636C40.2496 46.0779 39.8993 46.6854 39.914 47.3392C39.9776 50.4755 40.344 53.5968 41.002 56.6619H47.9409ZM56.723 65.4606C56.097 65.4616 55.5182 65.1276 55.2051 64.5849L51.9862 58.9973C51.6736 58.4553 51.6736 57.7877 51.9862 57.2458L55.2051 51.6581C55.5182 51.1154 56.097 50.7814 56.723 50.7824H63.2956C63.9199 50.7843 64.4963 51.1177 64.8097 51.6581L68.0325 57.2458C68.345 57.7877 68.345 58.4553 68.0325 58.9973L64.8097 64.5849C64.4974 65.1265 63.9203 65.4602 63.2956 65.4606H56.723ZM70.5598 55.7862C70.8722 56.3277 71.4493 56.6615 72.074 56.6619H79.0167C79.674 53.5948 80.0371 50.4718 80.1009 47.3355C80.1135 46.6822 79.7618 46.0762 79.1886 45.7636L71.3524 41.4821L67.3371 48.447C67.0245 48.9889 67.0245 49.6566 67.3371 50.1985L70.5598 55.7862ZM48.812 74.5026C45.6225 69.9668 43.2268 64.921 41.7273 59.5811H47.9447C48.5694 59.5815 49.1465 59.9153 49.4588 60.4569L52.6815 66.0445C52.9941 66.5864 52.9941 67.2541 52.6815 67.796L48.812 74.5026ZM78.2839 59.5811C76.7855 64.9208 74.3911 69.9665 71.2029 74.5026L67.3333 67.796C67.0208 67.2541 67.0208 66.5864 67.3333 66.0445L70.5598 60.4569C70.8722 59.9153 71.4493 59.5815 72.074 59.5811H78.2839ZM55.2051 69.2556C55.5182 68.7128 56.097 68.3789 56.723 68.3798H63.2993C63.924 68.3802 64.5011 68.714 64.8135 69.2556L69.2999 77.0363C66.8851 80.0427 64.1272 82.7558 61.0823 85.1202C60.4508 85.6063 59.5716 85.6063 58.9401 85.1202C55.8941 82.7571 53.1349 80.0453 50.7187 77.0401L55.2051 69.2556Z" fill="white"/>
</svg>
