<svg width="120" height="120" viewBox="0 0 120 120" fill="none" xmlns="http://www.w3.org/2000/svg">
<circle cx="60" cy="60" r="60" fill="#EDF0F4"/>
<path d="M71.2536 70H67.8681C67.2411 70 66.7082 69.4984 66.7082 68.8401V59.9373L60.7834 63.6363C60.2819 63.9498 59.6549 63.9498 59.1533 63.6363L53.2599 59.9373V68.8401C53.2599 69.4671 52.7584 70 52.1 70H48.7458C48.1189 70 47.5859 69.4984 47.5859 68.8401V51.6614C47.5859 50.815 48.2756 50.1254 49.122 50.1254C49.4355 50.1254 49.7176 50.2194 49.9684 50.4075L59.3101 56.8338C59.6863 57.116 60.2192 57.116 60.5953 56.8338L69.937 50.4075C70.6267 49.9373 71.5985 50.1254 72.0687 50.815C72.2568 51.0658 72.3195 51.3793 72.3508 51.6614V68.8401C72.3822 69.4671 71.8806 70 71.2536 70Z" fill="#FF4A4A"/>
<path d="M42.5392 69.9687H21.5361C20.6897 69.9687 20 69.279 20 68.4326V51.1599C20.0313 50.5016 20.5329 50 21.1912 50H24.5768C25.2038 50 25.7367 50.5016 25.7367 51.1599V64.2947H38.4639V51.1599C38.4639 50.5329 38.9655 50 39.6238 50H42.9154C43.5423 50 44.0752 50.5016 44.0752 51.1599V68.4326C44.0752 69.279 43.3856 69.9687 42.5392 69.9687Z" fill="#FF4A4A"/>
<path d="M77.4609 50H98.464C99.3104 50 100 50.6897 100 51.5361V68.8088C100 69.4357 99.4985 69.9687 98.8715 69.9687H95.4859C94.859 69.9687 94.3261 69.4671 94.3261 68.8088V56.4263C94.3261 56.0188 93.9812 55.674 93.5737 55.674H82.3825C81.975 55.674 81.6301 56.0188 81.6301 56.4263V68.8088C81.6301 69.4357 81.1286 69.9687 80.4703 69.9687H77.0847C76.4577 69.9687 75.9248 69.4671 75.9248 68.8088V51.5361C75.9248 50.6897 76.6145 50 77.4609 50Z" fill="#FF4A4A"/>
<path d="M86.2692 59.3103H89.6235C90.2504 59.3103 90.7834 59.8119 90.7834 60.4702V63.8871C90.7834 64.5141 90.2818 65.047 89.6235 65.047H86.2692C85.6423 65.047 85.1094 64.5454 85.1094 63.8871V60.4388C85.1094 59.8119 85.6423 59.3103 86.2692 59.3103Z" fill="#FF4A4A"/>
</svg>
