<svg width="120" height="120" viewBox="0 0 120 120" fill="none" xmlns="http://www.w3.org/2000/svg">
<path d="M116.25 74.031L116.18 74.3124C108.314 105.216 76.9403 123.988 45.959 116.263C14.8974 108.517 -4.01217 77.0447 3.73745 45.9759L3.73758 45.9754C11.4804 14.9005 42.9508 -4.01014 74.0158 3.73599L74.0159 3.73601C105.088 11.4822 123.997 42.9579 116.25 74.031Z" fill="url(#paint0_linear_1_379)" stroke="#FFD9EC" stroke-width="4"/>
<path d="M50.53 37.0578C49.7178 36.9417 49.6791 36.903 50.0659 36.8644C50.8008 36.7483 52.5027 36.903 53.7018 37.1738C56.4867 37.8314 59.0009 39.5333 61.6698 42.5116L62.366 43.3239L63.3717 43.1692C67.6652 42.4729 72.0747 43.0144 75.7492 44.7163C76.7549 45.1805 78.3408 46.1088 78.5342 46.3409C78.6115 46.4183 78.7276 46.9211 78.8049 47.4239C79.0757 49.2419 78.9596 50.5957 78.3795 51.64C78.07 52.2202 78.07 52.3749 78.2634 52.8778C78.4181 53.2646 78.8823 53.5353 79.3078 53.5353C80.2361 53.5353 81.2031 52.0655 81.6672 50.0155L81.8606 49.2032L82.2087 49.59C84.1814 51.7947 85.7286 54.8504 85.9607 57.0165L86.038 57.5967L85.6899 57.0939C85.1097 56.2042 84.5682 55.624 83.8333 55.1212C82.5182 54.2316 81.1257 53.9608 77.4511 53.7674C74.1247 53.574 72.2294 53.3032 70.3727 52.6844C67.201 51.64 65.5765 50.2862 61.8245 45.2965C60.1613 43.0918 59.1169 41.8927 58.0726 40.8871C55.7905 38.6823 53.5084 37.5219 50.53 37.0578Z" fill="#FF007A"/>
<path d="M79.3471 41.9701C79.4244 40.5003 79.6178 39.5333 80.0433 38.6436C80.198 38.2955 80.3527 37.9861 80.3914 37.9861C80.4301 37.9861 80.3527 38.2568 80.2367 38.5663C79.9273 39.4172 79.8886 40.6163 80.082 41.9701C80.3527 43.7107 80.4688 43.9428 82.3254 45.8381C83.1764 46.7277 84.182 47.8494 84.5688 48.3136L85.2264 49.1645L84.5688 48.5457C83.7566 47.7721 81.8999 46.3022 81.4744 46.1088C81.2037 45.9541 81.165 45.9541 80.9716 46.1475C80.8169 46.3022 80.7782 46.5343 80.7782 47.656C80.7395 49.3966 80.5075 50.4796 79.9273 51.6013C79.6178 52.1815 79.5791 52.0655 79.8499 51.408C80.0433 50.9051 80.082 50.673 80.082 49.0098C80.082 45.6447 79.6952 44.8324 77.3357 43.4786C76.7555 43.1305 75.7498 42.6277 75.1697 42.3569C74.5508 42.0861 74.0866 41.8541 74.1253 41.8541C74.2027 41.7767 76.4848 42.4343 77.3744 42.8211C78.7282 43.3626 78.9603 43.4012 79.115 43.3626C79.231 43.2465 79.3084 42.9371 79.3471 41.9701Z" fill="#FF007A"/>
<path d="M52.1165 47.7334C50.4919 45.49 49.4476 42.0088 49.6797 39.4173L49.757 38.605L50.1438 38.6823C50.84 38.7984 52.0391 39.2625 52.6193 39.6107C54.1665 40.539 54.8627 41.8154 55.5203 44.9871C55.7137 45.9155 55.9844 46.9985 56.1005 47.3466C56.2939 47.9268 57.0288 49.2806 57.6477 50.1315C58.0732 50.7504 57.8024 51.0599 56.8354 50.9825C55.3656 50.8278 53.3929 49.474 52.1165 47.7334Z" fill="#FF007A"/>
<path d="M77.374 64.559C69.7154 61.4647 67.0078 58.7958 67.0078 54.2702C67.0078 53.6127 67.0465 53.0712 67.0465 53.0712C67.0852 53.0712 67.3559 53.3032 67.704 53.574C69.2512 54.8118 70.9918 55.3533 75.8268 56.0495C78.6504 56.475 80.275 56.7844 81.7448 57.2873C86.425 58.8344 89.326 62.0062 90.0223 66.2996C90.2157 67.5374 90.0996 69.8969 89.7902 71.1346C89.5194 72.1016 88.7458 73.8809 88.5524 73.9195C88.5137 73.9195 88.4364 73.7261 88.4364 73.4167C88.359 71.7922 87.5467 70.245 86.193 69.0459C84.5684 67.6534 82.4797 66.6091 77.374 64.559Z" fill="#FF007A"/>
<path d="M71.959 65.8355C71.8817 65.2553 71.6883 64.5204 71.5723 64.2109L71.3789 63.6307L71.727 64.0562C72.2298 64.6364 72.6166 65.3326 72.9647 66.2996C73.2355 67.0346 73.2355 67.2666 73.2355 68.4657C73.2355 69.6261 73.1968 69.8969 72.9647 70.5544C72.5779 71.5988 72.1138 72.3337 71.3402 73.146C69.9477 74.5771 68.1298 75.3507 65.5382 75.6988C65.0741 75.7375 63.7589 75.8535 62.5986 75.9309C59.6976 76.0856 57.7636 76.395 56.023 77.0139C55.7909 77.0913 55.5588 77.1686 55.5202 77.13C55.4428 77.0526 56.6419 76.3564 57.6089 75.8922C58.9627 75.2347 60.3551 74.8865 63.4108 74.345C64.9193 74.1129 66.4665 73.8035 66.8533 73.6488C70.6826 72.4497 72.5779 69.4714 71.959 65.8355Z" fill="#FF007A"/>
<path d="M75.4786 72.0629C74.4729 69.8582 74.2408 67.7695 74.7823 65.7968C74.8597 65.6034 74.9371 65.41 75.0144 65.41C75.0918 65.41 75.3239 65.5261 75.5559 65.6808C76.0201 65.9902 76.9871 66.5317 79.4626 67.8855C82.5956 69.5874 84.3749 70.9026 85.6127 72.4111C86.6957 73.7262 87.3533 75.2347 87.6627 77.0913C87.8561 78.1357 87.7401 80.6498 87.4693 81.6942C86.6183 84.982 84.6844 87.6122 81.8607 89.1207C81.4353 89.3528 81.0871 89.5075 81.0485 89.5075C81.0098 89.5075 81.1645 89.1207 81.3966 88.6566C82.3249 86.6839 82.4409 84.7886 81.7447 82.6612C81.3192 81.3461 80.4296 79.7602 78.6503 77.0913C76.5229 73.9969 76.0201 73.1847 75.4786 72.0629Z" fill="#FF007A"/>
<path d="M46.6619 83.8989C49.5242 81.5007 53.044 79.7988 56.2931 79.2573C57.6856 79.0252 60.0064 79.1026 61.2828 79.4507C63.3328 79.9922 65.1895 81.1526 66.1565 82.5837C67.0848 83.9762 67.5103 85.1753 67.9357 87.8442C68.0905 88.8885 68.2839 89.9716 68.3225 90.2037C68.632 91.5961 69.2508 92.6792 70.0244 93.2594C71.2235 94.149 73.3122 94.1877 75.3622 93.4141C75.7104 93.298 76.0198 93.182 76.0198 93.2207C76.0972 93.298 75.0528 93.9943 74.3566 94.3424C73.3896 94.8452 72.616 94.9999 71.5716 94.9999C69.715 94.9999 68.1291 94.033 66.8527 92.099C66.5819 91.7122 66.0404 90.5905 65.5763 89.5461C64.2225 86.413 63.5262 85.4847 61.9404 84.4404C60.5479 83.5507 58.7686 83.3573 57.4148 84.0149C55.6356 84.8659 55.1714 87.148 56.4092 88.5404C56.912 89.1206 57.8403 89.5848 58.6139 89.7008C60.0451 89.8942 61.2828 88.7725 61.2828 87.3414C61.2828 86.413 60.9347 85.8715 60.0064 85.4461C58.7686 84.9045 57.4148 85.5234 57.4535 86.7225C57.4535 87.2253 57.6856 87.5348 58.1884 87.7668C58.4979 87.9216 58.4979 87.9216 58.2658 87.8829C57.1441 87.6508 56.8733 86.2583 57.763 85.3687C58.846 84.2857 61.1281 84.7498 61.9017 86.2583C62.2111 86.8772 62.2498 88.115 61.9791 88.8885C61.3215 90.5905 59.4649 91.4801 57.5696 90.9773C56.2931 90.6291 55.7516 90.281 54.2044 88.6951C51.4969 85.9102 50.4525 85.3687 46.5845 84.7885L45.8496 84.6725L46.6619 83.8989Z" fill="#FF007A"/>
<path fill-rule="evenodd" clip-rule="evenodd" d="M26.3168 21.6632C35.3292 32.6096 49.2152 49.6287 49.9115 50.557C50.4917 51.3306 50.2596 52.0655 49.2926 52.607C48.7511 52.9165 47.6294 53.2259 47.0878 53.2259C46.469 53.2259 45.7341 52.9165 45.2312 52.4136C44.8831 52.0655 43.3746 49.8608 39.9708 44.5616C37.3792 40.5003 35.1745 37.1351 35.1358 37.0964C34.9811 37.0191 34.9811 37.0191 39.7 45.4513C42.6784 50.7504 43.6454 52.6457 43.6454 52.8778C43.6454 53.3806 43.4906 53.6514 42.8718 54.3476C41.8274 55.508 41.3632 56.8231 41.0151 59.5694C40.6283 62.6251 39.584 64.7911 36.6056 68.4657C34.8651 70.6318 34.5943 71.0186 34.1688 71.9082C33.6273 72.9912 33.4726 73.6101 33.3952 75.0026C33.3179 76.4724 33.4726 77.4007 33.8981 78.7932C34.2849 80.0309 34.7103 80.8432 35.7547 82.4291C36.6443 83.8216 37.1858 84.8659 37.1858 85.2527C37.1858 85.5621 37.2632 85.5621 38.6557 85.2527C41.9821 84.4791 44.7284 83.164 46.2369 81.5395C47.1652 80.5338 47.3973 79.9923 47.3973 78.5998C47.3973 77.7102 47.3586 77.5168 47.1265 76.9752C46.7397 76.1243 46.0048 75.4281 44.4189 74.345C42.3302 72.9139 41.4406 71.7535 41.2085 70.2063C41.0151 68.8912 41.2472 68.0015 42.4076 65.5647C43.6067 63.0505 43.9161 62.0062 44.1095 59.4533C44.2255 57.8288 44.4189 57.1712 44.8831 56.6684C45.3859 56.1269 45.8114 55.9335 47.0105 55.7788C48.9832 55.508 50.2596 55.0052 51.2653 54.0382C52.1549 53.2259 52.5417 52.4136 52.5804 51.2145L52.619 50.3249L52.1162 49.7834C50.2983 47.6947 25.1178 20 25.0017 20C24.963 20 25.5819 20.7349 26.3168 21.6632ZM38.1915 76.6658C38.617 75.9309 38.3849 75.0026 37.6887 74.5384C37.0311 74.1129 36.0254 74.3063 36.0254 74.8865C36.0254 75.0413 36.1028 75.196 36.3349 75.2733C36.683 75.4667 36.7217 75.6601 36.4509 76.0856C36.1802 76.5111 36.1802 76.8979 36.5283 77.1686C37.0698 77.5941 37.8047 77.362 38.1915 76.6658Z" fill="#FF007A"/>
<path fill-rule="evenodd" clip-rule="evenodd" d="M53.857 56.3203C52.9287 56.591 52.0391 57.5967 51.7683 58.6024C51.6136 59.2212 51.6909 60.343 51.9617 60.6911C52.3872 61.2326 52.774 61.3873 53.857 61.3873C55.9844 61.3873 57.8023 60.459 57.9957 59.3373C58.1891 58.409 57.3769 57.1325 56.2552 56.5523C55.675 56.2429 54.4759 56.1269 53.857 56.3203ZM56.3325 58.2542C56.642 57.7901 56.5259 57.2873 55.9457 56.9391C54.9014 56.2816 53.3155 56.8231 53.3155 57.8288C53.3155 58.3316 54.1278 58.8731 54.9014 58.8731C55.4042 58.8731 56.1004 58.5637 56.3325 58.2542Z" fill="#FF007A"/>
<defs>
<linearGradient id="paint0_linear_1_379" x1="0" y1="0" x2="0" y2="120" gradientUnits="userSpaceOnUse">
<stop stop-color="#FEF3F9"/>
<stop offset="1" stop-color="#FDE5F2"/>
</linearGradient>
</defs>
</svg>
