<svg width="120" height="120" viewBox="0 0 120 120" fill="none" xmlns="http://www.w3.org/2000/svg">
<circle cx="60" cy="60" r="60" fill="#EDF0F4"/>
<path d="M49.8701 31.0783C49.9214 31.0988 49.9522 31.1399 49.9419 31.1912C49.9419 31.2938 49.9419 31.3862 49.9419 31.4888V67.7292C49.9419 67.8524 49.9316 67.9653 49.9316 68.0884C49.983 68.1911 50.0753 68.1398 50.1369 68.1398C56.644 68.1398 63.151 68.1398 69.6683 68.15C69.8736 68.15 69.966 68.0987 69.9352 67.8832C69.9352 67.8113 69.9352 67.7497 69.9352 67.6779C69.9352 55.608 69.9352 43.5484 69.9352 31.4786C69.9352 31.3554 69.8633 31.1912 70.0173 31.0988C70.0686 31.0578 70.1507 31.068 70.1918 31.1193C70.1918 31.1193 70.1918 31.1296 70.202 31.1296C70.2534 31.2015 70.3047 31.2733 70.3457 31.3554C71.0847 32.8231 71.8442 34.301 72.5729 35.7687C73.1785 37.0003 73.7943 38.2319 74.3998 39.4533C75.0772 40.8081 75.7649 42.1731 76.4422 43.5279C77.0581 44.7493 77.6636 45.9809 78.2691 47.2022C78.8131 48.3107 79.3776 49.3986 79.9113 50.5071C79.9934 50.6713 80.1166 50.8047 80.1679 50.9792C80.1987 51.1845 80.1987 51.4 80.1884 51.6053V86.9117C80.1884 87.0143 80.1884 87.1067 80.1884 87.2093C80.1884 87.5993 80.1884 87.5993 80.5682 87.6712C80.6195 87.6814 80.6605 87.702 80.7016 87.743C80.445 87.8662 80.1782 87.9072 79.901 87.9688C78.6899 88.2562 77.4686 88.4409 76.2267 88.5333C75.652 88.5744 75.0772 88.5846 74.5024 88.5949C71.5363 88.6462 68.5599 88.6257 65.5937 88.6257C60.4415 88.6257 55.2789 88.6257 50.1164 88.6154C50.0138 88.6154 49.9009 88.6462 49.7982 88.5846C49.829 88.5641 49.8598 88.5333 49.9009 88.5231C50.0856 88.482 50.2703 88.4717 50.4653 88.482H69.3399C69.5041 88.4923 69.6786 88.482 69.8428 88.4615C69.9968 88.3896 69.9352 88.2562 69.9455 88.1433C69.9455 83.9558 69.9455 79.758 69.9455 75.5705V69.0122C69.9352 68.8787 69.9455 68.7453 69.9557 68.6119C69.8018 69.0943 69.5452 69.5459 69.3194 70.0077C68.488 71.7422 67.6772 73.487 66.8459 75.2318C66.3943 76.1863 65.9427 77.1306 65.4911 78.0851C65.4295 78.2185 65.3679 78.3622 65.2242 78.434C65.0806 78.4751 64.9266 78.4854 64.7829 78.4751H55.0737C54.9402 78.4854 54.8171 78.4751 54.6836 78.4443C54.4886 78.3827 54.4271 78.2082 54.3552 78.044C53.7907 76.8432 53.216 75.6424 52.6515 74.4313C52.0357 73.1278 51.4199 71.8346 50.804 70.5312C50.5064 69.9153 50.2293 69.2893 49.9009 68.6427C49.9009 68.8172 49.9009 68.9608 49.9009 69.1045C49.9009 75.4063 49.9009 81.6978 49.9009 87.9996C49.9009 88.1946 49.9522 88.3999 49.8085 88.5744C49.7058 88.5744 49.6135 88.5949 49.5108 88.5949C48.0432 88.5949 46.5755 88.5949 45.1078 88.5949C44.7281 88.5949 44.3586 88.5744 43.9788 88.5641C43.907 88.5641 43.8351 88.5744 43.7838 88.5231C43.8557 88.4615 43.9378 88.4923 44.0096 88.4923C45.8057 88.4923 47.6018 88.4923 49.3979 88.4923C49.4698 88.4923 49.5314 88.482 49.5519 88.4923C47.766 88.4923 45.9391 88.4923 44.102 88.4923C43.9993 88.4923 43.8865 88.4512 43.7838 88.5333C43.3322 88.5538 42.8704 88.4923 42.4188 88.4409C41.5361 88.3588 40.674 88.1741 39.8118 88.0304C39.7811 88.0201 39.7605 88.0099 39.7297 87.9893C39.8324 87.7636 39.8221 87.5275 39.8221 87.2914C39.8221 75.4474 39.8221 63.6033 39.8221 51.7592C39.8118 51.554 39.8221 51.3384 39.8426 51.1332C39.894 50.9176 39.9761 50.7123 40.0787 50.5276C40.6945 49.3063 41.3103 48.0849 41.9159 46.8533C44.1533 42.2655 46.4626 37.7188 48.7308 33.1515C49.0182 32.5768 49.3056 32.0225 49.5827 31.4478C49.6237 31.3554 49.6545 31.1604 49.8393 31.3246C49.8393 42.6555 49.8393 53.9864 49.8393 65.3173C49.8393 66.2 49.8393 67.0826 49.8393 67.9755C49.8393 55.8544 49.8393 43.7434 49.8393 31.6223C49.829 31.4273 49.7674 31.2528 49.8701 31.0783Z" fill="#E85C50"/>
<path d="M39.9043 50.9996C39.9043 63.1721 39.9043 75.3447 39.9043 87.5069C39.9043 87.6095 39.9043 87.7019 39.9043 87.8045C39.9146 87.9482 39.8222 87.9687 39.7196 87.979C38.2519 87.6403 36.8253 87.1887 35.491 86.5011C34.7521 86.1213 34.0336 85.721 33.3973 85.1976C31.632 83.7505 30.4004 81.9749 30.1335 79.6451C30.1335 79.5629 30.1335 79.4911 30.1335 79.409C30.1027 79.3064 30.0924 79.1935 30.113 79.0806C30.113 63.285 30.113 47.4998 30.113 31.7043C30.1027 31.5914 30.113 31.4888 30.1335 31.3759C30.2772 31.3861 30.308 31.5093 30.349 31.6017C30.893 32.7101 31.437 33.8083 31.9912 34.9065C32.6583 36.2305 33.3254 37.5442 33.9823 38.8785C34.5981 40.1101 35.2242 41.3417 35.8297 42.5836C36.2095 43.3636 36.6098 44.1334 36.9895 44.9031C37.3487 45.6113 37.708 46.3195 38.0569 47.0379C38.4675 47.9001 38.8985 48.7519 39.3399 49.5936C39.5349 49.9528 39.6785 50.3325 39.8633 50.702C39.9249 50.7841 39.9351 50.897 39.9043 50.9996Z" fill="#CF3339"/>
<path d="M80.7017 87.743C80.5581 87.7327 80.4246 87.7533 80.2912 87.7943C80.1783 87.8148 80.0962 87.7841 80.0962 87.6404C80.0962 87.5685 80.0962 87.5069 80.0962 87.4351V50.8868C80.0038 50.7226 80.127 50.5994 80.1886 50.4763C81.1739 48.557 82.1489 46.6275 83.1137 44.6877C83.1342 44.6466 83.165 44.5953 83.1958 44.5542C83.206 44.5337 83.2163 44.5132 83.2266 44.4926C83.2471 44.4619 83.2574 44.4311 83.2779 44.4003C83.2984 44.3695 83.2984 44.3592 83.3087 44.3387C83.3395 44.2771 83.3703 44.2053 83.401 44.1437C83.4113 44.1232 83.4318 44.0924 83.4421 44.0718C83.9553 43.1071 84.4274 42.1218 84.92 41.1365C85.1869 40.6233 85.4332 40.1101 85.6898 39.5867C85.9259 39.1248 86.1517 38.6732 86.3775 38.2114C86.398 38.1806 86.4083 38.1498 86.4288 38.1293C87.1883 36.6513 87.9067 35.1529 88.6662 33.6852C88.9844 33.0796 89.2923 32.4638 89.6105 31.8583C89.6618 31.7454 89.7028 31.612 89.867 31.5812C89.9286 31.7043 89.8978 31.8275 89.8978 31.9507C89.8978 41.3315 89.8978 50.7123 89.8978 60.0829C89.8978 66.3128 89.8978 72.5428 89.8978 78.7727C89.9081 78.8959 89.9081 79.0088 89.8773 79.1319C89.9184 79.563 89.7541 79.953 89.6515 80.3533C89.3231 81.626 88.6252 82.6831 87.763 83.6479C87.1164 84.3971 86.3672 85.0642 85.5359 85.6082C84.489 86.2958 83.36 86.8603 82.1797 87.2914C81.7076 87.4556 81.2047 87.6198 80.7017 87.743Z" fill="#CF3339"/>
<path d="M39.9043 50.9996C39.8837 50.897 39.8529 50.8046 39.7914 50.7225C39.5142 50.1375 39.2063 49.573 38.9395 48.988C38.6726 48.4235 38.3442 47.8898 38.0979 47.315C37.8721 46.7813 37.5539 46.299 37.3281 45.7755C37.0407 45.1084 36.6405 44.5028 36.3736 43.8255C36.271 43.5586 36.0965 43.3225 35.9733 43.066C35.7783 42.6759 35.6244 42.2654 35.4088 41.8857C34.988 41.1467 34.6493 40.3564 34.2593 39.6072C34.0027 39.1145 33.7359 38.6321 33.5101 38.119C33.2638 37.5647 32.9353 37.0516 32.6993 36.4973C32.4119 35.8199 32.0116 35.2041 31.7242 34.5267C31.5908 34.1983 31.3753 33.9007 31.2316 33.5722C30.9032 32.8538 30.4824 32.1764 30.1231 31.4477V79.0498C30.1231 79.1729 30.1231 79.2858 30.1231 79.409C30.0205 79.0806 30.0513 78.7419 30.0513 78.4032C30.041 74.1951 30.041 69.9768 30.0513 65.7688V31.9711C30.0616 31.6735 30.0513 31.3758 30.0205 31.0782C30.1129 31.0474 30.2155 31.0371 30.3079 31.0577C36.702 31.0577 43.1065 31.0577 49.5006 31.0577H49.6751C49.8906 31.0577 49.8085 31.1706 49.7469 31.2629L45.8571 39.0119C45.0463 40.6335 44.2354 42.2449 43.4349 43.8665C43.1372 44.4618 42.8601 45.0673 42.5625 45.6626C41.7414 47.3048 40.9203 48.9469 40.0993 50.5891L39.9043 50.9996Z" fill="#E33936"/>
<path d="M83.1958 44.6261C83.1855 44.7082 83.1547 44.78 83.1137 44.8416C82.4671 46.1451 81.8205 47.4588 81.1533 48.752C80.8352 49.3678 80.5273 49.9836 80.2091 50.6097C80.1578 50.6918 80.1167 50.7842 80.0962 50.8868C79.9833 50.8868 79.9525 50.7842 79.9217 50.7123C79.7883 50.4557 79.6857 50.1889 79.5522 49.9323C79.3983 49.6244 79.2238 49.3165 79.0699 49.0086C78.7825 48.4441 78.4848 47.8796 78.218 47.3048C77.9409 46.6993 77.5919 46.1348 77.3251 45.519C77.0377 44.8621 76.6579 44.2566 76.3808 43.5997C76.2269 43.2405 76.0113 42.9018 75.8369 42.5426C75.5597 41.9884 75.2621 41.4341 75.0055 40.8696C74.7079 40.223 74.3384 39.6072 74.0613 38.9504C73.9073 38.5911 73.6815 38.2524 73.5173 37.8932C73.2094 37.2056 72.8194 36.559 72.5217 35.8611C72.3678 35.5018 72.1523 35.1631 71.9778 34.8039C71.4133 33.6647 70.8385 32.5357 70.274 31.3964C70.2125 31.3041 70.1714 31.2014 70.1509 31.0988L70.2022 31.068C74.0921 31.0577 77.9819 31.068 81.882 31.068C84.4684 31.068 87.0446 31.068 89.631 31.068C89.7336 31.068 89.8465 31.0372 89.9492 31.0988C89.9594 31.1809 90.0518 31.2527 89.9594 31.3451C89.672 31.6838 89.5386 32.1046 89.3436 32.4844C88.3583 34.3934 87.4038 36.3229 86.439 38.2524C86.1927 38.704 85.9567 39.1659 85.7411 39.6278C85.4743 40.1409 85.2177 40.6541 84.9611 41.1775C84.4479 42.1628 83.9758 43.1789 83.4524 44.154C83.401 44.2258 83.36 44.3079 83.3292 44.39C83.2881 44.4208 83.2984 44.4824 83.2676 44.5132C83.2163 44.5337 83.2266 44.5953 83.1958 44.6261Z" fill="#E33936"/>
<path d="M86.4185 38.2422C86.5724 37.7085 86.8598 37.2261 87.1266 36.7437C87.219 36.5795 87.2806 36.405 87.3627 36.2305C87.7219 35.5326 88.0606 34.8347 88.4096 34.1368C88.6867 33.5928 88.9433 33.0386 89.2307 32.4946C89.4257 32.1354 89.5899 31.7762 89.7746 31.4067C89.8157 31.3246 89.8465 31.263 89.9491 31.3246C89.9491 33.2541 89.9491 35.1837 89.9491 37.1029C89.9491 50.8355 89.9491 64.568 89.9491 78.3006C89.9491 78.5674 89.9696 78.8343 89.8978 79.1011C89.8978 78.9985 89.8875 78.9061 89.8875 78.8035V31.6222C89.7951 31.6325 89.7849 31.7043 89.7644 31.7659C89.6617 31.9609 89.5693 32.1559 89.4667 32.3509C88.4917 34.2291 87.5474 36.1176 86.6032 38.0164C86.5519 38.0985 86.5211 38.2011 86.4185 38.2422Z" fill="#E34C37"/>
<path d="M70.1405 31.0885C70.0173 31.1091 69.9352 31.222 69.9557 31.3451V31.3554C69.9557 31.4375 69.9557 31.5093 69.9557 31.5914C69.9557 43.6408 69.9557 55.7004 69.9557 67.7497C69.9557 68.2218 70.007 68.1808 69.5247 68.1808C63.1202 68.1808 56.7056 68.1808 50.3011 68.1808C50.178 68.1808 50.024 68.2526 49.9214 68.0987C50.024 68.1397 50.1369 68.15 50.2396 68.1397H69.5965C69.6376 68.1397 69.6786 68.1397 69.7197 68.1397C69.8633 68.15 69.9249 68.0987 69.9147 67.955C69.9044 67.8626 69.9147 67.7805 69.9147 67.6881V31.4785C69.9147 31.4067 69.9147 31.3451 69.9147 31.2733C69.8941 31.0988 69.9865 31.0372 70.1405 31.0475V31.0885Z" fill="#E9654C"/>
<path d="M49.7367 31.2733C49.7367 31.1912 49.8085 31.0783 49.6341 31.0988C49.552 31.0988 49.4698 31.0988 49.398 31.0988H30C30.0821 30.9859 30.2053 31.0475 30.2976 31.0475C31.6627 31.0373 33.0175 31.0475 34.3722 31.0475C39.4014 31.0475 44.4407 31.0475 49.4698 31.0475C49.593 31.0475 49.7264 31.0065 49.8496 31.0988C49.8496 35.235 49.8496 39.3712 49.8496 43.4971V68.0577C49.7572 68.0166 49.7983 67.9448 49.788 67.8935C49.788 67.8216 49.788 67.76 49.788 67.6882C49.788 55.6902 49.788 43.6819 49.788 31.6736C49.7983 31.5299 49.8496 31.3862 49.7367 31.2733Z" fill="#E7563D"/>
<path d="M70.1406 31.0885C70.1406 31.0783 70.1406 31.0577 70.1406 31.0475C70.2535 31.0372 70.3562 31.0269 70.4691 31.0269C76.8529 31.0269 83.2266 31.0269 89.6105 31.0269C89.7234 31.0269 89.8465 30.9756 89.9389 31.0783L70.1406 31.0885Z" fill="#E85C50"/>
<path d="M69.9557 88.5641C69.8222 88.5641 69.6991 88.5641 69.5657 88.5641H50.219C50.0958 88.5641 49.9829 88.5538 49.8597 88.5538C49.8392 88.4306 49.8597 88.3177 49.9213 88.2049C50.4345 87.1272 50.9374 86.0495 51.4506 84.9719C52.4667 82.8473 53.4622 80.7125 54.4783 78.5982C54.5091 78.5161 54.5604 78.434 54.622 78.3827H65.2345C65.491 78.8343 65.6963 79.3064 65.9118 79.7683C66.3224 80.6612 66.7535 81.5438 67.1743 82.4368C68.0774 84.3355 68.9806 86.2445 69.8736 88.1433C69.9557 88.2767 69.9865 88.4204 69.9557 88.5641Z" fill="#CF3339"/>
<path d="M54.6324 78.3826C54.5914 78.5571 54.5298 78.7213 54.4374 78.8855C53.9448 79.9119 53.4419 80.9382 52.9595 81.9646C52.6311 82.6625 52.3026 83.3604 51.9742 84.0583C51.5945 84.8692 51.2147 85.6697 50.8247 86.4703C50.5373 87.0655 50.2602 87.6711 49.9831 88.2766C49.942 88.369 49.9112 88.4614 49.8702 88.5538L49.7983 88.5743C49.7983 88.4409 49.7983 88.3177 49.7983 88.1843V68.3757C49.8907 68.4373 49.9626 68.5297 49.9933 68.6323C50.1884 69.0634 50.3834 69.5047 50.5886 69.9255C50.9068 70.5926 51.2352 71.2495 51.5431 71.9064C52.0871 73.0764 52.6413 74.2362 53.1956 75.396C53.524 76.0836 53.8422 76.7815 54.1809 77.4692C54.3245 77.7771 54.4272 78.1055 54.6324 78.3826Z" fill="#E33937"/>
<path d="M69.9558 88.5641C69.884 88.2049 69.6787 87.9073 69.5453 87.5788C69.3708 87.158 69.1655 86.7578 68.9603 86.337C68.4984 85.3722 68.0263 84.4074 67.5747 83.4426C67.2052 82.6626 66.8357 81.8826 66.4662 81.1026C66.066 80.2815 65.6965 79.4502 65.3065 78.6291C65.2654 78.547 65.2346 78.4649 65.2346 78.3725C65.8299 77.1203 66.4354 75.8682 67.0205 74.6058C67.3694 73.8668 67.7184 73.1381 68.0673 72.3991C68.4574 71.5781 68.8371 70.7672 69.2271 69.9564C69.4324 69.5254 69.6274 69.0943 69.8224 68.6632C69.8532 68.5606 69.9148 68.458 70.0071 68.3861V68.694C70.0071 75.2011 70.0071 81.7184 70.0071 88.2254C70.0174 88.3486 70.0585 88.4718 69.9558 88.5641Z" fill="#E33937"/>
<path d="M43.7634 88.523C43.825 88.4409 43.9276 88.4511 44.0098 88.4511H49.5828C49.6239 88.4511 49.6649 88.4614 49.706 88.4717C49.5931 88.5127 49.4802 88.523 49.3673 88.5025H44.0303C43.9482 88.5127 43.8558 88.523 43.7634 88.523Z" fill="#E75840"/>
<path d="M83.4316 44.1437C83.4419 44.0718 83.4624 44.0103 83.5035 43.9487C83.9448 43.066 84.3861 42.1834 84.8275 41.3007C84.848 41.2391 84.8788 41.1981 84.9301 41.157C84.9506 41.1262 84.9712 41.1262 84.9917 41.157C84.5401 42.0705 84.0782 42.9736 83.6266 43.8871C83.5753 43.9795 83.5445 44.1026 83.4316 44.1437Z" fill="#E04437"/>
<path d="M84.9815 41.1672H84.9199C85.0431 40.7978 85.2586 40.4591 85.4228 40.0998C85.5049 39.9356 85.5563 39.7509 85.6897 39.6175C85.7102 39.5867 85.7307 39.5867 85.7513 39.6175L84.9815 41.1672Z" fill="#E24837"/>
<path d="M85.7615 39.6175H85.7C85.895 39.1351 86.1002 38.663 86.4184 38.2422C86.4287 38.3038 86.4081 38.3653 86.3876 38.4167C86.1413 38.7964 85.9668 39.2172 85.7615 39.6175Z" fill="#E34C37"/>
<path d="M83.3189 44.3797C83.2984 44.2771 83.3497 44.1847 83.4421 44.1437C83.4318 44.236 83.3908 44.3284 83.3189 44.3797Z" fill="#E04437"/>
<path d="M83.2574 44.5132C83.2471 44.4619 83.2779 44.4208 83.3189 44.39C83.3189 44.4413 83.2984 44.4824 83.2574 44.5132Z" fill="#E04437"/>
<path d="M83.1956 44.6261C83.1853 44.5748 83.2161 44.5337 83.2572 44.5029C83.2572 44.5542 83.2366 44.5953 83.1956 44.6261Z" fill="#E04437"/>
</svg>
