<svg width="120" height="120" viewBox="0 0 120 120" fill="none" xmlns="http://www.w3.org/2000/svg">
<circle cx="60" cy="60" r="60" fill="#EDF0F4"/>
<path fill-rule="evenodd" clip-rule="evenodd" d="M31.5105 37.0001H47.8305C47.9176 36.9984 48.0036 37.0191 48.0805 37.0601C48.1538 37.1008 48.2157 37.1592 48.2605 37.2301L68.1305 69.0001C68.2386 69.1639 68.2386 69.3763 68.1305 69.5401L60.0005 82.5101C59.9557 82.581 59.8938 82.6394 59.8205 82.6801C59.6678 82.7637 59.4831 82.7637 59.3305 82.6801C59.2572 82.6394 59.1953 82.581 59.1505 82.5101L31.0805 37.7701C31.032 37.6954 31.0044 37.6091 31.0005 37.5201C30.9965 37.4296 31.0173 37.3397 31.0605 37.2601C31.1053 37.1806 31.171 37.1149 31.2505 37.0701C31.3291 37.0234 31.419 36.9992 31.5105 37.0001ZM65.7205 37.0001H87.5805C87.6719 36.9992 87.7618 37.0234 87.8405 37.0701C87.9089 37.119 87.964 37.1843 88.0005 37.2601C88.0432 37.3399 88.0639 37.4296 88.0605 37.5201C88.0626 37.6072 88.0419 37.6934 88.0005 37.7701L77.0805 55.2101C77.0357 55.281 76.9738 55.3394 76.9005 55.3801C76.7478 55.4637 76.5631 55.4637 76.4105 55.3801C76.3372 55.3394 76.2753 55.281 76.2305 55.2101L65.3005 37.7701C65.252 37.6954 65.2244 37.6091 65.2205 37.5201C65.2165 37.4296 65.2373 37.3397 65.2805 37.2601C65.3253 37.1806 65.391 37.1149 65.4705 37.0701C65.5462 37.0252 65.6324 37.001 65.7205 37.0001Z" fill="#FF8836"/>
</svg>
