<svg width="120" height="120" viewBox="0 0 120 120" fill="none" xmlns="http://www.w3.org/2000/svg">
<circle cx="60" cy="60" r="60" fill="black"/>
<path d="M69.6564 67.8306V67.6042" stroke="#ABABAB" stroke-width="0.3333"/>
<path d="M87.5455 46.577L100 25C96.8945 25.3882 93.8536 26.3263 91.0392 27.7173C88.6454 32.408 88.5807 37.131 85.7016 41.3364C75.5762 56.2171 58.5605 60.8431 43.6474 51.0736C35.0748 45.4772 29.9313 30.9846 28.9608 27.7173C26.1464 26.3263 23.1055 25.3882 20 25C24.1407 32.1816 28.3138 39.3955 32.4545 46.577C47.6264 51.9147 57.7194 70.3215 59.9191 84.4258C61.8601 68.1541 73.3441 52.8852 87.5455 46.577Z" fill="url(#paint0_linear_1_10554)"/>
<path d="M87.5456 46.5771C66.8096 52.2059 54.5169 73.5242 60.0162 94.2925L87.5456 46.5771Z" fill="url(#paint1_linear_1_10554)"/>
<path d="M32.4546 46.5771L59.9839 94.2925C65.4833 73.5242 53.1905 52.2383 32.4546 46.5771Z" fill="url(#paint2_linear_1_10554)"/>
<path d="M86.4779 41.5305C89.0658 37.3574 90.6509 32.6344 91.0715 27.7173C84.3105 31.0816 79.1346 37.0016 76.7407 44.1508C71.3707 60.2284 48.6615 60.2284 43.2915 44.1508C40.8653 37.0016 35.7217 31.0816 28.9607 27.7496C30.4164 44.8948 45.4912 57.6081 62.6364 56.1524C72.4383 55.3113 81.2696 49.909 86.4779 41.5305Z" fill="url(#paint3_linear_1_10554)"/>
<defs>
<linearGradient id="paint0_linear_1_10554" x1="19.9944" y1="25.0089" x2="19.9944" y2="84.4545" gradientUnits="userSpaceOnUse">
<stop stop-color="#0090FF"/>
<stop offset="1" stop-color="#0A3979"/>
</linearGradient>
<linearGradient id="paint1_linear_1_10554" x1="58.7" y1="94.2958" x2="87.5421" y2="94.2958" gradientUnits="userSpaceOnUse">
<stop stop-color="#0090FF"/>
<stop offset="0.96" stop-color="#084A93"/>
<stop offset="1" stop-color="#084A93"/>
</linearGradient>
<linearGradient id="paint2_linear_1_10554" x1="32.4667" y1="46.585" x2="32.4667" y2="94.2861" gradientUnits="userSpaceOnUse">
<stop stop-color="#0090FF"/>
<stop offset="0.96" stop-color="#084A93"/>
<stop offset="1" stop-color="#084A93"/>
</linearGradient>
<linearGradient id="paint3_linear_1_10554" x1="91.0335" y1="56.2542" x2="91.0335" y2="27.7238" gradientUnits="userSpaceOnUse">
<stop stop-color="#13D5D2"/>
<stop offset="0.43" stop-color="#12E0E4"/>
<stop offset="1" stop-color="#76BDFF"/>
</linearGradient>
</defs>
</svg>
