<svg width="120" height="120" viewBox="0 0 120 120" fill="none" xmlns="http://www.w3.org/2000/svg">
<path d="M60 120C93.1364 120 120 93.1364 120 60C120 26.8636 93.1364 0 60 0C26.8636 0 0 26.8636 0 60C0 93.1364 26.8636 120 60 120Z" fill="url(#paint0_linear_1_3468)"/>
<path fill-rule="evenodd" clip-rule="evenodd" d="M90.6191 56.4272H29.3837V56.4259C27.3407 56.4199 25.686 54.7652 25.6801 52.7223C25.686 50.6793 27.3407 49.0246 29.3837 49.0186H36.5387L28.9037 28.8573C28.1856 26.9445 29.147 24.811 31.0555 24.0818C32.9686 23.3647 35.1017 24.3265 35.831 26.235L44.4587 49.0186H73.2301L81.8591 26.235C82.5878 24.3259 84.7215 23.3639 86.6346 24.0818C88.5431 24.811 89.5045 26.9445 88.7864 28.8573L81.1528 49.0186H90.6191C92.6621 49.0246 94.3168 50.6793 94.3228 52.7223C94.3175 54.7658 92.6627 56.4213 90.6191 56.4272ZM90.6178 63.3409H29.3837C27.3412 63.3469 25.6868 65.0007 25.6801 67.0432C25.6853 69.0867 27.3402 70.7422 29.3837 70.7482H44.7682L55.1932 98.2786C55.767 99.78 57.241 100.742 58.8464 100.664C60.4518 100.742 61.9258 99.78 62.4996 98.2786L72.9246 70.7468H90.6191C92.6621 70.7408 94.3168 69.0861 94.3228 67.0432C94.3168 65.0002 92.6621 63.3455 90.6191 63.3395L90.6178 63.3409ZM58.8451 87.0082L52.6869 70.7454H65.0032L58.8451 87.0068V87.0082Z" fill="white"/>
<defs>
<linearGradient id="paint0_linear_1_3468" x1="49.8334" y1="144.45" x2="143.27" y2="70.0323" gradientUnits="userSpaceOnUse">
<stop stop-color="#F8B342"/>
<stop offset="1" stop-color="#F2C35E"/>
</linearGradient>
</defs>
</svg>
