<svg width="120" height="120" viewBox="0 0 120 120" fill="none" xmlns="http://www.w3.org/2000/svg">
<path d="M60 120C93.1364 120 120 93.1364 120 60C120 26.8636 93.1364 0 60 0C26.8636 0 0 26.8636 0 60C0 93.1364 26.8636 120 60 120Z" fill="url(#paint0_linear_1_4272)"/>
<path fill-rule="evenodd" clip-rule="evenodd" d="M90.6193 56.4272H29.3838V56.4259C27.3408 56.4199 25.6862 54.7652 25.6802 52.7223C25.6862 50.6793 27.3408 49.0246 29.3838 49.0186H36.5388L28.9038 28.8573C28.1857 26.9445 29.1471 24.811 31.0556 24.0818C32.9687 23.3647 35.1019 24.3265 35.8311 26.235L44.4588 49.0186H73.2302L81.8593 26.235C82.5879 24.3259 84.7216 23.3639 86.6347 24.0818C88.5432 24.811 89.5046 26.9445 88.7865 28.8573L81.1529 49.0186H90.6193C92.6622 49.0246 94.3169 50.6793 94.3229 52.7223C94.3177 54.7658 92.6628 56.4213 90.6193 56.4272ZM90.6179 63.3409H29.3838C27.3414 63.3469 25.6869 65.0007 25.6802 67.0432C25.6854 69.0867 27.3403 70.7422 29.3838 70.7482H44.7684L55.1934 98.2786C55.7671 99.78 57.2412 100.742 58.8465 100.664C60.4519 100.742 61.926 99.78 62.4997 98.2786L72.9247 70.7468H90.6193C92.6622 70.7408 94.3169 69.0861 94.3229 67.0432C94.3169 65.0002 92.6622 63.3455 90.6193 63.3395L90.6179 63.3409ZM58.8452 87.0082L52.687 70.7454H65.0034L58.8452 87.0068V87.0082Z" fill="white"/>
<defs>
<linearGradient id="paint0_linear_1_4272" x1="49.8334" y1="144.45" x2="143.27" y2="70.0323" gradientUnits="userSpaceOnUse">
<stop stop-color="#F8B342"/>
<stop offset="1" stop-color="#F2C35E"/>
</linearGradient>
</defs>
</svg>
