<svg width="120" height="120" viewBox="0 0 120 120" fill="none" xmlns="http://www.w3.org/2000/svg">
<circle cx="60" cy="60" r="60" fill="#EDF0F4"/>
<path d="M93.6791 58.7832H93.6003L91.1068 46.7408C91.5974 46.5598 91.8884 46.0539 91.798 45.5388C91.7077 45.0237 91.2619 44.647 90.739 44.6438C90.5469 44.6439 90.3585 44.6967 90.1944 44.7966L80.3828 33.1937C80.8095 32.7867 80.8255 32.1109 80.4186 31.6842C80.0117 31.2575 79.3358 31.2414 78.9091 31.6484C78.8225 31.7303 78.7506 31.8264 78.6965 31.9326L68.8276 27.4615C68.8663 27.3517 68.8865 27.2363 68.8873 27.1199C68.8855 26.5572 68.4526 26.0898 67.8916 26.0449C67.3307 26.0001 66.829 26.3927 66.7377 26.948H60.7356C60.306 26.5877 59.6797 26.5877 59.25 26.948H53.236C53.1878 26.5558 52.9292 26.2212 52.5618 26.0758C52.1944 25.9304 51.7769 25.9973 51.4733 26.2503C51.1698 26.5033 51.0287 26.9019 51.1055 27.2895C51.1131 27.3481 51.1267 27.4057 51.1461 27.4615L41.2939 31.9326C41.0242 31.4083 40.3804 31.2019 39.8561 31.4716C39.3317 31.7414 39.1254 32.3851 39.3951 32.9095C39.4504 33.0149 39.5222 33.1108 39.6077 33.1937L29.7531 44.7632C29.589 44.6633 29.4006 44.6104 29.2085 44.6103C28.6856 44.6135 28.2398 44.9903 28.1494 45.5053C28.0591 46.0204 28.3501 46.5264 28.8407 46.7074L26.3926 58.7904H26.3137C25.5795 58.821 25 59.4252 25 60.1601C25 60.895 25.5795 61.4992 26.3137 61.5299H26.3926L28.855 73.5866C28.3644 73.7676 28.0734 74.2736 28.1638 74.7886C28.2541 75.3037 28.6999 75.6805 29.2228 75.6837C29.4146 75.6813 29.6024 75.6286 29.7674 75.5308L39.6101 87.1266C39.3032 87.4194 39.1987 87.8661 39.344 88.2646C39.4892 88.6631 39.8566 88.9378 40.2799 88.9645C40.7032 88.9912 41.1022 88.7648 41.2963 88.3877L51.1581 92.8612C51.1203 92.9712 51.1001 93.0864 51.0984 93.2027C51.1002 93.7654 51.5331 94.2328 52.094 94.2777C52.655 94.3226 53.1567 93.93 53.2479 93.3747H59.25C59.6804 93.733 60.3053 93.733 60.7356 93.3747H66.7377C66.829 93.93 67.3307 94.3226 67.8916 94.2777C68.4526 94.2328 68.8855 93.7654 68.8873 93.2027C68.8867 93.0863 68.8665 92.9709 68.8276 92.8612L78.6989 88.3781C78.8931 88.7552 79.292 88.9817 79.7153 88.955C80.1387 88.9283 80.506 88.6535 80.6513 88.255C80.7965 87.8565 80.692 87.4098 80.3852 87.117L90.2039 75.5786C90.3689 75.6764 90.5567 75.7291 90.7485 75.7314C91.2714 75.7282 91.7172 75.3515 91.8076 74.8364C91.8979 74.3213 91.6069 73.8154 91.1163 73.6344L93.6074 61.5156H93.6863C94.4205 61.4849 95 60.8807 95 60.1458C95 59.4109 94.4205 58.8067 93.6863 58.776L93.6791 58.7832Z" fill="#0432A9"/>
<path d="M90.6531 46.8077L91.7565 55.6855L88.2432 48.3148C88.7016 47.9721 88.8812 47.3693 88.685 46.8316L89.8195 46.3062C90.0028 46.5953 90.3117 46.7812 90.6531 46.8077Z" fill="#EDF0F4"/>
<path d="M85.8426 69.863L85.6038 60.9924C85.9522 60.9658 86.2483 60.7276 86.3489 60.3929H88.1212C88.1212 60.4359 88.1403 60.4789 88.1522 60.5243C88.1641 60.5697 88.1809 60.6222 88.1976 60.67V60.6987C88.3351 61.0447 88.6102 61.3181 88.9571 61.4534L88.0352 67.7588L86.3633 70.8088L85.8426 69.863Z" fill="#EDF0F4"/>
<path d="M33.5984 70.8041L31.9265 67.7541L31.0142 61.4463C31.4651 61.2703 31.7864 60.8651 31.8549 60.3859H33.6629C33.6874 60.4398 33.7161 60.4917 33.7489 60.5411C33.876 60.7796 34.1095 60.9429 34.3771 60.9806L34.1382 69.8583L33.5984 70.8041Z" fill="#EDF0F4"/>
<path d="M34.1453 50.4428L34.3841 59.3206C34.1158 59.3564 33.8816 59.5203 33.7559 59.7601C33.7222 59.8088 33.6934 59.8608 33.67 59.9153H31.8715C31.8044 59.4355 31.4827 59.0296 31.0308 58.8549L31.9527 52.5399L33.6246 49.4899L34.1453 50.4428Z" fill="#EDF0F4"/>
<path d="M86.3824 49.5042L88.0543 52.5542L88.9762 58.8596C88.6283 58.9934 88.3527 59.2673 88.2167 59.6143V59.643C88.1987 59.6906 88.1836 59.7393 88.1713 59.7887C88.1585 59.8318 88.1481 59.8757 88.1403 59.92H86.3824C86.2835 59.5842 85.9864 59.3452 85.6372 59.3206L85.876 50.45L86.3824 49.5042Z" fill="#EDF0F4"/>
<path d="M86.552 49.2057L86.9533 48.5059C87.1057 48.5651 87.2674 48.5967 87.4309 48.599H87.4715L87.9277 51.704L86.552 49.2057Z" fill="#EDF0F4"/>
<path d="M91.4673 59.9535H90.8248C90.7587 59.5526 90.5169 59.2023 90.1656 58.9981C90.1385 58.9816 90.1106 58.9664 90.082 58.9528C90.0519 58.9357 90.0208 58.9206 89.9889 58.9074C89.8201 58.8306 89.6369 58.7907 89.4515 58.7903H89.3774L88.6179 53.6099L91.7778 59.3803C91.6096 59.5282 91.496 59.7284 91.4554 59.9487L91.4673 59.9535Z" fill="#EDF0F4"/>
<path d="M91.7804 60.9447L88.6277 66.7151L89.3872 61.5346H89.4612C89.6465 61.5331 89.8295 61.4933 89.9986 61.4176C90.0297 61.4176 90.0607 61.3865 90.0894 61.3722C90.118 61.3585 90.1459 61.3434 90.173 61.3268C90.5233 61.1217 90.7648 60.7718 90.8322 60.3715H91.4747C91.5114 60.5895 91.6178 60.7898 91.778 60.9423L91.7804 60.9447Z" fill="#EDF0F4"/>
<path d="M85.8689 49.552L85.8856 48.9215C85.9397 48.9168 85.9933 48.9072 86.0456 48.8928L86.1436 49.072L85.8689 49.552Z" fill="#EDF0F4"/>
<path d="M86.1077 47.2663V47.2854C86.0192 47.252 85.9253 47.235 85.8306 47.2352C85.7628 47.2352 85.6952 47.2449 85.63 47.2639V47.2209L85.3721 46.6525L86.1531 46.9271C86.1164 47.0361 86.0939 47.1492 86.0862 47.2639L86.1077 47.2663Z" fill="#EDF0F4"/>
<path d="M85.5966 48.8928L85.5655 50.087L82.0617 56.1823L78.5938 52.2796C78.7152 52.1304 78.7818 51.9441 78.7824 51.7517C78.7826 51.6708 78.7705 51.5903 78.7466 51.5129L85.0926 48.5178C85.2018 48.695 85.3715 48.8265 85.5703 48.888L85.5966 48.8928Z" fill="#EDF0F4"/>
<path d="M74.1084 78.0696L74.5717 77.9072L74.1561 79.1014C74.1144 79.0938 74.072 79.0898 74.0295 79.0895C73.9742 79.0891 73.9189 79.0947 73.8647 79.1062C74.0896 78.8129 74.1766 78.4367 74.1036 78.0744L74.1084 78.0696Z" fill="#EDF0F4"/>
<path d="M73.965 77.6685C73.8538 77.4619 73.6887 77.2894 73.4873 77.1693L76.8072 68.9054L77.1559 68.8433C77.2279 69.0493 77.3756 69.2201 77.5691 69.3209L74.7317 77.3795L73.965 77.6685Z" fill="#EDF0F4"/>
<path d="M73.1744 79.9446L71.2637 80.2957L72.059 79.4215C72.4171 79.6583 72.8682 79.7055 73.2676 79.5481C73.2105 79.6584 73.1787 79.7799 73.1744 79.904L73.1601 79.9374L73.1744 79.9446Z" fill="#EDF0F4"/>
<path d="M60.8263 82.5097L70.2821 80.7686L64.7887 86.8327L60.6782 83.0113C60.7741 82.8704 60.8257 82.704 60.8263 82.5336C60.818 82.5249 60.8108 82.5153 60.8048 82.5049L60.8263 82.5097Z" fill="#EDF0F4"/>
<path d="M60.7738 82.2327C60.7269 82.0951 60.6445 81.9723 60.5349 81.8768L62.589 78.5187H71.4954C71.5332 78.7419 71.6278 78.9516 71.77 79.1277L70.6188 80.4103L60.7738 82.2327Z" fill="#EDF0F4"/>
<path d="M59.3409 83.0018L55.2304 86.8232L49.7371 80.759L59.1928 82.5002V82.5145C59.1843 82.6818 59.225 82.8478 59.3098 82.9922L59.3409 83.0018Z" fill="#EDF0F4"/>
<path d="M59.2477 82.2328L49.4241 80.4199L48.261 79.1374C48.4032 78.9612 48.4978 78.7515 48.5357 78.5283H57.4421L59.4651 81.8721C59.3558 81.9669 59.2734 82.0888 59.2262 82.2256L59.2477 82.2328Z" fill="#EDF0F4"/>
<path d="M46.8278 79.9017C46.8234 79.7776 46.7916 79.656 46.7346 79.5458C47.134 79.7032 47.5851 79.656 47.9432 79.4192L48.7385 80.2934L46.8278 79.9423V79.9017Z" fill="#EDF0F4"/>
<path d="M46.1472 79.1014C46.0512 79.0799 45.9517 79.0799 45.8558 79.1014L45.4402 77.9072L45.9035 78.0696C45.8883 78.1484 45.8803 78.2283 45.8797 78.3085C45.8744 78.5898 45.958 78.8656 46.1185 79.0967L46.1472 79.1014Z" fill="#EDF0F4"/>
<path d="M46.0444 77.6684L45.2587 77.3937L42.4355 69.3113C42.629 69.2104 42.7768 69.0396 42.8487 68.8336L43.1975 68.8957L46.5174 77.1596C46.3104 77.2806 46.1403 77.4556 46.0253 77.666L46.0444 77.6684Z" fill="#EDF0F4"/>
<path d="M45.9011 42.2433L45.4377 42.4058L45.8533 41.2115C45.8955 41.2139 45.9378 41.2139 45.9799 41.2115C46.0352 41.2095 46.0902 41.2039 46.1447 41.1948C45.9358 41.4968 45.8425 41.8639 45.882 42.229L45.9011 42.2433Z" fill="#EDF0F4"/>
<path d="M46.0446 42.6447C46.157 42.8502 46.3218 43.0224 46.5222 43.1438L43.2023 51.4078L42.8536 51.4699C42.7832 51.263 42.635 51.0917 42.4404 50.9922L45.2731 42.9098L46.0446 42.6447Z" fill="#EDF0F4"/>
<path d="M46.8446 40.3589L48.7553 40.0078L47.96 40.882C47.6028 40.6428 47.1505 40.5954 46.7515 40.7554C46.8079 40.6449 46.8397 40.5235 46.8446 40.3995L46.8589 40.3661L46.8446 40.3589Z" fill="#EDF0F4"/>
<path d="M59.1904 37.8034L49.7346 39.5445L55.228 33.4803L59.3385 37.3018C59.2419 37.4424 59.1903 37.609 59.1904 37.7795C59.1904 37.7795 59.1713 37.7962 59.1713 37.801L59.1904 37.8034Z" fill="#EDF0F4"/>
<path d="M59.2428 38.0804C59.2909 38.2174 59.3731 38.3399 59.4817 38.4363L57.4252 41.792H48.5188C48.4819 41.5686 48.3872 41.3586 48.2441 41.183L49.4073 39.9004L59.2428 38.0804Z" fill="#EDF0F4"/>
<path d="M60.6759 37.3113L64.7863 33.4899L70.2797 39.5541L60.8263 37.8129V37.7986C60.8269 37.6228 60.7717 37.4514 60.6687 37.3089L60.6759 37.3113Z" fill="#EDF0F4"/>
<path d="M60.7691 38.0804L70.5927 39.8933L71.7559 41.1758C71.6117 41.3535 71.5169 41.566 71.4812 41.792H62.5748L60.5208 38.4339C60.6281 38.3394 60.7102 38.2195 60.7596 38.0852L60.7691 38.0804Z" fill="#EDF0F4"/>
<path d="M73.1888 40.4115C73.1937 40.5354 73.2255 40.6569 73.282 40.7674C72.8829 40.6074 72.4306 40.6548 72.0734 40.8939L71.2781 40.0198L73.1888 40.3709V40.4115Z" fill="#EDF0F4"/>
<path d="M73.8696 41.2115C73.9241 41.2207 73.9792 41.2262 74.0344 41.2283C74.0766 41.2307 74.1189 41.2307 74.161 41.2283L74.5766 42.4225L74.1132 42.2601C74.1869 41.8978 74.0998 41.5213 73.8744 41.2283L73.8696 41.2115Z" fill="#EDF0F4"/>
<path d="M73.9723 42.6447L74.7581 42.9193L77.5812 51.0017C77.3867 51.1012 77.2385 51.2726 77.168 51.4794L76.8193 51.4173L73.4851 43.1534C73.6868 43.0273 73.8516 42.8502 73.9628 42.6399L73.9723 42.6447Z" fill="#EDF0F4"/>
<path d="M80.531 58.8452C80.2913 58.7564 80.0296 58.7455 79.7834 58.8142L78.4626 55.5301L78.1855 52.5661C78.2702 52.5426 78.3507 52.5064 78.4244 52.4586L81.9186 56.4306L80.531 58.8452Z" fill="#EDF0F4"/>
<path d="M82.2291 56.7817L84.8086 59.7052L84.7274 59.8986H81.4194C81.3651 59.568 81.1876 59.2701 80.9226 59.0651L82.2291 56.7817Z" fill="#EDF0F4"/>
<path d="M79.0166 59.3445C78.9516 59.3239 78.8841 59.3127 78.8159 59.3111L78.6082 57.0803L79.3748 58.9911C79.2308 59.0825 79.1066 59.2019 79.0094 59.3422L79.0166 59.3445Z" fill="#EDF0F4"/>
<path d="M79.3724 61.3197L78.6057 63.2304L78.8135 60.9996C78.8814 60.9959 78.9487 60.9847 79.0141 60.9662C79.1079 61.105 79.2271 61.2249 79.3652 61.3197H79.3724Z" fill="#EDF0F4"/>
<path d="M78.2619 56.206L78.5605 59.3444C78.2951 59.419 78.084 59.6203 77.9968 59.8818H72.0831C72.0541 59.7954 72.0105 59.7146 71.9541 59.643L77.0367 53.168L78.2619 56.206Z" fill="#EDF0F4"/>
<path d="M59.0589 59.1558C58.8611 59.3492 58.729 59.5998 58.6815 59.8723L49.467 59.8843C49.3907 59.7264 49.2671 59.5962 49.1135 59.5117L52.4836 50.6602C52.6602 50.7072 52.8474 50.6946 53.0162 50.6244L59.0589 59.1558Z" fill="#EDF0F4"/>
<path d="M53.377 50.3187C53.458 50.2072 53.5105 50.0777 53.5298 49.9413H66.4703C66.4896 50.0777 66.5421 50.2072 66.6231 50.3187L60.5446 58.8931C60.3738 58.8144 60.1881 58.7737 60 58.7737H59.9833C59.7953 58.7737 59.6095 58.8144 59.4388 58.8931L53.377 50.3187Z" fill="#EDF0F4"/>
<path d="M49.4624 60.4336H58.6769C58.7249 60.706 58.8568 60.9565 59.0543 61.1501L53.0116 69.6935C52.8434 69.6209 52.6554 69.6083 52.4789 69.6577L49.1089 60.8205C49.2639 60.7312 49.3874 60.596 49.4624 60.4336V60.4336Z" fill="#EDF0F4"/>
<path d="M59.441 61.4128C59.6125 61.4893 59.7978 61.53 59.9855 61.5323H60.0023C60.19 61.53 60.3753 61.4893 60.5468 61.4128L66.611 69.9753C66.5292 70.0863 66.4766 70.2161 66.4582 70.3527H53.5225C53.504 70.2161 53.4514 70.0863 53.3696 69.9753L59.441 61.4128Z" fill="#EDF0F4"/>
<path d="M60.9338 61.1501C61.1313 60.9565 61.2632 60.706 61.3112 60.4336H70.4851C70.5521 60.6193 70.6812 60.7763 70.8506 60.8778L67.5068 69.6601C67.3297 69.6095 67.1405 69.6222 66.9718 69.6959L60.9338 61.1501Z" fill="#EDF0F4"/>
<path d="M70.4876 59.8699L61.3041 59.858C61.2566 59.5855 61.1246 59.3348 60.9268 59.1415L66.9671 50.5957C67.1402 50.6689 67.3332 50.6807 67.514 50.6291L70.8578 59.4114C70.683 59.5144 70.5514 59.6773 70.4876 59.8699Z" fill="#EDF0F4"/>
<path d="M67.3014 48.9764C67.1983 48.9762 67.0962 48.9957 67.0004 49.0337L62.8374 42.2267H71.4715C71.5184 42.4979 71.6477 42.7481 71.8417 42.9432L67.5426 49.0098C67.4651 48.9868 67.3845 48.9763 67.3037 48.9787L67.3014 48.9764Z" fill="#EDF0F4"/>
<path d="M66.7784 49.1626C66.6113 49.2925 66.5002 49.4813 66.4679 49.6905H53.5227C53.4903 49.4813 53.3792 49.2925 53.2122 49.1626L57.4659 42.2362H62.5222L66.7784 49.1626Z" fill="#EDF0F4"/>
<path d="M52.9971 49.036C52.8241 48.9661 52.6319 48.9601 52.4549 49.0193L48.1677 42.9527C48.3626 42.7581 48.4919 42.5077 48.5379 42.2362H57.1721L52.9971 49.036Z" fill="#EDF0F4"/>
<path d="M52.2544 50.5479L48.8844 59.4066C48.8265 59.393 48.7671 59.3866 48.7076 59.3875C48.5525 59.3874 48.4003 59.4304 48.2682 59.5117L43.0781 52.8838L43.5916 51.6036L51.8914 50.0894C51.9523 50.2787 52.0773 50.4408 52.2449 50.5479H52.2544Z" fill="#EDF0F4"/>
<path d="M48.698 60.9185C48.7605 60.9175 48.8229 60.9111 48.8843 60.8993L52.2567 69.758C52.087 69.8627 51.96 70.0244 51.8985 70.2142L43.5987 68.6999L43.0852 67.4197L48.2633 60.7919C48.3946 60.8714 48.5445 60.9151 48.698 60.9185Z" fill="#EDF0F4"/>
<path d="M52.4454 71.2889C52.6227 71.3457 52.8141 71.3398 52.9876 71.2722L57.1506 78.0744H48.5164C48.4715 77.8026 48.342 77.5518 48.1462 77.3579L52.4454 71.2889Z" fill="#EDF0F4"/>
<path d="M53.2122 71.1433C53.3783 71.0127 53.4892 70.8242 53.5227 70.6155H66.4679C66.5013 70.8242 66.6122 71.0127 66.7784 71.1433L62.5246 78.0697H57.4635L53.2122 71.1433Z" fill="#EDF0F4"/>
<path d="M67.0029 71.2722C67.1763 71.3398 67.3677 71.3457 67.545 71.2889L71.8442 77.3555C71.6492 77.55 71.5198 77.8005 71.474 78.072H62.8398L67.0029 71.2722Z" fill="#EDF0F4"/>
<path d="M67.7527 69.7603L71.0965 60.9757C71.3317 61.0335 71.5804 60.9855 71.7772 60.8444L76.9266 67.4221L76.4107 68.6999L68.1038 70.2141C68.0421 70.0238 67.9141 69.8619 67.7432 69.7579L67.7527 69.7603Z" fill="#EDF0F4"/>
<path d="M71.2902 59.3087C71.2249 59.3084 71.1599 59.3164 71.0967 59.3326L67.7529 50.548C67.9221 50.4426 68.0489 50.2812 68.1112 50.0918L76.4109 51.6061L76.9245 52.8862L71.7679 59.4663C71.6253 59.3636 71.454 59.3085 71.2782 59.3087H71.2902Z" fill="#EDF0F4"/>
<path d="M77.3495 52.3488L77.242 52.4849L76.9268 51.7015L77.1059 51.735V51.7565C77.1064 51.9766 77.192 52.188 77.3447 52.3464L77.3495 52.3488Z" fill="#EDF0F4"/>
<path d="M77.3494 52.762L77.5524 52.5017C77.6649 52.5602 77.7887 52.5936 77.9154 52.5996L78.1089 54.6561L77.3494 52.762Z" fill="#EDF0F4"/>
<path d="M76.2914 51.3027L68.154 49.829C68.1534 49.6192 68.0742 49.4172 67.9319 49.263L72.2119 43.2059C72.4793 43.3371 72.7834 43.3733 73.0742 43.3086L76.2914 51.3027Z" fill="#EDF0F4"/>
<path d="M62.2595 41.792H57.7454L59.7206 38.5748C59.9006 38.6518 60.1043 38.6518 60.2843 38.5748L62.2595 41.792Z" fill="#EDF0F4"/>
<path d="M46.9258 43.3086C47.2165 43.3745 47.5209 43.3382 47.788 43.2059L52.068 49.263C51.9258 49.4172 51.8465 49.6192 51.8459 49.829L43.7014 51.3027L46.9258 43.3086Z" fill="#EDF0F4"/>
<path d="M42.8894 51.7325L43.0685 51.6991L42.7532 52.4825L42.6458 52.3464C42.8005 52.1873 42.8864 51.9736 42.8846 51.7516C42.8871 51.7455 42.8887 51.7391 42.8894 51.7325Z" fill="#EDF0F4"/>
<path d="M42.4357 52.4968L42.6411 52.7572L41.8792 54.6464L42.0726 52.59C42.199 52.5857 42.3229 52.5539 42.4357 52.4968V52.4968Z" fill="#EDF0F4"/>
<path d="M42.9562 53.1609L48.065 59.6622C48.0099 59.7228 47.9641 59.7912 47.9288 59.8652H41.9435C41.8632 59.6255 41.6788 59.4349 41.4419 59.3469L41.7381 56.1894L42.9562 53.1609Z" fill="#EDF0F4"/>
<path d="M41.5232 55.5254L40.2024 58.8094C39.9561 58.7408 39.6945 58.7516 39.4548 58.8405L38.0671 56.4258L41.5614 52.4539C41.6353 52.5012 41.7158 52.5374 41.8002 52.5613L41.5232 55.5254Z" fill="#EDF0F4"/>
<path d="M41.1698 59.3087H41.1363C41.0753 59.3067 41.0142 59.3132 40.9548 59.3278C40.8626 59.1948 40.7469 59.0799 40.6133 58.9886L41.38 57.0779L41.1698 59.3087Z" fill="#EDF0F4"/>
<path d="M41.3775 63.2257L40.6108 61.315C40.7442 61.2226 40.8605 61.1079 40.9548 60.9758C41.0145 60.9881 41.0753 60.9945 41.1363 60.9949H41.1697L41.3775 63.2257Z" fill="#EDF0F4"/>
<path d="M39.0585 59.0555C38.7935 59.2605 38.616 59.5584 38.5617 59.889H35.2967C35.2752 59.8139 35.243 59.7424 35.2012 59.6764L37.7639 56.7626L39.0585 59.0555Z" fill="#EDF0F4"/>
<path d="M35.01 59.495C34.9084 59.4109 34.7879 59.3527 34.6589 59.3254L34.4487 50.9874L37.6206 56.5381L35.01 59.495Z" fill="#EDF0F4"/>
<path d="M34.6589 60.9805C34.7872 60.9511 34.9072 60.8932 35.01 60.8109L37.6206 63.7654L34.4487 69.3185L34.6589 60.9805Z" fill="#EDF0F4"/>
<path d="M35.1938 60.6127C35.2348 60.5463 35.267 60.4749 35.2894 60.4001L38.5591 60.4145C38.6145 60.7447 38.7918 61.0422 39.0559 61.248L37.7566 63.5266L35.1938 60.6127Z" fill="#EDF0F4"/>
<path d="M39.4572 61.463C39.6973 61.5495 39.9582 61.5603 40.2047 61.4941L41.5303 64.7805L41.8074 67.7446C41.7222 67.7664 41.6414 67.8028 41.5685 67.852L38.0767 63.8801L39.4572 61.463Z" fill="#EDF0F4"/>
<path d="M41.731 64.0903L41.4348 60.9328C41.6708 60.8433 41.8547 60.6534 41.9364 60.4146H47.9289C47.9654 60.4878 48.0112 60.556 48.0651 60.6176L42.9658 67.1451L41.731 64.0903Z" fill="#EDF0F4"/>
<path d="M42.6433 67.95L42.7508 67.8138L43.0661 68.5972L42.8869 68.5638V68.5423C42.8858 68.3244 42.8002 68.1155 42.6481 67.9595L42.6433 67.95Z" fill="#EDF0F4"/>
<path d="M42.6434 67.5367L42.4357 67.7971C42.3236 67.7374 42.1995 67.7039 42.0726 67.6991L41.8792 65.6427L42.6434 67.5367Z" fill="#EDF0F4"/>
<path d="M43.7014 68.9841L51.8411 70.453C51.8427 70.6627 51.9218 70.8643 52.0633 71.0191L47.7784 77.0976C47.5117 76.9641 47.2068 76.9278 46.9162 76.9949L43.7014 68.9841Z" fill="#EDF0F4"/>
<path d="M57.7358 78.5044H62.2595L60.2843 81.7216C60.1046 81.6429 59.9003 81.6429 59.7206 81.7216L57.7358 78.5044Z" fill="#EDF0F4"/>
<path d="M73.0695 76.9877C72.7789 76.9206 72.474 76.957 72.2073 77.0904L67.9272 71.0334C68.0687 70.8786 68.1479 70.677 68.1494 70.4673L76.2867 68.9937L73.0695 76.9877Z" fill="#EDF0F4"/>
<path d="M77.0964 68.5638L76.9172 68.5973L77.2349 67.8258L77.3424 67.9619C77.1869 68.1206 77.101 68.3346 77.1035 68.5567C77.1027 68.5662 77.1027 68.5758 77.1035 68.5853L77.0964 68.5638Z" fill="#EDF0F4"/>
<path d="M77.5477 67.7971L77.3447 67.5367L78.1066 65.6427L77.9132 67.6991C77.7837 67.7046 77.6574 67.7415 77.5454 67.8066L77.5477 67.7971Z" fill="#EDF0F4"/>
<path d="M77.0269 67.1331L71.9468 60.6605C72.0022 60.5882 72.0457 60.5076 72.0758 60.4216H77.9823C78.0709 60.6822 78.2814 60.883 78.546 60.959L78.2618 64.095L77.0269 67.1331Z" fill="#EDF0F4"/>
<path d="M78.4602 64.7686L79.781 61.4845C80.0275 61.5508 80.2884 61.54 80.5285 61.4535L81.9162 63.8682L78.4219 67.8401C78.3493 67.7904 78.2685 67.754 78.1831 67.7326L78.4602 64.7686Z" fill="#EDF0F4"/>
<path d="M80.925 61.2385C81.1892 61.0326 81.3664 60.7352 81.4218 60.405L84.725 60.3906L84.8062 60.5841L82.2291 63.5266L80.925 61.2385Z" fill="#EDF0F4"/>
<path d="M84.9854 60.7727C85.0809 60.8556 85.1934 60.9168 85.315 60.9518L85.5251 69.3113L82.3557 63.7654L84.9854 60.7727Z" fill="#EDF0F4"/>
<path d="M85.3148 59.3397C85.1924 59.3728 85.0795 59.4341 84.9852 59.5188L82.3579 56.5357L85.5297 50.985L85.3148 59.3397Z" fill="#EDF0F4"/>
<path d="M85.1882 47.5098L82.1167 45.5035L84.787 46.4422L84.8013 46.4708L85.2384 47.4597C85.224 47.4812 85.2049 47.4955 85.1906 47.5146L85.1882 47.5098Z" fill="#EDF0F4"/>
<path d="M85.0282 47.7631C84.9639 47.9224 84.9514 48.0978 84.9923 48.2646L78.6487 51.2836C78.4742 51.0009 78.1444 50.854 77.8175 50.9134L75.0732 43.0316L80.9631 45.0928L85.0282 47.7631Z" fill="#EDF0F4"/>
<path d="M74.8942 42.5085L74.4165 41.1065C74.4976 41.0619 74.5716 41.0056 74.6362 40.9393L79.5086 44.147L74.8942 42.5085Z" fill="#EDF0F4"/>
<path d="M74.2541 39.554C74.0334 39.4823 73.7924 39.5111 73.5949 39.6328L67.4399 32.0377C67.5111 31.9574 67.5677 31.8652 67.6071 31.7654L78.1162 33.2175C78.126 33.4357 78.2103 33.6439 78.355 33.8075L77.9896 34.3234L74.2541 39.554Z" fill="#EDF0F4"/>
<path d="M78.1687 32.8999L67.6596 31.4334C67.66 31.059 67.4333 30.7217 67.0864 30.5807L67.2226 30.0147L67.2751 29.8499L76.5899 32.0257L78.1806 32.8784L78.1687 32.8999Z" fill="#EDF0F4"/>
<path d="M67.182 32.2312L73.3584 39.8263C73.2934 39.9018 73.2424 39.9884 73.208 40.0819L70.927 39.6615L65.0515 33.2128L66.1693 32.1691C66.4587 32.3989 66.8589 32.4292 67.1796 32.2455L67.182 32.2312Z" fill="#EDF0F4"/>
<path d="M66.7974 30.5234H66.7449C66.4635 30.5256 66.1989 30.6579 66.0283 30.8817L61.7817 28.5745L66.967 29.7878L66.7974 30.5234Z" fill="#EDF0F4"/>
<path d="M64.8627 32.9907L63.5945 31.5958H65.842C65.8622 31.7226 65.9086 31.8438 65.9781 31.9517L64.8627 32.9907Z" fill="#EDF0F4"/>
<path d="M64.5761 33.2606L60.4728 37.1083C60.1939 36.8839 59.7964 36.8839 59.5175 37.1083L55.407 33.2582L56.9117 31.5863H63.0738L64.5761 33.2606Z" fill="#EDF0F4"/>
<path d="M55.1181 32.9906L54.0051 31.9565C54.0747 31.8485 54.121 31.7274 54.1413 31.6006H56.384L55.1181 32.9906Z" fill="#EDF0F4"/>
<path d="M53.2335 32.3625C53.4381 32.3607 53.6364 32.291 53.7972 32.1643L54.9149 33.208L49.0394 39.6568L46.7633 40.0771C46.7298 39.9832 46.6787 39.8964 46.6128 39.8216L52.7916 32.2383C52.927 32.3161 53.0798 32.3588 53.2359 32.3625H53.2335Z" fill="#EDF0F4"/>
<path d="M53.009 29.7878L58.1991 28.5745L53.9548 30.8745C53.7842 30.6507 53.5197 30.5185 53.2383 30.5162H53.1834L53.009 29.7878Z" fill="#EDF0F4"/>
<path d="M52.3093 31.4405L41.8003 32.907V32.8736L43.391 32.0209L52.7058 29.8499L52.7464 30.0218L52.8826 30.5879C52.535 30.7303 52.309 31.0697 52.3117 31.4453L52.3093 31.4405Z" fill="#EDF0F4"/>
<path d="M41.8624 33.2295L52.3714 31.7773C52.4117 31.8767 52.4682 31.9687 52.5386 32.0496L46.3836 39.6424C46.1861 39.5207 45.9451 39.4919 45.7244 39.5636L42.0104 34.333L41.645 33.8171C41.784 33.6525 41.8616 33.4449 41.8648 33.2295H41.8624Z" fill="#EDF0F4"/>
<path d="M45.0867 42.5252L40.4651 44.1589L45.3542 40.9561C45.4188 41.0223 45.4928 41.0787 45.5739 41.1232L45.0867 42.5252Z" fill="#EDF0F4"/>
<path d="M44.9076 43.0364L42.1633 50.9182C41.8365 50.8595 41.5071 51.0062 41.3321 51.2884L34.9885 48.2694C35.0033 48.2068 35.0113 48.1427 35.0123 48.0783C35.0119 47.972 34.9917 47.8667 34.9526 47.7678L39.0129 45.1047L44.9076 43.0364Z" fill="#EDF0F4"/>
<path d="M34.7926 47.5242L34.7424 47.4741L35.1795 46.4853L35.1938 46.4566L37.8641 45.5179L34.7926 47.5242Z" fill="#EDF0F4"/>
<path d="M34.8786 48.5369L41.2413 51.5224C41.2174 51.5998 41.2053 51.6803 41.2055 51.7613C41.2061 51.9536 41.2727 52.1399 41.3942 52.2891L37.9357 56.1966L34.4319 50.1013L34.4009 48.9071C34.6014 48.8436 34.7715 48.7084 34.8786 48.5273V48.5369Z" fill="#EDF0F4"/>
<path d="M34.3626 47.2257V47.2687C34.2974 47.2497 34.2299 47.24 34.162 47.24C34.0674 47.2398 33.9735 47.2568 33.8849 47.2902V47.2735C33.8844 47.1549 33.8684 47.0368 33.8372 46.9224L34.6182 46.6477L34.3626 47.2257Z" fill="#EDF0F4"/>
<path d="M34.1238 49.5592L33.8491 49.0815L33.947 48.9023C33.9994 48.9167 34.053 48.9263 34.1071 48.931L34.1238 49.5592Z" fill="#EDF0F4"/>
<path d="M30.5413 58.7784C29.8718 58.7814 29.308 59.2798 29.2229 59.944H28.5351C28.5003 59.719 28.39 59.5126 28.2222 59.3588L31.382 53.5884L30.6225 58.7689C30.5971 58.7718 30.5715 58.7718 30.5461 58.7689L30.5413 58.7784Z" fill="#EDF0F4"/>
<path d="M31.3748 66.7223L28.2197 60.9423C28.3866 60.7878 28.4968 60.5818 28.5326 60.3572H29.2205C29.3023 61.0264 29.8695 61.53 30.5437 61.5323H30.6177L31.3748 66.7223Z" fill="#EDF0F4"/>
<path d="M32.0674 51.7159L32.5236 48.611H32.5642C32.7277 48.6089 32.8895 48.5774 33.0419 48.5178L33.4431 49.2176L32.0674 51.7159Z" fill="#EDF0F4"/>
<path d="M31.4966 52.7452L27.9498 59.194C27.9187 59.1796 27.8877 59.1701 27.8542 59.1581L28.0931 56.8891L32.1056 48.5297L31.4966 52.7452Z" fill="#EDF0F4"/>
<path d="M27.9547 61.1143L31.5015 67.563L32.1225 71.7857L28.1099 63.4262L27.8711 61.1572C27.8946 61.1403 27.9203 61.1266 27.9475 61.1166L27.9547 61.1143Z" fill="#EDF0F4"/>
<path d="M32.0698 68.5948L33.4456 71.0955L33.0443 71.7953C32.8926 71.7336 32.7304 71.7019 32.5666 71.7022H32.526L32.0698 68.5948Z" fill="#EDF0F4"/>
<path d="M34.1287 70.7444L34.112 71.3749C34.0576 71.3773 34.0037 71.3869 33.9519 71.4036L33.854 71.2245L34.1287 70.7444Z" fill="#EDF0F4"/>
<path d="M33.8897 73.0372V73.0205C33.9789 73.0516 34.0724 73.0685 34.1668 73.0707C34.2348 73.0681 34.3022 73.0568 34.3674 73.0372V73.0802L34.6253 73.6487L33.8372 73.374C33.8689 73.2644 33.8865 73.1513 33.8897 73.0372Z" fill="#EDF0F4"/>
<path d="M34.4009 71.4084L34.4319 70.2141L37.9357 64.1189L41.3846 68.0216C41.2141 68.2354 41.1604 68.5198 41.2413 68.7811L34.8857 71.7833C34.7777 71.6062 34.6073 71.4758 34.408 71.4179L34.4009 71.4084Z" fill="#EDF0F4"/>
<path d="M34.7927 72.7985L37.8642 74.8047L35.1987 73.8661L35.1844 73.8374L34.7473 72.8415C34.764 72.8247 34.7927 72.7985 34.7927 72.7985Z" fill="#EDF0F4"/>
<path d="M34.9502 72.5453C34.9888 72.4463 35.009 72.3411 35.0099 72.2348C35.0092 72.1704 35.0012 72.1063 34.986 72.0438L41.3344 69.02C41.5108 69.3006 41.8391 69.4468 42.1656 69.3902L44.9099 77.272L39.0224 75.206L34.9502 72.5453Z" fill="#EDF0F4"/>
<path d="M45.0843 77.7998L45.562 79.2018C45.4799 79.2448 45.4056 79.3013 45.3423 79.369L40.4675 76.1422L45.0843 77.7998Z" fill="#EDF0F4"/>
<path d="M45.7315 80.759C45.9524 80.8282 46.1924 80.7995 46.3907 80.6802L52.5457 88.2753C52.4743 88.3555 52.4177 88.4477 52.3785 88.5476L41.8695 87.0955C41.8618 86.8768 41.7772 86.6679 41.6306 86.5055L42.0008 85.9777L45.7315 80.759Z" fill="#EDF0F4"/>
<path d="M41.8169 87.3917L52.3259 88.8582C52.3269 89.2322 52.5532 89.5688 52.8992 89.7109L52.763 90.2769L52.7224 90.4489L43.4076 88.2731L41.8169 87.4108V87.3917Z" fill="#EDF0F4"/>
<path d="M52.8037 88.0628L46.6177 80.4843C46.6826 80.4088 46.7336 80.3222 46.7681 80.2288L49.0491 80.6491L54.9246 87.0979L53.8068 88.1273C53.5182 87.8955 53.1167 87.8651 52.7965 88.0508L52.8037 88.0628Z" fill="#EDF0F4"/>
<path d="M53.1977 89.7849H53.2502C53.5311 89.7806 53.7947 89.6487 53.9667 89.4266L58.199 91.7267L53.0066 90.5158L53.1977 89.7849Z" fill="#EDF0F4"/>
<path d="M55.1324 87.3176L56.4007 88.7125H54.1388C54.1194 88.5855 54.073 88.4641 54.0027 88.3566L55.1324 87.3176Z" fill="#EDF0F4"/>
<path d="M55.4189 87.0478L59.5246 83.1976C59.8045 83.4194 60.2002 83.4194 60.48 83.1976L64.5857 87.0478L63.081 88.7197H56.9189L55.4189 87.0478Z" fill="#EDF0F4"/>
<path d="M64.8771 87.3176L65.9877 88.3614C65.9174 88.4689 65.871 88.5902 65.8516 88.7172H63.5969L64.8771 87.3176Z" fill="#EDF0F4"/>
<path d="M66.7593 87.9434C66.5543 87.943 66.3553 88.0129 66.1957 88.1416L65.0779 87.0979L70.9534 80.6491L73.2343 80.2288C73.2699 80.3218 73.3207 80.4081 73.3848 80.4843L67.2107 88.0723C67.0712 87.9873 66.9108 87.9427 66.7474 87.9434H66.7593Z" fill="#EDF0F4"/>
<path d="M66.9837 90.5181L61.7817 91.7314L66.0188 89.4314C66.1908 89.6535 66.4544 89.7853 66.7353 89.7897H66.7974L66.9837 90.5181Z" fill="#EDF0F4"/>
<path d="M67.6836 88.8653L78.1926 87.3988V87.4322L76.59 88.2849L67.2751 90.4608L67.2345 90.2888L67.0984 89.7227C67.4464 89.5805 67.6732 89.2412 67.6716 88.8653H67.6836Z" fill="#EDF0F4"/>
<path d="M78.1328 87.0764L67.6237 88.5286C67.5854 88.4282 67.5287 88.3359 67.4565 88.2563L73.6115 80.6611C73.8099 80.7804 74.0498 80.8091 74.2707 80.74L77.9942 85.9778L78.3597 86.4937C78.2146 86.6542 78.1302 86.8603 78.1208 87.0764H78.1328Z" fill="#EDF0F4"/>
<path d="M74.9084 77.7807L79.5204 76.1422L74.6314 79.3427C74.568 79.275 74.4937 79.2185 74.4116 79.1755L74.9084 77.7807Z" fill="#EDF0F4"/>
<path d="M75.0876 77.2696L77.8319 69.3878C78.1585 69.4451 78.4872 69.2987 78.6631 69.0176L85.0139 72.0389C84.9731 72.2058 84.9857 72.3812 85.0497 72.5405L80.9894 75.2036L75.0876 77.2696Z" fill="#EDF0F4"/>
<path d="M85.1882 72.7985L85.2384 72.8486L84.8013 73.8374L84.787 73.8661L82.1167 74.8047L85.1882 72.7985Z" fill="#EDF0F4"/>
<path d="M85.1024 71.7857L78.7564 68.7811C78.8372 68.516 78.7798 68.2282 78.6035 68.0144L82.05 64.1069L85.5538 70.2141L85.5849 71.4083C85.385 71.4691 85.2147 71.6018 85.1072 71.7809L85.1024 71.7857Z" fill="#EDF0F4"/>
<path d="M85.6206 73.097V73.0372C85.6863 73.0539 85.7535 73.0635 85.8212 73.0659C85.9156 73.0638 86.0091 73.0469 86.0983 73.0157V73.0325C86.1008 73.148 86.1176 73.2627 86.1484 73.374L85.3674 73.6487L85.6206 73.097Z" fill="#EDF0F4"/>
<path d="M85.8594 70.7635L86.134 71.2412L86.0361 71.4204C85.9843 71.4037 85.9305 71.3941 85.8761 71.3917L85.8594 70.7635Z" fill="#EDF0F4"/>
<path d="M87.9182 68.6139L87.462 71.7188H87.4214C87.2577 71.7188 87.0955 71.7504 86.9437 71.812L86.5425 71.1122L87.9182 68.6139Z" fill="#EDF0F4"/>
<path d="M88.4867 67.5822L92.0335 61.1334C92.0646 61.1478 92.0956 61.1573 92.1291 61.1692L91.8902 63.4382L87.8777 71.7977L88.4867 67.5822Z" fill="#EDF0F4"/>
<path d="M92.0383 59.1844L88.4915 52.7357L87.8682 48.5154L91.8807 56.8748L92.1195 59.1438C92.0987 59.1673 92.0696 59.1819 92.0383 59.1844Z" fill="#EDF0F4"/>
<path d="M89.7931 45.0307L89.817 45.0522L89.8576 45.1C89.6739 45.3507 89.6109 45.6701 89.6856 45.9718L88.5177 46.4853C88.2696 46.1304 87.8639 45.9191 87.431 45.9192C87.31 45.919 87.1899 45.9384 87.0751 45.9765L81.7776 36.2366L88.7494 43.5857L89.7931 45.0307Z" fill="#EDF0F4"/>
<path d="M84.7464 38.8924L81.1996 35.1665L80.5547 33.9723L84.7464 38.8924Z" fill="#EDF0F4"/>
<path d="M79.9337 33.5925L80.2251 34.149L79.8381 33.743C79.8738 33.6954 79.9057 33.6451 79.9337 33.5925V33.5925Z" fill="#EDF0F4"/>
<path d="M80.784 35.1856L86.6523 46.1723C86.5131 46.2729 86.3947 46.3994 86.3036 46.5449L85.6229 46.3061L85.1452 46.1341L79.6519 33.9723L80.784 35.1856Z" fill="#EDF0F4"/>
<path d="M79.0668 34.1491C79.1601 34.1472 79.2526 34.132 79.3415 34.1037L84.565 45.936H84.5315L80.6718 44.5722L74.7844 40.7268C74.9275 40.4102 74.861 40.0381 74.6172 39.7906L78.6775 34.0583C78.7994 34.1157 78.9321 34.1466 79.0668 34.1491Z" fill="#EDF0F4"/>
<path d="M78.4768 32.4771C78.4238 32.5185 78.3758 32.5658 78.3335 32.618L77.7603 32.3099L78.4768 32.4771Z" fill="#EDF0F4"/>
<path d="M77.7198 31.9303L76.5471 31.6556L73.8481 30.201L77.7198 31.9303Z" fill="#EDF0F4"/>
<path d="M67.6765 28.178C68.0205 28.2332 68.3683 28.1045 68.5936 27.8389L69.7879 28.3739L75.36 31.3666L67.3564 29.4917L67.6765 28.178Z" fill="#EDF0F4"/>
<path d="M66.764 27.3947C66.8262 27.6143 66.9556 27.8089 67.1342 27.9512L67.2011 28.0109H67.2202C67.265 28.0387 67.3113 28.0642 67.3587 28.0873L67.053 29.4153L62.312 28.3118L61.1775 28.0109V27.975L66.764 27.3947Z" fill="#EDF0F4"/>
<path d="M63.6088 27.2895L61.1249 27.5045C61.1012 27.4314 61.07 27.3609 61.0317 27.2943L63.6088 27.2895Z" fill="#EDF0F4"/>
<path d="M61.0079 28.5172L65.8779 31.1445C65.8611 31.1893 65.8491 31.2357 65.842 31.283H63.3199L60.9124 28.6557C60.947 28.6157 60.9789 28.5735 61.0079 28.5292V28.5172Z" fill="#EDF0F4"/>
<path d="M59.3528 28.8945C59.7419 29.148 60.2439 29.148 60.633 28.8945L62.7993 31.2829H57.1865L59.3528 28.8945Z" fill="#EDF0F4"/>
<path d="M59.0733 28.6557L56.6658 31.2829H54.1389C54.132 31.2348 54.12 31.1876 54.103 31.142L58.973 28.5148C59.0019 28.5577 59.033 28.5992 59.0662 28.639L59.0733 28.6557Z" fill="#EDF0F4"/>
<path d="M58.9563 27.3038C58.918 27.3705 58.8868 27.4409 58.8631 27.514L56.3792 27.2991L58.9563 27.3038Z" fill="#EDF0F4"/>
<path d="M52.7678 28.0204H52.7869L52.8538 27.9607C53.0324 27.8185 53.1618 27.6238 53.224 27.4042L58.8057 27.9822V28.018L57.6712 28.3189L52.9302 29.42L52.6245 28.092C52.6704 28.0697 52.715 28.045 52.7583 28.018L52.7678 28.0204Z" fill="#EDF0F4"/>
<path d="M51.3945 27.8436C51.6208 28.1075 51.9685 28.2343 52.3116 28.178L52.6269 29.4916L44.6233 31.3618L50.1955 28.3739L51.3945 27.8436Z" fill="#EDF0F4"/>
<path d="M46.14 30.1914L43.4435 31.6436L42.2708 31.9182L46.14 30.1914Z" fill="#EDF0F4"/>
<path d="M42.2278 32.2932L41.6545 32.6013C41.6123 32.5491 41.5642 32.5018 41.5112 32.4604L42.2278 32.2932Z" fill="#EDF0F4"/>
<path d="M40.9214 34.149C41.0575 34.1474 41.1917 34.1173 41.3155 34.0607L45.3758 39.7929C45.1319 40.0404 45.0655 40.4125 45.2086 40.7291L39.3116 44.5673L35.4519 45.9311H35.4185L40.6443 34.106C40.7332 34.1343 40.8257 34.1496 40.919 34.1514L40.9214 34.149Z" fill="#EDF0F4"/>
<path d="M40.0591 33.5902C40.0843 33.6442 40.1139 33.6961 40.1474 33.7455L39.7605 34.1491L40.0591 33.5902Z" fill="#EDF0F4"/>
<path d="M40.3386 33.9818L34.8452 46.1436L34.3675 46.3156L33.6868 46.5544C33.5957 46.4089 33.4773 46.2824 33.3381 46.1819L39.2065 35.1951L40.3386 33.9818Z" fill="#EDF0F4"/>
<path d="M39.4214 33.9818L38.7765 35.176L35.2297 38.8996L39.4214 33.9818Z" fill="#EDF0F4"/>
<path d="M30.1066 45.0164L30.1305 44.9949L31.222 43.5881L38.1938 36.2366L32.8987 45.9837C32.7839 45.9456 32.6638 45.9262 32.5428 45.9264C32.1074 45.9239 31.6985 46.1355 31.4489 46.4924L30.2547 45.9383C30.2733 45.86 30.2837 45.78 30.2858 45.6995C30.2858 45.4747 30.2148 45.2557 30.0828 45.0737L30.1066 45.0164Z" fill="#EDF0F4"/>
<path d="M29.2993 46.7647C29.6411 46.7376 29.95 46.5508 30.1328 46.2607L31.3127 46.8268C31.1165 47.3645 31.2961 47.9673 31.7546 48.31L28.2292 55.6854L29.2993 46.7647Z" fill="#EDF0F4"/>
<path d="M28.5088 49.8171L27.7923 56.6194L26.7915 58.7188L28.5088 49.8171Z" fill="#EDF0F4"/>
<path d="M27.6585 57.7944L27.5224 59.0818C27.4224 59.0809 27.3231 59.0971 27.2286 59.1296C27.1818 59.0842 27.1315 59.0427 27.0781 59.0054L27.6585 57.7944Z" fill="#EDF0F4"/>
<path d="M27.2285 61.1525C27.3236 61.1826 27.4226 61.1987 27.5223 61.2002L27.6585 62.4876L27.0757 61.2814C27.1279 61.2451 27.1781 61.206 27.2262 61.1644L27.2285 61.1525Z" fill="#EDF0F4"/>
<path d="M26.782 61.5657L27.7827 63.6651L28.4993 70.4673L26.782 61.5657Z" fill="#EDF0F4"/>
<path d="M29.2992 73.5078L28.2268 64.6157L31.7402 71.9864C31.2817 72.3291 31.1021 72.9319 31.2983 73.4696L30.1304 74.0094C29.9484 73.7211 29.6394 73.5373 29.2992 73.515V73.5078Z" fill="#EDF0F4"/>
<path d="M30.1592 75.2825L30.1353 75.261L30.0947 75.2132C30.2261 75.031 30.2971 74.8121 30.2977 74.5874C30.296 74.5069 30.2855 74.4269 30.2667 74.3486L31.4609 73.8184C31.7103 74.1716 32.1152 74.3825 32.5476 74.3844C32.6684 74.3823 32.7882 74.363 32.9035 74.3271L38.1986 84.0742L31.2268 76.7322L30.1592 75.2825Z" fill="#EDF0F4"/>
<path d="M35.2393 81.4062L38.7861 85.1322L39.4309 86.3264L35.2393 81.4062Z" fill="#EDF0F4"/>
<path d="M40.0471 86.7181L39.7485 86.1569L40.1355 86.5629C40.1005 86.6096 40.0708 86.6601 40.0471 86.7134V86.7181Z" fill="#EDF0F4"/>
<path d="M39.197 85.1251L33.3286 74.1383C33.4667 74.0366 33.5849 73.9103 33.6773 73.7657L34.358 74.0046L34.8357 74.1766L40.3291 86.3384L39.197 85.1251Z" fill="#EDF0F4"/>
<path d="M40.9119 86.1593C40.8184 86.1588 40.7255 86.1742 40.6372 86.2047L35.4209 74.3724H35.4543L39.314 75.7362L45.2015 79.5816C45.0584 79.8982 45.1248 80.2703 45.3687 80.5178L41.3084 86.25C41.1872 86.1899 41.0543 86.1573 40.919 86.1545L40.9119 86.1593Z" fill="#EDF0F4"/>
<path d="M41.5017 87.8455C41.5535 87.8028 41.6015 87.7557 41.645 87.7046L42.2182 88.0127L41.5017 87.8455Z" fill="#EDF0F4"/>
<path d="M42.2588 88.3925L43.4315 88.6671L46.1304 90.1217L42.2588 88.3925Z" fill="#EDF0F4"/>
<path d="M52.3021 92.1326C51.9579 92.0755 51.6092 92.2045 51.385 92.4718L50.1907 91.9368L44.6257 88.9441L52.6293 90.819L52.3021 92.1326Z" fill="#EDF0F4"/>
<path d="M53.2146 92.9161C53.1536 92.6959 53.0239 92.5009 52.8444 92.3596L52.7775 92.2999H52.7584C52.7149 92.2698 52.6685 92.2442 52.6199 92.2235L52.9256 90.8955L57.6666 92.0061L58.8011 92.3071V92.3429L53.2146 92.9161Z" fill="#EDF0F4"/>
<path d="M56.3696 93.0212L58.8536 92.8063C58.8777 92.8792 58.9089 92.9496 58.9467 93.0164L56.3696 93.0212Z" fill="#EDF0F4"/>
<path d="M58.9611 91.7864L54.0911 89.1591C54.1075 89.1134 54.1195 89.0662 54.1269 89.0182H56.6467L59.0661 91.6669C59.0305 91.7042 58.9978 91.7441 58.9682 91.7864H58.9611Z" fill="#EDF0F4"/>
<path d="M60.6162 91.4043C60.2276 91.149 59.7245 91.149 59.336 91.4043L57.1697 89.0159H62.7825L60.6162 91.4043Z" fill="#EDF0F4"/>
<path d="M60.8958 91.6574L63.3033 89.0134H65.8422C65.8496 89.0614 65.8616 89.1086 65.878 89.1543L61.008 91.7816C60.9829 91.7415 60.9549 91.7032 60.9244 91.667L60.8958 91.6574Z" fill="#EDF0F4"/>
<path d="M61.0127 93.0092C61.0505 92.9424 61.0817 92.872 61.1058 92.7991L63.5898 93.014L61.0127 93.0092Z" fill="#EDF0F4"/>
<path d="M67.201 92.2927H67.1819L67.115 92.3524C66.9355 92.4937 66.8058 92.6887 66.7448 92.9089L61.1631 92.3309V92.2951L62.2976 91.9942L67.0362 90.8835L67.3419 92.2115C67.2963 92.2338 67.2524 92.2593 67.2106 92.2879L67.201 92.2927Z" fill="#EDF0F4"/>
<path d="M68.5745 92.4695C68.3502 92.2022 68.0015 92.0732 67.6573 92.1303L67.342 90.8167L75.3456 88.9418L69.783 91.9297L68.5745 92.4695Z" fill="#EDF0F4"/>
<path d="M73.8289 90.1217L76.5278 88.6671L77.7005 88.3925L73.8289 90.1217Z" fill="#EDF0F4"/>
<path d="M77.7412 88.0103L78.3144 87.7021C78.358 87.7532 78.4059 87.8004 78.4577 87.8431L77.7412 88.0103Z" fill="#EDF0F4"/>
<path d="M79.0477 86.1568C78.9113 86.1562 78.7766 86.1864 78.6536 86.2452L74.5933 80.513C74.8371 80.2654 74.9036 79.8934 74.7605 79.5767L80.6503 75.7314L84.5195 74.3748H84.553L79.3367 86.1998C79.248 86.1705 79.1554 86.1552 79.062 86.1544L79.0477 86.1568Z" fill="#EDF0F4"/>
<path d="M79.9099 86.7158C79.8857 86.6613 79.8561 86.6093 79.8215 86.5606L80.2085 86.1545L79.9099 86.7158Z" fill="#EDF0F4"/>
<path d="M79.616 86.3264L85.1093 74.1646L85.587 73.9926L86.2677 73.7538C86.3601 73.8983 86.4783 74.0246 86.6164 74.1264L80.7481 85.1131L79.616 86.3264Z" fill="#EDF0F4"/>
<path d="M80.5332 86.3264L81.1781 85.1322L84.7249 81.4062L80.5332 86.3264Z" fill="#EDF0F4"/>
<path d="M89.7955 75.3206L89.7716 75.3421L88.7231 76.7203L81.7776 84.067L87.0727 74.3199C87.188 74.3557 87.3078 74.375 87.4286 74.3772C87.861 74.3753 88.2659 74.1644 88.5153 73.8112L89.6856 74.3963C89.6113 74.698 89.6742 75.0172 89.8576 75.2681L89.7955 75.3206Z" fill="#EDF0F4"/>
<path d="M90.634 73.5723C90.2915 73.5971 89.9816 73.7845 89.8004 74.0762L88.6635 73.4815C88.8597 72.9438 88.6801 72.341 88.2217 71.9983L91.735 64.6252L90.634 73.5723Z" fill="#EDF0F4"/>
<path d="M91.4556 70.4888L92.1721 63.6866L93.1728 61.5872L91.4556 70.4888Z" fill="#EDF0F4"/>
<path d="M92.4442 61.217C92.544 61.2155 92.643 61.1994 92.738 61.1692C92.786 61.2132 92.8362 61.2546 92.8885 61.2934L92.3081 62.5067L92.4442 61.217Z" fill="#EDF0F4"/>
<path d="M92.3081 57.8087L92.8885 59.022C92.8351 59.0594 92.7848 59.1009 92.738 59.1462C92.6435 59.1138 92.5442 59.0976 92.4442 59.0985L92.3081 57.8087Z" fill="#EDF0F4"/>
<path d="M92.1816 56.6264L91.4651 49.8242L93.1919 58.7259L92.1816 56.6264Z" fill="#EDF0F4"/>
</svg>
