<svg width="120" height="120" viewBox="0 0 120 120" fill="none" xmlns="http://www.w3.org/2000/svg">
<path fill-rule="evenodd" clip-rule="evenodd" d="M60 120C27 120 0 93.0006 0 59.7012C0.3 26.7019 27 -0.297518 60.3 0.00247602C93.3 0.30247 120 27.0019 120 60.6012C119.7 93.3006 93 120 60 120Z" fill="#EDF0F4"/>
<path fill-rule="evenodd" clip-rule="evenodd" d="M22.001 34.1043C22.0225 34.1623 25.3925 45.2224 29.4899 58.6824C34.3278 74.5746 37.0299 83.3249 37.1966 83.6395C37.7166 84.6208 38.9801 85.5577 40.0977 85.7908C40.3873 85.8512 41.9716 85.8836 44.6346 85.8836C49.1468 85.8836 49.2481 85.874 50.222 85.3562C50.8177 85.0395 51.5807 84.3201 51.8885 83.7847C52.008 83.5769 53.8526 79.051 55.9875 73.7271C58.1225 68.4032 59.8969 64.0774 59.9305 64.1143C59.9642 64.1512 61.7383 68.4693 63.8731 73.7102C66.0078 78.951 67.8537 83.4279 67.9751 83.6588C68.4719 84.6036 69.6018 85.4639 70.733 85.7585C71.4401 85.9427 79.1428 85.9427 79.8499 85.7585C81.0553 85.4446 82.1592 84.571 82.6629 83.5328C82.8829 83.0794 89.9835 60.0334 89.9835 59.7729C89.9835 59.7172 87.8738 59.696 83.7522 59.7103L77.5209 59.7318L76.3712 63.5098L75.2215 67.2877L75.079 66.9519C75.0005 66.7672 73.5039 63.197 71.7533 59.0182C69.8458 54.4649 68.4143 51.1615 68.1811 50.7746C67.0795 48.9463 65.2888 47.4565 63.2957 46.71C58.9211 45.0716 53.962 46.8527 51.6097 50.9072C51.4399 51.2 49.76 54.996 47.8768 59.3428C45.9935 63.6897 44.4402 67.2336 44.4249 67.2184C44.4097 67.2032 42.1739 59.7322 39.4566 50.6163L34.5159 34.0418L28.2389 34.0203C23.2285 34.0031 21.97 34.0201 22.001 34.1043ZM82.433 43.5498C80.843 48.8021 79.526 53.1469 79.5065 53.2049C79.478 53.2891 80.7401 53.306 85.7548 53.2888L92.0387 53.2673L95.04 43.6546C96.6907 38.3676 98.0416 34.0323 98.0421 34.0208C98.0426 34.0093 95.1813 33.9999 91.6835 34L85.324 34.0001L82.433 43.5498Z" fill="black"/>
</svg>
