<svg width="120" height="120" viewBox="0 0 120 120" fill="none" xmlns="http://www.w3.org/2000/svg">
<path fill-rule="evenodd" clip-rule="evenodd" d="M60 0C93.132 0 120 26.868 120 60C120 93.132 93.132 120 60 120C26.868 120 0 93.132 0 60C0 26.868 26.868 0 60 0Z" fill="#383B4A"/>
<path fill-rule="evenodd" clip-rule="evenodd" d="M93.6359 63.6599L91.1879 66.1079C63.3719 38.4119 32.5199 53.8079 25.1519 58.1399C25.4127 57.3247 25.8654 56.5839 26.4719 55.9799L56.2079 26.2439C57.2256 25.2242 58.6071 24.6511 60.0479 24.6511C61.4886 24.6511 62.8701 25.2242 63.8879 26.2439L93.6239 55.9799C94.6479 56.9946 95.2249 58.3758 95.2272 59.8174C95.2294 61.259 94.6567 62.642 93.6359 63.6599Z" fill="white"/>
<path fill-rule="evenodd" clip-rule="evenodd" d="M70.6321 86.6641L63.9001 93.3961C62.8824 94.4159 61.5008 94.9889 60.0601 94.9889C58.6194 94.9889 57.2378 94.4159 56.2201 93.3961L49.7881 86.9641C60.1321 79.6441 68.9761 85.4281 70.6321 86.6641Z" fill="white"/>
<path fill-rule="evenodd" clip-rule="evenodd" d="M89.6759 67.6201L81.9959 75.3001C59.1719 54.1321 36.2759 67.7641 32.8439 70.0201L31.1519 68.3281C31.1746 68.3159 31.195 68.2997 31.2119 68.2801C61.1159 44.3041 87.1439 65.4481 89.6759 67.6201Z" fill="white"/>
<path fill-rule="evenodd" clip-rule="evenodd" d="M42.8519 80.04L41.0039 78.192C58.7519 62.016 78.2519 75.78 80.1359 77.172L72.2879 85.02C58.2359 71.496 45.2039 78.564 42.8519 80.04Z" fill="white"/>
</svg>
