<svg width="120" height="120" viewBox="0 0 120 120" fill="none" xmlns="http://www.w3.org/2000/svg">
<circle cx="60" cy="60" r="60" fill="#5A11A8"/>
<path fill-rule="evenodd" clip-rule="evenodd" d="M89.1526 40.6291L76.0469 53.0264C74.2759 49.4843 71.4423 45.9423 67.546 44.1712L74.2759 37.7955C64.3581 31.0656 51.2525 31.774 42.3973 39.5665L42.0431 39.9207C42.0431 39.9207 41.6888 39.9207 41.6888 40.2749C39.2094 42.4002 35.3131 42.046 33.1879 39.5665C32.4795 38.5039 31.771 37.0871 31.771 36.0245C31.771 34.2534 32.4795 32.4824 33.8963 31.4198C40.9804 25.044 50.1898 21.502 59.3992 21.502C70.7338 21.502 81.3601 26.1066 88.7984 34.9618C89.5068 35.6702 89.861 36.7329 89.861 37.7955C90.2152 39.2123 89.861 39.9207 89.1526 40.6291ZM37.4384 73.9246L44.1683 67.5489C45.9393 71.091 48.773 74.633 52.6693 76.4041L45.9393 82.7798C56.2114 89.1555 69.6712 87.0303 78.1722 78.8835C80.2974 76.4041 84.1937 75.6957 87.0274 77.8209C88.4442 78.8835 89.1526 80.6546 89.1526 82.4256C89.1526 84.1966 88.4442 85.9677 87.0274 87.0303C72.1507 102.261 47.3562 102.261 32.4795 87.3845C32.1253 87.0303 31.4168 86.3219 31.0626 85.6135C30.3542 84.9051 30 83.8424 30 83.134C30 81.7172 30.7084 80.3004 32.1253 79.2377L37.4384 73.9246ZM72.8591 60.4648C72.8591 53.7348 67.1918 47.7133 60.1076 47.7133C52.6693 47.7133 47.3562 53.7348 47.3562 60.4648C47.3562 67.1947 53.3777 73.2162 60.1076 73.2162C66.8376 73.2162 72.8591 67.1947 72.8591 60.4648Z" fill="white"/>
</svg>
